<svg xmlns="http://www.w3.org/2000/svg" width="615" height="385" viewBox="0 0 615 385"><path fill="none" stroke="#FFF" stroke-width="2.5" stroke-miterlimit="10" d="M588.789 379.054H26.919c-10.086 0-18.263-8.176-18.263-18.262V23.401c0-10.085 8.176-18.264 18.263-18.264h561.867c10.087 0 18.265 8.179 18.265 18.264v337.391c0 10.086-8.178 18.262-18.262 18.262z"/><path fill="#FFF" d="M85.045 47.759l-40.536 10.24v-10.24h40.536zM56.42 66.985H44.509v-6.059a8.071 8.071 0 0 1 1.043-.419c.278-.136.59-.278.941-.419.345-.136.657-.21.939-.21 3.342-.832 7.486-1.879 12.431-3.134 4.944-1.251 9.751-2.506 14.419-3.757a665.123 665.123 0 0 1 12.014-3.135c3.346-.837 5.084-1.253 5.225-1.253h1.044v18.388h-11.7v11.697h-4.181c-2.368 0-4.908-.032-7.626-.101-2.715-.072-5.188-.14-7.416-.209-2.23-.068-3.552-.245-3.971-.524l-1.252-1.047v-9.818zm.415 13.58c3.761 0 7.66.035 11.702.103 4.039.073 7.941.662 11.701 1.775v2.929c0 .833-.73 1.916-2.193 3.238-1.461 1.326-3.103 2.646-4.911 3.969a410.893 410.893 0 0 1-6.896 4.911h-1.044l-8.359-5.642V80.565zm.419 15.044h.418c.555.279 1.531.907 2.924 1.881 1.392.976 2.298 1.605 2.718 1.878v.417c0 .419-.28.979-.837 1.673a11.736 11.736 0 0 1-1.881 1.88 19.09 19.09 0 0 1-2.087 1.463c-.7.419-1.255.629-1.673.629v-9.823h.418zm9.402 6.689c.555 0 .975.069 1.253.208.28.138.627.347 1.045.625.836.702 1.883 1.433 3.134 2.193 1.255.769 2.507 1.571 3.761 2.406 1.389.976 2.853 1.95 4.388 2.924v39.491c-.699-.277-1.985-.8-3.864-1.566a270.445 270.445 0 0 1-5.954-2.505 325.288 325.288 0 0 0-5.957-2.512c-1.879-.762-3.169-1.354-3.867-1.773-.417-.136-1.183-.487-2.297-1.042a12.856 12.856 0 0 1-1.463-.839V109.82c0-.418.418-1.043 1.256-1.881a26.766 26.766 0 0 1 2.924-2.505 29.773 29.773 0 0 1 3.34-2.197c1.115-.627 1.884-.939 2.301-.939m13.582 51.19v12.746l-.834 1.881a388.756 388.756 0 0 0-8.153 9.61c-2.228 2.65-4.491 5.331-6.788 8.045-2.3 2.715-4.216 4.982-5.745 6.792-.28.556-.909.834-1.883.834v-50.774l23.403 10.866zm0 39.908H61.433c.697-.834 1.881-2.264 3.554-4.282a1694.71 1694.71 0 0 0 5.327-6.478 320.678 320.678 0 0 1 5.433-6.479 447.863 447.863 0 0 0 3.657-4.282l.834-1.046v22.567zM70 99.786c0-.832.382-1.632 1.151-2.398.763-.767 1.702-1.536 2.82-2.3a27.89 27.89 0 0 1 3.344-1.983c1.11-.555 2.089-.975 2.923-1.255v15.045h-.834c-1.116-.697-2.23-1.393-3.344-2.091a53.811 53.811 0 0 0-2.82-1.883 22.53 22.53 0 0 1-2.402-1.669c-.561-.278-.838-.766-.838-1.466m47.317-51.398l.417.832c.278.563.419.91.419 1.045.277.417.59 1.501.937 3.24.35 1.744.66 2.82.941 3.238-.282 0-.592.179-.941.524-.347.347-.66.524-.937.524-.559.278-1.606.66-3.134 1.147a480.842 480.842 0 0 0-4.809 1.569 198.356 198.356 0 0 0-4.805 1.673c-1.534.555-2.58.974-3.134 1.251V48.388h15.046zm-15.045 23.401c0 .282.137.594.419.941.277.347.417.665.417.938a1120.48 1120.48 0 0 1 2.507 5.747c1.114 2.58 2.33 5.539 3.657 8.884a349.635 349.635 0 0 0 4.284 10.34c1.53 3.55 2.956 7.001 4.283 10.341 1.324 3.344 2.507 6.306 3.55 8.881 1.046 2.58 1.846 4.496 2.405 5.749-.282.416-.699.765-1.254 1.042-.557.283-1.046.561-1.461.836-1.395.698-3.066 1.431-5.017 2.195a206.332 206.332 0 0 0-5.85 2.4c-2.23.979-4.596 1.953-7.103 2.93h-.837V71.789zm22.566 55.58c0 4.041-.453 8.012-1.357 11.911-.91 3.899-2.297 7.453-4.18 10.656a32.256 32.256 0 0 1-7.001 8.355c-2.787 2.375-6.129 3.974-10.028 4.808v-26.327c0-.28.419-.696 1.255-1.255a4.63 4.63 0 0 1 1.461-.624 198.57 198.57 0 0 1 4.909-2.088 535.374 535.374 0 0 0 5.957-2.51 193.537 193.537 0 0 1 7.104-2.925h1.88zm-10.445 34.686c.417-.138 1.077-.314 1.983-.52a24.955 24.955 0 0 0 2.82-.841 25.443 25.443 0 0 1 2.822-.832c.904-.21 1.495-.384 1.776-.524h1.881v34.686h-23.403c0-1.114.278-2.367.837-3.76a503.65 503.65 0 0 0 2.297-5.54 279.914 279.914 0 0 0 3.344-8.567 213.694 213.694 0 0 1 3.344-8.461c1.11-2.644 1.879-4.523 2.299-5.641m-3.764 1.881c0 .28-.14.767-.417 1.463-.279.699-.415 1.186-.415 1.463-.284.697-.769 1.916-1.465 3.657a562.746 562.746 0 0 1-2.298 5.637 950.693 950.693 0 0 1-2.4 5.75c-.769 1.811-1.224 3.064-1.361 3.759v-19.851a15.962 15.962 0 0 0 2.508-.625 12.306 12.306 0 0 1 2.087-.628 7.297 7.297 0 0 0 1.883-.625h1.878zm-7.52-97.161c0-.555.208-.869.624-.941.419-.068.837-.243 1.256-.52.555-.28 1.568-.698 3.03-1.255a167.61 167.61 0 0 1 4.599-1.669c1.599-.557 3.097-1.082 4.491-1.571 1.391-.485 2.366-.867 2.924-1.149 1.391.7 2.507 2.23 3.344 4.598.836 2.373 1.495 5.118 1.983 8.252.488 3.134.837 6.475 1.047 10.028.209 3.554.345 6.829.414 9.824.072 2.997.072 5.504 0 7.522a193.48 193.48 0 0 0-.102 3.445h7.104l-.417 2.093a7.234 7.234 0 0 0-.21 1.773v1.359c0 .416-.069.834-.209 1.253-.279.835-.487 1.326-.625 1.463-.417.833-.872 1.916-1.359 3.238a36.362 36.362 0 0 1-1.566 3.654 41.564 41.564 0 0 1-1.883 4.391h-.834l-1.044-2.09a12.402 12.402 0 0 0-.941-1.881 18.677 18.677 0 0 1-.939-1.673c-.559-1.251-1.359-3.165-2.405-5.743a548.26 548.26 0 0 0-3.655-8.776 2964.973 2964.973 0 0 1-4.388-10.346 633.694 633.694 0 0 1-4.283-10.34 408.95 408.95 0 0 0-3.657-8.777c-1.118-2.573-1.879-4.491-2.297-5.745v-.417zm22.566 88.803c0 .42-.419.767-1.256 1.042-.832.284-1.773.561-2.82.839a25.147 25.147 0 0 1-3.134.626c-1.042.138-1.773.206-2.193.206v-.832a162.262 162.262 0 0 1 3.344-8.152 201.305 201.305 0 0 0 2.82-6.789c.904-2.298 1.704-4.212 2.403-5.747 0-.28.135-.59.417-.939.277-.347.419-.661.419-.939v20.685zm0-107.19v6.476c0 .279-.35.524-1.047.732-.696.209-1.251.312-1.671.312-.417-.136-.731-.555-.939-1.251a18.71 18.71 0 0 1-.524-2.302 31.753 31.753 0 0 1-.31-2.403 18.77 18.77 0 0 1-.105-1.563h4.596zm-1.881 11.282c0-.693.067-1.183.21-1.461.135-.277.692-.417 1.671-.417v9.402a59.213 59.213 0 0 1-1.256-3.762c-.415-1.392-.625-2.644-.625-3.762m11.284 51.611c.278.555.659 1.671 1.147 3.344.487 1.669.731 2.785.731 3.34 0 .702-.731 1.324-2.193 1.881-1.461.559-2.403.839-2.82.839h-.629a95.68 95.68 0 0 0 1.567-4.705c.487-1.599 1.219-3.165 2.197-4.699m-.836 11.283c.277-.14.626-.278 1.042-.417.837-.277 1.394-.419 1.673-.419h1.045l7.521 26.328v1.881l-2.088.835c-1.255.418-2.44.769-3.554 1.046h-.417c-.7 0-1.289-.345-1.777-1.046-.491-.696-.941-1.53-1.358-2.506a16.012 16.012 0 0 1-.939-2.924c-.209-.975-.312-1.671-.312-2.09l-.836-20.688zm.836-67.7c0-.972.8-1.878 2.401-2.72 1.602-.832 3.449-1.528 5.538-2.083a49.76 49.76 0 0 1 6.373-1.256c2.157-.277 3.867-.417 5.118-.417h3.134l-21.521 53.49-1.043-.837V54.864zm8.565-6.476c-.281.139-.767.312-1.463.521-.697.21-1.461.487-2.298.836-.836.347-1.638.627-2.403.837-.767.209-1.218.384-1.358.52h-1.043v-2.715h8.565zm-7.522 104.266h-1.043v-1.883l1.043 1.883zm.836 2.924c.278.279.592.906.941 1.881.345.974.659 1.601.939 1.879a475.596 475.596 0 0 1 4.074 9.508c1.602 3.831 3.167 7.555 4.703 11.177a322.656 322.656 0 0 0 5.433 13.163v.837h-17.969v-37.611c0-.414.173-.659.522-.731.345-.069.661-.103.939-.103h.418zm0-48.059c0-.695.035-1.254.105-1.672.067-.415.381-1.112.94-2.087 1.392-3.481 3.166-7.976 5.328-13.478 2.156-5.503 4.284-10.83 6.374-15.984 2.089-5.152 3.897-9.645 5.431-13.478 1.533-3.829 2.37-5.817 2.507-5.955l1.047-1.878V109.4l-.837.419c-.559.278-.906.49-1.046.627-.557.281-1.602.698-3.135 1.251a65.263 65.263 0 0 0-4.803 1.988 93.505 93.505 0 0 1-4.91 2.087c-1.606.627-2.685 1.014-3.24 1.147h-.417c-.559 0-1.046-.416-1.463-1.251-.419-.837-.767-1.807-1.044-2.924a29.176 29.176 0 0 1-.627-3.135c-.142-.974-.21-1.672-.21-2.09m2.925 47.015c.419-.277 1.324-.591 2.718-.941 1.391-.345 2.365-.66 2.924-.938h.417c.555 0 .869.142.941.417.067.28.24.767.524 1.463l10.236 37.609v1.881c-2.647 0-4.945-1.53-6.896-4.597-1.953-3.06-3.624-6.719-5.013-10.968a115.961 115.961 0 0 1-3.45-13.06c-.905-4.46-1.704-8.082-2.401-10.866m18.807-42.21v32.806c0 .697-.455 1.251-1.359 1.673-.908.416-1.953.765-3.134 1.042a30.549 30.549 0 0 1-3.554.629c-1.185.14-1.984.277-2.403.417l-7.938-29.046 18.388-7.521zm-9.403 39.493c0-.277.45-.594 1.357-.941.904-.345 1.913-.66 3.029-.939 1.114-.275 2.161-.522 3.135-.73.974-.209 1.601-.314 1.883-.314v36.773l-9.404-33.849zm21.498 34.685c.557.698.557 1.326 0 1.881-.279.28-.415-.032-.415-.939.001-.909.136-1.219.415-.942m33.852-138.114c0 .696-.14 1.533-.417 2.506-.279.978-.769 1.673-1.463 2.092l-31.971 18.386V48.388h33.851zm-10.448 19.64c0 .418.033 1.186.104 2.297.07 1.118.139 2.3.208 3.552.072 1.257.141 2.44.21 3.554.07 1.116.105 1.883.105 2.3 0 2.646-.035 5.048-.105 7.206a59.59 59.59 0 0 1-.522 6.268 56.216 56.216 0 0 1-1.253 6.269c-.559 2.16-1.392 4.563-2.506 7.21h-7.21c-1.879 0-3.727-.104-5.538-.314-1.811-.208-3.413-.522-4.803-.938-1.393-.419-2.093-.977-2.093-1.673V76.595l23.403-8.567zm-23.404 39.491c.837 0 2.298.072 4.391.21 2.09.14 4.179.351 6.267.629 2.09.277 3.969.591 5.642.938 1.671.347 2.508.732 2.508 1.149v.837l-7.521 31.131c0 .415-.179.662-.524.732-.35.07-.665.102-.938.102h-.421l-9.404-6.476v-29.252zm.42 33.016c.417 0 1.149.243 2.195.731 1.046.485 2.053 1.147 3.028 1.981a23.376 23.376 0 0 1 2.614 2.615c.763.906 1.147 1.774 1.147 2.612v1.461l-7.521 30.925c0 .557-.208 1.079-.626 1.565-.42.492-.837.731-1.257.731v-42.623h.42zm4.179 47.01l21.729 6.479h-24.445c0-.974.105-2.298.313-3.972.209-1.669.869-2.507 1.985-2.507h.418zm-1.879-115.341c.277 0 .418.179.418.527 0 .347-.141.52-.418.52-.282 0-.421-.173-.421-.52 0-.348.139-.527.421-.527m9.404 76.686h.624c.837 0 1.741.316 2.716.939a38.118 38.118 0 0 1 3.029 2.193c1.046.839 2.055 1.673 3.03 2.512.975.832 1.809 1.463 2.508 1.878v18.386h14.417v19.225h-3.76l-30.926-9.819 8.362-35.314zm19.847-92.564c0 .702-.245 1.918-.729 3.659-.492 1.74-1.222 2.892-2.197 3.446l-23.401 8.358h-1.044c.277-.278.765-.592 1.461-.938.696-.35 1.182-.664 1.465-.941.973-.557 2.61-1.531 4.909-2.925a286.67 286.67 0 0 1 7.315-4.286 1414.74 1414.74 0 0 0 7.311-4.176c2.298-1.324 3.934-2.198 4.911-2.614v.417zm-10.448 54.119l16.924 2.718v9.816h-14.417v29.674c-.699-.138-1.671-.49-2.925-1.049a30.898 30.898 0 0 1-3.76-1.983c-1.255-.765-2.297-1.565-3.134-2.402-.836-.836-1.183-1.534-1.046-2.089l8.358-34.685zm1.046-3.761c0-.555.136-1.428.416-2.612.28-1.181.419-1.913.419-2.195l1.043 2.3h14v6.269c-.697 0-1.915-.032-3.654-.104a47.432 47.432 0 0 1-5.331-.522c-1.811-.278-3.413-.629-4.805-1.047-1.393-.415-2.088-.972-2.088-1.671v-.418zm6.475-40.955c.277 0 .418.14.418.417 0 .283-.141.42-.418.42-.28 0-.417-.137-.417-.42 0-.277.137-.417.417-.417m9.403.418h-6.059c0-.972.836-1.673 2.509-2.088 1.671-.417 2.853-.627 3.55-.627v2.715zm0-6.477c0 .701-.662 1.184-1.983 1.464-1.326.279-2.193.414-2.612.414 0-1.948.277-3.827.836-5.639.555-1.808 1.808-3.063 3.76-3.764v7.525zm.627-11.282c0 .417-.28.832-.833 1.251-.559.419-1.118.627-1.673.627v-1.878h2.506zm41-.574l5.248 71.315-1.47 1.467-9.438 1.889V47.814h5.66zm3.778 75.513c.977 0 1.606.349 1.887 1.046.14 1.959.384 5.454.734 10.487.347 5.036.736 10.352 1.155 15.945.419 5.592.802 10.872 1.153 15.834.347 4.968.594 8.496.734 10.596v3.145c0 1.122-.104 2.448-.312 3.983a25.075 25.075 0 0 1-1.049 4.514c-.494 1.467-1.084 2.723-1.785 3.774-.698 1.05-1.54 1.573-2.516 1.573h-9.438v-69.012a513.4 513.4 0 0 0 3.354-.839 24.841 24.841 0 0 1 2.728-.628 90.41 90.41 0 0 0 2.308-.417h1.047zm12.166-75.513l35.868 38.805v.836c0 .282-.14.771-.417 1.467-.281.706-.421 1.19-.421 1.47-.419.84-1.046 2.201-1.887 4.09a327.696 327.696 0 0 1-2.83 6.189 207.519 207.519 0 0 0-2.834 6.294c-.839 1.959-1.467 3.352-1.887 4.195-.28.417-.7.836-1.257 1.258-.562.421-1.123.629-1.68.629l-26.429 5.662h-3.462c-.771 0-1.153-.345-1.153-1.048l-5.243-69.848h13.632zm-5.664 146.41h-2.726v-1.05l1.887-3.775h.839v4.825zm-1.887-71.738c.279 0 .767-.173 1.469-.526.698-.345 1.187-.522 1.468-.522 1.814-.421 4.228-.977 7.234-1.679a308.123 308.123 0 0 1 8.707-1.89 784.829 784.829 0 0 0 7.237-1.469c2.024-.417 3.109-.625 3.252-.625h1.887l-12.376 26.428c-.139-1.816-.315-3.283-.523-4.403-.212-1.118-.598-1.92-1.155-2.414-.561-.487-1.328-.801-2.309-.945-.979-.136-2.306-.207-3.985-.207v26.845l-7.131 15.105a204.278 204.278 0 0 1-3.04-25.067 419.97 419.97 0 0 1-.735-24.855v-3.776zm10.489 45.307v26.43h-5.665l-1.049-11.329 6.714-15.101zm.838-56.216c1.258 0 2.375-.069 3.357-.208a11.053 11.053 0 0 0 2.308-.629c.697-.28 1.046-.767 1.046-1.467V69.629c0-.557-.281-1.053-.838-1.469a5.882 5.882 0 0 0-1.887-.941c-.704-.212-1.4-.351-2.099-.422-.702-.07-1.123-.107-1.259-.107h-.629v44.887zm1.051-63.763h6.082c9.648 0 16.22 2.202 19.715 6.607 3.495 4.403 5.244 11.36 5.244 20.868v6.506L272.466 49.7l-.837-1.886zm21.605 67.96c.554-.978 1.572-1.539 3.042-1.679 1.467-.139 2.686-.209 3.668-.209v1.049l-6.71 6.503v1.048c2.652 1.961 4.89 4.126 6.71 6.501 1.816 2.378 2.726 5.246 2.726 8.602v39.645a8.805 8.805 0 0 1-1.047 1.256c-.838.841-1.399 1.332-1.679 1.467a594.378 594.378 0 0 0-5.035 4.093 360.15 360.15 0 0 1-5.873 4.719 155.78 155.78 0 0 1-7.132 5.455h-3.774v-45.31l15.104-33.14zm9.436 69.01v2.202c0 1.05-.105 2.101-.312 3.148a15.351 15.351 0 0 1-.841 2.833c-.347.835-.875 1.256-1.573 1.256H286.73c.277-.278.591-.596.943-.945l.945-.945c.417-.419 1.289-1.185 2.62-2.306a112.8 112.8 0 0 1 4.195-3.354c1.467-1.12 2.9-2.236 4.3-3.356a134.652 134.652 0 0 1 2.936-2.308v3.775zm0-84.532c0 1.4.035 2.76.104 4.093.068 1.328-.069 2.479-.417 3.458a5.46 5.46 0 0 1-1.68 2.412c-.771.628-1.993.945-3.668.945h-1.889l7.549-16.153v5.245zm12.384 86.211c.558.699.558 1.332 0 1.889-.283.28-.42-.035-.42-.943 0-.911.137-1.226.42-.946m33.98-138.649c0 .699-.141 1.54-.419 2.514-.281.982-.771 1.679-1.468 2.101l-32.094 18.458V47.814h33.981zm-10.487 19.715c0 .421.031 1.188.105 2.306.068 1.123.137 2.309.207 3.567.072 1.26.141 2.45.211 3.568.068 1.12.106 1.889.106 2.306 0 2.658-.038 5.068-.106 7.235a60.705 60.705 0 0 1-.523 6.294 56.119 56.119 0 0 1-1.261 6.292c-.561 2.168-1.397 4.582-2.516 7.239h-7.236c-1.888 0-3.742-.107-5.561-.317-1.818-.208-3.429-.524-4.821-.941-1.401-.421-2.1-.979-2.1-1.679v-27.27l23.495-8.6zm-23.493 39.643c.839 0 2.306.074 4.405.21 2.098.141 4.193.353 6.291.631 2.1.279 3.986.596 5.665.945 1.678.347 2.517.733 2.517 1.153v.838l-7.549 31.251c0 .419-.181.668-.528.735-.35.07-.664.105-.941.105h-.422l-9.438-6.503v-29.365zm.419 33.144c.42 0 1.152.245 2.202.733 1.05.49 2.063 1.151 3.043 1.992a23.35 23.35 0 0 1 2.622 2.623c.767.91 1.151 1.782 1.151 2.623v1.47l-7.549 31.041c0 .561-.211 1.083-.63 1.572-.42.494-.84.736-1.259.736v-42.79h.42zm4.195 47.193l21.815 6.504h-24.541c0-.979.104-2.307.313-3.986.208-1.675.873-2.518 1.993-2.518h.42zm-1.887-115.787c.279 0 .418.18.418.527 0 .35-.139.524-.418.524-.281 0-.422-.174-.422-.524 0-.347.141-.527.422-.527m9.441 76.985h.628c.839 0 1.746.314 2.726.941a37.68 37.68 0 0 1 3.041 2.202c1.05.842 2.062 1.679 3.041 2.521.979.837 1.815 1.468 2.52 1.885v18.46h14.473v19.296h-3.776l-31.046-9.856 8.393-35.449zm19.925-92.924c0 .704-.247 1.926-.734 3.673-.49 1.747-1.227 2.9-2.204 3.459l-23.491 8.39h-1.05c.279-.28.767-.596 1.468-.943.7-.35 1.187-.667 1.471-.943.976-.557 2.62-1.536 4.929-2.936a277.07 277.07 0 0 1 7.344-4.302c2.584-1.47 5.03-2.865 7.339-4.195 2.307-1.328 3.948-2.204 4.93-2.624v.421zm-10.49 54.329l16.992 2.728v9.855h-14.473v29.785c-.704-.135-1.68-.487-2.937-1.048a31.509 31.509 0 0 1-3.775-1.992c-1.261-.769-2.309-1.574-3.147-2.413s-1.188-1.538-1.05-2.097l8.39-34.818zm1.05-3.776c0-.559.137-1.435.418-2.625.281-1.186.422-1.919.422-2.201l1.047 2.309h14.056v6.293c-.699 0-1.923-.033-3.672-.107a46.942 46.942 0 0 1-5.349-.524c-1.817-.277-3.427-.631-4.824-1.048-1.398-.419-2.098-.977-2.098-1.68v-.417zm6.502-41.114c.279 0 .42.14.42.418 0 .284-.141.422-.42.422-.281 0-.42-.138-.42-.422 0-.279.139-.418.42-.418m9.44.418h-6.084c0-.975.839-1.679 2.519-2.096 1.678-.419 2.866-.628 3.565-.628v2.724zm0-6.5c0 .703-.667 1.188-1.991 1.467-1.333.281-2.204.42-2.624.42 0-1.957.277-3.844.839-5.664.559-1.814 1.814-3.074 3.776-3.778v7.555zm.628-11.326c0 .417-.283.837-.837 1.255-.561.422-1.12.629-1.679.629v-1.885h2.516zm52.343-.632l-40.694 10.279V47.182h40.694zm-28.737 19.3h-11.957V60.4c.278-.14.626-.28 1.05-.421.278-.136.592-.279.945-.421.347-.138.66-.212.941-.212 3.355-.834 7.517-1.885 12.48-3.145 4.962-1.257 9.788-2.516 14.477-3.773a685.657 685.657 0 0 1 12.06-3.147c3.356-.838 5.104-1.255 5.243-1.255h1.048v18.458h-11.745v11.744h-4.196c-2.379 0-4.928-.035-7.656-.102a1556.6 1556.6 0 0 1-7.444-.21c-2.24-.07-3.565-.247-3.989-.528l-1.256-1.049v-9.857zm.419 13.634c3.776 0 7.688.033 11.747.104 4.055.073 7.973.663 11.748 1.783v2.938c0 .837-.734 1.924-2.204 3.25-1.467 1.332-3.113 2.658-4.93 3.985a407.38 407.38 0 0 1-6.921 4.931h-1.05l-8.391-5.665V80.116zm.422 15.101h.415c.561.282 1.538.91 2.939 1.889 1.396.979 2.306 1.612 2.728 1.887v.417c0 .422-.281.983-.839 1.679-.561.704-1.19 1.33-1.889 1.889a19.9 19.9 0 0 1-2.098 1.469c-.701.42-1.257.63-1.679.63v-9.859h.423zm9.436 6.716c.558 0 .979.07 1.258.208.281.14.631.349 1.05.626.839.706 1.889 1.439 3.146 2.204 1.261.771 2.52 1.577 3.775 2.411a109.86 109.86 0 0 0 4.408 2.938v39.645c-.704-.28-1.995-.802-3.882-1.573a281.32 281.32 0 0 1-5.978-2.516c-2.1-.91-4.091-1.747-5.979-2.52-1.887-.767-3.182-1.361-3.88-1.781-.42-.137-1.19-.49-2.309-1.047a13.122 13.122 0 0 1-1.468-.842v-30.203c0-.422.422-1.05 1.261-1.889a26.97 26.97 0 0 1 2.937-2.516 29.665 29.665 0 0 1 3.354-2.203c1.119-.632 1.889-.942 2.307-.942m13.637 51.389v12.793l-.841 1.889a387.147 387.147 0 0 0-8.182 9.646 3075.303 3075.303 0 0 1-6.816 8.078c-2.307 2.725-4.231 5.001-5.767 6.818-.281.558-.912.839-1.89.839v-50.973l23.496 10.91zm0 40.063h-18.88a1752.677 1752.677 0 0 0 8.916-10.803 329.962 329.962 0 0 1 5.454-6.504 389.51 389.51 0 0 0 3.669-4.299l.841-1.049v22.655zM391.516 99.41c0-.837.384-1.638 1.154-2.409.767-.769 1.712-1.54 2.832-2.308a27.843 27.843 0 0 1 3.358-1.992c1.114-.557 2.096-.979 2.937-1.26v15.106h-.841l-3.356-2.101a53.997 53.997 0 0 0-2.83-1.89 22.78 22.78 0 0 1-2.413-1.675c-.56-.278-.841-.768-.841-1.471m26.422 90.409c0-.557.066-1.432.211-2.623.136-1.186.21-1.92.21-2.202l.629-.42c.419-.28.945-.698 1.573-1.259a13.196 13.196 0 0 1 1.991-1.467 18.916 18.916 0 0 1 2.098-1.467h1.261l15.729 7.549v6.081h-23.701v-4.192zm1.049-9.438c0-.28.068-.769.208-1.47.139-.699.211-1.188.211-1.467h.42l1.469.419c.135 0 .348.138.629.417l.211.211v.419l-.422.419c-.418.419-.769.703-1.048.839-.281.281-.56.493-.839.628l-.839.417v-.832zm1.887-5.248c-.42 0-.7-.068-.839-.208-.141 0-.209-.069-.209-.21v-3.775l4.823-45.935 13.636 40.274v1.255l-1.468 1.471c-.421.417-1.192 1.015-2.309 1.779a53.736 53.736 0 0 0-3.355 2.518 51.696 51.696 0 0 1-3.358 2.518c-1.12.769-1.885 1.363-2.307 1.779h-1.469a5.18 5.18 0 0 1-1.257-.624c-.281-.141-.599-.28-.945-.421-.349-.135-.664-.28-.943-.421m4.614-61.457c0-.28.07-.837.211-1.679.137-.837.211-1.395.211-1.68.556.286 1.152.633 1.78 1.051.63.419 1.154.912 1.574 1.471l.419.416v.421l-.419.838c-.141.282-.42.629-.838 1.051l-.632.419c-.283 0-.664.179-1.152.524-.491.349-.875.524-1.154.524v-3.356zm4.824-3.359c-.281-.277-.91-.734-1.886-1.358-.981-.631-1.609-1.084-1.889-1.365v-3.359c0-.417.068-1.223.211-2.413.137-1.183.207-1.918.207-2.201l.421-1.047c.418-.559 1.152-1.644 2.202-3.251a147.804 147.804 0 0 0 3.252-5.243 144.073 144.073 0 0 1 3.252-5.248c1.048-1.603 1.78-2.688 2.202-3.248.276-.279.592-.768.945-1.469.347-.699.658-1.188.941-1.467l7.132 7.13v5.246l-15.733 20.345-1.257-1.052zm-3.774 11.959c0-.141.068-.347.211-.629.137-.135.241-.277.313-.421.068-.135.172-.277.314-.417.135-.14.241-.277.313-.417.07-.141.245-.347.526-.633.136-.28.347-.557.628-.837l.839-1.052a8.692 8.692 0 0 1 1.05-.416c.837-.279 1.327-.421 1.47-.421.417 0 .696-.067.839-.21.137 0 .274-.067.417-.212h1.05l10.905 7.974v1.467c0 .281-.072 1.224-.206 2.832-.143 1.61-.249 3.324-.317 5.139a101.87 101.87 0 0 1-.313 5.036c-.143 1.538-.21 2.515-.21 2.937v1.047h7.973v-13.217l17.619 13.217-.632.42a817.091 817.091 0 0 0-9.647 7.341 504.837 504.837 0 0 0-8.077 6.084c-2.726 2.098-5 3.773-6.816 5.034l-1.261.836-.626.633c-.422.417-.771.698-1.05.834l-.839.421h-.418l-14.055-41.11v-1.26zm1.257-32.096c0-.553.07-1.675.211-3.352.137-1.679.314-3.532.523-5.561.211-2.022.422-3.985.633-5.872.206-1.885.379-3.32.521-4.297 0-.28.106-.737.312-1.367.213-.629.317-1.082.317-1.361 1.395 1.398 2.798 2.795 4.196 4.195a52.786 52.786 0 0 1 3.776 4.193l-.422 1.046c-.139.286-.594 1.02-1.363 2.206a412.85 412.85 0 0 1-2.621 3.987 233.904 233.904 0 0 0-2.937 4.507c-.979 1.54-1.678 2.73-2.098 3.566l-1.05 1.259V90.18zm10.49 93.345c-.422-.138-1.12-.455-2.1-.943-.978-.489-2.029-1.014-3.144-1.575a63.72 63.72 0 0 0-3.147-1.467c-.981-.417-1.678-.769-2.1-1.049v-.628l.632-.419c.275-.14.907-.594 1.886-1.365.977-.769 1.992-1.569 3.043-2.413a198.565 198.565 0 0 1 2.935-2.304c.909-.701 1.573-1.19 1.995-1.467l.839-.421h.628l2.726 8.39-.417 7.132h-.422c-.281 0-.839-.177-1.676-.524-.839-.348-1.401-.667-1.678-.947m-7.552-121.868c0-.559.032-1.538.103-2.935.072-1.4.175-2.835.317-4.302.136-1.467.314-2.903.521-4.302.211-1.396.386-2.375.528-2.938h24.958l-1.046 1.889a155.548 155.548 0 0 0-5.247 7.973 115.804 115.804 0 0 0-4.403 6.919 211.237 211.237 0 0 1-3.565 5.874c-.281.284-.56.667-.839 1.153-.281.496-.561.943-.839 1.367-.422.559-.771 1.12-1.05 1.677h-.42l-9.019-9.02v-3.355zm3.355 50.551c.278-.559.945-1.538 1.995-2.938a152.76 152.76 0 0 1 3.354-4.302 395.087 395.087 0 0 0 3.356-4.193c1.052-1.326 1.71-2.202 1.993-2.624.279-.279.595-.659.943-1.153.348-.489.665-.873.945-1.15v6.082c0 .417-.072 1.502-.21 3.249-.139 1.751-.211 2.833-.211 3.252-.281 0-.595.177-.941.527-.354.347-.669.524-.945.524-.42.137-1.05.386-1.89.731-.839.351-1.78.736-2.83 1.153-1.05.419-1.991.806-2.83 1.153-.839.352-1.469.599-1.889.734h-.42l-.421-.416v-.629zm10.279 8.6c-.281-.14-.733-.417-1.363-.838s-1.293-.908-1.993-1.467l-2.098-1.68a26.6 26.6 0 0 0-1.678-1.257l-.418-.422c.554-.277 1.744-.769 3.565-1.467 1.814-.696 3.002-1.188 3.564-1.467.279 0 .556-.07.839-.211.139 0 .348-.068.628-.21h.422v6.082c0 .283-.072.842-.211 1.679-.141.843-.211 1.4-.211 1.677l-1.046-.419zm-2.306 48.243c0-.135-.038-.312-.106-.524a1.69 1.69 0 0 1-.104-.521c-.139-.139-.211-.28-.211-.422l.422-.419.839-.629v3.359h-.422l-.418-.844zm7.546-84.743c0-.417-.068-1.326-.206-2.724-.141-1.397-.209-2.377-.209-2.937 0-.28-.104-.663-.315-1.155-.213-.49-.315-.869-.315-1.153 0 .284-.072.664-.208 1.153-.143.493-.211.875-.211 1.155 0 .279-.07.91-.211 1.887-.139.982-.211 1.609-.211 1.887-.556-.278-1.433-1.014-2.619-2.203-1.188-1.182-1.923-1.992-2.202-2.414-.145-.135-.281-.347-.422-.624-.28-.28-.417-.557-.417-.841v-.419l.417-1.05c.559-.977 1.643-2.691 3.252-5.139a919.713 919.713 0 0 0 5.036-7.762 835.535 835.535 0 0 1 5.032-7.761c1.608-2.444 2.692-4.158 3.254-5.139 0-.419.135-.767.418-1.045l.421-.42.629-.423h4.192l.422.423c.137 1.959.348 3.774.628 5.453.137 1.538.279 3.04.422 4.511a73.23 73.23 0 0 0 .418 3.668v4.827L451.08 85.778l-1.473-1.47zm4.198 78.032h-5.243l1.046-.84 22.658-17.2c.279.284.558.496.839.631.279.279.483.456.628.524.139.074.279.175.42.312l.628.631c.141.144.211.282.211.419 0 .281.068.562.211.838.279.562.418.911.418 1.051l3.775 35.45-18.876 9.435h-1.468c-.283-.137-.63-.313-1.054-.524-.416-.21-.771-.381-1.044-.523l-1.263-.419-1.886-29.785zm-3.354-58.941c0-.278-.039-.802-.106-1.577a27.74 27.74 0 0 1-.104-2.514c0-.911-.034-1.784-.106-2.625a24.413 24.413 0 0 1-.103-1.889v-3.353c0-.28.175-.557.521-.841.35-.277.665-.421.948-.421l11.324 11.33v.422c0 .139-.07.207-.211.207-.138.141-.419.21-.839.21-.281.142-.873.388-1.78.736-.913.35-1.854.734-2.834 1.15-.978.421-1.923.808-2.83 1.155a43.87 43.87 0 0 1-1.991.733l-1.261.421c0-.277-.104-.803-.313-1.576-.213-.762-.315-1.289-.315-1.568m2.937 23.91l-1.47-1.257c-.139-.977-.211-1.814-.211-2.516a10.232 10.232 0 0 1-.206-1.993v-1.785c0-.28-.038-.802-.106-1.571a25.855 25.855 0 0 1-.104-2.52c0-.904-.036-1.746-.106-2.515a21.036 21.036 0 0 1-.104-1.784v-1.885l.211-.212c.136 0 .24-.033.312-.104.07-.068.177-.105.315-.105.422-.279 1.187-.659 2.309-1.155 1.118-.487 2.307-.975 3.562-1.467 1.263-.488 2.447-.941 3.569-1.361a94.797 94.797 0 0 1 2.308-.843c.557 0 .908-.067 1.046-.209.139 0 .279-.068.422-.208l6.71 6.499 2.309 24.542v4.826c0 .142-.07.284-.211.419-.281.284-.558.423-.837.423l-.839.625-1.05-.625-17.829-13.219zm13.633-57.474l.42.419 2.937 27.898v.421l-.418.417a2.59 2.59 0 0 1-1.05.629c-.841.283-1.333.42-1.469.42a.906.906 0 0 0-.42.104.9.9 0 0 1-.419.106c-.143.141-.281.212-.418.212h-.632l-12.584-12.796 14.053-17.83zm2.306 121.871c.7-.279 1.573-.697 2.623-1.26a156.5 156.5 0 0 1 3.252-1.675 86.845 86.845 0 0 0 3.565-1.892h.628c0 .419.07.839.211 1.263 0 .277.034.629.104 1.045.067.422.105.771.105 1.051v3.772h-14.683c.279-.276.976-.658 2.096-1.154 1.12-.485 1.818-.868 2.099-1.15m-.837-89.358c.136 0 .276-.069.419-.21a.88.88 0 0 0 .418-.104c.139-.068.349-.102.632-.102h.418l.421.836v2.938l-2.729-2.938.421-.42zm6.082 40.065c.28 0 .419.177.419.524 0 .35-.139.526-.419.526-.281 0-.42-.176-.42-.526 0-.348.139-.524.42-.524m17.21-93.763c1.957 1.677 3.88 3.64 5.769 5.875 1.887 2.24 3.109 4.687 3.67 7.344l4.612 33.98v.419c0 .701-.348 1.226-1.048 1.573-.7.349-1.257.665-1.676.945-.42.277-1.19.624-2.307 1.046a67.85 67.85 0 0 0-3.356 1.365 70.48 70.48 0 0 1-3.357 1.361c-1.12.422-1.888.703-2.307.84V48.65zm13.635 52.021c.976 0 1.468.628 1.468 1.887.137.563.42 2.03.839 4.407.42 2.377.837 5.107 1.259 8.178.417 3.079.803 6.226 1.152 9.44.349 3.22.525 5.946.525 8.182v2.726l-18.878 6.082v-35.238c.139-.136.345-.28.628-.421l1.259-.629c.42-.14 1.188-.452 2.309-.941 1.118-.489 2.231-.978 3.354-1.471a73.124 73.124 0 0 1 3.358-1.363 85.274 85.274 0 0 1 2.307-.838h.42zm5.243 37.755h.839c.42 0 .871 1.296 1.363 3.881.489 2.59.945 5.842 1.36 9.753a408.48 408.48 0 0 1 1.158 12.797c.346 4.614.659 8.984.941 13.109.279 4.125.488 7.694.631 10.699.137 3.009.209 4.791.209 5.347h-25.38v-49.501l18.879-6.085zm-13.844-90.613c1.259 0 1.991.209 2.202.629.21.419.312 1.12.312 2.096v1.889c-.7-.422-1.433-1.05-2.202-1.889-.769-.839-1.294-1.747-1.575-2.726h1.263zm19.506 0v26.432l-12.376-15.106c-1.12-1.538-1.713-3.424-1.78-5.662a174.036 174.036 0 0 1-.106-5.664h14.262zm-12.376 15.94a83.468 83.468 0 0 1 3.777 3.042 51.327 51.327 0 0 1 3.984 3.776 26.237 26.237 0 0 1 3.252 4.197c.907 1.465 1.362 2.83 1.362 4.089V93.12c-.282 0-.562.07-.839.208-.562.284-.911.496-1.048.631-.56.282-1.437.667-2.623 1.153-1.188.491-1.923.736-2.202.736h-.839c-1.12-4.894-2.202-10.207-3.252-15.944-1.048-5.732-1.573-10.976-1.573-15.733v-.418zm5.664 35.033c.976-.559 2.168-1.123 3.565-1.679l3.146-1.258v37.754l-1.887 1.048a69.53 69.53 0 0 1-3.88-16.461 151.41 151.41 0 0 1-.945-16.681v-2.723zm6.712 38.594v13.213l-1.887-13.213h1.887zm12.803-90.618c.42 0 1.225.037 2.413.107 1.186.069 2.444.142 3.775.209 1.327.071 2.587.14 3.775.212 1.187.067 1.991.175 2.413.312.558.142 1.326.35 2.309.629.975.281 1.918.593 2.83.943.907.352 1.678.628 2.306.838.631.212.945.389.945.524v.839l-8.39 65.234c-.281 1.398-.526 2.202-.734 2.414-.211.209-.808.314-1.783.314-.7 0-1.611-.07-2.726-.21a45.095 45.095 0 0 1-3.252-.524 40.444 40.444 0 0 1-2.729-.629c-.767-.21-1.152-.385-1.152-.524V46.762zm0 73.628c.42 0 1.048.071 1.887.208.839.14 1.784.316 2.834.526 1.046.208 1.991.419 2.83.626.84.21 1.47.388 1.89.527.7.281 1.186.454 1.471.524.277.07.416.389.416.943v.417l-9.019 69.851h-2.309V120.39zm14.264 2.725c.279.142.805.313 1.573.524.767.209 1.606.387 2.518.522.907.142 1.746.285 2.517.422.765.144 1.363.281 1.783.42.276 0 .525.07.736.208.207.143.451.282.732.417l.837.424v48.662h13.847l-14.264 19.298H533.95l9.439-70.897zm10.279-70.687v69.849h-2.098c-.981 0-2.027-.07-3.147-.208-1.12-.14-2.096-.352-2.935-.633-.839-.277-1.261-.629-1.261-1.046v-5.666c.558-4.333 1.05-8.179 1.468-11.537.419-3.356.907-7.163 1.467-11.43.559-4.266 1.12-8.565 1.68-12.9.559-4.334 1.08-8.496 1.574-12.485.487-3.981.943-7.373 1.363-10.172 0-.555.174-1.429.525-2.622.348-1.185.521-1.919.521-2.203l.843 1.053zm-3.776-5.246c.279 0 .418.177.418.524 0 .352-.139.527-.418.527-.282 0-.421-.175-.421-.527 0-.348.138-.524.421-.524m3.776 1.467h-.842l.842-1.046v1.046zm15.101 145.364h-11.325v-1.045a145.342 145.342 0 0 1 3.773-4.826 44.482 44.482 0 0 0 3.147-3.985c.976-1.398 1.814-2.518 2.518-3.357l1.887-1.887v15.1zm-524.674 140c0-.443.053-1.138.167-2.081.108-.939.168-1.521.168-1.746l.497-.334a12.04 12.04 0 0 0 1.249-.997 10.521 10.521 0 0 1 1.581-1.164 15.126 15.126 0 0 1 1.66-1.164h1.001l12.474 5.987v4.825H44.095v-3.326zm.832-7.487c0-.222.056-.608.165-1.165.111-.556.167-.943.167-1.164h.335l1.164.331c.109 0 .276.11.5.334l.167.166v.333l-.335.332c-.331.333-.608.558-.828.666a2.58 2.58 0 0 1-.667.498l-.666.333v-.664zm1.496-4.161c-.33 0-.555-.055-.665-.165-.112 0-.165-.056-.165-.166v-2.993l3.823-36.43 10.816 31.939v.995l-1.166 1.165c-.333.333-.945.807-1.829 1.413a40.846 40.846 0 0 0-2.662 1.997 41.472 41.472 0 0 1-2.661 1.997c-.891.608-1.497 1.08-1.832 1.411h-1.163a4.07 4.07 0 0 1-.998-.496 13.71 13.71 0 0 0-.748-.333 7.691 7.691 0 0 1-.75-.334m3.659-48.738c0-.221.058-.664.169-1.331.106-.664.167-1.105.167-1.333.441.228.912.502 1.412.833.5.331.914.725 1.248 1.167l.335.329v.335l-.335.664c-.111.225-.333.5-.665.833l-.499.331c-.225 0-.529.143-.916.418-.391.277-.694.415-.917.415v-2.661zm3.827-2.664c-.224-.221-.722-.582-1.497-1.077-.777-.502-1.276-.859-1.499-1.084v-2.662c0-.331.056-.97.169-1.913.109-.939.165-1.521.165-1.746l.333-.831c.333-.441.915-1.303 1.748-2.579.832-1.274 1.689-2.66 2.579-4.157a111.557 111.557 0 0 1 2.577-4.161c.83-1.272 1.412-2.132 1.748-2.577.22-.221.469-.608.748-1.164.276-.554.525-.941.749-1.164l5.656 5.654v4.161l-12.479 16.134-.997-.834zm-2.995 9.484c0-.11.056-.276.169-.5a1.28 1.28 0 0 0 .247-.333c.055-.108.138-.221.251-.331.108-.11.193-.223.249-.333.055-.11.193-.275.417-.5.109-.221.276-.441.498-.664l.668-.835c.22-.108.497-.219.83-.329.664-.222 1.053-.334 1.165-.334.332 0 .553-.054.667-.166.106 0 .218-.055.332-.167h.832l8.649 6.321v1.164c0 .225-.057.974-.167 2.248a81.582 81.582 0 0 0-.249 4.074 81.22 81.22 0 0 1-.249 3.993c-.112 1.218-.166 1.995-.166 2.328v.831h6.32v-10.479l13.975 10.479-.501.333a708.853 708.853 0 0 0-7.652 5.821 427.273 427.273 0 0 0-6.404 4.825c-2.163 1.664-3.965 2.993-5.406 3.992l-.997.665-.5.499c-.332.332-.61.557-.83.665l-.667.333h-.332l-11.147-32.602v-.998zm1-25.454c0-.439.055-1.328.166-2.659.107-1.331.25-2.8.416-4.408.167-1.605.333-3.161.501-4.656.165-1.498.3-2.634.416-3.411 0-.221.083-.582.246-1.081.168-.5.251-.859.251-1.082l3.328 3.328a42.502 42.502 0 0 1 2.995 3.325l-.335.831c-.109.226-.471.808-1.079 1.749-.612.943-1.306 1.995-2.083 3.161a195.046 195.046 0 0 0-2.327 3.575c-.777 1.22-1.332 2.163-1.665 2.828l-.83.995v-2.495zm8.318 74.028c-.335-.11-.89-.361-1.667-.748-.775-.388-1.608-.803-2.491-1.249a52.116 52.116 0 0 0-2.495-1.164c-.78-.331-1.333-.608-1.665-.831v-.5l.499-.331c.22-.11.72-.472 1.497-1.084a317.75 317.75 0 0 0 2.414-1.912 141.34 141.34 0 0 1 2.327-1.827c.721-.556 1.247-.943 1.583-1.164l.666-.333h.498l2.163 6.651-.332 5.657h-.335c-.222 0-.667-.139-1.33-.414-.667-.277-1.112-.528-1.332-.751m-5.99-96.649c0-.442.027-1.219.083-2.329a72.4 72.4 0 0 1 .665-6.822c.167-1.104.305-1.881.417-2.328h19.794l-.83 1.499a122.76 122.76 0 0 0-4.16 6.321 91.826 91.826 0 0 0-3.493 5.487 162.637 162.637 0 0 1-2.828 4.659 4.343 4.343 0 0 0-.664.913c-.224.394-.446.751-.667 1.084-.335.443-.612.89-.832 1.331h-.333l-7.153-7.152v-2.663zm2.662 40.091c.22-.444.749-1.219 1.581-2.329.83-1.107 1.716-2.248 2.66-3.412a357.212 357.212 0 0 0 2.664-3.326c.833-1.052 1.355-1.746 1.579-2.079.222-.221.471-.524.75-.913.273-.39.524-.694.748-.916v4.826c0 .331-.057 1.19-.167 2.575-.11 1.391-.168 2.248-.168 2.579-.222 0-.471.141-.746.418-.28.274-.528.415-.748.415-.335.11-.833.307-1.498.582-.667.277-1.412.582-2.245.913-.832.331-1.581.639-2.247.914-.666.28-1.164.474-1.496.582h-.333l-.333-.329v-.5zm8.152 6.82c-.225-.11-.584-.333-1.082-.666a23.013 23.013 0 0 1-1.581-1.164c-.557-.442-1.112-.888-1.662-1.331-.56-.441-1-.775-1.333-.998l-.333-.333c.44-.221 1.385-.61 2.829-1.164 1.438-.554 2.381-.941 2.826-1.164.222 0 .441-.055.666-.167.111 0 .276-.056.5-.169h.333v4.824c0 .227-.057.666-.167 1.332-.111.667-.167 1.11-.167 1.331l-.829-.331zm-1.829 38.258c0-.108-.031-.248-.084-.415a1.363 1.363 0 0 1-.083-.415c-.111-.108-.168-.222-.168-.334l.335-.331.664-.5v2.664h-.332l-.332-.669zm5.987-67.204c0-.331-.058-1.052-.167-2.162-.111-1.108-.165-1.885-.165-2.328 0-.221-.084-.524-.253-.916-.167-.387-.249-.69-.249-.915 0 .225-.057.528-.165.915-.112.392-.168.695-.168.916 0 .223-.055.723-.166 1.497-.111.777-.167 1.276-.167 1.495-.442-.219-1.137-.803-2.079-1.746-.943-.939-1.524-1.579-1.747-1.913a1.883 1.883 0 0 1-.332-.497c-.225-.222-.332-.442-.332-.667v-.333l.332-.831c.441-.774 1.3-2.136 2.579-4.074a714.066 714.066 0 0 0 3.991-6.156 653.183 653.183 0 0 1 3.992-6.154c1.274-1.939 2.134-3.301 2.579-4.075 0-.335.107-.612.332-.831l.335-.333.498-.335h3.327l.333.335c.109 1.554.276 2.993.5 4.325.106 1.221.22 2.411.333 3.575.108 1.164.22 2.138.33 2.91v3.828l-12.31 15.635-1.161-1.165zm3.328 61.881h-4.16l.833-.664 17.966-13.642c.22.226.443.394.667.5.222.223.386.361.497.416.109.06.223.141.333.249l.498.499c.11.115.169.226.169.334 0 .223.053.443.167.664.22.445.33.723.33.833l2.995 28.113-14.971 7.483h-1.165c-.224-.108-.497-.247-.832-.416-.333-.166-.61-.301-.83-.413l-1-.335-1.497-23.621zm-2.662-46.74c0-.223-.028-.637-.084-1.251a22.151 22.151 0 0 1-.084-1.995c0-.721-.026-1.415-.082-2.079a18.896 18.896 0 0 1-.083-1.5v-2.659c0-.221.139-.441.416-.664.276-.222.526-.336.751-.336l8.981 8.984v.336c0 .11-.057.164-.169.164-.108.11-.33.167-.663.167-.224.11-.692.307-1.414.582a65.17 65.17 0 0 0-2.247.913c-.777.333-1.525.641-2.244.915-.722.279-1.248.474-1.581.582l-.999.336c0-.221-.082-.639-.249-1.251-.167-.607-.249-1.024-.249-1.244m2.329 18.96l-1.166-.997a14.498 14.498 0 0 1-.167-1.993 8.17 8.17 0 0 1-.164-1.582v-1.415c0-.221-.031-.637-.084-1.246a21.24 21.24 0 0 1-.083-2c0-.716-.031-1.385-.084-1.993a15.82 15.82 0 0 1-.084-1.415v-1.495l.168-.167c.106 0 .191-.027.247-.084a.36.36 0 0 1 .25-.084c.333-.221.941-.522 1.83-.916a94.381 94.381 0 0 1 2.826-1.164c1-.385 1.942-.746 2.83-1.077a57.98 57.98 0 0 1 1.832-.669c.442 0 .72-.054.83-.169.111 0 .22-.052.333-.162l5.321 5.154 1.832 19.463v3.827c0 .112-.057.226-.169.334-.224.223-.439.333-.661.333l-.667.498-.832-.498-14.138-10.483zm10.811-45.579l.333.331 2.328 22.126v.333l-.331.333c-.224.223-.501.39-.834.498-.665.225-1.055.333-1.163.333a.739.739 0 0 0-.333.083.715.715 0 0 1-.333.084c-.11.112-.222.169-.33.169h-.5L71.876 253l11.144-14.141zm1.83 96.65c.555-.222 1.248-.555 2.08-1 .833-.439 1.69-.885 2.581-1.329a69.218 69.218 0 0 0 2.826-1.497h.499c0 .331.056.664.167.997 0 .224.027.5.082.831.055.334.084.612.084.833v2.995H81.524c.22-.223.772-.523 1.663-.917.886-.386 1.439-.691 1.663-.913m-.664-70.864c.109 0 .22-.057.331-.167a.715.715 0 0 0 .333-.084c.11-.055.277-.08.501-.08h.331l.333.662v2.328l-2.163-2.328.334-.331zm4.824 31.772c.222 0 .333.139.333.414 0 .278-.112.417-.333.417s-.333-.139-.333-.417c0-.275.111-.414.333-.414m25.192-53.729l-9.65 5.987v-24.621l9.65 18.634zm-9.65 8.98c0-.555.471-1.219 1.415-1.994a20.436 20.436 0 0 1 3.246-2.163 41.397 41.397 0 0 1 3.576-1.749c1.165-.497 2.021-.746 2.579-.746h.332l7.986 14.139v21.293c1.552 0 2.769-.026 3.658-.084.886-.055 1.579-.301 2.081-.749.5-.441.804-1.136.912-2.077.114-.941.222-2.301.335-4.077.22.333.606 1.056 1.163 2.162.553 1.112.941 1.889 1.166 2.328v.667l-5.987 16.467c-.225.559-.613.833-1.168.833h-3.325l-17.967-5.987v-38.263zm17.967 46.411l.666.835c0 .221.082.61.247 1.162.168.559.253 1 .253 1.331 0 2.659-.5 5.35-1.499 8.067-.999 2.72-2.163 5.187-3.495 7.404a103.346 103.346 0 0 1-4.24-1.666 57.878 57.878 0 0 1-4.657-2.162c-1.5-.774-2.747-1.605-3.744-2.494-.999-.888-1.499-1.772-1.499-2.662v-15.803l17.968 5.988zm-17.967 12.809c.222 0 .471.114.751.333.273.225.524.333.748.333.442.333 1.248.833 2.411 1.497a52.234 52.234 0 0 1 3.577 2.247 51.355 51.355 0 0 0 3.576 2.243c1.167.669 1.967 1.165 2.414 1.5a19.574 19.574 0 0 1-.833 2.995 7.842 7.842 0 0 1-.915 2.075c-.39.614-.806.917-1.248.917-.111 0-.721-.054-1.83-.164a48.432 48.432 0 0 1-3.576-.502 41.853 41.853 0 0 1-3.495-.747c-1.055-.274-1.581-.527-1.581-.748v-11.979zm10.481 16.469c0 .112-.139.664-.416 1.663-.277.998-.641 2.08-1.081 3.246a702.026 702.026 0 0 1-1.248 3.242c-.391 1.001-.751 1.495-1.084 1.495h-6.653v-11.976l10.482 2.33zm1.829-106.296c2.105 0 4.351-.056 6.737-.166a79.35 79.35 0 0 1 7.235 0c2.44.11 4.797.389 7.07.831 2.273.445 4.352 1.222 6.241 2.328l-.667.666c-.443.444-1.72 1.331-3.827 2.662s-4.491 2.828-7.151 4.49a232.444 232.444 0 0 1-8.07 4.823c-2.719 1.558-4.854 2.83-6.404 3.828-.111.112-.391.278-.833.5-.222.11-.444.166-.664.166-.224 0-.391-.056-.5-.166-.224-.222-.333-.388-.333-.5l-10.48-19.463h11.646zm1.166 106.96h1.33a8.32 8.32 0 0 1 1.663.169c.555.11 1.054.276 1.499.497.441.223.666.502.666.833v7.483h-9.315c0-.552.083-1.331.248-2.328a14.92 14.92 0 0 1 .831-2.993c.388-.996.832-1.856 1.332-2.579.498-.718 1.079-1.082 1.746-1.082m5.157-88.329v14.97l-5.99-11.145 5.99-3.825zm-5.157 86.167c0-.441.192-1.221.581-2.33.386-1.104.693-1.827.917-2.16 0-.223.106-.443.331-.666.109-.108.221-.165.333-.165.775 0 1.386.221 1.83.663.444.447.775.999.999 1.666.22.662.387 1.33.5 1.997.109.664.167 1.22.167 1.662a20.6 20.6 0 0 1-2.744-.167 41.725 41.725 0 0 1-2.914-.5m2.993-7.982c0-.888.222-1.941.666-3.162.442-1.22.941-2.27 1.499-3.161v8.316c-.224 0-.582-.188-1.081-.582-.502-.386-.861-.69-1.083-.914v-.497zm9.314-78.852c0-.221-.247-.607-.748-1.166-.5-.55-.859-.938-1.082-1.164l.667-.662c.109-.108.72-.502 1.832-1.164a169.347 169.347 0 0 0 3.741-2.327 139.988 139.988 0 0 1 4.327-2.665 176.42 176.42 0 0 0 3.577-2.164c.22-.219.72-.523 1.499-.911.773-.39 1.271-.584 1.495-.584h.499c.667 0 1.163.331 1.499.997.331.667.582 1.415.749 2.246.165.831.249 1.662.249 2.497v4.075l-14.14 38.925c-.889-.777-1.609-1.747-2.162-2.911a13.584 13.584 0 0 0-1.999-3.079v-29.943zm4.827 42.588l6.82 12.807c0 .112-.056.223-.167.333-.224.223-.443.331-.665.331-1.663.559-3.688.89-6.072 1.002-2.384.11-4.354.162-5.905.162v-1.164a131.215 131.215 0 0 1 1.663-4.989 45.338 45.338 0 0 0 1.499-4.159c.441-1.439.888-2.604 1.332-3.491 0-.223.138-.472.416-.748.273-.277.415-.526.415-.751l.664.667zm14.305-41.921v43.415c0 .56-.113 1.419-.335 2.581a21.09 21.09 0 0 1-.994 3.492c-.447 1.167-.999 2.19-1.665 3.077-.664.89-1.443 1.331-2.327 1.331-.115 0-.227-.054-.335-.167-.222-.221-.332-.387-.332-.499l-7.82-14.973 13.808-38.257zm12.497 73.526c.443.11 1.024.223 1.748.333.719.11 1.468.277 2.247.498.885.223 1.771.443 2.66.666v1.496l-4.325 14.806c-.997-.775-1.746-1.996-2.245-3.659a26.633 26.633 0 0 1-.999-5.239c-.167-1.831-.222-3.579-.167-5.239.053-1.666.084-2.884.084-3.661h.997zm8.153-91.161c.222 0 .389.141.499.417.109.279.276.526.498.747.222.335.389.668.5 1 .666 1.664 1.44 3.771 2.331 6.32a243.86 243.86 0 0 0 2.66 7.318c1 2.889 2.051 5.771 3.161 8.651v24.452l-5.821 3.663h-1.164c-.668 0-1.638-.11-2.914-.335a46.367 46.367 0 0 1-3.823-.831c-1.278-.333-2.389-.719-3.328-1.164-.944-.443-1.417-.885-1.417-1.333v-34.764c0-1.22.169-2.635.5-4.241a20.02 20.02 0 0 1 1.58-4.658c.72-1.498 1.637-2.746 2.745-3.744 1.106-.996 2.439-1.498 3.993-1.498m-8.818 54.065c.335.223.971.61 1.914 1.164.941.554 1.522.943 1.747 1.164l.833.664c-1.222 1.664-2.72 2.664-4.494 2.995v-5.987zm15.471 9.647v2.997l-6.653 22.29c-.224.557-.362.941-.416 1.167-.057.221-.25.329-.581.329h-.501c-.555-.108-1.248-.249-2.079-.414a30.682 30.682 0 0 1-2.411-.584 21.495 21.495 0 0 0-2.831-.498v-25.949c0-.221.359-.582 1.083-1.084a175.22 175.22 0 0 1 2.33-1.578 22.387 22.387 0 0 1 2.411-1.415c.775-.385 1.272-.525 1.497-.415l8.151 5.154zm-14.472-11.809c1.219 0 2.688.167 4.407.498 1.718.333 2.855 1.164 3.412 2.493-.333.227-.61.393-.833.502-.224.112-.555.168-.997.168-.89 0-2.026-.417-3.412-1.252-1.387-.829-2.355-1.633-2.911-2.409h.334zm8.651 42.251c.22-.555.72-.831 1.497-.831h.667c.33 0 .801.056 1.414.166.606.11 1.272.249 1.993.416.722.166 1.386.335 1.998.5.608.166 1.024.307 1.248.417.773.331 1.248.775 1.414 1.331.169.554.276 1.054.333 1.495.053.446.22.833.498 1.166.277.33 1.023.498 2.248.498a7.42 7.42 0 0 0 2.242-.335c.72-.221.971-1.104.751-2.66l18.463 3.826v.667c0 1.774-.279 3.492-.83 5.154a15.716 15.716 0 0 1-2.33 4.492 12.117 12.117 0 0 1-3.66 3.246c-1.443.828-3.106 1.244-4.991 1.244h-19.96c-.224 0-.806-.08-1.75-.247a20.445 20.445 0 0 1-2.911-.751c-.997-.333-1.887-.746-2.66-1.246-.778-.5-1.056-1.023-.832-1.58l5.158-16.968zm0-37.097c.22-.331.553-.664.998-.995a2.427 2.427 0 0 1 1.496-.498c.333 0 .804.055 1.415.165.61.11 1.218.274 1.829.497.61.226 1.165.5 1.663.831.502.334.75.725.75 1.169v.331c0 .223-.14.723-.416 1.495-.278.779-.415 1.276-.415 1.497h-.335c-1.11 0-2.357-.523-3.741-1.577-1.387-1.053-2.469-2.025-3.244-2.915m8.15 8.983h.666v26.618l-8.151-1.497 7.485-25.121zm4.824-51.898c-1.221 0-2.078.442-2.575 1.329-.502.89-.75 1.889-.75 2.995h-.833l-6.653-17.797v-.335c0-.221.026-.47.082-.751.055-.274.306-.413.75-.413h22.123v1.499l-9.151 30.44V238.36c0-.776-.416-1.331-1.246-1.666-.83-.33-1.412-.495-1.747-.495m-7.819 39.923c.334-.555.832-1.052 1.499-1.496a3.81 3.81 0 0 1 2.162-.666v2.991a7.636 7.636 0 0 1-1.832-.247 14.21 14.21 0 0 1-1.829-.582m11.147-9.982c.22 0 .331.141.331.416 0 .278-.111.417-.331.417-.224 0-.335-.139-.335-.417 0-.276.111-.416.335-.416m11.144-43.413h.333c1.108 0 2.104.359 2.995 1.076.886.725 1.605 1.64 2.162 2.746.553 1.11 1 2.246 1.33 3.41.333 1.164.5 2.246.5 3.244v21.459l-1.498 1.495a213.145 213.145 0 0 0-5.153 3.33c-1.445.89-2.915 1.776-4.409 2.662a163.196 163.196 0 0 1-3.745 2.164 5.01 5.01 0 0 1-.915.495 2.418 2.418 0 0 1-.914.167h-.333l-1.496-4.323 11.143-37.925zm-10.479 46.077l4.489 11.811v.666h-.661c-.447-.11-.89-.223-1.332-.335a11.43 11.43 0 0 1-1.498-.496 9.8 9.8 0 0 0-1.663-.502v-10.479l.665-.665zm-.665 13.305c3.326.89 5.876 2.415 7.65 4.576 1.773 2.16 2.664 5.186 2.664 9.065v.497a64.898 64.898 0 0 0-1.914-1.164 59.536 59.536 0 0 1-2.911-1.828 64.528 64.528 0 0 0-2.911-1.831c-.945-.552-1.583-.939-1.914-1.164-.112 0-.277-.11-.499-.331-.113-.11-.167-.275-.167-.502v-7.318zm0 10.316h.665c2.436 0 4.74.972 6.903 2.91 2.162 1.941 4.046 4.216 5.656 6.819a39.93 39.93 0 0 1 3.825 8.068c.941 2.774 1.414 4.99 1.414 6.656v3.326l-18.463-3.994v-23.785zm8.815-9.65c-.555-.331-.999-.967-1.33-1.91-.333-.943-.61-1.525-.833-1.751a44.895 44.895 0 0 1-1.081-2.826 957.267 957.267 0 0 0-2.162-6.154c-.278-.776-.416-1.218-.416-1.33v-1.5l15.469-9.646v28.111h-.663c-.335-.108-.943-.301-1.83-.582-.891-.275-1.776-.582-2.664-.913s-1.776-.639-2.661-.911c-.887-.28-1.495-.474-1.829-.588m0 1.829c.22 0 .333.141.333.415 0 .279-.113.418-.333.418-.224 0-.331-.139-.331-.418 0-.274.108-.415.331-.415m2.329 1.165c.553.112 1.25.308 2.081.582.832.281 1.636.528 2.411.749.888.335 1.83.666 2.828.997v12.479c-1.33 0-2.524-.556-3.574-1.664-1.057-1.108-1.973-2.413-2.746-3.91a25.234 25.234 0 0 1-1.83-4.49c-.446-1.497-.667-2.579-.667-3.243v-1.5h1.497zm3.661 15.307c.222 0 .331.11.331.331 0 .223-.108.331-.331.331-.225 0-.333-.108-.333-.331 0-.22.109-.331.333-.331m.83.997c.335 0 .888.193 1.665.582.775.388 1.163.695 1.163.916v7.484a324.872 324.872 0 0 1-1.83-4.494c-.662-1.662-.998-3.157-.998-4.488m14.614 3.324c.334-.108.917-.413 1.747-.915.833-.496 1.718-1.021 2.663-1.58.941-.552 1.829-1.082 2.662-1.577.83-.502 1.414-.859 1.746-1.084.109-.108.39-.275.833-.496.218-.11.439-.169.664-.169l7.486 2.162.667.833v2.495c0 2.553-.445 5.074-1.332 7.569a43.876 43.876 0 0 1-3.41 7.32 57.066 57.066 0 0 1-4.576 6.736c-1.663 2.105-3.27 3.937-4.823 5.488l-.667.668c-1.33-.668-2.242-1.856-2.742-3.579-.5-1.718-.833-3.576-.999-5.574a40.87 40.87 0 0 1-.083-5.818c.108-1.887.165-3.326.165-4.326v-8.153zm0-63.709v-4.657c0-2.105.193-4.183.581-6.238.389-2.052 1.055-3.852 1.999-5.407.941-1.55 2.302-2.329 4.074-2.329 1.443 0 2.439.779 2.997 2.329l5.155 21.459v3.326a70.76 70.76 0 0 1-7.567-.415c-2.606-.275-5.02-1.024-7.237-2.244v-5.824zm0 8.815c.887 0 2.164-.025 3.827-.082 1.663-.054 3.352 0 5.074.167 1.716.164 3.297.472 4.74.913 1.439.447 2.329 1.11 2.661 1.997.553 1.556.969 2.94 1.248 4.159.276 1.223.5 2.356.667 3.41.165 1.056.249 2.162.249 3.326v9.233c-.89.443-1.998.972-3.328 1.577a51.405 51.405 0 0 1-4.076 1.666 86.76 86.76 0 0 1-3.991 1.331c-1.277.39-2.302.58-3.077.58-.335 0-1.081-.331-2.247-.995-1.166-.667-1.747-1.11-1.747-1.331v-25.951zm.666 29.78h-.666v-.835h.666v.835zm2.164 1.495c2.993 0 5.932 1.11 8.815 3.328 2.882 2.218 5.158 4.548 6.821 6.985-.333.554-.89 1.109-1.663 1.664a15.295 15.295 0 0 1-2.413 1.413c-.833.389-1.665.723-2.496.997-.832.279-1.581.416-2.244.416-.333 0-1.028-.083-2.081-.249a78.553 78.553 0 0 1-3.245-.582c-1.108-.221-2.107-.526-2.993-.916-.888-.387-1.332-.803-1.332-1.246v-11.145c0-.335.389-.525 1.165-.582a29.703 29.703 0 0 1 1.666-.083m-2.496 14.804c1.108 0 2.329.166 3.659.5 1.332.335 2.438.889 3.325 1.663-.33.224-.83.557-1.495 1-.667.441-1.359.859-2.081 1.244-.722.392-1.414.749-2.079 1.084-.663.331-1.22.498-1.664.498v-5.989h.335zm18.132-20.46v12.975l-12.643-8.482 12.643-4.493zm0 37.429l1.499 6.821c.22.662.581 1.056 1.079 1.164a7.21 7.21 0 0 0 1.581.166c.555 0 1.163-.166 1.83-.501.665-.332.999-.884.999-1.662v-15.137c1.885 0 2.995.829 3.328 2.495l6.819 28.942a1.903 1.903 0 0 1-.333.502c-.222.221-.391.331-.5.331-1.995.558-4.02.803-6.071.748a222.632 222.632 0 0 0-6.072-.082h-2.995c-1.776 0-3.685-.054-5.739-.169-2.051-.108-3.907-.301-5.57-.582-1.667-.274-2.497-.748-2.497-1.411v-1.499l12.642-20.126zm-6.654-89.662a2.431 2.431 0 0 1-.499-.668c-.222-.439-.335-.717-.335-.829v-.831a18.684 18.684 0 0 1 5.825-.749c1.996.057 3.934.081 5.821.081 3.77 0 7.041.251 9.814.748 2.771.502 5.046 1.415 6.819 2.744 1.774 1.333 3.077 3.246 3.912 5.741.828 2.493 1.248 5.74 1.248 9.732v6.321l-1.499-.833-31.106-21.457zm10.312 12.642c-1.218 0-2.076.666-2.577 1.997-.5 1.33-.83 2.826-.997 4.49a34.297 34.297 0 0 0-.169 4.743c.053 1.495.084 2.408.084 2.741h-.667l-5.988-24.119 32.606 22.291v6.318c-.557 0-1.861-.08-3.912-.247-2.05-.168-4.186-.389-6.402-.666-2.22-.275-4.218-.606-5.992-.997-1.771-.388-2.66-.749-2.66-1.08v-14.144c0-.662-.417-1.052-1.248-1.164-.83-.107-1.523-.163-2.078-.163m-8.151 60.717c.441-.221 1.22-.582 2.33-1.082 1.106-.5 1.83-.856 2.163-1.082v4.492c-1.998 0-3.716-.499-5.158-1.497l.665-.831zm1.498-47.078c.22 0 .333.112.333.333 0 .226-.113.336-.333.336-.222 0-.333-.11-.333-.336 0-.221.111-.333.333-.333m2.995 3.328c.22 0 .333.143.333.418 0 .274-.113.415-.333.415-.224 0-.333-.141-.333-.415 0-.275.109-.418.333-.418m7.486 43.084c.222 0 .331.112.331.333 0 .223-.108.333-.331.333-.225 0-.333-.11-.333-.333 0-.221.108-.333.333-.333m18.465-39.425v2.995h-18.466v-5.821l18.466 2.826zm-17.8 43.084c.553.225.831.723.831 1.497v.833l-1.497-.833.666-1.497zm0-12.972c.22 0 .331.138.331.415 0 .279-.111.413-.331.413-.224 0-.335-.134-.335-.413 0-.278.112-.415.335-.415m.831 3.659c0-.888.441-1.666 1.332-2.329.885-.666 1.771-.997 2.662-.997h.331c-.331.889-.806 1.967-1.412 3.241-.613 1.274-1.361 2.192-2.249 2.746a1.969 1.969 0 0 1-.583-1.164 12.478 12.478 0 0 1-.081-1.497m1.332 7.484c.22 0 .332.11.332.333 0 .224-.112.332-.332.332-.225 0-.333-.108-.333-.332 0-.223.108-.333.333-.333m.83-2.164c0-.664.194-1.495.584-2.492.388-.998.832-1.939 1.33-2.828a12.333 12.333 0 0 1 1.663-2.329c.61-.666 1.134-.997 1.58-.997h9.651v18.629h-.667c-.112 0-.75-.388-1.913-1.164a382.56 382.56 0 0 1-4.075-2.746c-1.556-1.05-3.107-2.104-4.659-3.157-1.557-1.054-2.72-1.915-3.495-2.581v-.335zm0 3.328a28.72 28.72 0 0 1 4.993 2.244c1.662.945 2.935 2.138 3.823 3.577h-.997c-1.555 0-3.244-.331-5.075-.995-1.83-.667-2.744-1.941-2.744-3.828v-.998zm14.141 10.316l.667.831c0 .11.024.39.083.831.053.443.082.972.082 1.58 0 .612.026 1.194.083 1.746.055.556.084 1 .084 1.329v4.409c0 2.054-.167 4.161-.5 6.323s-.973 4.075-1.914 5.738c-.941 1.664-2.357 2.497-4.24 2.497-.557 0-.832-.25-.832-.748 0-.502-.111-1.026-.333-1.58a532.063 532.063 0 0 1-1.663-6.905c-.664-2.83-1.305-5.571-1.914-8.235-.61-2.661-1.138-4.96-1.58-6.903-.445-1.938-.667-2.964-.667-3.076V305.9l12.644 3.992zm-3.827-3.662c0 .223-.113.331-.331.331-.226 0-.335-.108-.335-.331 0-.221.109-.331.335-.331.218 0 .331.111.331.331m14.605 27.783c0-.443.055-1.138.168-2.081.106-.939.167-1.521.167-1.746l.497-.334c.333-.221.75-.552 1.25-.997a10.447 10.447 0 0 1 1.578-1.164 15.25 15.25 0 0 1 1.663-1.164h1l12.474 5.987v4.825h-18.797v-3.326zm.832-7.487c0-.222.056-.608.165-1.165.113-.556.168-.943.168-1.164h.333l1.166.331c.109 0 .276.11.5.334l.167.166v.333l-.335.332c-.331.333-.608.558-.83.666-.225.223-.444.39-.667.498l-.666.333v-.664zm1.496-4.161c-.33 0-.555-.055-.663-.165-.112 0-.167-.056-.167-.166v-2.993l3.825-36.43 10.814 31.939v.995l-1.163 1.165c-.333.333-.946.807-1.83 1.413a40.312 40.312 0 0 0-2.662 1.997 41.5 41.5 0 0 1-2.663 1.997c-.889.608-1.497 1.08-1.83 1.411h-1.163a4.1 4.1 0 0 1-1-.496 13.055 13.055 0 0 0-.748-.333 7.913 7.913 0 0 1-.75-.334m3.662-48.738c0-.221.056-.664.167-1.331.108-.664.167-1.105.167-1.333.441.228.912.502 1.412.833.5.331.916.725 1.25 1.167l.333.329v.335l-.333.664c-.113.225-.333.5-.667.833l-.499.331c-.225 0-.529.143-.916.418-.391.277-.695.415-.915.415v-2.661zm3.825-2.664c-.222-.221-.722-.582-1.497-1.077-.777-.502-1.277-.859-1.497-1.084v-2.662c0-.331.054-.97.167-1.913.109-.939.165-1.521.165-1.746l.335-.831c.332-.441.913-1.303 1.746-2.579.832-1.274 1.689-2.66 2.579-4.157a117.123 117.123 0 0 1 2.577-4.161c.832-1.272 1.414-2.132 1.748-2.577.222-.221.471-.608.75-1.164.276-.554.523-.941.747-1.164l5.656 5.654v4.161l-12.476 16.134-1-.834zm-2.993 9.484c0-.11.054-.276.167-.5a1.28 1.28 0 0 0 .247-.333c.055-.108.14-.221.253-.331a1.43 1.43 0 0 0 .247-.333c.057-.11.195-.275.417-.5.109-.221.276-.441.5-.664l.667-.835c.22-.108.497-.219.832-.329.665-.222 1.053-.334 1.163-.334.333 0 .553-.054.667-.166.108 0 .22-.055.333-.167h.833l8.647 6.321v1.164c0 .225-.055.974-.165 2.248a79.172 79.172 0 0 0-.251 4.074 78.823 78.823 0 0 1-.249 3.993c-.11 1.218-.167 1.995-.167 2.328v.831h6.323v-10.479l13.973 10.479-.5.333a662.348 662.348 0 0 0-7.651 5.821 422.25 422.25 0 0 0-6.407 4.825c-2.16 1.664-3.962 2.993-5.405 3.992l-.997.665-.498.499c-.334.332-.612.557-.832.665l-.667.333h-.33l-11.147-32.602v-.998zm.998-25.454c0-.439.057-1.328.166-2.659.109-1.331.25-2.8.416-4.408.167-1.605.333-3.161.501-4.656.165-1.498.302-2.634.416-3.411 0-.221.082-.582.248-1.081.167-.5.249-.859.249-1.082 1.108 1.109 2.218 2.218 3.33 3.328a42.065 42.065 0 0 1 2.993 3.325l-.333.831c-.111.226-.473.808-1.081 1.749-.61.943-1.304 1.995-2.081 3.161a185.062 185.062 0 0 0-2.329 3.575c-.777 1.22-1.33 2.163-1.663 2.828l-.832.995v-2.495zm8.318 74.028c-.333-.11-.888-.361-1.665-.748-.775-.388-1.608-.803-2.493-1.249-.89-.441-1.72-.831-2.496-1.164-.779-.331-1.332-.608-1.664-.831v-.5l.499-.331c.22-.11.722-.472 1.497-1.084a282.48 282.48 0 0 0 2.414-1.912c.832-.663 1.605-1.275 2.329-1.827a29.792 29.792 0 0 1 1.581-1.164l.666-.333h.498l2.163 6.651-.331 5.657h-.335c-.222 0-.665-.139-1.328-.414-.67-.277-1.114-.528-1.335-.751m-5.988-96.649c0-.442.025-1.219.083-2.329.055-1.109.135-2.246.25-3.41.106-1.164.249-2.302.413-3.412.169-1.104.307-1.881.417-2.328h19.796l-.832 1.499a121.355 121.355 0 0 0-4.158 6.321 90.855 90.855 0 0 0-3.495 5.487 167.989 167.989 0 0 1-2.826 4.659 4.275 4.275 0 0 0-.666.913c-.224.394-.444.751-.667 1.084-.333.443-.612.89-.832 1.331h-.333l-7.151-7.152v-2.663zm2.659 40.091c.222-.444.75-1.219 1.581-2.329a117.215 117.215 0 0 1 2.662-3.412 391.84 391.84 0 0 0 2.662-3.326c.833-1.052 1.357-1.746 1.579-2.079.222-.221.473-.524.75-.913.275-.39.526-.694.748-.916v4.826c0 .331-.055 1.19-.167 2.575-.108 1.391-.167 2.248-.167 2.579-.224 0-.471.141-.748.418-.28.274-.525.415-.749.415-.332.11-.832.307-1.498.582-.666.277-1.413.582-2.245.913s-1.581.639-2.244.914c-.667.28-1.167.474-1.499.582h-.331l-.335-.329v-.5zm8.152 6.82c-.224-.11-.581-.333-1.081-.666a23.511 23.511 0 0 1-1.581-1.164c-.555-.442-1.11-.888-1.662-1.331-.558-.441-1-.775-1.333-.998l-.33-.333c.439-.221 1.385-.61 2.826-1.164 1.438-.554 2.381-.941 2.828-1.164.22 0 .441-.055.664-.167.113 0 .278-.056.5-.169h.335v4.824c0 .227-.059.666-.167 1.332-.111.667-.168 1.11-.168 1.331l-.831-.331zm-1.829 38.258c0-.108-.031-.248-.084-.415a1.305 1.305 0 0 1-.083-.415c-.111-.108-.168-.222-.168-.334l.335-.331.666-.5v2.664h-.334l-.332-.669zm5.988-67.204c0-.331-.056-1.052-.167-2.162-.111-1.108-.165-1.885-.165-2.328 0-.221-.084-.524-.251-.916-.167-.387-.251-.69-.251-.915 0 .225-.055.528-.165.915-.112.392-.167.695-.167.916 0 .223-.058.723-.166 1.497-.112.777-.169 1.276-.169 1.495-.442-.219-1.137-.803-2.079-1.746-.943-.939-1.525-1.579-1.745-1.913a1.835 1.835 0 0 1-.334-.497c-.225-.222-.331-.442-.331-.667v-.333l.331-.831c.444-.774 1.303-2.136 2.58-4.074a762.76 762.76 0 0 0 3.994-6.156 582.457 582.457 0 0 1 3.991-6.154c1.274-1.939 2.134-3.301 2.577-4.075 0-.335.109-.612.333-.831l.333-.333.5-.335h3.326l.333.335c.108 1.554.275 2.993.498 4.325.108 1.221.223 2.411.335 3.575a56.33 56.33 0 0 0 .331 2.91v3.828l-12.309 15.635-1.163-1.165zm3.327 61.881h-4.16l.833-.664 17.967-13.642c.221.226.441.394.664.5.223.223.388.361.5.416.108.06.221.141.331.249l.5.499c.11.115.166.226.166.334 0 .223.053.443.167.664.221.445.331.723.331.833l2.995 28.113-14.97 7.483h-1.167c-.222-.108-.497-.247-.832-.416-.331-.166-.61-.301-.828-.413l-1.002-.335-1.495-23.621zm-2.662-46.74c0-.223-.029-.637-.084-1.251a22.172 22.172 0 0 1-.083-1.995c0-.721-.026-1.415-.084-2.079a18.681 18.681 0 0 1-.081-1.5v-2.659c0-.221.139-.441.414-.664.276-.222.526-.336.751-.336l8.981 8.984v.336c0 .11-.058.164-.167.164-.11.11-.332.167-.665.167-.224.11-.692.307-1.412.582-.726.277-1.472.582-2.247.913a58.48 58.48 0 0 1-2.246.915c-.722.279-1.248.474-1.579.582l-.999.336c0-.221-.084-.639-.249-1.251-.168-.607-.25-1.024-.25-1.244m2.33 18.96l-1.166-.997c-.108-.772-.167-1.439-.167-1.993a8.17 8.17 0 0 1-.164-1.582v-1.415c0-.221-.029-.637-.084-1.246a21.24 21.24 0 0 1-.083-2c0-.716-.031-1.385-.084-1.993a16.536 16.536 0 0 1-.083-1.415v-1.495l.167-.167c.106 0 .191-.027.246-.084a.368.368 0 0 1 .251-.084c.335-.221.941-.522 1.83-.916a92.43 92.43 0 0 1 2.828-1.164c.999-.385 1.94-.746 2.828-1.077a57.98 57.98 0 0 1 1.832-.669c.441 0 .719-.054.831-.169.11 0 .219-.052.333-.162l5.321 5.154 1.831 19.463v3.827c0 .112-.057.226-.167.334-.225.223-.441.333-.664.333l-.664.498-.833-.498-14.139-10.483zm10.811-45.579l.333.331 2.328 22.126v.333l-.331.333c-.223.223-.5.39-.835.498-.662.225-1.054.333-1.162.333a.739.739 0 0 0-.333.083.708.708 0 0 1-.332.084c-.112.112-.225.169-.331.169h-.501L299.812 253l11.143-14.141zm1.83 96.65c.555-.222 1.247-.555 2.08-1 .833-.439 1.689-.885 2.579-1.329a68.567 68.567 0 0 0 2.826-1.497h.5c0 .331.056.664.166.997 0 .224.026.5.081.831.056.334.084.612.084.833v2.995h-11.643c.221-.223.773-.523 1.662-.917.889-.386 1.441-.691 1.665-.913m-.664-70.864c.108 0 .219-.057.329-.167.11 0 .223-.026.335-.084.11-.055.277-.08.5-.08h.331l.335.662v2.328l-2.163-2.328.333-.331zm4.825 31.772c.221 0 .331.139.331.414 0 .278-.11.417-.331.417-.225 0-.335-.139-.335-.417 0-.275.111-.414.335-.414m17.761-75.855c.331 0 .969.029 1.912.084.941.056 1.939.112 2.995.166 1.054.057 2.05.111 2.993.167.941.055 1.579.141 1.915.249.441.112 1.052.279 1.828.498.774.223 1.523.472 2.246.748.719.279 1.331.5 1.829.667.499.166.748.307.748.415v.665l-6.651 51.734c-.226 1.11-.418 1.746-.583 1.913-.168.167-.642.251-1.415.251-.556 0-1.276-.059-2.161-.169a36.33 36.33 0 0 1-2.58-.413 34.341 34.341 0 0 1-2.163-.5c-.608-.167-.913-.305-.913-.415v-56.06zm0 58.388c.331 0 .83.058 1.495.164.666.11 1.415.251 2.248.418.829.164 1.579.333 2.244.498.666.166 1.164.307 1.499.417.553.223.939.361 1.164.418.224.054.332.305.332.746v.331l-7.152 55.396h-1.83V278.95zm11.311 2.164c.221.112.639.246 1.248.413a17.17 17.17 0 0 0 1.995.415c.721.115 1.386.226 1.998.334a11.4 11.4 0 0 1 1.413.335c.221 0 .417.057.586.164.162.113.354.226.58.332l.662.333v38.594h10.981l-11.312 15.305h-15.637l7.486-56.225zm8.151-56.06v55.394h-1.662c-.778 0-1.609-.054-2.497-.164a12.024 12.024 0 0 1-2.328-.502c-.665-.221-.998-.498-.998-.831v-4.492c.441-3.437.831-6.485 1.164-9.149.334-2.661.719-5.681 1.162-9.064.444-3.383.888-6.791 1.333-10.229.442-3.438.859-6.738 1.247-9.901.387-3.159.748-5.847 1.082-8.067 0-.441.138-1.134.417-2.079.275-.939.416-1.521.416-1.746l.664.83zm-2.995-4.161c.221 0 .333.141.333.415 0 .279-.112.418-.333.418-.223 0-.333-.139-.333-.418 0-.275.11-.415.333-.415m2.995 1.164h-.664l.664-.829v.829zm11.977 115.282h-8.982v-.831a115.564 115.564 0 0 1 2.992-3.828 34.16 34.16 0 0 0 2.495-3.159c.775-1.107 1.441-1.997 1.997-2.663l1.498-1.496v11.977zm21.853-116.111c.221 2.661.5 5.267.831 7.818.223 2.22.441 4.438.668 6.651.22 2.223.44 4.107.663 5.657v1.497l-18.628-8.982c-.668-.219-1.196-.857-1.581-1.911-.392-1.054-.667-2.248-.833-3.579a32.014 32.014 0 0 1-.249-3.992v-3.159h19.129zm-14.972 15.634l17.134 8.317c.443.226.692 1.11.748 2.662.055 1.556.085 2.553.085 2.997v2.497c-.557.108-1.472.329-2.744.66-1.276.335-2.638.666-4.077.997-1.44.336-2.802.643-4.074.918-1.276.278-2.138.474-2.579.582h-1.496l-4.16-19.631h1.163zm3.661 21.79c.554-.108 1.497-.301 2.828-.582 1.331-.274 2.744-.582 4.241-.913s2.937-.636 4.325-.911c1.386-.277 2.354-.474 2.911-.584h1.497c0 .997-.662 2.328-1.995 3.99a44.615 44.615 0 0 1-4.41 4.741c-1.607 1.497-3.133 2.746-4.572 3.743-1.445 1-2.274 1.331-2.495 1l-.833-.669c-.333-.439-.666-1.659-.997-3.657-.336-1.997-.5-3.661-.5-4.989v-1.169zm2.331 13.475c1.662-2.102 3.659-4.265 5.987-6.485 2.329-2.218 4.933-3.547 7.818-3.992v2.328c.334-1.438.719-2.633 1.162-3.574a7.142 7.142 0 0 1 1.831-2.413 31.518 31.518 0 0 1 2.746-2.079c1.052-.721 2.246-1.58 3.577-2.575.223-.224.718-.39 1.495-.504.776-.106 1.274-.167 1.497-.167.775.227 1.719.584 2.828 1.084 1.108.498 1.664.859 1.664 1.08v1.664c-.556 2.663-1.223 5.879-1.995 9.646a361.396 361.396 0 0 0-2.246 11.979 243.836 243.836 0 0 0-1.83 12.642c-.5 4.213-.695 7.984-.583 11.312l-20.293 10.479c.108-3.104.137-6.375.082-9.815a222.13 222.13 0 0 0-.417-10.396c-.223-3.495-.608-6.96-1.164-10.398a85.705 85.705 0 0 0-2.159-9.816m3.659 42.753l20.293-10.478v32.937H391.66l-8.982-9.815V314.88zm.829 16.472c.11.223.418.608.917 1.162.498.556 1.05 1.164 1.662 1.83a37.209 37.209 0 0 1 1.582 1.831c.439.554.774.941.998 1.164h-5.988v-6.82l.829.833zm14.141-77.188c-.557.555-1.11 1.11-1.664 1.664a6.247 6.247 0 0 1-1.998 1.329c-.443-1.219-.138-2.077.918-2.579 1.052-.498 1.967-.635 2.744-.414m-1.831-5.989c.888 0 1.913.279 3.077.831 1.164.56 2.023 1.276 2.579 2.164-.889.331-1.776.612-2.661.833-.777.221-1.58.39-2.413.495-.831.113-1.525.167-2.077.167 0-.772.054-1.495.164-2.162.11-.554.253-1.079.418-1.579.164-.5.47-.749.913-.749m-.331-5.323c.221-1.552.441-3.547.664-5.989.223-2.438.443-4.824.667-7.152.331-2.77.605-5.6.831-8.482h18.464c0 3.771-.14 6.959-.415 9.564-.279 2.605-.833 4.936-1.666 6.987a19.88 19.88 0 0 1-3.49 5.654c-1.496 1.721-3.523 3.522-6.072 5.405h-.833c-.665 0-1.441-.108-2.328-.331a16.322 16.322 0 0 1-2.66-.913c-.889-.39-1.638-.887-2.248-1.499-.608-.608-.913-1.301-.913-2.08v-1.164zm10.48 7.154c.221 0 .331.14.331.417 0 .275-.11.416-.331.416-.223 0-.333-.141-.333-.416 0-.277.11-.417.333-.417m5.157-2.662c0 .777-.308 1.359-.916 1.748-.609.39-1.305.582-2.079.582h-.667c.336-.556.834-1.136 1.5-1.748.664-.608 1.385-1.023 2.162-1.248v.666zm-.667 4.492c-.223.223-.47.333-.746.333-.279 0-.528-.11-.749-.333-.223-.223.024-.335.749-.335.72 0 .967.112.746.335m26.223-9.148l-9.65 5.987v-24.621l9.65 18.634zm-9.651 8.98c0-.555.474-1.219 1.415-1.994a20.481 20.481 0 0 1 3.246-2.163 41.827 41.827 0 0 1 3.576-1.749c1.164-.497 2.021-.746 2.577-.746h.332l7.986 14.139v21.293c1.552 0 2.771-.026 3.659-.084.886-.055 1.58-.301 2.08-.749.499-.441.803-1.136.913-2.077s.223-2.301.333-4.077c.223.333.608 1.056 1.166 2.162.552 1.112.939 1.889 1.164 2.328v.667l-5.989 16.467c-.223.559-.61.833-1.166.833h-3.324l-17.969-5.987v-38.263zm17.969 46.411l.664.835c0 .221.085.61.249 1.162.167.559.251 1 .251 1.331 0 2.659-.5 5.35-1.499 8.067-.998 2.72-2.162 5.187-3.493 7.404-1.22-.443-2.636-.999-4.241-1.666a58.017 58.017 0 0 1-4.656-2.162c-1.498-.774-2.746-1.605-3.744-2.494-.999-.888-1.499-1.772-1.499-2.662v-15.803l17.968 5.988zm-17.969 12.809c.223 0 .474.114.751.333.272.225.525.333.748.333.441.333 1.249.833 2.413 1.497a52.7 52.7 0 0 1 3.575 2.247 51.121 51.121 0 0 0 3.576 2.243c1.164.669 1.968 1.165 2.411 1.5a19.703 19.703 0 0 1-.829 2.995 7.813 7.813 0 0 1-.917 2.075c-.39.614-.806.917-1.247.917-.11 0-.723-.054-1.83-.164a48.558 48.558 0 0 1-3.575-.502 41.426 41.426 0 0 1-3.492-.747c-1.057-.274-1.584-.527-1.584-.748v-11.979zm10.482 16.469c0 .112-.141.664-.415 1.663-.277.998-.641 2.08-1.08 3.246-.445 1.164-.863 2.242-1.249 3.242-.389 1.001-.748 1.495-1.081 1.495h-6.656v-11.976l10.481 2.33zm1.829-106.296c2.105 0 4.354-.056 6.738-.166s4.797-.11 7.236 0c2.438.11 4.797.389 7.071.831 2.272.445 4.35 1.222 6.238 2.328l-.666.666c-.446.444-1.723 1.331-3.826 2.662a1670.322 1670.322 0 0 1-7.153 4.49 232.32 232.32 0 0 1-8.067 4.823c-2.72 1.558-4.854 2.83-6.407 3.828-.11.112-.39.278-.829.5-.223.11-.445.166-.666.166-.224 0-.39-.056-.498-.166-.227-.222-.335-.388-.335-.5l-10.48-19.463h11.644zm1.164 106.96h1.333c.552 0 1.107.056 1.662.169.556.11 1.054.276 1.499.497.439.223.664.502.664.833v7.483h-9.315c0-.552.084-1.331.251-2.328.165-.998.439-1.996.829-2.993.39-.996.833-1.856 1.331-2.579.499-.718 1.082-1.082 1.746-1.082m5.158-88.329v14.97l-5.987-11.145 5.987-3.825zm-5.158 86.167c0-.441.194-1.221.584-2.33.388-1.104.692-1.827.915-2.16 0-.223.108-.443.331-.666.108-.108.222-.165.336-.165.772 0 1.385.221 1.826.663.443.447.774.999 1 1.666.221.662.387 1.33.497 1.997.111.664.169 1.22.169 1.662-.997 0-1.915-.055-2.744-.167a42.13 42.13 0 0 1-2.914-.5m2.995-7.982c0-.888.221-1.941.666-3.162.441-1.22.941-2.27 1.497-3.161v8.316c-.225 0-.582-.188-1.082-.582-.499-.386-.86-.69-1.081-.914v-.497zm9.315-78.852c0-.221-.247-.607-.749-1.166a46.58 46.58 0 0 0-1.08-1.164l.665-.662c.108-.108.721-.502 1.83-1.164a173.777 173.777 0 0 0 3.744-2.327 139.85 139.85 0 0 1 4.325-2.665 172.614 172.614 0 0 0 3.575-2.164c.221-.219.721-.523 1.499-.911.773-.39 1.271-.584 1.495-.584h.498c.667 0 1.164.331 1.5.997.329.667.582 1.415.748 2.246.165.831.247 1.662.247 2.497v4.075l-14.139 38.925c-.89-.777-1.608-1.747-2.162-2.911a13.578 13.578 0 0 0-1.997-3.079v-29.943zm4.826 42.588l6.82 12.807c0 .112-.056.223-.168.333-.223.223-.443.331-.665.331-1.664.559-3.687.89-6.071 1.002-2.385.11-4.352.162-5.905.162v-1.164a129.415 129.415 0 0 1 1.664-4.989 45.334 45.334 0 0 0 1.497-4.159c.441-1.439.887-2.604 1.331-3.491 0-.223.138-.472.415-.748.273-.277.416-.526.416-.751l.666.667zm14.305-41.921v43.415c0 .56-.112 1.419-.333 2.581a21.206 21.206 0 0 1-.998 3.492c-.443 1.167-.997 2.19-1.662 3.077-.666.89-1.445 1.331-2.328 1.331-.116 0-.227-.054-.335-.167-.223-.221-.331-.387-.331-.499l-7.82-14.973 13.807-38.257zm25.991-9.151c.221.333.636.915 1.248 1.748a64.332 64.332 0 0 1 1.829 2.66 104.23 104.23 0 0 1 1.662 2.663c.499.829.858 1.413 1.084 1.747v.831c0 .333-.113.943-.334 1.83-.112.443-.223.831-.335 1.164l-17.134 3.659h-2.16c-.778-3.326-.029-6.514 2.244-9.566 2.272-3.045 5.739-5.791 10.397-8.231l1.499 1.495zm-14.14 18.798l19.294-3.992c0 5.217.028 9.097.084 11.646.055 2.549.222 4.352.496 5.405.279 1.054.753 1.64 1.417 1.746.667.112 1.608.333 2.828.664 1.221.334 2.828 1.082 4.826 2.246 1.995 1.165 4.434 3.303 7.318 6.405-.334.446-.695.694-1.082.749-.39.059-.745.082-1.082.082h-.664l-33.436-16.301v-8.65zm0 45.745c.773-1.328 1.995-2.41 3.659-3.241 1.662-.831 3.493-1.472 5.488-1.913a45.55 45.55 0 0 1 5.823-.915c1.885-.169 3.434-.249 4.658-.249v28.444c0 1.554.221 2.69.665 3.408.441.723 1.33 1.084 2.661 1.084.221 0 .639.026 1.247.081.609.06.917-.191.917-.749v-31.938c0-.221-.279-.552-.833-1a85.656 85.656 0 0 1-1.831-1.495 32.185 32.185 0 0 1-2.492-1.997l.83-.662 13.644-7.156 9.312 4.825.334.665c.221.445.331.723.331.831.223.447.417.999.582 1.664.168.666.251 1.109.251 1.332v36.428c0 3.44-.61 6.128-1.829 8.069-1.225 1.941-2.886 3.412-4.992 4.41-2.107.995-4.492 1.638-7.151 1.913-2.66.276-5.436.415-8.318.415-5.881 0-10.369-.666-13.475-1.995-3.105-1.331-5.352-3.356-6.738-6.074-1.387-2.716-2.189-6.126-2.411-10.229-.225-4.103-.331-8.872-.331-14.306v-9.65zm4.488-5.321a29.67 29.67 0 0 1-2.077 1.498c-.833.556-1.638.831-2.411.831v-2.329h4.488zm-2.992-28.778l30.443 14.802-14.141 7.32c-2.885-.108-5.436-1.245-7.654-3.411a34.74 34.74 0 0 1-5.656-7.151c-1.552-2.605-2.688-5.072-3.408-7.402-.723-2.329-.974-3.714-.749-4.157h1.165zm6.655-38.593c.108 0 .334.192.663.582.333.392.666.829.999 1.331.331.498.637.945.913 1.331.277.389.418.638.418.748v.334l-1.164 1.164c-.556.556-.945.941-1.166 1.164a25.436 25.436 0 0 1-2.078 1.828 56.227 56.227 0 0 1-2.412 1.831 189.46 189.46 0 0 0-2.828 2.164h-.831c0-.777.138-1.887.415-3.328a18.125 18.125 0 0 1 1.331-4.159 12.757 12.757 0 0 1 2.328-3.493c.942-.999 2.08-1.497 3.412-1.497m2.993-.831c1.219-.333 2.216-.527 2.995-.582a39.95 39.95 0 0 1 2.826-.086h1.499a17.614 17.614 0 0 1-5.158 4.327c-1.441-.774-2.162-1.885-2.162-3.328v-.331zm3.662 5.157l7.483-5.825h2.83c2.993 0 5.736.227 8.231.668s4.601 1.244 6.323 2.411c1.716 1.164 3.077 2.802 4.074 4.907 1 2.109 1.498 4.771 1.498 7.983 0 .227-.028.447-.083.666-.058.225-.307.331-.75.331l-17.799 3.828h-.666c-.11-2.104-.747-3.547-1.911-4.323a21.162 21.162 0 0 0-3.826-2 11.53 11.53 0 0 1-3.743-2.41c-1.11-1.052-1.662-2.967-1.662-5.739v-.497zm10.811 17.134l19.629-4.159v20.46h-9.316l-10.313-16.301zm.331 4.49c.335.333.803.997 1.415 1.995.608.997 1.25 2.053 1.913 3.161a427.04 427.04 0 0 0 1.915 3.161c.605.998 1.079 1.662 1.413 1.993 0 .228.138.474.415.749.275.281.416.53.416.751h-7.487v-11.81zm11.147 27.445c.221-.551.607-.829 1.164-.829h.333c.223.223.582.607 1.082 1.164.498.554.857.943 1.08 1.164h-.665c-.225-.221-.723-.47-1.497-.749-.778-.276-1.277-.523-1.497-.75m4.492 1.832c.221 0 .331.11.331.331 0 .228-.11.333-.331.333-.224 0-.334-.105-.334-.333 0-.221.11-.331.334-.331m15.124 53.731c.441.556.441 1.056 0 1.499-.225.221-.333-.028-.333-.751 0-.72.108-.969.333-.748m26.947-109.955c0 .554-.11 1.22-.331 1.995-.225.776-.612 1.33-1.164 1.664l-25.452 14.639v-18.298h26.947zm-8.315 15.635c0 .334.023.941.084 1.829.052.889.108 1.83.165 2.828.056 1 .11 1.943.166 2.828.055.89.082 1.499.082 1.831 0 2.107-.027 4.021-.082 5.736a48.125 48.125 0 0 1-.415 4.992 44.948 44.948 0 0 1-1 4.99c-.441 1.72-1.107 3.633-1.995 5.74h-5.738a38.32 38.32 0 0 1-4.41-.251c-1.441-.164-2.718-.415-3.824-.746-1.109-.336-1.664-.777-1.664-1.331V243.85l18.631-6.82zm-18.632 31.438c.665 0 1.829.059 3.495.167 1.662.112 3.324.281 4.987.502 1.666.221 3.162.472 4.493.749 1.33.274 1.997.582 1.997.913v.666l-5.988 24.783c0 .334-.143.528-.417.583a3.86 3.86 0 0 1-.749.084h-.333l-7.485-5.157v-23.29zm.334 26.285c.331 0 .913.195 1.746.582.833.388 1.636.913 2.412 1.58a18.899 18.899 0 0 1 2.08 2.079c.605.723.913 1.413.913 2.082v1.164l-5.987 24.617c0 .445-.167.86-.5 1.248-.333.39-.664.582-.998.582v-33.935h.334zm3.325 37.428l17.301 5.158h-19.462c0-.776.082-1.83.248-3.161.167-1.329.693-1.997 1.582-1.997h.331zm-1.495-91.827c.221 0 .331.143.331.418 0 .276-.11.415-.331.415-.225 0-.335-.139-.335-.415 0-.275.11-.418.335-.418m7.485 61.053h.499c.665 0 1.386.251 2.16.747a30.276 30.276 0 0 1 2.413 1.746 86.758 86.758 0 0 1 2.41 1.999c.777.662 1.441 1.164 1.997 1.495v14.64h11.478v15.305h-2.992l-24.621-7.818 6.656-28.114zm15.803-73.694c0 .558-.196 1.527-.582 2.912-.392 1.388-.974 2.303-1.748 2.744l-18.63 6.652h-.833c.221-.219.608-.47 1.164-.745.555-.276.939-.527 1.167-.748.772-.442 2.077-1.219 3.908-2.329a230.533 230.533 0 0 1 5.822-3.412c2.052-1.164 3.991-2.274 5.821-3.326 1.831-1.052 3.132-1.748 3.91-2.079v.331zm-8.32 43.086l13.475 2.164v7.815h-11.478v23.624c-.556-.108-1.33-.39-2.328-.835a24.507 24.507 0 0 1-2.992-1.578c-1-.608-1.831-1.248-2.495-1.913-.667-.666-.943-1.221-.833-1.664l6.651-27.613zm.833-2.993c0-.443.108-1.138.332-2.081.223-.939.335-1.521.335-1.747l.831 1.831h11.144v4.99c-.554 0-1.525-.024-2.91-.083a37.587 37.587 0 0 1-4.241-.415c-1.441-.221-2.718-.502-3.826-.833-1.109-.331-1.664-.774-1.664-1.331v-.331zm5.157-32.606c.221 0 .333.112.333.331 0 .227-.112.335-.333.335-.223 0-.331-.108-.331-.335 0-.219.108-.331.331-.331m7.484.331h-4.823c0-.772.667-1.331 1.997-1.662 1.331-.331 2.272-.5 2.826-.5v2.162zm0-5.154c0 .556-.527.941-1.577 1.164-1.058.223-1.748.331-2.082.331 0-1.552.221-3.049.667-4.49.441-1.439 1.438-2.438 2.992-2.997v5.992zm.5-8.982c0 .331-.223.662-.664.997-.443.333-.888.498-1.331.498v-1.495h1.995z"/></svg>