<?xml version="1.0" encoding="utf-8"?>
<!-- Generator: Adobe Illustrator 16.0.0, SVG Export Plug-In . SVG Version: 6.00 Build 0)  -->
<!DOCTYPE svg PUBLIC "-//W3C//DTD SVG 1.1//EN" "http://www.w3.org/Graphics/SVG/1.1/DTD/svg11.dtd">
<svg version="1.1" id="Layer_1" xmlns="http://www.w3.org/2000/svg" xmlns:xlink="http://www.w3.org/1999/xlink" x="0px" y="0px"
	 width="615px" height="385px" viewBox="0 0 615 385" enable-background="new 0 0 615 385" xml:space="preserve">
<g>
	<path fill="none" stroke="#FFFFFF" stroke-width="2.5" stroke-miterlimit="10" d="M588.789,379.054H26.919
		c-10.086,0-18.263-8.176-18.263-18.262V23.401c0-10.085,8.176-18.264,18.263-18.264h561.867c10.087,0,18.265,8.179,18.265,18.264
		v337.391C607.051,370.878,598.873,379.054,588.789,379.054z"/>
	<path fill="#FFFFFF" d="M85.045,47.759l-40.536,10.24v-10.24H85.045z M56.42,66.985H44.509v-6.059
		c0.275-0.139,0.624-0.278,1.043-0.419c0.278-0.136,0.59-0.278,0.941-0.419c0.345-0.136,0.657-0.21,0.939-0.21
		c3.342-0.832,7.486-1.879,12.431-3.134c4.944-1.251,9.751-2.506,14.419-3.757c4.666-1.256,8.669-2.303,12.014-3.135
		c3.346-0.837,5.084-1.253,5.225-1.253h1.044v18.388H80.865v11.697h-4.181c-2.368,0-4.908-0.032-7.626-0.101
		c-2.715-0.072-5.188-0.14-7.416-0.209c-2.23-0.068-3.552-0.245-3.971-0.524l-1.252-1.047V66.985z M56.835,80.565
		c3.761,0,7.66,0.035,11.702,0.103c4.039,0.073,7.941,0.662,11.701,1.775v2.929c0,0.833-0.73,1.916-2.193,3.238
		c-1.461,1.326-3.103,2.646-4.911,3.969c-1.811,1.326-4.111,2.962-6.896,4.911h-1.044l-8.359-5.642V80.565z M57.254,95.609h0.418
		c0.555,0.279,1.531,0.907,2.924,1.881c1.392,0.976,2.298,1.605,2.718,1.878v0.417c0,0.419-0.28,0.979-0.837,1.673
		c-0.557,0.698-1.183,1.326-1.881,1.88c-0.696,0.559-1.393,1.044-2.087,1.463c-0.7,0.419-1.255,0.629-1.673,0.629v-9.823H57.254z
		 M66.656,102.298c0.555,0,0.975,0.069,1.253,0.208c0.28,0.138,0.627,0.347,1.045,0.625c0.836,0.702,1.883,1.433,3.134,2.193
		c1.255,0.769,2.507,1.571,3.761,2.406c1.389,0.976,2.853,1.95,4.388,2.924v39.491c-0.699-0.277-1.985-0.8-3.864-1.566
		c-1.883-0.764-3.866-1.599-5.954-2.505c-2.091-0.906-4.076-1.741-5.957-2.512c-1.879-0.762-3.169-1.354-3.867-1.773
		c-0.417-0.136-1.183-0.487-2.297-1.042c-0.559-0.278-1.045-0.557-1.463-0.839v-30.088c0-0.418,0.418-1.043,1.256-1.881
		c0.836-0.836,1.809-1.673,2.924-2.505c1.114-0.839,2.224-1.571,3.34-2.197C65.47,102.61,66.239,102.298,66.656,102.298
		 M80.238,153.488v12.746l-0.834,1.881c-2.926,3.344-5.643,6.546-8.153,9.61c-2.228,2.65-4.491,5.331-6.788,8.045
		c-2.3,2.715-4.216,4.982-5.745,6.792c-0.28,0.556-0.909,0.834-1.883,0.834v-50.774L80.238,153.488z M80.238,193.396H61.433
		c0.697-0.834,1.881-2.264,3.554-4.282c1.669-2.016,3.444-4.18,5.327-6.478c1.878-2.298,3.687-4.454,5.433-6.479
		c1.741-2.02,2.956-3.445,3.657-4.282l0.834-1.046V193.396z M70,99.786c0-0.832,0.382-1.632,1.151-2.398
		c0.763-0.767,1.702-1.536,2.82-2.3c1.114-0.764,2.228-1.428,3.344-1.983c1.11-0.555,2.089-0.975,2.923-1.255v15.045h-0.834
		c-1.116-0.697-2.23-1.393-3.344-2.091c-0.975-0.694-1.916-1.322-2.82-1.883c-0.907-0.553-1.708-1.11-2.402-1.669
		C70.277,100.974,70,100.486,70,99.786"/>
	<path fill="#FFFFFF" d="M117.317,48.388l0.417,0.832c0.278,0.563,0.419,0.91,0.419,1.045c0.277,0.417,0.59,1.501,0.937,3.24
		c0.35,1.744,0.66,2.82,0.941,3.238c-0.282,0-0.592,0.179-0.941,0.524c-0.347,0.347-0.66,0.524-0.937,0.524
		c-0.559,0.278-1.606,0.66-3.134,1.147c-1.536,0.491-3.134,1.014-4.809,1.569c-1.671,0.559-3.272,1.116-4.805,1.673
		c-1.534,0.555-2.58,0.974-3.134,1.251V48.388H117.317z M102.272,71.789c0,0.282,0.137,0.594,0.419,0.941
		c0.277,0.347,0.417,0.665,0.417,0.938c0.555,1.255,1.389,3.173,2.507,5.747c1.114,2.58,2.33,5.539,3.657,8.884
		c1.321,3.344,2.748,6.789,4.284,10.34c1.53,3.55,2.956,7.001,4.283,10.341c1.324,3.344,2.507,6.306,3.55,8.881
		c1.046,2.58,1.846,4.496,2.405,5.749c-0.282,0.416-0.699,0.765-1.254,1.042c-0.557,0.283-1.046,0.561-1.461,0.836
		c-1.395,0.698-3.066,1.431-5.017,2.195c-1.953,0.765-3.899,1.566-5.85,2.4c-2.23,0.979-4.596,1.953-7.103,2.93h-0.837V71.789z
		 M124.838,127.369c0,4.041-0.453,8.012-1.357,11.911c-0.91,3.899-2.297,7.453-4.18,10.656c-1.879,3.205-4.214,5.992-7.001,8.355
		c-2.787,2.375-6.129,3.974-10.028,4.808v-26.327c0-0.28,0.419-0.696,1.255-1.255c0.416-0.277,0.905-0.486,1.461-0.624
		c1.254-0.557,2.888-1.256,4.909-2.088c2.018-0.837,4.006-1.673,5.957-2.51c2.226-0.972,4.599-1.948,7.104-2.925H124.838z
		 M114.393,162.055c0.417-0.138,1.077-0.314,1.983-0.52c0.905-0.211,1.847-0.489,2.82-0.841c0.975-0.345,1.914-0.625,2.822-0.832
		c0.904-0.21,1.495-0.384,1.776-0.524h1.881v34.686h-23.403c0-1.114,0.278-2.367,0.837-3.76c0.418-0.973,1.179-2.82,2.297-5.54
		c1.114-2.717,2.228-5.568,3.344-8.567c1.114-2.993,2.228-5.814,3.344-8.461C113.204,165.052,113.973,163.173,114.393,162.055
		 M110.629,163.936c0,0.28-0.14,0.767-0.417,1.463c-0.279,0.699-0.415,1.186-0.415,1.463c-0.284,0.697-0.769,1.916-1.465,3.657
		c-0.697,1.74-1.464,3.619-2.298,5.637c-0.837,2.025-1.638,3.94-2.4,5.75c-0.769,1.811-1.224,3.064-1.361,3.759v-19.851
		c0.837-0.136,1.671-0.345,2.508-0.625c0.694-0.275,1.391-0.487,2.087-0.628c0.698-0.136,1.324-0.345,1.883-0.625h1.047H110.629z
		 M103.109,66.775c0-0.555,0.208-0.869,0.624-0.941c0.419-0.068,0.837-0.243,1.256-0.52c0.555-0.28,1.568-0.698,3.03-1.255
		c1.461-0.553,2.993-1.114,4.599-1.669c1.599-0.557,3.097-1.082,4.491-1.571c1.391-0.485,2.366-0.867,2.924-1.149
		c1.391,0.7,2.507,2.23,3.344,4.598c0.836,2.373,1.495,5.118,1.983,8.252c0.488,3.134,0.837,6.475,1.047,10.028
		c0.209,3.554,0.345,6.829,0.414,9.824c0.072,2.997,0.072,5.504,0,7.522c-0.069,2.016-0.102,3.167-0.102,3.445h7.104l-0.417,2.093
		c-0.14,0.555-0.21,1.147-0.21,1.773v1.359c0,0.416-0.069,0.834-0.209,1.253c-0.279,0.835-0.487,1.326-0.625,1.463
		c-0.417,0.833-0.872,1.916-1.359,3.238c-0.489,1.326-1.012,2.544-1.566,3.654c-0.559,1.535-1.186,2.999-1.883,4.391h-0.834
		l-1.044-2.09c-0.282-0.695-0.594-1.322-0.941-1.881c-0.348-0.555-0.663-1.112-0.939-1.673c-0.559-1.251-1.359-3.165-2.405-5.743
		c-1.042-2.575-2.263-5.503-3.655-8.776c-1.395-3.272-2.857-6.717-4.388-10.346c-1.536-3.619-2.962-7.068-4.283-10.34
		c-1.324-3.273-2.543-6.199-3.657-8.777c-1.118-2.573-1.879-4.491-2.297-5.745V66.775z M125.675,155.578
		c0,0.42-0.419,0.767-1.256,1.042c-0.832,0.284-1.773,0.561-2.82,0.839c-1.046,0.277-2.087,0.487-3.134,0.626
		c-1.042,0.138-1.773,0.206-2.193,0.206v-0.832c1.114-2.925,2.228-5.642,3.344-8.152c0.973-2.226,1.914-4.491,2.82-6.789
		c0.904-2.298,1.704-4.212,2.403-5.747c0-0.28,0.135-0.59,0.417-0.939c0.277-0.347,0.419-0.661,0.419-0.939V155.578z
		 M125.675,48.388v6.476c0,0.279-0.35,0.524-1.047,0.732c-0.696,0.209-1.251,0.312-1.671,0.312
		c-0.417-0.136-0.731-0.555-0.939-1.251c-0.209-0.697-0.384-1.461-0.524-2.302c-0.137-0.832-0.243-1.632-0.31-2.403
		c-0.074-0.763-0.105-1.287-0.105-1.563H125.675z M123.794,59.67c0-0.693,0.067-1.183,0.21-1.461
		c0.135-0.277,0.692-0.417,1.671-0.417v9.402c-0.419-1.114-0.837-2.369-1.256-3.762C124.004,62.04,123.794,60.788,123.794,59.67
		 M135.078,111.281c0.278,0.555,0.659,1.671,1.147,3.344c0.487,1.669,0.731,2.785,0.731,3.34c0,0.702-0.731,1.324-2.193,1.881
		c-1.461,0.559-2.403,0.839-2.82,0.839h-0.629c0.555-1.533,1.079-3.102,1.567-4.705C133.368,114.381,134.1,112.815,135.078,111.281
		 M134.242,122.564c0.277-0.14,0.626-0.278,1.042-0.417c0.837-0.277,1.394-0.419,1.673-0.419h0.627h0.418l7.521,26.328v1.881
		c-0.698,0.28-1.393,0.557-2.088,0.835c-1.255,0.418-2.44,0.769-3.554,1.046h-0.417c-0.7,0-1.289-0.345-1.777-1.046
		c-0.491-0.696-0.941-1.53-1.358-2.506c-0.415-0.974-0.73-1.948-0.939-2.924c-0.209-0.975-0.312-1.671-0.312-2.09L134.242,122.564z
		 M135.078,54.864c0-0.972,0.8-1.878,2.401-2.72c1.602-0.832,3.449-1.528,5.538-2.083c2.089-0.555,4.211-0.975,6.373-1.256
		c2.157-0.277,3.867-0.417,5.118-0.417h3.134l-21.521,53.49l-1.043-0.837V54.864z M143.643,48.388
		c-0.281,0.139-0.767,0.312-1.463,0.521c-0.697,0.21-1.461,0.487-2.298,0.836c-0.836,0.347-1.638,0.627-2.403,0.837
		c-0.767,0.209-1.218,0.384-1.358,0.52h-1.043v-2.715H143.643z M136.121,152.654h-1.043v-1.883L136.121,152.654z M136.957,155.578
		c0.278,0.279,0.592,0.906,0.941,1.881c0.345,0.974,0.659,1.601,0.939,1.879c1.114,2.507,2.473,5.676,4.074,9.508
		c1.602,3.831,3.167,7.555,4.703,11.177c1.671,4.319,3.478,8.705,5.433,13.163v0.837h-17.969v-37.611
		c0-0.414,0.173-0.659,0.522-0.731c0.345-0.069,0.661-0.103,0.939-0.103H136.957z M136.957,107.519c0-0.695,0.035-1.254,0.105-1.672
		c0.067-0.415,0.381-1.112,0.94-2.087c1.392-3.481,3.166-7.976,5.328-13.478c2.156-5.503,4.284-10.83,6.374-15.984
		c2.089-5.152,3.897-9.645,5.431-13.478c1.533-3.829,2.37-5.817,2.507-5.955l1.047-1.878v56.413l-0.837,0.419
		c-0.559,0.278-0.906,0.49-1.046,0.627c-0.557,0.281-1.602,0.698-3.135,1.251c-1.532,0.559-3.134,1.223-4.803,1.988
		c-1.671,0.764-3.309,1.463-4.91,2.087c-1.606,0.627-2.685,1.014-3.24,1.147h-0.417c-0.559,0-1.046-0.416-1.463-1.251
		c-0.419-0.837-0.767-1.807-1.044-2.924c-0.282-1.114-0.492-2.161-0.627-3.135C137.025,108.635,136.957,107.937,136.957,107.519
		 M139.882,154.534c0.419-0.277,1.324-0.591,2.718-0.941c1.391-0.345,2.365-0.66,2.924-0.938h0.417c0.555,0,0.869,0.142,0.941,0.417
		c0.067,0.28,0.24,0.767,0.524,1.463l10.236,37.609v1.881c-2.647,0-4.945-1.53-6.896-4.597c-1.953-3.06-3.624-6.719-5.013-10.968
		c-1.394-4.25-2.544-8.602-3.45-13.06C141.378,160.94,140.579,157.318,139.882,154.534 M158.689,112.324v32.806
		c0,0.697-0.455,1.251-1.359,1.673c-0.908,0.416-1.953,0.765-3.134,1.042c-1.184,0.282-2.373,0.492-3.554,0.629
		c-1.185,0.14-1.984,0.277-2.403,0.417l-7.938-29.046L158.689,112.324z M149.286,151.817c0-0.277,0.45-0.594,1.357-0.941
		c0.904-0.345,1.913-0.66,3.029-0.939c1.114-0.275,2.161-0.522,3.135-0.73c0.974-0.209,1.601-0.314,1.883-0.314v36.773
		L149.286,151.817z"/>
	<path fill="#FFFFFF" d="M170.784,186.502c0.557,0.698,0.557,1.326,0,1.881c-0.279,0.28-0.415-0.032-0.415-0.939
		C170.37,186.535,170.505,186.225,170.784,186.502 M204.636,48.388c0,0.696-0.14,1.533-0.417,2.506
		c-0.279,0.978-0.769,1.673-1.463,2.092l-31.971,18.386V48.388H204.636z M194.188,68.028c0,0.418,0.033,1.186,0.104,2.297
		c0.07,1.118,0.139,2.3,0.208,3.552c0.072,1.257,0.141,2.44,0.21,3.554c0.07,1.116,0.105,1.883,0.105,2.3
		c0,2.646-0.035,5.048-0.105,7.206c-0.069,2.163-0.243,4.251-0.522,6.268c-0.28,2.024-0.699,4.111-1.253,6.269
		c-0.559,2.16-1.392,4.563-2.506,7.21h-2.717h-4.493c-1.879,0-3.727-0.104-5.538-0.314c-1.811-0.208-3.413-0.522-4.803-0.938
		c-1.393-0.419-2.093-0.977-2.093-1.673V76.595L194.188,68.028z M170.784,107.519c0.837,0,2.298,0.072,4.391,0.21
		c2.09,0.14,4.179,0.351,6.267,0.629c2.09,0.277,3.969,0.591,5.642,0.938c1.671,0.347,2.508,0.732,2.508,1.149v0.837l-7.521,31.131
		c0,0.415-0.179,0.662-0.524,0.732c-0.35,0.07-0.665,0.102-0.938,0.102h-0.421l-9.404-6.476V107.519z M171.204,140.535
		c0.417,0,1.149,0.243,2.195,0.731c1.046,0.485,2.053,1.147,3.028,1.981c0.973,0.837,1.846,1.707,2.614,2.615
		c0.763,0.906,1.147,1.774,1.147,2.612v1.461l-7.521,30.925c0,0.557-0.208,1.079-0.626,1.565c-0.42,0.492-0.837,0.731-1.257,0.731
		v-42.623H171.204z M175.383,187.545l21.729,6.479h-24.445c0-0.974,0.105-2.298,0.313-3.972c0.209-1.669,0.869-2.507,1.985-2.507
		H175.383z M173.504,72.204c0.277,0,0.418,0.179,0.418,0.527c0,0.347-0.141,0.52-0.418,0.52c-0.282,0-0.421-0.173-0.421-0.52
		C173.083,72.383,173.222,72.204,173.504,72.204 M182.908,148.89h0.624c0.837,0,1.741,0.316,2.716,0.939
		c0.972,0.629,1.985,1.361,3.029,2.193c1.046,0.839,2.055,1.673,3.03,2.512c0.975,0.832,1.809,1.463,2.508,1.878v18.386h14.417
		v19.225h-3.76l-30.926-9.819L182.908,148.89z M202.755,56.326c0,0.702-0.245,1.918-0.729,3.659
		c-0.492,1.74-1.222,2.892-2.197,3.446l-23.401,8.358h-1.044c0.277-0.278,0.765-0.592,1.461-0.938
		c0.696-0.35,1.182-0.664,1.465-0.941c0.973-0.557,2.61-1.531,4.909-2.925c2.297-1.393,4.735-2.824,7.315-4.286
		c2.575-1.463,5.013-2.852,7.311-4.176c2.298-1.324,3.934-2.198,4.911-2.614V56.326z M192.307,110.445l16.924,2.718v9.816h-14.417
		v29.674c-0.699-0.138-1.671-0.49-2.925-1.049c-1.256-0.55-2.507-1.214-3.76-1.983c-1.255-0.765-2.297-1.565-3.134-2.402
		c-0.836-0.836-1.183-1.534-1.046-2.089L192.307,110.445z M193.353,106.684c0-0.555,0.136-1.428,0.416-2.612
		c0.28-1.181,0.419-1.913,0.419-2.195l1.043,2.3h14v6.269c-0.697,0-1.915-0.032-3.654-0.104c-1.746-0.068-3.521-0.245-5.331-0.522
		c-1.811-0.278-3.413-0.629-4.805-1.047c-1.393-0.415-2.088-0.972-2.088-1.671V106.684z M199.828,65.729
		c0.277,0,0.418,0.14,0.418,0.417c0,0.283-0.141,0.42-0.418,0.42c-0.28,0-0.417-0.137-0.417-0.42
		C199.411,65.869,199.548,65.729,199.828,65.729 M209.231,66.147h-6.059c0-0.972,0.836-1.673,2.509-2.088
		c1.671-0.417,2.853-0.627,3.55-0.627V66.147z M209.231,59.67c0,0.701-0.662,1.184-1.983,1.464
		c-1.326,0.279-2.193,0.414-2.612,0.414c0-1.948,0.277-3.827,0.836-5.639c0.555-1.808,1.808-3.063,3.76-3.764V59.67z
		 M209.858,48.388c0,0.417-0.28,0.832-0.833,1.251c-0.559,0.419-1.118,0.627-1.673,0.627v-1.878H209.858z"/>
	<path fill="#FFFFFF" d="M250.858,47.814l5.248,71.315l-1.47,1.467l-9.438,1.889V47.814H250.858z M254.636,123.327
		c0.977,0,1.606,0.349,1.887,1.046c0.14,1.959,0.384,5.454,0.734,10.487c0.347,5.036,0.736,10.352,1.155,15.945
		c0.419,5.592,0.802,10.872,1.153,15.834c0.347,4.968,0.594,8.496,0.734,10.596v3.145c0,1.122-0.104,2.448-0.312,3.983
		c-0.211,1.542-0.561,3.044-1.049,4.514c-0.494,1.467-1.084,2.723-1.785,3.774c-0.698,1.05-1.54,1.573-2.516,1.573h-9.438v-69.012
		c1.118-0.276,2.236-0.555,3.354-0.839c0.979-0.279,1.889-0.489,2.728-0.628c0.84-0.141,1.604-0.28,2.308-0.417H254.636z
		 M266.802,47.814l35.868,38.805v0.415v0.421c0,0.282-0.14,0.771-0.417,1.467c-0.281,0.706-0.421,1.19-0.421,1.47
		c-0.419,0.84-1.046,2.201-1.887,4.09c-0.838,1.889-1.783,3.956-2.83,6.189c-1.05,2.238-1.993,4.334-2.834,6.294
		c-0.839,1.959-1.467,3.352-1.887,4.195c-0.28,0.417-0.7,0.836-1.257,1.258c-0.562,0.421-1.123,0.629-1.68,0.629l-26.429,5.662
		h-1.889h-1.573c-0.771,0-1.153-0.345-1.153-1.048l-5.243-69.848H266.802z M261.138,194.224h-2.726v-1.05l1.887-3.775h0.839V194.224
		z M259.251,122.486c0.279,0,0.767-0.173,1.469-0.526c0.698-0.345,1.187-0.522,1.468-0.522c1.814-0.421,4.228-0.977,7.234-1.679
		c3.008-0.697,5.907-1.326,8.707-1.89c2.795-0.555,5.208-1.046,7.237-1.469c2.024-0.417,3.109-0.625,3.252-0.625h1.887
		l-12.376,26.428c-0.139-1.816-0.315-3.283-0.523-4.403c-0.212-1.118-0.598-1.92-1.155-2.414c-0.561-0.487-1.328-0.801-2.309-0.945
		c-0.979-0.136-2.306-0.207-3.985-0.207v26.845l-7.131,15.105c-1.542-8.39-2.555-16.743-3.04-25.067
		c-0.493-8.316-0.735-16.604-0.735-24.855V122.486z M269.74,167.793v26.43h-5.665l-1.049-11.329L269.74,167.793z M270.578,111.577
		c1.258,0,2.375-0.069,3.357-0.208c0.836-0.139,1.605-0.347,2.308-0.629c0.697-0.28,1.046-0.767,1.046-1.467V69.629
		c0-0.557-0.281-1.053-0.838-1.469c-0.561-0.42-1.19-0.737-1.887-0.941c-0.704-0.212-1.4-0.351-2.099-0.422
		c-0.702-0.07-1.123-0.107-1.259-0.107h-0.629V111.577z M271.629,47.814h6.082c9.648,0,16.22,2.202,19.715,6.607
		c3.495,4.403,5.244,11.36,5.244,20.868v6.506L272.466,49.7L271.629,47.814z M293.234,115.774c0.554-0.978,1.572-1.539,3.042-1.679
		c1.467-0.139,2.686-0.209,3.668-0.209v1.049l-6.71,6.503v1.048c2.652,1.961,4.89,4.126,6.71,6.501
		c1.816,2.378,2.726,5.246,2.726,8.602v39.645c-0.282,0.417-0.629,0.834-1.047,1.256c-0.838,0.841-1.399,1.332-1.679,1.467
		c-1.399,1.123-3.079,2.487-5.035,4.093c-1.959,1.609-3.916,3.179-5.873,4.719c-2.238,1.82-4.614,3.638-7.132,5.455h-3.774v-45.31
		L293.234,115.774z M302.67,184.784v2.202c0,1.05-0.105,2.101-0.312,3.148c-0.209,1.045-0.494,1.99-0.841,2.833
		c-0.347,0.835-0.875,1.256-1.573,1.256H286.73c0.277-0.278,0.591-0.596,0.943-0.945c0.347-0.347,0.659-0.66,0.945-0.945
		c0.417-0.419,1.289-1.185,2.62-2.306c1.328-1.118,2.728-2.234,4.195-3.354c1.467-1.12,2.9-2.236,4.3-3.356
		c1.396-1.118,2.376-1.889,2.936-2.308V184.784z M302.67,100.252c0,1.4,0.035,2.76,0.104,4.093c0.068,1.328-0.069,2.479-0.417,3.458
		c-0.354,0.979-0.913,1.78-1.68,2.412c-0.771,0.628-1.993,0.945-3.668,0.945h-1.889l7.549-16.153V100.252z"/>
	<path fill="#FFFFFF" d="M315.054,186.463c0.558,0.699,0.558,1.332,0,1.889c-0.283,0.28-0.42-0.035-0.42-0.943
		C314.634,186.498,314.771,186.183,315.054,186.463 M349.034,47.814c0,0.699-0.141,1.54-0.419,2.514
		c-0.281,0.982-0.771,1.679-1.468,2.101l-32.094,18.458V47.814H349.034z M338.547,67.529c0,0.421,0.031,1.188,0.105,2.306
		c0.068,1.123,0.137,2.309,0.207,3.567c0.072,1.26,0.141,2.45,0.211,3.568c0.068,1.12,0.106,1.889,0.106,2.306
		c0,2.658-0.038,5.068-0.106,7.235c-0.07,2.17-0.245,4.267-0.523,6.294c-0.281,2.03-0.703,4.125-1.261,6.292
		c-0.561,2.168-1.397,4.582-2.516,7.239h-2.728h-4.508c-1.888,0-3.742-0.107-5.561-0.317c-1.818-0.208-3.429-0.524-4.821-0.941
		c-1.401-0.421-2.1-0.979-2.1-1.679v-27.27L338.547,67.529z M315.054,107.172c0.839,0,2.306,0.074,4.405,0.21
		c2.098,0.141,4.193,0.353,6.291,0.631c2.1,0.279,3.986,0.596,5.665,0.945c1.678,0.347,2.517,0.733,2.517,1.153v0.838l-7.549,31.251
		c0,0.419-0.181,0.668-0.528,0.735c-0.35,0.07-0.664,0.105-0.941,0.105h-0.422l-9.438-6.503V107.172z M315.473,140.316
		c0.42,0,1.152,0.245,2.202,0.733c1.05,0.49,2.063,1.151,3.043,1.992c0.976,0.838,1.851,1.712,2.622,2.623
		c0.767,0.91,1.151,1.782,1.151,2.623v1.47l-7.549,31.041c0,0.561-0.211,1.083-0.63,1.572c-0.42,0.494-0.84,0.736-1.259,0.736
		v-42.79H315.473z M319.668,187.509l21.815,6.504h-24.541c0-0.979,0.104-2.307,0.313-3.986c0.208-1.675,0.873-2.518,1.993-2.518
		H319.668z M317.781,71.722c0.279,0,0.418,0.18,0.418,0.527c0,0.35-0.139,0.524-0.418,0.524c-0.281,0-0.422-0.174-0.422-0.524
		C317.359,71.902,317.5,71.722,317.781,71.722 M327.222,148.707h0.628c0.839,0,1.746,0.314,2.726,0.941
		c0.976,0.631,1.993,1.365,3.041,2.202c1.05,0.842,2.062,1.679,3.041,2.521c0.979,0.837,1.815,1.468,2.52,1.885v18.46h14.473v19.296
		h-3.776l-31.046-9.856L327.222,148.707z M347.147,55.783c0,0.704-0.247,1.926-0.734,3.673c-0.49,1.747-1.227,2.9-2.204,3.459
		l-23.491,8.39h-1.05c0.279-0.28,0.767-0.596,1.468-0.943c0.7-0.35,1.187-0.667,1.471-0.943c0.976-0.557,2.62-1.536,4.929-2.936
		c2.306-1.402,4.753-2.834,7.344-4.302c2.584-1.47,5.03-2.865,7.339-4.195c2.307-1.328,3.948-2.204,4.93-2.624V55.783z
		 M336.657,110.112l16.992,2.728v9.855h-14.473v29.785c-0.704-0.135-1.68-0.487-2.937-1.048c-1.261-0.555-2.518-1.221-3.775-1.992
		c-1.261-0.769-2.309-1.574-3.147-2.413s-1.188-1.538-1.05-2.097L336.657,110.112z M337.707,106.336
		c0-0.559,0.137-1.435,0.418-2.625c0.281-1.186,0.422-1.919,0.422-2.201l1.047,2.309h14.056v6.293c-0.699,0-1.923-0.033-3.672-0.107
		c-1.748-0.067-3.532-0.244-5.349-0.524c-1.817-0.277-3.427-0.631-4.824-1.048c-1.398-0.419-2.098-0.977-2.098-1.68V106.336z
		 M344.209,65.222c0.279,0,0.42,0.14,0.42,0.418c0,0.284-0.141,0.422-0.42,0.422c-0.281,0-0.42-0.138-0.42-0.422
		C343.789,65.361,343.928,65.222,344.209,65.222 M353.649,65.64h-6.084c0-0.975,0.839-1.679,2.519-2.096
		c1.678-0.419,2.866-0.628,3.565-0.628V65.64z M353.649,59.14c0,0.703-0.667,1.188-1.991,1.467c-1.333,0.281-2.204,0.42-2.624,0.42
		c0-1.957,0.277-3.844,0.839-5.664c0.559-1.814,1.814-3.074,3.776-3.778V59.14z M354.277,47.814c0,0.417-0.283,0.837-0.837,1.255
		c-0.561,0.422-1.12,0.629-1.679,0.629v-1.885H354.277z"/>
	<path fill="#FFFFFF" d="M406.62,47.182l-40.694,10.279V47.182H406.62z M377.883,66.482h-11.957V60.4
		c0.278-0.14,0.626-0.28,1.05-0.421c0.278-0.136,0.592-0.279,0.945-0.421c0.347-0.138,0.66-0.212,0.941-0.212
		c3.355-0.834,7.517-1.885,12.48-3.145c4.962-1.257,9.788-2.516,14.477-3.773c4.683-1.261,8.701-2.309,12.06-3.147
		c3.356-0.838,5.104-1.255,5.243-1.255h1.048v18.458h-11.745v11.744h-4.196c-2.379,0-4.928-0.035-7.656-0.102
		c-2.726-0.072-5.209-0.14-7.444-0.21c-2.24-0.07-3.565-0.247-3.989-0.528l-1.256-1.049V66.482z M378.302,80.116
		c3.776,0,7.688,0.033,11.747,0.104c4.055,0.073,7.973,0.663,11.748,1.783v2.938c0,0.837-0.734,1.924-2.204,3.25
		c-1.467,1.332-3.113,2.658-4.93,3.985c-1.818,1.332-4.125,2.974-6.921,4.931h-1.05l-8.391-5.665V80.116z M378.724,95.217h0.415
		c0.561,0.282,1.538,0.91,2.939,1.889c1.396,0.979,2.306,1.612,2.728,1.887v0.417c0,0.422-0.281,0.983-0.839,1.679
		c-0.561,0.704-1.19,1.33-1.889,1.889c-0.701,0.559-1.401,1.047-2.098,1.469c-0.701,0.42-1.257,0.63-1.679,0.63v-9.859H378.724z
		 M388.16,101.933c0.558,0,0.979,0.07,1.258,0.208c0.281,0.14,0.631,0.349,1.05,0.626c0.839,0.706,1.889,1.439,3.146,2.204
		c1.261,0.771,2.52,1.577,3.775,2.411c1.397,0.982,2.865,1.961,4.408,2.938v39.645c-0.704-0.28-1.995-0.802-3.882-1.573
		c-1.889-0.769-3.88-1.605-5.978-2.516c-2.1-0.91-4.091-1.747-5.979-2.52c-1.887-0.767-3.182-1.361-3.88-1.781
		c-0.42-0.137-1.19-0.49-2.309-1.047c-0.561-0.279-1.046-0.559-1.468-0.842v-30.203c0-0.422,0.422-1.05,1.261-1.889
		c0.839-0.839,1.814-1.677,2.937-2.516c1.118-0.84,2.232-1.577,3.354-2.203C386.972,102.243,387.742,101.933,388.16,101.933
		 M401.797,153.322v12.793l-0.841,1.889c-2.935,3.356-5.665,6.57-8.182,9.646c-2.236,2.662-4.511,5.353-6.816,8.078
		c-2.307,2.725-4.231,5.001-5.767,6.818c-0.281,0.558-0.912,0.839-1.89,0.839v-50.973L401.797,153.322z M401.797,193.385h-18.88
		c0.7-0.839,1.889-2.274,3.566-4.3c1.677-2.024,3.461-4.195,5.35-6.503c1.887-2.307,3.701-4.47,5.454-6.504
		c1.746-2.024,2.967-3.458,3.669-4.299l0.841-1.049V193.385z M391.516,99.41c0-0.837,0.384-1.638,1.154-2.409
		c0.767-0.769,1.712-1.54,2.832-2.308c1.118-0.767,2.236-1.435,3.358-1.992c1.114-0.557,2.096-0.979,2.937-1.26v15.106h-0.841
		c-1.12-0.702-2.238-1.4-3.356-2.101c-0.979-0.698-1.923-1.326-2.83-1.89c-0.911-0.554-1.716-1.116-2.413-1.675
		C391.797,100.603,391.516,100.113,391.516,99.41"/>
	<path fill="#FFFFFF" d="M417.938,189.819c0-0.557,0.066-1.432,0.211-2.623c0.136-1.186,0.21-1.92,0.21-2.202l0.629-0.42
		c0.419-0.28,0.945-0.698,1.573-1.259c0.629-0.557,1.291-1.05,1.991-1.467c0.701-0.557,1.397-1.051,2.098-1.467h1.261l15.729,7.549
		v6.081h-23.701V189.819z M418.987,180.381c0-0.28,0.068-0.769,0.208-1.47c0.139-0.699,0.211-1.188,0.211-1.467h0.42l1.469,0.419
		c0.135,0,0.348,0.138,0.629,0.417l0.211,0.211v0.419l-0.422,0.419c-0.418,0.419-0.769,0.703-1.048,0.839
		c-0.281,0.281-0.56,0.493-0.839,0.628l-0.839,0.417V180.381z M420.874,175.133c-0.42,0-0.7-0.068-0.839-0.208
		c-0.141,0-0.209-0.069-0.209-0.21v-3.775l4.823-45.935l13.636,40.274v1.255l-1.468,1.471c-0.421,0.417-1.192,1.015-2.309,1.779
		c-1.12,0.771-2.237,1.612-3.355,2.518c-1.122,0.912-2.24,1.751-3.358,2.518c-1.12,0.769-1.885,1.363-2.307,1.779h-1.469
		c-0.418-0.135-0.839-0.347-1.257-0.624c-0.281-0.141-0.599-0.28-0.945-0.421C421.468,175.419,421.153,175.274,420.874,175.133
		 M425.488,113.676c0-0.28,0.07-0.837,0.211-1.679c0.137-0.837,0.211-1.395,0.211-1.68c0.556,0.286,1.152,0.633,1.78,1.051
		c0.63,0.419,1.154,0.912,1.574,1.471l0.419,0.416v0.421l-0.419,0.838c-0.141,0.282-0.42,0.629-0.838,1.051l-0.632,0.419
		c-0.283,0-0.664,0.179-1.152,0.524c-0.491,0.349-0.875,0.524-1.154,0.524V113.676z M430.312,110.317
		c-0.281-0.277-0.91-0.734-1.886-1.358c-0.981-0.631-1.609-1.084-1.889-1.365v-3.359c0-0.417,0.068-1.223,0.211-2.413
		c0.137-1.183,0.207-1.918,0.207-2.201l0.421-1.047c0.418-0.559,1.152-1.644,2.202-3.251c1.05-1.607,2.128-3.354,3.252-5.243
		c1.118-1.889,2.202-3.636,3.252-5.248c1.048-1.603,1.78-2.688,2.202-3.248c0.276-0.279,0.592-0.768,0.945-1.469
		c0.347-0.699,0.658-1.188,0.941-1.467l7.132,7.13v5.246l-15.733,20.345L430.312,110.317z M426.538,122.276
		c0-0.141,0.068-0.347,0.211-0.629c0.137-0.135,0.241-0.277,0.313-0.421c0.068-0.135,0.172-0.277,0.314-0.417
		c0.135-0.14,0.241-0.277,0.313-0.417c0.07-0.141,0.245-0.347,0.526-0.633c0.136-0.28,0.347-0.557,0.628-0.837l0.839-1.052
		c0.279-0.136,0.629-0.276,1.05-0.416c0.837-0.279,1.327-0.421,1.47-0.421c0.417,0,0.696-0.067,0.839-0.21
		c0.137,0,0.274-0.067,0.417-0.212h1.05l10.905,7.974v1.467c0,0.281-0.072,1.224-0.206,2.832c-0.143,1.61-0.249,3.324-0.317,5.139
		c-0.07,1.818-0.177,3.497-0.313,5.036c-0.143,1.538-0.21,2.515-0.21,2.937v1.047h7.973v-13.217l17.619,13.217l-0.632,0.42
		c-3.354,2.514-6.572,4.964-9.647,7.341c-2.657,1.961-5.349,3.985-8.077,6.084c-2.726,2.098-5,3.773-6.816,5.034l-1.261,0.836
		l-0.626,0.633c-0.422,0.417-0.771,0.698-1.05,0.834l-0.839,0.421h-0.418l-14.055-41.11V122.276z M427.795,90.18
		c0-0.553,0.07-1.675,0.211-3.352c0.137-1.679,0.314-3.532,0.523-5.561c0.211-2.022,0.422-3.985,0.633-5.872
		c0.206-1.885,0.379-3.32,0.521-4.297c0-0.28,0.106-0.737,0.312-1.367c0.213-0.629,0.317-1.082,0.317-1.361
		c1.395,1.398,2.798,2.795,4.196,4.195c1.396,1.4,2.656,2.799,3.776,4.193l-0.422,1.046c-0.139,0.286-0.594,1.02-1.363,2.206
		c-0.771,1.189-1.644,2.518-2.621,3.987c-0.979,1.465-1.959,2.968-2.937,4.507c-0.979,1.54-1.678,2.73-2.098,3.566l-1.05,1.259
		V90.18z M438.285,183.525c-0.422-0.138-1.12-0.455-2.1-0.943c-0.978-0.489-2.029-1.014-3.144-1.575
		c-1.122-0.557-2.172-1.048-3.147-1.467c-0.981-0.417-1.678-0.769-2.1-1.049v-0.628l0.632-0.419c0.275-0.14,0.907-0.594,1.886-1.365
		c0.977-0.769,1.992-1.569,3.043-2.413c1.049-0.837,2.024-1.605,2.935-2.304c0.909-0.701,1.573-1.19,1.995-1.467l0.839-0.421h0.628
		l2.726,8.39l-0.417,7.132h-0.422c-0.281,0-0.839-0.177-1.676-0.524C439.124,184.124,438.562,183.805,438.285,183.525
		 M430.733,61.657c0-0.559,0.032-1.538,0.103-2.935c0.072-1.4,0.175-2.835,0.317-4.302c0.136-1.467,0.314-2.903,0.521-4.302
		c0.211-1.396,0.386-2.375,0.528-2.938h24.958l-1.046,1.889c-1.961,2.802-3.707,5.456-5.247,7.973
		c-1.539,2.237-3.007,4.546-4.403,6.919c-1.399,2.382-2.592,4.336-3.565,5.874c-0.281,0.284-0.56,0.667-0.839,1.153
		c-0.281,0.496-0.561,0.943-0.839,1.367c-0.422,0.559-0.771,1.12-1.05,1.677h-0.42l-9.019-9.02V61.657z M434.088,112.208
		c0.278-0.559,0.945-1.538,1.995-2.938c1.048-1.396,2.166-2.832,3.354-4.302c1.187-1.468,2.309-2.861,3.356-4.193
		c1.052-1.326,1.71-2.202,1.993-2.624c0.279-0.279,0.595-0.659,0.943-1.153c0.348-0.489,0.665-0.873,0.945-1.15v6.082
		c0,0.417-0.072,1.502-0.21,3.249c-0.139,1.751-0.211,2.833-0.211,3.252c-0.281,0-0.595,0.177-0.941,0.527
		c-0.354,0.347-0.669,0.524-0.945,0.524c-0.42,0.137-1.05,0.386-1.89,0.731c-0.839,0.351-1.78,0.736-2.83,1.153
		c-1.05,0.419-1.991,0.806-2.83,1.153c-0.839,0.352-1.469,0.599-1.889,0.734h-0.42l-0.421-0.416V112.208z M444.367,120.808
		c-0.281-0.14-0.733-0.417-1.363-0.838s-1.293-0.908-1.993-1.467c-0.7-0.56-1.399-1.121-2.098-1.68
		c-0.702-0.559-1.257-0.976-1.678-1.257l-0.418-0.422c0.554-0.277,1.744-0.769,3.565-1.467c1.814-0.696,3.002-1.188,3.564-1.467
		c0.279,0,0.556-0.07,0.839-0.211c0.139,0,0.348-0.068,0.628-0.21h0.422v6.082c0,0.283-0.072,0.842-0.211,1.679
		c-0.141,0.843-0.211,1.4-0.211,1.677L444.367,120.808z M442.061,169.051c0-0.135-0.038-0.312-0.106-0.524
		c-0.07-0.209-0.104-0.38-0.104-0.521c-0.139-0.139-0.211-0.28-0.211-0.422l0.422-0.419l0.839-0.629v3.359h-0.422L442.061,169.051z
		 M449.607,84.308c0-0.417-0.068-1.326-0.206-2.724c-0.141-1.397-0.209-2.377-0.209-2.937c0-0.28-0.104-0.663-0.315-1.155
		c-0.213-0.49-0.315-0.869-0.315-1.153c0,0.284-0.072,0.664-0.208,1.153c-0.143,0.493-0.211,0.875-0.211,1.155
		c0,0.279-0.07,0.91-0.211,1.887c-0.139,0.982-0.211,1.609-0.211,1.887c-0.556-0.278-1.433-1.014-2.619-2.203
		c-1.188-1.182-1.923-1.992-2.202-2.414c-0.145-0.135-0.281-0.347-0.422-0.624c-0.28-0.28-0.417-0.557-0.417-0.841v-0.419
		l0.417-1.05c0.559-0.977,1.643-2.691,3.252-5.139c1.608-2.444,3.282-5.036,5.036-7.762c1.746-2.723,3.423-5.312,5.032-7.761
		c1.608-2.444,2.692-4.158,3.254-5.139c0-0.419,0.135-0.767,0.418-1.045l0.421-0.42l0.629-0.423h4.192l0.422,0.423
		c0.137,1.959,0.348,3.774,0.628,5.453c0.137,1.538,0.279,3.04,0.422,4.511c0.137,1.467,0.275,2.691,0.418,3.668v4.827
		l-15.522,19.715L449.607,84.308z M453.805,162.34h-5.243l1.046-0.84l22.658-17.2c0.279,0.284,0.558,0.496,0.839,0.631
		c0.279,0.279,0.483,0.456,0.628,0.524c0.139,0.074,0.279,0.175,0.42,0.312l0.628,0.631c0.141,0.144,0.211,0.282,0.211,0.419
		c0,0.281,0.068,0.562,0.211,0.838c0.279,0.562,0.418,0.911,0.418,1.051l3.775,35.45l-18.876,9.435h-1.468
		c-0.283-0.137-0.63-0.313-1.054-0.524c-0.416-0.21-0.771-0.381-1.044-0.523l-1.263-0.419L453.805,162.34z M450.451,103.399
		c0-0.278-0.039-0.802-0.106-1.577c-0.07-0.765-0.104-1.603-0.104-2.514c0-0.911-0.034-1.784-0.106-2.625
		c-0.07-0.834-0.103-1.465-0.103-1.889v-3.353c0-0.28,0.175-0.557,0.521-0.841c0.35-0.277,0.665-0.421,0.948-0.421l11.324,11.33
		v0.422c0,0.139-0.07,0.207-0.211,0.207c-0.138,0.141-0.419,0.21-0.839,0.21c-0.281,0.142-0.873,0.388-1.78,0.736
		c-0.913,0.35-1.854,0.734-2.834,1.15c-0.978,0.421-1.923,0.808-2.83,1.155c-0.911,0.352-1.574,0.598-1.991,0.733l-1.261,0.421
		c0-0.277-0.104-0.803-0.313-1.576C450.553,104.205,450.451,103.678,450.451,103.399 M453.388,127.309l-1.47-1.257
		c-0.139-0.977-0.211-1.814-0.211-2.516c-0.139-0.699-0.206-1.365-0.206-1.993v-1.785c0-0.28-0.038-0.802-0.106-1.571
		c-0.076-0.769-0.104-1.606-0.104-2.52c0-0.904-0.036-1.746-0.106-2.515c-0.07-0.769-0.104-1.365-0.104-1.784v-1.885l0.211-0.212
		c0.136,0,0.24-0.033,0.312-0.104c0.07-0.068,0.177-0.105,0.315-0.105c0.422-0.279,1.187-0.659,2.309-1.155
		c1.118-0.487,2.307-0.975,3.562-1.467c1.263-0.488,2.447-0.941,3.569-1.361c1.118-0.421,1.887-0.698,2.308-0.843
		c0.557,0,0.908-0.067,1.046-0.209c0.139,0,0.279-0.068,0.422-0.208l6.71,6.499l2.309,24.542v4.826c0,0.142-0.07,0.284-0.211,0.419
		c-0.281,0.284-0.558,0.423-0.837,0.423l-0.839,0.625l-1.05-0.625L453.388,127.309z M467.021,69.835l0.42,0.419l2.937,27.898v0.421
		l-0.418,0.417c-0.283,0.282-0.632,0.494-1.05,0.629c-0.841,0.283-1.333,0.42-1.469,0.42c-0.143,0-0.281,0.033-0.42,0.104
		c-0.141,0.074-0.285,0.106-0.419,0.106c-0.143,0.141-0.281,0.212-0.418,0.212h-0.632l-12.584-12.796L467.021,69.835z
		 M469.327,191.706c0.7-0.279,1.573-0.697,2.623-1.26c1.05-0.555,2.132-1.116,3.252-1.675c1.118-0.559,2.307-1.188,3.565-1.892
		h0.628c0,0.419,0.07,0.839,0.211,1.263c0,0.277,0.034,0.629,0.104,1.045c0.067,0.422,0.105,0.771,0.105,1.051v3.772h-14.683
		c0.279-0.276,0.976-0.658,2.096-1.154C468.348,192.371,469.046,191.988,469.327,191.706 M468.49,102.348
		c0.136,0,0.276-0.069,0.419-0.21c0.137,0,0.279-0.03,0.418-0.104c0.139-0.068,0.349-0.102,0.632-0.102h0.418l0.421,0.836v2.938
		l-2.729-2.938L468.49,102.348z M474.572,142.413c0.28,0,0.419,0.177,0.419,0.524c0,0.35-0.139,0.526-0.419,0.526
		c-0.281,0-0.42-0.176-0.42-0.526C474.152,142.589,474.291,142.413,474.572,142.413"/>
	<path fill="#FFFFFF" d="M491.782,48.65c1.957,1.677,3.88,3.64,5.769,5.875c1.887,2.24,3.109,4.687,3.67,7.344l4.612,33.98v0.419
		c0,0.701-0.348,1.226-1.048,1.573c-0.7,0.349-1.257,0.665-1.676,0.945c-0.42,0.277-1.19,0.624-2.307,1.046
		c-1.12,0.421-2.24,0.876-3.356,1.365c-1.122,0.489-2.24,0.941-3.357,1.361c-1.12,0.422-1.888,0.703-2.307,0.84V48.65z
		 M505.417,100.671c0.976,0,1.468,0.628,1.468,1.887c0.137,0.563,0.42,2.03,0.839,4.407c0.42,2.377,0.837,5.107,1.259,8.178
		c0.417,3.079,0.803,6.226,1.152,9.44c0.349,3.22,0.525,5.946,0.525,8.182v2.726l-18.878,6.082v-35.238
		c0.139-0.136,0.345-0.28,0.628-0.421l1.259-0.629c0.42-0.14,1.188-0.452,2.309-0.941c1.118-0.489,2.231-0.978,3.354-1.471
		c1.118-0.485,2.236-0.941,3.358-1.363c1.118-0.418,1.889-0.698,2.307-0.838H505.417z M510.66,138.426h0.839
		c0.42,0,0.871,1.296,1.363,3.881c0.489,2.59,0.945,5.842,1.36,9.753c0.424,3.917,0.806,8.183,1.158,12.797
		c0.346,4.614,0.659,8.984,0.941,13.109c0.279,4.125,0.488,7.694,0.631,10.699c0.137,3.009,0.209,4.791,0.209,5.347h-25.38v-49.501
		L510.66,138.426z M496.816,47.813c1.259,0,1.991,0.209,2.202,0.629c0.21,0.419,0.312,1.12,0.312,2.096v1.889
		c-0.7-0.422-1.433-1.05-2.202-1.889c-0.769-0.839-1.294-1.747-1.575-2.726H496.816z M516.322,47.813v26.432l-12.376-15.106
		c-1.12-1.538-1.713-3.424-1.78-5.662c-0.074-2.237-0.106-4.124-0.106-5.664H516.322z M503.946,63.753
		c1.116,0.838,2.378,1.856,3.777,3.042c1.396,1.189,2.726,2.448,3.984,3.776c1.259,1.332,2.341,2.728,3.252,4.197
		c0.907,1.465,1.362,2.83,1.362,4.089v14.263c-0.282,0-0.562,0.07-0.839,0.208c-0.562,0.284-0.911,0.496-1.048,0.631
		c-0.56,0.282-1.437,0.667-2.623,1.153c-1.188,0.491-1.923,0.736-2.202,0.736h-0.417h-0.422c-1.12-4.894-2.202-10.207-3.252-15.944
		c-1.048-5.732-1.573-10.976-1.573-15.733V63.753z M509.61,98.786c0.976-0.559,2.168-1.123,3.565-1.679
		c1.396-0.558,2.446-0.979,3.146-1.258v37.754l-1.887,1.048c-1.961-5.312-3.251-10.801-3.88-16.461
		c-0.628-5.669-0.945-11.225-0.945-16.681V98.786z M516.322,137.38v13.213l-1.887-13.213H516.322z"/>
	<path fill="#FFFFFF" d="M529.125,46.762c0.42,0,1.225,0.037,2.413,0.107c1.186,0.069,2.444,0.142,3.775,0.209
		c1.327,0.071,2.587,0.14,3.775,0.212c1.187,0.067,1.991,0.175,2.413,0.312c0.558,0.142,1.326,0.35,2.309,0.629
		c0.975,0.281,1.918,0.593,2.83,0.943c0.907,0.352,1.678,0.628,2.306,0.838c0.631,0.212,0.945,0.389,0.945,0.524v0.839l-8.39,65.234
		c-0.281,1.398-0.526,2.202-0.734,2.414c-0.211,0.209-0.808,0.314-1.783,0.314c-0.7,0-1.611-0.07-2.726-0.21
		c-1.122-0.139-2.206-0.316-3.252-0.524c-1.05-0.211-1.961-0.417-2.729-0.629c-0.767-0.21-1.152-0.385-1.152-0.524V46.762z
		 M529.125,120.39c0.42,0,1.048,0.071,1.887,0.208c0.839,0.14,1.784,0.316,2.834,0.526c1.046,0.208,1.991,0.419,2.83,0.626
		c0.84,0.21,1.47,0.388,1.89,0.527c0.7,0.281,1.186,0.454,1.471,0.524c0.277,0.07,0.416,0.389,0.416,0.943v0.417l-9.019,69.851
		h-2.309V120.39z M543.389,123.115c0.279,0.142,0.805,0.313,1.573,0.524c0.767,0.209,1.606,0.387,2.518,0.522
		c0.907,0.142,1.746,0.285,2.517,0.422c0.765,0.144,1.363,0.281,1.783,0.42c0.276,0,0.525,0.07,0.736,0.208
		c0.207,0.143,0.451,0.282,0.732,0.417l0.837,0.424v48.662h13.847l-14.264,19.298H533.95L543.389,123.115z M553.668,52.428v69.849
		h-2.098c-0.981,0-2.027-0.07-3.147-0.208c-1.12-0.14-2.096-0.352-2.935-0.633c-0.839-0.277-1.261-0.629-1.261-1.046v-5.666
		c0.558-4.333,1.05-8.179,1.468-11.537c0.419-3.356,0.907-7.163,1.467-11.43c0.559-4.266,1.12-8.565,1.68-12.9
		c0.559-4.334,1.08-8.496,1.574-12.485c0.487-3.981,0.943-7.373,1.363-10.172c0-0.555,0.174-1.429,0.525-2.622
		c0.348-1.185,0.521-1.919,0.521-2.203L553.668,52.428z M549.892,47.182c0.279,0,0.418,0.177,0.418,0.524
		c0,0.352-0.139,0.527-0.418,0.527c-0.282,0-0.421-0.175-0.421-0.527C549.471,47.358,549.609,47.182,549.892,47.182 M553.668,48.649
		h-0.842l0.842-1.046V48.649z M568.769,194.013h-11.325v-1.045c1.257-1.68,2.517-3.287,3.773-4.826
		c1.118-1.261,2.168-2.588,3.147-3.985c0.976-1.398,1.814-2.518,2.518-3.357l1.887-1.887V194.013z"/>
	<path fill="#FFFFFF" d="M44.095,334.013c0-0.443,0.053-1.138,0.167-2.081c0.108-0.939,0.168-1.521,0.168-1.746l0.497-0.334
		c0.331-0.221,0.749-0.552,1.249-0.997c0.499-0.441,1.025-0.833,1.581-1.164c0.554-0.441,1.105-0.833,1.66-1.164h1.001l12.474,5.987
		v4.825H44.095V334.013z M44.927,326.526c0-0.222,0.056-0.608,0.165-1.165c0.111-0.556,0.167-0.943,0.167-1.164h0.335l1.164,0.331
		c0.109,0,0.276,0.11,0.5,0.334l0.167,0.166v0.333l-0.335,0.332c-0.331,0.333-0.608,0.558-0.828,0.666
		c-0.225,0.223-0.446,0.39-0.667,0.498l-0.666,0.333V326.526z M46.423,322.365c-0.33,0-0.555-0.055-0.665-0.165
		c-0.112,0-0.165-0.056-0.165-0.166v-2.993l3.823-36.43l10.816,31.939v0.995l-1.166,1.165c-0.333,0.333-0.945,0.807-1.829,1.413
		c-0.889,0.611-1.777,1.276-2.662,1.997c-0.89,0.725-1.776,1.387-2.661,1.997c-0.891,0.608-1.497,1.08-1.832,1.411h-1.163
		c-0.333-0.108-0.667-0.275-0.998-0.496c-0.224-0.108-0.475-0.221-0.748-0.333C46.894,322.592,46.646,322.479,46.423,322.365
		 M50.082,273.627c0-0.221,0.058-0.664,0.169-1.331c0.106-0.664,0.167-1.105,0.167-1.333c0.441,0.228,0.912,0.502,1.412,0.833
		c0.5,0.331,0.914,0.725,1.248,1.167l0.335,0.329v0.335l-0.335,0.664c-0.111,0.225-0.333,0.5-0.665,0.833l-0.499,0.331
		c-0.225,0-0.529,0.143-0.916,0.418c-0.391,0.277-0.694,0.415-0.917,0.415V273.627z M53.909,270.963
		c-0.224-0.221-0.722-0.582-1.497-1.077c-0.777-0.502-1.276-0.859-1.499-1.084v-2.662c0-0.331,0.056-0.97,0.169-1.913
		c0.109-0.939,0.165-1.521,0.165-1.746l0.333-0.831c0.333-0.441,0.915-1.303,1.748-2.579c0.832-1.274,1.689-2.66,2.579-4.157
		c0.886-1.499,1.745-2.885,2.577-4.161c0.83-1.272,1.412-2.132,1.748-2.577c0.22-0.221,0.469-0.608,0.748-1.164
		c0.276-0.554,0.525-0.941,0.749-1.164l5.656,5.654v4.161l-12.479,16.134L53.909,270.963z M50.914,280.447
		c0-0.11,0.056-0.276,0.169-0.5c0.109-0.108,0.191-0.221,0.247-0.333c0.055-0.108,0.138-0.221,0.251-0.331
		c0.108-0.11,0.193-0.223,0.249-0.333c0.055-0.11,0.193-0.275,0.417-0.5c0.109-0.221,0.276-0.441,0.498-0.664l0.668-0.835
		c0.22-0.108,0.497-0.219,0.83-0.329c0.664-0.222,1.053-0.334,1.165-0.334c0.332,0,0.553-0.054,0.667-0.166
		c0.106,0,0.218-0.055,0.332-0.167h0.832l8.649,6.321v1.164c0,0.225-0.057,0.974-0.167,2.248c-0.111,1.274-0.196,2.634-0.249,4.074
		c-0.055,1.441-0.142,2.772-0.249,3.993c-0.112,1.218-0.166,1.995-0.166,2.328v0.831h6.32v-10.479l13.975,10.479l-0.501,0.333
		c-2.659,1.995-5.212,3.938-7.652,5.821c-2.104,1.556-4.24,3.161-6.404,4.825c-2.163,1.664-3.965,2.993-5.406,3.992l-0.997,0.665
		l-0.5,0.499c-0.332,0.332-0.61,0.557-0.83,0.665l-0.667,0.333h-0.332l-11.147-32.602V280.447z M51.914,254.993
		c0-0.439,0.055-1.328,0.166-2.659c0.107-1.331,0.25-2.8,0.416-4.408c0.167-1.605,0.333-3.161,0.501-4.656
		c0.165-1.498,0.3-2.634,0.416-3.411c0-0.221,0.083-0.582,0.246-1.081c0.168-0.5,0.251-0.859,0.251-1.082
		c1.108,1.109,2.218,2.218,3.328,3.328c1.106,1.109,2.104,2.22,2.995,3.325l-0.335,0.831c-0.109,0.226-0.471,0.808-1.079,1.749
		c-0.612,0.943-1.306,1.995-2.083,3.161c-0.775,1.164-1.552,2.354-2.327,3.575c-0.777,1.22-1.332,2.163-1.665,2.828l-0.83,0.995
		V254.993z M60.232,329.021c-0.335-0.11-0.89-0.361-1.667-0.748c-0.775-0.388-1.608-0.803-2.491-1.249
		c-0.89-0.441-1.722-0.831-2.495-1.164c-0.78-0.331-1.333-0.608-1.665-0.831v-0.5l0.499-0.331c0.22-0.11,0.72-0.472,1.497-1.084
		c0.774-0.607,1.579-1.244,2.414-1.912c0.83-0.663,1.605-1.275,2.327-1.827c0.721-0.556,1.247-0.943,1.583-1.164l0.666-0.333h0.498
		l2.163,6.651l-0.332,5.657h-0.335c-0.222,0-0.667-0.139-1.33-0.414C60.897,329.495,60.452,329.244,60.232,329.021 M54.242,232.372
		c0-0.442,0.027-1.219,0.083-2.329c0.055-1.109,0.137-2.246,0.25-3.41c0.108-1.164,0.251-2.302,0.415-3.412
		c0.167-1.104,0.305-1.881,0.417-2.328h19.794l-0.83,1.499c-1.554,2.22-2.94,4.326-4.16,6.321c-1.222,1.774-2.385,3.606-3.493,5.487
		c-1.11,1.889-2.053,3.438-2.828,4.659c-0.222,0.223-0.444,0.527-0.664,0.913c-0.224,0.394-0.446,0.751-0.667,1.084
		c-0.335,0.443-0.612,0.89-0.832,1.331h-0.333l-7.153-7.152V232.372z M56.904,272.463c0.22-0.444,0.749-1.219,1.581-2.329
		c0.83-1.107,1.716-2.248,2.66-3.412c0.941-1.164,1.832-2.271,2.664-3.326c0.833-1.052,1.355-1.746,1.579-2.079
		c0.222-0.221,0.471-0.524,0.75-0.913c0.273-0.39,0.524-0.694,0.748-0.916v4.826c0,0.331-0.057,1.19-0.167,2.575
		c-0.11,1.391-0.168,2.248-0.168,2.579c-0.222,0-0.471,0.141-0.746,0.418c-0.28,0.274-0.528,0.415-0.748,0.415
		c-0.335,0.11-0.833,0.307-1.498,0.582c-0.667,0.277-1.412,0.582-2.245,0.913c-0.832,0.331-1.581,0.639-2.247,0.914
		c-0.666,0.28-1.164,0.474-1.496,0.582h-0.333l-0.333-0.329V272.463z M65.056,279.283c-0.225-0.11-0.584-0.333-1.082-0.666
		c-0.501-0.334-1.026-0.721-1.581-1.164c-0.557-0.442-1.112-0.888-1.662-1.331c-0.56-0.441-1-0.775-1.333-0.998l-0.333-0.333
		c0.44-0.221,1.385-0.61,2.829-1.164c1.438-0.554,2.381-0.941,2.826-1.164c0.222,0,0.441-0.055,0.666-0.167
		c0.111,0,0.276-0.056,0.5-0.169h0.333v4.824c0,0.227-0.057,0.666-0.167,1.332c-0.111,0.667-0.167,1.11-0.167,1.331L65.056,279.283z
		 M63.227,317.541c0-0.108-0.031-0.248-0.084-0.415c-0.055-0.167-0.083-0.301-0.083-0.415c-0.111-0.108-0.168-0.222-0.168-0.334
		l0.335-0.331l0.664-0.5v2.664h-0.332L63.227,317.541z M69.214,250.337c0-0.331-0.058-1.052-0.167-2.162
		c-0.111-1.108-0.165-1.885-0.165-2.328c0-0.221-0.084-0.524-0.253-0.916c-0.167-0.387-0.249-0.69-0.249-0.915
		c0,0.225-0.057,0.528-0.165,0.915c-0.112,0.392-0.168,0.695-0.168,0.916c0,0.223-0.055,0.723-0.166,1.497
		c-0.111,0.777-0.167,1.276-0.167,1.495c-0.442-0.219-1.137-0.803-2.079-1.746c-0.943-0.939-1.524-1.579-1.747-1.913
		c-0.11-0.108-0.222-0.276-0.332-0.497c-0.225-0.222-0.332-0.442-0.332-0.667v-0.333l0.332-0.831c0.441-0.774,1.3-2.136,2.579-4.074
		c1.274-1.939,2.603-3.995,3.991-6.156c1.387-2.162,2.715-4.212,3.992-6.154c1.274-1.939,2.134-3.301,2.579-4.075
		c0-0.335,0.107-0.612,0.332-0.831l0.335-0.333l0.498-0.335h3.327l0.333,0.335c0.109,1.554,0.276,2.993,0.5,4.325
		c0.106,1.221,0.22,2.411,0.333,3.575c0.108,1.164,0.22,2.138,0.33,2.91v3.828l-12.31,15.635L69.214,250.337z M72.542,312.218h-4.16
		l0.833-0.664l17.966-13.642c0.22,0.226,0.443,0.394,0.667,0.5c0.222,0.223,0.386,0.361,0.497,0.416
		c0.109,0.06,0.223,0.141,0.333,0.249l0.498,0.499c0.11,0.115,0.169,0.226,0.169,0.334c0,0.223,0.053,0.443,0.167,0.664
		c0.22,0.445,0.33,0.723,0.33,0.833l2.995,28.113l-14.971,7.483h-1.165c-0.224-0.108-0.497-0.247-0.832-0.416
		c-0.333-0.166-0.61-0.301-0.83-0.413l-1-0.335L72.542,312.218z M69.88,265.478c0-0.223-0.028-0.637-0.084-1.251
		c-0.055-0.605-0.084-1.272-0.084-1.995c0-0.721-0.026-1.415-0.082-2.079c-0.057-0.665-0.083-1.164-0.083-1.5v-2.659
		c0-0.221,0.139-0.441,0.416-0.664c0.276-0.222,0.526-0.336,0.751-0.336l8.981,8.984v0.336c0,0.11-0.057,0.164-0.169,0.164
		c-0.108,0.11-0.33,0.167-0.663,0.167c-0.224,0.11-0.692,0.307-1.414,0.582c-0.724,0.277-1.47,0.582-2.247,0.913
		c-0.777,0.333-1.525,0.641-2.244,0.915c-0.722,0.279-1.248,0.474-1.581,0.582l-0.999,0.336c0-0.221-0.082-0.639-0.249-1.251
		C69.962,266.115,69.88,265.698,69.88,265.478 M72.209,284.438l-1.166-0.997c-0.11-0.772-0.167-1.439-0.167-1.993
		c-0.11-0.557-0.164-1.084-0.164-1.582v-1.415c0-0.221-0.031-0.637-0.084-1.246c-0.058-0.608-0.083-1.275-0.083-2
		c0-0.716-0.031-1.385-0.084-1.993c-0.058-0.609-0.084-1.084-0.084-1.415v-1.495l0.168-0.167c0.106,0,0.191-0.027,0.247-0.084
		c0.057-0.052,0.14-0.084,0.25-0.084c0.333-0.221,0.941-0.522,1.83-0.916c0.888-0.385,1.832-0.771,2.826-1.164
		c1-0.385,1.942-0.746,2.83-1.077c0.888-0.336,1.497-0.557,1.832-0.669c0.442,0,0.72-0.054,0.83-0.169
		c0.111,0,0.22-0.052,0.333-0.162l5.321,5.154l1.832,19.463v3.827c0,0.112-0.057,0.226-0.169,0.334
		c-0.224,0.223-0.439,0.333-0.661,0.333l-0.667,0.498l-0.832-0.498L72.209,284.438z M83.02,238.859l0.333,0.331l2.328,22.126v0.333
		l-0.331,0.333c-0.224,0.223-0.501,0.39-0.834,0.498c-0.665,0.225-1.055,0.333-1.163,0.333c-0.113,0-0.222,0.028-0.333,0.083
		c-0.111,0.058-0.224,0.084-0.333,0.084c-0.11,0.112-0.222,0.169-0.33,0.169h-0.5L71.876,253L83.02,238.859z M84.85,335.509
		c0.555-0.222,1.248-0.555,2.08-1c0.833-0.439,1.69-0.885,2.581-1.329c0.885-0.441,1.829-0.941,2.826-1.497h0.499
		c0,0.331,0.056,0.664,0.167,0.997c0,0.224,0.027,0.5,0.082,0.831c0.055,0.334,0.084,0.612,0.084,0.833v2.995H81.524
		c0.22-0.223,0.772-0.523,1.663-0.917C84.073,336.036,84.626,335.731,84.85,335.509 M84.186,264.645c0.109,0,0.22-0.057,0.331-0.167
		c0.109,0,0.222-0.026,0.333-0.084c0.11-0.055,0.277-0.08,0.501-0.08h0.331l0.333,0.662v2.328l-2.163-2.328L84.186,264.645z
		 M89.01,296.417c0.222,0,0.333,0.139,0.333,0.414c0,0.278-0.112,0.417-0.333,0.417s-0.333-0.139-0.333-0.417
		C88.677,296.556,88.788,296.417,89.01,296.417"/>
	<path fill="#FFFFFF" d="M114.202,242.688l-9.65,5.987v-24.621L114.202,242.688z M104.552,251.668c0-0.555,0.471-1.219,1.415-1.994
		c0.941-0.774,2.022-1.499,3.246-2.163c1.216-0.667,2.411-1.249,3.576-1.749c1.165-0.497,2.021-0.746,2.579-0.746h0.332
		l7.986,14.139v21.293c1.552,0,2.769-0.026,3.658-0.084c0.886-0.055,1.579-0.301,2.081-0.749c0.5-0.441,0.804-1.136,0.912-2.077
		c0.114-0.941,0.222-2.301,0.335-4.077c0.22,0.333,0.606,1.056,1.163,2.162c0.553,1.112,0.941,1.889,1.166,2.328v0.333v0.334
		l-5.987,16.467c-0.225,0.559-0.613,0.833-1.168,0.833h-1.496h-1.829l-17.967-5.987V251.668z M122.519,298.079l0.666,0.835
		c0,0.221,0.082,0.61,0.247,1.162c0.168,0.559,0.253,1,0.253,1.331c0,2.659-0.5,5.35-1.499,8.067
		c-0.999,2.72-2.163,5.187-3.495,7.404c-1.218-0.443-2.634-0.999-4.24-1.666c-1.609-0.662-3.161-1.385-4.657-2.162
		c-1.5-0.774-2.747-1.605-3.744-2.494c-0.999-0.888-1.499-1.772-1.499-2.662v-15.803L122.519,298.079z M104.552,310.888
		c0.222,0,0.471,0.114,0.751,0.333c0.273,0.225,0.524,0.333,0.748,0.333c0.442,0.333,1.248,0.833,2.411,1.497
		c1.167,0.665,2.355,1.413,3.577,2.247c1.218,0.833,2.413,1.581,3.576,2.243c1.167,0.669,1.967,1.165,2.414,1.5
		c-0.224,1.112-0.5,2.105-0.833,2.995c-0.222,0.776-0.528,1.469-0.915,2.075c-0.39,0.614-0.806,0.917-1.248,0.917
		c-0.111,0-0.721-0.054-1.83-0.164c-1.112-0.11-2.304-0.279-3.576-0.502c-1.277-0.219-2.442-0.472-3.495-0.747
		c-1.055-0.274-1.581-0.527-1.581-0.748V310.888z M115.033,327.357c0,0.112-0.139,0.664-0.416,1.663
		c-0.277,0.998-0.641,2.08-1.081,3.246c-0.444,1.164-0.861,2.242-1.248,3.242c-0.391,1.001-0.751,1.495-1.084,1.495h-6.653v-11.976
		L115.033,327.357z M116.862,221.061c2.105,0,4.351-0.056,6.737-0.166c2.385-0.11,4.797-0.11,7.235,0
		c2.44,0.11,4.797,0.389,7.07,0.831c2.273,0.445,4.352,1.222,6.241,2.328l-0.667,0.666c-0.443,0.444-1.72,1.331-3.827,2.662
		s-4.491,2.828-7.151,4.49c-2.664,1.666-5.353,3.273-8.07,4.823c-2.719,1.558-4.854,2.83-6.404,3.828
		c-0.111,0.112-0.391,0.278-0.833,0.5c-0.222,0.11-0.444,0.166-0.664,0.166c-0.224,0-0.391-0.056-0.5-0.166
		c-0.224-0.222-0.333-0.388-0.333-0.5l-10.48-19.463H116.862z M118.028,328.021h1.33c0.553,0,1.108,0.056,1.663,0.169
		c0.555,0.11,1.054,0.276,1.499,0.497c0.441,0.223,0.666,0.502,0.666,0.833v7.483h-9.315c0-0.552,0.083-1.331,0.248-2.328
		c0.165-0.998,0.442-1.996,0.831-2.993c0.388-0.996,0.832-1.856,1.332-2.579C116.78,328.385,117.361,328.021,118.028,328.021
		 M123.185,239.692v14.97l-5.99-11.145L123.185,239.692z M118.028,325.859c0-0.441,0.192-1.221,0.581-2.33
		c0.386-1.104,0.693-1.827,0.917-2.16c0-0.223,0.106-0.443,0.331-0.666c0.109-0.108,0.221-0.165,0.333-0.165
		c0.775,0,1.386,0.221,1.83,0.663c0.444,0.447,0.775,0.999,0.999,1.666c0.22,0.662,0.387,1.33,0.5,1.997
		c0.109,0.664,0.167,1.22,0.167,1.662c-0.999,0-1.916-0.055-2.744-0.167C120.107,326.251,119.134,326.084,118.028,325.859
		 M121.021,317.877c0-0.888,0.222-1.941,0.666-3.162c0.442-1.22,0.941-2.27,1.499-3.161v8.316c-0.224,0-0.582-0.188-1.081-0.582
		c-0.502-0.386-0.861-0.69-1.083-0.914V317.877z M130.335,239.025c0-0.221-0.247-0.607-0.748-1.166
		c-0.5-0.55-0.859-0.938-1.082-1.164l0.667-0.662c0.109-0.108,0.72-0.502,1.832-1.164c1.106-0.669,2.355-1.439,3.741-2.327
		c1.385-0.891,2.828-1.776,4.327-2.665c1.494-0.886,2.688-1.606,3.577-2.164c0.22-0.219,0.72-0.523,1.499-0.911
		c0.773-0.39,1.271-0.584,1.495-0.584h0.499c0.667,0,1.163,0.331,1.499,0.997c0.331,0.667,0.582,1.415,0.749,2.246
		c0.165,0.831,0.249,1.662,0.249,2.497v1.746v2.329l-14.14,38.925c-0.889-0.777-1.609-1.747-2.162-2.911
		c-0.557-1.164-1.224-2.189-1.999-3.079V239.025z M135.162,281.613l6.82,12.807c0,0.112-0.056,0.223-0.167,0.333
		c-0.224,0.223-0.443,0.331-0.665,0.331c-1.663,0.559-3.688,0.89-6.072,1.002c-2.384,0.11-4.354,0.162-5.905,0.162v-1.164
		c0.553-1.771,1.108-3.434,1.663-4.989c0.555-1.329,1.055-2.714,1.499-4.159c0.441-1.439,0.888-2.604,1.332-3.491
		c0-0.223,0.138-0.472,0.416-0.748c0.273-0.277,0.415-0.526,0.415-0.751L135.162,281.613z M149.467,239.692v43.415
		c0,0.56-0.113,1.419-0.335,2.581c-0.222,1.164-0.555,2.328-0.994,3.492c-0.447,1.167-0.999,2.19-1.665,3.077
		c-0.664,0.89-1.443,1.331-2.327,1.331c-0.115,0-0.227-0.054-0.335-0.167c-0.222-0.221-0.332-0.387-0.332-0.499l-7.82-14.973
		L149.467,239.692z"/>
	<path fill="#FFFFFF" d="M161.964,313.218c0.443,0.11,1.024,0.223,1.748,0.333c0.719,0.11,1.468,0.277,2.247,0.498
		c0.885,0.223,1.771,0.443,2.66,0.666v1.496l-4.325,14.806c-0.997-0.775-1.746-1.996-2.245-3.659
		c-0.499-1.664-0.832-3.411-0.999-5.239c-0.167-1.831-0.222-3.579-0.167-5.239c0.053-1.666,0.084-2.884,0.084-3.661H161.964z
		 M170.117,222.057c0.222,0,0.389,0.141,0.499,0.417c0.109,0.279,0.276,0.526,0.498,0.747c0.222,0.335,0.389,0.668,0.5,1
		c0.666,1.664,1.44,3.771,2.331,6.32c0.884,2.554,1.77,4.99,2.66,7.318c1,2.889,2.051,5.771,3.161,8.651v24.452l-5.821,3.663h-1.164
		c-0.668,0-1.638-0.11-2.914-0.335c-1.275-0.221-2.551-0.498-3.823-0.831c-1.278-0.333-2.389-0.719-3.328-1.164
		c-0.944-0.443-1.417-0.885-1.417-1.333v-34.764c0-1.22,0.169-2.635,0.5-4.241c0.332-1.607,0.859-3.163,1.58-4.658
		c0.72-1.498,1.637-2.746,2.745-3.744C167.23,222.559,168.563,222.057,170.117,222.057 M161.299,276.122
		c0.335,0.223,0.971,0.61,1.914,1.164c0.941,0.554,1.522,0.943,1.747,1.164l0.833,0.664c-1.222,1.664-2.72,2.664-4.494,2.995
		V276.122z M176.77,285.769v2.997l-6.653,22.29c-0.224,0.557-0.362,0.941-0.416,1.167c-0.057,0.221-0.25,0.329-0.581,0.329h-0.501
		c-0.555-0.108-1.248-0.249-2.079-0.414c-0.832-0.168-1.636-0.361-2.411-0.584c-0.89-0.221-1.832-0.388-2.831-0.498v-25.949
		c0-0.221,0.359-0.582,1.083-1.084c0.722-0.498,1.497-1.023,2.33-1.578c0.83-0.556,1.634-1.025,2.411-1.415
		c0.775-0.385,1.272-0.525,1.497-0.415L176.77,285.769z M162.298,273.96c1.219,0,2.688,0.167,4.407,0.498
		c1.718,0.333,2.855,1.164,3.412,2.493c-0.333,0.227-0.61,0.393-0.833,0.502c-0.224,0.112-0.555,0.168-0.997,0.168
		c-0.89,0-2.026-0.417-3.412-1.252c-1.387-0.829-2.355-1.633-2.911-2.409H162.298z M170.949,316.211
		c0.22-0.555,0.72-0.831,1.497-0.831h0.667c0.33,0,0.801,0.056,1.414,0.166c0.606,0.11,1.272,0.249,1.993,0.416
		c0.722,0.166,1.386,0.335,1.998,0.5c0.608,0.166,1.024,0.307,1.248,0.417c0.773,0.331,1.248,0.775,1.414,1.331
		c0.169,0.554,0.276,1.054,0.333,1.495c0.053,0.446,0.22,0.833,0.498,1.166c0.277,0.33,1.023,0.498,2.248,0.498
		c0.773,0,1.521-0.108,2.242-0.335c0.72-0.221,0.971-1.104,0.751-2.66l18.463,3.826v0.667c0,1.774-0.279,3.492-0.83,5.154
		c-0.555,1.664-1.332,3.161-2.33,4.492c-0.999,1.331-2.22,2.413-3.66,3.246c-1.443,0.828-3.106,1.244-4.991,1.244h-19.96
		c-0.224,0-0.806-0.08-1.75-0.247c-0.943-0.169-1.911-0.415-2.911-0.751c-0.997-0.333-1.887-0.746-2.66-1.246
		c-0.778-0.5-1.056-1.023-0.832-1.58L170.949,316.211z M170.949,279.114c0.22-0.331,0.553-0.664,0.998-0.995
		c0.444-0.333,0.941-0.498,1.496-0.498c0.333,0,0.804,0.055,1.415,0.165c0.61,0.11,1.218,0.274,1.829,0.497
		c0.61,0.226,1.165,0.5,1.663,0.831c0.502,0.334,0.75,0.725,0.75,1.169v0.331c0,0.223-0.14,0.723-0.416,1.495
		c-0.278,0.779-0.415,1.276-0.415,1.497h-0.335c-1.11,0-2.357-0.523-3.741-1.577C172.806,280.976,171.724,280.004,170.949,279.114
		 M179.099,288.097h0.666v26.618l-8.151-1.497L179.099,288.097z M183.923,236.199c-1.221,0-2.078,0.442-2.575,1.329
		c-0.502,0.89-0.75,1.889-0.75,2.995h-0.833l-6.653-17.797v-0.335c0-0.221,0.026-0.47,0.082-0.751
		c0.055-0.274,0.306-0.413,0.75-0.413h22.123v1.499l-9.151,30.44v-14.806c0-0.776-0.416-1.331-1.246-1.666
		C184.84,236.364,184.258,236.199,183.923,236.199 M176.104,276.122c0.334-0.555,0.832-1.052,1.499-1.496
		c0.666-0.445,1.385-0.666,2.162-0.666v2.991c-0.555,0-1.163-0.081-1.832-0.247C177.27,276.537,176.658,276.345,176.104,276.122
		 M187.251,266.14c0.22,0,0.331,0.141,0.331,0.416c0,0.278-0.111,0.417-0.331,0.417c-0.224,0-0.335-0.139-0.335-0.417
		C186.916,266.28,187.027,266.14,187.251,266.14 M198.395,222.727h0.333c1.108,0,2.104,0.359,2.995,1.076
		c0.886,0.725,1.605,1.64,2.162,2.746c0.553,1.11,1,2.246,1.33,3.41c0.333,1.164,0.5,2.246,0.5,3.244v21.459l-1.498,1.495
		c-1.773,1.11-3.49,2.221-5.153,3.33c-1.445,0.89-2.915,1.776-4.409,2.662c-1.498,0.889-2.746,1.607-3.745,2.164
		c-0.333,0.221-0.64,0.387-0.915,0.495c-0.277,0.112-0.582,0.167-0.914,0.167h-0.333l-1.496-4.323L198.395,222.727z
		 M187.916,268.804l4.489,11.811v0.666h-0.661c-0.447-0.11-0.89-0.223-1.332-0.335c-0.444-0.108-0.943-0.275-1.498-0.496
		c-0.555-0.223-1.11-0.387-1.663-0.502v-10.479L187.916,268.804z M187.251,282.109c3.326,0.89,5.876,2.415,7.65,4.576
		c1.773,2.16,2.664,5.186,2.664,9.065v0.497c-0.333-0.219-0.975-0.605-1.914-1.164c-0.943-0.552-1.914-1.164-2.911-1.828
		c-0.997-0.667-1.971-1.272-2.911-1.831c-0.945-0.552-1.583-0.939-1.914-1.164c-0.112,0-0.277-0.11-0.499-0.331
		c-0.113-0.11-0.167-0.275-0.167-0.502V282.109z M187.251,292.425h0.665c2.436,0,4.74,0.972,6.903,2.91
		c2.162,1.941,4.046,4.216,5.656,6.819c1.605,2.607,2.881,5.297,3.825,8.068c0.941,2.774,1.414,4.99,1.414,6.656v3.326
		l-18.463-3.994V292.425z M196.066,282.775c-0.555-0.331-0.999-0.967-1.33-1.91c-0.333-0.943-0.61-1.525-0.833-1.751
		c-0.33-0.772-0.694-1.716-1.081-2.826c-0.388-1.107-0.777-2.218-1.163-3.325c-0.39-1.11-0.724-2.054-0.999-2.829
		c-0.278-0.776-0.416-1.218-0.416-1.33v-1.5l15.469-9.646v28.111h-0.663c-0.335-0.108-0.943-0.301-1.83-0.582
		c-0.891-0.275-1.776-0.582-2.664-0.913s-1.776-0.639-2.661-0.911C197.008,283.083,196.4,282.889,196.066,282.775 M196.066,284.604
		c0.22,0,0.333,0.141,0.333,0.415c0,0.279-0.113,0.418-0.333,0.418c-0.224,0-0.331-0.139-0.331-0.418
		C195.735,284.745,195.843,284.604,196.066,284.604 M198.395,285.769c0.553,0.112,1.25,0.308,2.081,0.582
		c0.832,0.281,1.636,0.528,2.411,0.749c0.888,0.335,1.83,0.666,2.828,0.997v12.479c-1.33,0-2.524-0.556-3.574-1.664
		c-1.057-1.108-1.973-2.413-2.746-3.91c-0.778-1.497-1.388-2.993-1.83-4.49c-0.446-1.497-0.667-2.579-0.667-3.243v-1.5H198.395z
		 M202.056,301.076c0.222,0,0.331,0.11,0.331,0.331c0,0.223-0.108,0.331-0.331,0.331c-0.225,0-0.333-0.108-0.333-0.331
		C201.723,301.187,201.832,301.076,202.056,301.076 M202.886,302.073c0.335,0,0.888,0.193,1.665,0.582
		c0.775,0.388,1.163,0.695,1.163,0.916v7.484c-0.557-1.332-1.163-2.828-1.83-4.494C203.222,304.899,202.886,303.404,202.886,302.073
		"/>
	<path fill="#FFFFFF" d="M217.5,305.397c0.334-0.108,0.917-0.413,1.747-0.915c0.833-0.496,1.718-1.021,2.663-1.58
		c0.941-0.552,1.829-1.082,2.662-1.577c0.83-0.502,1.414-0.859,1.746-1.084c0.109-0.108,0.39-0.275,0.833-0.496
		c0.218-0.11,0.439-0.169,0.664-0.169l7.486,2.162l0.667,0.833v2.495c0,2.553-0.445,5.074-1.332,7.569
		c-0.89,2.497-2.025,4.936-3.41,7.32c-1.385,2.385-2.911,4.629-4.576,6.736c-1.663,2.105-3.27,3.937-4.823,5.488l-0.667,0.668
		c-1.33-0.668-2.242-1.856-2.742-3.579c-0.5-1.718-0.833-3.576-0.999-5.574c-0.165-1.993-0.196-3.934-0.083-5.818
		c0.108-1.887,0.165-3.326,0.165-4.326V305.397z M217.5,241.688v-4.657c0-2.105,0.193-4.183,0.581-6.238
		c0.389-2.052,1.055-3.852,1.999-5.407c0.941-1.55,2.302-2.329,4.074-2.329c1.443,0,2.439,0.779,2.997,2.329l5.155,21.459v3.326
		c-2.44,0-4.964-0.135-7.567-0.415c-2.606-0.275-5.02-1.024-7.237-2.244V241.688z M217.5,250.503c0.887,0,2.164-0.025,3.827-0.082
		c1.663-0.054,3.352,0,5.074,0.167c1.716,0.164,3.297,0.472,4.74,0.913c1.439,0.447,2.329,1.11,2.661,1.997
		c0.553,1.556,0.969,2.94,1.248,4.159c0.276,1.223,0.5,2.356,0.667,3.41c0.165,1.056,0.249,2.162,0.249,3.326v3.91v5.323
		c-0.89,0.443-1.998,0.972-3.328,1.577c-1.33,0.614-2.69,1.165-4.076,1.666c-1.388,0.498-2.718,0.943-3.991,1.331
		c-1.277,0.39-2.302,0.58-3.077,0.58c-0.335,0-1.081-0.331-2.247-0.995c-1.166-0.667-1.747-1.11-1.747-1.331V250.503z
		 M218.166,280.283H217.5v-0.835h0.666V280.283z M220.33,281.778c2.993,0,5.932,1.11,8.815,3.328
		c2.882,2.218,5.158,4.548,6.821,6.985c-0.333,0.554-0.89,1.109-1.663,1.664c-0.779,0.556-1.583,1.025-2.413,1.413
		c-0.833,0.389-1.665,0.723-2.496,0.997c-0.832,0.279-1.581,0.416-2.244,0.416c-0.333,0-1.028-0.083-2.081-0.249
		c-1.056-0.167-2.138-0.359-3.245-0.582c-1.108-0.221-2.107-0.526-2.993-0.916c-0.888-0.387-1.332-0.803-1.332-1.246v-11.145
		c0-0.335,0.389-0.525,1.165-0.582C219.44,281.809,219.995,281.778,220.33,281.778 M217.834,296.582c1.108,0,2.329,0.166,3.659,0.5
		c1.332,0.335,2.438,0.889,3.325,1.663c-0.33,0.224-0.83,0.557-1.495,1c-0.667,0.441-1.359,0.859-2.081,1.244
		c-0.722,0.392-1.414,0.749-2.079,1.084c-0.663,0.331-1.22,0.498-1.664,0.498v-5.989H217.834z M235.966,276.122v12.975
		l-12.643-8.482L235.966,276.122z M235.966,313.551l1.499,6.821c0.22,0.662,0.581,1.056,1.079,1.164
		c0.5,0.112,1.026,0.166,1.581,0.166c0.555,0,1.163-0.166,1.83-0.501c0.665-0.332,0.999-0.884,0.999-1.662v-15.137
		c1.885,0,2.995,0.829,3.328,2.495l6.819,28.942c-0.111,0.227-0.224,0.392-0.333,0.502c-0.222,0.221-0.391,0.331-0.5,0.331
		c-1.995,0.558-4.02,0.803-6.071,0.748c-2.053-0.056-4.077-0.082-6.072-0.082h-2.995c-1.776,0-3.685-0.054-5.739-0.169
		c-2.051-0.108-3.907-0.301-5.57-0.582c-1.667-0.274-2.497-0.748-2.497-1.411v-1.499L235.966,313.551z M229.312,223.889
		c-0.224-0.221-0.39-0.441-0.499-0.668c-0.222-0.439-0.335-0.717-0.335-0.829v-0.335v-0.496c1.887-0.556,3.827-0.803,5.825-0.749
		c1.996,0.057,3.934,0.081,5.821,0.081c3.77,0,7.041,0.251,9.814,0.748c2.771,0.502,5.046,1.415,6.819,2.744
		c1.774,1.333,3.077,3.246,3.912,5.741c0.828,2.493,1.248,5.74,1.248,9.732v6.321l-1.499-0.833L229.312,223.889z M239.624,236.531
		c-1.218,0-2.076,0.666-2.577,1.997c-0.5,1.33-0.83,2.826-0.997,4.49c-0.169,1.664-0.225,3.243-0.169,4.743
		c0.053,1.495,0.084,2.408,0.084,2.741h-0.667l-5.988-24.119l32.606,22.291v6.318c-0.557,0-1.861-0.08-3.912-0.247
		c-2.05-0.168-4.186-0.389-6.402-0.666c-2.22-0.275-4.218-0.606-5.992-0.997c-1.771-0.388-2.66-0.749-2.66-1.08v-14.144
		c0-0.662-0.417-1.052-1.248-1.164C240.872,236.587,240.179,236.531,239.624,236.531 M231.473,297.248
		c0.441-0.221,1.22-0.582,2.33-1.082c1.106-0.5,1.83-0.856,2.163-1.082v4.492c-1.998,0-3.716-0.499-5.158-1.497L231.473,297.248z
		 M232.971,250.17c0.22,0,0.333,0.112,0.333,0.333c0,0.226-0.113,0.336-0.333,0.336c-0.222,0-0.333-0.11-0.333-0.336
		C232.638,250.282,232.749,250.17,232.971,250.17 M235.966,253.498c0.22,0,0.333,0.143,0.333,0.418c0,0.274-0.113,0.415-0.333,0.415
		c-0.224,0-0.333-0.141-0.333-0.415C235.633,253.641,235.742,253.498,235.966,253.498 M243.452,296.582
		c0.222,0,0.331,0.112,0.331,0.333c0,0.223-0.108,0.333-0.331,0.333c-0.225,0-0.333-0.11-0.333-0.333
		C243.119,296.694,243.227,296.582,243.452,296.582 M261.917,257.157v2.995h-18.466v-5.821L261.917,257.157z M244.117,300.241
		c0.553,0.225,0.831,0.723,0.831,1.497v0.833l-1.497-0.833L244.117,300.241z M244.117,287.269c0.22,0,0.331,0.138,0.331,0.415
		c0,0.279-0.111,0.413-0.331,0.413c-0.224,0-0.335-0.134-0.335-0.413C243.782,287.406,243.894,287.269,244.117,287.269
		 M244.948,290.928c0-0.888,0.441-1.666,1.332-2.329c0.885-0.666,1.771-0.997,2.662-0.997h0.331
		c-0.331,0.889-0.806,1.967-1.412,3.241c-0.613,1.274-1.361,2.192-2.249,2.746c-0.332-0.333-0.526-0.721-0.583-1.164
		C244.975,291.983,244.948,291.481,244.948,290.928 M246.28,298.412c0.22,0,0.332,0.11,0.332,0.333c0,0.224-0.112,0.332-0.332,0.332
		c-0.225,0-0.333-0.108-0.333-0.332C245.947,298.522,246.055,298.412,246.28,298.412 M247.11,296.248
		c0-0.664,0.194-1.495,0.584-2.492c0.388-0.998,0.832-1.939,1.33-2.828c0.499-0.888,1.052-1.666,1.663-2.329
		c0.61-0.666,1.134-0.997,1.58-0.997h9.651v18.629h-0.667c-0.112,0-0.75-0.388-1.913-1.164c-1.167-0.772-2.524-1.69-4.075-2.746
		c-1.556-1.05-3.107-2.104-4.659-3.157c-1.557-1.054-2.72-1.915-3.495-2.581V296.248z M247.11,299.576
		c1.665,0.557,3.328,1.305,4.993,2.244c1.662,0.945,2.935,2.138,3.823,3.577h-0.997c-1.555,0-3.244-0.331-5.075-0.995
		c-1.83-0.667-2.744-1.941-2.744-3.828V299.576z M261.251,309.892l0.667,0.831c0,0.11,0.024,0.39,0.083,0.831
		c0.053,0.443,0.082,0.972,0.082,1.58c0,0.612,0.026,1.194,0.083,1.746c0.055,0.556,0.084,1,0.084,1.329v4.409
		c0,2.054-0.167,4.161-0.5,6.323s-0.973,4.075-1.914,5.738c-0.941,1.664-2.357,2.497-4.24,2.497c-0.557,0-0.832-0.25-0.832-0.748
		c0-0.502-0.111-1.026-0.333-1.58c-0.444-1.774-0.997-4.076-1.663-6.905c-0.664-2.83-1.305-5.571-1.914-8.235
		c-0.61-2.661-1.138-4.96-1.58-6.903c-0.445-1.938-0.667-2.964-0.667-3.076v-1.829L261.251,309.892z M257.424,306.23
		c0,0.223-0.113,0.331-0.331,0.331c-0.226,0-0.335-0.108-0.335-0.331c0-0.221,0.109-0.331,0.335-0.331
		C257.311,305.899,257.424,306.01,257.424,306.23"/>
	<path fill="#FFFFFF" d="M272.029,334.013c0-0.443,0.055-1.138,0.168-2.081c0.106-0.939,0.167-1.521,0.167-1.746l0.497-0.334
		c0.333-0.221,0.75-0.552,1.25-0.997c0.497-0.441,1.023-0.833,1.578-1.164c0.555-0.441,1.108-0.833,1.663-1.164h1l12.474,5.987
		v4.825h-18.797V334.013z M272.861,326.526c0-0.222,0.056-0.608,0.165-1.165c0.113-0.556,0.168-0.943,0.168-1.164h0.333l1.166,0.331
		c0.109,0,0.276,0.11,0.5,0.334l0.167,0.166v0.333l-0.335,0.332c-0.331,0.333-0.608,0.558-0.83,0.666
		c-0.225,0.223-0.444,0.39-0.667,0.498l-0.666,0.333V326.526z M274.357,322.365c-0.33,0-0.555-0.055-0.663-0.165
		c-0.112,0-0.167-0.056-0.167-0.166v-2.993l3.825-36.43l10.814,31.939v0.995l-1.163,1.165c-0.333,0.333-0.946,0.807-1.83,1.413
		c-0.891,0.611-1.777,1.276-2.662,1.997c-0.89,0.725-1.778,1.387-2.663,1.997c-0.889,0.608-1.497,1.08-1.83,1.411h-1.163
		c-0.333-0.108-0.668-0.275-1-0.496c-0.224-0.108-0.473-0.221-0.748-0.333C274.83,322.592,274.58,322.479,274.357,322.365
		 M278.019,273.627c0-0.221,0.056-0.664,0.167-1.331c0.108-0.664,0.167-1.105,0.167-1.333c0.441,0.228,0.912,0.502,1.412,0.833
		c0.5,0.331,0.916,0.725,1.25,1.167l0.333,0.329v0.335l-0.333,0.664c-0.113,0.225-0.333,0.5-0.667,0.833l-0.499,0.331
		c-0.225,0-0.529,0.143-0.916,0.418c-0.391,0.277-0.695,0.415-0.915,0.415V273.627z M281.844,270.963
		c-0.222-0.221-0.722-0.582-1.497-1.077c-0.777-0.502-1.277-0.859-1.497-1.084v-2.662c0-0.331,0.054-0.97,0.167-1.913
		c0.109-0.939,0.165-1.521,0.165-1.746l0.335-0.831c0.332-0.441,0.913-1.303,1.746-2.579c0.832-1.274,1.689-2.66,2.579-4.157
		c0.888-1.499,1.747-2.885,2.577-4.161c0.832-1.272,1.414-2.132,1.748-2.577c0.222-0.221,0.471-0.608,0.75-1.164
		c0.276-0.554,0.523-0.941,0.747-1.164l5.656,5.654v4.161l-12.476,16.134L281.844,270.963z M278.851,280.447
		c0-0.11,0.054-0.276,0.167-0.5c0.109-0.108,0.191-0.221,0.247-0.333c0.055-0.108,0.14-0.221,0.253-0.331
		c0.106-0.11,0.191-0.223,0.247-0.333c0.057-0.11,0.195-0.275,0.417-0.5c0.109-0.221,0.276-0.441,0.5-0.664l0.667-0.835
		c0.22-0.108,0.497-0.219,0.832-0.329c0.665-0.222,1.053-0.334,1.163-0.334c0.333,0,0.553-0.054,0.667-0.166
		c0.108,0,0.22-0.055,0.333-0.167h0.833l8.647,6.321v1.164c0,0.225-0.055,0.974-0.165,2.248c-0.113,1.274-0.198,2.634-0.251,4.074
		c-0.055,1.441-0.14,2.772-0.249,3.993c-0.11,1.218-0.167,1.995-0.167,2.328v0.831h6.323v-10.479l13.973,10.479l-0.5,0.333
		c-2.661,1.995-5.214,3.938-7.651,5.821c-2.106,1.556-4.242,3.161-6.407,4.825c-2.16,1.664-3.962,2.993-5.405,3.992l-0.997,0.665
		l-0.498,0.499c-0.334,0.332-0.612,0.557-0.832,0.665l-0.667,0.333h-0.33l-11.147-32.602V280.447z M279.849,254.993
		c0-0.439,0.057-1.328,0.166-2.659c0.109-1.331,0.25-2.8,0.416-4.408c0.167-1.605,0.333-3.161,0.501-4.656
		c0.165-1.498,0.302-2.634,0.416-3.411c0-0.221,0.082-0.582,0.248-1.081c0.167-0.5,0.249-0.859,0.249-1.082
		c1.108,1.109,2.218,2.218,3.33,3.328c1.106,1.109,2.104,2.22,2.993,3.325l-0.333,0.831c-0.111,0.226-0.473,0.808-1.081,1.749
		c-0.61,0.943-1.304,1.995-2.081,3.161c-0.777,1.164-1.554,2.354-2.329,3.575c-0.777,1.22-1.33,2.163-1.663,2.828l-0.832,0.995
		V254.993z M288.167,329.021c-0.333-0.11-0.888-0.361-1.665-0.748c-0.775-0.388-1.608-0.803-2.493-1.249
		c-0.89-0.441-1.72-0.831-2.496-1.164c-0.779-0.331-1.332-0.608-1.664-0.831v-0.5l0.499-0.331c0.22-0.11,0.722-0.472,1.497-1.084
		c0.774-0.607,1.581-1.244,2.414-1.912c0.832-0.663,1.605-1.275,2.329-1.827c0.719-0.556,1.247-0.943,1.581-1.164l0.666-0.333h0.498
		l2.163,6.651l-0.331,5.657h-0.335c-0.222,0-0.665-0.139-1.328-0.414C288.832,329.495,288.388,329.244,288.167,329.021
		 M282.179,232.372c0-0.442,0.025-1.219,0.083-2.329c0.055-1.109,0.135-2.246,0.25-3.41c0.106-1.164,0.249-2.302,0.413-3.412
		c0.169-1.104,0.307-1.881,0.417-2.328h19.796l-0.832,1.499c-1.554,2.22-2.94,4.326-4.158,6.321
		c-1.224,1.774-2.387,3.606-3.495,5.487c-1.11,1.889-2.053,3.438-2.826,4.659c-0.224,0.223-0.446,0.527-0.666,0.913
		c-0.224,0.394-0.444,0.751-0.667,1.084c-0.333,0.443-0.612,0.89-0.832,1.331h-0.333l-7.151-7.152V232.372z M284.838,272.463
		c0.222-0.444,0.75-1.219,1.581-2.329c0.832-1.107,1.718-2.248,2.662-3.412c0.939-1.164,1.83-2.271,2.662-3.326
		c0.833-1.052,1.357-1.746,1.579-2.079c0.222-0.221,0.473-0.524,0.75-0.913c0.275-0.39,0.526-0.694,0.748-0.916v4.826
		c0,0.331-0.055,1.19-0.167,2.575c-0.108,1.391-0.167,2.248-0.167,2.579c-0.224,0-0.471,0.141-0.748,0.418
		c-0.28,0.274-0.525,0.415-0.749,0.415c-0.332,0.11-0.832,0.307-1.498,0.582c-0.666,0.277-1.413,0.582-2.245,0.913
		s-1.581,0.639-2.244,0.914c-0.667,0.28-1.167,0.474-1.499,0.582h-0.331l-0.335-0.329V272.463z M292.99,279.283
		c-0.224-0.11-0.581-0.333-1.081-0.666c-0.499-0.334-1.026-0.721-1.581-1.164c-0.555-0.442-1.11-0.888-1.662-1.331
		c-0.558-0.441-1-0.775-1.333-0.998l-0.33-0.333c0.439-0.221,1.385-0.61,2.826-1.164c1.438-0.554,2.381-0.941,2.828-1.164
		c0.22,0,0.441-0.055,0.664-0.167c0.113,0,0.278-0.056,0.5-0.169h0.335v4.824c0,0.227-0.059,0.666-0.167,1.332
		c-0.111,0.667-0.168,1.11-0.168,1.331L292.99,279.283z M291.161,317.541c0-0.108-0.031-0.248-0.084-0.415
		c-0.057-0.167-0.083-0.301-0.083-0.415c-0.111-0.108-0.168-0.222-0.168-0.334l0.335-0.331l0.666-0.5v2.664h-0.334L291.161,317.541z
		 M297.149,250.337c0-0.331-0.056-1.052-0.167-2.162c-0.111-1.108-0.165-1.885-0.165-2.328c0-0.221-0.084-0.524-0.251-0.916
		c-0.167-0.387-0.251-0.69-0.251-0.915c0,0.225-0.055,0.528-0.165,0.915c-0.112,0.392-0.167,0.695-0.167,0.916
		c0,0.223-0.058,0.723-0.166,1.497c-0.112,0.777-0.169,1.276-0.169,1.495c-0.442-0.219-1.137-0.803-2.079-1.746
		c-0.943-0.939-1.525-1.579-1.745-1.913c-0.112-0.108-0.224-0.276-0.334-0.497c-0.225-0.222-0.331-0.442-0.331-0.667v-0.333
		l0.331-0.831c0.444-0.774,1.303-2.136,2.58-4.074c1.274-1.939,2.604-3.995,3.994-6.156c1.385-2.162,2.712-4.212,3.991-6.154
		c1.274-1.939,2.134-3.301,2.577-4.075c0-0.335,0.109-0.612,0.333-0.831l0.333-0.333l0.5-0.335h3.326l0.333,0.335
		c0.108,1.554,0.275,2.993,0.498,4.325c0.108,1.221,0.223,2.411,0.335,3.575c0.106,1.164,0.219,2.138,0.331,2.91v3.828
		l-12.309,15.635L297.149,250.337z M300.476,312.218h-4.16l0.833-0.664l17.967-13.642c0.221,0.226,0.441,0.394,0.664,0.5
		c0.223,0.223,0.388,0.361,0.5,0.416c0.108,0.06,0.221,0.141,0.331,0.249l0.5,0.499c0.11,0.115,0.166,0.226,0.166,0.334
		c0,0.223,0.053,0.443,0.167,0.664c0.221,0.445,0.331,0.723,0.331,0.833l2.995,28.113l-14.97,7.483h-1.167
		c-0.222-0.108-0.497-0.247-0.832-0.416c-0.331-0.166-0.61-0.301-0.828-0.413l-1.002-0.335L300.476,312.218z M297.814,265.478
		c0-0.223-0.029-0.637-0.084-1.251c-0.055-0.605-0.083-1.272-0.083-1.995c0-0.721-0.026-1.415-0.084-2.079
		c-0.057-0.665-0.081-1.164-0.081-1.5v-2.659c0-0.221,0.139-0.441,0.414-0.664c0.276-0.222,0.526-0.336,0.751-0.336l8.981,8.984
		v0.336c0,0.11-0.058,0.164-0.167,0.164c-0.11,0.11-0.332,0.167-0.665,0.167c-0.224,0.11-0.692,0.307-1.412,0.582
		c-0.726,0.277-1.472,0.582-2.247,0.913c-0.777,0.333-1.525,0.641-2.246,0.915c-0.722,0.279-1.248,0.474-1.579,0.582l-0.999,0.336
		c0-0.221-0.084-0.639-0.249-1.251C297.896,266.115,297.814,265.698,297.814,265.478 M300.144,284.438l-1.166-0.997
		c-0.108-0.772-0.167-1.439-0.167-1.993c-0.11-0.557-0.164-1.084-0.164-1.582v-1.415c0-0.221-0.029-0.637-0.084-1.246
		c-0.058-0.608-0.083-1.275-0.083-2c0-0.716-0.031-1.385-0.084-1.993c-0.056-0.609-0.083-1.084-0.083-1.415v-1.495l0.167-0.167
		c0.106,0,0.191-0.027,0.246-0.084c0.058-0.052,0.143-0.084,0.251-0.084c0.335-0.221,0.941-0.522,1.83-0.916
		c0.888-0.385,1.832-0.771,2.828-1.164c0.999-0.385,1.94-0.746,2.828-1.077c0.888-0.336,1.497-0.557,1.832-0.669
		c0.441,0,0.719-0.054,0.831-0.169c0.11,0,0.219-0.052,0.333-0.162l5.321,5.154l1.831,19.463v3.827c0,0.112-0.057,0.226-0.167,0.334
		c-0.225,0.223-0.441,0.333-0.664,0.333l-0.664,0.498l-0.833-0.498L300.144,284.438z M310.955,238.859l0.333,0.331l2.328,22.126
		v0.333l-0.331,0.333c-0.223,0.223-0.5,0.39-0.835,0.498c-0.662,0.225-1.054,0.333-1.162,0.333c-0.112,0-0.223,0.028-0.333,0.083
		c-0.11,0.058-0.223,0.084-0.332,0.084c-0.112,0.112-0.225,0.169-0.331,0.169h-0.501L299.812,253L310.955,238.859z M312.785,335.509
		c0.555-0.222,1.247-0.555,2.08-1c0.833-0.439,1.689-0.885,2.579-1.329c0.887-0.441,1.828-0.941,2.826-1.497h0.5
		c0,0.331,0.056,0.664,0.166,0.997c0,0.224,0.026,0.5,0.081,0.831c0.056,0.334,0.084,0.612,0.084,0.833v2.995h-11.643
		c0.221-0.223,0.773-0.523,1.662-0.917C312.009,336.036,312.561,335.731,312.785,335.509 M312.121,264.645
		c0.108,0,0.219-0.057,0.329-0.167c0.11,0,0.223-0.026,0.335-0.084c0.11-0.055,0.277-0.08,0.5-0.08h0.331l0.335,0.662v2.328
		l-2.163-2.328L312.121,264.645z M316.946,296.417c0.221,0,0.331,0.139,0.331,0.414c0,0.278-0.11,0.417-0.331,0.417
		c-0.225,0-0.335-0.139-0.335-0.417C316.611,296.556,316.722,296.417,316.946,296.417"/>
	<path fill="#FFFFFF" d="M334.707,220.562c0.331,0,0.969,0.029,1.912,0.084c0.941,0.056,1.939,0.112,2.995,0.166
		c1.054,0.057,2.05,0.111,2.993,0.167c0.941,0.055,1.579,0.141,1.915,0.249c0.441,0.112,1.052,0.279,1.828,0.498
		c0.774,0.223,1.523,0.472,2.246,0.748c0.719,0.279,1.331,0.5,1.829,0.667c0.499,0.166,0.748,0.307,0.748,0.415v0.665l-6.651,51.734
		c-0.226,1.11-0.418,1.746-0.583,1.913c-0.168,0.167-0.642,0.251-1.415,0.251c-0.556,0-1.276-0.059-2.161-0.169
		c-0.89-0.11-1.749-0.249-2.58-0.413c-0.83-0.169-1.553-0.333-2.163-0.5c-0.608-0.167-0.913-0.305-0.913-0.415V220.562z
		 M334.707,278.95c0.331,0,0.83,0.058,1.495,0.164c0.666,0.11,1.415,0.251,2.248,0.418c0.829,0.164,1.579,0.333,2.244,0.498
		c0.666,0.166,1.164,0.307,1.499,0.417c0.553,0.223,0.939,0.361,1.164,0.418c0.224,0.054,0.332,0.305,0.332,0.746v0.331
		l-7.152,55.396h-1.83V278.95z M346.018,281.114c0.221,0.112,0.639,0.246,1.248,0.413c0.608,0.167,1.275,0.307,1.995,0.415
		c0.721,0.115,1.386,0.226,1.998,0.334c0.605,0.112,1.079,0.225,1.413,0.335c0.221,0,0.417,0.057,0.586,0.164
		c0.162,0.113,0.354,0.226,0.58,0.332l0.662,0.333v38.594h10.981l-11.312,15.305h-15.637L346.018,281.114z M354.169,225.054v55.394
		h-1.662c-0.778,0-1.609-0.054-2.497-0.164c-0.887-0.11-1.662-0.279-2.328-0.502c-0.665-0.221-0.998-0.498-0.998-0.831v-4.492
		c0.441-3.437,0.831-6.485,1.164-9.149c0.334-2.661,0.719-5.681,1.162-9.064c0.444-3.383,0.888-6.791,1.333-10.229
		c0.442-3.438,0.859-6.738,1.247-9.901c0.387-3.159,0.748-5.847,1.082-8.067c0-0.441,0.138-1.134,0.417-2.079
		c0.275-0.939,0.416-1.521,0.416-1.746L354.169,225.054z M351.174,220.893c0.221,0,0.333,0.141,0.333,0.415
		c0,0.279-0.112,0.418-0.333,0.418c-0.223,0-0.333-0.139-0.333-0.418C350.841,221.033,350.951,220.893,351.174,220.893
		 M354.169,222.057h-0.664l0.664-0.829V222.057z M366.146,337.339h-8.982v-0.831c0.995-1.331,1.995-2.605,2.992-3.828
		c0.888-0.997,1.721-2.051,2.495-3.159c0.775-1.107,1.441-1.997,1.997-2.663l1.498-1.496V337.339z"/>
	<path fill="#FFFFFF" d="M387.999,221.228c0.221,2.661,0.5,5.267,0.831,7.818c0.223,2.22,0.441,4.438,0.668,6.651
		c0.22,2.223,0.44,4.107,0.663,5.657v0.833v0.664l-18.628-8.982c-0.668-0.219-1.196-0.857-1.581-1.911
		c-0.392-1.054-0.667-2.248-0.833-3.579c-0.167-1.33-0.249-2.661-0.249-3.992v-3.159H387.999z M373.027,236.862l17.134,8.317
		c0.443,0.226,0.692,1.11,0.748,2.662c0.055,1.556,0.085,2.553,0.085,2.997v2.497c-0.557,0.108-1.472,0.329-2.744,0.66
		c-1.276,0.335-2.638,0.666-4.077,0.997c-1.44,0.336-2.802,0.643-4.074,0.918c-1.276,0.278-2.138,0.474-2.579,0.582h-0.831h-0.665
		l-4.16-19.631H373.027z M376.688,258.652c0.554-0.108,1.497-0.301,2.828-0.582c1.331-0.274,2.744-0.582,4.241-0.913
		s2.937-0.636,4.325-0.911c1.386-0.277,2.354-0.474,2.911-0.584h1.497c0,0.997-0.662,2.328-1.995,3.99
		c-1.333,1.664-2.804,3.244-4.41,4.741c-1.607,1.497-3.133,2.746-4.572,3.743c-1.445,1-2.274,1.331-2.495,1l-0.833-0.669
		c-0.333-0.439-0.666-1.659-0.997-3.657c-0.336-1.997-0.5-3.661-0.5-4.989V258.652z M379.019,272.127
		c1.662-2.102,3.659-4.265,5.987-6.485c2.329-2.218,4.933-3.547,7.818-3.992v2.328c0.334-1.438,0.719-2.633,1.162-3.574
		c0.444-0.941,1.055-1.751,1.831-2.413c0.776-0.666,1.69-1.358,2.746-2.079c1.052-0.721,2.246-1.58,3.577-2.575
		c0.223-0.224,0.718-0.39,1.495-0.504c0.776-0.106,1.274-0.167,1.497-0.167c0.775,0.227,1.719,0.584,2.828,1.084
		c1.108,0.498,1.664,0.859,1.664,1.08v1.664c-0.556,2.663-1.223,5.879-1.995,9.646c-0.778,3.773-1.525,7.767-2.246,11.979
		c-0.725,4.217-1.331,8.429-1.83,12.642c-0.5,4.213-0.695,7.984-0.583,11.312l-20.293,10.479c0.108-3.104,0.137-6.375,0.082-9.815
		c-0.058-3.435-0.194-6.901-0.417-10.396c-0.223-3.495-0.608-6.96-1.164-10.398C380.624,278.509,379.904,275.236,379.019,272.127
		 M382.678,314.88l20.293-10.478v32.937H391.66l-8.982-9.815V314.88z M383.507,331.352c0.11,0.223,0.418,0.608,0.917,1.162
		c0.498,0.556,1.05,1.164,1.662,1.83c0.608,0.667,1.139,1.275,1.582,1.831c0.439,0.554,0.774,0.941,0.998,1.164h-5.988v-6.82
		L383.507,331.352z M397.648,254.164c-0.557,0.555-1.11,1.11-1.664,1.664c-0.557,0.557-1.221,0.998-1.998,1.329
		c-0.443-1.219-0.138-2.077,0.918-2.579C395.956,254.08,396.871,253.943,397.648,254.164 M395.817,248.175
		c0.888,0,1.913,0.279,3.077,0.831c1.164,0.56,2.023,1.276,2.579,2.164c-0.889,0.331-1.776,0.612-2.661,0.833
		c-0.777,0.221-1.58,0.39-2.413,0.495c-0.831,0.113-1.525,0.167-2.077,0.167c0-0.772,0.054-1.495,0.164-2.162
		c0.11-0.554,0.253-1.079,0.418-1.579C395.068,248.424,395.374,248.175,395.817,248.175 M395.486,242.852
		c0.221-1.552,0.441-3.547,0.664-5.989c0.223-2.438,0.443-4.824,0.667-7.152c0.331-2.77,0.605-5.6,0.831-8.482h18.464
		c0,3.771-0.14,6.959-0.415,9.564c-0.279,2.605-0.833,4.936-1.666,6.987c-0.829,2.054-1.993,3.937-3.49,5.654
		c-1.496,1.721-3.523,3.522-6.072,5.405h-0.833c-0.665,0-1.441-0.108-2.328-0.331c-0.89-0.219-1.776-0.525-2.66-0.913
		c-0.889-0.39-1.638-0.887-2.248-1.499c-0.608-0.608-0.913-1.301-0.913-2.08V242.852z M405.966,250.006
		c0.221,0,0.331,0.14,0.331,0.417c0,0.275-0.11,0.416-0.331,0.416c-0.223,0-0.333-0.141-0.333-0.416
		C405.633,250.146,405.743,250.006,405.966,250.006 M411.123,247.344c0,0.777-0.308,1.359-0.916,1.748
		c-0.609,0.39-1.305,0.582-2.079,0.582h-0.667c0.336-0.556,0.834-1.136,1.5-1.748c0.664-0.608,1.385-1.023,2.162-1.248V247.344z
		 M410.456,251.836c-0.223,0.223-0.47,0.333-0.746,0.333c-0.279,0-0.528-0.11-0.749-0.333c-0.223-0.223,0.024-0.335,0.749-0.335
		C410.43,251.501,410.677,251.613,410.456,251.836"/>
	<path fill="#FFFFFF" d="M436.679,242.688l-9.65,5.987v-24.621L436.679,242.688z M427.028,251.668c0-0.555,0.474-1.219,1.415-1.994
		c0.941-0.774,2.023-1.499,3.246-2.163c1.218-0.667,2.412-1.249,3.576-1.749c1.164-0.497,2.021-0.746,2.577-0.746h0.332
		l7.986,14.139v21.293c1.552,0,2.771-0.026,3.659-0.084c0.886-0.055,1.58-0.301,2.08-0.749c0.499-0.441,0.803-1.136,0.913-2.077
		s0.223-2.301,0.333-4.077c0.223,0.333,0.608,1.056,1.166,2.162c0.552,1.112,0.939,1.889,1.164,2.328v0.333v0.334l-5.989,16.467
		c-0.223,0.559-0.61,0.833-1.166,0.833h-1.495h-1.829l-17.969-5.987V251.668z M444.997,298.079l0.664,0.835
		c0,0.221,0.085,0.61,0.249,1.162c0.167,0.559,0.251,1,0.251,1.331c0,2.659-0.5,5.35-1.499,8.067
		c-0.998,2.72-2.162,5.187-3.493,7.404c-1.22-0.443-2.636-0.999-4.241-1.666c-1.607-0.662-3.161-1.385-4.656-2.162
		c-1.498-0.774-2.746-1.605-3.744-2.494c-0.999-0.888-1.499-1.772-1.499-2.662v-15.803L444.997,298.079z M427.028,310.888
		c0.223,0,0.474,0.114,0.751,0.333c0.272,0.225,0.525,0.333,0.748,0.333c0.441,0.333,1.249,0.833,2.413,1.497
		c1.164,0.665,2.354,1.413,3.575,2.247c1.218,0.833,2.412,1.581,3.576,2.243c1.164,0.669,1.968,1.165,2.411,1.5
		c-0.223,1.112-0.498,2.105-0.829,2.995c-0.223,0.776-0.528,1.469-0.917,2.075c-0.39,0.614-0.806,0.917-1.247,0.917
		c-0.11,0-0.723-0.054-1.83-0.164c-1.11-0.11-2.303-0.279-3.575-0.502c-1.278-0.219-2.442-0.472-3.492-0.747
		c-1.057-0.274-1.584-0.527-1.584-0.748V310.888z M437.51,327.357c0,0.112-0.141,0.664-0.415,1.663
		c-0.277,0.998-0.641,2.08-1.08,3.246c-0.445,1.164-0.863,2.242-1.249,3.242c-0.389,1.001-0.748,1.495-1.081,1.495h-6.656v-11.976
		L437.51,327.357z M439.339,221.061c2.105,0,4.354-0.056,6.738-0.166s4.797-0.11,7.236,0c2.438,0.11,4.797,0.389,7.071,0.831
		c2.272,0.445,4.35,1.222,6.238,2.328l-0.666,0.666c-0.446,0.444-1.723,1.331-3.826,2.662c-2.107,1.331-4.492,2.828-7.153,4.49
		c-2.662,1.666-5.352,3.273-8.067,4.823c-2.72,1.558-4.854,2.83-6.407,3.828c-0.11,0.112-0.39,0.278-0.829,0.5
		c-0.223,0.11-0.445,0.166-0.666,0.166c-0.224,0-0.39-0.056-0.498-0.166c-0.227-0.222-0.335-0.388-0.335-0.5l-10.48-19.463H439.339z
		 M440.503,328.021h1.333c0.552,0,1.107,0.056,1.662,0.169c0.556,0.11,1.054,0.276,1.499,0.497c0.439,0.223,0.664,0.502,0.664,0.833
		v7.483h-9.315c0-0.552,0.084-1.331,0.251-2.328c0.165-0.998,0.439-1.996,0.829-2.993c0.39-0.996,0.833-1.856,1.331-2.579
		C439.256,328.385,439.839,328.021,440.503,328.021 M445.661,239.692v14.97l-5.987-11.145L445.661,239.692z M440.503,325.859
		c0-0.441,0.194-1.221,0.584-2.33c0.388-1.104,0.692-1.827,0.915-2.16c0-0.223,0.108-0.443,0.331-0.666
		c0.108-0.108,0.222-0.165,0.336-0.165c0.772,0,1.385,0.221,1.826,0.663c0.443,0.447,0.774,0.999,1,1.666
		c0.221,0.662,0.387,1.33,0.497,1.997c0.111,0.664,0.169,1.22,0.169,1.662c-0.997,0-1.915-0.055-2.744-0.167
		C442.584,326.251,441.611,326.084,440.503,325.859 M443.498,317.877c0-0.888,0.221-1.941,0.666-3.162
		c0.441-1.22,0.941-2.27,1.497-3.161v8.316c-0.225,0-0.582-0.188-1.082-0.582c-0.499-0.386-0.86-0.69-1.081-0.914V317.877z
		 M452.813,239.025c0-0.221-0.247-0.607-0.749-1.166c-0.498-0.55-0.859-0.938-1.08-1.164l0.665-0.662
		c0.108-0.108,0.721-0.502,1.83-1.164c1.108-0.669,2.354-1.439,3.744-2.327c1.385-0.891,2.826-1.776,4.325-2.665
		c1.495-0.886,2.686-1.606,3.575-2.164c0.221-0.219,0.721-0.523,1.499-0.911c0.773-0.39,1.271-0.584,1.495-0.584h0.498
		c0.667,0,1.164,0.331,1.5,0.997c0.329,0.667,0.582,1.415,0.748,2.246c0.165,0.831,0.247,1.662,0.247,2.497v1.746v2.329
		l-14.139,38.925c-0.89-0.777-1.608-1.747-2.162-2.911c-0.556-1.164-1.223-2.189-1.997-3.079V239.025z M457.639,281.613l6.82,12.807
		c0,0.112-0.056,0.223-0.168,0.333c-0.223,0.223-0.443,0.331-0.665,0.331c-1.664,0.559-3.687,0.89-6.071,1.002
		c-2.385,0.11-4.352,0.162-5.905,0.162v-1.164c0.554-1.771,1.107-3.434,1.664-4.989c0.554-1.329,1.054-2.714,1.497-4.159
		c0.441-1.439,0.887-2.604,1.331-3.491c0-0.223,0.138-0.472,0.415-0.748c0.273-0.277,0.416-0.526,0.416-0.751L457.639,281.613z
		 M471.944,239.692v43.415c0,0.56-0.112,1.419-0.333,2.581c-0.225,1.164-0.557,2.328-0.998,3.492
		c-0.443,1.167-0.997,2.19-1.662,3.077c-0.666,0.89-1.445,1.331-2.328,1.331c-0.116,0-0.227-0.054-0.335-0.167
		c-0.223-0.221-0.331-0.387-0.331-0.499l-7.82-14.973L471.944,239.692z"/>
	<path fill="#FFFFFF" d="M497.935,230.541c0.221,0.333,0.636,0.915,1.248,1.748c0.606,0.833,1.217,1.723,1.829,2.66
		c0.605,0.943,1.164,1.832,1.662,2.663c0.499,0.829,0.858,1.413,1.084,1.747v0.333v0.498c0,0.333-0.113,0.943-0.334,1.83
		c-0.112,0.443-0.223,0.831-0.335,1.164l-17.134,3.659h-2.16c-0.778-3.326-0.029-6.514,2.244-9.566
		c2.272-3.045,5.739-5.791,10.397-8.231L497.935,230.541z M483.795,249.339l19.294-3.992c0,5.217,0.028,9.097,0.084,11.646
		c0.055,2.549,0.222,4.352,0.496,5.405c0.279,1.054,0.753,1.64,1.417,1.746c0.667,0.112,1.608,0.333,2.828,0.664
		c1.221,0.334,2.828,1.082,4.826,2.246c1.995,1.165,4.434,3.303,7.318,6.405c-0.334,0.446-0.695,0.694-1.082,0.749
		c-0.39,0.059-0.745,0.082-1.082,0.082h-0.664l-33.436-16.301V249.339z M483.795,295.084c0.773-1.328,1.995-2.41,3.659-3.241
		c1.662-0.831,3.493-1.472,5.488-1.913c1.997-0.441,3.937-0.749,5.823-0.915c1.885-0.169,3.434-0.249,4.658-0.249v28.444
		c0,1.554,0.221,2.69,0.665,3.408c0.441,0.723,1.33,1.084,2.661,1.084c0.221,0,0.639,0.026,1.247,0.081
		c0.609,0.06,0.917-0.191,0.917-0.749v-31.938c0-0.221-0.279-0.552-0.833-1c-0.558-0.441-1.164-0.937-1.831-1.495
		c-0.774-0.552-1.607-1.221-2.492-1.997l0.83-0.662l13.644-7.156l9.312,4.825l0.334,0.665c0.221,0.445,0.331,0.723,0.331,0.831
		c0.223,0.447,0.417,0.999,0.582,1.664c0.168,0.666,0.251,1.109,0.251,1.332v36.428c0,3.44-0.61,6.128-1.829,8.069
		c-1.225,1.941-2.886,3.412-4.992,4.41c-2.107,0.995-4.492,1.638-7.151,1.913c-2.66,0.276-5.436,0.415-8.318,0.415
		c-5.881,0-10.369-0.666-13.475-1.995c-3.105-1.331-5.352-3.356-6.738-6.074c-1.387-2.716-2.189-6.126-2.411-10.229
		c-0.225-4.103-0.331-8.872-0.331-14.306V295.084z M488.283,289.763c-0.554,0.444-1.244,0.943-2.077,1.498
		c-0.833,0.556-1.638,0.831-2.411,0.831v-2.329H488.283z M485.291,260.985l30.443,14.802l-14.141,7.32
		c-2.885-0.108-5.436-1.245-7.654-3.411c-2.22-2.159-4.103-4.544-5.656-7.151c-1.552-2.605-2.688-5.072-3.408-7.402
		c-0.723-2.329-0.974-3.714-0.749-4.157H485.291z M491.946,222.392c0.108,0,0.334,0.192,0.663,0.582
		c0.333,0.392,0.666,0.829,0.999,1.331c0.331,0.498,0.637,0.945,0.913,1.331c0.277,0.389,0.418,0.638,0.418,0.748v0.334
		l-1.164,1.164c-0.556,0.556-0.945,0.941-1.166,1.164c-0.555,0.556-1.249,1.164-2.078,1.828c-0.833,0.667-1.638,1.277-2.412,1.831
		c-0.888,0.664-1.829,1.387-2.828,2.164h-0.831c0-0.777,0.138-1.887,0.415-3.328c0.275-1.439,0.721-2.828,1.331-4.159
		c0.608-1.331,1.385-2.495,2.328-3.493C489.476,222.89,490.614,222.392,491.946,222.392 M494.939,221.561
		c1.219-0.333,2.216-0.527,2.995-0.582c0.774-0.056,1.716-0.086,2.826-0.086h1.499c-1.445,1.776-3.161,3.218-5.158,4.327
		c-1.441-0.774-2.162-1.885-2.162-3.328V221.561z M498.601,226.718l7.483-5.825h2.83c2.993,0,5.736,0.227,8.231,0.668
		s4.601,1.244,6.323,2.411c1.716,1.164,3.077,2.802,4.074,4.907c1,2.109,1.498,4.771,1.498,7.983c0,0.227-0.028,0.447-0.083,0.666
		c-0.058,0.225-0.307,0.331-0.75,0.331l-17.799,3.828h-0.666c-0.11-2.104-0.747-3.547-1.911-4.323c-1.164-0.777-2.44-1.439-3.826-2
		c-1.389-0.55-2.635-1.353-3.743-2.41c-1.11-1.052-1.662-2.967-1.662-5.739V226.718z M509.412,243.852l19.629-4.159v20.46h-9.316
		L509.412,243.852z M509.743,248.342c0.335,0.333,0.803,0.997,1.415,1.995c0.608,0.997,1.25,2.053,1.913,3.161
		c0.666,1.11,1.305,2.164,1.915,3.161c0.605,0.998,1.079,1.662,1.413,1.993c0,0.228,0.138,0.474,0.415,0.749
		c0.275,0.281,0.416,0.53,0.416,0.751h-7.487V248.342z M520.89,275.787c0.221-0.551,0.607-0.829,1.164-0.829h0.333
		c0.223,0.223,0.582,0.607,1.082,1.164c0.498,0.554,0.857,0.943,1.08,1.164h-0.332h-0.333c-0.225-0.221-0.723-0.47-1.497-0.749
		C521.609,276.261,521.11,276.014,520.89,275.787 M525.382,277.619c0.221,0,0.331,0.11,0.331,0.331c0,0.228-0.11,0.333-0.331,0.333
		c-0.224,0-0.334-0.105-0.334-0.333C525.048,277.729,525.158,277.619,525.382,277.619"/>
	<path fill="#FFFFFF" d="M540.506,331.35c0.441,0.556,0.441,1.056,0,1.499c-0.225,0.221-0.333-0.028-0.333-0.751
		C540.173,331.378,540.281,331.129,540.506,331.35 M567.453,221.395c0,0.554-0.11,1.22-0.331,1.995
		c-0.225,0.776-0.612,1.33-1.164,1.664l-25.452,14.639v-18.298H567.453z M559.138,237.03c0,0.334,0.023,0.941,0.084,1.829
		c0.052,0.889,0.108,1.83,0.165,2.828c0.056,1,0.11,1.943,0.166,2.828c0.055,0.89,0.082,1.499,0.082,1.831
		c0,2.107-0.027,4.021-0.082,5.736c-0.056,1.722-0.194,3.384-0.415,4.992c-0.223,1.609-0.559,3.271-1,4.99
		c-0.441,1.72-1.107,3.633-1.995,5.74h-2.164h-3.574c-1.498,0-2.967-0.084-4.41-0.251c-1.441-0.164-2.718-0.415-3.824-0.746
		c-1.109-0.336-1.664-0.777-1.664-1.331v-21.626L559.138,237.03z M540.506,268.468c0.665,0,1.829,0.059,3.495,0.167
		c1.662,0.112,3.324,0.281,4.987,0.502c1.666,0.221,3.162,0.472,4.493,0.749c1.33,0.274,1.997,0.582,1.997,0.913v0.666
		l-5.988,24.783c0,0.334-0.143,0.528-0.417,0.583c-0.279,0.056-0.53,0.084-0.749,0.084h-0.333l-7.485-5.157V268.468z
		 M540.84,294.753c0.331,0,0.913,0.195,1.746,0.582c0.833,0.388,1.636,0.913,2.412,1.58c0.773,0.666,1.468,1.358,2.08,2.079
		c0.605,0.723,0.913,1.413,0.913,2.082v1.164l-5.987,24.617c0,0.445-0.167,0.86-0.5,1.248c-0.333,0.39-0.664,0.582-0.998,0.582
		v-33.935H540.84z M544.165,332.181l17.301,5.158h-19.462c0-0.776,0.082-1.83,0.248-3.161c0.167-1.329,0.693-1.997,1.582-1.997
		H544.165z M542.67,240.354c0.221,0,0.331,0.143,0.331,0.418c0,0.276-0.11,0.415-0.331,0.415c-0.225,0-0.335-0.139-0.335-0.415
		C542.335,240.497,542.445,240.354,542.67,240.354 M550.155,301.407h0.499c0.665,0,1.386,0.251,2.16,0.747
		c0.775,0.501,1.582,1.084,2.413,1.746c0.833,0.668,1.636,1.331,2.41,1.999c0.777,0.662,1.441,1.164,1.997,1.495v14.64h11.478
		v15.305h-2.992l-24.621-7.818L550.155,301.407z M565.958,227.713c0,0.558-0.196,1.527-0.582,2.912
		c-0.392,1.388-0.974,2.303-1.748,2.744l-18.63,6.652h-0.833c0.221-0.219,0.608-0.47,1.164-0.745
		c0.555-0.276,0.939-0.527,1.167-0.748c0.772-0.442,2.077-1.219,3.908-2.329c1.828-1.109,3.77-2.248,5.822-3.412
		c2.052-1.164,3.991-2.274,5.821-3.326c1.831-1.052,3.132-1.748,3.91-2.079V227.713z M557.638,270.799l13.475,2.164v7.815h-11.478
		v23.624c-0.556-0.108-1.33-0.39-2.328-0.835c-0.999-0.438-1.997-0.966-2.992-1.578c-1-0.608-1.831-1.248-2.495-1.913
		c-0.667-0.666-0.943-1.221-0.833-1.664L557.638,270.799z M558.471,267.806c0-0.443,0.108-1.138,0.332-2.081
		c0.223-0.939,0.335-1.521,0.335-1.747l0.831,1.831h11.144v4.99c-0.554,0-1.525-0.024-2.91-0.083
		c-1.387-0.054-2.802-0.194-4.241-0.415c-1.441-0.221-2.718-0.502-3.826-0.833c-1.109-0.331-1.664-0.774-1.664-1.331V267.806z
		 M563.628,235.2c0.221,0,0.333,0.112,0.333,0.331c0,0.227-0.112,0.335-0.333,0.335c-0.223,0-0.331-0.108-0.331-0.335
		C563.297,235.312,563.405,235.2,563.628,235.2 M571.112,235.531h-4.823c0-0.772,0.667-1.331,1.997-1.662
		c1.331-0.331,2.272-0.5,2.826-0.5V235.531z M571.112,230.377c0,0.556-0.527,0.941-1.577,1.164
		c-1.058,0.223-1.748,0.331-2.082,0.331c0-1.552,0.221-3.049,0.667-4.49c0.441-1.439,1.438-2.438,2.992-2.997V230.377z
		 M571.612,221.395c0,0.331-0.223,0.662-0.664,0.997c-0.443,0.333-0.888,0.498-1.331,0.498v-1.495H571.612z"/>
</g>
</svg>
