<svg id="Layer_1" data-name="Layer 1" xmlns="http://www.w3.org/2000/svg" viewBox="0 0 500 500"><defs><style>.cls-1{fill:#231f20;}</style></defs><title>addStore</title><path class="cls-1" d="M280.67,269.91l0-.08-.09.08Z"/><path class="cls-1" d="M280.72,302.77l.17-.12h0Z"/><path class="cls-1" d="M149.27,211.64c-.36,0-.58.19-.56.64,0,.13.2.32.35.37a3.72,3.72,0,0,0,1.7-.13,1.32,1.32,0,0,1-.62-.4A1.26,1.26,0,0,0,149.27,211.64Z"/><path class="cls-1" d="M117.55,222h0Z"/><path class="cls-1" d="M117.81,222.33s0-.07,0-.11a.83.83,0,0,1-.29-.26Z"/><path class="cls-1" d="M281.92,303.67l-.07-.07h0Z"/><path class="cls-1" d="M294.81,294.7h144.9V241.29c0,.27.39.25.07,0-1.38-1-1-2.56.28-3.41.14-.1-.41-.11-.24-.16s-.11.15-.11.26V205.6H328.21c.34,0,.13,1.47-.71,2.25-.29.26-.65,0-1-.1a1.59,1.59,0,0,1-.47-.35,2,2,0,0,1-.67-1.94c0-.14.09.14.12.14H297.4s-.05,3.4-.16,5.4a6.69,6.69,0,0,1-.26,1.83,2.65,2.65,0,0,0-.07,1.93,9.22,9.22,0,0,1,.55,3.63c0,1.07-.09,2.11-.13,3.19a5.18,5.18,0,0,0,.51,2.59,5.44,5.44,0,0,1,.31,3.15,4.75,4.75,0,0,1-.33,1,1.07,1.07,0,0,1-.78.67,1.3,1.3,0,0,1-1.4-.46,3.35,3.35,0,0,1-.53-2.38c.12-.53.3-1.4.53-2.27a1.47,1.47,0,0,0-.1-1,10,10,0,0,1-.69-2.59,6.18,6.18,0,0,1,0-2.66,10.5,10.5,0,0,0,.26-4.27c-.21-1.6.09-3.22-.33-4.82a7.3,7.3,0,0,1-.1-2.67c.34-2.87,0-5.74,0-8.61a17.07,17.07,0,0,0-.29-2.67,35.5,35.5,0,0,1-.28-9.09,16.12,16.12,0,0,0-.23-5.34,7.19,7.19,0,0,1-.21-2.67,3.88,3.88,0,0,0-.31-2.1c-.78-1.71-.56-3.51-.6-5.29.69-1.9.24-3.89.49-5.83.24-1.78.24-3.58.3-5.37a14,14,0,0,0-.08-2.69,13.61,13.61,0,0,1,0-4.8,39.6,39.6,0,0,0,.39-4.82,2.92,2.92,0,0,0-.09-1.06,7.31,7.31,0,0,1-.05-4.75,1.72,1.72,0,0,0,0-1.05,7.86,7.86,0,0,1-.17-4.23,25.31,25.31,0,0,0,.32-5.34,17.7,17.7,0,0,1,.13-3.23,3.86,3.86,0,0,0-.72-3,5.62,5.62,0,0,1-.65-1.46,1.92,1.92,0,0,1,1.1-2.18,1.07,1.07,0,0,1,1.42.31A11.88,11.88,0,0,1,296,122a3.06,3.06,0,0,1,0,2.61,3.73,3.73,0,0,0-.53,2.56,4.61,4.61,0,0,1,.07,1.6,15.13,15.13,0,0,0,.41,6.91,2.85,2.85,0,0,1-.2,2.09,5.5,5.5,0,0,0-.47,3.15,22.4,22.4,0,0,1,.41,3.72,21.19,21.19,0,0,0-.28,3.16c.08.87-.51,1.75-.51,2.63V59.8H278.6s0-.32,0-.3a6.27,6.27,0,0,0,.16,5,4.94,4.94,0,0,1,.38.91,1.48,1.48,0,0,1-.28,1.45c-.47.54-1,1-1.51,1.49-.23.21-1.34-.14-1.46-.42a12.53,12.53,0,0,1-1-3.62,1.59,1.59,0,0,0-1.33-1.47c-.13,0-.26-.25-.31-.41s.16-.47.6-.57l.52-.12c.39-.1.65,0,.75-.33.18-.66.29-1.65.35-1.65h-5.24l0-.2a.67.67,0,0,1-.33.23,1.72,1.72,0,0,1-1.49.15,1.72,1.72,0,0,0-.36-.17h-5.35a15.45,15.45,0,0,0,.35,2.11,1.87,1.87,0,0,1-.06.88,61.54,61.54,0,0,0-.5,7.93,1.8,1.8,0,0,1-.76,1.3.94.94,0,0,1-1.35-.19,3.14,3.14,0,0,1-.49-.94,27.39,27.39,0,0,0-1.13-4.68,15.09,15.09,0,0,1-.69-3.13,2.65,2.65,0,0,1-.11-1.22,11.1,11.1,0,0,0,.19-2.06H219.8c.34,0,.65-.29.81,0a1.86,1.86,0,0,1,0,2.19c-.09.12-.24.11-.36.21-.51.1-1.38-.61-1.49-1.19a1.33,1.33,0,0,1,.21-1.12c.18-.31.49-.11.82-.11H204.81V205.6H59.91v89.1H87.4a.11.11,0,0,1-.08-.06c-.18-.39,0-.65.38-.72.11,0,.26.14.39.24s0,.54-.14.54h2.67s-.05-.14-.09-.23a3.39,3.39,0,0,1,0-2.08,18.17,18.17,0,0,0,.67-2,30.73,30.73,0,0,0,.71-4.74,30.67,30.67,0,0,0-.47-4.22c0-.12.18-.29.31-.38s.32-.06.33,0a14.78,14.78,0,0,1,1.49,5.62c.09,1.07.18,2.13.26,3.2,0,.36,0,.67.05,1,0,1.3,0,2.05-.05,3.85h49.58c-.09,0-.18-.69-.25-1.06a13.18,13.18,0,0,1-.16-5.28,25.24,25.24,0,0,0,.24-6.41,59.75,59.75,0,0,1,0-8,81.26,81.26,0,0,0-.17-10.19c0-1.07-.23-2.14-.22-3.2s.22-2.13.23-3.2a4.71,4.71,0,0,1,.35-2.08.67.67,0,0,1,.84-.43,1.19,1.19,0,0,1,.48.18.74.74,0,0,1,.29.44c.08.52.1,1,.11,1.16a9.17,9.17,0,0,0-.09,1.48c.18,1.41.76,2.75.53,4.22A15.08,15.08,0,0,0,146,266a19.77,19.77,0,0,1,0,3.74,15.16,15.16,0,0,0,.13,4.28c.66,3.72.49,7.48.71,11.23-.25,2.68,0,5.32,0,8,0,.49,0,1.42,0,1.42h40.37a1.81,1.81,0,0,0,.08-.51,2.26,2.26,0,0,1,.56-1.31c-.07,0-.15,0-.23-.17l.26-.17.11.18.09-.12v.24a1.81,1.81,0,0,1,.19.45.4.4,0,0,1-.09.35c-.43.31-.76,1.07-.95,1.07h17.74V440.5h90ZM428.3,252.52a1.83,1.83,0,0,1,.17,1,11,11,0,0,1-.76,1.94.88.88,0,0,1-.83.47.92.92,0,0,1-.86-.53,2.34,2.34,0,0,1,1.4-3.32A.69.69,0,0,1,428.3,252.52Zm-3.18-22a2,2,0,0,1,1.2-.95,1.31,1.31,0,0,1,1.24.75c.06.34.12.68.17,1a4.43,4.43,0,0,1-.71,3,3.23,3.23,0,0,1-.75.7.94.94,0,0,1-1.28-.45A5.45,5.45,0,0,1,425.12,230.5Zm-50.83,48.1a1,1,0,0,1,.39,0,4,4,0,0,1,1.75,1.12,1.92,1.92,0,0,1,.08,2.4,1.24,1.24,0,0,1-2.14,0,5.43,5.43,0,0,1-.49-.92c-.18-.49-.3-1-.46-1.51S373.6,278.69,374.29,278.6Zm-8.14-9.6c.32-.15.64-.31,1-.44.94-.41,1.64-.07,2,1a7.41,7.41,0,0,1,.17,1,1.78,1.78,0,0,1-2.59,1.64,3.11,3.11,0,0,1-.87-.58A1.64,1.64,0,0,1,366.15,269ZM360.5,225a1.72,1.72,0,0,1,.68.7,2.42,2.42,0,0,1,.42,1.41.91.91,0,0,1-.13.46.72.72,0,0,1-.89.29c-.13,0-.3-.17-.32-.28-.11-.48-.16-1-.2-1.21C360,225.26,360.18,224.79,360.5,225Zm.64,17.31a1.73,1.73,0,0,1,1.65,1.61,1.3,1.3,0,0,1-1.16,1.39,1.68,1.68,0,0,1-1.89-1.28A1.48,1.48,0,0,1,361.14,242.26Zm-29.35-35.4c.25-.34.55-.45.8-.26a.84.84,0,0,1,.22.46c.06.35.07.71.11,1.23-.09.35-.2.86-.38,1.35a.67.67,0,0,1-.89.38.71.71,0,0,1-.43-.28,2.29,2.29,0,0,1-.29-1A3.67,3.67,0,0,1,331.78,206.86Zm-.35,14.54-.32-.34c.15-.07.33-.24.43-.2C332,221.1,332,221.3,331.43,221.4Zm-.92,9.88a1.5,1.5,0,0,1,.85-1.25,1.1,1.1,0,0,1,1.37.34,4.93,4.93,0,0,1,.53,1.51,59,59,0,0,1-.47,10.15c0,.26-.42.56-.71.66a.89.89,0,0,1-.93-.33,3,3,0,0,1-.74-2c0-1.43.07-2.86.1-4.15C330.5,234.5,330.49,232.89,330.51,231.28ZM305.63,217.9a.54.54,0,0,1,0,.47c0,.11-.21.18-.33.26-.08-.14-.24-.28-.24-.42C305.12,217.74,305.34,217.62,305.63,217.9ZM294.72,84.15a.43.43,0,0,1-.36.2,1.17,1.17,0,0,1-.83-1.06c0-.35.33-.48.7-.33A.92.92,0,0,1,294.72,84.15Zm-1.11-22.3a.67.67,0,0,1,.48.2,3.74,3.74,0,0,1,1.25,2.83,3.78,3.78,0,0,1-.46,2.05c-.07.13-.2.32-.31.33a.94.94,0,0,1-.89-.5,1.69,1.69,0,0,1-.24-.46,13.06,13.06,0,0,1-.34-3.69A.76.76,0,0,1,293.6,61.84Zm-.09,8.78c.2-.39.45-.55.87-.41a1,1,0,0,1,.41.23,3.79,3.79,0,0,1,.69,3,15.45,15.45,0,0,1-.6,2A.66.66,0,0,1,294,76a1,1,0,0,1-.73-.63,1.9,1.9,0,0,1-.11-.52c-.06-.53-.09-1.06-.13-1.51A6.93,6.93,0,0,1,293.52,70.63ZM62,224.29a56.6,56.6,0,0,0,.08-5.83,12.55,12.55,0,0,0-.58-4.17,5.26,5.26,0,0,1-.2-1.57,4.85,4.85,0,0,1,.16-1,1.11,1.11,0,0,1,1.28-.6.91.91,0,0,1,.58.76c.08,1.05.12,1.93.14,3,0,.89,0,2.47,0,2.47h.06a22.8,22.8,0,0,1,0,2.83,10.73,10.73,0,0,0,.33,3.76,2.1,2.1,0,0,1-.43,1.52.58.58,0,0,1-.87.25.72.72,0,0,1-.3-.37A2.59,2.59,0,0,1,62,224.29Zm3.42,41.31a.91.91,0,0,1-.78.64,1,1,0,0,1-1-.23,2,2,0,0,1-.63-1.94,8.67,8.67,0,0,0,.5-2.61,5.57,5.57,0,0,0-.48-2.6,9.19,9.19,0,0,1-.77-4.17c0-1.43.22-2.87.1-4.29-.32-3.93.1-7.84.09-11.76,0-2.14-.07-4.29-.05-6.42a1.78,1.78,0,0,1,.52-.9c.07-.08.34,0,.51,0a.9.9,0,0,1,.76.62,2.37,2.37,0,0,1,.17.5c.32,2.13,0,4.28.2,5.36-.11,2.3-.15,3.55-.26,4.8a9.89,9.89,0,0,0,.15,3.19,14.08,14.08,0,0,1,.14,2.13c.2,2.85.11,5.71.82,8.52a2,2,0,0,1-.34,1.54,2.93,2.93,0,0,0,.05,3.5,3.75,3.75,0,0,1,.42,1A4.44,4.44,0,0,1,65.42,265.6Zm1.82,16.68c-.28.16-.47,0-.42-.49,0-.13.2-.23.3-.35.09.14.18.28.26.41S67.35,282.23,67.24,282.28ZM76.15,213a.82.82,0,0,1,.34-.35.52.52,0,0,1,.77.42,3.46,3.46,0,0,1,0,.5.56.56,0,0,1-.85.27A.55.55,0,0,1,76.15,213ZM78,217.67c0,.13-.22.26-.36.32a.56.56,0,0,1-.81-.36A1.54,1.54,0,0,1,77,216.2a.85.85,0,0,1,.41.18A1.34,1.34,0,0,1,78,217.67Zm2.46,67c-.38.09-.61-.11-.75-.51a1.33,1.33,0,0,1,.26-1.44c.08-.09.31,0,.45,0A1.23,1.23,0,0,1,81,284,.75.75,0,0,1,80.45,284.7Zm3.06-69.56a1.13,1.13,0,0,1-.51-1.28,1.05,1.05,0,0,1,.75-.57.61.61,0,0,1,.84.37,2.46,2.46,0,0,1,.22.93C84.79,214.92,83.91,215.24,83.51,215.14Zm9.19,43.78a.78.78,0,0,1-.49-.15.81.81,0,0,1-.3-.4c-.15-.66-.23-1.35-.41-2s-.46-1.26-.64-1.89c0-.08.22-.24.34-.36a1,1,0,0,1,.91.26.77.77,0,0,1,.24.45,15.79,15.79,0,0,0,.89,3.44A.59.59,0,0,1,92.7,258.92Zm21.57-51.23c0-.42.2-.7.44-.66s.25.26.26.41c.07.69.11,1.38.15,1.91,0,.34,0,.52,0,.69a.88.88,0,0,1-.45.88c-.28.13-.68-.6-.62-1.16S114.19,208.39,114.27,207.7Zm-5.09,63.72s-.25-.15-.31-.27a.94.94,0,0,1-.09-.5c.07-.5.16-1,.27-1.5,0,0,.16-.06.27-.1.08.51.18,1,.24,1.51A.78.78,0,0,1,109.18,271.42Zm1.21-24.5a1.66,1.66,0,0,1-1.33.66,3.37,3.37,0,0,1-1.8-.62V247l-.1-.12.11.14s0,0-.07.08c.09.42.2.84.26,1.26a1,1,0,0,1-.87,1c-.33,0-.67,0-1,0s-.61-.27-.56-.63a.92.92,0,0,1,.52-.79c.57-.25,1.26-.27,1.66-.84l0-.22.11.06c.2-1,.39-2,.6-3,.08-.35,1-.74,1.32-.52a7.5,7.5,0,0,1,1.16,1A2.24,2.24,0,0,1,110.4,246.92Zm8.75-10.57a7.25,7.25,0,0,1-1.06,3.55.66.66,0,0,1-.39.27.83.83,0,0,1-.9-.41,3.79,3.79,0,0,1-.53-2,4.79,4.79,0,0,0-1.44-3.34c-1.18-1.17-1-2.6-.49-4a3.76,3.76,0,0,1,.75-1.4,4.77,4.77,0,0,0,1.24-4c0-.35,0-.71-.08-1.06a5.88,5.88,0,0,1,.62-3l0,0,.07-.08-.1.1h-.09a2.57,2.57,0,0,0-1.65,2.28c0,.1-.24.3-.31.28s-.37-.2-.38-.32c-.08-.71-.11-1.42-.14-2.13s.39-.86,1-.53a2.61,2.61,0,0,0,1.44.44l.19-.1,0,.12.67,1c0-.1.06-.27.09-.4.35.13.38.37.21.68l.08.05-.11.06.13-.06a1.1,1.1,0,0,0-.16,1,15.76,15.76,0,0,1,1.25,2.94,27.5,27.5,0,0,1,.38,4.79A47.28,47.28,0,0,1,119.14,236.35Zm5.26,29.55c-.22.42-1,.79-1.21.56a1.67,1.67,0,0,1-.5-.82,1.87,1.87,0,0,1,.14-.93.57.57,0,0,1,.81-.36A1.13,1.13,0,0,1,124.41,265.9Zm13.68-53.69a.73.73,0,0,1-.59-.77c0-.08.29-.21.44-.21.41,0,.58.29.52.72C138.34,212,138.19,212.23,138.09,212.21ZM145.24,237a8.14,8.14,0,0,0-.31,4.16,12.34,12.34,0,0,1,.08,2.1.89.89,0,0,1-.15.48,1.82,1.82,0,0,1-.92-.22,3.59,3.59,0,0,1-1.3-2.79c0-1.22.19-2.45.31-3.68h-.14c.14-1.22.28-2.44.42-3.66,0-.47.27-.61.67-.53a1,1,0,0,1,.81.57,5.75,5.75,0,0,1,.38,1A4.65,4.65,0,0,1,145.24,237ZM186,257.43a.83.83,0,0,1,.5.06c.38.23.79,1,.61,1.27a1.59,1.59,0,0,1-.8.5c-.49.16-.83-.13-1-.8A.79.79,0,0,1,186,257.43Zm-34.45-44.84a6.85,6.85,0,0,1-.54.89,2.52,2.52,0,0,1-3.31.65,2.1,2.1,0,0,1-.47-3.51l.4-.34A2.47,2.47,0,0,1,151.6,212a2,2,0,0,1,0,.52,1.61,1.61,0,0,1-.24,0A1.18,1.18,0,0,1,151.57,212.59Zm3.35-3.1a1.3,1.3,0,0,1-1.77-.42,2,2,0,0,1-.05-1.93,1.42,1.42,0,0,1,2.63.65A1.82,1.82,0,0,1,154.92,209.49ZM156.33,241c-.13-.05-.29-.23-.28-.33,0-.38.29-.46.62-.18.08.07,0,.28.05.42C156.58,241,156.43,241,156.33,241Zm30.3,48.18a.57.57,0,0,1-.35-.29c-.16-.38,0-.74.36-.82s.53.25.58.62S187,289.24,186.63,289.19Zm.44-12.83c-.16.08-.31.18-.47.25-.89.37-1.4,0-1.33-.92,0-.35.11-.7.15-1a3.93,3.93,0,0,0-.57-2.59,1.6,1.6,0,0,1-.09-1,3.33,3.33,0,0,0-.23-2.07,3.19,3.19,0,0,1,.42-3.51,1.3,1.3,0,0,1,.79-.59c.36,0,.6.34.7.69a6.79,6.79,0,0,1,.48,2.61,14.42,14.42,0,0,0,.32,2.64c0,.7-.16,1.42-.09,2.11a15,15,0,0,0,.58,2A1.49,1.49,0,0,1,187.06,276.36ZM254.32,135.7a1.18,1.18,0,0,1,.43.13c-.05.13-.1.37-.16.37a1.32,1.32,0,0,1-.45-.16C254.2,135.92,254.25,135.71,254.32,135.7Zm-8,189.3a11,11,0,0,0-1,4.09c0,.36-.42.52-.75.55a.7.7,0,0,1-.8-.55,2.5,2.5,0,0,1-.12-.5c-.06-.88-.11-1.77-.17-2.7a6.31,6.31,0,0,0-.39-3.58c0-.1.11-.33.22-.47a.75.75,0,0,1,1.27,0c.52.7,1.08,1.4,1.54,2.14A1.26,1.26,0,0,1,246.28,325Zm-2.86-221.15a.53.53,0,0,1,.84.08,1.18,1.18,0,0,1,.23.46c.07.34.09.69.15,1.34-.07.39-.19,1.07-.35,1.73,0,.16-.14.4-.26.43a1,1,0,0,1-.94-.26C242.29,106.84,242.44,104.76,243.41,103.85Zm-32-16.43c-.16-.39.47-1,1-.95.13,0,.25.22.36.34s0,.39,0,.51a.86.86,0,0,1-.9.38A.63.63,0,0,1,211.46,87.42Zm2.12,14.69a.8.8,0,0,1-.74.56.64.64,0,0,1-.63-.61,1.8,1.8,0,0,1,0-.5,1,1,0,0,1,.45-.84c.36-.21,1,.36,1,.9A2.21,2.21,0,0,1,213.58,102.11Zm.3-20.16a11.86,11.86,0,0,1-1.42,1.58,2.58,2.58,0,0,1-.88.47c-.2.07-.89-.92-.9-1.27a5.09,5.09,0,0,1-.05-1.05,46.61,46.61,0,0,0,.29-4.8,10.77,10.77,0,0,0-.57-4.72,7.62,7.62,0,0,1-.06-4.74,7.21,7.21,0,0,1,1-2.46c.08-.13.26-.3.34-.27A.68.68,0,0,1,212,65a7.65,7.65,0,0,1,.87,4.47,2.66,2.66,0,0,1-.16,1.21,12.55,12.55,0,0,0,0,6.84A7.12,7.12,0,0,0,213.72,80a2.22,2.22,0,0,1,.37,1A1.63,1.63,0,0,1,213.88,81.95Zm2.95,130.85a.88.88,0,0,1-.88.46.9.9,0,0,1-.31-.94c.12-.42.43-.5.83-.34S217,212.41,216.82,212.8Zm3.46-19.37a1.78,1.78,0,0,1-2.45-1.26,2.89,2.89,0,0,1-.09-.52,2,2,0,0,1,1.77-2.2,2.05,2.05,0,0,1,2.11,1.9A2.31,2.31,0,0,1,220.29,193.43Zm3.56,63.84a1.32,1.32,0,0,1-2-.73,1.82,1.82,0,0,1,0-1.48,1,1,0,0,1,.72-.61,2,2,0,0,1,.5.05,2.13,2.13,0,0,1,1.34,1.43A1.25,1.25,0,0,1,223.85,257.27Zm.49-17.39a.69.69,0,0,1-.44-.72.62.62,0,0,1,.28-.39.94.94,0,0,1,1.28.28c.09.09.09.26.13.38A1,1,0,0,1,224.34,239.87Zm3.9-148.47c0,.26-.18.75-.44.72s-.39-.51-.42-.88.08-.71.47-.82c.1,0,.31.19.37.34A1.9,1.9,0,0,1,228.23,91.41Zm-.64-7.93s.18-.08.28-.12c0,.13.07.26.1.4l-.3.12A1.19,1.19,0,0,1,227.6,83.48Zm.65-6.48c-.15.42-.44.58-.8.39a1.87,1.87,0,0,1-.79-.6,3,3,0,0,1-.14-1.07c.07-.48.12-1,.23-1.51a.93.93,0,0,1,.59-.74c.45-.16.66,0,.78.46A4.73,4.73,0,0,1,228.25,77Zm3.65,64.18a1.52,1.52,0,0,1-.08-1.88,2.88,2.88,0,0,1,.39-.37,3.2,3.2,0,0,1,.49.08,1.44,1.44,0,0,1,1.05,1.54c0,.55-.3.86-1,1A.78.78,0,0,1,231.9,141.17Zm2,107.56c-.15.06-.31.21-.43.17a.51.51,0,0,1-.31-.79.44.44,0,0,1,.4-.16C233.94,248.06,234,248.35,233.88,248.73Zm.71-43.61c-.42,0-.55-.24-.31-.56.06-.08.31-.08.43,0s.17.22.25.34C234.83,205,234.71,205.12,234.58,205.12Zm8.86,128.2a.81.81,0,0,1,1.3,0c.24.46.45.93.66,1.41a1.74,1.74,0,0,1,.09.51c0,.7.09,1.39.15,2.3-.05.3-.13.8-.23,1.3s-1.08.77-1.3.56C242.19,337.45,242,335.43,243.45,333.31Zm2.18,21.17a1,1,0,0,1-1.28.4,1.46,1.46,0,0,1-.5-2.13,2.05,2.05,0,0,1,.37-.34,2,2,0,0,1,.5.07A1.5,1.5,0,0,1,245.63,354.48Zm-2.35,5.34a.74.74,0,0,1,.82-.53c.09,0,.15.29.22.45a1.14,1.14,0,0,1-.11.48.6.6,0,0,1-.43.21C243.32,360.42,243.14,360.19,243.28,359.82Zm1.6,21.47a.7.7,0,0,1-.49.11c-.13,0-.33-.08-.37-.17a8.42,8.42,0,0,1-.55-3.13,1.16,1.16,0,0,1,.45-.93.88.88,0,0,1,1.53.57c.06.35.09.7.14,1.08A3.19,3.19,0,0,1,244.88,381.28Zm2.3-14.41a6.55,6.55,0,0,1-.55.88,1.25,1.25,0,0,1-1.44.25,1.44,1.44,0,0,1-.95-1.16c-.09-1,.31-2.06,0-3.11,0-.11.11-.31.23-.4a.77.77,0,0,1,.91.1c.6.64,1.2,1.26,1.74,1.95A1.37,1.37,0,0,1,247.18,366.87Zm7.54-170.39c-.08,0-.16-.29-.13-.42s.21-.18.33-.27c.13.08.35.13.38.24C255.38,196.38,255.15,196.57,254.72,196.49Zm-.26-7.79c0-.13.23-.23.37-.35l.33.4-.39.34C254.66,189,254.46,188.82,254.47,188.7Zm.74-32.85c0,.16-.18.41-.29.42a1,1,0,0,1-.9-.47c-.69-1-.62-1.8.22-2.25a.57.57,0,0,1,.88.26,7.09,7.09,0,0,1,.27,1C255.33,155.16,255.29,155.51,255.2,155.85Zm.17-5.89a.67.67,0,0,1-.67.63.89.89,0,0,1-.88-.49,3,3,0,0,1-.38-1,8.58,8.58,0,0,1,.33-3.72,1.06,1.06,0,0,1,.73-.68c.45-.17.92.34.93,1,0,.36,0,.72,0,1.07s0,.56-.07.7C255.38,148.9,255.44,149.44,255.37,150ZM257,127a1.7,1.7,0,0,1-1.29.73,1.48,1.48,0,0,1-1.37-1.28c0-.17,0-.33,0-.5a1.2,1.2,0,0,1,1.81-1l.43.26A1.5,1.5,0,0,1,257,127Zm3.47,158.72a.68.68,0,0,1-.85.41c-.65-.14-1-.52-1-1a1.28,1.28,0,0,1,.66-1.28.63.63,0,0,1,.52.07A1.66,1.66,0,0,1,260.52,285.67Zm1.28-88.32a.54.54,0,0,1-.78.48.69.69,0,0,1-.39-.29,1.89,1.89,0,0,1-.29-1c.17-1,.45-2.07.71-3.1a.61.61,0,0,1,.33-.38c.38-.14.56.07.53.54s-.06,1.06-.1,1.7S261.86,196.65,261.8,197.35Zm.48-71.52.05-.4.26.35Zm.1-9.82a.68.68,0,0,1-.9.34c-1.62-.7-1.92-2.18-.68-3.34a.58.58,0,0,1,.95.12,5.57,5.57,0,0,1,.6.86,6.66,6.66,0,0,1,.3,1A5.88,5.88,0,0,1,262.38,116Zm-.23-22.4a1.17,1.17,0,0,1-.75.71.62.62,0,0,1-.79-.42c-.38-1.56-.11-3.18-.3-4.77a9.71,9.71,0,0,0-.2-2.1c-.05-.17-.17-.35-.14-.51.78-3.52.27-7.08.39-10.62a1.18,1.18,0,0,1,.15-.49c.08-.16.18-.4.31-.42a.78.78,0,0,1,.86.39,17.59,17.59,0,0,1,.9,4.91c-.09.49-.2,1.19-.39,1.87a15.36,15.36,0,0,0-.53,3.69,7.6,7.6,0,0,0,.66,3.61A5,5,0,0,1,262.14,93.62Zm7.09,195.51c0,.15-.2.37-.33.38-.32,0-.53-.22-.62-.62a1.14,1.14,0,0,1,.2-1,.47.47,0,0,1,.37-.18C269.25,287.81,269.44,288.49,269.23,289.13Zm0-7.52c-.07.13-.28.19-.43.27a1.41,1.41,0,0,1-1.22-.75.91.91,0,0,1,0-1,5.33,5.33,0,0,1,.65-.79.77.77,0,0,1,.95-.16.75.75,0,0,1,.29.42A2.63,2.63,0,0,1,269.28,281.61Zm.51-21.9a2.23,2.23,0,0,1-.78,1.36.53.53,0,0,1-.44,0c-.15,0-.34-.17-.38-.3a19.7,19.7,0,0,1-.79-4.13c-.06-1.24-.17-2.47-.25-3.71s-.83-2.38-.58-3.65c.29-1.57.69-3.11,1.05-4.67a1.13,1.13,0,0,1,.26-.46,4.76,4.76,0,0,1,.71-.73c.1-.07.35,0,.5.13s.19.23.32.4c-.06.82-.18,1.69-.19,2.56,0,1.06.08,2.12.1,3.18,0,.88,0,1.77,0,2.65,0,1.75-.36,3.54.47,5.22A20.2,20.2,0,0,1,269.79,259.72Zm18.54,97.68c0,.05-.21.09-.32.13,0-.15-.17-.37-.12-.43C288.18,356.8,288.36,356.92,288.33,357.4ZM281,302.72a.72.72,0,0,1,.22,0c.54.07.64.23.64.9l0,0,.37.11-.28,0,0,0s-.69,0-.68,0l-.82-.1v0c0-.29.14-.57-.15-.86-.08,0,.19,0,.1,0l.32-.12a2.86,2.86,0,0,1-.33-1c-.09-1.61-.11-3.23-.11-4.84a3.27,3.27,0,0,1,1.07-2.39,1.22,1.22,0,0,1,1-.31.7.7,0,0,1,.76.63,10.26,10.26,0,0,1,.25,1.58c0,1.25-.08,2.51-.16,3.76a2.28,2.28,0,0,1-1.12,1.73l-1.14.81Zm-.64-85.11c0-.14.22-.25.33-.37l.27.43c-.05.15-.06.41-.16.45C280.41,218.29,280.21,218.08,280.33,217.62Zm0,53.22a3.48,3.48,0,0,1,.31-.89l0,0,.09-.08.31.12-.35,0v0a3.11,3.11,0,0,1,1.2,2.24,9.34,9.34,0,0,0,.61,3.14,19.5,19.5,0,0,1,.79,6.9,13.88,13.88,0,0,1-.44,4.24,1.28,1.28,0,0,1-1.76.62c-.14-.09-.35-.16-.4-.29a4.88,4.88,0,0,1-.51-1.5A94.31,94.31,0,0,1,280.35,270.84Zm-.42-59.23a.63.63,0,0,1-.32.81c-.1-.11-.25-.2-.31-.33a.56.56,0,0,1,.31-.78S279.89,211.48,279.93,211.61ZM276.19,71.46c.25-.08.5.19.62.56a2.23,2.23,0,0,1,.07.49.89.89,0,0,1-.48.85c-.24.09-.49-.2-.62-.57a1.64,1.64,0,0,1-.08-.49A.79.79,0,0,1,276.19,71.46Zm1.46,53.85c-.47.14-.67,0-.78-.47a29.73,29.73,0,0,1-.9-3.62,51.09,51.09,0,0,1-.16-5.36c0-2,.08-3.93.12-5.9a11.56,11.56,0,0,0,0-2.14,39.52,39.52,0,0,1-.27-8c0-1.79,0-3.58,0-5.36-.1-2.51,0-5,.08-7.51a39.31,39.31,0,0,0-.09-7,4.61,4.61,0,0,1,.2-2.12c.12-.35.35-.72.67-.71s.58.39.59.76a5.4,5.4,0,0,0,.08,1.59,12,12,0,0,1,.66,3.65,80.27,80.27,0,0,0,.83,10.14,8.63,8.63,0,0,1,.14,2.14,78.85,78.85,0,0,0,.08,9.42c-.45,2.53.24,5.41-.27,8.25a5.67,5.67,0,0,0,0,1.6c.06.71.17,1.42.28,2.12.18,1.24.36,2.48.56,3.72-.34,1.39-.65,2.78-1,4.16A1,1,0,0,1,277.66,125.31Zm5.73,198.11c-.16,1.43-.39,2.85-.64,4.25a6.62,6.62,0,0,0,0,2.66,10.76,10.76,0,0,1-.21,4.78,14.83,14.83,0,0,0-.68,3.12c0,.62-.78,1-1.67,1a1.24,1.24,0,0,1-1.26-1.38,6.85,6.85,0,0,1,.08-1.07,15.16,15.16,0,0,0,.3-5.86,3.14,3.14,0,0,1,.1-1.58c.84-1.9.59-3.88.5-5.82a27.91,27.91,0,0,1,.09-5.9,8.72,8.72,0,0,0,0-1.6,29.36,29.36,0,0,1,.11-5.89c.25-1.41-.28-2.85,0-4.28a1,1,0,0,1,1.23-.6,2.57,2.57,0,0,1,2,2.8c0,.35,0,.71-.09,1.07a10.21,10.21,0,0,1-.36,1.57,7.17,7.17,0,0,0-.06,3.69,54.88,54.88,0,0,1,.7,5.86A17.16,17.16,0,0,1,283.38,323.42Zm5,52a.89.89,0,0,1-1.28.27,1.91,1.91,0,0,1-.52-1.38.76.76,0,0,1,.55-.77,1.4,1.4,0,0,1,1.37.42,2.17,2.17,0,0,1,.11.5A7.57,7.57,0,0,1,288.35,375.37Zm1.23-12.7a24.72,24.72,0,0,1-.58,2.58,3.82,3.82,0,0,0,0,2.56,5.53,5.53,0,0,1,.27,1.55,2.16,2.16,0,0,1-.4,1.49c-.2.25-.52.57-.78.56a1.25,1.25,0,0,1-.84-.55,9.7,9.7,0,0,1-1.07-3,1.82,1.82,0,0,1,.1-1,6.59,6.59,0,0,0,.28-1.55c0-.52,0-1.05-.08-2,0-.27.08-1,.15-1.67a1.42,1.42,0,0,1,.94-1.15,1.39,1.39,0,0,1,1.94,1.13A4.27,4.27,0,0,1,289.58,362.67Zm6.71-127.43a1.59,1.59,0,0,1,.46-.24c.12.12.3.22.37.37a12.75,12.75,0,0,1,.86,1.89,2,2,0,0,1-.74,2.31c-.36.29-.65.29-.92-.09C295.19,237.91,295.18,236.39,296.29,235.24Z"/><path class="cls-1" d="M187.85,292.72l.07.11s0-.24,0-.23S187.87,292.68,187.85,292.72Z"/><path class="cls-1" d="M187.7,292.91c.05,0,.09-.1.14-.18h0Z"/></svg>