<svg id="Layer_1" data-name="Layer 1" xmlns="http://www.w3.org/2000/svg" viewBox="0 0 500 500"><defs><style>.cls-1{fill:none;}.cls-2,.cls-3{fill:#231f20;}.cls-3{fill-rule:evenodd;}</style></defs><title>mapInactive</title><path class="cls-1" d="M302.08,82.1a1.26,1.26,0,0,0,.8.54H303a.77.77,0,0,0,.65-.34.67.67,0,0,0-.07-.47.7.7,0,0,0-.44-.26A1.18,1.18,0,0,0,302.08,82.1Z"/><path class="cls-1" d="M225.17,93,225,94.27l.42-1.18-.07-.07Z"/><path class="cls-1" d="M290.34,147.74a.65.65,0,0,0-.64-.49.47.47,0,0,0-.19.05l.05.89A1,1,0,0,0,290.34,147.74Z"/><path class="cls-1" d="M302.76,69.53a.81.81,0,0,0-.56-.2v.54l.14-.3-.09.45.37.2-.38-.11,0,.53-.06-.11-.06.29a.81.81,0,0,0,.68-.38A.83.83,0,0,0,302.76,69.53Z"/><path class="cls-1" d="M224.29,55.47c0-.13.05-.27.07-.41l0-.2,0-.27a5.56,5.56,0,0,0-.06-.62v0l-.3-.12a2.57,2.57,0,0,1,.13.79A2.62,2.62,0,0,0,224.29,55.47Z"/><path class="cls-1" d="M293.15,126l.95-.33a1.24,1.24,0,0,0-.1-.33.65.65,0,0,0-.58-.33A1,1,0,0,0,293.15,126Z"/><path class="cls-1" d="M224.37,75.92a6.62,6.62,0,0,1,.1-.81c.06-.3.09-.6.13-.94l.06-.5,0-.17-.1-.55c-.2.45-.39.94-.59,1.52a.86.86,0,0,0,0,.8C224.12,75.49,224.25,75.7,224.37,75.92Z"/><path class="cls-1" d="M224.41,84.93a.61.61,0,0,0,0,.14s0-.08,0-.13a.94.94,0,0,0-.17.2l1.36.35-1.08-.64Z"/><path class="cls-1" d="M268.12,178.79l-.16-.06-.72.58a1.05,1.05,0,0,0,.73.26,1.17,1.17,0,0,0,1.16-.94l-1,0Z"/><path class="cls-1" d="M246.14,83.58a1,1,0,0,0-.5-1l-.27.6,0,1.2A.85.85,0,0,0,246.14,83.58Z"/><path class="cls-1" d="M237.86,58.76l.23,0a.76.76,0,0,0,.62-.32.89.89,0,0,0,.15-.7.79.79,0,0,0-.69-.58h0a.8.8,0,0,0-.31,1.56Z"/><path class="cls-1" d="M274.67,61.51l.24,1.23a.91.91,0,0,0,.38-1,.89.89,0,0,0-.8-.5.77.77,0,0,0-.62.77.89.89,0,0,0,.66.83Z"/><path class="cls-1" d="M208.17,145.66v.64l.29.5-.08.06.49.67a1.11,1.11,0,0,0,.18-1.16A1.09,1.09,0,0,0,208.17,145.66Z"/><path class="cls-1" d="M260.78,106.89a1,1,0,0,0-.56-1l-.34.76.06-.08-.06.29.07.08h-.09l-.16.83A1.07,1.07,0,0,0,260.78,106.89Z"/><path class="cls-1" d="M290.6,58.77a.52.52,0,0,0,.07.28l.15,0c.13,0,.33,0,.37-.13a.51.51,0,0,0-.26-.7A.53.53,0,0,0,290.6,58.77Z"/><path class="cls-1" d="M267.27,120.8l.19.27.3,0-.13.17.07.06h-.1l-.13.17.18.62a1,1,0,0,0,.6-1.07,1,1,0,0,0-.9-.89.91.91,0,0,0-.64.33l.57.49Z"/><path class="cls-1" d="M260.2,76.5l.14-.32a3.24,3.24,0,0,0,.18-.45l-.25-.4Q260.23,75.92,260.2,76.5Z"/><path class="cls-1" d="M245.37,84.4V83.21l-.27.59.2-1.28a.82.82,0,0,0-.31.06.91.91,0,0,0-.56.74.94.94,0,0,0,.22.71A1,1,0,0,0,245.37,84.4Z"/><path class="cls-1" d="M248.74,50a.81.81,0,0,0-.53.13.85.85,0,0,0-.12.6c0,.14,0,.38.56.38a.83.83,0,0,0,.49-.14.74.74,0,0,0,.09-.32.86.86,0,0,0-.13-.55.77.77,0,0,0-.36-.1Z"/><path class="cls-1" d="M165.35,84.78a.81.81,0,0,0,.06-.4l-.72,1A1,1,0,0,0,165.35,84.78Z"/><path class="cls-1" d="M156.24,114.08v1.31l-.26-1.27a.78.78,0,0,0-.44.43.84.84,0,0,0,0,.66.87.87,0,0,0,.75.51v-1.31l.09,1.3a.88.88,0,0,0,.53-.5.92.92,0,0,0,0-.75A.76.76,0,0,0,156.24,114.08Z"/><path class="cls-1" d="M225.21,334.29c0,.2,0,.4-.05.6h0a2.83,2.83,0,0,0,.06-1.69A6.37,6.37,0,0,1,225.21,334.29Z"/><path class="cls-1" d="M174,75.8a.49.49,0,0,0-.09-.44.8.8,0,0,0-.39-.18.35.35,0,0,1-.12,0l.1,1.11A.68.68,0,0,0,174,75.8Z"/><path class="cls-1" d="M317.52,67.44v-.26l0,.25.25-.05-.21.3.11.8a.94.94,0,0,0,.66-.5,3.7,3.7,0,0,1-.17-1.1,1.22,1.22,0,0,0-.7-.23v.79Z"/><path class="cls-1" d="M277.47,45.3l-.08.09-.09.08a9,9,0,0,1-.59,1.87l-.1.26h.91A15.92,15.92,0,0,0,277.47,45.3Z"/><path class="cls-1" d="M259,45.8a1,1,0,0,0,.68.31l0-.37v.37h.06l0-.38.28,0-.15.37a.82.82,0,0,0,.52-.55.26.26,0,0,0-.18-.26l-.18.43-.29,0,0-.48h-.13v.45h0v-.45a1.17,1.17,0,0,0-.69.34l-.17,0a.47.47,0,0,0,.06.16.6.6,0,0,0-.09.18Z"/><path class="cls-1" d="M177.34,83.65V82.34l.22,1.28a.9.9,0,0,0,.52-.49.85.85,0,0,0,.06-.56.77.77,0,0,0-.41-.39,2.05,2.05,0,0,1-.73.13h-.15a.83.83,0,0,0-.36.52h0a.54.54,0,0,0,0,.25A.89.89,0,0,0,177.34,83.65Z"/><path class="cls-1" d="M179.73,190.39l-.2.06.24,1.19a.68.68,0,0,0,.41-.55A.77.77,0,0,0,179.73,190.39Z"/><path class="cls-1" d="M198,189.2a.47.47,0,1,0,.08-.9H198a.72.72,0,0,0-.75.54,1.66,1.66,0,0,0,.58.34Z"/><path class="cls-1" d="M208.09,84.3a.9.9,0,0,0,.64-.69.88.88,0,0,0-.47-1h0a.84.84,0,0,0-.76.72A.91.91,0,0,0,208.09,84.3Z"/><path class="cls-1" d="M199.77,211.46v.41l.13.81a.91.91,0,0,0,.57-1A1.51,1.51,0,0,0,199.77,211.46Z"/><path class="cls-1" d="M204.15,80.16l-.84,1,1-.81A.79.79,0,0,0,204.15,80.16Z"/><path class="cls-1" d="M187.61,71.52l0-.17-.06-.54c0-.35,0-.7-.07-1.06a5.57,5.57,0,0,1-.39.75c0,.07-.15.23.17.59A5,5,0,0,1,187.61,71.52Z"/><path class="cls-1" d="M197.15,178.2a.32.32,0,0,0,0,.31.9.9,0,0,0,.78.47v-.56l-.24-.75A1,1,0,0,0,197.15,178.2Z"/><path class="cls-1" d="M174.63,137.36l.38-.88a.92.92,0,0,0-.79.4A1,1,0,0,0,174.63,137.36Z"/><path class="cls-1" d="M303,156.25a.82.82,0,0,0-.5.9c0,.09.54.18.59.15a.78.78,0,0,0,.19-1A.48.48,0,0,0,303,156.25Z"/><path class="cls-1" d="M333.33,131.5a1.88,1.88,0,0,1-.08-1.84,1,1,0,0,1,1.32-.35,6.36,6.36,0,0,1-1.32-2.09.82.82,0,0,0,0,.2,2.43,2.43,0,0,1-.9,2.27l-.81.58-.27.19a3,3,0,0,1,2.26,2.09c.07.21.12.42.17.63a9.76,9.76,0,0,0,1.23-1.25v0a1.54,1.54,0,0,1-.26.12A1.4,1.4,0,0,1,333.33,131.5Z"/><path class="cls-1" d="M334,167.16a13.23,13.23,0,0,0-.1,3.63c0,.13,0,.26,0,.39,0-1.21,0-2.44.08-3.67a.89.89,0,0,0,0-.31Z"/><path class="cls-1" d="M312.88,156.52l-.32-.36a1.06,1.06,0,0,0-.2.31h0a.6.6,0,0,0,0,.08.58.58,0,0,0,0,.21h.1a1.15,1.15,0,0,0,.52.48l.2-.43-.12-.13.24-.12Z"/><path class="cls-1" d="M311.86,105.41a.6.6,0,0,0,0,.12l.13.19-.05,0,0,.06.11,0,.08.12.1-.09a.55.55,0,0,0,.18-.07l-.11-.1a.41.41,0,0,0,0-.09h-.07l-.8-.75.4.61S311.86,105.44,311.86,105.41Z"/><path class="cls-1" d="M334.22,177.7l0-.57c0,.08,0,.17,0,.25a20.4,20.4,0,0,0,.06,2.78c0-.24,0-.49,0-.76Z"/><path class="cls-1" d="M300.33,187.83l.17,0a.44.44,0,0,0,.45-.33.59.59,0,0,0-.28-.63,1.09,1.09,0,0,0-1,.28A1,1,0,0,0,300.33,187.83Z"/><path class="cls-1" d="M275.32,240c-.44,0-.68.2-.78.48l.52.2.74-.1-.44.22.41.16-.56-.08-.59.29a.61.61,0,0,0,.42.31h0a.83.83,0,0,0,.72-.56.79.79,0,0,0,0-.65A.6.6,0,0,0,275.32,240Z"/><path class="cls-1" d="M323,71a1.75,1.75,0,0,1-1.67,1.23h0a2,2,0,0,1-1.81-1,4.68,4.68,0,0,1-.44-1l-.31-1-.14-.46a1.8,1.8,0,0,1-.75.43l-.38.05a1.67,1.67,0,0,1-1.43-1,1.72,1.72,0,0,1,0-1.57,1.69,1.69,0,0,1,1.22-.86c-1.77-1.48-3.59-2.91-5.44-4.26a1.71,1.71,0,0,1-1.37-1,104.34,104.34,0,0,0-30.32-14.79,19.81,19.81,0,0,1-.06,2.18,2.3,2.3,0,0,1-.31,1,3.06,3.06,0,0,1-.6.82l.17.51a1.62,1.62,0,0,1-1.18,1.89l-.44,0c-1.62,0-2.26-.13-2.62-.84a1.65,1.65,0,0,1-.15-1.14l-.31-.08-1-.24v-1a7,7,0,0,1,.64-2.57,6.2,6.2,0,0,0,.45-1.44,1.61,1.61,0,0,1,.11-.44,101.47,101.47,0,0,0-13.39-2.41c0,.22-.08.39-.13.57a1.8,1.8,0,0,1-.74,1.06,1.79,1.79,0,0,1,.88,1.4,3.73,3.73,0,0,1,0,.43c-.1,2.11-1.26,2.25-1.62,2.25l-.58-.12a2.33,2.33,0,0,1-1.37-1.81,2.37,2.37,0,0,1,0-.93,1.83,1.83,0,0,1,.77-1.14,1.94,1.94,0,0,1-1-1.11,4.23,4.23,0,0,1-.2-1c-1.65-.12-3.24-.2-4.79-.24a5.32,5.32,0,0,1,.15,2.08l0,.38a10.54,10.54,0,0,1-.2,1.3l0,0h0l5.56,4.7-7.08-2.83a2,2,0,0,1-1.06,1.3,3,3,0,0,1-.61.24,2.4,2.4,0,0,1,1.29,1.73,1.88,1.88,0,0,1-.52,1.48,2.1,2.1,0,0,1-1.5.75,2.28,2.28,0,0,1-1.56-.8,1.85,1.85,0,0,1-.51-1.37,2.36,2.36,0,0,1,1.22-1.76l-.44-.67a2.55,2.55,0,0,1,0-2.29,1.89,1.89,0,0,1,.87-.85,4.17,4.17,0,0,1,.61-.23,4.57,4.57,0,0,1-.17-.76l-.06-.42a11.56,11.56,0,0,1-.17-2.06,104,104,0,0,0-43.1,10,2,2,0,0,1,0,.38,2.62,2.62,0,0,1-.7,1.88,1.84,1.84,0,0,1-1.32.58l-.73-.14-.21-.17a1.71,1.71,0,0,1-.6-.59l-.08-.14a105.84,105.84,0,0,0-12.2,7.45v.12c-.11.48-.18.81-.27,1.14a1.68,1.68,0,0,1-1.63,1.33h-.29l-.5-.18a2.77,2.77,0,0,1-.36-.2,104.94,104.94,0,0,0-12.3,11,2.21,2.21,0,0,1,.59.43,1.92,1.92,0,0,1,.58,1.37,2.15,2.15,0,0,1-1.93,2.13,2,2,0,0,1-1.15-.37,2.45,2.45,0,0,1-.65-.77q-3,3.39-5.71,7a2,2,0,0,1,.2,1,1.57,1.57,0,0,1-1.54,1.64l-.53-.06A105.21,105.21,0,0,0,145,146.43v.46a2,2,0,0,1,.39.65l.23.59a15.72,15.72,0,0,1,.6,1.78,3.87,3.87,0,0,1-1,3.75c.08,1.57.18,3.1.31,4.6a3.28,3.28,0,0,1,.31.44l.22.37,0,1.35-.25.17q.32,2.86.77,5.61a2.2,2.2,0,0,1,1.89,0,3.2,3.2,0,0,1,1.7,1.85,2.87,2.87,0,0,1-.89,3.13,2.14,2.14,0,0,1-1.09.48l-.26.05h-.28q.83,3.73,1.93,7.21a1.91,1.91,0,0,1,1.34.81,10.56,10.56,0,0,1,.66,1.11,1.84,1.84,0,0,1,0,1.65,2.09,2.09,0,0,1-.52.68c7.56,20,20.87,30.94,33.74,41.53C197.23,235,209,244.68,211.9,264l1.1,7.49c2.17,14.77,5.31,36.18,9.12,58.74a3.4,3.4,0,0,1,.2-.82,6.45,6.45,0,0,0,.69-3,7.65,7.65,0,0,1,.22-1.41,1.69,1.69,0,0,1,1.41-1.22,1.64,1.64,0,0,1,1.81,1.35,56.64,56.64,0,0,0,1.26,7.16,5.71,5.71,0,0,1-.11,3.53,2.88,2.88,0,0,0-.11.59,6.61,6.61,0,0,1-.14.82,2.14,2.14,0,0,0,.07,1.47,4.93,4.93,0,0,1,.35,2.64,2,2,0,0,0,0,.39,7,7,0,0,1,.7,2.39,6.7,6.7,0,0,0,.27,1.25,2.91,2.91,0,0,1,.1,1.41,5,5,0,0,0,.49,2.78,3.73,3.73,0,0,1,.18,2.42,20.25,20.25,0,0,0-.62,5.56,5.84,5.84,0,0,1-.18,1.54,4.93,4.93,0,0,0,.12,2.2c0,.21.1.41.16.61a8.91,8.91,0,0,1,.24,1,9.88,9.88,0,0,1,.1,1.29l0,.75-.12.27c8,46.33,15.52,88.7,15.59,89a5.25,5.25,0,0,0,10.34,0c1-5.86,25.38-143,32.38-190.22a49.46,49.46,0,0,1,1.14-5.52,1.71,1.71,0,0,1-.12-.26l-.1-.24a4.21,4.21,0,0,1-.23-3.41c-.17-.51-.31-1-.45-1.55a2.85,2.85,0,0,1-.24.39,2,2,0,0,1-1.67.87,2.6,2.6,0,0,1-2.75-3.32,2.47,2.47,0,0,1,3.44-1.75,4.21,4.21,0,0,1,.71.49,2.13,2.13,0,0,1,1.32-1.4l.67-.11a1.5,1.5,0,0,1,1.06.41,7.13,7.13,0,0,1,1.37,1.79c5.2-10.61,14.15-18,23.56-25.71,16-13.2,33.93-27.91,38.58-60.89-.1.17-.19.31-.29.45l-.15.22a1.87,1.87,0,0,1-1.51,1,1.72,1.72,0,0,1-1.48-1.09l-.21-.41c-.18-.35-.37-.71-.52-1.08a3.56,3.56,0,0,1-.08-2.37,1.62,1.62,0,0,1,1.58-1.32,2,2,0,0,1,.79.18,3.83,3.83,0,0,1,2,2,2.49,2.49,0,0,1,.14.37,127.12,127.12,0,0,0,.89-15.36A105.31,105.31,0,0,0,323,71ZM154.41,125.25a2.71,2.71,0,0,1-.63.63,2.35,2.35,0,0,1-1.36.46,2.12,2.12,0,0,1-1.1-.31,2.27,2.27,0,0,1-1.09-2.24,2.06,2.06,0,0,1,2.08-1.86h.12a2.55,2.55,0,0,1,1.94,1A1.88,1.88,0,0,1,154.41,125.25Zm.46-4.87a2,2,0,0,1-1.92,1.35h-.26l-.45-.14a2,2,0,0,1-.89-.72,2.13,2.13,0,0,1-.3-1.65,1.87,1.87,0,0,1,.88-1.19,2.52,2.52,0,0,1,1.27-.38l.34,0a1.83,1.83,0,0,1,1.46,1.85A2.28,2.28,0,0,1,154.87,120.38ZM158,115.6a1.86,1.86,0,0,1-1.07,1l-.64.11a1.86,1.86,0,0,1-1.67-1.07,1.69,1.69,0,0,1-.07-1.49,1.76,1.76,0,0,1,1.19-1l.59-.08a1.79,1.79,0,0,1,1.66,2.5Zm11.6-.42-1.2,1.54-1.23-2-.07-1.09,1.63-2.15,1.48,2.57Zm37.83-33.39a3.22,3.22,0,0,1,1.31,0,1.76,1.76,0,0,1,1.4,1.9,1.84,1.84,0,0,1-1.89,1.6,2.51,2.51,0,0,1-.84-.15,1.78,1.78,0,0,1-1.22-2A1.74,1.74,0,0,1,207.38,81.79Zm-1.23,8.7,0,.91a17.9,17.9,0,0,0-.08,3.83,3.5,3.5,0,0,1-.72,2.32,1.9,1.9,0,0,1-1.55.88h-.27l-.36-.13a1.84,1.84,0,0,1-1-1.09,19.48,19.48,0,0,1-.88-7.05,12.45,12.45,0,0,1,.7-4.76,1.88,1.88,0,0,1,1.09-1l.53-.09h.43l.56.32a3.14,3.14,0,0,1,1.25,2.29C206,88.17,206.1,89.4,206.15,90.49Zm-.27,14.71-3.85.12.55-2.15,1.17-3.12Zm-5.09-30.55a1.75,1.75,0,0,1,1.24-.73,2.68,2.68,0,0,1,3.35,2.62c.05.56.1,1.14.14,1.68l0,.44a6.23,6.23,0,0,1-.14,2.69,1.78,1.78,0,0,1-1.72,1.3l-.28,0a1.8,1.8,0,0,1-1.11-.69,3,3,0,0,1-.69-2,12.17,12.17,0,0,1,.16-1.48c.06-.44,0-.62-.22-.86a3,3,0,0,1-1-1.6A1.73,1.73,0,0,1,200.79,74.65Zm-1.3,102.63a2.32,2.32,0,0,1,.11,1.86,1.64,1.64,0,0,1-.94,1l-.55.1a2.23,2.23,0,0,1-1.93-1.49,1.73,1.73,0,0,1,1.13-2.26l.65-.11A1.73,1.73,0,0,1,199.49,177.28Zm-7.7-47.78-1.18.74-.78-.92.55,1.09-.57.41-1.25-.47-.45-.72-.2-.64.82-1.32,1-.07.82.2Zm-6.9-60.42a4.54,4.54,0,0,0,.36-.78,5,5,0,0,1,1.09-1.85,1.92,1.92,0,0,1,2.48,0A3.74,3.74,0,0,1,190,68.6c.11.69.15,1.38.2,2l0,.73-.07,1c-.06.59-.11,1.15-.18,1.7a3,3,0,0,1-1,1.8l-.19.16a1.85,1.85,0,0,1,1.1,1.29c0,.22.08.45.1.59l0,.63c0,.3,0,.52,0,.73a1.88,1.88,0,0,1-.64,1.25l-.37.3-.68.07a1.85,1.85,0,0,1-1.4-.68,4,4,0,0,1-.93-2.16,2,2,0,0,1,.88-1.89l.07,0a1.83,1.83,0,0,1-.64-.74,5.62,5.62,0,0,1-.52-1.42,2.23,2.23,0,0,0-.53-1.12A3,3,0,0,1,184.89,69.08ZM181,86.66a3.27,3.27,0,0,1-.54,1.49A1.71,1.71,0,0,1,179,89a1.77,1.77,0,0,1-1.3-.6,2.42,2.42,0,0,1-.28-3,3,3,0,0,1,.93-1l.32-.2.45,0a1.65,1.65,0,0,1,1.21.56A2.59,2.59,0,0,1,181,86.66Zm-6.15-6.85.24-1.06c.15-.66.31-1.32.44-2a6.66,6.66,0,0,0,.09-1,7.2,7.2,0,0,1,.27-1.89,1.59,1.59,0,0,1,1.54-1.21,1.89,1.89,0,0,1,1,.29,2.62,2.62,0,0,1,1.31,2.6L179.56,77c-.13,1.07-.27,2.17-.42,3.27a2.56,2.56,0,0,1-.57,1.24,1.86,1.86,0,0,1,.42.67l.09.25,0,.86a1.68,1.68,0,0,1-1.64,1.42l-.28,0a1.85,1.85,0,0,1-1.51-1.38,1.81,1.81,0,0,1,.06-1.3l.06-.11A2.14,2.14,0,0,1,175,81,1.93,1.93,0,0,1,174.87,79.8Zm-2.14,53.35a3.62,3.62,0,0,1-.16-.79l0-.21v-.45a4.46,4.46,0,0,1,.2-.94,2,2,0,0,1,1.45-1.25l.51-.07a1.81,1.81,0,0,1,1.25.49,3.1,3.1,0,0,1,.08-.33,1.93,1.93,0,0,1,1.46-1.3l.55-.08a1.71,1.71,0,0,1,1.65,1.25c.06.18.11.37.16.59l.16.65-.11.36a9.84,9.84,0,0,1-.37,1.12,1.58,1.58,0,0,1-.73.8l-.09,1.23-.33,2.18-2.88-2.16a2,2,0,0,1-.92.21A2,2,0,0,1,172.73,133.15Zm4,4.11A1.91,1.91,0,0,1,175,139.1h-.37l-.43-.23a2,2,0,0,1-.94-1.82,2.35,2.35,0,0,1,.13-1.18,1.74,1.74,0,0,1,1.59-1.07h.28l.42.15a1.61,1.61,0,0,1,1,1.23,4.44,4.44,0,0,1,0,.78Zm4.3,55.16-.34.46-.71.17h-.08a3,3,0,0,1-1.27-.26,1.89,1.89,0,0,1-1.1-2,1.92,1.92,0,0,1,1.26-1.58l.68-.12a2,2,0,0,1,2,1.47A2.75,2.75,0,0,1,181.07,192.42Zm.22-51.13,6.62-3.43a2.67,2.67,0,0,1,.08-1.16,1.78,1.78,0,0,1,1.14-1.14l.55-.08a1.87,1.87,0,0,1,1.58.88,1.79,1.79,0,0,1,.29,1.14,2,2,0,0,1-.15.61l.1.19a2.51,2.51,0,0,1,.15,1.3,1.58,1.58,0,0,1-1.52,1.5,1.78,1.78,0,0,1-1.3-.61,1.62,1.62,0,0,1-.29-.44Zm7.64,16.13.52-.09a2.45,2.45,0,0,1,1.42.55,3,3,0,0,1,.71.82,2.25,2.25,0,0,1,.38,1c0,.2.05.41.06.49l0,.56,0,0a2.82,2.82,0,0,1-1.16,2.27,1.81,1.81,0,0,1-1.08.35,1.74,1.74,0,0,1-1.51-.83,4.66,4.66,0,0,1-.57-3.57A2.18,2.18,0,0,1,188.93,157.42Zm2.67,13.5a2.62,2.62,0,0,1-1.25.89l-.53.09a2.25,2.25,0,0,1-2-1.67c-.07-.3-.13-.59-.18-.88l-.1-.57.13-.66c.05-.27.1-.54.17-.8a2.35,2.35,0,0,1,2.11-1.68h.17A2.38,2.38,0,0,1,192,167a3.37,3.37,0,0,1,.31,1.21A4.05,4.05,0,0,1,191.6,170.93Zm-.9-15.58h-.52l-1.07-1,.59-1.83,1.15-.08,1.08,0,.54,2.41Zm4.31,7.17a2.16,2.16,0,0,1,.07-.63l.14-.43a1.94,1.94,0,0,0-.24-.52c-.08-.15-.17-.29-.24-.44a1.78,1.78,0,0,1,.25-2.27,1.94,1.94,0,0,1,1.37-.45l.84.09a2.13,2.13,0,0,1,1.79,2c.07.74.13,1.38.15,2a2.75,2.75,0,0,1-.16,1,2,2,0,0,1-2,1.55,2.1,2.1,0,0,1-.74-.13A1.9,1.9,0,0,1,195,162.52Zm1,26.13a6.75,6.75,0,0,1,.28-.87,1.8,1.8,0,0,1,1.7-1.19l.41,0a1.89,1.89,0,0,1,1.43,1.52,2.57,2.57,0,0,1,.06.47v.16l-.09.66a1.93,1.93,0,0,1-1.9,1.47,2.12,2.12,0,0,1-.71-.12A1.78,1.78,0,0,1,196,188.65Zm.55,14.14a3.28,3.28,0,0,1,.67-3.65l.21-.22.73-.3.53-.07a1.75,1.75,0,0,1,1.72,1.29c.26.93.5,1.75.78,2.57a2,2,0,0,1-.54,2,2,2,0,0,1-2.92,0A5.5,5.5,0,0,1,196.6,202.79ZM200.2,214l-.43.06a1.85,1.85,0,0,1-1.69-1.25,3.12,3.12,0,0,1-.14-.45,1.76,1.76,0,0,1,1.23-2.23l.53-.08a1.71,1.71,0,0,1,1.67,1.4l.1.51A1.8,1.8,0,0,1,200.2,214Zm4-91.12-.63-.11a1.67,1.67,0,0,1-1.14-1.05,4.17,4.17,0,0,1-.2-1.13c0-.57,0-1.13,0-1.74v-.77l0-.21a8.3,8.3,0,0,1,.15-3.12,1.83,1.83,0,0,1,.66-1l-1-3.17-.41,0,.88-1.23-.7-1.12h1.63l.19-.15,1.3-.08.81,1.17-.09.26,1.73,2.76-1.59-.6-1.13,2a1.91,1.91,0,0,1,1.41,1.53,9.7,9.7,0,0,1-.07,4l-.18.4c-.08.12-.06.27.12.86l.08.26a1.75,1.75,0,0,1-.27,1.55A1.85,1.85,0,0,1,204.2,122.9Zm2.16,12.22a1.72,1.72,0,0,1,.37-.46l-.43-1.06.08-1.06,1.87-2.06.93,2.32,0,.67-.07.52-.5.45a1.93,1.93,0,0,1,.53.46A3.62,3.62,0,0,1,210,137a2.25,2.25,0,0,1,0,.62l-.05.27a2,2,0,0,1-1.37,1.42l-.6.09a2,2,0,0,1-1.44-.63A3,3,0,0,1,206.36,135.12Zm2.39,13.08-.61.09a1.59,1.59,0,0,1-1.55-1,1.52,1.52,0,0,1,.41-1.67l.38-.37.94-.06.83.24,1.2,1.79Zm-.26-97.33L214,49.59l-.79,4Zm8.83,156.52a7.33,7.33,0,0,1-.85,2.31,1.73,1.73,0,0,1-1.27.88h0a2,2,0,0,1-1.87-1.1,3.59,3.59,0,0,1,.05-3.48,2,2,0,0,1,1.78-1.18,2.21,2.21,0,0,1,1.55.69l.49.71.1.34A2,2,0,0,1,217.32,207.39Zm5.76-156.65.56.1,1.84.73a2.41,2.41,0,0,1,1.43,1.92,8.07,8.07,0,0,1,.09.94l0,.56-.09.49a5.8,5.8,0,0,1-.26,1.06,2.34,2.34,0,0,0,.16,1.76,3.8,3.8,0,0,1-.74,3.9,1.9,1.9,0,0,1-1.49.71,1.94,1.94,0,0,1-1.6-.84,3.25,3.25,0,0,1-.54-1.22,4.22,4.22,0,0,1,.25-2.07.82.82,0,0,0-.09-.86,5.72,5.72,0,0,1-1.12-3.34s-.09-.2-.14-.31a3.13,3.13,0,0,1-.39-1.68A2.26,2.26,0,0,1,223.07,50.74Zm-1.22,26.08a3.62,3.62,0,0,1-.39-3.19,16,16,0,0,1,1.39-3.13,2,2,0,0,1,1.76-1h0a2.08,2.08,0,0,1,1.7.93,3.58,3.58,0,0,1,.57,1.09c.14.56.23,1.09.31,1.54l.1.56-.11.87c0,.4-.09.76-.16,1.12a5.33,5.33,0,0,0,0,1.58,39.29,39.29,0,0,1,0,8.15,2.34,2.34,0,0,1-.54,1.22,2,2,0,0,1-1.69.85,1.79,1.79,0,0,1-1.61-.85,5.2,5.2,0,0,1-.63-1.42,4.59,4.59,0,0,1,0-1.68,13,13,0,0,0-.05-3.65c-.07-.66-.14-1.32-.17-2A2.67,2.67,0,0,0,221.86,76.82Zm4,244.88a2.13,2.13,0,0,1-.51.36l-.79.22a2.63,2.63,0,0,1-2.27-2,3.69,3.69,0,0,1,.93-3.25,1.87,1.87,0,0,1,3,.31c.14.27.28.54.4.83A3.1,3.1,0,0,1,225.88,321.7Zm2.43-183.54c-.12.5-.28,1-.46,1.55a1.69,1.69,0,0,1-.88.92,1.75,1.75,0,0,1-2.37-.62,3,3,0,0,1-.33-.55,10.74,10.74,0,0,1-.76-3.46,2.06,2.06,0,0,1,.2-1.07,4.91,4.91,0,0,1,.56-.9l.39-.48.81-.06a2.6,2.6,0,0,1,1.92.91A5,5,0,0,1,228.31,138.15Zm-3-25.47h.15a1.92,1.92,0,0,1,1.75,1.07,2.93,2.93,0,0,1,.45,1.18c.05.47.07,1,.09,1.53l0,.49a7.12,7.12,0,0,1-.12,3c-.07.37-.14.74-.18,1.12a3.77,3.77,0,0,1-.61,1.57l-.55,1-1,0h-1.15l-.22-1.14a44,44,0,0,1-.42-7.3,4.26,4.26,0,0,1,.12-.79C223.93,113.15,224.71,112.72,225.36,112.68Zm-1.59-3.1.61-1.41,1.57-.09.64.58a1.81,1.81,0,0,1,.29,1.46l-.11.4-1.47,1.28-.93-.89a1.76,1.76,0,0,1-.52-.91Zm5.58-18a1.74,1.74,0,0,1-1.28.8,7.38,7.38,0,0,1-.91.06s0,.07,0,.1v.3A6.32,6.32,0,0,1,227,94a2.21,2.21,0,0,1-1.22,1.56l-.57.11a2.41,2.41,0,0,1-1.05-.29,1.8,1.8,0,0,1-1.09-1.26,8.52,8.52,0,0,1,.42-5,2.06,2.06,0,0,1,2.61-1.15l1,.32a8.49,8.49,0,0,1,1.34.44,2.06,2.06,0,0,1,1,1.39A1.77,1.77,0,0,1,229.34,91.62Zm75.24-10c0,.25,0,.53.05.8-.13,1.3-.92,1.8-1.65,1.8l-.38,0a1.84,1.84,0,0,1-1.06-.66,2.05,2.05,0,0,1-.15-2.5A1.86,1.86,0,0,1,303,80l.46.06A1.53,1.53,0,0,1,304.58,81.59ZM300.7,58l.05-.52,1.62-1.67.92,1.29c.1.13.18.27.26.41l.27.45-.12.51a1.47,1.47,0,0,1-.86,1.23l-.66.15h-.58l-.51-.49A1.7,1.7,0,0,1,300.7,58Zm-.19,11.08a1.82,1.82,0,0,1,1.58-.91h.28l.51.17a1.82,1.82,0,0,1,1,2.22l-.11.26a1.61,1.61,0,0,1-.51.73l-.36.29-.7.08a2,2,0,0,1-1.69-2.85Zm-4.25,79.59a2.78,2.78,0,0,1,.35.91l.08.67a2.17,2.17,0,0,1-.16.77,4.29,4.29,0,0,1-1.41,1.79,2.25,2.25,0,0,1-1.29.37,2.71,2.71,0,0,1-2.37-1.27,2,2,0,0,1-.24-1.06,4.19,4.19,0,0,1,1.38-3,2.22,2.22,0,0,1,2.89,0A3.53,3.53,0,0,1,296.26,148.69Zm-8.49,8.44,0-1.6c0-1.49.07-2.59.13-3.69a1.62,1.62,0,0,1,1.61-1.63h.37l.5.25a1.69,1.69,0,0,1,.84,1.23,4.42,4.42,0,0,1,0,.54l.05.4a2.26,2.26,0,0,1,1.16,1.84,39.49,39.49,0,0,1-.38,7.79,2.1,2.1,0,0,1-1.94,1.79l-.62-.13a2.16,2.16,0,0,1-1.26-1.36c-.06-.14-.11-.23-.14-.33a2.52,2.52,0,0,1-.18-.78c-.06-1-.12-2.1-.17-3.16,0-.48,0-.83,0-1.08h0v-.09Zm-.06-9.13a2.16,2.16,0,0,1,1.57-2.42h.21a2.1,2.1,0,0,1,.92.22,2.23,2.23,0,0,1,1.38,1.83,1.88,1.88,0,0,1-.36,1.42,2.14,2.14,0,0,1-1.45.81l-.27,0A2,2,0,0,1,287.71,148Zm7.65-23.29.27.47a1.74,1.74,0,0,1-1,2.28,3.22,3.22,0,0,1-1.17.22,2,2,0,0,1-1.76-1.11,2.13,2.13,0,0,1,.91-2.65,2,2,0,0,1,2.22.12A2.69,2.69,0,0,1,295.36,124.7Zm-1.6-34.27.25.49-.06.74a3.78,3.78,0,0,1-.35.93,2.1,2.1,0,0,1-1.83,1.09,2.05,2.05,0,0,1-.76-.14,2.27,2.27,0,0,1-1.41-2.83,3.2,3.2,0,0,1,.31-.64,2.17,2.17,0,0,1,3.32-.41A2.78,2.78,0,0,1,293.75,90.44Zm-.53-31.66a1.82,1.82,0,0,1-.62,1.34,2.51,2.51,0,0,1-1.73.72,2.47,2.47,0,0,1-1.13-.28,2.14,2.14,0,0,1-1-2.7,2.37,2.37,0,0,1,2-1.44l.37,0A2.57,2.57,0,0,1,293.22,58.77Zm-6.75-5,.35-2,1.94,1.12L291,54.39l-4.65,1.33Zm-22-.54.11-.82a1.64,1.64,0,0,1,1.66-1.52l.55.08a1.88,1.88,0,0,1,.93.62,2.69,2.69,0,0,1,.61,2.13,7.24,7.24,0,0,1-.22.93,4.38,4.38,0,0,0-.14.59,17.58,17.58,0,0,0,0,5.15l.07.33a3.91,3.91,0,0,1,.09,1.74A2.06,2.06,0,0,1,267,64l-.25.11-.47.05a1.65,1.65,0,0,1-1.6-1.5,16.24,16.24,0,0,1-.2-5.26l0-.11a3,3,0,0,0,0-.56A10.37,10.37,0,0,1,264.47,53.2Zm3,66.29.67.22.77.65.16,1.14-.42.64a1.74,1.74,0,0,1-1.22.58h0a1.7,1.7,0,0,1-1.84-1.56,1.61,1.61,0,0,1,1.09-1.56Zm-4.46-43a6.22,6.22,0,0,1-.31.79,2.74,2.74,0,0,0-.2.52,18.3,18.3,0,0,0-.19,2.6c0,.62,0,1.24.05,1.85,0,.43,0,.86,0,1.29a13,13,0,0,1-.24,3.52,3.54,3.54,0,0,0,0,2.3,3.33,3.33,0,0,1,.22,1.27c.08,4.07,0,7.76-.2,11.26l0,.35-.3.52a2,2,0,0,1-1.72,1.14h0a1.88,1.88,0,0,1-1.86-1.52,25.94,25.94,0,0,1-.53-7.64c0-.32,0-.73.05-1.07a4.33,4.33,0,0,1,.08-.77h0c0-.36.09-2.07.13-3.3l0-.74a6.46,6.46,0,0,0-.05-1.38,15.77,15.77,0,0,1-.27-4c0-1.31,0-3-.06-4.7a25.53,25.53,0,0,1,.34-5.87,2.38,2.38,0,0,0-.1-1.29,5.06,5.06,0,0,1-.25-2.12,3.18,3.18,0,0,1,.71-1.82,1.91,1.91,0,0,1,1.16-.72h.21a1.84,1.84,0,0,1,1.7,1.26,4,4,0,0,1,.15.48,4,4,0,0,1,.28,3.11,4.72,4.72,0,0,0-.15.58l.35.72c.32.54.64,1.08.92,1.64A2.45,2.45,0,0,1,263,76.46Zm-3,32.79,1.07,2.39.71,1.95-2,0-2.28-.21Zm-1.84-2.62a1.56,1.56,0,0,1,1.54-1.51h.49l1.12.89,0,1.66-1,.56-.61.15-.56-.12A1.65,1.65,0,0,1,258.16,106.63Zm-.67-52.76a12.46,12.46,0,0,1,.79-1.43l.25-.41a1.78,1.78,0,0,1,2.58-.52,2.1,2.1,0,0,1,1.07,1.38,5.76,5.76,0,0,1-.87,3.95,2.27,2.27,0,0,1-.82.73l-.36.19a1.75,1.75,0,0,1,1.3,1.11c.3.89.53,1.58.72,2.27a2.65,2.65,0,0,1-.05,1.55,22.93,22.93,0,0,1-.86,2.28,1.7,1.7,0,0,1-1.59,1,2,2,0,0,1-.79-.17,2.21,2.21,0,0,1-1.26-1.45,4.14,4.14,0,0,1-.12-1.18l.05-1.28,0-.28s0-1.3,0-2a2.13,2.13,0,0,1,.49-1.16,1.78,1.78,0,0,1,.89-.7,1.93,1.93,0,0,1-1-.73A3.08,3.08,0,0,1,257.5,53.87Zm-2.36,37.18a2.06,2.06,0,0,1-.24,2,2.77,2.77,0,0,1-2.35,1.28l-.42-.07a5.22,5.22,0,0,1-.89-.31,2.19,2.19,0,0,1-1.15-2.25A2,2,0,0,1,251.34,90a3.92,3.92,0,0,1,2.27-.19A2.08,2.08,0,0,1,255.13,91.05Zm.51,19.44a2.6,2.6,0,0,1-1.91,2.5,3.21,3.21,0,0,1-.74.09,2.51,2.51,0,0,1-1.44-.43,2.2,2.2,0,0,1-1-1.75,2,2,0,0,1,.88-1.67,7.88,7.88,0,0,1,1.27-.73l.26-.12.48,0A2.35,2.35,0,0,1,255.64,110.49Zm-7.14-47.89a2.35,2.35,0,0,1,2.27-1.94h.3l.48.17a2.07,2.07,0,0,1,1.14,1.78,3.23,3.23,0,0,1-.38,1.8,1.87,1.87,0,0,1-1.66,1,2,2,0,0,1-1.53-.7A2.72,2.72,0,0,1,248.51,62.61Zm0,6.49a3.33,3.33,0,0,1,1-.2h.22a2.18,2.18,0,0,1,2,2.59,2.25,2.25,0,0,1-1.42,1.74l-.28.14-.53,0a2.18,2.18,0,0,1-1.89-1.15,3.94,3.94,0,0,1-.34-1A1.77,1.77,0,0,1,248.48,69.1Zm-4.43-.93.29-1,.08,1.31a.83.83,0,0,0,.66-.66,1,1,0,0,0,0-.54l-.56,1.08.13-1.29a.94.94,0,0,0-.27,0l.48-1.17a2.84,2.84,0,0,1,.87.31,1.72,1.72,0,0,1,.54,2.4,1.84,1.84,0,0,1-1.61,1l-.56-.1a2.58,2.58,0,0,1-1-.73,1.73,1.73,0,0,1,1.19-3h.23l.22.06-.34,1.2a.73.73,0,0,0-.42.31A.87.87,0,0,0,244.05,68.17Zm1.22,13.61h.1A1.68,1.68,0,0,1,246,85l-.23.09-.44,0a1.82,1.82,0,0,1-.73-.15,1.65,1.65,0,0,1-1-1.59A1.77,1.77,0,0,1,245.27,81.78Zm-1.61-23.35a2,2,0,0,1,2.09.21,2.64,2.64,0,0,1,.42.32,2.19,2.19,0,0,1,.65,2.28,2.22,2.22,0,0,1-2.05,1.62h0a2.35,2.35,0,0,1-2.51-2.47A2.2,2.2,0,0,1,243.66,58.43ZM237,50.29a2.11,2.11,0,0,1,2.07,0,2.37,2.37,0,0,1,.95,2.78c-.16.29-.28.54-.41.79a9.25,9.25,0,0,1-1.1,1.84,1.68,1.68,0,0,1-.68.49h.22l.61.1a1.84,1.84,0,0,1-.56,3.55,1.88,1.88,0,0,1-1.82-1.4,1.73,1.73,0,0,1,.29-1.51,1.66,1.66,0,0,1,.75-.59,2,2,0,0,1-2-.94,3.65,3.65,0,0,1-.29-.74l-.13-.54A4,4,0,0,1,237,50.29Zm-7.23,41.61a2.17,2.17,0,0,1,.28-1.76A2.46,2.46,0,0,1,233,89.2a2.3,2.3,0,0,1,1.35,2.16,2.75,2.75,0,0,1-.85,1.87l-.34.33-1,.16-.24-.08a3.64,3.64,0,0,1-1-.29A2.22,2.22,0,0,1,229.82,91.89Zm11,93h0a3.18,3.18,0,0,1-2.88-1.79,4.21,4.21,0,0,1-.15-.43,2.77,2.77,0,0,1,.4-2.21,2.64,2.64,0,0,1,2.89-1,3,3,0,0,1,2,2.67A2.72,2.72,0,0,1,240.84,184.88Zm12-13.62a2.56,2.56,0,0,1-.74.11,2.59,2.59,0,0,1-.84-.14,3,3,0,0,1-1.9-2.09,3.24,3.24,0,0,1,.63-3,2.27,2.27,0,0,1,1.64-.8h.17a3.35,3.35,0,0,1,2.94,1.75l.14.24.12.8A3.22,3.22,0,0,1,252.85,171.26Zm3-9.54a19.78,19.78,0,1,1,13.89-18.88A19.77,19.77,0,0,1,255.88,161.71Zm13,18.63-1.39-.41a1.41,1.41,0,0,1-1-1.32c0-2,1.86-2.08,2.77-1l.51.63Zm.53-89a2.36,2.36,0,0,1-1.69-.82,2.63,2.63,0,0,1-.76-1.91,2.75,2.75,0,0,1,2.47-2.46h.19a2.87,2.87,0,0,1,2.33,2.67A2.72,2.72,0,0,1,269.4,91.31Zm1.78-33.46a4.7,4.7,0,0,1-.05-2.17l.06-.45a8.76,8.76,0,0,1,0-.93,1.68,1.68,0,0,1,1.53-1.52l.36,0a1.73,1.73,0,0,1,1.17,2.34,1.47,1.47,0,0,0,.13.58,4.69,4.69,0,0,1,.26,1.07,2.22,2.22,0,0,1-.47,1.45,1.58,1.58,0,0,1-1.35.74l-.48-.07A1.71,1.71,0,0,1,271.18,57.86Zm1.67,4.86a1.75,1.75,0,0,1,.9-2.32,2.35,2.35,0,0,1,.6-.16l.44,0a1.78,1.78,0,0,1,1.69,1.65,1.87,1.87,0,0,1-1.32,1.86l-.69.13A1.73,1.73,0,0,1,272.86,62.72Zm4.25,177.87a1.83,1.83,0,0,1-.15.87,1.79,1.79,0,0,1-1.7,1.12,2.17,2.17,0,0,1-1.73-1,1.86,1.86,0,0,1-.21-1.59,1.79,1.79,0,0,1,1.76-1.21l.27,0A2,2,0,0,1,277,240l.15.3ZM279.16,70l-.55.08a1.82,1.82,0,0,1-1.62-.94,4.47,4.47,0,0,1-.41-4.07,1.68,1.68,0,0,1,1.56-1.16h.38l.54.28a1.66,1.66,0,0,1,.83,1c.06.31.15.57.23.84a7,7,0,0,1,.4,2.1A1.83,1.83,0,0,1,279.16,70Zm1.31-13.56a9.15,9.15,0,0,0-.34,2.56,1.82,1.82,0,0,1-1.07,1.65l-.61.12a1.75,1.75,0,0,1-1.67-1.28c-.27-.91-.54-1.84-.74-2.77a6.77,6.77,0,0,1-.11-1.33l0-.67.1-.26c.22-.57.35-.91.51-1.25a1.8,1.8,0,0,1,1.16-.88l.56-.09a1.91,1.91,0,0,1,1.52.76A3.64,3.64,0,0,1,280.48,56.45Zm6.08,180.08a2.35,2.35,0,0,1-2.32,1.7,2.45,2.45,0,0,1-.95-.19,1.84,1.84,0,0,1-.93-1,2.38,2.38,0,0,1,1.86-3.2l.25,0a2.18,2.18,0,0,1,1.7.92A2,2,0,0,1,286.56,236.52Zm4.94-40a2.12,2.12,0,0,1-2,1.5,2,2,0,0,1-1.4-.55,3,3,0,0,1-.69-3.65c0-.09.12-.23.19-.36a1.75,1.75,0,0,0,.3-.9c0-.54,0-1.06,0-1.58a8.82,8.82,0,0,1,.32-2.76,2.22,2.22,0,0,0,.05-1.23,11.29,11.29,0,0,1-.38-3.55c0-.56,0-1.12,0-1.68s0-1.26,0-1.9c0-1.57.12-3.13.2-4.7l.08-1.68a3,3,0,0,1,.3-1.16l-.8-.8.84-.32,0-.2a4.47,4.47,0,0,0-.16-.74,4.53,4.53,0,0,1,.52-3.74,1.73,1.73,0,0,1,1.5-.82h0a1.71,1.71,0,0,1,1.36.72,9.86,9.86,0,0,1,1.27,3,3.08,3.08,0,0,1-1.13,3.18h0a3.29,3.29,0,0,1-.41.27c0,.26,0,.51,0,.76a1.15,1.15,0,0,0,.1.58,4.65,4.65,0,0,1,.56,1.4,7.83,7.83,0,0,1,.09,1.07,4.66,4.66,0,0,0,.07.81,4.45,4.45,0,0,0,.23.62,5.89,5.89,0,0,1,.42,1.38l0,.3a8.57,8.57,0,0,1,.1,2.87,14.9,14.9,0,0,0-.12,4,21.19,21.19,0,0,1,0,3.57c0,.46-.07.91-.08,1.37a3.49,3.49,0,0,1-.24,1.24,14.77,14.77,0,0,0-.63,2.22C291.74,195.56,291.63,196,291.49,196.52Zm6.24,28.89a7.46,7.46,0,0,0-.25.73,2.41,2.41,0,0,1-2.36,1.65,2.28,2.28,0,0,1-1.21-.33,3,3,0,0,1,1.16-5.55l.36,0a2.12,2.12,0,0,1,1.95,1.18,6.07,6.07,0,0,1,.36.88l.27.71Zm.64-38.36a2.19,2.19,0,0,1,2.12-1.81l.63.1a1.77,1.77,0,0,1,1.18,2.16l-.08.27a4.73,4.73,0,0,1-.21.62,1.76,1.76,0,0,1-1.61,1.09h-.25l-.45-.14A2.06,2.06,0,0,1,298.38,187Zm4.19,6.28.26.2.54.93-.13.48a1.82,1.82,0,0,1-1.67,1.43l-.37,0a2,2,0,0,1-1.4-.54l-.42-.39v-.66a1.7,1.7,0,0,1,.52-1.21C301.1,192.45,301.93,192.83,302.57,193.32ZM299,205.76l.58-4.61,4.07,2.78Zm5-47.07a2.44,2.44,0,0,1-.92.19,2.28,2.28,0,0,1-2.06-1.34,1.83,1.83,0,0,1,.62-2.35,2.34,2.34,0,0,1,1.35-.46,2.25,2.25,0,0,1,2.14,1.82A1.81,1.81,0,0,1,304,158.69Zm2-39.48a4.5,4.5,0,0,0-.33,1.81,19.9,19.9,0,0,1-.44,5,1.7,1.7,0,0,1-1.7,1.37l-.61-.1a2.43,2.43,0,0,1-1.28-1.05,2.68,2.68,0,0,1-.29-1.07l-.07-.49.11-.74a8.52,8.52,0,0,1,.41-1.91,2.82,2.82,0,0,0,.14-1.88c-.15-.52-.26-1.05-.37-1.59l-.17-.81a6.67,6.67,0,0,1-.07-2.46,9.23,9.23,0,0,0,.06-2.75,10.7,10.7,0,0,1,0-2.35l0-.31a4.93,4.93,0,0,0-.34-1.84,2.67,2.67,0,0,1,.28-2.19,2.46,2.46,0,0,1,1.23-1.13l-2.25-1.62,2.84-1.18h-.74l-.57-.73a4.24,4.24,0,0,1-.38-1.93,3.23,3.23,0,0,0-.05-.66,2.78,2.78,0,0,0-.17-.46,4.5,4.5,0,0,1-.36-1.16,4.61,4.61,0,0,1,.05-1.28,3.9,3.9,0,0,0,.05-.49,6.54,6.54,0,0,0-.09-1.31,4.24,4.24,0,0,1,.14-2.2c.08-.25.16-.51.23-.77a1.69,1.69,0,0,1-.59-1.07l-.22-.12.18-.7,0-.24.19-.44a5.5,5.5,0,0,0,0-1.31,1.82,1.82,0,0,1,.44-1.45,1.7,1.7,0,0,1,1.24-.53,1.87,1.87,0,0,1,1.86,1.49,2.45,2.45,0,0,1-.4,2.18l-.15.18a2.49,2.49,0,0,1,.29.93,3.43,3.43,0,0,1,.65,1.36A9.2,9.2,0,0,1,305,94c-.13,2.2-.28,4.38-.42,6.58l-.06.9.13,0-.39,3.37a2.45,2.45,0,0,1,1.2,1.78,3,3,0,0,1,.06.51v.54a5.37,5.37,0,0,0,.34,2.39,2.66,2.66,0,0,1-.13,2.26,3.12,3.12,0,0,0-.08,1.94,17.66,17.66,0,0,0,.48,1.77A4.83,4.83,0,0,1,306,119.21Zm2.15-30.29a4.2,4.2,0,0,1-2.24-3.37v-.76l1.11-.71.32,0a3.73,3.73,0,0,1,2.8.62,2.48,2.48,0,0,1,1.1,1.9,2.58,2.58,0,0,1-1,2,2,2,0,0,1-1.29.47A2.15,2.15,0,0,1,308.13,88.92Zm1.63,16.45a2.28,2.28,0,0,1,1-1.55l.37-.22a2.3,2.3,0,0,1,2.89.55,2,2,0,0,1,.46,1.67c-.15,1.57-.87,2.09-1.45,2.3a2.09,2.09,0,0,1-.73.13,2.63,2.63,0,0,1-1.6-.63,3.07,3.07,0,0,1-.52-.52A2.23,2.23,0,0,1,309.76,105.37Zm4.7,52.6-.39.41-.66,0h-.56l-.48-.45a2.18,2.18,0,0,1-.52-1.43,1.79,1.79,0,0,1,.44-1.37l.39-.42,1-.06.35.13a1.62,1.62,0,0,1,.89,1.26l0,.56A1.81,1.81,0,0,1,314.46,158Zm1.1-9.3a15.63,15.63,0,0,1-.58,2.09,1.23,1.23,0,0,0,0,.35,4.83,4.83,0,0,1-.05,2.32,1.87,1.87,0,0,1-.72.95l-.34.24-.64.07a1.69,1.69,0,0,1-1.6-1.25,11.89,11.89,0,0,1-.43-1.7,7.1,7.1,0,0,1-.08-.83,3.38,3.38,0,0,0-.07-.62,8.32,8.32,0,0,1-.22-4.29,6.78,6.78,0,0,0,.06-.83,3.94,3.94,0,0,1,.33-1.72,2.05,2.05,0,0,1,.52-.65,2.46,2.46,0,0,1-.75-.87c-.2-.4-.37-.77-.55-1.15a2.93,2.93,0,0,1-.16-.5,3,3,0,0,1,.16-2.18c.15-.29.3-.55.45-.82l.33-.59a1.84,1.84,0,0,1,3.12,0,3.09,3.09,0,0,1,.58,1.2c.1.53.15,1.06.21,1.55l.06.57,0,.14c0,.51-.07.73-.11,1a2.29,2.29,0,0,1-1,1.62l.09.07a2.13,2.13,0,0,1,.69.83l.54,1.58A6.44,6.44,0,0,1,315.56,148.67Zm5.73-51.72a1.86,1.86,0,0,1-1.58-.84,3.62,3.62,0,0,1-.52-1.12c-.08-.33-.15-.67-.22-1v-.07a3.66,3.66,0,0,1-1.5,0A2.2,2.2,0,0,1,316,92.89a2.39,2.39,0,0,1-.36-1.56A2.36,2.36,0,0,1,317.76,89c.34,0,.68,0,1,0H319a1,1,0,0,0,0-.11c-.08-1.31-.16-2.62-.26-3.93a10.16,10.16,0,0,1,.34-3.62,5.41,5.41,0,0,1,.61-1.25,1.65,1.65,0,0,1,.23-.32l-.39-.81a1.58,1.58,0,0,1-.29-1l0-.47,1.68-1.91,1.53,2.54-.8,1.15a1.79,1.79,0,0,1,.7.36,1.81,1.81,0,0,1,.66.9,17.69,17.69,0,0,1,.81,4.47l-1.31,0,1.3.25a5.44,5.44,0,0,1-.15,1,12.56,12.56,0,0,0-.3,3.56l0,1.25a23.06,23.06,0,0,1-.1,4.11,1.8,1.8,0,0,1-1.59,1.63Zm3.18,46.73,0-1.06-.6-.28a2.44,2.44,0,0,1-1.19-3.05A5.44,5.44,0,0,0,323,138a6.68,6.68,0,0,1,.72-2.3,6.28,6.28,0,0,1-.66-2.56,2.37,2.37,0,0,1,1.13-2.12,2.06,2.06,0,0,1,2-.06,2.13,2.13,0,0,1,1.2,1.46,3.61,3.61,0,0,1-.11,1.66c0,.12-.06.24-.08.36l-.07.44a2.84,2.84,0,0,0-.08.68,14.5,14.5,0,0,1,.09,4.12h0l1.88-.8-1.56,2.7,3.76,3.77a4.26,4.26,0,0,1,.12-1.06,1.88,1.88,0,0,0-.06-.91,10,10,0,0,1-.27-2.24,3.91,3.91,0,0,1,.38-1.69,1.85,1.85,0,0,1,1.81-1.07h0a1.8,1.8,0,0,1,1.86,1.51,15.17,15.17,0,0,1,.12,3.57l0,.6c0,1.06-.05,2.09-.09,3.11a1.67,1.67,0,0,1-.75,1.3,1.86,1.86,0,0,1-1.06.36,1.63,1.63,0,0,1-1.53-1.09,7.13,7.13,0,0,1-.55-2.14l-5.57-2.45Zm5.89,10.56h-.29l-.49-.18a1.58,1.58,0,0,1-.86-1.17,2.62,2.62,0,0,1-.06-.75l.1-1.22c0-.3,0-.45,0-.61a1.87,1.87,0,0,1,1.22-1.94l.61-.1a2,2,0,0,1,1.4.59,2.44,2.44,0,0,1,.7,3l-.29.5a8.87,8.87,0,0,0-.43.79A1.74,1.74,0,0,1,330.36,154.24ZM336.85,182c-.08,1.85-.09,3.86-.05,6.32a8.24,8.24,0,0,1-.29,2l-.06.27a2.62,2.62,0,0,1-.63,1.1,1.89,1.89,0,0,1-1.43.75,1.76,1.76,0,0,1-1.2-.49,4.06,4.06,0,0,1-1.38-3.11c0-1.22.08-2.44.15-3.65a14.67,14.67,0,0,0-.1-3.28,21.2,21.2,0,0,1-.29-4.67,40.49,40.49,0,0,0-.22-6.19,16.16,16.16,0,0,1,.19-4.76,7.27,7.27,0,0,0,.08-2.36,10.58,10.58,0,0,1,0-2.72,3.64,3.64,0,0,0-.08-1c-.17-1.08-.27-1.94-.37-2.8l-.07-.65a2.06,2.06,0,0,1,.23-1.18,2.51,2.51,0,0,1,.85-1.09,2.32,2.32,0,0,1,2.48-.14,2.37,2.37,0,0,1,1.3,2c.15,2.51.29,5,.43,7.56,0,.26,0,.52,0,.79a5.8,5.8,0,0,0,.18,1.65,3.34,3.34,0,0,1,.14,1.3,93.12,93.12,0,0,0,.16,9.87l0,1.81C336.88,180.35,336.88,181.18,336.85,182Zm.86-50.53a9,9,0,0,1-.16.9,3.07,3.07,0,0,1-.61,1.24,10.12,10.12,0,0,1-2.69,2.37l-.31.18-.6.06a2,2,0,0,1-2-1.49l-.09-.45a8.07,8.07,0,0,0-.21-.92.45.45,0,0,0-.4-.36,4.36,4.36,0,0,1-1.53-.46,2.11,2.11,0,0,1-1-1.69,2.08,2.08,0,0,1,.76-1.82l.21-.17.45-.36.56-.4.71-.51a3.9,3.9,0,0,1,.64-2.8,2.18,2.18,0,0,1,3.64-.19,2.46,2.46,0,0,1,.56,1.16,3.61,3.61,0,0,0,1.12,2,4.43,4.43,0,0,1,1.07,3.11Zm9.66,10.09a1.76,1.76,0,0,1-1.06.38l-.54-.1a1.67,1.67,0,0,1-1-1.28c-.05-.26-.09-.55-.13-.8l0-.62.07-.52a2,2,0,0,1,2-1.59l.56.09a1.94,1.94,0,0,1,1.36,1.5A2.78,2.78,0,0,1,347.38,141.57Z"/><path class="cls-2" d="M335.18,130.71a1.73,1.73,0,0,0-.37-1.11c-.08-.08-.16-.2-.24-.29a1,1,0,0,0-1.32.35,1.88,1.88,0,0,0,.08,1.84,1.4,1.4,0,0,0,1.36.5,1.54,1.54,0,0,0,.26-.12,5.53,5.53,0,0,0,.17-.78Z"/><path class="cls-2" d="M197.23,190.78a2.12,2.12,0,0,0,.71.12,1.93,1.93,0,0,0,1.9-1.47l.09-.66v-.16a2.57,2.57,0,0,0-.06-.47,1.89,1.89,0,0,0-1.43-1.52l-.41,0a1.8,1.8,0,0,0-1.7,1.19,6.75,6.75,0,0,0-.28.87A1.78,1.78,0,0,0,197.23,190.78Zm.8-2.48h.08a.47.47,0,1,1-.08.9l-.16,0a1.66,1.66,0,0,1-.58-.34A.72.72,0,0,1,198,188.3Z"/><path class="cls-2" d="M200.69,204.43a2,2,0,0,0,.54-2c-.28-.81-.52-1.64-.78-2.57a1.75,1.75,0,0,0-1.72-1.29l-.53.07-.73.3-.21.22a3.28,3.28,0,0,0-.67,3.65,5.5,5.5,0,0,0,1.18,1.69,2,2,0,0,0,2.92,0Z"/><path class="cls-2" d="M314,154.83l-.35-.13-1,.06-.39.42a1.79,1.79,0,0,0-.44,1.37,2.18,2.18,0,0,0,.52,1.43l.48.45h.56l.66,0,.39-.41a1.81,1.81,0,0,0,.47-1.32l0-.56A1.62,1.62,0,0,0,314,154.83Zm-.88,2-.2.43a1.15,1.15,0,0,1-.52-.48h-.1a.58.58,0,0,1,0-.21.6.6,0,0,1,0-.08h0a1.06,1.06,0,0,1,.2-.31l.32.36.36,0-.24.12Z"/><path class="cls-2" d="M187.71,159a4.66,4.66,0,0,0,.57,3.57,1.74,1.74,0,0,0,1.51.83,1.81,1.81,0,0,0,1.08-.35,2.82,2.82,0,0,0,1.16-2.27l0,0,0-.56c0-.08,0-.29-.06-.49a2.25,2.25,0,0,0-.38-1,3,3,0,0,0-.71-.82,2.45,2.45,0,0,0-1.42-.55l-.52.09A2.18,2.18,0,0,0,187.71,159Z"/><path class="cls-2" d="M190.09,165.65h-.17a2.35,2.35,0,0,0-2.11,1.68c-.06.26-.12.53-.17.8l-.13.66.1.57c.05.29.11.58.18.88a2.25,2.25,0,0,0,2,1.67l.53-.09a2.62,2.62,0,0,0,1.25-.89,4.05,4.05,0,0,0,.74-2.69A3.37,3.37,0,0,0,192,167,2.38,2.38,0,0,0,190.09,165.65Z"/><path class="cls-2" d="M188.84,140.51a1.78,1.78,0,0,0,1.3.61,1.58,1.58,0,0,0,1.52-1.5,2.51,2.51,0,0,0-.15-1.3l-.1-.19a2,2,0,0,0,.15-.61,1.79,1.79,0,0,0-.29-1.14,1.87,1.87,0,0,0-1.58-.88l-.55.08A1.78,1.78,0,0,0,188,136.7a2.67,2.67,0,0,0-.08,1.16l-6.62,3.43,7.24-1.22A1.62,1.62,0,0,0,188.84,140.51Z"/><polygon class="cls-2" points="190.84 152.45 189.7 152.53 189.1 154.36 190.18 155.35 190.7 155.35 192.47 154.9 191.93 152.49 190.84 152.45"/><path class="cls-2" d="M179.51,189.06l-.68.12a1.92,1.92,0,0,0-1.26,1.58,1.89,1.89,0,0,0,1.1,2,3,3,0,0,0,1.27.26H180l.71-.17.34-.46a2.75,2.75,0,0,0,.49-1.88A2,2,0,0,0,179.51,189.06Zm.25,2.57-.24-1.19.2-.06a.77.77,0,0,1,.45.7A.68.68,0,0,1,179.77,191.64Z"/><path class="cls-2" d="M197,164.39a2,2,0,0,0,2-1.55,2.75,2.75,0,0,0,.16-1c0-.64-.08-1.27-.15-2a2.13,2.13,0,0,0-1.79-2l-.84-.09a1.94,1.94,0,0,0-1.37.45,1.78,1.78,0,0,0-.25,2.27c.07.15.16.3.24.44a1.94,1.94,0,0,1,.24.52l-.14.43a2.16,2.16,0,0,0-.07.63,1.9,1.9,0,0,0,1.24,1.74A2.1,2.1,0,0,0,197,164.39Z"/><path class="cls-2" d="M305.61,114.26a3.12,3.12,0,0,1,.08-1.94,2.66,2.66,0,0,0,.13-2.26,5.37,5.37,0,0,1-.34-2.39v-.54a3,3,0,0,0-.06-.51,2.45,2.45,0,0,0-1.2-1.78l.39-3.37-.13,0,.06-.9c.14-2.19.29-4.38.42-6.58a9.2,9.2,0,0,0-.25-2.74,3.43,3.43,0,0,0-.65-1.36,2.49,2.49,0,0,0-.29-.93l.15-.18a2.45,2.45,0,0,0,.4-2.18,1.87,1.87,0,0,0-1.86-1.49,1.7,1.7,0,0,0-1.24.53,1.82,1.82,0,0,0-.44,1.45,5.5,5.5,0,0,1,0,1.31l-.19.44,0,.24-.18.7.22.12a1.69,1.69,0,0,0,.59,1.07c-.07.26-.14.51-.23.77a4.24,4.24,0,0,0-.14,2.2,6.54,6.54,0,0,1,.09,1.31,3.9,3.9,0,0,1-.05.49,4.61,4.61,0,0,0-.05,1.28,4.5,4.5,0,0,0,.36,1.16,2.78,2.78,0,0,1,.17.46,3.23,3.23,0,0,1,.05.66,4.24,4.24,0,0,0,.38,1.93l.57.73h.74l-2.84,1.18,2.25,1.62a2.46,2.46,0,0,0-1.23,1.13,2.67,2.67,0,0,0-.28,2.19,4.93,4.93,0,0,1,.34,1.84l0,.31a10.7,10.7,0,0,0,0,2.35,9.23,9.23,0,0,1-.06,2.75,6.67,6.67,0,0,0,.07,2.46l.17.81c.11.53.22,1.06.37,1.59a2.82,2.82,0,0,1-.14,1.88,8.52,8.52,0,0,0-.41,1.91l-.11.74.07.49a2.68,2.68,0,0,0,.29,1.07,2.43,2.43,0,0,0,1.28,1.05l.61.1a1.7,1.7,0,0,0,1.7-1.37,19.9,19.9,0,0,0,.44-5,4.5,4.5,0,0,1,.33-1.81,4.83,4.83,0,0,0,.11-3.18A17.66,17.66,0,0,1,305.61,114.26Z"/><path class="cls-2" d="M217.17,206.21l-.49-.71a2.21,2.21,0,0,0-1.55-.69,2,2,0,0,0-1.78,1.18,3.59,3.59,0,0,0-.05,3.48,2,2,0,0,0,1.87,1.1h0a1.73,1.73,0,0,0,1.27-.88,7.33,7.33,0,0,0,.85-2.31,2,2,0,0,0,0-.84Z"/><path class="cls-2" d="M221.53,54.6a5.72,5.72,0,0,0,1.12,3.34.82.82,0,0,1,.09.86,4.22,4.22,0,0,0-.25,2.07A3.25,3.25,0,0,0,223,62.1a1.94,1.94,0,0,0,1.6.84,1.9,1.9,0,0,0,1.49-.71,3.8,3.8,0,0,0,.74-3.9,2.34,2.34,0,0,1-.16-1.76A5.8,5.8,0,0,0,227,55.5L227,55l0-.56a8.07,8.07,0,0,0-.09-.94,2.41,2.41,0,0,0-1.43-1.92l-1.84-.73-.56-.1A2.26,2.26,0,0,0,221,52.61a3.13,3.13,0,0,0,.39,1.68C221.44,54.41,221.52,54.57,221.53,54.6Zm2.8-.66v0a5.56,5.56,0,0,1,.06.62l0,.27,0,.2c0,.14,0,.27-.07.41a2.62,2.62,0,0,1-.14-.85,2.57,2.57,0,0,0-.13-.79Z"/><path class="cls-2" d="M311.23,86.56a2.48,2.48,0,0,0-1.1-1.9,3.73,3.73,0,0,0-2.8-.62l-.32,0-1.11.71v.76a4.2,4.2,0,0,0,2.24,3.37,2.15,2.15,0,0,0,.79.15,2,2,0,0,0,1.29-.47A2.58,2.58,0,0,0,311.23,86.56Z"/><polygon class="cls-2" points="214.04 49.59 208.49 50.87 213.25 53.61 214.04 49.59"/><path class="cls-2" d="M314.86,143.6a2.13,2.13,0,0,0-.69-.83l-.09-.07a2.29,2.29,0,0,0,1-1.62c0-.22.06-.45.11-1l0-.14-.06-.57c-.05-.48-.11-1-.21-1.55a3.09,3.09,0,0,0-.58-1.2,1.84,1.84,0,0,0-3.12,0l-.33.59c-.15.27-.3.53-.45.82a3,3,0,0,0-.16,2.18,2.93,2.93,0,0,0,.16.5c.17.38.34.76.55,1.15a2.46,2.46,0,0,0,.75.87,2.05,2.05,0,0,0-.52.65,3.94,3.94,0,0,0-.33,1.72,6.78,6.78,0,0,1-.06.83,8.32,8.32,0,0,0,.22,4.29,3.38,3.38,0,0,1,.07.62,7.1,7.1,0,0,0,.08.83,11.89,11.89,0,0,0,.43,1.7,1.69,1.69,0,0,0,1.6,1.25l.64-.07.34-.24a1.87,1.87,0,0,0,.72-.95,4.83,4.83,0,0,0,.05-2.32,1.23,1.23,0,0,1,0-.35,15.63,15.63,0,0,0,.58-2.09,6.44,6.44,0,0,0-.16-3.49Z"/><path class="cls-2" d="M199.7,210.08l-.53.08a1.76,1.76,0,0,0-1.23,2.23,3.12,3.12,0,0,0,.14.45,1.85,1.85,0,0,0,1.69,1.25l.43-.06a1.8,1.8,0,0,0,1.27-2l-.1-.51A1.71,1.71,0,0,0,199.7,210.08Zm.2,2.6-.13-.81v-.41a1.51,1.51,0,0,1,.7.22A.91.91,0,0,1,199.89,212.68Z"/><path class="cls-2" d="M206,120.62l-.08-.26c-.18-.59-.2-.74-.12-.86l.18-.4a9.7,9.7,0,0,0,.07-4,1.91,1.91,0,0,0-1.41-1.53l1.13-2,1.59.6-1.73-2.76.09-.26-.81-1.17-1.3.08-.19.15h-1.63l.7,1.12-.88,1.23.41,0,1,3.17a1.83,1.83,0,0,0-.66,1,8.3,8.3,0,0,0-.15,3.12l0,.21v.77c0,.61,0,1.17,0,1.74a4.17,4.17,0,0,0,.2,1.13,1.67,1.67,0,0,0,1.14,1.05l.63.11a1.85,1.85,0,0,0,1.48-.73A1.75,1.75,0,0,0,206,120.62Zm-2-11.09-.06,0,.07-.12.1.15Z"/><path class="cls-2" d="M208,139.41l.6-.09a2,2,0,0,0,1.37-1.42l.05-.27a2.25,2.25,0,0,0,0-.62,3.62,3.62,0,0,0-.83-2.12,1.93,1.93,0,0,0-.53-.46l.5-.45.07-.52,0-.67-.93-2.32-1.87,2.06-.08,1.06.43,1.06a1.72,1.72,0,0,0-.37.46,3,3,0,0,0,.16,3.65A2,2,0,0,0,208,139.41Z"/><path class="cls-2" d="M312.28,108.26a2.09,2.09,0,0,0,.73-.13c.58-.21,1.3-.74,1.45-2.3a2,2,0,0,0-.46-1.67,2.3,2.3,0,0,0-2.89-.55l-.37.22a2.28,2.28,0,0,0-1,1.55,2.23,2.23,0,0,0,.41,1.74,3.07,3.07,0,0,0,.52.52A2.63,2.63,0,0,0,312.28,108.26Zm0-2.6h.07a.41.41,0,0,1,0,.09l.11.1a.55.55,0,0,1-.18.07l-.1.09-.08-.12-.11,0,0-.06.05,0-.13-.19a.6.6,0,0,1,0-.12s0,.07,0,.1l-.4-.61Z"/><path class="cls-2" d="M208.33,145.23l-.94.06-.38.37a1.52,1.52,0,0,0-.41,1.67,1.59,1.59,0,0,0,1.55,1l.61-.09,1.61-.94-1.2-1.79Zm.52,2.3-.49-.67.08-.06-.29-.5v-.64a1.09,1.09,0,0,1,.87.71A1.11,1.11,0,0,1,208.85,147.53Z"/><path class="cls-2" d="M332,153.11a8.87,8.87,0,0,1,.43-.79l.29-.5a2.44,2.44,0,0,0-.7-3,2,2,0,0,0-1.4-.59l-.61.1a1.87,1.87,0,0,0-1.22,1.94c0,.15,0,.31,0,.61l-.1,1.22a2.62,2.62,0,0,0,.06.75,1.58,1.58,0,0,0,.86,1.17l.49.18h.29A1.74,1.74,0,0,0,332,153.11Z"/><path class="cls-2" d="M175.71,135l-.42-.15H175a1.74,1.74,0,0,0-1.59,1.07,2.35,2.35,0,0,0-.13,1.18,2,2,0,0,0,.94,1.82l.43.23H175a1.91,1.91,0,0,0,1.76-1.84V137a4.44,4.44,0,0,0,0-.78A1.61,1.61,0,0,0,175.71,135Zm-1.08,2.39a1,1,0,0,1-.4-.48.92.92,0,0,1,.79-.4Z"/><path class="cls-2" d="M156.29,113.1l-.59.08a1.76,1.76,0,0,0-1.19,1,1.69,1.69,0,0,0,.07,1.49,1.86,1.86,0,0,0,1.67,1.07l.64-.11a1.86,1.86,0,0,0,1.07-1,1.79,1.79,0,0,0-1.66-2.5Zm.62,2.11a.88.88,0,0,1-.53.5l-.09-1.3v1.31a.87.87,0,0,1-.75-.51.84.84,0,0,1,0-.66.78.78,0,0,1,.44-.43l.26,1.27v-1.31a.76.76,0,0,1,.68.38A.92.92,0,0,1,156.91,115.21Z"/><path class="cls-2" d="M336.85,177.56a93.12,93.12,0,0,1-.16-9.87,3.34,3.34,0,0,0-.14-1.3,5.8,5.8,0,0,1-.18-1.65c0-.27,0-.53,0-.79-.14-2.53-.28-5.06-.43-7.56a2.37,2.37,0,0,0-1.3-2,2.32,2.32,0,0,0-2.48.14,2.51,2.51,0,0,0-.85,1.09,2.06,2.06,0,0,0-.23,1.18l.07.65c.1.86.19,1.71.37,2.8a3.64,3.64,0,0,1,.08,1,10.58,10.58,0,0,0,0,2.72,7.27,7.27,0,0,1-.08,2.36,16.16,16.16,0,0,0-.19,4.76,40.49,40.49,0,0,1,.22,6.19,21.2,21.2,0,0,0,.29,4.67,14.67,14.67,0,0,1,.1,3.28c-.07,1.21-.13,2.43-.15,3.65a4.06,4.06,0,0,0,1.38,3.11,1.76,1.76,0,0,0,1.2.49,1.89,1.89,0,0,0,1.43-.75,2.62,2.62,0,0,0,.63-1.1l.06-.27a8.24,8.24,0,0,0,.29-2c0-2.46,0-4.46.05-6.32,0-.83,0-1.66,0-2.63Zm-2.78-10c-.07,1.23-.09,2.46-.08,3.67,0-.13,0-.26,0-.39a13.23,13.23,0,0,1,.1-3.63v0A.89.89,0,0,1,334.07,167.52Zm.12,9.86c0-.08,0-.17,0-.25l0,.57,0,1.7c0,.26,0,.51,0,.76A20.4,20.4,0,0,1,334.18,177.37Z"/><path class="cls-2" d="M153.55,117.68l-.34,0a2.52,2.52,0,0,0-1.27.38,1.87,1.87,0,0,0-.88,1.19,2.13,2.13,0,0,0,.3,1.65,2,2,0,0,0,.89.72l.45.14H153a2,2,0,0,0,1.92-1.35,2.28,2.28,0,0,0,.14-.86A1.83,1.83,0,0,0,153.55,117.68Z"/><path class="cls-2" d="M207.37,85.1a2.51,2.51,0,0,0,.84.15,1.84,1.84,0,0,0,1.89-1.6,1.76,1.76,0,0,0-1.4-1.9,3.22,3.22,0,0,0-1.31,0,1.74,1.74,0,0,0-1.23,1.34A1.78,1.78,0,0,0,207.37,85.1Zm.88-2.47h0a.88.88,0,0,1,.47,1,.66.66,0,1,1-1.24-.26A.84.84,0,0,1,208.25,82.63Z"/><path class="cls-2" d="M152.42,121.92h-.12a2.06,2.06,0,0,0-2.08,1.86,2.27,2.27,0,0,0,1.09,2.24,2.12,2.12,0,0,0,1.1.31,2.35,2.35,0,0,0,1.36-.46,2.71,2.71,0,0,0,.63-.63,1.88,1.88,0,0,0-.05-2.28A2.55,2.55,0,0,0,152.42,121.92Z"/><polygon class="cls-2" points="248.66 51.13 248.65 51.13 248.65 51.13 248.66 51.13"/><path class="cls-2" d="M204.7,84.65l-.56-.32h-.43l-.53.09a1.88,1.88,0,0,0-1.09,1,12.45,12.45,0,0,0-.7,4.76,19.48,19.48,0,0,0,.88,7.05,1.84,1.84,0,0,0,1,1.09l.36.13h.27a1.9,1.9,0,0,0,1.55-.88,3.5,3.5,0,0,0,.72-2.32,17.9,17.9,0,0,1,.08-3.83l0-.91c0-1.08-.1-2.32-.21-3.55A3.14,3.14,0,0,0,204.7,84.65Z"/><path class="cls-2" d="M322.9,67.34l-2-1.83v.06l-.46-.4c-2.41-2.09-4.93-4.09-7.5-6l-.58-.42h0l0,0a107,107,0,0,0-33.4-16L277,42.24l0,.1a104.38,104.38,0,0,0-16.56-3h0l-1.94-.18v0c-2.62-.21-5.07-.32-7.47-.35v0h-1.16A106.75,106.75,0,0,0,187.49,58.9v0l-1.43,1.06a108.17,108.17,0,0,0-43.68,86.51l0,2,.63.24.14.37a13.3,13.3,0,0,1,.5,1.48,1.22,1.22,0,0,1-.22,1.13l-1,.09.06,1.25c.09,2,.22,4,.39,5.92l.12,1.13a98.12,98.12,0,0,0,4.37,20.88l.09.26h0l.57,1.6c7.72,21.46,22.22,33.38,35,43.9,12.1,10,23.52,19.36,26.24,37.69l1.1,7.49c2.47,16.8,6.2,42.2,10.74,68.13l2.6-.36a.67.67,0,0,1-.05.27,1.63,1.63,0,0,1,.19-.26,3.86,3.86,0,0,0,.4-.59,6.26,6.26,0,0,0,.36-.87,4.41,4.41,0,0,0,.39,1.58,2.34,2.34,0,0,1,.14,1.26,3,3,0,0,0,.28,1.94,4.91,4.91,0,0,1,.42,1.55c.09.58.2,1.17.36,1.89a7.64,7.64,0,0,0,.69,4.19,1.14,1.14,0,0,1,0,.73,22.83,22.83,0,0,0-.7,6.27,3.36,3.36,0,0,1-.11.84,7.43,7.43,0,0,0,.1,3.34c.06.27.13.54.21.81a6.1,6.1,0,0,1,.17.69,7.34,7.34,0,0,1,.07.95v.24c0,.11-.05.22-.08.35l-.06.26,0,.26c8,46.44,15.58,89,15.64,89.33a7.87,7.87,0,0,0,15.51,0c1-5.82,25.38-143,32.38-190.25a47,47,0,0,1,1.32-6.07l.78-2.13-.14,0,.43-1.14c4.55-12,13.75-19.62,24.41-28.38C336,211,357.63,193.25,357.63,146.43A108,108,0,0,0,322.9,67.34Zm-4.72-.45a3.7,3.7,0,0,0,.17,1.1.94.94,0,0,1-.66.5l-.11-.8.21-.3-.25.05,0-.25v.26h0v-.79A1.22,1.22,0,0,1,318.19,66.89ZM276.71,47.35a9,9,0,0,0,.59-1.87l.09-.08.08-.09a15.92,15.92,0,0,1,0,2.3h-.91Zm.76,1.58v0h0Zm-18.63-3.44.17,0a1.17,1.17,0,0,1,.69-.34v.45h0v-.45h.13l0,.48.29,0,.18-.43a.26.26,0,0,1,.18.26.82.82,0,0,1-.52.55l.15-.37-.28,0,0,.38h-.06v-.37l0,.37a1,1,0,0,1-.68-.31l-.21,0a.6.6,0,0,1,.09-.18A.47.47,0,0,1,258.84,45.48Zm-7.72.26h0l-.06,0Zm-1.88,4.93a.74.74,0,0,1-.09.32.83.83,0,0,1-.49.14h0c-.51,0-.54-.24-.56-.38a.85.85,0,0,1,.12-.6.81.81,0,0,1,.53-.13h0a.77.77,0,0,1,.36.1A.86.86,0,0,1,249.23,50.67ZM173.51,75.18a.8.8,0,0,1,.39.18.49.49,0,0,1,.09.44.68.68,0,0,1-.51.49l-.1-1.11A.35.35,0,0,0,173.51,75.18Zm-8.1,9.19a.81.81,0,0,1-.06.4,1,1,0,0,1-.66.6Zm59.74,250.51h0c0-.2,0-.39.05-.6a6.37,6.37,0,0,0,0-1.1A2.83,2.83,0,0,1,225.16,334.89ZM354,161.42a3.83,3.83,0,0,0-2-2,2,2,0,0,0-.79-.18,1.62,1.62,0,0,0-1.58,1.32,3.56,3.56,0,0,0,.08,2.37c.15.37.34.72.52,1.08l.21.41a1.72,1.72,0,0,0,1.48,1.09,1.87,1.87,0,0,0,1.51-1l.15-.22c.09-.14.19-.28.29-.45-4.65,33-22.53,47.69-38.58,60.89-9.42,7.74-18.36,15.1-23.56,25.71a7.13,7.13,0,0,0-1.37-1.79,1.5,1.5,0,0,0-1.06-.41l-.67.11a2.13,2.13,0,0,0-1.32,1.4,4.21,4.21,0,0,0-.71-.49,2.47,2.47,0,0,0-3.44,1.75,2.6,2.6,0,0,0,2.75,3.32,2,2,0,0,0,1.67-.87,2.85,2.85,0,0,0,.24-.39c.13.52.28,1,.45,1.55a4.21,4.21,0,0,0,.23,3.41l.1.24a1.71,1.71,0,0,0,.12.26,49.46,49.46,0,0,0-1.14,5.52c-7,47.2-31.34,184.36-32.38,190.22a5.25,5.25,0,0,1-10.34,0c-.06-.35-7.59-42.72-15.59-89l.12-.27,0-.75a9.88,9.88,0,0,0-.1-1.29,8.91,8.91,0,0,0-.24-1c-.06-.2-.12-.4-.16-.61a4.93,4.93,0,0,1-.12-2.2,5.84,5.84,0,0,0,.18-1.54,20.25,20.25,0,0,1,.62-5.56,3.73,3.73,0,0,0-.18-2.42,5,5,0,0,1-.49-2.78,2.91,2.91,0,0,0-.1-1.41,6.7,6.7,0,0,1-.27-1.25,7,7,0,0,0-.7-2.39,2,2,0,0,1,0-.39,4.93,4.93,0,0,0-.35-2.64,2.14,2.14,0,0,1-.07-1.47,6.61,6.61,0,0,0,.14-.82,2.88,2.88,0,0,1,.11-.59,5.71,5.71,0,0,0,.11-3.53,56.64,56.64,0,0,1-1.26-7.16,1.64,1.64,0,0,0-1.81-1.35,1.69,1.69,0,0,0-1.41,1.22,7.65,7.65,0,0,0-.22,1.41,6.45,6.45,0,0,1-.69,3,3.4,3.4,0,0,0-.2.82c-3.81-22.56-7-44-9.12-58.74L211.9,264C209,244.68,197.23,235,184.73,224.69c-12.88-10.59-26.18-21.54-33.74-41.53a2.09,2.09,0,0,0,.52-.68,1.84,1.84,0,0,0,0-1.65,10.56,10.56,0,0,0-.66-1.11,1.91,1.91,0,0,0-1.34-.81q-1.1-3.48-1.93-7.21h.28l.26-.05a2.14,2.14,0,0,0,1.09-.48,2.87,2.87,0,0,0,.89-3.13,3.2,3.2,0,0,0-1.7-1.85,2.2,2.2,0,0,0-1.89,0q-.45-2.75-.77-5.61l.25-.17,0-1.35-.22-.37a3.28,3.28,0,0,0-.31-.44c-.13-1.49-.23-3-.31-4.6a3.87,3.87,0,0,0,1-3.75,15.72,15.72,0,0,0-.6-1.78l-.23-.59a2,2,0,0,0-.39-.65v-.46a105.21,105.21,0,0,1,19.05-60.15l.53.06a1.57,1.57,0,0,0,1.54-1.64,2,2,0,0,0-.2-1q2.7-3.62,5.71-7a2.45,2.45,0,0,0,.65.77,2,2,0,0,0,1.15.37,2.15,2.15,0,0,0,1.93-2.13,1.92,1.92,0,0,0-.58-1.37,2.21,2.21,0,0,0-.59-.43,104.94,104.94,0,0,1,12.3-11,2.77,2.77,0,0,0,.36.2l.5.18h.29a1.68,1.68,0,0,0,1.63-1.33c.09-.33.16-.66.27-1.14v-.12a105.84,105.84,0,0,1,12.2-7.45l.08.14a1.71,1.71,0,0,0,.6.59l.21.17.73.14a1.84,1.84,0,0,0,1.32-.58,2.62,2.62,0,0,0,.7-1.88,2,2,0,0,0,0-.38,104,104,0,0,1,43.1-10,11.56,11.56,0,0,0,.17,2.06l.06.42a4.57,4.57,0,0,0,.17.76,4.17,4.17,0,0,0-.61.23,1.89,1.89,0,0,0-.87.85,2.55,2.55,0,0,0,0,2.29l.44.67a2.36,2.36,0,0,0-1.22,1.76,1.85,1.85,0,0,0,.51,1.37,2.28,2.28,0,0,0,1.56.8,2.1,2.1,0,0,0,1.5-.75,1.88,1.88,0,0,0,.52-1.48,2.4,2.4,0,0,0-1.29-1.73,3,3,0,0,0,.61-.24,2,2,0,0,0,1.06-1.3L258.15,50l-5.56-4.7h0l0,0a10.54,10.54,0,0,0,.2-1.3l0-.38a5.32,5.32,0,0,0-.15-2.08c1.55,0,3.14.12,4.79.24a4.23,4.23,0,0,0,.2,1,1.94,1.94,0,0,0,1,1.11,1.83,1.83,0,0,0-.77,1.14,2.37,2.37,0,0,0,0,.93,2.33,2.33,0,0,0,1.37,1.81l.58.12c.35,0,1.51-.15,1.62-2.25a3.73,3.73,0,0,0,0-.43,1.79,1.79,0,0,0-.88-1.4,1.8,1.8,0,0,0,.74-1.06c0-.17.09-.35.13-.57a101.47,101.47,0,0,1,13.39,2.41,1.61,1.61,0,0,0-.11.44,6.2,6.2,0,0,1-.45,1.44,7,7,0,0,0-.64,2.57v1l1,.24.31.08a1.65,1.65,0,0,0,.15,1.14c.36.71,1,.84,2.62.84l.44,0a1.62,1.62,0,0,0,1.18-1.89l-.17-.51a3.06,3.06,0,0,0,.6-.82,2.3,2.3,0,0,0,.31-1,19.81,19.81,0,0,0,.06-2.18,104.34,104.34,0,0,1,30.32,14.79,1.71,1.71,0,0,0,1.37,1c1.85,1.35,3.67,2.78,5.44,4.26a1.69,1.69,0,0,0-1.22.86,1.72,1.72,0,0,0,0,1.57,1.67,1.67,0,0,0,1.43,1l.38-.05a1.8,1.8,0,0,0,.75-.43l.14.46.31,1a4.68,4.68,0,0,0,.44,1,2,2,0,0,0,1.81,1h0A1.75,1.75,0,0,0,323,71a105.31,105.31,0,0,1,32,75.4,127.12,127.12,0,0,1-.89,15.36A2.49,2.49,0,0,0,354,161.42Z"/><path class="cls-2" d="M335.59,125.78a2.46,2.46,0,0,0-.56-1.16,2.18,2.18,0,0,0-3.64.19,3.9,3.9,0,0,0-.64,2.8l-.71.51-.56.4-.45.36-.21.17a2.08,2.08,0,0,0-.76,1.82,2.11,2.11,0,0,0,1,1.69,4.36,4.36,0,0,0,1.53.46.45.45,0,0,1,.4.36,8.07,8.07,0,0,1,.21.92l.09.45a2,2,0,0,0,2,1.49l.6-.06.31-.18a10.12,10.12,0,0,0,2.69-2.37,3.07,3.07,0,0,0,.61-1.24,9,9,0,0,0,.16-.9l.07-.58a4.43,4.43,0,0,0-1.07-3.11A3.61,3.61,0,0,1,335.59,125.78Zm-.64,6.1v0a9.76,9.76,0,0,1-1.23,1.25c0-.21-.1-.42-.17-.63a3,3,0,0,0-2.26-2.09l.27-.19.81-.58a2.43,2.43,0,0,0,.9-2.27.82.82,0,0,1,0-.2,6.36,6.36,0,0,0,1.32,2.09h0a1.71,1.71,0,0,1,.93,1.56A1,1,0,0,1,335,131.88Z"/><path class="cls-2" d="M347.26,137.13l-.56-.09a2,2,0,0,0-2,1.59l-.07.52,0,.62c0,.25.07.55.13.8a1.67,1.67,0,0,0,1,1.28l.54.1a1.76,1.76,0,0,0,1.06-.38,2.78,2.78,0,0,0,1.24-2.94A1.94,1.94,0,0,0,347.26,137.13Z"/><polygon class="cls-2" points="167.05 113.58 167.12 114.67 168.35 116.72 169.55 115.18 170.16 114 168.68 111.43 167.05 113.58"/><path class="cls-2" d="M175.74,81.93l-.06.11a1.81,1.81,0,0,0-.06,1.3,1.85,1.85,0,0,0,1.51,1.38l.28,0A1.68,1.68,0,0,0,179,83.32l0-.86-.09-.25a1.86,1.86,0,0,0-.42-.67,2.56,2.56,0,0,0,.57-1.24c.15-1.1.29-2.2.42-3.27l.18-1.47a2.62,2.62,0,0,0-1.31-2.6,1.89,1.89,0,0,0-1-.29,1.59,1.59,0,0,0-1.54,1.21,7.2,7.2,0,0,0-.27,1.89,6.66,6.66,0,0,1-.09,1c-.13.66-.28,1.32-.44,2l-.24,1.06A1.93,1.93,0,0,0,175,81,2.14,2.14,0,0,0,175.74,81.93Zm.73.9h0a.83.83,0,0,1,.36-.52H177a2.05,2.05,0,0,0,.73-.13.77.77,0,0,1,.41.39.85.85,0,0,1-.06.56.9.9,0,0,1-.52.49l-.22-1.28v1.31a.89.89,0,0,1-.83-.58A.54.54,0,0,1,176.47,82.83Z"/><path class="cls-2" d="M331.8,147.76a1.63,1.63,0,0,0,1.53,1.09,1.86,1.86,0,0,0,1.06-.36,1.67,1.67,0,0,0,.75-1.3c0-1,.06-2.05.09-3.11l0-.6a15.17,15.17,0,0,0-.12-3.57,1.8,1.8,0,0,0-1.86-1.51h0a1.85,1.85,0,0,0-1.81,1.07,3.91,3.91,0,0,0-.38,1.69,10,10,0,0,0,.27,2.24,1.88,1.88,0,0,1,.06.91,4.26,4.26,0,0,0-.12,1.06l-3.76-3.77,1.56-2.7-1.88.8h0a14.5,14.5,0,0,0-.09-4.12,2.84,2.84,0,0,1,.08-.68l.07-.44c0-.12.05-.24.08-.36a3.61,3.61,0,0,0,.11-1.66,2.13,2.13,0,0,0-1.2-1.46,2.06,2.06,0,0,0-2,.06,2.37,2.37,0,0,0-1.13,2.12,6.28,6.28,0,0,0,.66,2.56A6.68,6.68,0,0,0,323,138a5.44,5.44,0,0,1-.34,1.3,2.44,2.44,0,0,0,1.19,3.05l.6.28,0,1.06,1.22-.52,5.57,2.45A7.13,7.13,0,0,0,331.8,147.76Z"/><polygon class="cls-2" points="202.58 103.17 202.03 105.32 205.88 105.2 203.75 100.05 202.58 103.17"/><path class="cls-2" d="M178.67,84.27l-.32.2a3,3,0,0,0-.93,1,2.42,2.42,0,0,0,.28,3,1.77,1.77,0,0,0,1.3.6,1.71,1.71,0,0,0,1.48-.89,3.27,3.27,0,0,0,.54-1.49,2.59,2.59,0,0,0-.69-1.85,1.65,1.65,0,0,0-1.21-.56Z"/><path class="cls-2" d="M175.52,134.23l2.88,2.16.33-2.18.09-1.23a1.58,1.58,0,0,0,.73-.8,9.84,9.84,0,0,0,.37-1.12l.11-.36-.16-.65c-.05-.22-.1-.41-.16-.59a1.71,1.71,0,0,0-1.65-1.25l-.55.08a1.93,1.93,0,0,0-1.46,1.3,3.1,3.1,0,0,0-.08.33,1.81,1.81,0,0,0-1.25-.49l-.51.07a2,2,0,0,0-1.45,1.25,4.46,4.46,0,0,0-.2.94v.45l0,.21a3.62,3.62,0,0,0,.16.79,2,2,0,0,0,1.87,1.29A2,2,0,0,0,175.52,134.23Z"/><path class="cls-2" d="M323.27,95.29a23.06,23.06,0,0,0,.1-4.11l0-1.25a12.56,12.56,0,0,1,.3-3.56,5.44,5.44,0,0,0,.15-1l-1.3-.25,1.31,0a17.69,17.69,0,0,0-.81-4.47,1.81,1.81,0,0,0-.66-.9,1.79,1.79,0,0,0-.7-.36l.8-1.15-1.53-2.54-1.68,1.91,0,.47a1.58,1.58,0,0,0,.29,1l.39.81a1.65,1.65,0,0,0-.23.32,5.41,5.41,0,0,0-.61,1.25,10.16,10.16,0,0,0-.34,3.62c.1,1.31.18,2.62.26,3.93a1,1,0,0,1,0,.11h-.19c-.33,0-.66,0-1,0a2.36,2.36,0,0,0-2.12,2.29,2.39,2.39,0,0,0,.36,1.56A2.2,2.2,0,0,0,317.45,94a3.66,3.66,0,0,0,1.5,0V94c.07.35.13.7.22,1a3.62,3.62,0,0,0,.52,1.12,1.86,1.86,0,0,0,1.58.84l.39,0A1.8,1.8,0,0,0,323.27,95.29Z"/><path class="cls-2" d="M197.31,176.47a1.73,1.73,0,0,0-1.13,2.26,2.23,2.23,0,0,0,1.93,1.49l.55-.1a1.64,1.64,0,0,0,.94-1,2.32,2.32,0,0,0-.11-1.86,1.73,1.73,0,0,0-1.54-.92ZM198,179a.9.9,0,0,1-.78-.47.32.32,0,0,1,0-.31,1,1,0,0,1,.57-.54l.24.75Z"/><path class="cls-2" d="M201.56,77.65c.25.24.27.43.22.86a12.17,12.17,0,0,0-.16,1.48,3,3,0,0,0,.69,2,1.8,1.8,0,0,0,1.11.69l.28,0a1.78,1.78,0,0,0,1.72-1.3,6.23,6.23,0,0,0,.14-2.69l0-.44c0-.54-.09-1.12-.14-1.68A2.68,2.68,0,0,0,202,73.92,1.7,1.7,0,0,0,200.55,76,3,3,0,0,0,201.56,77.65Zm2.6,2.51a.79.79,0,0,1,.19.14l-1,.81Z"/><polygon class="cls-2" points="188.72 127.66 187.9 128.98 188.1 129.63 188.55 130.34 189.81 130.81 190.38 130.4 189.83 129.32 190.62 130.24 191.79 129.5 190.54 127.79 189.72 127.59 188.72 127.66"/><path class="cls-2" d="M222.49,79.78a13,13,0,0,1,.05,3.65,4.59,4.59,0,0,0,0,1.68,5.2,5.2,0,0,0,.63,1.42,1.79,1.79,0,0,0,1.61.85,2,2,0,0,0,1.69-.85,2.34,2.34,0,0,0,.54-1.22,39.29,39.29,0,0,0,0-8.15,5.33,5.33,0,0,1,0-1.58c.07-.36.11-.71.16-1.12l.11-.87-.1-.56c-.08-.46-.17-1-.31-1.54a3.58,3.58,0,0,0-.57-1.09,2.08,2.08,0,0,0-1.7-.93h0a2,2,0,0,0-1.76,1,16,16,0,0,0-1.39,3.13,3.62,3.62,0,0,0,.39,3.19,2.67,2.67,0,0,1,.46,1C222.35,78.47,222.42,79.12,222.49,79.78Zm1.74,5.36a.94.94,0,0,1,.17-.2s0,.08,0,.13a.61.61,0,0,1,0-.14l.09-.07,1.08.64Zm-.28-10.67c.19-.58.39-1.07.59-1.52l.1.55,0,.17-.06.5c0,.34-.07.64-.13.94a6.62,6.62,0,0,0-.1.81c-.12-.22-.26-.44-.39-.65A.86.86,0,0,1,223.95,74.47Z"/><path class="cls-2" d="M185.83,73.94a5.62,5.62,0,0,0,.52,1.42,1.83,1.83,0,0,0,.64.74l-.07,0a2,2,0,0,0-.88,1.89,4,4,0,0,0,.93,2.16,1.85,1.85,0,0,0,1.4.68l.68-.07.37-.3a1.88,1.88,0,0,0,.64-1.25c0-.22,0-.43,0-.73l0-.63c0-.13-.05-.37-.1-.59a1.85,1.85,0,0,0-1.1-1.29l.19-.16a3,3,0,0,0,1-1.8c.07-.56.13-1.12.18-1.7l.07-1,0-.73c0-.67-.08-1.36-.2-2a3.74,3.74,0,0,0-1.17-2.15,1.92,1.92,0,0,0-2.48,0,5,5,0,0,0-1.09,1.85,4.54,4.54,0,0,1-.36.78,3,3,0,0,0,.4,3.74A2.23,2.23,0,0,1,185.83,73.94Zm1.27-3.44a5.57,5.57,0,0,0,.39-.75c0,.36.05.71.07,1.06l.06.54,0,.17a5,5,0,0,0-.34-.43C187,70.73,187.05,70.58,187.1,70.5Z"/><path class="cls-2" d="M292.56,123.92a2.13,2.13,0,0,0-.91,2.65,2,2,0,0,0,1.76,1.11,3.22,3.22,0,0,0,1.17-.22,1.74,1.74,0,0,0,1-2.28l-.27-.47a2.69,2.69,0,0,0-.57-.66A2,2,0,0,0,292.56,123.92Zm1.43,1.46a1.24,1.24,0,0,1,.1.33l-.95.33a1,1,0,0,1,.27-1A.65.65,0,0,1,294,125.38Z"/><path class="cls-2" d="M253.43,108.34l-.48,0-.26.12a7.88,7.88,0,0,0-1.27.73,2,2,0,0,0-.88,1.67,2.2,2.2,0,0,0,1,1.75,2.51,2.51,0,0,0,1.44.43,3.21,3.21,0,0,0,.74-.09,2.6,2.6,0,0,0,1.91-2.5A2.35,2.35,0,0,0,253.43,108.34Z"/><path class="cls-2" d="M250.65,65.37a1.87,1.87,0,0,0,1.66-1,3.23,3.23,0,0,0,.38-1.8,2.07,2.07,0,0,0-1.14-1.78l-.48-.17h-.3a2.35,2.35,0,0,0-2.27,1.94,2.72,2.72,0,0,0,.62,2.06A2,2,0,0,0,250.65,65.37Z"/><path class="cls-2" d="M247.58,72.27a2.18,2.18,0,0,0,1.89,1.15l.53,0,.28-.14a2.25,2.25,0,0,0,1.42-1.74,2.18,2.18,0,0,0-2-2.59h-.22a3.33,3.33,0,0,0-1,.2,1.77,1.77,0,0,0-1.24,2.18A3.94,3.94,0,0,0,247.58,72.27Z"/><path class="cls-2" d="M244.36,67.08l.34-1.2-.22-.06h-.23a1.73,1.73,0,0,0-1.19,3,2.58,2.58,0,0,0,1,.73l.56.1a1.84,1.84,0,0,0,1.61-1,1.72,1.72,0,0,0-.54-2.4,2.84,2.84,0,0,0-.87-.31l-.48,1.17a.94.94,0,0,1,.27,0l-.13,1.29.56-1.08a1,1,0,0,1,0,.54.83.83,0,0,1-.66.66l-.08-1.31-.29,1a.87.87,0,0,1-.11-.78A.73.73,0,0,1,244.36,67.08Z"/><path class="cls-2" d="M284.48,233.83l-.25,0a2.38,2.38,0,0,0-1.86,3.2,1.84,1.84,0,0,0,.93,1,2.45,2.45,0,0,0,.95.19,2.35,2.35,0,0,0,2.32-1.7,2,2,0,0,0-.38-1.77A2.18,2.18,0,0,0,284.48,233.83Z"/><path class="cls-2" d="M261.66,72.37a4.72,4.72,0,0,1,.15-.58,4,4,0,0,0-.28-3.11,4,4,0,0,0-.15-.48,1.84,1.84,0,0,0-1.7-1.26h-.21a1.91,1.91,0,0,0-1.16.72,3.18,3.18,0,0,0-.71,1.82,5.06,5.06,0,0,0,.25,2.12,2.38,2.38,0,0,1,.1,1.29,25.53,25.53,0,0,0-.34,5.87c.1,1.65.08,3.39.06,4.7a15.77,15.77,0,0,0,.27,4,6.46,6.46,0,0,1,.05,1.38l0,.74c0,1.24-.08,2.94-.13,3.3h0a4.33,4.33,0,0,0-.08.77c0,.33,0,.75-.05,1.07a25.94,25.94,0,0,0,.53,7.64,1.88,1.88,0,0,0,1.86,1.52h0a2,2,0,0,0,1.72-1.14l.3-.52,0-.35c.22-3.5.28-7.19.2-11.26a3.33,3.33,0,0,0-.22-1.27,3.54,3.54,0,0,1,0-2.3,13,13,0,0,0,.24-3.52c0-.43,0-.86,0-1.29,0-.62-.06-1.23-.05-1.85a18.3,18.3,0,0,1,.19-2.6,2.74,2.74,0,0,1,.2-.52,6.22,6.22,0,0,0,.31-.79,2.45,2.45,0,0,0-.12-1.73c-.28-.56-.6-1.1-.92-1.64Zm-1.31,3.81-.14.32q0-.58.07-1.17l.25.4A3.24,3.24,0,0,1,260.34,76.18Z"/><path class="cls-2" d="M292.72,191.62c0-.46.05-.91.08-1.37a21.19,21.19,0,0,0,0-3.57,14.9,14.9,0,0,1,.12-4,8.57,8.57,0,0,0-.1-2.87l0-.3a5.89,5.89,0,0,0-.42-1.38,4.45,4.45,0,0,1-.23-.62,4.66,4.66,0,0,1-.07-.81,7.83,7.83,0,0,0-.09-1.07,4.65,4.65,0,0,0-.56-1.4,1.15,1.15,0,0,1-.1-.58c0-.25,0-.51,0-.76a3.29,3.29,0,0,0,.41-.27h0a3.08,3.08,0,0,0,1.13-3.18,9.86,9.86,0,0,0-1.27-3,1.71,1.71,0,0,0-1.36-.72h0a1.73,1.73,0,0,0-1.5.82,4.53,4.53,0,0,0-.52,3.74,4.47,4.47,0,0,1,.16.74l0,.2-.84.32.8.8a3,3,0,0,0-.3,1.16l-.08,1.68c-.07,1.57-.15,3.13-.2,4.7,0,.63,0,1.27,0,1.9s0,1.12,0,1.68a11.29,11.29,0,0,0,.38,3.55,2.22,2.22,0,0,1-.05,1.23,8.82,8.82,0,0,0-.32,2.76c0,.52,0,1,0,1.58a1.75,1.75,0,0,1-.3.9c-.08.13-.15.27-.19.36a3,3,0,0,0,.69,3.65,2,2,0,0,0,1.4.55,2.12,2.12,0,0,0,2-1.5c.13-.47.24-1,.36-1.43a14.77,14.77,0,0,1,.63-2.22A3.49,3.49,0,0,0,292.72,191.62ZM290,172h0l.11.1Z"/><polygon class="cls-2" points="259.81 113.64 261.78 113.59 261.08 111.64 260 109.25 257.53 113.42 259.81 113.64"/><path class="cls-2" d="M259.7,108.37l.61-.15,1-.56,0-1.66-1.12-.89h-.49a1.56,1.56,0,0,0-1.54,1.51,1.65,1.65,0,0,0,1,1.63Zm.17-1.46H260l-.07-.08.06-.29-.06.08.34-.76a1,1,0,0,1,.56,1,1.07,1.07,0,0,1-1.07.86Z"/><path class="cls-2" d="M258.9,57.78a1.78,1.78,0,0,0-.89.7,2.13,2.13,0,0,0-.49,1.16c-.05.69,0,2,0,2l0,.28-.05,1.28a4.14,4.14,0,0,0,.12,1.18,2.21,2.21,0,0,0,1.26,1.45,2,2,0,0,0,.79.17,1.7,1.7,0,0,0,1.59-1,22.93,22.93,0,0,0,.86-2.28,2.65,2.65,0,0,0,.05-1.55c-.19-.69-.42-1.38-.72-2.27a1.75,1.75,0,0,0-1.3-1.11l.36-.19a2.27,2.27,0,0,0,.82-.73,5.76,5.76,0,0,0,.87-3.95,2.1,2.1,0,0,0-1.07-1.38,1.78,1.78,0,0,0-2.58.52l-.25.41a12.46,12.46,0,0,0-.79,1.43,3.08,3.08,0,0,0,.37,3.18A1.93,1.93,0,0,0,258.9,57.78Z"/><path class="cls-2" d="M251.34,90a2,2,0,0,0-1.24,1.72,2.19,2.19,0,0,0,1.15,2.25,5.22,5.22,0,0,0,.89.31l.42.07A2.77,2.77,0,0,0,254.89,93a2.09,2.09,0,0,0-1.28-3.25A3.92,3.92,0,0,0,251.34,90Z"/><path class="cls-2" d="M278.23,52.25l-.56.09a1.8,1.8,0,0,0-1.16.88c-.16.33-.29.67-.51,1.25l-.1.26,0,.67a6.77,6.77,0,0,0,.11,1.33c.2.94.46,1.86.74,2.77a1.75,1.75,0,0,0,1.67,1.28l.61-.12A1.82,1.82,0,0,0,280.13,59a9.15,9.15,0,0,1,.34-2.56,3.64,3.64,0,0,0-.73-3.44A1.91,1.91,0,0,0,278.23,52.25Z"/><path class="cls-2" d="M266.51,178.61a1.41,1.41,0,0,0,1,1.32l1.39.41.93-2.06-.51-.63C268.36,176.53,266.55,176.64,266.51,178.61Zm1.46,1a1.05,1.05,0,0,1-.73-.26l.72-.58.16.06.05-.18,1,0A1.17,1.17,0,0,1,268,179.58Z"/><path class="cls-2" d="M275.35,238.81l-.27,0a1.79,1.79,0,0,0-1.76,1.21,1.86,1.86,0,0,0,.21,1.59,2.17,2.17,0,0,0,1.73,1,1.79,1.79,0,0,0,1.7-1.12,1.83,1.83,0,0,0,.15-.87v-.33L277,240A2,2,0,0,0,275.35,238.81Zm.45,2a.83.83,0,0,1-.72.56h0a.61.61,0,0,1-.42-.31l.59-.29.56.08-.41-.16.44-.22-.74.1-.52-.2c.1-.28.35-.44.78-.48a.6.6,0,0,1,.43.25A.79.79,0,0,1,275.79,240.86Z"/><path class="cls-2" d="M254.75,167.12a3.35,3.35,0,0,0-2.94-1.75h-.17a2.27,2.27,0,0,0-1.64.8,3.24,3.24,0,0,0-.63,3,3,3,0,0,0,1.9,2.09,2.59,2.59,0,0,0,.84.14,2.56,2.56,0,0,0,.74-.11,3.22,3.22,0,0,0,2.17-3.1l-.12-.8Z"/><path class="cls-2" d="M269.61,86.13h-.19A2.75,2.75,0,0,0,267,88.59a2.63,2.63,0,0,0,.76,1.91,2.36,2.36,0,0,0,1.69.82,2.72,2.72,0,0,0,2.55-2.51A2.87,2.87,0,0,0,269.61,86.13Z"/><path class="cls-2" d="M244.57,85a1.82,1.82,0,0,0,.73.15l.44,0L246,85a1.71,1.71,0,0,0,1-1.22,1.65,1.65,0,0,0-1.65-2h-.1a1.77,1.77,0,0,0-1.75,1.63A1.65,1.65,0,0,0,244.57,85Zm1.07-2.4a1,1,0,0,1,.5,1,.85.85,0,0,1-.74.82l0-1.2Zm-.65,0a.82.82,0,0,1,.31-.06l-.2,1.28.27-.59V84.4a1,1,0,0,1-.71-.36.94.94,0,0,1-.22-.71A.91.91,0,0,1,245,82.59Z"/><path class="cls-2" d="M274.18,58.27a2.22,2.22,0,0,0,.47-1.45,4.69,4.69,0,0,0-.26-1.07,1.47,1.47,0,0,1-.13-.58,1.73,1.73,0,0,0-1.17-2.34l-.36,0a1.68,1.68,0,0,0-1.53,1.52,8.76,8.76,0,0,0,0,.93l-.06.45a4.7,4.7,0,0,0,.05,2.17,1.71,1.71,0,0,0,1.16,1.09l.48.07A1.58,1.58,0,0,0,274.18,58.27Z"/><path class="cls-2" d="M244.77,62.87h0a2.22,2.22,0,0,0,2.05-1.62,2.19,2.19,0,0,0-.65-2.28,2.64,2.64,0,0,0-.42-.32,2,2,0,0,0-2.09-.21,2.2,2.2,0,0,0-1.4,2,2.35,2.35,0,0,0,2.51,2.47Z"/><path class="cls-2" d="M241.06,179.49a2.64,2.64,0,0,0-2.89,1,2.77,2.77,0,0,0-.4,2.21,4.21,4.21,0,0,0,.15.43,3.18,3.18,0,0,0,2.88,1.79h0a2.72,2.72,0,0,0,2.26-2.72A3,3,0,0,0,241.06,179.49Z"/><path class="cls-2" d="M279.9,65.24a1.66,1.66,0,0,0-.83-1l-.54-.28h-.38a1.68,1.68,0,0,0-1.56,1.16,4.47,4.47,0,0,0,.41,4.07,1.82,1.82,0,0,0,1.62.94l.55-.08a1.83,1.83,0,0,0,1.36-1.83,7,7,0,0,0-.4-2.1C280,65.81,280,65.55,279.9,65.24Z"/><path class="cls-2" d="M235.06,54.64a3.65,3.65,0,0,0,.29.74,2,2,0,0,0,2,.94,1.66,1.66,0,0,0-.75.59,1.73,1.73,0,0,0-.29,1.51,1.88,1.88,0,0,0,1.82,1.4,1.84,1.84,0,0,0,.56-3.55l-.61-.1h-.22a1.68,1.68,0,0,0,.68-.49,9.25,9.25,0,0,0,1.1-1.84c.13-.25.25-.5.41-.79a2.37,2.37,0,0,0-.95-2.78,2.11,2.11,0,0,0-2.07,0,4,4,0,0,0-2.12,3.81Zm3.11,2.56h0a.79.79,0,0,1,.69.58.89.89,0,0,1-.15.7.76.76,0,0,1-.62.32l-.23,0a.8.8,0,0,1,.31-1.56Z"/><path class="cls-2" d="M231.93,93.64l.24.08,1-.16.34-.33a2.75,2.75,0,0,0,.85-1.87A2.3,2.3,0,0,0,233,89.2a2.46,2.46,0,0,0-2.92.93,2.17,2.17,0,0,0-.28,1.76,2.22,2.22,0,0,0,1.13,1.46A3.64,3.64,0,0,0,231.93,93.64Z"/><polygon class="cls-2" points="288.75 52.81 286.81 51.69 286.46 53.74 286.36 55.72 291.01 54.39 288.75 52.81"/><path class="cls-2" d="M301.6,59.88h.58l.66-.15a1.47,1.47,0,0,0,.86-1.23l.12-.51-.27-.45c-.08-.14-.17-.27-.26-.41l-.92-1.29-1.62,1.67-.05.52a1.7,1.7,0,0,0,.39,1.37Z"/><path class="cls-2" d="M287.81,158.31c.05,1.06.11,2.12.17,3.16a2.52,2.52,0,0,0,.18.78c0,.1.08.19.14.33a2.16,2.16,0,0,0,1.26,1.36l.62.13a2.1,2.1,0,0,0,1.94-1.79,39.49,39.49,0,0,0,.38-7.79,2.26,2.26,0,0,0-1.16-1.84l-.05-.4a4.42,4.42,0,0,0,0-.54,1.69,1.69,0,0,0-.84-1.23l-.5-.25h-.37a1.62,1.62,0,0,0-1.61,1.63c-.06,1.1-.09,2.2-.13,3.69l0,1.6h0v.09C287.78,157.48,287.79,157.82,287.81,158.31Z"/><polygon class="cls-2" points="299 205.76 303.65 203.93 299.58 201.15 299 205.76"/><path class="cls-2" d="M292.61,147.9a4.19,4.19,0,0,0-1.38,3,2,2,0,0,0,.24,1.06,2.71,2.71,0,0,0,2.37,1.27,2.25,2.25,0,0,0,1.29-.37,4.29,4.29,0,0,0,1.41-1.79,2.17,2.17,0,0,0,.16-.77l-.08-.67a2.78,2.78,0,0,0-.35-.91,3.53,3.53,0,0,0-.76-.81A2.22,2.22,0,0,0,292.61,147.9Z"/><path class="cls-2" d="M302.21,72l.7-.08.36-.29a1.61,1.61,0,0,0,.51-.73l.11-.26a1.82,1.82,0,0,0-1-2.22l-.51-.17h-.28a1.82,1.82,0,0,0-1.58.91A2,2,0,0,0,302.21,72Zm-.06-1.43.06.11,0-.53.38.11-.37-.2.09-.45-.14.3v-.54a.81.81,0,0,1,.56.2.83.83,0,0,1,0,.91.81.81,0,0,1-.68.38Z"/><path class="cls-2" d="M303,80a1.86,1.86,0,0,0-1.62,1,2.05,2.05,0,0,0,.15,2.5,1.84,1.84,0,0,0,1.06.66l.38,0c.73,0,1.52-.49,1.65-1.8,0-.27,0-.55-.05-.8a1.53,1.53,0,0,0-1.12-1.5Zm.65,2.28a.77.77,0,0,1-.65.34h-.12a1.26,1.26,0,0,1-.8-.54,1.18,1.18,0,0,1,1.06-.52.7.7,0,0,1,.44.26A.67.67,0,0,1,303.66,82.31Z"/><path class="cls-2" d="M225.3,111.81l1.47-1.28.11-.4a1.81,1.81,0,0,0-.29-1.46l-.64-.58-1.57.09-.61,1.41.08.42a1.76,1.76,0,0,0,.52.91Z"/><path class="cls-2" d="M302.94,154.72a2.34,2.34,0,0,0-1.35.46,1.83,1.83,0,0,0-.62,2.35,2.28,2.28,0,0,0,2.06,1.34,2.44,2.44,0,0,0,.92-.19,1.81,1.81,0,0,0,1.13-2.15A2.25,2.25,0,0,0,302.94,154.72Zm.18,2.59c-.06,0-.56-.06-.59-.15a.82.82,0,0,1,.5-.9.48.48,0,0,1,.29.11A.78.78,0,0,1,303.12,157.31Z"/><path class="cls-2" d="M265.61,121.15a1.7,1.7,0,0,0,1.84,1.56h0a1.74,1.74,0,0,0,1.22-.58l.42-.64-.16-1.14-.77-.65-.67-.22-.8.1A1.61,1.61,0,0,0,265.61,121.15Zm1.72-1.06a1,1,0,0,1,.9.89,1,1,0,0,1-.6,1.07l-.18-.62.13-.17h.1l-.07-.06.13-.17-.3,0-.19-.27v.1l-.57-.49A.91.91,0,0,1,267.33,120.08Z"/><path class="cls-2" d="M223.55,115.23a44,44,0,0,0,.42,7.3l.22,1.14h1.15l1,0,.55-1a3.77,3.77,0,0,0,.61-1.57c0-.38.11-.75.18-1.12a7.12,7.12,0,0,0,.12-3l0-.49c0-.55,0-1.05-.09-1.53a2.93,2.93,0,0,0-.45-1.18,1.92,1.92,0,0,0-1.75-1.07h-.15c-.65,0-1.42.46-1.69,1.75A4.26,4.26,0,0,0,223.55,115.23Z"/><path class="cls-2" d="M228.45,88.7a8.49,8.49,0,0,0-1.34-.44l-1-.32a2.06,2.06,0,0,0-2.61,1.15,8.52,8.52,0,0,0-.42,5,1.8,1.8,0,0,0,1.09,1.26,2.41,2.41,0,0,0,1.05.29l.57-.11A2.21,2.21,0,0,0,227,94a6.32,6.32,0,0,0,.11-1.08v-.3s0-.06,0-.1a7.38,7.38,0,0,0,.91-.06,1.74,1.74,0,0,0,1.28-.8,1.77,1.77,0,0,0,.15-1.53A2.06,2.06,0,0,0,228.45,88.7ZM225,94.27l.14-1.25h.21l.07.07Z"/><path class="cls-2" d="M225.48,133.49l-.81.06-.39.48a4.91,4.91,0,0,0-.56.9,2.06,2.06,0,0,0-.2,1.07,10.74,10.74,0,0,0,.76,3.46,3,3,0,0,0,.33.55,1.75,1.75,0,0,0,2.37.62,1.69,1.69,0,0,0,.88-.92c.18-.52.34-1.05.46-1.55a5,5,0,0,0-.92-3.75A2.6,2.6,0,0,0,225.48,133.49Z"/><path class="cls-2" d="M226.27,317.31a1.87,1.87,0,0,0-3-.31,3.69,3.69,0,0,0-.93,3.25,2.63,2.63,0,0,0,2.27,2l.79-.22a2.13,2.13,0,0,0,.51-.36,3.1,3.1,0,0,0,.79-3.56C226.55,317.85,226.42,317.58,226.27,317.31Z"/><path class="cls-2" d="M288.78,57.85a2.14,2.14,0,0,0,1,2.7,2.47,2.47,0,0,0,1.13.28,2.51,2.51,0,0,0,1.73-.72,1.82,1.82,0,0,0,.62-1.34,2.57,2.57,0,0,0-2-2.32l-.37,0A2.37,2.37,0,0,0,288.78,57.85Zm2.4,1.06c0,.09-.24.13-.37.13l-.15,0a.52.52,0,0,1-.07-.28.53.53,0,0,1,.33-.56A.51.51,0,0,1,291.19,58.91Z"/><path class="cls-2" d="M289.91,90.07a3.2,3.2,0,0,0-.31.64A2.27,2.27,0,0,0,291,93.54a2.05,2.05,0,0,0,.76.14,2.1,2.1,0,0,0,1.83-1.09,3.78,3.78,0,0,0,.35-.93l.06-.74-.25-.49a2.78,2.78,0,0,0-.52-.78A2.17,2.17,0,0,0,289.91,90.07Z"/><path class="cls-2" d="M299.88,193.58a1.7,1.7,0,0,0-.52,1.21v.66l.42.39a2,2,0,0,0,1.4.54l.37,0a1.82,1.82,0,0,0,1.67-1.43l.13-.48-.54-.93-.26-.2C301.93,192.83,301.1,192.45,299.88,193.58Z"/><path class="cls-2" d="M297.38,223.05a2.12,2.12,0,0,0-1.95-1.18l-.36,0a3,3,0,0,0-1.16,5.55,2.28,2.28,0,0,0,1.21.33,2.41,2.41,0,0,0,2.36-1.65,7.46,7.46,0,0,1,.25-.73l.27-.76-.27-.71A6.07,6.07,0,0,0,297.38,223.05Z"/><path class="cls-2" d="M264.44,57.27l0,.11a16.24,16.24,0,0,0,.2,5.26,1.65,1.65,0,0,0,1.6,1.5l.47-.05L267,64a2.06,2.06,0,0,0,1.17-1.53,3.91,3.91,0,0,0-.09-1.74l-.07-.33a17.58,17.58,0,0,1,0-5.15,4.38,4.38,0,0,1,.14-.59,7.24,7.24,0,0,0,.22-.93,2.69,2.69,0,0,0-.61-2.13,1.88,1.88,0,0,0-.93-.62l-.55-.08a1.64,1.64,0,0,0-1.66,1.52l-.11.82a10.37,10.37,0,0,0-.05,3.52A3,3,0,0,1,264.44,57.27Z"/><path class="cls-2" d="M289.7,149.87l.27,0a2.14,2.14,0,0,0,1.45-.81,1.88,1.88,0,0,0,.36-1.42,2.23,2.23,0,0,0-1.38-1.83,2.1,2.1,0,0,0-.92-.22h-.21a2.16,2.16,0,0,0-1.57,2.42A2,2,0,0,0,289.7,149.87Zm0-2.62a.65.65,0,0,1,.64.49,1,1,0,0,1-.78.45l-.05-.89A.47.47,0,0,1,289.7,147.24Z"/><path class="cls-2" d="M275.17,63.72a1.87,1.87,0,0,0,1.32-1.86,1.78,1.78,0,0,0-1.69-1.65l-.44,0a2.35,2.35,0,0,0-.6.16,1.75,1.75,0,0,0-.9,2.32,1.73,1.73,0,0,0,1.63,1.13ZM273.87,62a.77.77,0,0,1,.62-.77.89.89,0,0,1,.8.5.91.91,0,0,1-.38,1l-.24-1.23-.14,1.31A.89.89,0,0,1,273.87,62Z"/><path class="cls-2" d="M299.72,189.34l.45.14h.25a1.76,1.76,0,0,0,1.61-1.09,4.73,4.73,0,0,0,.21-.62l.08-.27a1.77,1.77,0,0,0-1.18-2.16l-.63-.1a2.19,2.19,0,0,0-2.12,1.81A2.06,2.06,0,0,0,299.72,189.34Zm1-2.44a.59.59,0,0,1,.28.63.44.44,0,0,1-.45.33l-.17,0a1,1,0,0,1-.61-.65A1.09,1.09,0,0,1,300.67,186.9Z"/><path class="cls-2" d="M251.11,45.74l-.08,0,.06,0Z"/><path class="cls-2" d="M290,172l.11.1L290,172Z"/><path class="cls-2" d="M334.58,129.31h0c.08.09.16.2.24.29a1.73,1.73,0,0,1,.37,1.11l-.06.39a5.53,5.53,0,0,1-.17.78,1,1,0,0,0,.56-1A1.71,1.71,0,0,0,334.58,129.31Z"/><path class="cls-2" d="M203.94,109.51l.06,0h.11l-.1-.15Z"/><path class="cls-2" d="M277.47,48.92v0h0Z"/><path class="cls-3" d="M255.88,161.71a19.77,19.77,0,0,1-5.88.89A19.77,19.77,0,0,0,255.88,161.71Z"/><path class="cls-3" d="M250,123.06a19.77,19.77,0,0,1,5.88.89A19.77,19.77,0,0,0,250,123.06Z"/><path class="cls-3" d="M255.88,123.95a19.78,19.78,0,0,1,0,37.76,19.78,19.78,0,0,0,0-37.76Z"/><path class="cls-3" d="M269.77,142.83a19.75,19.75,0,1,0-13.89,18.88A19.78,19.78,0,0,0,269.77,142.83ZM263,136.51a2.71,2.71,0,0,1-2.29-1.26,3.09,3.09,0,0,1,.79-3.73,2.28,2.28,0,0,1,2.79,0,2.92,2.92,0,0,1,1.15,2.41,2.71,2.71,0,0,1-2.41,2.58Z"/><path class="cls-3" d="M265.48,133.93a2.92,2.92,0,0,0-1.15-2.41,2.28,2.28,0,0,0-2.79,0,3.09,3.09,0,0,0-.79,3.73,2.71,2.71,0,0,0,2.29,1.26h0A2.71,2.71,0,0,0,265.48,133.93Z"/></svg>