<svg id="Layer_1" data-name="Layer 1" xmlns="http://www.w3.org/2000/svg" viewBox="0 0 500 500"><defs><style>.cls-1{fill:none;}.cls-2{fill:#fff;}</style></defs><title>searchIcon</title><path class="cls-1" d="M183.65,290.66c-.44-.18-.85,0-.85.4a1.42,1.42,0,0,0,1,1.3c.11,0,.39-.12.44-.24A1.12,1.12,0,0,0,183.65,290.66Z"/><path class="cls-1" d="M227.85,331.1a1.35,1.35,0,0,0-.47.41,2.7,2.7,0,0,0-.17,2.93,2.2,2.2,0,0,0,2.23.73,1.87,1.87,0,0,0,1.34-1.72A2.21,2.21,0,0,0,227.85,331.1Z"/><path class="cls-1" d="M259,345.73l0,0s.06,0,.06,0Z"/><path class="cls-1" d="M181.19,121c0,.14.23.31.35.47l.46-.4-.38-.47C181.46,120.76,181.19,120.88,181.19,121Z"/><path class="cls-1" d="M156.82,140.08a.87.87,0,0,0-.11-1.13,1,1,0,0,0-1.6,0,.85.85,0,0,0-.13.57,1.3,1.3,0,0,0,1.38.93C156.53,140.43,156.66,140.21,156.82,140.08Z"/><path class="cls-1" d="M160.64,138.38a7.81,7.81,0,0,0,.55,1.16,3.9,3.9,0,0,0,.42.48,1.4,1.4,0,0,0,1.69.39,1.35,1.35,0,0,0,.63-1.09,7.61,7.61,0,0,0-.65-3.77,6.32,6.32,0,0,1-.38-3.15,13.8,13.8,0,0,1,1-4.38,1.66,1.66,0,0,0-.48-1.75c-.88-.55-1.79-1.06-2.64-1.54-.26.14-.53.2-.57.33a20.9,20.9,0,0,0-.71,8.33C160.1,135,160,136.76,160.64,138.38Z"/><path class="cls-1" d="M170.48,138.89a.88.88,0,0,0,.76-.78,4.11,4.11,0,0,0,.06-.59,1.78,1.78,0,0,0-.75-1.62,1.11,1.11,0,0,0-.56-.24.71.71,0,0,0-.65.78,7.23,7.23,0,0,0,.17,1.83A.86.86,0,0,0,170.48,138.89Z"/><path class="cls-1" d="M259.67,345.53a.21.21,0,0,0-.1-.09c-.09,0-.29.14-.44.23l0,0Z"/><path class="cls-1" d="M161.22,147.29l.44.45.43-.48c-.11-.11-.27-.37-.42-.37S161.37,147.16,161.22,147.29Z"/><path class="cls-1" d="M161.65,276.63a1,1,0,0,0-.59,1,2,2,0,0,0,.1.59c.15.45.46.79.75.69a1.07,1.07,0,0,0,.59-1,2.84,2.84,0,0,0-.09-.6C162.26,276.87,162,276.53,161.65,276.63Z"/><path class="cls-1" d="M259.07,345.72h0l.11,0,0,0Z"/><path class="cls-1" d="M412,273.12l-.06.11Z"/><path class="cls-1" d="M356,340c-.1.48.1.72.48.62.1,0,.13-.29.2-.45-.09-.13-.16-.35-.3-.39A.51.51,0,0,0,356,340Z"/><path class="cls-1" d="M408.84,278.55l-.26.42Z"/><path class="cls-1" d="M407.24,290.85a4.5,4.5,0,0,0,.1-.64c0-.43-.06-.85-.08-1.27a.93.93,0,0,0-.72-1,.68.68,0,0,0-.76.68,7.39,7.39,0,0,0,.13,2.55A7.41,7.41,0,0,1,406,295a7.68,7.68,0,0,0,0,1.27c0,.57.27.82.82.76a1.1,1.1,0,0,0,.91-.71,1.87,1.87,0,0,0,.1-1.83A3.66,3.66,0,0,1,407.24,290.85Z"/><path class="cls-1" d="M311.68,363a.77.77,0,0,0-.43,1c.14.43.39.66.7.57s.27-.26.42-.43a2.55,2.55,0,0,0,0-.56,1,1,0,0,0-.27-.46A.5.5,0,0,0,311.68,363Z"/><path class="cls-1" d="M337.9,350a1.7,1.7,0,0,0-1.46-1.1A1.65,1.65,0,0,0,335,350c0,.22-.09.43-.13.64a4.44,4.44,0,0,0,1.2,3.6c.65.88.85.92,1.34.1a3.72,3.72,0,0,0,.57-3.09A7.51,7.51,0,0,1,337.9,350Z"/><path class="cls-1" d="M260.28,345.39a3.16,3.16,0,0,0-.61.13c0,.08-.15.15-.5.18a8.19,8.19,0,0,0,.94.8.64.64,0,0,0,.58-.12.75.75,0,0,0,.05-.61C260.68,345.61,260.43,345.37,260.28,345.39Z"/><path class="cls-1" d="M316.5,363.46c.08.06.31,0,.47-.07,0-.14-.08-.39-.12-.4C316.3,363,316.16,363.16,316.5,363.46Z"/><path class="cls-1" d="M201.5,92.76a1,1,0,0,0,.82-.76c.06-.19.09-.4.13-.59-.11-.39-.17-.79-.32-1.17a.94.94,0,0,0-.94-.66c-.46,0-1,.83-.88,1.34s.26.78.36,1.18S201,92.84,201.5,92.76Z"/><path class="cls-1" d="M309.3,48.39c.15-.16.37-.29.44-.48a.69.69,0,0,0-.54-1c-.11,0-.39.24-.45.43A.87.87,0,0,0,309.3,48.39Z"/><path class="cls-1" d="M309.58,56.63a.58.58,0,0,0,.5.16.87.87,0,0,0,.64-.9c0-.2,0-.41,0-.6,0-.52-.17-.82-.52-.77-.15,0-.3.25-.41.41a4.36,4.36,0,0,0-.24.55A1.24,1.24,0,0,0,309.58,56.63Z"/><path class="cls-1" d="M304.4,66.68a.8.8,0,0,0-.15-.58c0-.08-.28,0-.43,0-.05.19-.19.41-.15.57C303.85,67.3,304.14,67.32,304.4,66.68Z"/><path class="cls-1" d="M272.93,54.26a.71.71,0,0,0,1.12-.05,2.73,2.73,0,0,0,.84-2.85c-.35-1.21-.7-2.43-1.08-3.64,0-.14-.27-.23-.41-.34a1.91,1.91,0,0,0-.48.41,7.11,7.11,0,0,0-.73,5.5A2.78,2.78,0,0,0,272.93,54.26Z"/><path class="cls-1" d="M263,53.28a.75.75,0,0,0,.47-1c-.11-.16-.22-.33-.34-.49a1.81,1.81,0,0,0-.41.42.89.89,0,0,0-.05.57C262.74,53,263,53.3,263,53.28Z"/><path class="cls-1" d="M315.69,55.24a2.13,2.13,0,0,0,.53-1c.13-.55-.6-1-1.27-.73a.75.75,0,0,0-.59.9C314.51,55,315.35,55.57,315.69,55.24Z"/><path class="cls-1" d="M321.85,59.46a.82.82,0,0,0,.88-.63,1.11,1.11,0,0,0-.22-1.14,1,1,0,0,0-1.12-.32,1,1,0,0,0-.56,1.48A1.17,1.17,0,0,0,321.85,59.46Z"/><path class="cls-1" d="M330.32,70.25a1.74,1.74,0,0,0,1.56-.92,6.25,6.25,0,0,0,.74-3.05c0-.22-.08-.43-.13-.64s-.13-.39-.2-.6a1.49,1.49,0,0,0-2.11-.62,3.75,3.75,0,0,0-1.45,5A1.6,1.6,0,0,0,330.32,70.25Z"/><path class="cls-1" d="M249.42,54.48a8,8,0,0,0,.34-1.23.88.88,0,0,0-.71-.91.68.68,0,0,0-.9.69,6.35,6.35,0,0,0,0,1.29.77.77,0,0,0,.31.55C248.79,55.08,249.19,54.93,249.42,54.48Z"/><polygon class="cls-1" points="322.29 62.83 322.49 62.42 322.18 62.38 322.29 62.83"/><path class="cls-1" d="M182.28,117.36c.52.41,1,.82,1.55,1.18a.87.87,0,0,0,.63.13,1,1,0,0,0,.85-.88c.28-1.94.07-3.92.44-5.87a28.35,28.35,0,0,0,.24-3.57,33.16,33.16,0,0,0-.45-4.93c-.41-1.72,0-3.5-.52-5.18a.68.68,0,0,0-1.31.24,24.63,24.63,0,0,0-.51,6.51,34,34,0,0,1-.05,6.56,3,3,0,0,1-.6,1.11c-.12.17-.35.26-.51.41C180.4,114.6,180.49,115.95,182.28,117.36Z"/><path class="cls-1" d="M205.14,84.93c.36.05.66-.22.75-.68a3.72,3.72,0,0,0-.44-2.37c-.05-.13-.25-.2-.39-.29-.12.15-.32.3-.34.47a4.78,4.78,0,0,0,0,2.45A.67.67,0,0,0,205.14,84.93Z"/><path class="cls-1" d="M405.42,283.86c-.19.28-.39.55-.59.84C405,284.41,405.23,284.14,405.42,283.86Z"/><path class="cls-1" d="M200,102.22a1,1,0,0,0,1-.59,15.23,15.23,0,0,0,.54-1.46,1.33,1.33,0,0,0-1.25-1.48.94.94,0,0,0-.87.72,3.48,3.48,0,0,0-.09,1.87C199.46,101.74,199.65,102.15,200,102.22Z"/><polygon class="cls-1" points="189.64 89.44 189.23 89.4 189.39 89.86 189.64 89.44"/><path class="cls-1" d="M220.23,70.18a.85.85,0,0,0-.45-.33,1.11,1.11,0,0,0-.63.09,1,1,0,0,0-.41.47,5.59,5.59,0,0,0,.32,5.58c.07.12.38.14.58.13s.43-.12.45-.22c.11-.64.15-1.28.23-1.92l-.12,0c.11-1.08.22-2.15.3-3.24A1,1,0,0,0,220.23,70.18Z"/><path class="cls-1" d="M245.12,57.94a.82.82,0,0,0,.6.08.78.78,0,0,0,.44-1,.92.92,0,0,0-.86-.71.71.71,0,0,0-.77.68A1,1,0,0,0,245.12,57.94Z"/><path class="cls-1" d="M249.07,74.51a.6.6,0,0,0-.87.56,11.18,11.18,0,0,0,.09,1.85c0,.19.1.55.18.56a1,1,0,0,0,1.06-.49C250.35,75.81,250.18,74.91,249.07,74.51Z"/><path class="cls-1" d="M238.24,53.06c0-.07-.23-.11-.36-.17a1.67,1.67,0,0,0-.14.49c0,.06.23.11.37.16A1.47,1.47,0,0,0,238.24,53.06Z"/><path class="cls-1" d="M219.33,63.38a.67.67,0,0,0,.55.31c.15,0,.29-.32.36-.52a3.86,3.86,0,0,0-.19-3.76,1.08,1.08,0,0,0-1.12-.49,1,1,0,0,0-.84.83,3.68,3.68,0,0,0-.05.65,1.84,1.84,0,0,0,.13.64C218.53,61.83,218.91,62.62,219.33,63.38Z"/><path class="cls-1" d="M401.73,289c-.36.49-.75,1-1.12,1.44C401,290,401.36,289.52,401.73,289Z"/><path class="cls-1" d="M161.16,245.71a5.34,5.34,0,0,0-.27,1.93,15.71,15.71,0,0,1,.13,3.27,39.11,39.11,0,0,0-.25,7.86,15.11,15.11,0,0,1-.45,5.2,1.17,1.17,0,0,1-.92.86l-.63.15c-.54.12-.83.36-.73.69s.22.47.38.5a1.94,1.94,0,0,1,1.62,1.8,15.39,15.39,0,0,0,1.2,4.41c.15.34,1.51.76,1.78.5.63-.6,1.27-1.2,1.84-1.85a1.92,1.92,0,0,0,.34-1.84,7,7,0,0,0-.47-1.22c-1.1-2.1-.82-4.23-.2-6.38,1-1.37.83-2.8.48-4.37-.14-.62-.28-1.25-.42-1.87q-1.86-5-3.34-10C161.24,245.43,161.2,245.58,161.16,245.71Z"/><path class="cls-1" d="M157.28,226.7q-.37-2.58-.64-5.2Q156.92,224.12,157.28,226.7Z"/><path class="cls-1" d="M159.14,236.88c-.08-.37-.17-.73-.25-1.11C159,236.15,159.06,236.51,159.14,236.88Z"/><path class="cls-1" d="M170.4,268.56l-.24-.48Z"/><path class="cls-1" d="M158.18,232.14c-.14-.75-.26-1.5-.39-2.25C157.92,230.64,158,231.39,158.18,232.14Z"/><path class="cls-1" d="M167.33,262l-.11-.25Z"/><path class="cls-1" d="M181.46,286.79l-.55-.77Z"/><path class="cls-1" d="M185.74,292.43l-.54-.7Z"/><path class="cls-1" d="M190.3,297.84l-.41-.47Z"/><path class="cls-1" d="M173.79,274.86l-.37-.66Z"/><path class="cls-1" d="M177.47,280.93l-.48-.75Z"/><path class="cls-1" d="M160.49,172.08c.22-.83.45-1.65.68-2.48Q160.82,170.84,160.49,172.08Z"/><path class="cls-1" d="M159,178.34c.23-1.06.46-2.12.71-3.16C159.45,176.22,159.22,177.28,159,178.34Z"/><path class="cls-1" d="M162.18,166.23c.17-.56.37-1.11.55-1.67C162.55,165.12,162.35,165.67,162.18,166.23Z"/><path class="cls-1" d="M157.47,186.52q.43-2.81,1-5.6C158.08,182.77,157.76,184.64,157.47,186.52Z"/><path class="cls-1" d="M156,213.28c-.08-2-.14-4-.14-6C155.9,209.28,156,211.29,156,213.28Z"/><path class="cls-1" d="M155.9,207.27c0-2.07.06-4.12.15-6.18C156,203.15,155.9,205.21,155.9,207.27Z"/><path class="cls-1" d="M156.69,192.67c.14-1.35.32-2.7.49-4C157,190,156.83,191.32,156.69,192.67Z"/><path class="cls-1" d="M156.45,219.34c-.12-1.37-.22-2.74-.3-4.12C156.23,216.6,156.33,218,156.45,219.34Z"/><path class="cls-1" d="M156.17,199.13q.12-2.1.31-4.19Q156.29,197,156.17,199.13Z"/><path class="cls-1" d="M353.48,329.38a10.54,10.54,0,0,1,.06,4.9,9.35,9.35,0,0,0,0,1,2.91,2.91,0,0,0,.09.95,2.77,2.77,0,0,0,.73,1c.42.4,1.26.14,1.69-.44a2,2,0,0,0,.41-1.84,8.33,8.33,0,0,1-.31-4.44,15.4,15.4,0,0,0,.27-2.59h0c-1,.52-2,1-3,1.5Z"/><path class="cls-1" d="M366.86,321.7q-1.6,1.05-3.23,2.05Q365.26,322.75,366.86,321.7Z"/><path class="cls-1" d="M378.25,313.4q-2,1.61-4,3.15Q376.27,315,378.25,313.4Z"/><path class="cls-1" d="M373.45,317.14c-1.56,1.15-3.14,2.26-4.74,3.34C370.31,319.4,371.89,318.29,373.45,317.14Z"/><path class="cls-1" d="M361.61,325q-1.85,1.08-3.72,2.11C359.14,326.39,360.38,325.7,361.61,325Z"/><path class="cls-1" d="M362.05,61.68c-.06-.18-.11-.36-.17-.54-.14.05-.39.1-.4.17a1.62,1.62,0,0,0,.12.54Z"/><path class="cls-1" d="M383.08,309.28q-1.63,1.45-3.3,2.85Q381.45,310.73,383.08,309.28Z"/><path class="cls-1" d="M397.75,294.08c-.65.78-1.33,1.54-2,2.3C396.42,295.62,397.11,294.86,397.75,294.08Z"/><path class="cls-1" d="M324.3,340l-1,.24Z"/><path class="cls-1" d="M393.48,299q-2.22,2.44-4.56,4.79Q391.27,301.45,393.48,299Z"/><path class="cls-1" d="M388.92,303.79c-1.45,1.45-2.94,2.85-4.43,4.22C386,306.65,387.47,305.24,388.92,303.79Z"/><path class="cls-1" d="M226.72,327l-.64-.36Z"/><path class="cls-1" d="M251.25,337.46c-.66-.21-1.32-.43-2-.65C249.94,337,250.59,337.26,251.25,337.46Z"/><path class="cls-1" d="M317.13,341.52l-2,.34Z"/><path class="cls-1" d="M258.89,339.65a2.37,2.37,0,0,0,.87,1.49.77.77,0,0,0,1.07-.11,1.6,1.6,0,0,0,.37-.86c-.82-.19-1.64-.36-2.45-.56Z"/><path class="cls-1" d="M219.29,322.55l-.53-.34Z"/><path class="cls-1" d="M243.35,334.69l-1.71-.66Z"/><path class="cls-1" d="M302.1,343.4c-.73.05-1.45.12-2.17.16C300.66,343.51,301.38,343.45,302.1,343.4Z"/><path class="cls-1" d="M309.79,342.64c-.77.1-1.54.2-2.3.28C308.26,342.84,309,342.74,309.79,342.64Z"/><path class="cls-1" d="M292.4,343.77c-1.73,0-3.45-.06-5.17-.13C289,343.72,290.67,343.77,292.4,343.77Z"/><path class="cls-1" d="M282.46,342.39c-.12,0-.22.7-.25.88a37.12,37.12,0,0,0-.8,6c0,1.73-.12,3.59-.15,5.31a25,25,0,0,1-.46,5.22,4.16,4.16,0,0,0,.09,1.32,3.38,3.38,0,0,0,.8,1.75,1.21,1.21,0,0,0,1.1.5.85.85,0,0,0,.92-.74,4.83,4.83,0,0,0,.32-1.25c0-2.16-.28-4.3-.25-6.47a5.9,5.9,0,0,1-.05-4.43,10.77,10.77,0,0,0,.52-5.76,3.23,3.23,0,0,0-.52-1.17,4.14,4.14,0,0,0-.14-.6c-.39,0-.78-.58-1.17-.58Z"/><path class="cls-1" d="M449.36,147.39c-.37-1-.71-1.94-1.1-2.91-.26-.65-.54-1.28-.81-1.93-.7-1.68-1.43-3.36-2.18-5-.37-.82-.76-1.62-1.14-2.43-.28-.6-.59-1.19-.88-1.79Q446.64,140.23,449.36,147.39Z"/><path class="cls-1" d="M271.78,40.59a20.21,20.21,0,0,0,.05,2.23,1.39,1.39,0,0,0,.77.88,1,1,0,0,0,1.13-.34c.14-.17.36-.32.39-.51a14.35,14.35,0,0,0,.34-2.58c1.74-.18,3.48-.33,5.22-.46a.87.87,0,0,0,.48.55c.39.16.88-.22,1-.67a168.57,168.57,0,0,0-16.81,2Q268.07,41,271.78,40.59Z"/><path class="cls-1" d="M286.2,39.42c-.62,0-1.24,0-1.85,0-1,.05-2.09.16-3.14.23Q283.7,39.53,286.2,39.42Z"/><path class="cls-1" d="M264.17,41.7q-3.56.6-7.11,1.36Q260.61,42.3,264.17,41.7Z"/><path class="cls-1" d="M256.5,43.18q-3.38.74-6.74,1.61Q253.12,43.91,256.5,43.18Z"/><path class="cls-1" d="M248.83,45c-2.12.57-4.23,1.17-6.33,1.82C244.6,46.21,246.71,45.61,248.83,45Z"/><path class="cls-1" d="M312.69,46.25a4.59,4.59,0,0,0,.28,1.26c.32.95,1.13,1.54,1.94.8a2.3,2.3,0,0,1,2.87-.54A6.94,6.94,0,0,0,321,48a1.92,1.92,0,0,0,1.34-2.49c-.79-1.3-1.12-1.55-2.57-1.38a16.22,16.22,0,0,1-2.58.21,1.27,1.27,0,0,1-.87-.79,9.18,9.18,0,0,1-.11-2.55c-2.74-.39-5.5-.69-8.25-.94,1.55.14,3.09.3,4.63.49C312.6,42.42,312.63,44.33,312.69,46.25Z"/><path class="cls-1" d="M424.2,103.14c-.18-.24-.36-.48-.55-.71l-.48-.59C423.52,102.26,423.85,102.7,424.2,103.14Z"/><path class="cls-1" d="M421.9,100.27l0,0-.08-.09Z"/><path class="cls-1" d="M335.81,46.71c.39-.16.79-.29,1.17-.48a.92.92,0,0,0,.52-.79q-3.68-1-7.41-1.88a8.3,8.3,0,0,0,2.41,1.14C333.75,45.09,334.48,46.39,335.81,46.71Z"/><path class="cls-1" d="M417.41,95.07c-.25-.28-.48-.56-.74-.83l-.34-.36Z"/><path class="cls-1" d="M183.43,79.62a8.43,8.43,0,0,1,.06,2c0,.22,0,.43,0,.65,0,.67.77,1.75.94,1.49a2.31,2.31,0,0,0,.49-1.17c0-1.41-.1-2.81-.15-4.22-.46.38-.9.77-1.35,1.16C183.42,79.54,183.42,79.58,183.43,79.62Z"/><path class="cls-1" d="M203.48,64.76q-7,4.38-13.62,9.5Q196.48,69.14,203.48,64.76Z"/><path class="cls-1" d="M188.91,75c-1.4,1.1-2.78,2.2-4.15,3.35C186.13,77.18,187.51,76.08,188.91,75Z"/><path class="cls-1" d="M424.64,105.32c-.84.13-1.3.53-1.31,1.14,0,.84,0,1.69,0,2.53a1.89,1.89,0,0,0,.15.62,2,2,0,0,0,1.21,1.37,1.75,1.75,0,0,0,1.75-.45,3,3,0,0,0,1-2.86c0-.22-.13-.43-.18-.64l-.36-.48c-.34-.46-.71-.91-1.06-1.36C425.41,105.24,425,105.26,424.64,105.32Z"/><path class="cls-1" d="M183.36,79.54c-1.58,1.34-3.14,2.71-4.68,4.12Q181,81.55,183.36,79.54Z"/><path class="cls-1" d="M226.11,52.91c-1.75.75-3.5,1.5-5.23,2.32C222.61,54.41,224.36,53.66,226.11,52.91Z"/><path class="cls-1" d="M241.17,47.29c-2,.63-4,1.29-5.91,2C237.21,48.58,239.19,47.92,241.17,47.29Z"/><path class="cls-1" d="M233.56,49.92c-1.85.69-3.69,1.39-5.52,2.15C229.87,51.32,231.71,50.61,233.56,49.92Z"/><path class="cls-1" d="M203.43,65.57c.16,2.62.31,5.45.5,8.28a1.1,1.1,0,0,0,.28.58,2.89,2.89,0,0,0,.5.36c.48.37.68.22.79-.44a23.46,23.46,0,0,0,.58-5.19,3.44,3.44,0,0,1,1.75-3.24,1.2,1.2,0,0,0-.09-2.1,3.71,3.71,0,0,1-1.18-1c2-1.19,4-2.32,6.07-3.42l-.19,3.5c0-.12,0,1.17,0,2.48,0,.86.11,1.73.22,2.58,0,.13.26.26.43.34s.52.24.6.17a2.14,2.14,0,0,0,.73-1.73c-.32-2.65-.5-5.32-.66-8-3.49,1.85-6.9,3.86-10.28,6C203.46,65,203.47,65.29,203.43,65.57Z"/><path class="cls-1" d="M219,56.14c-1.76.86-3.52,1.71-5.26,2.63C215.51,57.85,217.27,57,219,56.14Z"/><path class="cls-1" d="M456.17,169.89c-.1-.46-.2-.92-.3-1.38q-.31-1.31-.64-2.61l-.16-.6C455.46,166.83,455.82,168.36,456.17,169.89Z"/><path class="cls-1" d="M303,39.63q2,.13,4,.31C305.7,39.82,304.36,39.71,303,39.63Z"/><path class="cls-1" d="M430,111c-.53-.76-1-1.53-1.59-2.29-.4-.55-.82-1.09-1.23-1.64C428.18,108.34,429.11,109.66,430,111Z"/><path class="cls-1" d="M316.19,41c4.66.66,9.28,1.54,13.88,2.59C325.48,42.5,320.85,41.62,316.19,41Z"/><path class="cls-1" d="M460.17,199.09c0-.37,0-.75-.05-1.12-.06-1.11-.16-2.21-.24-3.31C460,196.13,460.1,197.62,460.17,199.09Z"/><path class="cls-1" d="M457.32,239.22c.19-1,.4-2,.57-3,.11-.63.21-1.26.32-1.9q.34-2.11.63-4.22c.08-.59-.35-1.19-.27-1.79a47.54,47.54,0,0,0,.13-5.89h0c0-2,.83-3.94.93-5.91,0-.6.31-1.19.34-1.79.06-1.43.24-2.86.26-4.28,0-.63.09-1.26.09-1.89,0-1,0-1.91,0-2.87,0-.12,0-.25,0-.37A168.58,168.58,0,0,1,457.32,239.22Z"/><path class="cls-1" d="M460.31,203.58c0-1,0-2-.07-3,0-.47,0-.94-.07-1.41C460.25,200.67,460.28,202.12,460.31,203.58Z"/><path class="cls-1" d="M297.84,39.37c1,0,2,.09,3,.14C299.86,39.46,298.85,39.4,297.84,39.37Z"/><path class="cls-1" d="M427.6,307q-1.77,2.39-3.62,4.73C425.22,310.19,426.42,308.62,427.6,307Z"/><path class="cls-1" d="M423.13,312.79c-1,1.29-2.1,2.58-3.19,3.86C421,315.37,422.08,314.08,423.13,312.79Z"/><path class="cls-1" d="M418.19,318.6c-.83.94-1.65,1.89-2.51,2.81C416.54,320.49,417.36,319.54,418.19,318.6Z"/><path class="cls-1" d="M456.14,244.81c.21-.92.44-1.84.64-2.76.08-.37.14-.74.22-1.11.11-.56.21-1.13.32-1.7Q456.78,242,456.14,244.81Z"/><path class="cls-1" d="M167.62,151.85l.35-.8Z"/><path class="cls-1" d="M459.77,193.12c0-.09,0-.18,0-.27-.07-.78-.12-1.56-.2-2.33s-.17-1.34-.24-2C459.49,190,459.65,191.58,459.77,193.12Z"/><path class="cls-1" d="M442.43,131.68c-.18-.36-.35-.73-.54-1.1-.41-.8-.82-1.6-1.25-2.4-.16-.29-.33-.57-.48-.87C440.95,128.77,441.7,130.22,442.43,131.68Z"/><path class="cls-1" d="M433.87,116.67c-.34-.54-.66-1.09-1-1.63s-.58-.84-.87-1.27-.58-.82-.86-1.23C432.06,113.91,433,115.28,433.87,116.67Z"/><path class="cls-1" d="M439.57,126.25c-.53-1-1.06-1.93-1.61-2.89-.36-.62-.69-1.24-1.06-1.85-.74-1.25-1.54-2.47-2.31-3.71Q437.21,122,439.57,126.25Z"/><path class="cls-1" d="M451.62,153.66c-.08-.25-.16-.51-.24-.76-.16-.47-.31-.95-.47-1.42-.28-.79-.6-1.57-.89-2.36C450.57,150.63,451.11,152.14,451.62,153.66Z"/><path class="cls-1" d="M138.18,140.73l-.17.37c-.14.32-.28.64-.42,1s-.24.64-.37,1C137.53,142.25,137.85,141.49,138.18,140.73Z"/><path class="cls-1" d="M459.08,186.51c-.14-1.11-.24-2.22-.4-3.33v-.05c-.35-2.44-.77-4.87-1.23-7.29-.15-.77-.32-1.54-.47-2.31-.12-.58-.26-1.16-.38-1.74Q458.16,179.1,459.08,186.51Z"/><path class="cls-1" d="M454.69,163.93c-.25-1-.5-1.91-.77-2.86s-.46-1.65-.71-2.46c-.37-1.23-.79-2.45-1.19-3.68Q453.49,159.4,454.69,163.93Z"/><path class="cls-1" d="M415.7,126.35c.07,0,.12-.32.18-.49-.14,0-.36-.17-.41-.12C415,126.15,415.12,126.39,415.7,126.35Z"/><path class="cls-1" d="M152.67,246.2a2.79,2.79,0,0,0-.32-1.88c-.38-.52-.7-1.1-1.07-1.65a4.08,4.08,0,0,1-.6-3.12,17.82,17.82,0,0,0,.3-1.93,5,5,0,0,0-.18-1.27c-.12-.59-1.45-1.26-1.94-1.2a7.38,7.38,0,0,1-2.54.31v-.7h1.21l-.17.16a4.64,4.64,0,0,1,.41,1.38,6,6,0,0,0,.79,3.83,6.29,6.29,0,0,1,.75,3.83c0,.65-.08,1.33,0,2a1.82,1.82,0,0,0,1.11,1.48A1.47,1.47,0,0,0,152.67,246.2Z"/><path class="cls-1" d="M92.47,420.66a2.48,2.48,0,0,0-2.16,2.7,3.69,3.69,0,0,0,.1.63,2.17,2.17,0,0,0,3,1.54A2.84,2.84,0,0,0,95.05,423,2.52,2.52,0,0,0,92.47,420.66Z"/><path class="cls-1" d="M135.47,355.21a1.42,1.42,0,0,0-.53-.16c-.08,0-.14.27-.22.41a1.58,1.58,0,0,0,.55.19C135.35,355.65,135.41,355.37,135.47,355.21Z"/><path class="cls-1" d="M64,422.66a2.8,2.8,0,0,0-3.23-1.36A3.37,3.37,0,0,0,59,423a1.12,1.12,0,0,0,0,1.21c1,1.38,2,2.75,3,4.11a1.38,1.38,0,0,0,1.7.26,2.77,2.77,0,0,0,1.14-2.69c-.06-.3-.17-1.14-.34-2A8.15,8.15,0,0,0,64,422.66Z"/><path class="cls-1" d="M145.17,250.33a5.43,5.43,0,0,0,.16-.53c.19-.83.85-1.61.49-2.47a7.76,7.76,0,0,0-1.21-1.51c-.53-.68-.75-1.57-1.53-2.07a4.83,4.83,0,0,0-.58-.31c-.47-.24-.69,0-.72.61a7.26,7.26,0,0,1-.57,2.53,4.34,4.34,0,0,0-.35,1.9c.07,1.31.15,2.62.11,3.92,0,1.56-1.14,2.81-1.38,4.33a1.82,1.82,0,0,1-.2.62,1.64,1.64,0,0,0-.14,1.27,13.21,13.21,0,0,1,.18,5.84,5.4,5.4,0,0,0,.13,1.93,18.08,18.08,0,0,0,.84,3.81,33.62,33.62,0,0,1,1.38,5.71,3.8,3.8,0,0,0,.6,1.14,1.14,1.14,0,0,0,1.65.2,2.31,2.31,0,0,0,.92-1.64,76.05,76.05,0,0,1,.61-9.79,3.33,3.33,0,0,0,.07-1.3c-.87-2.78-.19-5.66-.55-8.46-.08-.64-.45-1.23-.55-1.86a5.77,5.77,0,0,1,0-1.94A10.49,10.49,0,0,1,145.17,250.33Z"/><path class="cls-1" d="M151.9,260.39a1.1,1.1,0,0,0,.26,1.67,2.08,2.08,0,0,0,1.82.15c.17-.07.27-.33.41-.5a1.64,1.64,0,0,0-.73-1.64A1.37,1.37,0,0,0,151.9,260.39Z"/><path class="cls-1" d="M141.77,240.3c.18.55.47.78,1,.49a2.27,2.27,0,0,0,.9-.79,6.4,6.4,0,0,0,.32-1.62c-.07-.5-.15-1.36-.3-2.2a.83.83,0,0,0-.4-.48,4.45,4.45,0,0,0-1.17-.37c-.08,0-.27.33-.32.53A7.87,7.87,0,0,0,141.77,240.3Z"/><path class="cls-1" d="M143,229a1.2,1.2,0,0,0-.25-1.69c-.49-.33-1.09.15-1.27,1a.93.93,0,0,0,.4,1.12A1,1,0,0,0,143,229Z"/><path class="cls-1" d="M148.84,225.65a6,6,0,0,0,.39-1.2,1.62,1.62,0,0,0-.81-1.58,16.62,16.62,0,0,1-2.45-.79c-.93-.49-1.74-1.19-2.63-1.75-.15-.1-.42,0-.7,0a2.62,2.62,0,0,0-1.76,3.45c.1.18.19.38.31.56.75,1.16,1.33,1.31,2.61.59,1-.52,1.16-.51,1.62,0,.28.33.51.69.79,1A1.58,1.58,0,0,0,148.84,225.65Z"/><path class="cls-1" d="M147.53,235.25l.28,0C147.6,234.88,147.51,234.91,147.53,235.25Z"/><path class="cls-1" d="M147.54,235.46h0a1.27,1.27,0,0,1,0-.21l-.17,0A2,2,0,0,0,147.54,235.46Z"/><path class="cls-1" d="M411.11,137.25c.07.76.69,1.38,1.2,1.13s.86-.39,1-.71a23.3,23.3,0,0,0,1.16-3.73,2.77,2.77,0,0,0-.79-2.39,1.51,1.51,0,0,0-1.74-.42,1.19,1.19,0,0,0-.76.93c-.13.86-.22,1.72-.26,2.06.07,1.18.12,1.84.16,2.49C411.08,136.81,411.09,137,411.11,137.25Z"/><path class="cls-1" d="M382.64,94.63A1.63,1.63,0,0,0,381.4,96a7.33,7.33,0,0,0,.78,5,.48.48,0,0,0,.47.06,1,1,0,0,0,.3-.56c.24-1.5.44-3,.65-4.51a1.42,1.42,0,0,0-.1-.63,1.13,1.13,0,0,0-.26-.58C383.1,94.6,382.84,94.66,382.64,94.63Z"/><path class="cls-1" d="M382.07,83.3a.82.82,0,0,0,.63.14.58.58,0,0,0,.42-.25c.69-1.19.51-2.52.59-4-.07-1.12-.13-2.42-.25-3.71a6,6,0,0,0-.42-1.2.85.85,0,0,0-1.06-.56,1.1,1.1,0,0,0-.91.72,1.29,1.29,0,0,0-.13.63c.15,2.37.3,4.75.52,7.11A2.5,2.5,0,0,0,382.07,83.3Z"/><path class="cls-1" d="M134.85,376.85c-1,.55-1.11,1.57-.27,2.75a1.21,1.21,0,0,0,1.1.57c.13,0,.29-.32.35-.51.11-.42.15-.85.23-1.27a8.32,8.32,0,0,0-.32-1.23A.69.69,0,0,0,134.85,376.85Z"/><path class="cls-1" d="M413.22,111.09l.64.08.65.06c1.42.13,1.72.05,2.36-.7a15.83,15.83,0,0,0,3-4.15,1.47,1.47,0,0,0-.14-1.24,5.85,5.85,0,0,0-1.45-1.26,1.13,1.13,0,0,0-1.59.59c-.31.81-.59,1.64-.87,2.46a4,4,0,0,1-3.16,2.94c-.17,0-.46.33-.43.45A1.06,1.06,0,0,0,413.22,111.09Z"/><path class="cls-1" d="M136.31,367.25c0-.77-.59-1.39-1.14-1.18a1.29,1.29,0,0,0-.89.83,10.42,10.42,0,0,0-.41,4.54,3.7,3.7,0,0,0,.46,1.21,1.1,1.1,0,0,0,1.08.6.82.82,0,0,0,.82-.77c.08-.63,0-1.3,0-3.07,0-.17.06-.5.08-.85S136.31,367.69,136.31,367.25Zm-.49,2.15v0Z"/><polygon class="cls-1" points="144.67 343.01 145.04 342.94 144.73 342.51 144.67 343.01"/><path class="cls-1" d="M415.09,96.13a.86.86,0,0,0,.59.05,1.07,1.07,0,0,0,.46-1.55c-.06-.14-.27-.21-.42-.31a1.46,1.46,0,0,0-.57.19C414.53,95.08,414.5,95.85,415.09,96.13Z"/><path class="cls-1" d="M420.94,129.28a1.35,1.35,0,0,0,1.68-.44,10.11,10.11,0,0,0,.54-1.23c-.11-.54-.22-1.18-.39-1.78a1.62,1.62,0,0,0-1.46-1,1.27,1.27,0,0,0-1,.73,9,9,0,0,0-.56,1.14A2,2,0,0,0,420.94,129.28Z"/><path class="cls-1" d="M140.15,143.14a2.56,2.56,0,0,0,.52-.3.82.82,0,0,0,.26-1,1,1,0,0,0-1.1-.45,2.29,2.29,0,0,0-.52.29,1,1,0,0,0-.18,1.09C139.33,143.25,139.66,143.4,140.15,143.14Z"/><path class="cls-1" d="M124.47,205.06c0,.34,0,.69,0,1v.65C124.44,206.18,124.46,205.62,124.47,205.06Z"/><path class="cls-1" d="M134.72,149.43c-.07.18-.14.35-.21.53l-.26.72C134.4,150.26,134.57,149.85,134.72,149.43Z"/><path class="cls-1" d="M356.26,360.23a10.69,10.69,0,0,0-.13-2.58,5.37,5.37,0,0,1,.31-2.55,3.05,3.05,0,0,0,.2-.62,32.68,32.68,0,0,0-.58-5.08,1.85,1.85,0,0,0-.39-.5.92.92,0,0,0-1.16-.23,1,1,0,0,0-.35.51c-.78,1.64-.22,3.42-.52,5.12a35.11,35.11,0,0,0-.74,4.49,42.08,42.08,0,0,0,.29,4.53c0,.19,0,.39,0,.58q-1.59.62-3.2,1.21c1.26-.46,2.51-.93,3.77-1.43s2.41-1,3.6-1.46l-1,.41A8.94,8.94,0,0,1,356.26,360.23Z"/><path class="cls-1" d="M143.91,281.44a1,1,0,0,0-1-.47c-.15,0-.27.31-.37.51a1.4,1.4,0,0,0-.18.6c0,.22,0,.44,0,.65l-.28-.56c.28.56.54,1.12.83,1.68.67,1.31,1.38,2.59,2.09,3.89l.06-.31C144.72,285.24,144.7,283.26,143.91,281.44Z"/><path class="cls-1" d="M125.64,187.14c-.06.49-.13,1-.19,1.48-.08.72-.11,1.44-.18,2.15C125.39,189.56,125.5,188.35,125.64,187.14Z"/><path class="cls-1" d="M131.49,159.07l0,.1-.5,1.72c-.18.62-.32,1.25-.49,1.87C130.81,161.53,131.13,160.29,131.49,159.07Z"/><path class="cls-1" d="M131.71,158.6a3.58,3.58,0,0,0,.06-.4c-.06.21-.14.42-.2.63A.67.67,0,0,0,131.71,158.6Z"/><path class="cls-1" d="M129.29,167.25c-.11.46-.25.92-.36,1.38s-.26,1.17-.39,1.76c-.06.29-.11.57-.18.87C128.65,169.92,129,168.58,129.29,167.25Z"/><path class="cls-1" d="M127.44,175.82c-.16.83-.36,1.65-.5,2.47-.07.38-.12.75-.18,1.13C127,178.21,127.21,177,127.44,175.82Z"/><path class="cls-1" d="M124.85,195.65c0,.24,0,.48-.06.72,0,.71-.1,1.43-.14,2.14,0,.28,0,.56,0,.84C124.69,198.12,124.77,196.89,124.85,195.65Z"/><path class="cls-1" d="M142,164a.83.83,0,0,0,.45-.44,3.67,3.67,0,0,0,.22-2.53,1,1,0,0,0-.83-.76c-.16.14-.4.25-.48.43a2.89,2.89,0,0,0,.23,3C141.71,163.91,142,164.07,142,164Z"/><path class="cls-1" d="M141.45,170.15a1.82,1.82,0,0,0-.56.26,2.27,2.27,0,0,0-.13,3.3,1.15,1.15,0,0,0,2-.44c.1-.39.21-.79.31-1.2,0-.21,0-.41.07-.61A1.3,1.3,0,0,0,141.45,170.15Z"/><path class="cls-1" d="M135,151.34a.9.9,0,0,0,.47,1.05,1.92,1.92,0,0,0,.4-.46.68.68,0,0,0-.47-1C135.28,150.9,135,151.17,135,151.34Z"/><path class="cls-1" d="M142.51,177.47a.79.79,0,0,0-.49-.91s-.29.25-.36.41a.62.62,0,0,0,.43.94C142.17,177.94,142.35,177.65,142.51,177.47Z"/><path class="cls-1" d="M141.66,211.7c-1,.69-1.17,1.33-.69,2.13a14.43,14.43,0,0,0,1.11,1.56c.1.12.38.13.58.12a1,1,0,0,0,.92-.77,5.13,5.13,0,0,0-.3-2.53A1.11,1.11,0,0,0,141.66,211.7Z"/><path class="cls-1" d="M150.68,181.34a6.43,6.43,0,0,0,.37-1.14,1.06,1.06,0,0,0-.69-.93c-.48-.17-.81,0-.89.58a5.72,5.72,0,0,0,0,1.24.72.72,0,0,0,.29.52A.64.64,0,0,0,150.68,181.34Z"/><path class="cls-1" d="M142.79,199.31c-.09-.19-.23-.45-.39-.51a.86.86,0,0,0-1,.44,5.26,5.26,0,0,0-.48,4.41c.08.2.13.42.19.63.14.42.26.84.41,1.25s.54.66,1,.44.85-.48.85-.87c0-1.08-.18-2.16-.28-3.11A4,4,0,0,0,142.79,199.31Z"/><path class="cls-1" d="M142,190.79c.35.21.75-.51.73-1.3a2.49,2.49,0,0,0-.1-.6,1.07,1.07,0,0,0-.39-.47c-.08,0-.37.08-.41.18a5.17,5.17,0,0,0-.33,1.11A1,1,0,0,0,142,190.79Z"/><path class="cls-1" d="M443.33,267.7c.14,0,.22-.32.32-.48-.11-.54-.42-.71-.9-.48-.17.09-.41.34-.38.43A.75.75,0,0,0,443.33,267.7Z"/><path class="cls-1" d="M192.83,309.7c-.44-.28-.77-.26-1,.22a.77.77,0,0,0,0,.57.85.85,0,0,0,.48.34,1.24,1.24,0,0,0,1.13-.19A1,1,0,0,0,192.83,309.7Z"/><path class="cls-1" d="M378,100.94c.26.22.54.41.8.63C378.52,101.35,378.25,101.16,378,100.94Z"/><path class="cls-1" d="M382.79,105c.38.34.78.66,1.16,1C383.57,105.68,383.17,105.36,382.79,105Z"/><path class="cls-1" d="M373,97.06l.46.33Z"/><path class="cls-1" d="M249,120.06l-.21.12Z"/><path class="cls-1" d="M367.74,93.4l.14.09Z"/><path class="cls-1" d="M245.54,122.17l-.7.45Z"/><path class="cls-1" d="M403.56,128.06c.71,1,1.42,2,2.1,3C405,130,404.27,129.05,403.56,128.06Z"/><path class="cls-1" d="M241.78,124.69l-.63.45Z"/><path class="cls-1" d="M265.25,112.21c-.58.22-1.16.45-1.74.69C264.08,112.66,264.66,112.43,265.25,112.21Z"/><path class="cls-1" d="M260.72,114.06l-1.27.57Z"/><path class="cls-1" d="M394.55,116.76c1.13,1.27,2.25,2.54,3.32,3.85C396.8,119.31,395.68,118,394.55,116.76Z"/><path class="cls-1" d="M399.48,122.64c.82,1,1.64,2.06,2.42,3.1C401.12,124.7,400.3,123.67,399.48,122.64Z"/><path class="cls-1" d="M323,74.25l.88.19Z"/><path class="cls-1" d="M205.17,168.77l0,.08Z"/><path class="cls-1" d="M215.13,151.33h0Z"/><path class="cls-1" d="M309.44,71.86c.75.09,1.5.17,2.24.28C310.94,72,310.19,72,309.44,71.86Z"/><path class="cls-1" d="M189.76,226.77q-1-2.58-1.8-5.23Q188.79,224.19,189.76,226.77Z"/><path class="cls-1" d="M344.2,79.89a9,9,0,0,1,1.23-2.41,6.5,6.5,0,0,0,.7-.83.86.86,0,0,0,.08-1.12,28.1,28.1,0,0,1-3.66-6.78.84.84,0,0,0-.41-.42c-.07,0-.34.07-.38.18-.35.78-.67,1.6-1,2.38a3.05,3.05,0,0,0-.21,2.51,14,14,0,0,1,1,5.94h0a7.56,7.56,0,0,0,2.71.54Z"/><path class="cls-1" d="M302,71.14c1.14.08,2.27.14,3.41.25C304.26,71.28,303.12,71.22,302,71.14Z"/><path class="cls-1" d="M231.93,132.47l-.09.08Z"/><path class="cls-1" d="M335.56,77.75l.14,0Z"/><path class="cls-1" d="M316.39,72.9l1.47.25Z"/><path class="cls-1" d="M269.92,110.54l-2,.69Z"/><path class="cls-1" d="M329.42,75.87l.43.12Z"/><path class="cls-1" d="M199.14,241.46c.12.45.24.89.36,1.33C199.38,242.34,199.25,241.9,199.14,241.46Z"/><path class="cls-1" d="M393.59,115.65c0-.19,0-.38-.09-.56-.34-1.27-.67-2.55-1.1-3.8a3.24,3.24,0,0,1,.05-1.89,13.41,13.41,0,0,0-.25-5.86,21.55,21.55,0,0,1-.52-2.56,3.71,3.71,0,0,1,.17-1.94,5.75,5.75,0,0,0,.47-4.41,3.45,3.45,0,0,1-.08-1.94c.47-1.67.47-3.44,1.32-5.05a8.2,8.2,0,0,0,.66-5.13,49.8,49.8,0,0,1-.76-5.85,1,1,0,0,0-.33-.56c-.3-.3-.62-.73-1-.79a1.78,1.78,0,0,0-1.18.42,4,4,0,0,0-.8,1c-1,1.48-1.81,2.94-1.31,4.89a5.76,5.76,0,0,1-.73,4.44,4.67,4.67,0,0,0-.12,4.39A34.35,34.35,0,0,0,389.58,94a8,8,0,0,1,.23,6.37c-.19.62-.44,1.24-.61,1.87a8.59,8.59,0,0,0,.18,5.79,2.56,2.56,0,0,1-.34,2.47l-.14.2c-.27-.27-.56-.52-.83-.79.28.27.57.53.85.8Q391.32,113.15,393.59,115.65Z"/><path class="cls-1" d="M426.42,181.23c.24,1.21.43,2.43.63,3.65C426.85,183.66,426.65,182.44,426.42,181.23Z"/><path class="cls-1" d="M427.16,229c-.11.7-.24,1.4-.36,2.1C426.92,230.45,427,229.75,427.16,229Z"/><path class="cls-1" d="M195.14,303c0,.5,0,1,.08,1.51.08,1.53.12,3.06.27,4.57a7.14,7.14,0,0,0,1,3.08c.1.14.37.18.55.26.46.18.77,0,.86-.6a20.11,20.11,0,0,0,.28-2.59c0-1.1,0-2.2-.08-3.31-.75-.72-1.52-1.41-2.26-2.15C195.63,303.54,195.39,303.27,195.14,303Z"/><path class="cls-1" d="M425,174.9c.28,1.16.53,2.33.78,3.51C425.58,177.24,425.33,176.07,425,174.9Z"/><path class="cls-1" d="M428,222.63c-.11,1-.23,2-.36,3C427.79,224.6,427.91,223.62,428,222.63Z"/><path class="cls-1" d="M428.74,200.67q.16,3.28.16,6.6Q428.9,204,428.74,200.67Z"/><path class="cls-1" d="M428.61,215.88c-.08,1.26-.16,2.52-.28,3.78C428.44,218.4,428.53,217.14,428.61,215.88Z"/><path class="cls-1" d="M428.27,194.12c.14,1.45.23,2.91.32,4.36C428.5,197,428.41,195.57,428.27,194.12Z"/><path class="cls-1" d="M427.5,187.64c.18,1.29.33,2.58.48,3.88C427.82,190.22,427.68,188.93,427.5,187.64Z"/><path class="cls-1" d="M423.37,168.66c.33,1.13.64,2.26.94,3.39C424,170.92,423.7,169.79,423.37,168.66Z"/><path class="cls-1" d="M291.78,105.76q-1.55.18-3.09.39Q290.23,105.94,291.78,105.76Z"/><path class="cls-1" d="M304,105.05c-1.73,0-3.45.05-5.15.13C300.57,105.1,302.28,105.05,304,105.05Z"/><path class="cls-1" d="M281.69,107.36c-1.27.27-2.52.56-3.77.87C279.16,107.92,280.42,107.63,281.69,107.36Z"/><path class="cls-1" d="M413.78,144.76c.53,1,1,2,1.55,3.08C414.83,146.8,414.31,145.78,413.78,144.76Z"/><path class="cls-1" d="M275,109c-.87.24-1.74.48-2.6.74C273.3,109.47,274.17,109.24,275,109Z"/><path class="cls-1" d="M410.67,139.07c.58,1,1.16,2,1.71,3C411.83,141.08,411.25,140.08,410.67,139.07Z"/><path class="cls-1" d="M286.66,106.45c-1,.16-2,.35-3,.54C284.63,106.8,285.64,106.62,286.66,106.45Z"/><path class="cls-1" d="M416.61,150.57c.48,1,.95,2.09,1.39,3.15C417.56,152.66,417.09,151.61,416.61,150.57Z"/><path class="cls-1" d="M297.17,105.29c-1.14.07-2.28.15-3.41.26C294.89,105.44,296,105.36,297.17,105.29Z"/><path class="cls-1" d="M421.41,162.52q.57,1.65,1.09,3.31Q422,164.17,421.41,162.52Z"/><path class="cls-1" d="M419.15,156.49c.43,1.07.84,2.14,1.24,3.22C420,158.63,419.58,157.55,419.15,156.49Z"/><path class="cls-1" d="M407.27,133.51c.64,1,1.28,2,1.89,3C408.55,135.49,407.91,134.51,407.27,133.51Z"/><path class="cls-1" d="M237.71,82.17a8,8,0,0,1,.07-1.1,5.72,5.72,0,0,0-.21-1.93,7.61,7.61,0,0,1-.12-2.58,32.8,32.8,0,0,0,0-8.33c-.08-.65,0-1.31-.11-1.94a1.08,1.08,0,0,0-.74-.84,1.86,1.86,0,0,0-.71,0,1.48,1.48,0,0,0-.77,1.59,9.22,9.22,0,0,1,.78,2.44c0,2.37.42,4.76-.15,7.12a20.64,20.64,0,0,0-.37,2.58,3.91,3.91,0,0,0-.08,1.66c.18.64.29,1.66.37,1.66h0a5.27,5.27,0,0,0,2-.62S237.72,82.17,237.71,82.17Z"/><path class="cls-1" d="M203.06,156.47a1.14,1.14,0,0,0-.16-.6.65.65,0,0,0-.32,0,17.42,17.42,0,0,1-1.5,4.17,4.84,4.84,0,0,0-.27,2.54,17.94,17.94,0,0,0,1.68,5.52.61.61,0,0,0,.44.32.89.89,0,0,0,1-.63c.2-1.06.35-2.11.5-3.08,0-.53,0-1,0-1.39a5.93,5.93,0,0,1,0-.64C204.66,160.49,202.66,158.74,203.06,156.47Z"/><path class="cls-1" d="M428.9,207.27c0,2.09-.06,4.18-.15,6.26C428.84,211.45,428.9,209.37,428.9,207.27Z"/><path class="cls-1" d="M238.45,123.07a39,39,0,0,0,.27-4.67c0-.32,0-1.41-.13-2.49a2.09,2.09,0,0,0-1.08-1.52c-.49-.34-.83-.34-1.06.23a16.73,16.73,0,0,0-1.22,8.93,14.57,14.57,0,0,1,.34,1.9c0,1.26,0,2.51,0,3.76h0c0-.61,1.71-1.8,2.47-1.8h0A16.26,16.26,0,0,1,238.45,123.07Z"/><path class="cls-1" d="M207.5,161.07a1,1,0,0,0,0,.54,1.6,1.6,0,0,0,.27.46.86.86,0,0,0,.37-.95l-.29-.43C207.72,160.81,207.56,160.92,207.5,161.07Z"/><path class="cls-1" d="M221,88.9a.88.88,0,0,1-.19-1.15c.35-.55.73-1.09,1.1-1.61s.24-1.06-.47-1.62a1.73,1.73,0,0,0-2.94,1.1,12,12,0,0,0-.16,1.29,3.54,3.54,0,0,1-.71,2.41c-.23.36-.48.72-.71,1.09s-.65,1.33-.1,1.72c.3.22.36.35.36.44h0c2.63-.71,2.76-1.4,3.87-2.08C221.2,89.94,221.46,89.35,221,88.9Z"/><path class="cls-1" d="M202.76,147a.93.93,0,0,0,.57-1,6.1,6.1,0,0,0-.08-.62c-.13-.46-.43-.82-.74-.72a.88.88,0,0,0-.55,1,4.4,4.4,0,0,0,.08.62C202.17,146.76,202.47,147.13,202.76,147Z"/><path class="cls-1" d="M183.74,198.08c-.1-1.76-.16-3.52-.16-5.31C183.58,194.56,183.65,196.32,183.74,198.08Z"/><path class="cls-1" d="M268.35,72.91l1.29-.23Z"/><path class="cls-1" d="M228.11,136l0,0Z"/><path class="cls-1" d="M184.29,204.49c-.21-1.72-.36-3.46-.48-5.2C183.93,201,184.08,202.77,184.29,204.49Z"/><path class="cls-1" d="M255,76l.73-.2Z"/><path class="cls-1" d="M292.4,70.77q3.29,0,6.56.16Q295.7,70.78,292.4,70.77Z"/><path class="cls-1" d="M196.29,193.06a3.69,3.69,0,0,1,.19-2.57,6.81,6.81,0,0,0,.16-4.47,11.69,11.69,0,0,1-.05-5c0-.43.1-1.3.08-2.16a.78.78,0,0,0-.37-.51.79.79,0,0,0-1.08.18,3.64,3.64,0,0,0-.88,1.7c-.12,1.08.18,2.2,0,3.26-.57,3.71,0,7.43-.25,11.15a8.24,8.24,0,0,0,.52,3.21,2,2,0,0,1,.06,1.25,17.23,17.23,0,0,0-.45,6.49,12.86,12.86,0,0,1,0,2.61,47,47,0,0,0,.35,11.79,13.05,13.05,0,0,1,0,3.26c-.4,3.7-.74,7.4.09,11.11a4.39,4.39,0,0,1-.19,1.92c-.07.27-.08.53-.13.79a97.12,97.12,0,0,1-4.57-10.25,96.83,96.83,0,0,0,11.43,21.57c-1.16-1.65-2.26-3.34-3.32-5.06.06-1.8.6-3.61.48-5.42,0-.74.45-1.48.45-2.21h0c-2.62-7.14-3.27-14.53-3.27-22.11,0-6.38.65-12.62.65-18.7h0C196.19,194.29,196.5,193.68,196.29,193.06Z"/><path class="cls-1" d="M183.4,125.12a2.5,2.5,0,0,0-.34.08c-1.94.69-2.42.75-2.29,3.55h0c.86-1.22,1.73-2.44,2.64-3.63Z"/><path class="cls-1" d="M446.45,274.37c.26-.6.53-1.21.78-1.81q.94-2.24,1.81-4.5c.14-.37.3-.73.44-1.11q1.05-2.78,2-5.61c.17-.52.34-1,.5-1.55.46-1.4.91-2.81,1.33-4.22.19-.64.37-1.27.56-1.91.41-1.42.79-2.84,1.16-4.27.13-.52.28-1,.41-1.56.24-1,.44-1.92.66-2.88a167.29,167.29,0,0,1-13.79,38.17c-.1-.43-.41-.52-.87-.26a1.64,1.64,0,0,0-.84,2.11,4,4,0,0,0,.39.76,167.54,167.54,0,0,1-13.19,21,167.41,167.41,0,0,0,13.38-21.35c.94-1.79,1.84-3.6,2.71-5.42.27-.56.53-1.12.79-1.69C445.29,277,445.88,275.68,446.45,274.37Z"/><path class="cls-1" d="M188.8,118.44l1.07-1.24Z"/><path class="cls-1" d="M201.09,105.82l.8-.69Z"/><path class="cls-1" d="M222.91,125.65a2,2,0,0,0-2.24.75,1.12,1.12,0,0,0-.08,1.19.91.91,0,0,0,1.09.47c1.23-.19,1.67-.52,1.8-1.39A.84.84,0,0,0,222.91,125.65Z"/><path class="cls-1" d="M170,146.79l.22-.43Z"/><path class="cls-1" d="M420.14,279.53a5.9,5.9,0,0,0,1.59-4.19c0-3.49.25-7,0-10.49a55.38,55.38,0,0,1,.12-6.55c.12-2.17-.19-4.36-.25-6.54,0-.14,0-.29,0-.43l0-.05q-1.82,5.35-4.08,10.53v0c0,.91,0,1.82-.06,2.73a18.45,18.45,0,0,0,.13,3.28,43.38,43.38,0,0,1,.76,4.51,47.63,47.63,0,0,1-.43,5.2,4.6,4.6,0,0,0,.17,1.29,2.21,2.21,0,0,0,.32.55A1.09,1.09,0,0,0,420.14,279.53Z"/><path class="cls-1" d="M236.12,108c-.4.14-.8.31-1.21.42-1.53.36-1.73.49-1.44,1a1.11,1.11,0,0,0,1,.56,2.56,2.56,0,0,1,1.74.68.74.74,0,0,0,1.28-.58,11.42,11.42,0,0,0-.1-1.29C237.25,108,236.85,107.73,236.12,108Z"/><path class="cls-1" d="M430.88,241.88a2.15,2.15,0,0,0-3.21.75,1.09,1.09,0,0,0,0,1.18,12.08,12.08,0,0,0,1.15,1.48,2.2,2.2,0,0,0,2.36.25,1.8,1.8,0,0,0,.86-1.61A2.47,2.47,0,0,0,430.88,241.88Z"/><path class="cls-1" d="M420.74,290a1.72,1.72,0,0,0-1.8.12,1.26,1.26,0,0,0-.65,1.07,5.11,5.11,0,0,0,.62,3.12,1.76,1.76,0,0,0,.94.84,1.28,1.28,0,0,0,1.89-1.06c.06-.43.11-.86.17-1.28s0-.88-.08-1.29A2.11,2.11,0,0,0,420.74,290Z"/><path class="cls-1" d="M206.64,101.09l.4-.32Z"/><path class="cls-1" d="M219.5,143.28a4.28,4.28,0,0,0-.41,1.17,5.09,5.09,0,0,0,0,1.3c0,.08,0,.16,0,.24.67-.83,1.34-1.66,2-2.47C220.58,143.09,219.66,142.93,219.5,143.28Z"/><path class="cls-1" d="M275.13,69.75a14.11,14.11,0,0,0-1.41,2.31h0l2-.24Z"/><path class="cls-1" d="M275.18,69.65l0,0h0l0,0-.08,0-.06.1,0,.07.08-.12Z"/><path class="cls-1" d="M187.87,221.22q-.78-2.54-1.44-5.14Q187.08,218.68,187.87,221.22Z"/><path class="cls-1" d="M186.37,215.86c-.42-1.72-.79-3.46-1.12-5.21Q185.75,213.28,186.37,215.86Z"/><path class="cls-1" d="M185.1,209.8c-.29-1.65-.55-3.31-.76-5C184.54,206.49,184.8,208.15,185.1,209.8Z"/><path class="cls-1" d="M283.52,71.09l.72-.06Z"/><path class="cls-1" d="M276.69,66.86a20.09,20.09,0,0,0-.07-9c0-.17-.28-.3-.43-.45a2.1,2.1,0,0,0-2.38-.49,2.46,2.46,0,0,0-1.14,2.21,3.63,3.63,0,0,0,.08,1.28,4.64,4.64,0,0,1-.28,3.78,3,3,0,0,0-.42,1.23,4,4,0,0,0,.36,1.87c.41.72.64,1.66,1.59,1.94.39.12.78.26,1.16.39.34-.51.7-1,1-1.53A4.5,4.5,0,0,0,276.69,66.86Z"/><path class="cls-2" d="M139.22,276.29a166.87,166.87,0,0,1-6.61-17.19A167,167,0,0,0,139.22,276.29Z"/><path class="cls-2" d="M163,314.41c-1.41-1.71-2.77-3.44-4.11-5.18,1.34,1.74,2.7,3.48,4.11,5.18Z"/><path class="cls-2" d="M185.3,336.68c2,1.62,3.93,3.17,5.94,4.69q-3-2.28-5.94-4.69Z"/><path class="cls-2" d="M174,88.14l-.36.34a167.57,167.57,0,0,0-21.8,26.82,167.71,167.71,0,0,1,21.8-26.82Z"/><path class="cls-2" d="M144.87,126.92q3.22-5.91,6.94-11.61Q148.09,121,144.87,126.92Z"/><path class="cls-2" d="M184.59,77.27h.09c1.37,0,2.79-1.72,4.19-2.82,0,0-.13.25-.12.25-1.87,1.47-3.06,3.25-5.68,4.8h0C183.07,79.11,184.13,79.89,184.59,77.27Z"/><path class="cls-2" d="M183.36,79.54l0,0c-1.59,1.36-3.18,2.74-4.73,4.18l0,0C180.22,82.24,181.78,80.88,183.36,79.54Z"/><path class="cls-2" d="M264.17,41.7h0q-3.56.6-7.11,1.36h0Q260.61,42.3,264.17,41.7Z"/><path class="cls-2" d="M241.17,45.77h0c-2,2.63-4,2.63-5.92,2.63h0C237.21,48.39,239.19,48.39,241.17,45.77Z"/><path class="cls-2" d="M256.5,43.14h0c-2.26,0-5.19,1.17-7.82,1.76V45C251.32,44.37,254.25,43.14,256.5,43.14Z"/><path class="cls-2" d="M226.11,52.91l0,0c-1.77.75-3.53,1.52-5.27,2.34h0C222.61,54.41,224.36,53.66,226.11,52.91Z"/><path class="cls-2" d="M233.56,49.4s0-.27,0-.27c-1.86.69-3.71,1.89-5.54,1.89h0C229.87,51,231.71,50.08,233.56,49.4Z"/><path class="cls-2" d="M203.48,64.76h0c3.38-2.11,6.79-4.12,10.28-6h0c1.74-.92,3.5-1.77,5.26-2.63l.07,0a167,167,0,0,0-29.29,18.17l0,0Q196.48,69.13,203.48,64.76Z"/><path class="cls-2" d="M281.2,39.69h0a168.62,168.62,0,0,0-16.81,2h0A168.57,168.57,0,0,1,281.2,39.69Z"/><path class="cls-2" d="M284.34,39.46c-1,.05-2.09.16-3.14.23h0C282.25,39.62,283.3,39.52,284.34,39.46Z"/><path d="M124.65,198.51c0-.71.09-1.43.14-2.14C124.74,197.09,124.69,197.8,124.65,198.51Z"/><path d="M124.43,206.09c0,.39,0,.79,0,1.18,0,.18,0,.36,0,.54,0-.36,0-.72,0-1.08Z"/><path d="M125.79,186c.25-2,.54-3.94.86-5.9Q126.17,183,125.79,186Z"/><path d="M128.53,170.4c.13-.59.26-1.18.39-1.76C128.79,169.22,128.66,169.81,128.53,170.4Z"/><path d="M124.52,201.79c0,1.44-.08,2.87-.09,4.3,0-.34,0-.69,0-1C124.48,204,124.49,202.88,124.52,201.79Z"/><path d="M129.59,166c-.23.89-.45,1.78-.66,2.68.11-.47.25-.92.36-1.38S129.48,166.39,129.59,166Z"/><path d="M134.51,150c-.16.43-.32.85-.47,1.28.07-.18.14-.37.21-.55Z"/><path d="M128.36,171.26c.06-.29.11-.58.18-.87-.59,2.62-1.14,5.25-1.6,7.89.14-.83.34-1.65.5-2.47C127.73,174.29,128,172.78,128.36,171.26Z"/><path d="M126.94,178.29c-.07.42-.13.84-.21,1.26l0-.12C126.82,179,126.87,178.67,126.94,178.29Z"/><path d="M131.56,158.86l0,0c.06-.21.14-.42.2-.63s0-.16,0-.24c-.12.4-.23.81-.35,1.21l0-.1C131.52,159,131.53,158.93,131.56,158.86Z"/><path d="M131.82,157.95q.93-3,2-6.05Q132.76,154.91,131.82,157.95Z"/><path d="M131,160.89q-.65,2.28-1.24,4.55c.23-.9.5-1.79.75-2.69C130.64,162.13,130.78,161.51,131,160.89Z"/><path d="M124.65,198.51c0,.56-.05,1.12-.07,1.69,0-.28,0-.56.05-.85S124.64,198.79,124.65,198.51Z"/><path d="M125.27,190.77c.07-.72.11-1.44.18-2.15-.29,2.58-.5,5.17-.67,7.76,0-.24,0-.48.06-.72C125,194,125.11,192.4,125.27,190.77Z"/><path d="M125.65,187.09c-.06.51-.14,1-.2,1.53.06-.49.13-1,.19-1.48A.28.28,0,0,1,125.65,187.09Z"/><path d="M138.41,140.18l-.4.93.17-.37Z"/><path d="M139.14,138.5c.85-1.88,1.72-3.76,2.64-5.61C140.86,134.74,140,136.61,139.14,138.5Z"/><path d="M137.59,142.06c.13-.32.28-.64.42-1C137.87,141.42,137.73,141.74,137.59,142.06Z"/><path d="M131,160.89l.5-1.72Z"/><path d="M137.59,142.06c-.32.75-.62,1.52-.93,2.28.18-.45.37-.88.56-1.32S137.46,142.38,137.59,142.06Z"/><path d="M136,146.09q-.75,1.92-1.45,3.87c.06-.18.14-.35.21-.53C135.13,148.31,135.53,147.2,136,146.09Z"/><path d="M124.59,214.91c-.1-2.12-.14-4.25-.15-6.38C124.45,210.66,124.49,212.79,124.59,214.91Z"/><path d="M460.35,205.25c0,.12,0,.25,0,.37,0-1.67-.05-3.33-.12-5,0,1,0,2,.07,3C460.33,204.14,460.35,204.69,460.35,205.25Z"/><path d="M457.32,239.24c-.11.56-.21,1.13-.32,1.7q.48-2.38.9-4.76c-.17,1-.38,2-.57,3A.1.1,0,0,1,457.32,239.24Z"/><path d="M456.11,245c-.22,1-.43,1.92-.66,2.88q.72-2.88,1.33-5.78c-.19.92-.43,1.84-.64,2.76Z"/><path d="M459.8,193.37l0-.52c0,.09,0,.18,0,.27Z"/><path d="M446.45,274.37c-.57,1.32-1.16,2.63-1.77,3.93C445.29,277,445.88,275.68,446.45,274.37Z"/><path d="M460.18,199.21c0,.47,0,.94.07,1.41,0-.88-.08-1.77-.12-2.66,0,.37,0,.75.05,1.12C460.18,199.13,460.18,199.17,460.18,199.21Z"/><path d="M460.12,198c-.08-1.51-.19-3-.32-4.54,0,.41,0,.82.08,1.23C460,195.76,460.06,196.86,460.12,198Z"/><path d="M447.24,272.55c-.26.61-.52,1.21-.78,1.81C446.71,273.76,447,273.16,447.24,272.55Z"/><path d="M451.5,261.34q-1,2.82-2,5.61Q450.54,264.16,451.5,261.34Z"/><path d="M452,259.78c-.17.52-.33,1-.5,1.55C451.67,260.82,451.83,260.3,452,259.78Z"/><path d="M453.33,255.57c-.42,1.41-.87,2.81-1.33,4.22C452.46,258.38,452.91,257,453.33,255.57Z"/><path d="M449.05,268.05q-.87,2.26-1.81,4.5Q448.18,270.31,449.05,268.05Z"/><path d="M459.31,188.5c.07.68.17,1.34.24,2-.24-2.45-.53-4.9-.88-7.34.16,1.11.26,2.21.4,3.33C459.16,187.17,459.24,187.84,459.31,188.5Z"/><path d="M449.49,266.95c-.14.37-.29.74-.44,1.11C449.19,267.69,449.35,267.32,449.49,266.95Z"/><path d="M456.58,171.79c.12.58.26,1.16.38,1.74-.34-1.68-.7-3.35-1.1-5,.11.46.2.92.3,1.38C456.31,170.52,456.45,171.16,456.58,171.79Z"/><path d="M431.13,112.54c.28.41.58.82.86,1.23q-1.72-2.57-3.54-5.09c.55.76,1.06,1.53,1.59,2.29C430.4,111.5,430.77,112,431.13,112.54Z"/><path d="M425.83,105.2h0c.35.46.71.9,1.06,1.36-1-1.39-2.11-2.77-3.2-4.14.19.23.36.47.55.71C424.74,103.82,425.3,104.5,425.83,105.2Z"/><path d="M427.21,107h0c.41.55.83,1.09,1.23,1.64-.52-.71-1.06-1.42-1.59-2.12l.36.48Z"/><path d="M423.17,101.83l.48.59c-.59-.73-1.18-1.47-1.78-2.19l0,0Z"/><path d="M421.87,100.24q-1.15-1.38-2.32-2.75c.76.88,1.5,1.76,2.24,2.66Z"/><path d="M417.93,95.65c-.42-.47-.83-.94-1.26-1.41.25.27.49.55.74.83Z"/><path d="M450,149.12c.29.79.61,1.57.89,2.36q-1.24-3.52-2.64-7c.39,1,.73,1.94,1.1,2.91C449.58,148,449.8,148.55,450,149.12Z"/><path d="M452,154.93c.4,1.23.82,2.45,1.19,3.68-.58-1.91-1.19-3.81-1.84-5.71.08.25.16.51.24.76C451.76,154.08,451.89,154.51,452,154.93Z"/><path d="M453.89,253.66c-.18.64-.37,1.27-.56,1.91C453.52,254.93,453.7,254.29,453.89,253.66Z"/><path d="M455.06,165.3l.16.6q-.62-2.42-1.3-4.83c.27.95.52,1.91.77,2.86C454.82,164.39,454.95,164.84,455.06,165.3Z"/><path d="M434.58,117.81c.78,1.24,1.57,2.46,2.31,3.71q-1.95-3.28-4-6.48c.35.53.67,1.09,1,1.63C434.11,117,434.34,117.43,434.58,117.81Z"/><path d="M443.24,133.31c.29.6.6,1.19.88,1.79q-1.08-2.28-2.23-4.52c.18.36.36.73.54,1.1C442.71,132.23,443,132.77,443.24,133.31Z"/><path d="M440.16,127.32c.16.29.33.57.48.87-.86-1.62-1.77-3.22-2.69-4.82.55,1,1.08,1.92,1.61,2.89Z"/><path d="M443.89,280c-.87,1.82-1.77,3.62-2.71,5.42C442.12,283.61,443,281.81,443.89,280Z"/><path d="M450.9,151.48c.16.47.31.95.47,1.42C451.21,152.43,451.07,151.95,450.9,151.48Z"/><path d="M453.21,158.6c.25.82.47,1.64.71,2.46C453.69,160.24,453.46,159.42,453.21,158.6Z"/><path d="M455,249.39c-.37,1.43-.75,2.85-1.16,4.27C454.29,252.24,454.68,250.82,455,249.39Z"/><path d="M457.44,175.84c.46,2.43.88,4.86,1.23,7.29C458.32,180.7,457.9,178.27,457.44,175.84Z"/><path d="M455.23,165.9q.33,1.3.64,2.61C455.66,167.64,455.45,166.77,455.23,165.9Z"/><path d="M445.27,137.54c.76,1.66,1.48,3.34,2.18,5C446.75,140.88,446,139.2,445.27,137.54Z"/><path d="M457,173.53c.16.77.33,1.54.47,2.31C457.29,175.07,457.12,174.3,457,173.53Z"/><path d="M443.89,280c.27-.56.53-1.12.79-1.69C444.42,278.86,444.16,279.43,443.89,280Z"/><path d="M432,113.77c.28.43.59.84.87,1.27C432.57,114.62,432.27,114.2,432,113.77Z"/><path d="M416.67,94.24,415.55,93l.79.87Z"/><path d="M444.13,135.11c.38.81.77,1.61,1.14,2.43C444.9,136.72,444.51,135.92,444.13,135.11Z"/><path d="M440.65,128.19c.43.8.84,1.6,1.25,2.4C441.48,129.79,441.07,129,440.65,128.19Z"/><path d="M436.9,121.52c.36.61.7,1.23,1.06,1.85C437.6,122.75,437.26,122.13,436.9,121.52Z"/><path d="M447.45,142.56c.27.65.55,1.28.81,1.93C448,143.84,447.72,143.2,447.45,142.56Z"/><path d="M458.84,230.06q-.29,2.11-.63,4.22Q458.55,232.18,458.84,230.06Z"/><path d="M459.08,228.27c-.07.6-.16,1.19-.24,1.79C458.92,229.46,459,228.87,459.08,228.27Z"/><path d="M458.21,234.28c-.1.64-.21,1.27-.32,1.9C458,235.55,458.11,234.92,458.21,234.28Z"/><path d="M457,240.94c-.08.37-.14.74-.22,1.11C456.86,241.68,456.92,241.31,457,240.94Z"/><path d="M455.45,247.83c-.13.52-.27,1-.41,1.56C455.18,248.87,455.32,248.35,455.45,247.83Z"/><path d="M459.56,190.52c.08.77.13,1.55.2,2.33C459.69,192.07,459.63,191.29,459.56,190.52Z"/><path d="M460.4,207.27c0-.55,0-1.1,0-1.66,0,1,0,1.91,0,2.87C460.39,208.08,460.4,207.68,460.4,207.27Z"/><path d="M458.67,183.13v0Z"/><path d="M460.14,216.46c-.11,2-.24,3.94-.42,5.91C459.9,220.4,460,218.43,460.14,216.46Z"/><path d="M460.38,208.49c0,.63,0,1.26,0,1.89C460.37,209.75,460.38,209.12,460.38,208.49Z"/><path d="M460.22,214.66c0,.6,0,1.19-.08,1.79C460.17,215.86,460.2,215.26,460.22,214.66Z"/><path d="M460.36,210.38c0,1.43-.07,2.86-.14,4.28C460.29,213.24,460.33,211.81,460.36,210.38Z"/><path d="M459.73,222.38c-.18,2-.4,3.93-.65,5.89C459.33,226.31,459.55,224.34,459.73,222.38Z"/><path class="cls-2" d="M426.79,231.15c.12-.7.25-1.39.36-2.1.18-1.15.35-2.31.5-3.46.13-1,.25-2,.36-3s.22-2,.31-3c.11-1.26.2-2.52.28-3.78,0-.78.11-1.56.14-2.34.09-2.08.15-4.17.15-6.26s-.06-4.41-.16-6.6c0-.73-.1-1.46-.15-2.19-.09-1.46-.18-2.92-.32-4.36-.08-.87-.2-1.73-.3-2.6-.15-1.3-.29-2.59-.48-3.88-.13-.92-.29-1.84-.45-2.76-.2-1.22-.4-2.44-.63-3.65-.18-.94-.39-1.88-.59-2.82-.25-1.17-.5-2.34-.78-3.51-.23-1-.48-1.9-.74-2.85-.3-1.13-.61-2.27-.94-3.39-.28-.95-.57-1.89-.87-2.84q-.52-1.66-1.09-3.31c-.33-.94-.67-1.88-1-2.81s-.82-2.15-1.24-3.22-.75-1.86-1.15-2.77-.92-2.11-1.39-3.15-.84-1.83-1.28-2.73-1-2.06-1.55-3.08-.92-1.78-1.4-2.66-1.13-2-1.71-3-1-1.72-1.51-2.57c-.61-1-1.25-2-1.89-3-.53-.83-1.05-1.66-1.61-2.47-.68-1-1.39-2-2.1-3-.55-.77-1.09-1.55-1.66-2.32-.78-1-1.6-2.07-2.42-3.1-.54-.68-1.06-1.36-1.6-2-1.08-1.31-2.2-2.58-3.32-3.85-.33-.37-.63-.75-1-1.11h0q-2.26-2.5-4.66-4.9c-.28-.28-.57-.53-.85-.8-1.36-1.33-2.72-2.66-4.12-3.93-.38-.34-.78-.66-1.16-1-1.32-1.17-2.65-2.34-4-3.45-.26-.22-.53-.41-.8-.63-1.5-1.21-3-2.41-4.57-3.55l-.46-.33c-1.67-1.23-3.36-2.42-5.08-3.57l-.14-.09A135.51,135.51,0,0,0,344.2,80.92c-.9-.37-1.81-.7-2.71-1q-2.87-1.11-5.79-2.08l-.14,0q-2.84-.95-5.72-1.76l-.43-.12q-2.73-.77-5.51-1.43l-.88-.19c-1.72-.39-3.44-.76-5.17-1.09l-1.47-.25c-1.56-.28-3.13-.54-4.7-.76-.74-.11-1.49-.18-2.24-.28-1.35-.17-2.69-.34-4.05-.47-1.13-.1-2.27-.17-3.41-.25s-2-.16-3-.21q-3.27-.15-6.56-.16c-2.74,0-5.46.09-8.16.26l-.72.06c-2.62.17-5.23.41-7.82.73h0l-2,.24q-2,.28-4.06.63l-1.29.23Q262,74,255.76,75.76L255,76a135.54,135.54,0,0,0-17.31,6.2l-2,.89a135.52,135.52,0,0,0-14.07,7.44h0c-1.1.67-2.19.87-3.27,1.58-2,1.3-4,3.57-5.92,3.57h0c-1.84,2.63-3.64,3.21-5.41,4.63-.13.11-.27.45-.4.56-1.61,1.3-3.19,2.79-4.75,4.17-.26.24-.54.52-.8.76-1.77,1.59-3.51,3.27-5.21,5-2.09,2.09-4.08,4.27-6,6.47l-1.07,1.24c-1.87,2.18-3.68,4.4-5.4,6.68-.91,1.19-1.77,2.41-2.64,3.63a135.75,135.75,0,0,0-10.55,17.62l-.22.43q-1,2.11-2,4.26l-.35.8a135.09,135.09,0,0,0-4.9,12.71c-.18.55-.37,1.11-.55,1.67-.35,1.12-.68,2.25-1,3.37-.23.83-.46,1.65-.68,2.48-.27,1-.54,2.06-.79,3.1s-.48,2.1-.71,3.16c-.18.86-.38,1.71-.55,2.58q-.54,2.78-1,5.6c-.11.7-.19,1.41-.29,2.11-.18,1.35-.35,2.69-.49,4q-.12,1.13-.22,2.26-.18,2.09-.31,4.19c0,.66-.08,1.31-.11,2-.09,2.06-.15,4.11-.15,6.18s.06,4,.14,6q0,1,.11,1.94c.08,1.38.18,2.75.3,4.12.07.72.12,1.44.19,2.16q.27,2.61.64,5.2c.15,1.07.33,2.13.51,3.19.12.75.25,1.5.39,2.25.22,1.22.46,2.43.72,3.64.08.37.16.74.25,1.11.63,2.83,1.37,5.64,2.17,8.42h0c1,3.39.75,6.75,3.38,10h0c0,2.17,1.65,4.33,2.58,6.45,0,.09.05.17.09.25.89,2,1.82,4,2.81,6l.24.48q1.44,2.85,3,5.64l.37.66q1.54,2.7,3.21,5.32l.48.75q1.66,2.58,3.44,5.09l.55.77c1.2,1.67,2.45,3.32,3.73,4.94l.54.7q2,2.51,4.16,4.94l.41.47q2.35,2.64,4.84,5.18h0c.25.26.48.52.74.78.74.74,1.51,1.43,2.26,2.15h0a137.94,137.94,0,0,0,20.62,16.27l.53.34q3.34,2.13,6.8,4.06l.64.36A134.75,134.75,0,0,0,241.64,334l1.71.66q2.94,1.13,5.93,2.12c.66.22,1.31.45,2,.65,2.48.78,5,1.51,7.51,2.15.81.21,1.64.37,2.45.56h0a136.62,136.62,0,0,0,21.22,3.2l1.17.09h0c1.21.08,2.42.13,3.64.18,1.72.07,3.44.13,5.17.13,2.52,0,5-.08,7.52-.22.73,0,1.45-.11,2.17-.16,1.8-.13,3.6-.27,5.39-.47.77-.08,1.54-.18,2.3-.28q2.7-.34,5.38-.78l2-.34c2.05-.38,4.1-.79,6.12-1.27l1-.24a135.31,135.31,0,0,0,29.14-10.62c1-.5,2-1,3-1.5.5-.27,1-.55,1.47-.82q1.87-1,3.72-2.11c.68-.4,1.35-.82,2-1.23q1.63-1,3.23-2.05c.62-.4,1.24-.8,1.85-1.22,1.6-1.08,3.18-2.19,4.74-3.34.26-.19.52-.4.77-.59q2-1.54,4-3.15l1.53-1.27q1.67-1.4,3.3-2.85l1.4-1.26c1.5-1.37,3-2.78,4.43-4.22s3.08-3.16,4.56-4.79c.78-.86,1.52-1.75,2.28-2.62s1.35-1.52,2-2.3c1-1.19,1.91-2.4,2.85-3.61.37-.48.76-.95,1.12-1.44,1.07-1.43,2.09-2.88,3.1-4.34.19-.28.4-.55.59-.84q1.64-2.41,3.16-4.89l.26-.42q1.61-2.62,3.1-5.32l.06-.11q3.05-5.54,5.57-11.32,2.26-5.17,4.08-10.53A136.58,136.58,0,0,0,426.79,231.15ZM304,105.05c-1.73,0-3.45.05-5.15.13l-1.69.1c-1.14.07-2.28.15-3.41.26l-2,.21q-1.55.18-3.09.39c-.68.1-1.36.19-2,.3-1,.16-2,.35-3,.54-.65.12-1.29.24-1.94.37-1.27.27-2.52.56-3.77.87-1,.24-1.92.5-2.88.76s-1.74.48-2.6.74-1.68.53-2.52.81l-2,.69c-.89.32-1.77.64-2.65,1-.58.22-1.16.45-1.74.69-.94.37-1.87.75-2.79,1.16l-1.27.57A109.76,109.76,0,0,0,249,120.06l-.21.12q-1.63,1-3.21,2l-.7.45c-1,.68-2.05,1.36-3.06,2.07l-.63.45c-1.05.75-2.09,1.51-3.11,2.29-.76.59-1.52,1.18-2.27,1.79q-2,1.58-3.83,3.25l-.09.08q-1.88,1.68-3.68,3.45l0,0q-3.65,3.58-7,7.49h0c-.69.82-1.36,1.64-2,2.47h0q-2.08,2.61-4,5.34h0a108,108,0,0,0-10,17.43l0,.08a107.82,107.82,0,0,0-8,26,107.9,107.9,0,0,0,.64,40.82c.4,1.94.88,3.85,1.38,5.75.12.45.24.89.36,1.33.53,1.88,1.09,3.75,1.71,5.6a96.83,96.83,0,0,1-11.43-21.57v0q-1-2.58-1.8-5.23l-.1-.32q-.78-2.54-1.44-5.14c0-.07,0-.14-.06-.22q-.63-2.58-1.12-5.21l-.15-.85c-.29-1.65-.56-3.31-.76-5,0-.11,0-.22,0-.33-.21-1.72-.36-3.46-.48-5.2q0-.6-.07-1.2c-.1-1.76-.16-3.52-.16-5.31a96.63,96.63,0,0,1,141.31-85.69A109,109,0,0,0,304,105.05Z"/><path d="M198.37,237.9c.12,1.81-.16,3.61-.21,5.42,1.06,1.72,2,3.41,3.18,5.06-.62-1.84-1.25-3.71-1.77-5.6-.12-.44.25-.88.14-1.33a22.47,22.47,0,0,1-.88-5.75h0C198.82,236.43,198.32,237.16,198.37,237.9Z"/><path d="M197.76,235.7c.4,1.94.88,3.85,1.38,5.75C198.63,239.55,198.16,237.64,197.76,235.7Z"/><path d="M199.5,242.78c.53,1.89,1.09,3.76,1.71,5.6C200.59,246.54,200,244.67,199.5,242.78Z"/><path d="M275.18,69.65l0,0h0Z"/><path d="M259.13,345.67s-.08,0-.06,0l.08,0Z"/><path d="M259.16,345.69l0,0c.34,0,.52-.1.5-.18Z"/><path d="M147.54,235.47h0Z"/><path d="M147.54,235.46a2,2,0,0,1-.18-.18l.17.19Z"/><path d="M337.49,45.44h0c.92.25,1.84.49,2.75.76C339.33,45.92,338.41,45.69,337.49,45.44Z"/><path d="M300.88,39.51l2.14.12Z"/><path d="M292.4,39.27c1.81,0,3.62,0,5.43.1C296,39.31,294.22,39.27,292.4,39.27Z"/><path d="M330.08,43.56h0Z"/><path d="M307,39.94l.89.08Z"/><path d="M440.61,285a1.64,1.64,0,0,1,.84-2.11c.47-.26.77-.17.87.26A167.29,167.29,0,0,0,456.11,245l0-.14q.64-2.78,1.17-5.57a.1.1,0,0,0,0,0,168.6,168.6,0,0,0,3-34c0-.56,0-1.11,0-1.67,0-1.46-.07-2.92-.14-4.37,0,0,0-.08,0-.12-.07-1.48-.18-3-.29-4.43,0-.51-.07-1-.11-1.54-.13-1.54-.29-3.08-.46-4.62-.07-.66-.16-1.33-.24-2q-.92-7.41-2.49-14.72c-.14-.63-.27-1.26-.42-1.89-.35-1.53-.71-3.07-1.1-4.59-.12-.46-.25-.91-.37-1.37q-1.2-4.52-2.67-9c-.14-.42-.27-.85-.41-1.27-.51-1.52-1-3-1.6-4.54-.21-.57-.43-1.15-.65-1.73q-2.72-7.14-6.12-14.08l-.81-1.63c-.74-1.46-1.49-2.92-2.27-4.36l-.59-1.07q-2.36-4.28-5-8.44c-.24-.38-.47-.76-.72-1.14-.89-1.39-1.8-2.76-2.74-4.12-.36-.53-.73-1-1.09-1.56-.92-1.32-1.86-2.64-2.82-3.93h0c.06.21.14.42.18.64a3,3,0,0,1-1,2.86,1.75,1.75,0,0,1-1.75.45,2,2,0,0,1-1.21-1.37,1.89,1.89,0,0,1-.15-.62c0-.84,0-1.69,0-2.53,0-.61.48-1,1.31-1.14.38-.06.77-.08,1.16-.12-.53-.69-1.06-1.38-1.6-2.07-.34-.44-.68-.87-1-1.3l-1.27-1.56-.11-.13q-1.69-2-3.46-4l-.92-1-1.07-1.19c-1.67-1.82-3.37-3.64-5.14-5.4a168.58,168.58,0,0,0-19.34-16.62,1,1,0,0,1-.46-.27c-.2-.19-.42-.36-.63-.54-2.41-1.75-4.87-3.4-7.35-5a7.84,7.84,0,0,1,.1,1.21c-.06.42-.08.85-.17,1.27a.88.88,0,0,1-.33.53.92.92,0,0,1-1.09-.18,2.28,2.28,0,0,1-.68-2.31,1.34,1.34,0,0,1,1.18-1.18A166.69,166.69,0,0,0,340.24,46.2c-.91-.27-1.83-.51-2.75-.76a.92.92,0,0,1-.52.79c-.38.19-.78.32-1.17.48-1.33-.32-2.06-1.62-3.32-2a8.3,8.3,0,0,1-2.41-1.14s0-.23,0-.23c-4.6-1.05-9.22-2.81-13.88-2.81h0a11.88,11.88,0,0,0,.11,2.77c.06.32.56.89.87.91a16.77,16.77,0,0,0,2.58-.15c1.45-.17,1.78.11,2.57,1.41A1.94,1.94,0,0,1,321,48a6.94,6.94,0,0,1-3.2-.19,2.3,2.3,0,0,0-2.87.55c-.81.73-1.62.15-1.94-.8a4.59,4.59,0,0,1-.28-1.26c-.06-1.92-.09-3.83-.13-5.75-1.54-.18-3.08-.34-4.63-.49l-.89-.08q-2-.18-4-.31l-2.14-.12c-1-.05-2-.11-3-.14-1.81-.06-3.62-.1-5.43-.1-2.07,0-4.14.48-6.21.56-1.66.07-3.33.68-5,.68h0c-.16,0-.65.41-1,.25s-.4-.52-.48-.76c-1.74.13-3.48.18-5.22.36a13.83,13.83,0,0,1-.34,2.53c0,.19-.26.32-.39.48a.94.94,0,0,1-1.13.33,1.38,1.38,0,0,1-.77-.88,20.32,20.32,0,0,1-.05-2.24q-3.71.46-7.39,1.08l-.22,0q-3.56.61-7.11,1.36l-.56.12q-3.38.74-6.74,1.61l-.94.25c-2.12.57-4.23,1.17-6.33,1.82l-1.33.43c-2,.63-4,1.29-5.91,2-.57.2-1.13.43-1.69.64-1.85.69-3.69,1.39-5.52,2.15-.65.27-1.29.56-1.93.84-1.75.75-3.5,1.5-5.23,2.32-.62.29-1.23.62-1.85.91-1.76.86-3.52,1.71-5.26,2.63h0c.16,2.66.34,5.33.66,8a2.14,2.14,0,0,1-.73,1.73c-.08.07-.42-.07-.6-.17s-.42-.21-.43-.34c-.11-.86-.19-1.72-.22-2.58,0-1.31,0-2.6,0-2.48l.19-3.5c-2,1.1-4.07,2.23-6.07,3.42a3.71,3.71,0,0,0,1.18,1,1.2,1.2,0,0,1,.09,2.1,3.44,3.44,0,0,0-1.75,3.24,23.46,23.46,0,0,1-.58,5.19c-.11.66-.31.82-.79.44a2.89,2.89,0,0,1-.5-.36,1.1,1.1,0,0,1-.28-.58c-.18-2.83-.34-5.66-.5-8.28,0-.28,0-.55.07-.83h0q-7,4.38-13.62,9.5l-.94.73c-1.4,1.1-2.78,2.2-4.15,3.35h0c.05,1.4.11,2.81.15,4.22a2.31,2.31,0,0,1-.49,1.17c-.17.26-.92-.83-.94-1.49,0-.23,0-.44,0-.65a8.43,8.43,0,0,0-.06-2s0-.09,0-.13l0,0q-2.36,2-4.68,4.12c-1.71,1.57-3.41,3.16-5.07,4.82a167.71,167.71,0,0,0-21.8,26.82q-3.72,5.7-6.94,11.61-1.61,3-3.09,6c-1.28,2.59-2.46,5.21-3.6,7.85-.33.76-.65,1.52-1,2.29q-1.32,3.18-2.5,6.41c-.15.42-.32.84-.47,1.26l-.26.73c-.79,2.25-1.51,4.51-2.2,6.78a3.58,3.58,0,0,1-.06.4.67.67,0,0,1-.14.23l-.08.25c-.36,1.22-.68,2.46-1,3.68-.41,1.49-.81,3-1.18,4.5-.33,1.33-.64,2.67-.94,4-.33,1.51-.63,3-.92,4.55-.23,1.2-.48,2.4-.68,3.6,0,.12,0,.24-.06.35q-.6,3.61-1,7.25l0,.11c-.15,1.21-.25,2.42-.37,3.63-.16,1.63-.31,3.25-.42,4.88-.09,1.24-.17,2.47-.22,3.7-.09,1.9.3,3.8.28,5.71,0,.56.41,1.12.41,1.68v1.77c0,2.13-.38,4.27-.29,6.4,0,.84-.12,1.67-.07,2.5.1,1.7.11,3.4.26,5.1.09,1,.16,2.06.27,3.08.16,1.49.31,3,.51,4.47.15,1.13.31,2.25.49,3.37.22,1.37.44,2.75.69,4.12q.32,1.78.68,3.56c.26,1.28.55,2.56.84,3.83s.57,2.5.89,3.74.62,2.34.95,3.51c.37,1.32.73,2.65,1.13,4,.3,1,.63,2,1,3a166.87,166.87,0,0,0,6.61,17.19c.1.23.2.47.31.7.79,1.74,1.65,3.47,2.5,5.19l.28.56c0-.22,0-.44,0-.65a1.4,1.4,0,0,1,.18-.6c.1-.2.22-.49.37-.51a1,1,0,0,1,1,.47c.8,1.82.82,3.8,1.1,6l-.06.31.56,1c.33.59.66,1.19,1,1.78.93,1.62,1.89,3.23,2.87,4.82.35.57.7,1.13,1.06,1.7q1.54,2.42,3.16,4.81c.33.49.68,1,1,1.46,1.16,1.65,2.33,3.3,3.55,4.91l.75,1c.68.88,1.39,1.74,2.08,2.61,0-.21,0-.41,0-.62,0-2.18,0-4.37-.05-6.55-.12-3.06,0-6.11.09-9.16a47.93,47.93,0,0,0-.11-8.49,5.59,5.59,0,0,1,.24-2.59c.14-.43.43-.88.82-.87s.72.47.73.93a6.43,6.43,0,0,0,.1,1.94,14.6,14.6,0,0,1,.8,4.45,98.3,98.3,0,0,0,1,12.37,10.2,10.2,0,0,1,.17,2.61,95.82,95.82,0,0,0,.1,11.51c-.56,3.09.29,6.6-.33,10.07a7,7,0,0,0,0,2c.07.87.21,1.73.34,2.59.22,1.52.44,3,.68,4.53-.41,1.7-.8,3.4-1.24,5.08a1.15,1.15,0,0,1-.93.76c-.57.16-.82,0-1-.57a35.87,35.87,0,0,1-1.1-4.42,62.5,62.5,0,0,1-.2-6.54c0-2.4.1-4.79.15-7.2a14.1,14.1,0,0,0,0-2.61,28.08,28.08,0,0,1-.39-4.52l-25.19,25.32a1.46,1.46,0,0,1,1.47,0l.53.32a1.84,1.84,0,0,1,.53,2.23,2.07,2.07,0,0,1-1.57.89A1.8,1.8,0,0,1,135,343.7c0-.21,0-.41,0-.62a1,1,0,0,1,.12-.63L44.18,433.87a15.75,15.75,0,0,0,22.33,22.22L182.18,339.82c-.13-.33-.25-.67-.37-1a2.34,2.34,0,0,1,1.34-2.67,1.3,1.3,0,0,1,1.73.38l.2.36.21-.21h0q2.93,2.42,5.94,4.69l.43.33c1.88,1.41,3.79,2.76,5.71,4.09l.91.63c1.84,1.25,3.69,2.44,5.56,3.6l1.22.76c1.81,1.11,3.65,2.16,5.5,3.19l1.43.8c1.81,1,3.63,1.93,5.47,2.85l1.6.79q2.72,1.32,5.47,2.53l1.72.75q2.74,1.17,5.5,2.24l1.79.68c1.84.69,3.69,1.35,5.55,2l1.83.59c1.86.6,3.73,1.17,5.61,1.71.61.17,1.23.33,1.84.49,1.89.52,3.79,1,5.7,1.46.58.14,1.17.25,1.75.38,2,.43,3.91.85,5.87,1.22l1.53.26c2,.36,4.09.7,6.14,1l1,.12a169.12,169.12,0,0,0,28.8,1.32l.66,0c1.79-.08,3.58-.22,5.36-.35.83-.06,1.66-.1,2.48-.18,1.58-.14,3.16-.34,4.73-.53,1-.12,2.06-.23,3.09-.37,1.47-.2,2.92-.45,4.39-.69,1.13-.18,2.26-.36,3.39-.57,1.39-.26,2.78-.55,4.16-.85,1.19-.26,2.38-.5,3.57-.78s2.66-.66,4-1,2.46-.64,3.68-1,2.57-.76,3.85-1.16,2.49-.78,3.73-1.2,2.48-.86,3.72-1.31q1.6-.58,3.2-1.21c0-.19,0-.39,0-.58a42.08,42.08,0,0,1-.29-4.53,35.11,35.11,0,0,1,.74-4.49c.31-1.7-.26-3.48.52-5.12a1,1,0,0,1,.35-.51.92.92,0,0,1,1.16.23,1.85,1.85,0,0,1,.39.5,32.68,32.68,0,0,1,.58,5.08,3.05,3.05,0,0,1-.2.62,5.37,5.37,0,0,0-.31,2.55,10.69,10.69,0,0,1,.13,2.58,8.94,8.94,0,0,0,.08,2.4l1-.41q1.9-.8,3.78-1.64c1.16-.52,2.33-1.05,3.48-1.6s2.53-1.23,3.79-1.87,2.24-1.14,3.35-1.73c1.27-.68,2.53-1.39,3.78-2.11,1.08-.61,2.16-1.22,3.22-1.86,1.27-.76,2.53-1.56,3.78-2.36,1-.66,2.05-1.3,3.07-2,1.28-.86,2.54-1.76,3.81-2.66,1-.68,1.93-1.34,2.87-2,1.32-1,2.6-2,3.9-3,.87-.68,1.75-1.34,2.61-2,1.42-1.16,2.8-2.38,4.19-3.6.7-.61,1.42-1.2,2.11-1.83q3.1-2.81,6.09-5.79,2.3-2.3,4.49-4.66c.86-.92,1.68-1.87,2.51-2.81.58-.66,1.18-1.3,1.75-2,1.09-1.27,2.14-2.56,3.19-3.86.28-.35.58-.69.86-1q1.86-2.34,3.62-4.73l.21-.27a167.54,167.54,0,0,0,13.19-21A4,4,0,0,1,440.61,285Zm2.14-18.23c.48-.24.79-.06.9.48-.11.16-.19.44-.32.48a.75.75,0,0,1-1-.53C442.34,267.08,442.58,266.83,442.75,266.74ZM149.48,179.85c.08-.53.41-.75.89-.58a1.06,1.06,0,0,1,.69.93,6.43,6.43,0,0,1-.37,1.14.64.64,0,0,1-1,.27.72.72,0,0,1-.29-.52A5.72,5.72,0,0,1,149.48,179.85Zm-6.18,25.24c0,.39-.44.68-.85.87s-.78.09-1-.44-.27-.83-.41-1.25c-.06-.21-.11-.43-.19-.63a5.26,5.26,0,0,1,.48-4.41.86.86,0,0,1,1-.44c.17.06.31.31.39.51A4,4,0,0,1,143,202C143.12,202.93,143.27,204,143.3,205.09Zm.27,9.66a1,1,0,0,1-.92.77c-.19,0-.47,0-.58-.12a14.43,14.43,0,0,1-1.11-1.56c-.48-.8-.26-1.44.69-2.13a1.11,1.11,0,0,1,1.61.52A5.13,5.13,0,0,1,143.57,214.75Zm-1.77-26.14c0-.1.33-.23.41-.18a1.07,1.07,0,0,1,.39.47,2.49,2.49,0,0,1,.1.6c0,.79-.38,1.51-.73,1.3a1,1,0,0,1-.49-1.07A5.17,5.17,0,0,1,141.8,188.61ZM141.67,177c.07-.16.31-.43.36-.41a.79.79,0,0,1,.49.91c-.16.18-.34.47-.42.44A.62.62,0,0,1,141.67,177Zm1.36-4.9c-.1.41-.21.8-.31,1.2a1.15,1.15,0,0,1-2,.44,2.27,2.27,0,0,1,.13-3.3,1.82,1.82,0,0,1,.56-.26,1.3,1.3,0,0,1,1.65,1.31C143.07,171.65,143.05,171.86,143,172.06Zm-1.62-11.33c.08-.18.32-.29.48-.43a1,1,0,0,1,.83.76,3.67,3.67,0,0,1-.22,2.53.83.83,0,0,1-.45.44c-.08,0-.33-.12-.41-.26A2.89,2.89,0,0,1,141.4,160.73Zm-5.56-8.8a1.92,1.92,0,0,1-.4.46.9.9,0,0,1-.47-1.05c0-.17.32-.44.41-.41A.68.68,0,0,1,135.84,151.93Zm3.48-10.28a2.29,2.29,0,0,1,.52-.29,1,1,0,0,1,1.1.45.82.82,0,0,1-.26,1,2.56,2.56,0,0,1-.52.3c-.49.26-.82.11-1-.4A1,1,0,0,1,139.32,141.65Zm5.21,112.57c.1.63.47,1.22.55,1.86.35,2.8-.32,5.68.55,8.46a3.33,3.33,0,0,1-.07,1.3,76.05,76.05,0,0,0-.61,9.79,2.31,2.31,0,0,1-.92,1.64,1.14,1.14,0,0,1-1.65-.2,3.8,3.8,0,0,1-.6-1.14,33.62,33.62,0,0,0-1.38-5.71,18.08,18.08,0,0,1-.84-3.81,5.4,5.4,0,0,1-.13-1.93,13.21,13.21,0,0,0-.18-5.84,1.64,1.64,0,0,1,.14-1.27,1.82,1.82,0,0,0,.2-.62c.24-1.52,1.34-2.77,1.38-4.33,0-1.3,0-2.61-.11-3.92a4.34,4.34,0,0,1,.35-1.9,7.26,7.26,0,0,0,.57-2.53c0-.64.25-.84.72-.61a4.83,4.83,0,0,1,.58.31c.78.5,1,1.39,1.53,2.07a7.76,7.76,0,0,1,1.21,1.51c.36.86-.31,1.64-.49,2.47a5.43,5.43,0,0,1-.16.53,10.49,10.49,0,0,0-.67,1.94A5.77,5.77,0,0,0,144.53,254.22Zm-2.75-18.36c0-.21.24-.54.32-.53a4.45,4.45,0,0,1,1.17.37.83.83,0,0,1,.4.48c.15.84.23,1.7.3,2.2a6.4,6.4,0,0,1-.32,1.62,2.27,2.27,0,0,1-.9.79c-.52.29-.8.06-1-.49A7.87,7.87,0,0,1,141.78,235.85Zm-.27-7.49c.18-.86.78-1.34,1.27-1A1.2,1.2,0,0,1,143,229a1,1,0,0,1-1.12.44A.93.93,0,0,1,141.51,228.36Zm4.7-2.41c-.29-.32-.52-.69-.79-1-.46-.53-.66-.54-1.62,0-1.28.71-1.85.57-2.61-.59-.12-.18-.21-.37-.31-.56a2.62,2.62,0,0,1,1.76-3.45c.29,0,.55-.08.7,0,.89.56,1.7,1.26,2.63,1.75a16.62,16.62,0,0,0,2.45.79,1.62,1.62,0,0,1,.81,1.58,6,6,0,0,1-.39,1.2A1.58,1.58,0,0,1,146.21,225.95Zm4.16,21.5a1.81,1.81,0,0,1-1.11-1.48c0-.65,0-1.3,0-1.95a6.16,6.16,0,0,0-.75-3.79,5.69,5.69,0,0,1-.79-3.74,3.69,3.69,0,0,0-.41-1.21l.17,0c0-.34.08-.37.28,0l-.28,0a1.27,1.27,0,0,0,0,.21c.64-.11,1.27-.24,1.93-.31.49-.06,1.22.61,1.33,1.2a5,5,0,0,1,.18,1.27,17.82,17.82,0,0,1-.3,1.93,4.08,4.08,0,0,0,.6,3.12c.37.54.68,1.12,1.07,1.65a2.79,2.79,0,0,1,.32,1.88A1.48,1.48,0,0,1,150.37,247.44ZM154,262.21a2.08,2.08,0,0,1-1.82-.15,1.1,1.1,0,0,1-.26-1.67,1.37,1.37,0,0,1,1.76-.31,1.64,1.64,0,0,1,.73,1.64C154.25,261.88,154.16,262.14,154,262.21ZM63.64,428.53a1.38,1.38,0,0,1-1.7-.26c-1-1.36-2-2.72-3-4.11A1.12,1.12,0,0,1,59,423a3.37,3.37,0,0,1,1.86-1.66A2.8,2.8,0,0,1,64,422.66a8.15,8.15,0,0,1,.39,1.21c.17.83.29,1.67.34,2A2.77,2.77,0,0,1,63.64,428.53ZM134.94,355a1.42,1.42,0,0,1,.53.16c-.07.16-.12.45-.19.45a1.58,1.58,0,0,1-.55-.19C134.81,355.32,134.86,355.07,134.94,355ZM93.4,425.53a2.17,2.17,0,0,1-3-1.54,3.69,3.69,0,0,1-.1-.63,2.48,2.48,0,0,1,2.16-2.7A2.52,2.52,0,0,1,95.05,423,2.84,2.84,0,0,1,93.4,425.53ZM136,379.66c-.05.19-.22.5-.35.51a1.21,1.21,0,0,1-1.1-.57c-.84-1.18-.76-2.19.27-2.75a.69.69,0,0,1,1.08.31,8.32,8.32,0,0,1,.32,1.23C136.18,378.81,136.13,379.24,136,379.66Zm.21-7.19a.82.82,0,0,1-.82.77,1.1,1.1,0,0,1-1.08-.6,3.7,3.7,0,0,1-.46-1.21,10.42,10.42,0,0,1,.41-4.54,1.29,1.29,0,0,1,.89-.83c.55-.21,1.13.42,1.14,1.18,0,.45,0,.88,0,1.31s-.06.68-.08.85C136.25,371.17,136.31,371.84,136.23,372.47ZM144.67,343l.06-.49.31.43ZM421.31,124.82a1.62,1.62,0,0,1,1.46,1c.17.6.28,1.24.39,1.78a10.11,10.11,0,0,1-.54,1.23,1.35,1.35,0,0,1-1.68.44,2,2,0,0,1-1.17-2.59,9,9,0,0,1,.56-1.14A1.27,1.27,0,0,1,421.31,124.82Zm-6.15-30.31a1.46,1.46,0,0,1,.57-.19c.15.1.36.17.42.31a1.07,1.07,0,0,1-.46,1.55.86.86,0,0,1-.59-.05C414.5,95.85,414.53,95.08,415.15,94.51Zm-2.45,15.37a4,4,0,0,0,3.16-2.94c.28-.82.56-1.65.87-2.46a1.13,1.13,0,0,1,1.59-.59,5.85,5.85,0,0,1,1.45,1.26,1.47,1.47,0,0,1,.14,1.24,15.83,15.83,0,0,1-3,4.15c-.64.75-.95.83-2.36.7l-.65-.06-.64-.08a1.06,1.06,0,0,1-.94-.76C412.25,110.22,412.54,109.91,412.71,109.88Zm3.18,16c-.06.17-.11.48-.18.49-.58,0-.66-.2-.23-.61C415.53,125.69,415.75,125.82,415.88,125.86Zm-4.73,6.19a1.19,1.19,0,0,1,.76-.93,1.51,1.51,0,0,1,1.74.42,2.77,2.77,0,0,1,.79,2.39,23.3,23.3,0,0,1-1.16,3.73c-.12.32-.62.54-1,.71s-1.13-.37-1.2-1.13c0-.22,0-.44-.05-.65,0-.66-.09-1.31-.16-2.49C410.93,133.77,411,132.92,411.16,132.06ZM381.07,74.45a1.1,1.1,0,0,1,.91-.72.85.85,0,0,1,1.06.56,6,6,0,0,1,.42,1.2c.13,1.29.18,2.59.25,3.71-.08,1.47.1,2.79-.59,4a.58.58,0,0,1-.42.25.82.82,0,0,1-.63-.14,2.5,2.5,0,0,1-.61-1.11c-.22-2.36-.37-4.74-.52-7.11A1.29,1.29,0,0,1,381.07,74.45Zm2.53,21.48c-.21,1.51-.41,3-.65,4.51a1,1,0,0,1-.3.56.48.48,0,0,1-.47-.06,7.33,7.33,0,0,1-.78-5,1.63,1.63,0,0,1,1.24-1.32c.2,0,.46,0,.61.08a1.13,1.13,0,0,1,.26.58A1.42,1.42,0,0,1,383.6,95.93ZM361.88,61.14c.06.18.12.36.17.54l-.46.17a1.62,1.62,0,0,1-.12-.54C361.49,61.23,361.74,61.19,361.88,61.14Zm-31.69,3.29a1.49,1.49,0,0,1,2.11.62c.07.21.14.39.2.6s.09.42.13.64a6.25,6.25,0,0,1-.74,3.05,1.74,1.74,0,0,1-1.56.92,1.6,1.6,0,0,1-1.59-.84A3.75,3.75,0,0,1,330.18,64.43Zm-8.79-7.06a1,1,0,0,1,1.12.32,1.11,1.11,0,0,1,.22,1.14.82.82,0,0,1-.88.63,1.17,1.17,0,0,1-1-.62A1,1,0,0,1,321.4,57.36Zm1.1,5.06-.21.41-.11-.46Zm-7.54-9c.67-.23,1.4.17,1.27.73a2.13,2.13,0,0,1-.53,1c-.34.33-1.18-.25-1.32-.87A.75.75,0,0,1,315,53.47Zm-4.72,1.06c.35,0,.52.25.52.77,0,.19,0,.4,0,.6a.87.87,0,0,1-.64.9.58.58,0,0,1-.5-.16,1.24,1.24,0,0,1,0-1.15,4.36,4.36,0,0,1,.24-.55C309.93,54.77,310.08,54.56,310.23,54.52Zm-1-7.63a.69.69,0,0,1,.54,1c-.07.19-.29.32-.44.48a.87.87,0,0,1-.55-1.08C308.81,47.13,309.09,46.86,309.2,46.89ZM303.82,66c.15,0,.38,0,.43,0a.8.8,0,0,1,.15.58c-.26.65-.55.62-.73-.06C303.63,66.45,303.77,66.24,303.82,66Zm-30.9-18.26a1.91,1.91,0,0,1,.48-.41c.14.11.38.2.41.34.38,1.2.73,2.42,1.08,3.64a2.73,2.73,0,0,1-.84,2.85.71.71,0,0,1-1.12.05,2.78,2.78,0,0,1-.74-1A7.11,7.11,0,0,1,272.92,47.79Zm-10.18,4.46a1.81,1.81,0,0,1,.41-.42c.12.15.23.32.34.49a.75.75,0,0,1-.47,1s-.27-.29-.33-.46A.89.89,0,0,1,262.74,52.25ZM248.15,53a.68.68,0,0,1,.9-.69.88.88,0,0,1,.71.91,8,8,0,0,1-.34,1.23c-.22.45-.63.6-1,.39a.77.77,0,0,1-.31-.55A6.35,6.35,0,0,1,248.15,53Zm1.39,24a1,1,0,0,1-1.06.49c-.08,0-.17-.37-.18-.56a11.18,11.18,0,0,1-.09-1.85.6.6,0,0,1,.87-.56C250.18,74.91,250.35,75.81,249.54,77Zm-4.24-20.7a.92.92,0,0,1,.86.71.78.78,0,0,1-.44,1,.82.82,0,0,1-.6-.08,1,1,0,0,1-.58-1A.71.71,0,0,1,245.3,56.29Zm-7.42-3.39c.13.06.36.1.36.17a1.47,1.47,0,0,1-.13.49c-.13-.06-.36-.1-.37-.16A1.67,1.67,0,0,1,237.88,52.89Zm-19.79,6.87a1,1,0,0,1,.84-.83,1.08,1.08,0,0,1,1.12.49,3.86,3.86,0,0,1,.19,3.76c-.07.2-.21.48-.36.52a.67.67,0,0,1-.55-.31c-.42-.76-.8-1.55-1.17-2.33a1.84,1.84,0,0,1-.13-.64A3.68,3.68,0,0,1,218.09,59.76ZM220.3,74c-.07.64-.12,1.28-.23,1.92,0,.09-.29.21-.45.22s-.51,0-.58-.13a5.59,5.59,0,0,1-.32-5.58,1,1,0,0,1,.41-.47,1.11,1.11,0,0,1,.63-.09.85.85,0,0,1,.45.33,1,1,0,0,1,.26.57c-.08,1.08-.19,2.16-.3,3.24Zm-15.58,8c0-.17.22-.32.34-.47.14.09.34.16.39.29a3.72,3.72,0,0,1,.44,2.37c-.08.46-.39.73-.75.68a.67.67,0,0,1-.4-.43A4.78,4.78,0,0,1,204.72,82.05Zm-3.53,7.52a.94.94,0,0,1,.94.66c.14.38.21.78.32,1.17,0,.19-.07.4-.13.59a1,1,0,0,1-.82.76c-.45.08-.71-.18-.83-.67s-.27-.78-.36-1.18S200.73,89.58,201.19,89.58Zm-1.72,9.84a.94.94,0,0,1,.87-.72,1.33,1.33,0,0,1,1.25,1.48,15.23,15.23,0,0,1-.54,1.46,1,1,0,0,1-1,.59c-.35-.07-.55-.48-.62-.93A3.48,3.48,0,0,1,199.47,99.42Zm-9.83-10-.25.42-.17-.46ZM182,113.08c.16-.15.39-.24.51-.41a3,3,0,0,0,.6-1.11,34,34,0,0,0,.05-6.56,24.63,24.63,0,0,1,.51-6.51.68.68,0,0,1,1.31-.24c.49,1.68.11,3.46.52,5.18a33.16,33.16,0,0,1,.45,4.93,28.35,28.35,0,0,1-.24,3.57c-.37,1.95-.15,3.93-.44,5.87a1,1,0,0,1-.85.88.87.87,0,0,1-.63-.13c-.55-.37-1-.77-1.55-1.18C180.49,115.95,180.4,114.6,182,113.08Zm0,8-.46.4c-.12-.16-.36-.33-.35-.47s.27-.26.43-.4Zm-12,14.57a1.11,1.11,0,0,1,.56.24,1.78,1.78,0,0,1,.75,1.62,4.11,4.11,0,0,1-.06.59.88.88,0,0,1-.76.78.86.86,0,0,1-1-.62,7.23,7.23,0,0,1-.17-1.83A.71.71,0,0,1,170,135.66ZM160.15,125c0-.13.31-.19.57-.33.85.49,1.76,1,2.64,1.54a1.66,1.66,0,0,1,.48,1.75,13.8,13.8,0,0,0-1,4.38,6.32,6.32,0,0,0,.38,3.15,7.61,7.61,0,0,1,.65,3.77,1.35,1.35,0,0,1-.63,1.09,1.4,1.4,0,0,1-1.69-.39,3.9,3.9,0,0,1-.42-.48,7.81,7.81,0,0,1-.55-1.16c-.6-1.62-.54-3.39-1.2-5A20.9,20.9,0,0,1,160.15,125Zm1.94,22.22-.43.48-.44-.45c.16-.14.3-.41.45-.41S162,147.16,162.09,147.26ZM155,139.53a.85.85,0,0,1,.13-.57,1,1,0,0,1,1.6,0,.87.87,0,0,1,.11,1.13c-.15.13-.29.35-.46.38A1.3,1.3,0,0,1,155,139.53Zm6.93,139.42c-.29.11-.6-.24-.75-.69a2,2,0,0,1-.1-.59,1,1,0,0,1,.59-1c.31-.1.61.24.76.68a2.84,2.84,0,0,1,.09.6A1.07,1.07,0,0,1,161.91,278.94Zm22.35,13.18c0,.12-.33.28-.44.24a1.42,1.42,0,0,1-1-1.3c0-.42.41-.58.85-.4A1.12,1.12,0,0,1,184.26,292.12Zm8.06,18.71a.85.85,0,0,1-.48-.34.77.77,0,0,1,0-.57c.22-.48.55-.5,1-.22a1,1,0,0,1,.62.94A1.24,1.24,0,0,1,192.32,310.83Zm37.12,24.34a2.2,2.2,0,0,1-2.23-.73,2.7,2.7,0,0,1,.17-2.93,1.35,1.35,0,0,1,.47-.41,2.21,2.21,0,0,1,2.93,2.36A1.87,1.87,0,0,1,229.44,335.17Zm31.26,11.22a.64.64,0,0,1-.58.12,8.19,8.19,0,0,1-.94-.8l-.11,0h0l0,0,.11-.06c.15-.09.35-.27.44-.23a.21.21,0,0,1,.1.09,3.16,3.16,0,0,1,.61-.13c.15,0,.4.22.47.39A.75.75,0,0,1,260.7,346.39Zm51.66,17.79c-.14.17-.26.38-.42.43s-.56-.15-.7-.57a.77.77,0,0,1,.43-1,.5.5,0,0,1,.41.12,1,1,0,0,1,.27.46A2.55,2.55,0,0,1,312.36,364.18Zm4.14-.72c-.33-.3-.19-.5.35-.47,0,0,.08.26.12.4C316.81,363.42,316.57,363.52,316.5,363.46Zm21-9.11c-.48.82-.68.78-1.34-.1a4.44,4.44,0,0,1-1.2-3.6c0-.22.08-.43.13-.64a1.65,1.65,0,0,1,1.41-1.15,1.7,1.7,0,0,1,1.46,1.1,7.51,7.51,0,0,0,.12,1.3A3.72,3.72,0,0,1,337.45,354.35Zm19.05-13.78c-.38.1-.58-.14-.48-.62a.51.51,0,0,1,.38-.23c.14,0,.21.27.3.39C356.63,340.28,356.6,340.53,356.5,340.57Zm51.18-44.26a1.1,1.1,0,0,1-.91.71c-.56.06-.83-.19-.82-.76a7.68,7.68,0,0,1,0-1.27,7.41,7.41,0,0,0-.08-3.8,7.39,7.39,0,0,1-.13-2.55.68.68,0,0,1,.76-.68.93.93,0,0,1,.72,1c0,.42.05.85.08,1.27a4.5,4.5,0,0,1-.1.64,3.66,3.66,0,0,0,.54,3.64A1.87,1.87,0,0,1,407.69,296.31ZM418,277.51a47.63,47.63,0,0,0,.43-5.2,43.38,43.38,0,0,0-.76-4.51,18.45,18.45,0,0,1-.13-3.28c0-.91.06-1.82.06-2.73v0q-2.52,5.78-5.57,11.32l-.06.11c-1,1.79-2,3.57-3.1,5.32l-.26.42c-1,1.65-2.07,3.28-3.16,4.89-.19.28-.39.55-.59.84-1,1.46-2,2.91-3.1,4.34-.36.49-.75,1-1.12,1.44-.94,1.21-1.87,2.43-2.85,3.61-.65.78-1.33,1.54-2,2.3s-1.49,1.76-2.28,2.63q-2.22,2.44-4.56,4.79c-1.45,1.45-2.94,2.85-4.43,4.22l-1.4,1.26q-1.63,1.45-3.3,2.85l-1.53,1.27q-2,1.61-4,3.15c-.26.19-.51.41-.77.59-1.56,1.15-3.14,2.26-4.74,3.34-.61.42-1.23.82-1.85,1.22q-1.6,1.05-3.23,2.05c-.67.42-1.34.83-2,1.23-1.23.72-2.47,1.42-3.72,2.11-.49.27-1,.55-1.47.82h0a15.68,15.68,0,0,1-.27,2.59,8.33,8.33,0,0,0,.31,4.44,2,2,0,0,1-.41,1.84c-.43.58-1.26.85-1.69.44a2.77,2.77,0,0,1-.73-1,2.91,2.91,0,0,1-.09-.95,9.35,9.35,0,0,1,0-1,10.54,10.54,0,0,0-.06-4.9l0,0A134.67,134.67,0,0,1,324.3,340l-1,.24q-3,.7-6.12,1.27l-2,.34q-2.68.45-5.38.78c-.77.1-1.54.2-2.3.28-1.79.2-3.58.35-5.39.47-.73.05-1.45.12-2.17.16-2.5.14-5,.22-7.52.22-1.73,0-3.45-.05-5.17-.13-1.22,0-2.43-.11-3.64-.18.05,0,.11.06.14.11a3.23,3.23,0,0,1,.52,1.17,10.77,10.77,0,0,1-.52,5.76,5.9,5.9,0,0,0,.05,4.43c0,2.17.21,4.31.25,6.47a4.83,4.83,0,0,1-.32,1.25.85.85,0,0,1-.92.74,1.2,1.2,0,0,1-1.1-.49,3.32,3.32,0,0,1-.8-1.73,4,4,0,0,1-.09-1.29,24.38,24.38,0,0,0,.46-5.16c0-1.73.14-3.46.15-5.19a40.22,40.22,0,0,1,.8-6.25c0-.18.13-.88.25-.88h0a93.79,93.79,0,0,1-21.22-2.7,2.39,2.39,0,0,1-.37,1.09c-.25.28-.7.53-1.07.24a2.24,2.24,0,0,1-.87-1.43h-.13q-3.79-1-7.51-2.14c-.66-.21-1.32-.42-2-.64-2-.66-4-1.36-5.93-2.11-.57-.22-1.14-.43-1.71-.66A134.51,134.51,0,0,1,226.72,327l-.64-.36q-3.45-1.92-6.8-4.06l-.53-.34a137.48,137.48,0,0,1-20.62-16.27c0,1.1.08,2.2.08,3.31a20.11,20.11,0,0,1-.28,2.59c-.09.58-.4.78-.86.6-.19-.08-.46-.12-.55-.26a7.14,7.14,0,0,1-1-3.08c-.15-1.51-.19-3-.27-4.57,0-.5-.05-1-.08-1.51q-2.5-2.54-4.84-5.18l-.41-.47q-2.14-2.43-4.16-4.94l-.54-.7q-1.93-2.43-3.73-4.94l-.55-.77q-1.78-2.51-3.44-5.09l-.48-.75q-1.67-2.62-3.21-5.32l-.37-.66q-1.57-2.79-3-5.64l-.24-.48q-1.49-3-2.83-6l-.11-.25q-1.39-3.18-2.61-6.44c.13.63.27,1.25.42,1.87.35,1.56.49,3-.48,4.37-.62,2.14-.9,4.28.2,6.38a7,7,0,0,1,.47,1.22,1.92,1.92,0,0,1-.34,1.84c-.57.65-1.21,1.25-1.84,1.85-.28.26-1.63-.16-1.78-.5a15.39,15.39,0,0,1-1.2-4.41,1.94,1.94,0,0,0-1.62-1.8c-.16,0-.32-.3-.38-.5s.19-.57.73-.69l.63-.15a1.17,1.17,0,0,0,.92-.86,15.11,15.11,0,0,0,.45-5.2,39.11,39.11,0,0,1,.25-7.86,15.71,15.71,0,0,0-.13-3.27,5.34,5.34,0,0,1,.27-1.93c0-.12.07-.27.11-.41-.8-2.78-1.5-5.58-2.13-8.42-.08-.37-.17-.73-.25-1.11-.26-1.2-.49-2.42-.72-3.64-.14-.75-.26-1.5-.39-2.25-.18-1.06-.36-2.12-.51-3.19q-.37-2.58-.64-5.2c-.07-.72-.13-1.44-.19-2.16-.12-1.37-.22-2.74-.3-4.12,0-.65-.07-1.29-.11-1.94-.09-2-.14-4-.14-6s.06-4.12.15-6.18c0-.66.08-1.31.11-2q.12-2.1.31-4.19.1-1.13.22-2.26c.14-1.35.31-2.7.49-4,.1-.7.18-1.41.29-2.11.29-1.88.61-3.74,1-5.6.17-.87.37-1.72.55-2.58.23-1.06.46-2.12.71-3.16s.52-2.07.79-3.1q.33-1.24.68-2.48c.32-1.13.65-2.26,1-3.37.17-.56.37-1.11.55-1.67a135.12,135.12,0,0,1,4.9-12.71l.35-.8q1-2.15,2-4.26c.07-.14,0-.28.05-.43,3.05-6.11,7.76-12,10.39-17.62h0c0-2.8.51-3.16,2.46-3.85.13,0,.31-.38.42-.38h0c1.72-2.62,3.55-4.2,5.42-6.37.35-.42.72-.68,1.08-1.08,1.94-2.2,3.93-4.29,6-6.38,1.7-1.7,3.44-3.3,5.21-4.9.26-.24.54-.44.81-.67q2.34-2.08,4.75-4c.13-.11.27-.7.4-.81,1.77-1.43,3.58-2,5.41-4.62h0c1.94,0,4.73-2.13,4.73-3.44v.18c0-.09-.06-.14-.36-.35a1.26,1.26,0,0,1-.2-1.68c.23-.37.63-.7.86-1.07a3.52,3.52,0,0,0,.79-2.4,11.6,11.6,0,0,1,.2-1.28,1.74,1.74,0,0,1,3-1.1c.71.56.88,1,.48,1.62s-.75,1.06-1.1,1.61A.88.88,0,0,0,221,88.9c.44.45.77.77.63,1.33,4.55-2.76,9.25-5.09,14.07-7.71h0c-.08,0-.19-1-.37-1.66a4.54,4.54,0,0,1,.08-1.79,19.31,19.31,0,0,1,.37-2.51c.57-2.37.18-4.72.15-7.09a9.08,9.08,0,0,0-.78-2.43,1.47,1.47,0,0,1,.77-1.59c.17-.09.43,0,.71,0a1.08,1.08,0,0,1,.74.84c.11.64,0,1.29.11,1.94a32.8,32.8,0,0,1,0,8.33,7.61,7.61,0,0,0,.12,2.58,5.72,5.72,0,0,1,.21,1.93,8,8,0,0,0-.07,1.1h0A134.6,134.6,0,0,1,255,76l.73-.2Q262,74,268.35,72.91c.43-.08.86-.18,1.29-.25a25.14,25.14,0,0,1,4.06-.65h0c.38,0,.87-1.54,1.41-2.28l0-.06.06-.09L274,69.2c-1-.29-1.18-1.22-1.59-1.94a4,4,0,0,1-.36-1.87,3,3,0,0,1,.42-1.22,4.63,4.63,0,0,0,.28-3.77,3.66,3.66,0,0,1-.08-1.29,2.46,2.46,0,0,1,1.14-2.21,2.1,2.1,0,0,1,2.38.49c.15.15.39.28.43.45a20.09,20.09,0,0,1,.07,9,4.5,4.5,0,0,1-.52,1.19c-.3.52-.66,1-1,1.53l.08,0,0,0-.08.12.58,2.07q3.89-.48,7.82-.73l.72-.06c2.71-.16,5.42-.26,8.16-.26q3.29,0,6.56.16c1,0,2,.14,3,.21s2.28.14,3.41.25c1.36.13,2.7.3,4.05.47.75.09,1.5.17,2.24.28,1.58.22,3.14.49,4.7.76l1.47.25c1.73.33,3.46.7,5.17,1.09l.88.19q2.77.65,5.51,1.43l.43.12q2.88.82,5.72,1.76l.14,0q2.92,1,5.79,2.08h0a16.63,16.63,0,0,0-1-6.45,3,3,0,0,1,.21-2.5c.36-.78.68-1.59,1-2.37a.44.44,0,0,1,.38-.16.9.9,0,0,1,.41.46,28.62,28.62,0,0,0,3.66,6.84,1,1,0,0,1-.08,1.24c-.24.35-.41.25-.7.57a9,9,0,0,0-1.23,2.41h0c8.21,5.25,16.09,8.06,23.54,13,0,0,.09.31.14.34,1.72,1.14,3.41,2.47,5.08,3.69.15.11.31.28.46.4,1.55,1.14,3.06,2.37,4.57,3.59l.8.63c1.36,1.12,2.68,2.29,4,3.46.38.34.78.66,1.16,1,1.4,1.27,2.77,2.59,4.12,3.93.27.27.56.52.83.79l.14-.2a2.56,2.56,0,0,0,.34-2.47,8.59,8.59,0,0,1-.18-5.79c.17-.63.42-1.25.61-1.87a8,8,0,0,0-.23-6.37A34.35,34.35,0,0,1,388,90.43a4.67,4.67,0,0,1,.12-4.39,5.76,5.76,0,0,0,.73-4.44c-.5-1.94.31-3.41,1.31-4.89a4,4,0,0,1,.8-1,1.78,1.78,0,0,1,1.18-.42c.37.07.68.49,1,.79a1,1,0,0,1,.33.56,49.8,49.8,0,0,0,.76,5.85,8.2,8.2,0,0,1-.66,5.13c-.84,1.62-.85,3.38-1.32,5.05a3.45,3.45,0,0,0,.08,1.94,5.75,5.75,0,0,1-.47,4.41,3.71,3.71,0,0,0-.17,1.94,21.55,21.55,0,0,0,.52,2.56,13.41,13.41,0,0,1,.25,5.86,3.24,3.24,0,0,0-.05,1.89c.43,1.25.76,2.53,1.1,3.8,0,.18.05.37.09.56.33.36.64.74,1,1.11,1.13,1.27,2.25,2.54,3.32,3.85.55.67,1.07,1.35,1.6,2,.82,1,1.64,2.06,2.42,3.1.57.76,1.11,1.54,1.66,2.32.71,1,1.42,2,2.1,3,.55.82,1.08,1.65,1.61,2.47.64,1,1.28,2,1.89,3,.52.85,1,1.71,1.51,2.57s1.16,2,1.71,3,.94,1.77,1.4,2.66,1,2,1.55,3.08.86,1.81,1.28,2.73.95,2.09,1.39,3.15.77,1.85,1.15,2.77.84,2.14,1.24,3.22.69,1.87,1,2.81q.57,1.65,1.09,3.31c.3.94.59,1.89.87,2.84.33,1.13.64,2.26.94,3.39.25.95.51,1.89.74,2.85.28,1.16.53,2.33.78,3.51.2.94.41,1.88.59,2.82.24,1.21.43,2.43.63,3.65.15.92.32,1.84.45,2.76.18,1.29.33,2.58.48,3.88.1.87.22,1.73.3,2.6.14,1.45.23,2.91.32,4.36,0,.73.12,1.46.15,2.19q.16,3.28.16,6.6c0,2.09-.06,4.18-.15,6.26,0,.78-.1,1.56-.14,2.34-.08,1.26-.16,2.52-.28,3.78-.09,1-.2,2-.31,3s-.23,2-.36,3c-.15,1.15-.32,2.31-.5,3.46-.11.7-.24,1.4-.36,2.1a135.16,135.16,0,0,1-5.14,20.13l0,.05c0,.14,0,.29,0,.43.06,2.18.37,4.37.25,6.54a55.38,55.38,0,0,0-.12,6.55c.22,3.5-.06,7,0,10.49a5.9,5.9,0,0,1-1.59,4.19,1.09,1.09,0,0,1-1.66-.18,2.21,2.21,0,0,1-.32-.55A4.6,4.6,0,0,1,418,277.51Zm3.75,16.6a1.28,1.28,0,0,1-1.89,1.06,1.76,1.76,0,0,1-.94-.84,5.11,5.11,0,0,1-.62-3.12,1.26,1.26,0,0,1,.65-1.07,1.72,1.72,0,0,1,1.8-.12,2.11,2.11,0,0,1,1.09,1.52c.06.42.05.86.08,1.29S421.8,293.68,421.73,294.11Zm9.42-48.57a2.2,2.2,0,0,1-2.36-.25,12.08,12.08,0,0,1-1.15-1.48,1.09,1.09,0,0,1,0-1.18,2.15,2.15,0,0,1,3.21-.75,2.47,2.47,0,0,1,1.13,2A1.8,1.8,0,0,1,431.15,245.54Z"/><path d="M419.55,97.49l-1.62-1.84.4.47C418.73,96.57,419.15,97,419.55,97.49Z"/><path d="M124.41,207.82c0,.24,0,.48,0,.71v0C124.43,208.28,124.42,208,124.41,207.82Z"/><path d="M411.2,88.48c1.49,1.49,2.93,3,4.35,4.53C414.13,91.48,412.68,90,411.2,88.48Z"/><path d="M125.79,186c0,.37-.1.74-.14,1.11a.53.53,0,0,1,0-.07C125.7,186.67,125.75,186.33,125.79,186Z"/><path d="M126.73,179.54c0,.18-.05.36-.08.54l.05-.31C126.71,179.7,126.72,179.62,126.73,179.54Z"/><path d="M459.8,193.37a.54.54,0,0,0,0,.06A.54.54,0,0,1,459.8,193.37Z"/><path d="M286.2,39.42c2.07-.08,4.14-.15,6.21-.15C290.33,39.27,288.26,39.33,286.2,39.42Z"/><path d="M174,88.14c1.54-1.53,3.12-3,4.7-4.47Q176.28,85.85,174,88.14Z"/><path d="M131.82,158Z"/><path d="M124.52,201.79c0-.53,0-1.06.05-1.59C124.56,200.73,124.54,201.26,124.52,201.79Z"/><path d="M138.41,140.18c.25-.56.48-1.12.73-1.68C138.89,139.06,138.66,139.62,138.41,140.18Z"/><path d="M136,146.09q.34-.88.7-1.75Q136.31,145.22,136,146.09Z"/><path d="M129.59,166l.13-.52Z"/><path d="M144.95,287.74l.56,1-.56-1Z"/><path d="M427.8,306.76l-.21.27Z"/><path d="M424,311.75c-.28.35-.57.69-.86,1C423.41,312.44,423.71,312.1,424,311.75Z"/><path d="M419.94,316.64c-.57.66-1.17,1.3-1.75,2C418.77,317.94,419.37,317.3,419.94,316.64Z"/><path d="M415.68,321.41q-2.19,2.36-4.49,4.66Q413.49,323.77,415.68,321.41Z"/><path d="M134,151.24l-.23.66.17-.48Z"/><path d="M241.17,47.29l1.32-.43Z"/><path d="M248.84,45l.93-.25Z"/><path d="M264.17,41.7l.22,0Z"/><path d="M256.51,43.18l.55-.12Z"/><path d="M233.58,49.92c.56-.21,1.11-.43,1.67-.63C234.69,49.49,234.14,49.71,233.58,49.92Z"/><path d="M219.1,56.11c.59-.29,1.18-.59,1.77-.87C220.28,55.51,219.7,55.82,219.1,56.11Z"/><path d="M188.94,75l.88-.68Z"/><path d="M183.4,79.49h0Z"/><path d="M226.15,52.9l1.89-.83Z"/><path d="M270.38,373.79a168.58,168.58,0,0,0,28.8,1.32A169.12,169.12,0,0,1,270.38,373.79Z"/><path d="M264.39,41.66h0l-.22,0h0Z"/><path d="M257.06,43.06h0l-.55.12h0Z"/><path d="M249.77,44.79h0l-.93.25h0Z"/><path d="M178.68,83.66l0,0c-1.58,1.46-3.16,2.94-4.7,4.47l-.35.34C175.27,86.82,177,85.23,178.68,83.66Z"/><path d="M220.88,55.23h0c-.59.28-1.18.58-1.77.87l-.07,0C219.65,55.84,220.26,55.52,220.88,55.23Z"/><path d="M183.4,79.5h0l0,0Z"/><path d="M203.48,64.76h0Z"/><path d="M228,52.07h0l-1.89.83,0,0C226.76,52.64,227.4,52.34,228,52.07Z"/><path d="M235.25,49.29h0c-.56.2-1.11.42-1.67.63h0C234.13,49.71,234.69,49.49,235.25,49.29Z"/><path d="M242.5,46.86h0l-1.32.43h0Z"/><polygon points="213.77 58.78 213.78 58.77 213.77 58.78 213.77 58.78"/><path d="M189.85,74.25l0,0-.88.68,0,0Z"/><path d="M124.43,206.74c0,.36,0,.72,0,1.08s0,.46,0,.69C124.43,207.92,124.43,207.33,124.43,206.74Z"/><path d="M124.63,199.35c0,.28,0,.56-.05.85,0,.53,0,1.06-.05,1.59,0,1.09,0,2.18-.06,3.27C124.49,203.16,124.54,201.26,124.63,199.35Z"/><path d="M126.7,179.77l-.05.31c-.32,2-.61,3.93-.86,5.9,0,.35-.09.69-.13,1Q126.1,183.39,126.7,179.77Z"/><path d="M130.47,162.75c-.25.9-.52,1.79-.75,2.69l-.13.52c-.11.43-.19.86-.3,1.29C129.66,165.74,130.06,164.24,130.47,162.75Z"/><path d="M125.66,187a.53.53,0,0,0,0,.07.28.28,0,0,0,0,0Z"/><path d="M134,151.42c-.06.16-.74.32-.8.48-.7,2,0,4-2.62,6.05h0c0,.08.6.16.59.24C131.85,155.93,133.19,153.66,134,151.42Z"/><path d="M134.25,150.68c-.06.18-.14.37-.21.55l-.06.18Z"/><path d="M125.27,190.77c-.16,1.63-.31,3.25-.42,4.88C125,194,125.11,192.4,125.27,190.77Z"/><path d="M141.78,132.88c-.92,1.86-1.79,3.73-2.64,5.61-.25.56-.49,1.12-.73,1.68l-.23.55C139.32,138.1,140.5,135.47,141.78,132.88Z"/><path d="M128.36,171.26c-.33,1.51-.63,3-.92,4.55C127.73,174.29,128,172.78,128.36,171.26Z"/><path d="M126.76,179.42l0,.12c0,.08,0,.15,0,.23C126.72,179.66,126.74,179.54,126.76,179.42Z"/><path d="M125.32,208.53c0,2.13.06,4.26.15,6.38-.1-2.13-.15-4.27-.15-6.4Z"/><path d="M131.49,159.07l.08-.25,0,0C131.53,158.93,131.52,159,131.49,159.07Z"/><path d="M137.22,143c-.18.44-.38.88-.56,1.32s-.47,1.17-.7,1.75c-.43,1.11-.84,2.22-1.25,3.33Q135.9,146.21,137.22,143Z"/><path d="M440.16,127.32l-.59-1.07Z"/><path d="M434.58,117.81c-.24-.38-.47-.76-.72-1.14C434.11,117,434.34,117.43,434.58,117.81Z"/><path d="M443.24,133.31c-.27-.54-.53-1.09-.81-1.63Z"/><path d="M459.31,188.5c-.07-.66-.16-1.33-.24-2C459.16,187.17,459.24,187.84,459.31,188.5Z"/><path d="M455.06,165.3c-.12-.46-.25-.91-.37-1.37C454.82,164.39,454.95,164.84,455.06,165.3Z"/><path d="M456.58,171.79c-.14-.63-.27-1.26-.42-1.89C456.31,170.52,456.45,171.16,456.58,171.79Z"/><path d="M459.88,194.66c0-.41,0-.82-.08-1.23a.54.54,0,0,1,0-.06l0-.25C459.82,193.63,459.85,194.14,459.88,194.66Z"/><path d="M457.32,239.24a.1.1,0,0,0,0,0A.1.1,0,0,1,457.32,239.24Z"/><path d="M460.31,203.58c0,.55,0,1.11,0,1.67C460.35,204.69,460.33,204.14,460.31,203.58Z"/><path d="M460.18,199.21s0-.08,0-.12S460.18,199.17,460.18,199.21Z"/><path d="M450,149.12c-.21-.57-.43-1.15-.65-1.73C449.58,148,449.8,148.55,450,149.12Z"/><path d="M452,154.93c-.14-.42-.27-.85-.41-1.27C451.76,154.08,451.89,154.51,452,154.93Z"/><path d="M456.11,245l0-.14Z"/><path d="M421.79,100.15c-.74-.89-1.48-1.77-2.24-2.66-.4-.46-.81-.92-1.22-1.37Q420.1,98.11,421.79,100.15Z"/><path d="M418.33,96.12l-.4-.47-.52-.58Z"/><path d="M431.13,112.54c-.36-.53-.73-1-1.09-1.56C430.4,111.5,430.77,112,431.13,112.54Z"/><path d="M415.55,93c-1.42-1.53-2.86-3-4.35-4.53,1.77,1.76,3.47,3.58,5.14,5.4Z"/><path d="M423.17,101.83l-1.27-1.56Z"/><polygon points="427.21 107.04 427.22 107.05 427.21 107.04 427.21 107.04"/><path d="M424.2,103.14c.54.68,1.07,1.37,1.6,2.07h0C425.3,104.5,424.74,103.82,424.2,103.14Z"/><path d="M283.6,343.46c1.21.08,2.42.14,3.64.18-1.22-.05-2.43-.11-3.64-.18Z"/><path d="M235.72,83.05a135.78,135.78,0,0,0-14.07,7.44h0A135.52,135.52,0,0,1,235.72,83.05Z"/><path d="M159.14,236.88c.63,2.84,1.33,5.64,2.13,8.42h0C160.47,242.52,159.77,239.71,159.14,236.88Z"/><path d="M164.69,255.35c0,2.17,1.69,4.32,2.62,6.44-.93-2.12-2.62-4.28-2.62-6.45Z"/><path d="M261.21,340.18a136.62,136.62,0,0,0,21.22,3.2,136.62,136.62,0,0,1-21.22-3.2Z"/><path d="M201.89,105.13c1.56-1.38,3.14-2.74,4.75-4C205,102.39,203.45,103.74,201.89,105.13Z"/><path d="M198.14,305.94a137.48,137.48,0,0,0,20.62,16.27,137.94,137.94,0,0,1-20.62-16.27Z"/><path d="M190.3,297.84q2.35,2.64,4.84,5.18h0Q192.65,300.48,190.3,297.84Z"/><path d="M424.31,172.06c.25.95.51,1.89.74,2.85C424.81,173.95,424.56,173,424.31,172.06Z"/><path d="M394.55,116.76c-.33-.37-.63-.75-1-1.11h0C393.92,116,394.23,116.39,394.55,116.76Z"/><path d="M427.05,184.88c.15.92.32,1.84.45,2.76C427.37,186.72,427.2,185.8,427.05,184.88Z"/><path d="M427.66,225.59c-.15,1.15-.32,2.31-.5,3.46C427.34,227.9,427.5,226.74,427.66,225.59Z"/><path d="M428,191.52c.1.87.22,1.73.3,2.6C428.19,193.25,428.07,192.39,428,191.52Z"/><path d="M357.89,327.08c-.49.27-1,.55-1.47.82C356.91,327.63,357.4,327.35,357.89,327.08Z"/><path d="M422.5,165.83c.3.94.59,1.89.87,2.84C423.09,167.71,422.8,166.77,422.5,165.83Z"/><path d="M425.83,178.41c.2.94.41,1.88.59,2.82C426.24,180.29,426,179.35,425.83,178.41Z"/><path d="M283.52,71.09q-3.93.25-7.82.73h0C278.3,71.5,280.9,71.27,283.52,71.09Z"/><path d="M156.64,221.5c-.07-.72-.13-1.44-.19-2.16C156.52,220.06,156.57,220.78,156.64,221.5Z"/><path d="M363.62,323.75c-.67.41-1.34.83-2,1.23C362.28,324.57,363,324.16,363.62,323.75Z"/><path d="M426.79,231.15a136.58,136.58,0,0,1-5.14,20.13A135.16,135.16,0,0,0,426.79,231.15Z"/><path d="M168,151.05q1-2.15,2-4.26Q169,148.91,168,151.05Z"/><path d="M159.7,175.17c.25-1,.52-2.07.79-3.1C160.22,173.11,160,174.14,159.7,175.17Z"/><path d="M404.83,284.69c-1,1.46-2,2.91-3.1,4.34C402.79,287.6,403.82,286.15,404.83,284.69Z"/><path d="M158.44,180.92c.17-.87.37-1.72.55-2.58C158.81,179.19,158.61,180.05,158.44,180.92Z"/><path d="M299.93,343.55c-2.5.14-5,.22-7.52.22C294.92,343.77,297.43,343.69,299.93,343.55Z"/><path d="M317.86,73.15c1.73.33,3.46.7,5.17,1.09C321.31,73.85,319.59,73.48,317.86,73.15Z"/><path d="M170.21,146.37a135.75,135.75,0,0,1,10.55-17.62A135.51,135.51,0,0,0,170.21,146.37Z"/><path d="M183.4,125.11c1.72-2.27,3.54-4.49,5.4-6.67C186.93,120.62,185.12,122.84,183.4,125.11Z"/><path d="M162.73,164.56a135.09,135.09,0,0,1,4.9-12.71A135.12,135.12,0,0,0,162.73,164.56Z"/><path d="M408.58,279q-1.53,2.47-3.16,4.89C406.51,282.25,407.56,280.62,408.58,279Z"/><path d="M428.59,198.48c0,.73.12,1.46.15,2.19C428.71,199.94,428.64,199.21,428.59,198.48Z"/><path d="M344.2,80.92A135.51,135.51,0,0,1,367.74,93.4,135.17,135.17,0,0,0,344.2,80.92Z"/><path d="M161.18,169.6c.32-1.13.65-2.26,1-3.37C161.83,167.35,161.5,168.47,161.18,169.6Z"/><path d="M428.33,219.66c-.09,1-.2,2-.31,3C428.13,221.65,428.24,220.66,428.33,219.66Z"/><path d="M400.6,290.46c-.94,1.21-1.87,2.42-2.85,3.61C398.73,292.89,399.66,291.68,400.6,290.46Z"/><path d="M379.78,312.13l-1.53,1.27Z"/><path d="M384.49,308l-1.4,1.26Z"/><path d="M323.91,74.44q2.77.65,5.51,1.43Q326.68,75.1,323.91,74.44Z"/><path d="M329.85,76q2.88.82,5.72,1.76Q332.72,76.8,329.85,76Z"/><path d="M368.71,320.48c-.61.42-1.23.82-1.85,1.22C367.48,321.3,368.1,320.9,368.71,320.48Z"/><path d="M374.22,316.55c-.26.19-.51.41-.77.59C373.71,317,374,316.74,374.22,316.55Z"/><path d="M335.7,77.79q2.92,1,5.79,2.08Q338.61,78.76,335.7,77.79Z"/><path d="M156.05,201.1c0-.66.08-1.31.11-2C156.13,199.78,156.08,200.44,156.05,201.1Z"/><path d="M189.87,117.21c1.93-2.2,3.92-4.36,6-6.45C193.79,112.85,191.81,115,189.87,117.21Z"/><path d="M156.15,215.22q-.06-1-.11-1.94C156.08,213.93,156.11,214.58,156.15,215.22Z"/><path d="M156.47,194.93q.1-1.13.22-2.26Q156.57,193.8,156.47,194.93Z"/><path d="M395.76,296.38c-.76.88-1.49,1.76-2.28,2.63C394.27,298.14,395,297.26,395.76,296.38Z"/><path d="M195.88,110.75q2.55-2.55,5.21-4.94Q198.43,108.22,195.88,110.75Z"/><path d="M157.19,188.63c.1-.7.18-1.41.29-2.11C157.37,187.22,157.28,187.93,157.19,188.63Z"/><path d="M417.58,261.8q-2.52,5.78-5.57,11.32Q415.07,267.59,417.58,261.8Z"/><path d="M180.91,286q-1.78-2.51-3.44-5.09Q179.13,283.52,180.91,286Z"/><path d="M255.76,75.76Q262,74,268.35,72.91,262,74,255.76,75.76Z"/><path d="M311.69,72.14c1.58.22,3.14.49,4.7.76C314.83,72.63,313.27,72.36,311.69,72.14Z"/><path d="M185.19,291.73c-1.28-1.62-2.53-3.27-3.73-4.94Q183.27,289.3,185.19,291.73Z"/><path d="M367.88,93.49c1.72,1.15,3.41,2.34,5.08,3.57C371.28,95.84,369.6,94.64,367.88,93.49Z"/><path d="M373.42,97.39c1.55,1.14,3.06,2.34,4.57,3.55C376.48,99.73,375,98.53,373.42,97.39Z"/><path d="M384,106c1.4,1.27,2.77,2.59,4.12,3.93C386.72,108.62,385.36,107.29,384,106Z"/><path d="M170.16,268.08q-1.49-3-2.83-6Q168.67,265.09,170.16,268.08Z"/><path d="M173.41,274.2q-1.57-2.79-3-5.64Q171.84,271.41,173.41,274.2Z"/><path d="M378.78,101.57c1.36,1.11,2.68,2.28,4,3.45C381.47,103.85,380.14,102.68,378.78,101.57Z"/><path d="M237.73,82.16A135.54,135.54,0,0,1,255,76,134.6,134.6,0,0,0,237.73,82.16Z"/><path d="M177,280.18q-1.67-2.62-3.21-5.32Q175.32,277.56,177,280.18Z"/><path d="M241.64,334A134.75,134.75,0,0,1,226.72,327,134.55,134.55,0,0,0,241.64,334Z"/><path d="M249.28,336.81q-3-1-5.93-2.12Q246.29,335.82,249.28,336.81Z"/><path d="M212.46,96.63q2.91-2.11,5.92-4.06Q215.37,94.52,212.46,96.63Z"/><path d="M258.76,339.61c-2.53-.64-5-1.36-7.51-2.15C253.74,338.25,256.23,339,258.76,339.61Z"/><path d="M299,70.93c1,0,2,.14,3,.21C301,71.07,300,71,299,70.93Z"/><path d="M284.24,71c2.71-.17,5.42-.26,8.16-.26C289.67,70.77,286.95,70.88,284.24,71Z"/><path d="M411.94,273.23q-1.49,2.69-3.1,5.32C409.92,276.8,410.95,275,411.94,273.23Z"/><path d="M307.49,342.92c-1.79.2-3.58.34-5.39.47C303.9,343.27,305.7,343.12,307.49,342.92Z"/><path d="M189.89,297.37q-2.14-2.43-4.16-4.94Q187.75,294.94,189.89,297.37Z"/><path d="M305.39,71.39c1.36.13,2.7.3,4.05.47C308.09,71.69,306.75,71.52,305.39,71.39Z"/><path d="M269.65,72.69q2-.34,4.06-.63Q271.67,72.35,269.65,72.69Z"/><path d="M226.09,326.61q-3.45-1.93-6.8-4.06Q222.64,324.68,226.09,326.61Z"/><path d="M315.17,341.86q-2.68.45-5.38.78Q312.5,342.3,315.17,341.86Z"/><path d="M323.26,340.25c-2,.47-4.07.89-6.12,1.27Q320.22,341,323.26,340.25Z"/><path d="M409.16,136.5c.52.85,1,1.71,1.51,2.57C410.17,138.21,409.68,137.35,409.16,136.5Z"/><path d="M412.38,142.1c.48.88.94,1.77,1.4,2.66C413.32,143.87,412.87,143,412.38,142.1Z"/><path d="M158.9,235.78c-.26-1.2-.49-2.42-.72-3.64C158.41,233.36,158.64,234.57,158.9,235.78Z"/><path d="M401.9,125.75c.57.76,1.11,1.54,1.66,2.32C403,127.29,402.47,126.51,401.9,125.75Z"/><path d="M420.39,159.71c.35.93.69,1.87,1,2.81C421.08,161.58,420.74,160.64,420.39,159.71Z"/><path d="M415.33,147.84c.44.9.86,1.81,1.28,2.73C416.19,149.65,415.77,148.74,415.33,147.84Z"/><path d="M428.75,213.53c0,.78-.1,1.56-.14,2.34C428.65,215.09,428.71,214.32,428.75,213.53Z"/><path d="M397.88,120.61c.55.67,1.07,1.35,1.6,2C398.94,122,398.42,121.28,397.88,120.61Z"/><path d="M418,153.71c.39.92.77,1.85,1.15,2.77C418.78,155.56,418.4,154.63,418,153.71Z"/><path d="M405.66,131c.55.82,1.08,1.65,1.61,2.47C406.74,132.69,406.22,131.86,405.66,131Z"/><path d="M353.44,329.4A135.31,135.31,0,0,1,324.3,340,134.67,134.67,0,0,0,353.44,329.4Z"/><path d="M207,100.77c1.78-1.42,3.58-2.8,5.41-4.13Q209.7,98.63,207,100.77Z"/><path d="M157.8,229.89c-.18-1.06-.36-2.12-.51-3.19C157.43,227.77,157.62,228.83,157.8,229.89Z"/><path d="M183.58,192.78c0,1.78.07,3.55.16,5.31q0,.6.07,1.2c.12,1.75.27,3.49.48,5.2,0,.11,0,.22,0,.33.21,1.68.47,3.34.76,5l.15.85c.33,1.75.7,3.49,1.12,5.21,0,.08,0,.15.06.22q.65,2.6,1.44,5.14l.1.32q.83,2.65,1.8,5.23v0a97.12,97.12,0,0,0,4.57,10.25c.05-.27.07-.53.13-.79a4.39,4.39,0,0,0,.19-1.92c-.83-3.7-.49-7.41-.09-11.11a13.05,13.05,0,0,0,0-3.26,47,47,0,0,1-.35-11.79,12.86,12.86,0,0,0,0-2.61,17.23,17.23,0,0,1,.45-6.49,2,2,0,0,0-.06-1.25,8.24,8.24,0,0,1-.52-3.21c.21-3.71-.32-7.43.25-11.15.16-1.06-.13-2.18,0-3.26a3.6,3.6,0,0,1,.88-1.7.8.8,0,0,1,1.08-.18c.17.11.38.33.38.51,0,.87,0,1.73,0,2.16a11.49,11.49,0,0,0,.11,5,6.82,6.82,0,0,1,0,4.47,3.8,3.8,0,0,0-.42,2.57c.21.62-.1,1.23-.1,1.84h0c2.63-9.12,4.77-17.85,8.47-26,0,0,.26-.06.27-.08A108.56,108.56,0,0,1,215,151.34h.07c1.28-1.83,2.64-3.6,4-5.34,0-.08,0-.16,0-.24a4.87,4.87,0,0,1,0-1.3,4.37,4.37,0,0,1,.41-1.17c.16-.35,1.07-.19,1.65.24q3.31-3.91,7-7.49l0,0q1.8-1.76,3.68-3.45s0-.05,0-.08c1.26-1.11,3.73-2.2,3.73-3.25h0c0-1.25.06-2.51,0-3.76a14.31,14.31,0,0,0-.39-1.9,16.73,16.73,0,0,1,1.25-8.93c.23-.57.58-.57,1.07-.23a2.1,2.1,0,0,1,1.08,1.52c.12,1.08.12,2.17.13,2.5a38.76,38.76,0,0,1-.27,4.66,16.29,16.29,0,0,0-.42,4.33h0c1,0,2.06-1.53,3.11-2.28l.63-.44q1.51-1.06,3.06-2.07l.7-.45c1.06-.68,2.13-1.35,3.21-2l.21-.12a109.45,109.45,0,0,1,10.49-5.43l1.27-.57c.92-.41,1.85-.78,2.79-1.16.57-.24,1.15-.47,1.74-.69q1.32-.51,2.65-1l2-.69c.84-.28,1.67-.55,2.52-.81s1.73-.5,2.6-.74,1.91-.52,2.88-.76c1.25-.31,2.5-.61,3.77-.87.64-.13,1.29-.25,1.94-.37,1-.19,2-.37,3-.54.67-.11,1.35-.21,2-.3q1.54-.22,3.09-.39l2-.21c1.13-.11,2.27-.19,3.41-.26l1.69-.1c1.71-.08,3.42-.13,5.15-.13a109,109,0,0,1,20.88,2,96.63,96.63,0,0,0-141.31,85.69Zm18.94-48.14c.31-.1.61.27.74.72a6.1,6.1,0,0,1,.08.62.93.93,0,0,1-.57,1c-.29.11-.59-.26-.72-.72a4.4,4.4,0,0,1-.08-.62A.88.88,0,0,1,202.52,144.63Zm1.88,18.09a5.93,5.93,0,0,0,0,.64c0,.44,0,.87,0,1.39-.15,1-.29,2-.5,3.08a.89.89,0,0,1-1,.63.61.61,0,0,1-.44-.32,17.94,17.94,0,0,1-1.68-5.52,4.84,4.84,0,0,1,.27-2.54,17.42,17.42,0,0,0,1.5-4.17.65.65,0,0,1,.32,0,1.14,1.14,0,0,1,.16.6C202.66,158.74,204.66,160.49,204.4,162.73Zm3.37-.66a1.6,1.6,0,0,1-.27-.46,1,1,0,0,1,0-.54c.06-.15.23-.26.35-.38l.29.43A.86.86,0,0,1,207.77,162.07Zm13.91-34a.91.91,0,0,1-1.09-.47,1.12,1.12,0,0,1,.08-1.19,2,2,0,0,1,2.24-.75.84.84,0,0,1,.57,1C223.34,127.54,222.91,127.86,221.67,128.06Zm14.55-17.46a2.56,2.56,0,0,0-1.74-.68,1.11,1.11,0,0,1-1-.56c-.29-.47-.09-.59,1.44-1,.41-.1.81-.27,1.21-.42.73-.26,1.14,0,1.28.74a11.42,11.42,0,0,1,.1,1.29A.74.74,0,0,1,236.22,110.6Z"/><path d="M189.78,226.81v0Z"/><path d="M288.69,106.15c-.68.1-1.36.19-2,.3C287.34,106.34,288,106.25,288.69,106.15Z"/><path d="M231.84,132.54q-1.88,1.68-3.68,3.45Q230,134.23,231.84,132.54Z"/><path d="M293.75,105.55l-2,.21Z"/><path d="M186.43,216.08c0-.07,0-.14-.06-.22C186.39,215.94,186.41,216,186.43,216.08Z"/><path d="M298.86,105.19l-1.69.1Z"/><path d="M215.12,151.34a108.18,108.18,0,0,0-10,17.43A108.18,108.18,0,0,1,215.12,151.34Z"/><path d="M205.13,168.85a107.7,107.7,0,0,0-8,26A107.82,107.82,0,0,1,205.13,168.85Z"/><path d="M185.25,210.65l-.15-.85Z"/><path d="M244.84,122.62c-1,.68-2.05,1.36-3.06,2.07C242.79,124,243.81,123.3,244.84,122.62Z"/><path d="M188,221.54l-.1-.32Z"/><path d="M263.51,112.9c-.94.37-1.87.75-2.79,1.16C261.64,113.65,262.57,113.27,263.51,112.9Z"/><path d="M248.75,120.18c-1.08.65-2.15,1.31-3.21,2Q247.13,121.15,248.75,120.18Z"/><path d="M272.44,109.73c-.85.26-1.68.53-2.52.81C270.76,110.27,271.6,110,272.44,109.73Z"/><path d="M241.15,125.14c-1.05.75-2.09,1.51-3.11,2.29C239.06,126.64,240.1,125.88,241.15,125.14Z"/><path d="M267.9,111.23q-1.34.47-2.65,1C266.12,111.87,267,111.55,267.9,111.23Z"/><path d="M235.76,129.22q-2,1.58-3.83,3.25Q233.81,130.8,235.76,129.22Z"/><path d="M219.12,146h0q-2.08,2.61-4,5.34Q217,148.6,219.12,146Z"/><path d="M221.15,143.52h0q3.31-3.91,7-7.49Q224.46,139.61,221.15,143.52Z"/><path d="M283.62,107c-.65.12-1.29.24-1.94.37C282.33,107.23,283,107.11,283.62,107Z"/><path d="M183.81,199.28q0-.6-.07-1.2Q183.77,198.68,183.81,199.28Z"/><path d="M184.34,204.81c0-.11,0-.22,0-.33C184.3,204.6,184.32,204.71,184.34,204.81Z"/><path d="M259.45,114.63A109.45,109.45,0,0,0,249,120.06,109.76,109.76,0,0,1,259.45,114.63Z"/><path d="M277.91,108.23c-1,.24-1.92.5-2.88.76C276,108.73,276.95,108.47,277.91,108.23Z"/></svg>