<svg id="Layer_1" data-name="Layer 1" xmlns="http://www.w3.org/2000/svg" viewBox="0 0 500 500"><defs><style>.cls-1{fill:none;}.cls-2{fill:#231f20;}.cls-3,.cls-4{fill:#fff;}.cls-4{fill-rule:evenodd;}</style></defs><title>mapActive</title><path class="cls-1" d="M203.91,85.7a.37.37,0,0,0-.3-.05.58.58,0,0,0-.32.23,11.42,11.42,0,0,0-.61,4.27,18.58,18.58,0,0,0,.81,6.62.54.54,0,0,0,.24.31c.16.07.4,0,.58-.29a2.29,2.29,0,0,0,.49-1.47,17.3,17.3,0,0,1,.08-3.87c-.06-1.26-.11-2.84-.25-4.4A1.84,1.84,0,0,0,203.91,85.7Z"/><path class="cls-1" d="M207.92,146.6c-.21.21-.12.36.22.37.1,0,.2-.11.3-.17-.06-.08-.1-.22-.18-.24A.4.4,0,0,0,207.92,146.6Z"/><polygon class="cls-1" points="203.69 103.95 203.94 103.95 203.81 103.63 203.69 103.95"/><path class="cls-1" d="M207.92,133.29c0-.09-.07-.2-.12-.33-.08.09-.19.15-.2.24s.07.21.1.31C207.79,133.44,207.9,133.38,207.92,133.29Z"/><polygon class="cls-1" points="212.32 51.56 212.36 51.32 212.04 51.4 212.32 51.56"/><path class="cls-1" d="M207.86,135.53a.45.45,0,0,0-.33.19c-.36.7-.72,1.43-.05,2.15a.66.66,0,0,0,.7.19.72.72,0,0,0,.49-.53,1.73,1.73,0,0,0,0-.39,2.4,2.4,0,0,0-.55-1.43A.43.43,0,0,0,207.86,135.53Z"/><polygon class="cls-1" points="203.83 112.24 203.96 112.02 203.76 111.99 203.83 112.24"/><path class="cls-1" d="M208.44,83a2,2,0,0,0-.74,0,.43.43,0,0,0-.25.27.48.48,0,0,0,.36.53c.48.17.92,0,1-.29A.46.46,0,0,0,208.44,83Z"/><path class="cls-1" d="M204.71,115.27a.62.62,0,0,0-.52-.48.43.43,0,0,0-.58.35,8.11,8.11,0,0,0-.07,3c0,.91,0,1.69,0,2.47a2.88,2.88,0,0,0,.13.76c0,.09.19.17.31.21.42.14.83-.17.7-.57-.22-.75-.53-1.48,0-2.23A8.51,8.51,0,0,0,204.71,115.27Z"/><path class="cls-1" d="M204,109.38l.1.15h.05C204.26,109.29,204.21,109.24,204,109.38Z"/><path class="cls-1" d="M199.53,211.42a.43.43,0,0,0-.33.58,2.4,2.4,0,0,0,.1.36c.1.26.32.47.56.4s.33-.36.3-.63c0-.12,0-.24-.08-.36A.4.4,0,0,0,199.53,211.42Z"/><path class="cls-1" d="M203.1,78.48a13.29,13.29,0,0,0-.17,1.56,1.67,1.67,0,0,0,.39,1.08c.08.09.18.21.28.23a.48.48,0,0,0,.58-.39,5.69,5.69,0,0,0,.06-2.38c0-.6-.09-1.25-.16-1.9a1.44,1.44,0,0,0-1.86-1.44.4.4,0,0,0-.39.55,1.83,1.83,0,0,0,.64.93A2,2,0,0,1,203.1,78.48Z"/><path class="cls-1" d="M204.14,109.57l0,0H204Z"/><path class="cls-1" d="M203.94,109.5h0l.07-.12Z"/><path class="cls-1" d="M203.94,109.52H204l-.06,0Z"/><path class="cls-1" d="M223.73,57.2a2,2,0,0,1,.29,1.89,3.3,3.3,0,0,0-.24,1.56,2,2,0,0,0,.33.7.61.61,0,0,0,1,.06,2.54,2.54,0,0,0,.55-2.6,3.62,3.62,0,0,1-.17-2.7,7.81,7.81,0,0,0,.25-1.17c0-.4,0-.8-.1-1.18a1.1,1.1,0,0,0-.62-.95c-.49-.19-1-.41-1.47-.61-.12-.05-.25-.08-.37-.12s-.83.36-.85.66c-.06.71.54,1.21.54,1.88A4.46,4.46,0,0,0,223.73,57.2Z"/><path class="cls-1" d="M260.37,72.12a5.63,5.63,0,0,1,.2-.77,2.37,2.37,0,0,0-.17-1.92c-.11-.24-.14-.52-.24-.76s-.29-.44-.51-.42-.23.14-.31.24a1.85,1.85,0,0,0-.43,1.08,3.75,3.75,0,0,0,.17,1.56,3.61,3.61,0,0,1,.17,1.94,23.56,23.56,0,0,0-.33,5.51c.1,1.59.09,3.11.06,4.7a12.67,12.67,0,0,0,.24,3.39,3.7,3.7,0,0,1,.09,1.23c0,1.32-.12,3.28-.17,3.28h0s0,2-.09,2.69a31.8,31.8,0,0,0,.51,8.23.56.56,0,0,0,.52.47.72.72,0,0,0,.62-.44c.06-.12.17-.23.18-.35.23-3.72.27-7.43.2-11.15a2.17,2.17,0,0,0-.11-.78,4.75,4.75,0,0,1,0-3.12,11.89,11.89,0,0,0,.2-3.18c0-1.06-.11-2.12-.1-3.18a19.87,19.87,0,0,1,.21-2.78,12.33,12.33,0,0,1,.54-1.48,1.14,1.14,0,0,0,0-.77c-.36-.71-.77-1.38-1.17-2.07A1.52,1.52,0,0,1,260.37,72.12Z"/><path class="cls-1" d="M259.94,106.54c-.24-.21-.44-.12-.47.23a.38.38,0,0,0,.21.29c.06,0,.19-.09.27-.14S260,106.6,259.94,106.54Z"/><polygon class="cls-1" points="259.93 112.33 259.84 112.09 259.71 112.31 259.93 112.33"/><path class="cls-1" d="M265.77,57.55a14.89,14.89,0,0,0,.19,4.86c.06.36.22.5.51.36a.79.79,0,0,0,.41-.61,4.09,4.09,0,0,0-.17-1.56,19,19,0,0,1,0-5.53c.06-.52.29-1,.36-1.54a1.37,1.37,0,0,0-.31-1.11.63.63,0,0,0-.28-.21c-.34-.09-.53,0-.56.31a12.6,12.6,0,0,0-.17,4A7.69,7.69,0,0,1,265.77,57.55Z"/><path class="cls-1" d="M259.78,46.46c.19.09.34-.23.36-.77,0-.2,0-.33,0-.45,0-.31-.2-.46-.47-.45a.5.5,0,0,0-.48.43.94.94,0,0,0,0,.37A1.08,1.08,0,0,0,259.78,46.46Z"/><path class="cls-1" d="M259.61,56.57c.21-.15.48-.26.61-.46a4.4,4.4,0,0,0,.67-3c0-.19-.34-.36-.54-.51a.43.43,0,0,0-.69.13,16.8,16.8,0,0,0-1,1.72,1.77,1.77,0,0,0,.23,1.87A.75.75,0,0,0,259.61,56.57Z"/><path class="cls-1" d="M260.19,59c-.09-.27-.85-.63-1-.38s-.33-.08-.34.14a5.05,5.05,0,0,0,0,.89h.07a24.38,24.38,0,0,1-.09,2.59,7,7,0,0,0,.08,1.29c.07.27.28.95.51,1a.47.47,0,0,0,.66-.21,23.2,23.2,0,0,0,.82-2.2,1.57,1.57,0,0,0,0-.83C260.69,60.62,260.43,59.76,260.19,59Z"/><path class="cls-1" d="M266.92,121.06c0,.23.2.35.45.34s.39-.15.38-.35a1.17,1.17,0,0,0-.27-.2.5.5,0,0,0-.33,0C267.06,120.85,266.92,121,266.92,121.06Z"/><path class="cls-1" d="M223.83,83.66a3.35,3.35,0,0,0,0,1.17,4.22,4.22,0,0,0,.49,1.07c.15.26.85.23,1,0a1.55,1.55,0,0,0,.37-.66,38.51,38.51,0,0,0,0-7.89,6.61,6.61,0,0,1,0-2c.1-.52.14-1,.23-1.72-.09-.5-.19-1.15-.35-1.79a2.45,2.45,0,0,0-.37-.68.76.76,0,0,0-.63-.37.73.73,0,0,0-.66.38A15,15,0,0,0,222.7,74a2.19,2.19,0,0,0,.16,1.9,4,4,0,0,1,.77,1.8C223.71,79.72,224.19,81.67,223.83,83.66Z"/><path class="cls-1" d="M215.77,206.45c-.5-.48-1-.41-1.25.15a2.3,2.3,0,0,0-.06,2.27.68.68,0,0,0,.62.41c.09,0,.2-.17.27-.28a6.11,6.11,0,0,0,.67-1.86,1.21,1.21,0,0,0,0-.38A1.89,1.89,0,0,0,215.77,206.45Z"/><path class="cls-1" d="M225.11,317.93a.51.51,0,0,0-.89-.06,2.41,2.41,0,0,0-.63,2.14c.08.43.72,1,1.06.94a1.76,1.76,0,0,0,.33-.2,1.78,1.78,0,0,0,.47-2.12A7.45,7.45,0,0,0,225.11,317.93Z"/><path class="cls-1" d="M199.73,203.54a.75.75,0,0,0,.26-.71c-.3-.87-.55-1.76-.81-2.65a.48.48,0,0,0-.63-.3,1.11,1.11,0,0,0-.34.17,2,2,0,0,0-.43,2.19,4.23,4.23,0,0,0,.9,1.3A.73.73,0,0,0,199.73,203.54Z"/><path class="cls-1" d="M251.83,92.75a5.41,5.41,0,0,0,.71.24,1.5,1.5,0,0,0,1.28-.74.78.78,0,0,0-.47-1.2,2.64,2.64,0,0,0-1.51.12.65.65,0,0,0-.43.59A.92.92,0,0,0,251.83,92.75Z"/><path class="cls-1" d="M226.13,89.34l-.46-.17a.72.72,0,0,0-.93.4,7.23,7.23,0,0,0-.35,4.26.48.48,0,0,0,.26.28c.23.1.52.27.69.19a.93.93,0,0,0,.4-.61,7.81,7.81,0,0,0,.09-1.18,5.77,5.77,0,0,1,0-.78.6.6,0,0,1,.49-.52c.51,0,1,0,1.56-.09a.42.42,0,0,0,.36-.57c-.08-.24-.17-.57-.35-.65A14.6,14.6,0,0,0,226.13,89.34Z"/><path class="cls-1" d="M224.87,115.27a42.73,42.73,0,0,0,.41,7.08s.25,0,.28,0a4.31,4.31,0,0,0,.65-1.39c.12-1.3.63-2.58.3-3.78,0-.78,0-1.44-.11-2.09a2.27,2.27,0,0,0-.31-.71.61.61,0,0,0-.65-.35c-.23,0-.37.18-.43.5A5,5,0,0,0,224.87,115.27Z"/><path class="cls-1" d="M225.29,134.86a3.47,3.47,0,0,0-.4.64.77.77,0,0,0-.07.38,9.42,9.42,0,0,0,.66,3,2.77,2.77,0,0,0,.21.33c.18.27.4.35.63.23s.26-.12.3-.22c.17-.49.32-1,.39-1.26a3.73,3.73,0,0,0-.67-2.83C226.15,134.93,225.44,134.69,225.29,134.86Z"/><path class="cls-1" d="M225.61,109.78a.52.52,0,0,0-.1-.35s-.17,0-.26,0-.13.24-.11.35.14.2.22.3C225.45,110,225.58,109.89,225.61,109.78Z"/><path class="cls-1" d="M178.66,87.55a.39.39,0,0,0,.68-.05,2.64,2.64,0,0,0,.37-.91c0-.55-.45-1.14-.66-1a1.72,1.72,0,0,0-.52.55A1.1,1.1,0,0,0,178.66,87.55Z"/><path class="cls-1" d="M174.06,75.65a.77.77,0,0,0-.73-.66.68.68,0,0,0-.59.43.87.87,0,0,0,.35,1,.65.65,0,0,0,.34.1C173.72,76.5,174,76,174.06,75.65Z"/><polygon class="cls-1" points="177.43 134.02 177.46 133.81 177.25 133.89 177.43 134.02"/><path class="cls-1" d="M175.17,136.16a.42.42,0,0,0-.55.24,2.25,2.25,0,0,0,0,.73.65.65,0,0,0,.32.63c.23.14.52-.2.56-.49a6.23,6.23,0,0,0,0-.88C175.43,136.29,175.28,136.21,175.17,136.16Z"/><path class="cls-1" d="M174.55,130.77a.74.74,0,0,0-.55.44,5,5,0,0,0-.15.75,4.81,4.81,0,0,0,.13.75.61.61,0,0,0,.56.41.72.72,0,0,0,.68-.3,1.47,1.47,0,0,0,0-1.77A.55.55,0,0,0,174.55,130.77Z"/><path class="cls-1" d="M177.76,83.08a1.56,1.56,0,0,0,0-.42.44.44,0,0,0-.59-.28.41.41,0,0,0-.29.58c.08.26.22.44.47.48S177.72,83.29,177.76,83.08Z"/><path class="cls-1" d="M177.47,80.79a1.37,1.37,0,0,0,.36-.68c.22-1.57.4-3.14.59-4.63a1.35,1.35,0,0,0-.66-1.39c-.32-.19-.48-.14-.59.19a25.17,25.17,0,0,0-.33,2.75c-.2,1-.46,2-.68,3.07a.65.65,0,0,0,0,.39.83.83,0,0,0,.57.48A.7.7,0,0,0,177.47,80.79Z"/><path class="cls-1" d="M164.45,84.09a.4.4,0,0,0-.3.16.55.55,0,0,0,.2.67c.28.21.45.09.46-.29S164.72,84.11,164.45,84.09Z"/><path class="cls-1" d="M168.37,114.1c0,.09.1.18.15.27l.19-.25-.16-.27C168.48,113.93,168.37,114,168.37,114.1Z"/><path class="cls-1" d="M251.08,45.73h0l0,0s0-.07-.08-.09a.36.36,0,0,1,0,.06Z"/><path class="cls-1" d="M251,45.72l-.06,0h.11Z"/><path class="cls-1" d="M248.52,46.41c-.18.31-.09,1.08.12,1.07a1.7,1.7,0,0,0,.75-.19,1.9,1.9,0,0,0,.76-.87,1.19,1.19,0,0,1,.82-.67,5,5,0,0,0-2.2.37A.68.68,0,0,0,248.52,46.41Z"/><path class="cls-1" d="M156,114.44c-.34.09-.46.3-.3.61a.54.54,0,0,0,.68.3.49.49,0,0,0,.31-.66C156.63,114.42,156.35,114.37,156,114.44Z"/><path class="cls-1" d="M153.31,119a1.14,1.14,0,0,0-.71.19.69.69,0,0,0-.15,1,.7.7,0,0,0,.3.24.72.72,0,0,0,.9-.47,1,1,0,0,0,.05-.37A.55.55,0,0,0,153.31,119Z"/><path class="cls-1" d="M152.35,123.23a.76.76,0,0,0-.82.68,1,1,0,0,0,.46,1,.93.93,0,0,0,1.08-.12,1.62,1.62,0,0,0,.26-.27.58.58,0,0,0,0-.74A1.25,1.25,0,0,0,152.35,123.23Z"/><path class="cls-1" d="M147.79,167.35c-.41-.22-1.26.21-1.62.78a.54.54,0,0,0-.14.35,2.32,2.32,0,0,0,1.24,1.86,1.63,1.63,0,0,0,.39.08,1.8,1.8,0,0,0,.71-.23,1.56,1.56,0,0,0,.5-1.75A1.94,1.94,0,0,0,147.79,167.35Z"/><path class="cls-1" d="M189.44,138.55v0l-.07.08Z"/><path class="cls-1" d="M188.13,74.91a1.68,1.68,0,0,0,.54-1c.1-.78.16-1.56.25-2.42-.07-.85-.09-1.77-.23-2.67a2.42,2.42,0,0,0-.73-1.37.56.56,0,0,0-.71-.06c-.67.65-.77,1.63-1.27,2.4a1.72,1.72,0,0,0,.29,2.16,3.55,3.55,0,0,1,.84,1.74,4.35,4.35,0,0,0,.4,1.09C187.68,75.11,187.9,75.12,188.13,74.91Z"/><path class="cls-1" d="M189.41,161.89a.5.5,0,0,0,.67.08,1.68,1.68,0,0,0,.63-1.72c0-.06,0-.22,0-.38a.89.89,0,0,0-.13-.36,2.32,2.32,0,0,0-.47-.59c-.2-.15-.51-.33-.69-.27s-.33.39-.39.63A3.36,3.36,0,0,0,189.41,161.89Z"/><path class="cls-1" d="M198.56,189.17c0-.12,0-.25.06-.37a2.47,2.47,0,0,0,0-.37.61.61,0,0,0-.42-.52.51.51,0,0,0-.61.34,6,6,0,0,0-.22.7.47.47,0,0,0,.34.59A.66.66,0,0,0,198.56,189.17Z"/><path class="cls-1" d="M189.45,138.58v0l-.09,0Z"/><path class="cls-1" d="M197.66,162.64a2.57,2.57,0,0,0,.16-.75c0-.65-.09-1.29-.15-1.94a.79.79,0,0,0-.71-.79,1.54,1.54,0,0,0-.38-.07c-.25,0-.57,0-.72.11s-.09.47,0,.72c.34.68.91,1.31.48,2.16a1.85,1.85,0,0,0-.07.39.6.6,0,0,0,.4.58A.72.72,0,0,0,197.66,162.64Z"/><path class="cls-1" d="M188.66,77.58a.68.68,0,0,0-1.32.3,2.64,2.64,0,0,0,.61,1.45c.21.24.44.32.63.17a.56.56,0,0,0,.17-.34c0-.26,0-.53,0-1C188.74,78.1,188.71,77.84,188.66,77.58Z"/><path class="cls-1" d="M190,167a1.05,1.05,0,0,0-.87.68c-.09.37-.15.75-.24,1.16.07.36.13.75.22,1.12s.56.76.84.66a1.32,1.32,0,0,0,.62-.41,2.76,2.76,0,0,0,.51-1.83,2.13,2.13,0,0,0-.19-.75A1.08,1.08,0,0,0,190,167Z"/><path class="cls-1" d="M189.86,129.16c-.06-.08-.11-.22-.19-.24-.26-.07-.39.05-.32.3,0,.06.16.07.25.11Z"/><path class="cls-1" d="M203.26,52.92c.43.12.84-.43.83-1.13a.52.52,0,0,0-.4-.57.65.65,0,0,0-.67.36,1,1,0,0,0-.05,1.1C203,52.78,203.17,52.84,203.26,52.92Z"/><path class="cls-1" d="M197.4,178.26c.15.4.56.72.79.63s.32-.65.15-1a.46.46,0,0,0-.62-.19A.41.41,0,0,0,197.4,178.26Z"/><path class="cls-1" d="M189.82,139.64a.48.48,0,0,0,.32.16.28.28,0,0,0,.21-.21,1.64,1.64,0,0,0,0-.74c-.18-.39-.53-.34-.87-.28.06.24.12.48.2.71A.83.83,0,0,0,189.82,139.64Z"/><path class="cls-1" d="M179.3,190.41a.63.63,0,0,0-.43.53.56.56,0,0,0,.32.64,1.41,1.41,0,0,0,.69.17c.21,0,.45-.72.39-1S179.63,190.29,179.3,190.41Z"/><path class="cls-1" d="M190.12,137.74a.68.68,0,0,0,.13-.35.52.52,0,0,0-.09-.32.56.56,0,0,0-.64-.25.48.48,0,0,0-.26.26,2.45,2.45,0,0,0,.17,1.42C189.67,138.25,189.91,138,190.12,137.74Z"/><path class="cls-1" d="M190.93,154c0-.08,0-.22-.07-.22-.3,0-.37.1-.2.26S190.84,154,190.93,154Z"/><path class="cls-1" d="M177.86,129.56a.72.72,0,0,0-.56.42,1.69,1.69,0,0,0,.44,1.73.34.34,0,0,0,.6-.05,9.8,9.8,0,0,0,.33-1c-.08-.32-.13-.56-.2-.8A.43.43,0,0,0,177.86,129.56Z"/><path class="cls-1" d="M285.92,250.36a1.08,1.08,0,0,0-1.48.79c-.17,1.26.19,1.74,1.37,1.83a.7.7,0,0,0,.68-.32,1.77,1.77,0,0,0,.21-1.49C286.61,250.73,286.25,250.56,285.92,250.36Z"/><path class="cls-1" d="M300.76,194.56c-.07.06-.11.29-.06.33a.82.82,0,0,0,.72.16c.3,0,.49-.15.54-.4s-.09-.24-.18-.3C301.49,194.15,301.13,194.21,300.76,194.56Z"/><path class="cls-1" d="M302.56,89.53c-.14-.18-.42-.25-.63-.37,0,0,0,0,0,0l0,0c0,.36-.15.76.38,1a1.33,1.33,0,0,1,.41.31s0-.1,0-.15A1.11,1.11,0,0,0,302.56,89.53Z"/><path class="cls-1" d="M303,86.91a.53.53,0,0,0-.54-.45.38.38,0,0,0-.41.44,5.42,5.42,0,0,1-.13,2.22c.32-.37.65-.75,1-1.13A1.19,1.19,0,0,0,303,86.91Z"/><path class="cls-1" d="M302.14,93.72a7.92,7.92,0,0,1,.12,1.57,11.75,11.75,0,0,0-.11,1.58,14.7,14.7,0,0,0,.5,1.47c.2.75,0,1.57.32,2.3,0,0,.17,0,.25,0,.15-2.24.3-4.47.43-6.71a7.93,7.93,0,0,0-.21-2.36,2.11,2.11,0,0,0-.73-1.17,14.8,14.8,0,0,1-.46,1.76A2.94,2.94,0,0,0,302.14,93.72Z"/><path class="cls-1" d="M307.51,85.33c-.11.08-.31.15-.31.23a3,3,0,0,0,1.41,2.14.72.72,0,0,0,.73-.09c.8-.7.73-1.35,0-1.91A2.39,2.39,0,0,0,307.51,85.33Z"/><path class="cls-1" d="M302.35,156.25a.54.54,0,0,0-.2.71,1,1,0,0,0,1.3.52.49.49,0,0,0,.36-.58C303.58,156.07,303,155.8,302.35,156.25Z"/><polygon class="cls-1" points="303.11 103.56 303.15 103.34 302.91 103.42 303.11 103.56"/><path class="cls-1" d="M304.32,114.5a4.43,4.43,0,0,1,.17-2.73,1.42,1.42,0,0,0,.15-1.15,7.89,7.89,0,0,1-.48-3.51c0-.13,0-.26-.05-.4,0-.34-.47-.83-.76-.82a1.08,1.08,0,0,0-.91.62,1.4,1.4,0,0,0-.18,1.13,6.18,6.18,0,0,1,.4,2.32,11.65,11.65,0,0,0,0,2.38,10.31,10.31,0,0,1-.06,3.16,5.43,5.43,0,0,0,.05,2c.18.77.31,1.56.53,2.33a4.1,4.1,0,0,1-.17,2.7,11.89,11.89,0,0,0-.42,2.21,3.19,3.19,0,0,0,.16.9,1.1,1.1,0,0,0,.56.46.44.44,0,0,0,.61-.29,18.79,18.79,0,0,0,.41-4.72,5.81,5.81,0,0,1,.41-2.32,3.5,3.5,0,0,0,.09-2.33A18.93,18.93,0,0,1,304.32,114.5Z"/><path class="cls-1" d="M292.31,90.59a.79.79,0,0,0-1.29.17,2,2,0,0,0-.17.34,1,1,0,0,0,.64,1.22.78.78,0,0,0,1-.38,4,4,0,0,0,.24-.7A3.17,3.17,0,0,0,292.31,90.59Z"/><path class="cls-1" d="M290.9,177.8c-.15-.63-.07-1.32-.18-2a4.23,4.23,0,0,0-.47-1.09,2.46,2.46,0,0,1-.22-1.15c0-.45,0-.89-.07-1.34a2.27,2.27,0,0,0-.57,1.27c-.1,2.12-.22,4.24-.28,6.35,0,1.2.06,2.39,0,3.58a10,10,0,0,0,.33,3.15,3.53,3.53,0,0,1-.05,2,7.52,7.52,0,0,0-.27,2.37c0,.53,0,1.06,0,1.59a2.92,2.92,0,0,1-.44,1.51,3.53,3.53,0,0,0-.19.34,1.64,1.64,0,0,0,.41,2.13.8.8,0,0,0,1.27-.35,36,36,0,0,1,1-3.81,2.24,2.24,0,0,0,.14-.78,34.53,34.53,0,0,0,.14-4.77,16.36,16.36,0,0,1,.13-4.36,8.44,8.44,0,0,0-.15-2.76C291.43,179,291.06,178.44,290.9,177.8Z"/><path class="cls-1" d="M290,172c0,.08,0,.16,0,.24l.1-.14Z"/><polygon class="cls-1" points="300.58 203.73 300.86 203.62 300.61 203.44 300.58 203.73"/><path class="cls-1" d="M301,187.19a.47.47,0,0,0-.3-.61.85.85,0,0,0-1.07.71.75.75,0,0,0,.52.83.45.45,0,0,0,.63-.24A7.08,7.08,0,0,0,301,187.19Z"/><path class="cls-1" d="M294.38,151.75a3,3,0,0,0,1-1.24,1.35,1.35,0,0,0,.06-.39,2.68,2.68,0,0,0-.24-.73,3.23,3.23,0,0,0-.56-.55.85.85,0,0,0-1.07,0,2.92,2.92,0,0,0-1,2.08.77.77,0,0,0,.08.39A1.45,1.45,0,0,0,294.38,151.75Z"/><path class="cls-1" d="M295.24,223.2a1.69,1.69,0,0,0-.63,3.14,1.18,1.18,0,0,0,1.61-.54c.1-.36.24-.72.39-1.14a8,8,0,0,0-.41-1A.85.85,0,0,0,295.24,223.2Z"/><path class="cls-1" d="M313.66,144.11a.82.82,0,0,0-.26-.28.69.69,0,0,0-.34-.16.66.66,0,0,0-.63.37c-.31.63-.11,1.31-.31,2.33a7,7,0,0,0,.22,3.57,14.29,14.29,0,0,1,.17,1.57,10.85,10.85,0,0,0,.39,1.54c.1.33.34.41.57.26a.6.6,0,0,0,.23-.28,3.34,3.34,0,0,0,0-1.58,2,2,0,0,1,0-1.16,14.3,14.3,0,0,0,.53-1.92,5.08,5.08,0,0,0-.11-2.76C314,145.11,313.84,144.61,313.66,144.11Z"/><path class="cls-1" d="M335.38,167.59a2.05,2.05,0,0,0-.08-.79A10.8,10.8,0,0,1,335,164c-.14-2.52-.28-5.05-.43-7.57a1.1,1.1,0,0,0-.64-.92,1,1,0,0,0-1.11.1,1.63,1.63,0,0,0-.42.63.73.73,0,0,0-.07.39c.12,1.06.23,2.11.39,3.16a5.49,5.49,0,0,1,.12,1.58,9.31,9.31,0,0,0,0,2.39,8.55,8.55,0,0,1-.09,2.78,14.7,14.7,0,0,0-.17,4.37,42.07,42.07,0,0,1,.23,6.38,20,20,0,0,0,.27,4.38,15.8,15.8,0,0,1,.12,3.58c-.07,1.19-.13,2.39-.14,3.59a2.76,2.76,0,0,0,.95,2.12.41.41,0,0,0,.67,0,1.86,1.86,0,0,0,.44-.64,8.41,8.41,0,0,0,.32-2c0-2.13,0-4.26.05-6.39,0-1.19,0-2.4,0-4.05A96.94,96.94,0,0,1,335.38,167.59Z"/><path class="cls-1" d="M334.29,126c0-.24-.26-.45-.39-.67a.8.8,0,0,0-1.32.09,3.57,3.57,0,0,0-.62,2.24,1.11,1.11,0,0,1-.42,1c-.42.32-.86.61-1.29.92-.22.16-.41.33-.62.5a.85.85,0,0,0,.12,1.34,3.49,3.49,0,0,0,1.13.31,1.76,1.76,0,0,1,1.4,1.24,15.1,15.1,0,0,1,.34,1.53c.06.32.68.53,1,.37a9.07,9.07,0,0,0,2.35-2.09,1.76,1.76,0,0,0,.33-.71c.09-.38.13-.78.19-1.14a3.15,3.15,0,0,0-.71-2.23A4.91,4.91,0,0,1,334.29,126Zm.4,6a1.4,1.4,0,0,1-1.36-.5,1.88,1.88,0,0,1-.08-1.84,1,1,0,0,1,1.33-.35,1.71,1.71,0,0,1,.93,1.56A1.06,1.06,0,0,1,334.69,132Z"/><path class="cls-1" d="M333,147.26c.12.29.31.36.61.16a.43.43,0,0,0,.19-.27c0-1,.06-2.08.09-3.12a17.35,17.35,0,0,0-.07-3.88.5.5,0,0,0-.58-.43c-.25,0-.54,0-.65.3a2.61,2.61,0,0,0-.26,1.12,8.85,8.85,0,0,0,.23,1.94,3.1,3.1,0,0,1,.07,1.53A4.38,4.38,0,0,0,333,147.26Z"/><path class="cls-1" d="M312.56,106.89c.41-.15.54-.52.58-1a3,3,0,0,1,0-.35,1,1,0,0,0-1.37-.87l-.34.19a1,1,0,0,0-.25,1.39,1.76,1.76,0,0,0,.27.28A1.1,1.1,0,0,0,312.56,106.89Z"/><path class="cls-1" d="M330.38,149.6c-.24.08-.33.31-.32.62s0,.52,0,.79-.07.78-.1,1.17a1.42,1.42,0,0,0,0,.39c0,.1.07.26.15.29.31.15.48,0,.62-.3.22-.47.51-.92.76-1.38s.05-.92-.45-1.39A.67.67,0,0,0,330.38,149.6Z"/><path class="cls-1" d="M352.77,162a2.53,2.53,0,0,0-1.31-1.36c-.34-.15-.49-.08-.59.27a2.3,2.3,0,0,0,0,1.52c.2.48.46.94.69,1.4s.35.49.73-.06c.14-.22.3-.43.43-.66A1.23,1.23,0,0,0,352.77,162Z"/><path class="cls-1" d="M346.87,138.38c-.35-.11-.88.17-.91.46,0,.13,0,.25-.06.48s.08.65.15,1a.41.41,0,0,0,.21.3c.08,0,.24,0,.33-.12a1.51,1.51,0,0,0,.74-1.6A.66.66,0,0,0,346.87,138.38Z"/><path class="cls-1" d="M290.06,172.12A.77.77,0,0,1,290,172l-.06,0h0Z"/><path class="cls-1" d="M313.49,156c-.19-.08-.34.07-.32.38a1.12,1.12,0,0,0,.16.65c.13.14.31-.06.29-.37a1.7,1.7,0,0,0,0-.36C313.59,156.23,313.56,156.07,313.49,156Z"/><path class="cls-1" d="M326.13,132.68a.85.85,0,0,0-.5-.56.74.74,0,0,0-.75,0,1.06,1.06,0,0,0-.51,1,5.26,5.26,0,0,0,.64,2.26.89.89,0,0,1,0,.74c-.82,1.12-.62,2.55-1.17,3.75a1.14,1.14,0,0,0,.57,1.33c.47.23.95.43,1.43.64h0a.91.91,0,0,1,.09-.17l-.21.09c0-.13,0-.26,0-.4,0-1.84.41-3.67,0-5.52a5,5,0,0,1,.14-1.57A4.4,4.4,0,0,0,326.13,132.68Z"/><path class="cls-1" d="M313.11,141.77a1.21,1.21,0,0,0,.71-.89c0-.26.06-.53.1-.88-.07-.57-.12-1.23-.24-1.88a2,2,0,0,0-.36-.69c-.3-.42-.7-.47-.89-.1s-.52.92-.77,1.38a1.57,1.57,0,0,0-.09,1.15,3.25,3.25,0,0,0,.11.39c.16.36.33.72.51,1.08S312.77,142,313.11,141.77Z"/><path class="cls-1" d="M321.47,80.66a.51.51,0,0,0-.3-.13c-.12,0-.3.06-.35.15a4.91,4.91,0,0,0-.53,1,8.94,8.94,0,0,0-.29,3.15c.1,1.32.18,2.64.27,4,0,.26,0,.53,0,.79a1,1,0,0,1-.81.7c-.52,0-1.06,0-1.58,0a1.09,1.09,0,0,0-.9,1.12,1.13,1.13,0,0,0,.18.75.87.87,0,0,0,.61.44,4.25,4.25,0,0,0,1.55-.17.78.78,0,0,1,.85.63c.11.52.19,1,.32,1.55a2.28,2.28,0,0,0,.34.7.61.61,0,0,0,.68.24.51.51,0,0,0,.49-.52A32.6,32.6,0,0,0,322,90a13.56,13.56,0,0,1,.34-3.94,5.42,5.42,0,0,0,.12-1,16.25,16.25,0,0,0-.75-4.11A.67.67,0,0,0,321.47,80.66Z"/><path class="cls-1" d="M320.87,78.08l-.17-.31c-.07.09-.19.19-.2.29s.1.22.16.33Z"/><path class="cls-1" d="M317.49,68a.44.44,0,0,0,.31-.58c-.1-.07-.21-.21-.29-.2-.31,0-.42.26-.28.55C317.28,67.84,317.42,68,317.49,68Z"/><path class="cls-1" d="M291.62,169.72a8.6,8.6,0,0,0-1.08-2.56.39.39,0,0,0-.29-.15.47.47,0,0,0-.36.15,3.16,3.16,0,0,0-.43,2.66A19.83,19.83,0,0,0,290,172a5.12,5.12,0,0,0,.67-.27A1.81,1.81,0,0,0,291.62,169.72Z"/><path class="cls-1" d="M251.68,166.69a.94.94,0,0,0-.69.34,1.91,1.91,0,0,0,.71,3,1.31,1.31,0,0,0,.76,0,1.91,1.91,0,0,0,1.24-1.83,1.45,1.45,0,0,0-.08-.38A2,2,0,0,0,251.68,166.69Z"/><path class="cls-1" d="M237.62,57.74a.44.44,0,0,0,0,.34.54.54,0,0,0,.52.42c.24,0,.4-.15.47-.42a.42.42,0,0,0-.28-.57A.56.56,0,0,0,237.62,57.74Z"/><path class="cls-1" d="M231.53,92.18a3.41,3.41,0,0,0,.71.18c.12,0,.29,0,.36-.08a1.46,1.46,0,0,0,.45-1,1,1,0,0,0-.57-.88,1.11,1.11,0,0,0-1.3.48A1,1,0,0,0,231.53,92.18Z"/><path class="cls-1" d="M240.69,180.74a1.32,1.32,0,0,0-1.4.38,1.39,1.39,0,0,0-.28,1.09,3.38,3.38,0,0,0,.12.37,1.78,1.78,0,0,0,1.54,1,1.43,1.43,0,0,0,1.12-1.36A1.72,1.72,0,0,0,240.69,180.74Z"/><path class="cls-1" d="M273,54.71a.42.42,0,0,0-.3-.61s-.21.19-.22.3c0,.38,0,.78,0,1a5,5,0,0,0-.05,2.1c0,.09.16.17.27.2s.27,0,.31,0c.14-.21.34-.46.32-.68C273.27,56.21,272.71,55.53,273,54.71Z"/><path class="cls-1" d="M267.82,178.61c0,.06.19.12.3.18,0-.11.09-.21.14-.31C268,178.15,267.83,178.19,267.82,178.61Z"/><path class="cls-1" d="M275.18,61.93c0-.25-.22-.39-.51-.42a2,2,0,0,0-.37.08.44.44,0,0,0-.23.63.46.46,0,0,0,.66.26C275,62.38,275.19,62.21,275.18,61.93Z"/><path class="cls-1" d="M269.48,87.44c-.49-.05-1.18.65-1.22,1.23A1.43,1.43,0,0,0,269.4,90a1.41,1.41,0,0,0,1.24-1.22A1.58,1.58,0,0,0,269.48,87.44Z"/><path class="cls-1" d="M248.67,51.33c.29,0,.76-.47.73-.75a1,1,0,0,0-.74-.76c-.26,0-.71.46-.73.76S248.37,51.31,248.67,51.33Z"/><path class="cls-1" d="M248.51,71a2.92,2.92,0,0,0,.22.7.8.8,0,0,0,.95.39c.34-.17.67-.36.7-.69.07-.74-.21-1.06-.81-1.15a2,2,0,0,0-.72.14A.46.46,0,0,0,248.51,71Z"/><path class="cls-1" d="M237.54,54.85a15.92,15.92,0,0,0,1.36-2.39,1.18,1.18,0,0,0-.43-1,.75.75,0,0,0-.76,0,2.66,2.66,0,0,0-1.48,2.6,4.74,4.74,0,0,0,.27.73A.73.73,0,0,0,237.54,54.85Z"/><path class="cls-1" d="M251.15,63.8a2,2,0,0,0,.23-1.09A.75.75,0,0,0,251,62a1,1,0,0,0-1.17.72,1.42,1.42,0,0,0,.32,1.08A.66.66,0,0,0,251.15,63.8Z"/><path class="cls-1" d="M244.73,61.55a.92.92,0,0,0,.83-.65.93.93,0,0,0-.3-1,2.79,2.79,0,0,0-.3-.22.64.64,0,0,0-.72-.08c-.35.17-.66.38-.67.81A1,1,0,0,0,244.73,61.55Z"/><path class="cls-1" d="M244.83,83.53c0,.09.16.22.27.27a.57.57,0,0,0,.39,0,.44.44,0,0,0,.24-.27.35.35,0,0,0-.39-.44A.48.48,0,0,0,244.83,83.53Z"/><path class="cls-1" d="M245,67.35a2.91,2.91,0,0,0-.7-.21.52.52,0,0,0-.54.37.45.45,0,0,0,.13.34,1.78,1.78,0,0,0,.58.48c.25.09.46-.09.59-.33S245.26,67.48,245,67.35Z"/><path class="cls-1" d="M290.34,59.38a1.13,1.13,0,0,0,1.4-.26.52.52,0,0,0,.16-.35,1.28,1.28,0,0,0-1-1c-.3-.07-.73.24-.91.62A.83.83,0,0,0,290.34,59.38Z"/><path class="cls-1" d="M275.19,240.12a.54.54,0,0,0-.64.31.73.73,0,0,0,.6.83.53.53,0,0,0,.61-.36,1,1,0,0,0,0-.37A.71.71,0,0,0,275.19,240.12Z"/><path class="cls-1" d="M278.36,65.3c-.26-.16-.42-.06-.55.27a3.21,3.21,0,0,0,.35,3,.55.55,0,0,0,.65.22.53.53,0,0,0,.4-.56,13.07,13.07,0,0,0-.59-2.65C278.6,65.44,278.46,65.37,278.36,65.3Z"/><path class="cls-1" d="M253.24,109.69a6.76,6.76,0,0,0-1,.59c-.56.43-.41.94.09,1.29a1.41,1.41,0,0,0,1.15.15,1.3,1.3,0,0,0,.89-1.17C254.31,110,253.66,109.5,253.24,109.69Z"/><path class="cls-1" d="M289.8,148.55c.46-.06.74-.36.69-.74s-.18-.6-.67-.84a.76.76,0,0,0-.37-.08c-.24,0-.46.57-.43,1A.69.69,0,0,0,289.8,148.55Z"/><polygon class="cls-1" points="287.76 53.95 288 53.88 287.8 53.74 287.76 53.95"/><path class="cls-1" d="M285.3,236.16a.94.94,0,0,0-.88-1,1.07,1.07,0,0,0-.85,1.38.6.6,0,0,0,.23.3A1.11,1.11,0,0,0,285.3,236.16Z"/><path class="cls-1" d="M278,53.59c-.12,0-.29.09-.34.19-.17.35-.3.72-.47,1.15a9.58,9.58,0,0,0,.1,1.52c.19.9.45,1.79.71,2.67a.42.42,0,0,0,.53.32.43.43,0,0,0,.24-.3,10.93,10.93,0,0,1,.42-3.11,2.38,2.38,0,0,0-.52-2.23A.59.59,0,0,0,278,53.59Z"/><path class="cls-1" d="M290,152.62c0-.26,0-.53,0-.79,0-.09-.13-.2-.22-.25s-.48,0-.49.33c-.08,1.45-.1,2.9-.17,5.26,0-.25,0,.42,0,1.07.05,1.06.11,2.11.17,3.17a1.28,1.28,0,0,0,.1.38c0,.13.12.24.15.37a.86.86,0,0,0,.53.56c.26.11.67-.26.74-.67a38,38,0,0,0,.37-7.5,1.19,1.19,0,0,0-.66-.91A1.36,1.36,0,0,1,290,152.62Z"/><path class="cls-1" d="M302.32,58.52c.08,0,.08-.21.11-.32s-.12-.2-.2-.3c-.08.08-.22.16-.23.26C302,58.5,302.11,58.64,302.32,58.52Z"/><path class="cls-1" d="M302.58,82.69a.55.55,0,0,0,.3.17c.25.06.4-.1.44-.42s0-.5,0-.75-.06-.33-.12-.34a.55.55,0,0,0-.64.31A.77.77,0,0,0,302.58,82.69Z"/><path class="cls-1" d="M293.42,126.37a2,2,0,0,0,.7-.14.44.44,0,0,0,.27-.62,2.86,2.86,0,0,0-.43-.55.6.6,0,0,0-.72,0,.86.86,0,0,0-.42.93A.68.68,0,0,0,293.42,126.37Z"/><path class="cls-1" d="M302.44,70.56c.09-.07.12-.22.18-.34a.5.5,0,0,0-.28-.66.53.53,0,0,0-.69.19.56.56,0,0,0,.17.67C302,70.65,302.24,70.71,302.44,70.56Z"/><path class="cls-2" d="M251,45.72l0,0Z"/><path class="cls-2" d="M251.08,45.73h0Z"/><path class="cls-2" d="M290,172h0l.11.1Z"/><path class="cls-2" d="M334.59,129.31a1,1,0,0,0-1.33.35,1.88,1.88,0,0,0,.08,1.84,1.4,1.4,0,0,0,1.36.5,1.06,1.06,0,0,0,.82-1.13A1.71,1.71,0,0,0,334.59,129.31Z"/><path class="cls-2" d="M203.94,109.5l.06,0h.11l-.1-.15Z"/><path class="cls-3" d="M322,68.3c-.06.72-.12,1.44-.24,2.15-.06.32-.21.48-.5.49a.66.66,0,0,1-.65-.34,3.41,3.41,0,0,1-.33-.72c-.24-.76-.44-1.53-.68-2.28a2.51,2.51,0,0,1,0-1.45q-3.57-3.1-7.41-5.88l-.06,0c-.28.06-.45-.08-.55-.38,0,0,0-.07,0-.11a105.92,105.92,0,0,0-33-15.79s0,0,0,0a12.17,12.17,0,0,1,.17,3.86.92.92,0,0,1-.12.37c-.13.21-.25.49-.45.59s-.48,0-.72,0c.21.6.41,1.2.6,1.8,0,.05-.14.2-.24.23a2.79,2.79,0,0,1-.91-.11c-.33-.62,2-1.27-.67-1.9h0a36.92,36.92,0,0,1,.43-3.87c0-.38.4-.77.5-1.13,0-.08.24-.11.28-.16a104.42,104.42,0,0,0-17.28-3.16s.06.08.06.12a4.93,4.93,0,0,1,0,.52c-.06.26-.11.64-.22,1a.45.45,0,0,1-.56.38.68.68,0,0,1-.59-.43,3.25,3.25,0,0,1-.06-1.72c-2.68-.22-5.38-.36-8.12-.38a.85.85,0,0,0,.17.65,3.66,3.66,0,0,1,.62,2.63,7.11,7.11,0,0,1-.46,2.25s0,.07.08.09l0,0H251a1.19,1.19,0,0,0-.82.67,1.9,1.9,0,0,1-.76.87,1.7,1.7,0,0,1-.75.19c-.21,0-.3-.76-.12-1.07a.68.68,0,0,1,.26-.3,5,5,0,0,1,2.2-.37l.06,0a.36.36,0,0,0,0-.06A3,3,0,0,1,250,43.74a8.69,8.69,0,0,1-.11-3.13,1.47,1.47,0,0,0,0-.5A105.7,105.7,0,0,0,188.22,60c0,.16,0,.32,0,.49-.08.36-.16.73-.25,1.09s-.29.43-.59.29c-.1-.05-.24-.11-.29-.21a6.4,6.4,0,0,1-.29-.69,106.22,106.22,0,0,0-43.15,85.45c0,.38,0,.74,0,1.12a.74.74,0,0,1,.46.45,22.53,22.53,0,0,1,.78,2.23,2.55,2.55,0,0,1-.7,2.54.61.61,0,0,1-.39.19c.09,2,.21,4,.39,5.85a2.72,2.72,0,0,1,.44.55c.05.1,0,.24,0,.36s-.21.21-.31.22h0a96.25,96.25,0,0,0,4.31,20.6c0-.05.07-.11.12-.16a.7.7,0,0,1,1,.08,9.06,9.06,0,0,1,.58,1,.71.71,0,0,1-.49.87,5,5,0,0,1-.58.07c7.59,21.11,21.69,32.71,34.6,43.34,13.17,10.84,24.65,20.19,27.37,38.51,2.52,17,7.24,45.63,12.49,75.58v-.13c0-.4-.14-.85,0-1.18.71-1.39.3-2.88.45-4.32a4.09,4.09,0,0,0-.4-1.94,5,5,0,0,1-.3-1.15,2.32,2.32,0,0,1,.07-1.18,7.27,7.27,0,0,0,.75-3.42,6.23,6.23,0,0,1,.18-1.18.41.41,0,0,1,.3-.21c.11,0,.31.08.32.15a58.75,58.75,0,0,0,1.29,7.39,4.35,4.35,0,0,1-.06,2.74,12.91,12.91,0,0,0-.29,1.56,3.43,3.43,0,0,0,.15,2.33,3.63,3.63,0,0,1,.24,2,1.83,1.83,0,0,0,.13,1.16c.59,1.07.49,2.33.9,3.46a1.71,1.71,0,0,1,0,.79,6.34,6.34,0,0,0,.59,3.49,2.45,2.45,0,0,1,.11,1.57,21.58,21.58,0,0,0-.66,5.93,4.56,4.56,0,0,1-.15,1.18,6.22,6.22,0,0,0,.11,2.77c.11.52.3,1,.39,1.54a15,15,0,0,1,.11,1.59,2.65,2.65,0,0,0-.13.46c8,46.15,15.5,88.55,15.64,89.33a6.56,6.56,0,0,0,12.92,0c.25-1.41,25.26-142.19,32.38-190.26A47.82,47.82,0,0,1,290.2,258a.31.31,0,0,1-.4-.2,3.36,3.36,0,0,1-.34-2.68,1.37,1.37,0,0,0,0-.77c-.29-1.29-.61-2.57-.92-3.86a.81.81,0,0,1,.52-.92c.12,0,.32-.06.38,0a4.1,4.1,0,0,1,1.38,2.36c.11.95.42,1.87.49,2.72,4.67-12.36,14.15-20.16,24.8-28.93,18.85-15.5,40.21-33.07,40.21-79.27A106,106,0,0,0,322,68.3ZM148.36,170.18a1.8,1.8,0,0,1-.71.23,1.63,1.63,0,0,1-.39-.08,2.32,2.32,0,0,1-1.24-1.86.54.54,0,0,1,.14-.35c.37-.57,1.21-1,1.63-.78a1.94,1.94,0,0,1,1.07,1.08A1.56,1.56,0,0,1,148.36,170.18Zm5-45.68a1.62,1.62,0,0,1-.26.27.93.93,0,0,1-1.08.12,1,1,0,0,1-.46-1,.76.76,0,0,1,.82-.68,1.25,1.25,0,0,1,1,.53A.58.58,0,0,1,153.33,124.5Zm.31-4.59a.72.72,0,0,1-.9.47.7.7,0,0,1-.3-.24.69.69,0,0,1,.15-1,1.14,1.14,0,0,1,.71-.19.55.55,0,0,1,.39.58A1,1,0,0,1,153.64,119.92Zm2.79-4.56a.54.54,0,0,1-.68-.3c-.16-.31,0-.52.3-.61s.58,0,.7.25A.49.49,0,0,1,156.43,115.36Zm7.92-30.44a.55.55,0,0,1-.2-.67.4.4,0,0,1,.3-.16c.26,0,.38.23.36.54S164.63,85.13,164.35,84.92Zm4.17,29.45c-.05-.09-.15-.18-.15-.27s.11-.17.18-.26l.16.27ZM179,85.58c.22-.13.69.46.66,1a2.64,2.64,0,0,1-.37.91.39.39,0,0,1-.68.05,1.1,1.1,0,0,1-.13-1.42A1.72,1.72,0,0,1,179,85.58Zm-6-9.2a.87.87,0,0,1-.35-1,.68.68,0,0,1,.59-.43.77.77,0,0,1,.73.66c0,.39-.34.85-.64.84A.65.65,0,0,1,173.09,76.39Zm2.37,60.88c0,.3-.33.63-.56.49a.65.65,0,0,1-.32-.63,2.25,2.25,0,0,1,0-.73.42.42,0,0,1,.55-.24c.11.05.26.13.28.22A6.23,6.23,0,0,1,175.46,137.26Zm-.26-4.44a.72.72,0,0,1-.68.3.61.61,0,0,1-.56-.41,4.81,4.81,0,0,1-.13-.75,5,5,0,0,1,.15-.75.74.74,0,0,1,.55-.44.55.55,0,0,1,.66.29A1.47,1.47,0,0,1,175.2,132.82Zm1-52.34a.65.65,0,0,1,0-.39c.23-1,.48-2,.68-3.07a25.17,25.17,0,0,1,.33-2.75c.1-.33.27-.38.59-.19a1.35,1.35,0,0,1,.66,1.39c-.19,1.49-.37,3.06-.59,4.63a1.37,1.37,0,0,1-.36.68.7.7,0,0,1-.72.18A.83.83,0,0,1,176.18,80.49Zm.69,2.46a.41.41,0,0,1,.29-.58.44.44,0,0,1,.59.28,1.56,1.56,0,0,1,0,.42c0,.21-.18.39-.41.35S177,83.21,176.87,82.95Zm.55,51.07-.17-.13.21-.07Zm.91-2.36a.34.34,0,0,1-.6.05,1.69,1.69,0,0,1-.44-1.73.72.72,0,0,1,.56-.42.43.43,0,0,1,.6.31c.08.24.12.48.2.8A9.8,9.8,0,0,1,178.34,131.66Zm1.53,60.09a1.41,1.41,0,0,1-.69-.17.56.56,0,0,1-.32-.64.63.63,0,0,1,.43-.53c.33-.13.93.11,1,.34S180.08,191.72,179.87,191.75ZM203,51.58a.65.65,0,0,1,.67-.36.52.52,0,0,1,.4.57c0,.7-.4,1.25-.83,1.13-.09-.07-.23-.13-.29-.23A1,1,0,0,1,203,51.58Zm-4.68,126.33c.17.33.08.9-.15,1s-.64-.23-.79-.63a.41.41,0,0,1,.32-.54A.46.46,0,0,1,198.34,177.91Zm-7.48-24.15s0,.14.07.22-.22.09-.27,0S190.56,153.75,190.86,153.76Zm-1.18-24.84c.08,0,.12.15.19.24l-.25.18c-.09,0-.24-.05-.25-.11C189.28,129,189.42,128.85,189.68,128.92Zm-.42,8.16a.48.48,0,0,1,.26-.26.56.56,0,0,1,.64.25.52.52,0,0,1,.09.32.68.68,0,0,1-.13.35c-.21.26-.45.51-.69.77v.08c.33-.06.69-.11.87.28a1.64,1.64,0,0,1,0,.74.28.28,0,0,1-.21.21.48.48,0,0,1-.32-.16.83.83,0,0,1-.17-.34c-.08-.24-.14-.48-.2-.71l-.11,0,.09,0-.09,0,.07-.08A2.45,2.45,0,0,1,189.26,137.08Zm.11,21.58c.18-.06.5.12.69.27a2.32,2.32,0,0,1,.47.59.89.89,0,0,1,.13.36c0,.16,0,.31,0,.38h0c0,.05,0,0,0,0a1.68,1.68,0,0,1-.63,1.72.5.5,0,0,1-.67-.08,3.36,3.36,0,0,1-.42-2.6C189,159,189.19,158.72,189.37,158.66ZM186.28,72a1.72,1.72,0,0,1-.29-2.16c.5-.77.6-1.75,1.27-2.4a.56.56,0,0,1,.71.06,2.42,2.42,0,0,1,.73,1.37c.14.9.16,1.82.23,2.67-.09.86-.15,1.64-.25,2.42a1.68,1.68,0,0,1-.54,1c-.23.22-.45.2-.61-.12a4.35,4.35,0,0,1-.4-1.09A3.55,3.55,0,0,0,186.28,72Zm2.46,7.2a.56.56,0,0,1-.17.34c-.19.15-.42.07-.63-.17a2.64,2.64,0,0,1-.61-1.45.68.68,0,0,1,1.32-.3c.06.25.08.52.09.57C188.75,78.63,188.76,78.9,188.74,79.16Zm1.78,91a1.32,1.32,0,0,1-.62.41c-.27.1-.74-.29-.84-.66s-.15-.76-.22-1.12c.09-.41.15-.79.24-1.16A1.05,1.05,0,0,1,190,167a1.08,1.08,0,0,1,.89.63,2.13,2.13,0,0,1,.19.75A2.76,2.76,0,0,1,190.53,170.17Zm6.19-7.14a.6.6,0,0,1-.4-.58,1.85,1.85,0,0,1,.07-.39c.44-.84-.14-1.48-.48-2.16-.13-.24-.23-.54,0-.72s.47-.1.72-.11a1.54,1.54,0,0,1,.38.07.79.79,0,0,1,.71.79c.06.65.13,1.29.15,1.94a2.57,2.57,0,0,1-.16.75A.72.72,0,0,1,196.72,163Zm.61,25.92a6,6,0,0,1,.22-.7.51.51,0,0,1,.61-.34.61.61,0,0,1,.42.52,2.47,2.47,0,0,1,0,.37c0,.13,0,.25-.06.37a.66.66,0,0,1-.89.37A.47.47,0,0,1,197.33,188.95Zm.46,13.29a2,2,0,0,1,.43-2.19,1.11,1.11,0,0,1,.34-.17.48.48,0,0,1,.63.3c.25.89.5,1.78.81,2.65a.75.75,0,0,1-.26.71.73.73,0,0,1-1,0A4.23,4.23,0,0,1,197.79,202.23Zm2.08,10.53c-.24.07-.46-.14-.56-.4a2.4,2.4,0,0,1-.1-.36.43.43,0,0,1,.33-.58.4.4,0,0,1,.56.34c0,.12.05.25.08.36C200.19,212.4,200.11,212.69,199.86,212.76Zm2-137a.4.4,0,0,1,.39-.55,1.44,1.44,0,0,1,1.86,1.44c.06.65.11,1.31.16,1.9a5.69,5.69,0,0,1-.06,2.38.48.48,0,0,1-.58.39c-.1,0-.21-.13-.28-.23a1.67,1.67,0,0,1-.39-1.08,13.29,13.29,0,0,1,.17-1.56,2,2,0,0,0-.63-1.77A1.83,1.83,0,0,1,201.83,75.77ZM204.69,121c.12.41-.28.72-.7.57-.12,0-.28-.12-.31-.21a2.88,2.88,0,0,1-.13-.76c0-.78,0-1.56,0-2.47a8.11,8.11,0,0,1,.07-3,.43.43,0,0,1,.58-.35.62.62,0,0,1,.52.48,8.51,8.51,0,0,1,0,3.49C204.16,119.5,204.48,120.24,204.69,121Zm-.55-11.41-.14-.05h-.06l.08-.12c.19-.15.25-.09.15.15h-.05ZM204,112l-.13.22-.08-.26Zm-.27-8.06.12-.32.13.32Zm1.11-8.63a2.29,2.29,0,0,1-.49,1.47c-.17.26-.42.36-.58.29a.54.54,0,0,1-.24-.31,18.58,18.58,0,0,1-.81-6.62,11.42,11.42,0,0,1,.61-4.27.58.58,0,0,1,.32-.23.37.37,0,0,1,.3.05,1.84,1.84,0,0,1,.72,1.36c.13,1.57.18,3.15.25,4.4A17.3,17.3,0,0,0,204.8,95.33ZM208.14,147c-.34,0-.43-.16-.22-.37a.4.4,0,0,1,.34,0c.08,0,.12.16.18.24C208.34,146.86,208.24,147,208.14,147Zm.53-9.44a.72.72,0,0,1-.49.53.66.66,0,0,1-.7-.19c-.67-.73-.31-1.45.05-2.15a.45.45,0,0,1,.33-.19.43.43,0,0,1,.3.17,2.4,2.4,0,0,1,.55,1.43A1.73,1.73,0,0,1,208.67,137.53Zm-1.07-4.32c0-.09.12-.15.2-.24.05.13.13.23.12.33s-.14.15-.21.22C207.67,133.41,207.59,133.31,207.61,133.21Zm.2-49.34a.48.48,0,0,1-.36-.53.43.43,0,0,1,.25-.27,2,2,0,0,1,.74,0,.46.46,0,0,1,.35.53C208.73,83.89,208.29,84,207.81,83.86Zm4.51-32.31L212,51.4l.32-.07Zm3,157.44c-.08.1-.18.27-.27.28a.68.68,0,0,1-.62-.41,2.3,2.3,0,0,1,.06-2.27c.28-.56.75-.63,1.25-.15a1.89,1.89,0,0,1,.21.31,1.21,1.21,0,0,1,0,.38A6.11,6.11,0,0,1,215.36,209Zm7.8-156.92c.13,0,.25.07.37.12.49.2,1,.42,1.47.61a1.1,1.1,0,0,1,.62.95c.07.39.07.79.1,1.18a7.81,7.81,0,0,1-.25,1.17,3.62,3.62,0,0,0,.17,2.7,2.54,2.54,0,0,1-.55,2.6.61.61,0,0,1-1-.06,2,2,0,0,1-.33-.7,3.3,3.3,0,0,1,.24-1.56,2,2,0,0,0-.29-1.89,4.46,4.46,0,0,1-.88-2.59c0-.67-.6-1.18-.54-1.88C222.33,52.43,222.88,52,223.16,52.07ZM222.86,76a2.19,2.19,0,0,1-.16-1.9A15,15,0,0,1,224,71.17a.73.73,0,0,1,.66-.38.76.76,0,0,1,.63.37,2.45,2.45,0,0,1,.37.68c.15.64.26,1.28.35,1.79-.09.68-.13,1.2-.23,1.72a6.61,6.61,0,0,0,0,2,38.51,38.51,0,0,1,0,7.89,1.55,1.55,0,0,1-.37.66c-.17.26-.88.29-1,0a4.22,4.22,0,0,1-.49-1.07,3.35,3.35,0,0,1,0-1.17c.36-2-.12-3.94-.2-5.91A4,4,0,0,0,222.86,76ZM225,320.74a1.76,1.76,0,0,1-.33.2c-.34.09-1-.5-1.06-.94a2.41,2.41,0,0,1,.63-2.14.51.51,0,0,1,.89.06,7.45,7.45,0,0,1,.34.7A1.78,1.78,0,0,1,225,320.74ZM227,138c-.07.27-.22.77-.39,1.26,0,.09-.19.16-.3.22s-.45,0-.63-.23a2.77,2.77,0,0,1-.21-.33,9.42,9.42,0,0,1-.66-3,.77.77,0,0,1,.07-.38,3.47,3.47,0,0,1,.4-.64c.16-.17.86.07,1.05.32A3.73,3.73,0,0,1,227,138Zm-1.58-24a.61.61,0,0,1,.65.35,2.27,2.27,0,0,1,.31.71c.07.65.08,1.31.11,2.09.33,1.2-.18,2.48-.3,3.78a4.31,4.31,0,0,1-.65,1.39c0,.05-.28,0-.28,0a42.73,42.73,0,0,1-.41-7.08,5,5,0,0,1,.14-.77C225.07,114.18,225.21,114,225.43,114Zm-.3-4.24c0-.11.07-.23.11-.35s.23,0,.26,0a.52.52,0,0,1,.1.35c0,.11-.16.18-.25.27C225.27,110,225.16,109.86,225.13,109.75Zm2.77-18.64c-.51.07-1,0-1.56.09a.6.6,0,0,0-.49.52,5.77,5.77,0,0,0,0,.78,7.81,7.81,0,0,1-.09,1.18.93.93,0,0,1-.4.61c-.17.07-.47-.09-.69-.19a.48.48,0,0,1-.26-.28,7.23,7.23,0,0,1,.35-4.26.72.72,0,0,1,.93-.4l.46.17a14.6,14.6,0,0,1,1.78.55c.18.08.28.41.35.65A.42.42,0,0,1,227.91,91.12Zm39.58,29.73a1.17,1.17,0,0,1,.27.2c0,.2-.11.33-.38.35s-.44-.11-.45-.34.13-.2.23-.24A.5.5,0,0,1,267.49,120.84Zm-1.61-68.32c0-.29.22-.41.56-.31a.63.63,0,0,1,.28.21,1.37,1.37,0,0,1,.31,1.11c-.07.52-.29,1-.36,1.54a19,19,0,0,0,0,5.53,4.09,4.09,0,0,1,.17,1.56.79.79,0,0,1-.41.61c-.29.14-.44,0-.51-.36a14.89,14.89,0,0,1-.19-4.86,7.69,7.69,0,0,0-.06-1.07A12.6,12.6,0,0,1,265.88,52.52ZM261.78,76.1a12.33,12.33,0,0,0-.54,1.48,19.87,19.87,0,0,0-.21,2.78c0,1.06.08,2.12.1,3.18a11.89,11.89,0,0,1-.2,3.18,4.75,4.75,0,0,0,0,3.13,2.17,2.17,0,0,1,.11.78c.07,3.72,0,7.44-.2,11.15,0,.12-.12.23-.18.35a.72.72,0,0,1-.62.44.56.56,0,0,1-.52-.47,31.8,31.8,0,0,1-.51-8.23c.06-.66.06-2.69.09-2.69h0c.06,0,.13-2,.17-3.28a3.7,3.7,0,0,0-.09-1.23,12.67,12.67,0,0,1-.24-3.39c0-1.59,0-3.11-.06-4.7a23.56,23.56,0,0,1,.33-5.51,3.61,3.61,0,0,0-.17-1.94,3.75,3.75,0,0,1-.17-1.56,1.85,1.85,0,0,1,.43-1.08c.09-.1.2-.22.31-.24s.41.15.51.42.12.52.24.76a2.37,2.37,0,0,1,.17,1.92,5.63,5.63,0,0,0-.2.77,1.52,1.52,0,0,0,.21,1.13c.4.69.81,1.36,1.17,2.07A1.14,1.14,0,0,1,261.78,76.1Zm-2.1,31a.38.38,0,0,1-.21-.29c0-.35.23-.44.47-.23.06.05,0,.24,0,.37S259.74,107.08,259.68,107.06Zm.25,5.27-.22,0,.13-.22Zm.93-50.14a23.2,23.2,0,0,1-.82,2.2.47.47,0,0,1-.66.21c-.24-.1-.45-.78-.51-1a7,7,0,0,1-.08-1.29,24.38,24.38,0,0,0,.09-2.59h-.07a5.05,5.05,0,0,1,0-.89c0-.23.2.06.34-.14s.93.11,1,.38c.25.73.5,1.6.71,2.34A1.57,1.57,0,0,1,260.86,62.19Zm-1.68-17a.5.5,0,0,1,.48-.43c.28,0,.44.14.47.45,0,.12,0,.25,0,.45,0,.54-.17.86-.36.77a1.08,1.08,0,0,1-.61-.87A.94.94,0,0,1,259.19,45.22Zm-.5,9.19a16.8,16.8,0,0,1,1-1.72.43.43,0,0,1,.69-.13c.2.15.51.32.54.51a4.4,4.4,0,0,1-.67,3c-.13.21-.4.31-.61.46a.75.75,0,0,1-.68-.29A1.77,1.77,0,0,1,258.69,54.41Zm-6.85,36.76a2.64,2.64,0,0,1,1.51-.12.78.78,0,0,1,.47,1.2,1.5,1.5,0,0,1-1.28.74,5.41,5.41,0,0,1-.71-.24.92.92,0,0,1-.42-1A.65.65,0,0,1,251.84,91.17Zm2.5,19.38a1.3,1.3,0,0,1-.89,1.17,1.41,1.41,0,0,1-1.15-.15c-.49-.35-.65-.86-.09-1.29a6.76,6.76,0,0,1,1-.59C253.66,109.5,254.31,110,254.34,110.55ZM251,62a.75.75,0,0,1,.39.68,2,2,0,0,1-.23,1.09.66.66,0,0,1-1,0,1.42,1.42,0,0,1-.32-1.08A1,1,0,0,1,251,62Zm-.6,9.34c0,.34-.36.53-.7.69a.8.8,0,0,1-.95-.39,2.92,2.92,0,0,1-.22-.7.46.46,0,0,1,.34-.6,2,2,0,0,1,.72-.14C250.18,70.3,250.46,70.63,250.39,71.36Zm-1.73-21.55a1,1,0,0,1,.74.76c0,.28-.44.77-.73.75s-.76-.48-.74-.75S248.4,49.81,248.66,49.82Zm-2.93,33.71a.44.44,0,0,1-.24.27.57.57,0,0,1-.39,0c-.11-.05-.28-.18-.27-.27a.48.48,0,0,1,.51-.44A.35.35,0,0,1,245.73,83.53Zm-1.21-15.2a1.78,1.78,0,0,1-.58-.48.45.45,0,0,1-.13-.34.52.52,0,0,1,.54-.37,2.91,2.91,0,0,1,.7.21c.22.13.21.38.06.65S244.77,68.42,244.51,68.33Zm-.27-8.73a.64.64,0,0,1,.72.08,2.79,2.79,0,0,1,.3.22.93.93,0,0,1,.3,1,.92.92,0,0,1-.83.65,1,1,0,0,1-1.16-1.14C243.58,60,243.89,59.77,244.24,59.6Zm-6.52-8.19a.75.75,0,0,1,.76,0,1.18,1.18,0,0,1,.43,1,15.92,15.92,0,0,1-1.36,2.39.73.73,0,0,1-1-.11,4.74,4.74,0,0,1-.27-.73A2.66,2.66,0,0,1,237.72,51.42Zm.86,6.67c-.07.28-.23.44-.47.42a.54.54,0,0,1-.52-.42.44.44,0,0,1,0-.34.56.56,0,0,1,.67-.23A.42.42,0,0,1,238.57,58.08Zm-7.4,32.79a1.11,1.11,0,0,1,1.3-.48,1,1,0,0,1,.57.88,1.46,1.46,0,0,1-.45,1c-.07.08-.24.05-.36.08a3.41,3.41,0,0,1-.71-.18A1,1,0,0,1,231.18,90.88Zm9.49,92.7a1.78,1.78,0,0,1-1.54-1,3.38,3.38,0,0,1-.12-.37,1.39,1.39,0,0,1,.28-1.09,1.32,1.32,0,0,1,1.4-.38,1.72,1.72,0,0,1,1.09,1.47A1.43,1.43,0,0,1,240.67,183.57ZM252.46,170a1.31,1.31,0,0,1-.76,0,1.91,1.91,0,0,1-.71-3,.94.94,0,0,1,.69-.34,2,2,0,0,1,1.94,1.11,1.45,1.45,0,0,1,.08.38A1.91,1.91,0,0,1,252.46,170Zm15.66,8.79c-.11-.06-.3-.12-.3-.18,0-.42.17-.45.44-.13C268.22,178.59,268.17,178.69,268.12,178.79ZM250,162.6a19.77,19.77,0,1,1,19.77-19.77A19.77,19.77,0,0,1,250,162.6ZM269.4,90a1.43,1.43,0,0,1-1.13-1.33c0-.58.72-1.28,1.22-1.23a1.58,1.58,0,0,1,1.16,1.35A1.41,1.41,0,0,1,269.4,90ZM273,57.64c0,.06-.21.07-.31,0s-.24-.11-.27-.2a5,5,0,0,1,.05-2.1c0-.22,0-.61,0-1,0-.11.17-.31.22-.3a.42.42,0,0,1,.3.61c-.31.82.24,1.5.32,2.25C273.36,57.18,273.16,57.43,273,57.64Zm1.05,4.58a.44.44,0,0,1,.23-.63,2,2,0,0,1,.37-.08c.3,0,.5.17.51.42s-.17.45-.45.55A.46.46,0,0,1,274.07,62.22Zm1.69,178.68a.53.53,0,0,1-.61.36.73.73,0,0,1-.6-.83.54.54,0,0,1,.64-.31.71.71,0,0,1,.59.41A1,1,0,0,1,275.76,240.9ZM303.15,81.36c.06,0,.11.22.12.34s0,.5,0,.75-.18.47-.44.42a.55.55,0,0,1-.3-.17.77.77,0,0,1-.07-1A.55.55,0,0,1,303.15,81.36Zm-.92-23.46c.07.1.13.2.2.3s0,.28-.11.32-.35,0-.31-.36C302,58.06,302.16,58,302.23,57.9Zm-.59,11.86a.53.53,0,0,1,.69-.19.5.5,0,0,1,.28.66c-.06.11-.09.26-.18.34s-.42.1-.62-.13A.56.56,0,0,1,301.65,69.76ZM293.24,125a.6.6,0,0,1,.72,0,2.86,2.86,0,0,1,.43.55.44.44,0,0,1-.27.62,2,2,0,0,1-.7.14.68.68,0,0,1-.59-.39A.86.86,0,0,1,293.24,125ZM290,58.36c.18-.38.61-.69.91-.62a1.28,1.28,0,0,1,1,1,.52.52,0,0,1-.16.35,1.13,1.13,0,0,1-1.4.26A.83.83,0,0,1,290,58.36Zm-.55,88.53a.76.76,0,0,1,.38.08c.48.24.6.4.67.84s-.23.68-.69.74a.69.69,0,0,1-.78-.66C289,147.46,289.2,146.91,289.44,146.88Zm1.09,6.75a1.19,1.19,0,0,1,.66.91,38,38,0,0,1-.37,7.5c-.07.41-.49.78-.74.67a.86.86,0,0,1-.53-.56c0-.13-.11-.24-.15-.37a1.28,1.28,0,0,1-.1-.38c-.06-1.06-.12-2.11-.17-3.17,0-.66-.05-1.32,0-1.07.07-2.36.09-3.81.17-5.26,0-.35.26-.47.49-.33s.21.16.22.25c0,.26,0,.54,0,.79A1.36,1.36,0,0,0,290.53,153.63ZM278.81,68.75a.55.55,0,0,1-.65-.22,3.21,3.21,0,0,1-.35-3c.14-.32.3-.43.55-.27.1.06.24.14.26.23a13.07,13.07,0,0,1,.59,2.65A.53.53,0,0,1,278.81,68.75ZM279.23,56a10.93,10.93,0,0,0-.42,3.11.43.43,0,0,1-.24.3.42.42,0,0,1-.53-.32c-.27-.88-.52-1.77-.71-2.67a9.58,9.58,0,0,1-.1-1.52c.16-.43.3-.79.47-1.15.05-.1.21-.15.34-.19a.59.59,0,0,1,.67.21A2.38,2.38,0,0,1,279.23,56Zm4.57,180.8a.6.6,0,0,1-.23-.3,1.07,1.07,0,0,1,.85-1.38.94.94,0,0,1,.88,1A1.11,1.11,0,0,1,283.8,236.83Zm2.69,15.84a.7.7,0,0,1-.68.32c-1.18-.09-1.55-.57-1.37-1.83a1.08,1.08,0,0,1,1.48-.79c.33.2.69.37.79.82A1.77,1.77,0,0,1,286.49,252.67ZM287.76,54l0-.21.21.14Zm3.92,128.48a16.36,16.36,0,0,0-.13,4.36,34.53,34.53,0,0,1-.14,4.77,2.24,2.24,0,0,1-.14.78,36,36,0,0,0-1,3.81.8.8,0,0,1-1.27.35,1.64,1.64,0,0,1-.41-2.13,3.53,3.53,0,0,1,.19-.34,2.92,2.92,0,0,0,.44-1.51c0-.53,0-1.06,0-1.59a7.52,7.52,0,0,1,.27-2.37,3.53,3.53,0,0,0,.05-2,10,10,0,0,1-.33-3.15c0-1.19-.06-2.38,0-3.58.06-2.11.18-4.23.28-6.35a2.27,2.27,0,0,1,.57-1.27c0-.08,0-.16,0-.24h0l.06,0a19.83,19.83,0,0,1-.55-2.18,3.16,3.16,0,0,1,.43-2.66.47.47,0,0,1,.36-.15.39.39,0,0,1,.29.15,8.6,8.6,0,0,1,1.08,2.56,1.81,1.81,0,0,1-.94,2,5.12,5.12,0,0,1-.67.27.77.77,0,0,0,.05.13l-.1.14c0,.45.08.89.07,1.34a2.46,2.46,0,0,0,.22,1.15,4.23,4.23,0,0,1,.47,1.09c.11.64,0,1.33.18,2s.52,1.21.62,1.88A8.44,8.44,0,0,1,291.68,182.44Zm-.19-90.11a1,1,0,0,1-.64-1.22,2,2,0,0,1,.17-.34.79.79,0,0,1,1.29-.17,3.17,3.17,0,0,1,.39.65,4,4,0,0,1-.24.7A.78.78,0,0,1,291.49,92.32Zm1.13,59a.77.77,0,0,1-.08-.39,2.92,2.92,0,0,1,1-2.08.85.85,0,0,1,1.07,0,3.23,3.23,0,0,1,.56.55,2.68,2.68,0,0,1,.24.73,1.35,1.35,0,0,1-.06.39,3,3,0,0,1-1,1.24A1.45,1.45,0,0,1,292.62,151.32Zm3.6,74.47a1.18,1.18,0,0,1-1.61.54,1.69,1.69,0,0,1,.63-3.14.85.85,0,0,1,1,.43,8,8,0,0,1,.41,1C296.47,225.07,296.32,225.43,296.22,225.79Zm4-37.68a.75.75,0,0,1-.52-.83.85.85,0,0,1,1.07-.71.47.47,0,0,1,.3.61,7.08,7.08,0,0,1-.22.68A.45.45,0,0,1,300.19,188.12Zm.38,15.61,0-.28.25.17Zm.84-8.68a.82.82,0,0,1-.72-.16s0-.27.06-.33c.37-.34.73-.41,1-.2.09.06.12.2.18.3S301.72,195,301.41,195.05Zm.88-104.95c-.53-.19-.36-.6-.38-1l0,0a5.42,5.42,0,0,0,.13-2.22.38.38,0,0,1,.41-.44.53.53,0,0,1,.54.45,1.19,1.19,0,0,1-.13,1.08c-.31.39-.64.76-1,1.13,0,0,0,0,0,0,.21.12.49.19.63.37a1.11,1.11,0,0,1,.18.74s0,.1,0,.15a2.11,2.11,0,0,1,.73,1.17,7.93,7.93,0,0,1,.21,2.36c-.13,2.24-.28,4.47-.43,6.71-.08,0-.23,0-.25,0-.36-.74-.12-1.55-.32-2.3a14.7,14.7,0,0,1-.5-1.47,11.75,11.75,0,0,1,.11-1.58,7.92,7.92,0,0,0-.12-1.57,2.94,2.94,0,0,1,.1-1.55,14.8,14.8,0,0,0,.46-1.76A1.33,1.33,0,0,0,302.29,90.1Zm.86,13.24,0,.23-.2-.14Zm.3,54.14a1,1,0,0,1-1.3-.52.54.54,0,0,1,.2-.71c.63-.45,1.23-.18,1.47.65A.49.49,0,0,1,303.45,157.48Zm1.3-38.73a5.81,5.81,0,0,0-.41,2.32,18.79,18.79,0,0,1-.41,4.72.44.44,0,0,1-.61.29,1.1,1.1,0,0,1-.56-.46,3.19,3.19,0,0,1-.16-.9,11.89,11.89,0,0,1,.42-2.21,4.1,4.1,0,0,0,.17-2.7c-.22-.77-.35-1.55-.53-2.33a5.43,5.43,0,0,1-.05-2,10.31,10.31,0,0,0,.06-3.16,11.65,11.65,0,0,1,0-2.38,6.18,6.18,0,0,0-.4-2.32,1.4,1.4,0,0,1,.18-1.13,1.08,1.08,0,0,1,.91-.62c.29,0,.73.48.76.82,0,.13.05.26.05.4a7.89,7.89,0,0,0,.48,3.51,1.42,1.42,0,0,1-.15,1.15,4.43,4.43,0,0,0-.17,2.73,18.93,18.93,0,0,0,.52,1.91A3.5,3.5,0,0,1,304.75,118.75Zm4.59-31.14a.72.72,0,0,1-.73.09,3,3,0,0,1-1.41-2.14c0-.07.2-.15.31-.23a2.39,2.39,0,0,1,1.83.37C310.07,86.26,310.14,86.91,309.34,87.61Zm1.87,18.69a1,1,0,0,1,.25-1.39l.34-.19a1,1,0,0,1,1.37.87,3,3,0,0,0,0,.35c0,.44-.17.81-.58,1a1.1,1.1,0,0,1-1.08-.31A1.76,1.76,0,0,1,311.21,106.3Zm.35,33.56a1.57,1.57,0,0,1,.09-1.15c.25-.47.52-.92.77-1.38s.59-.32.89.1a2,2,0,0,1,.36.69c.12.65.17,1.31.24,1.88,0,.36-.06.62-.1.88a1.21,1.21,0,0,1-.71.89c-.33.19-.68,0-.93-.45s-.34-.71-.51-1.08A3.25,3.25,0,0,1,311.56,139.86Zm1.76,17.21a1.12,1.12,0,0,1-.16-.65c0-.32.13-.47.32-.38s.1.19.12.3a1.7,1.7,0,0,1,0,.36C313.63,157,313.46,157.21,313.32,157.07Zm1-8.69a14.3,14.3,0,0,1-.53,1.92,2,2,0,0,0,0,1.16,3.34,3.34,0,0,1,0,1.58.6.6,0,0,1-.23.28c-.23.15-.47.07-.57-.26a10.85,10.85,0,0,1-.39-1.54,14.29,14.29,0,0,0-.17-1.57,7,7,0,0,1-.22-3.57c.2-1,0-1.7.31-2.33a.66.66,0,0,1,.63-.37.69.69,0,0,1,.34.16.82.82,0,0,1,.26.28c.18.5.33,1,.51,1.51A5.08,5.08,0,0,1,314.28,148.37Zm6.41-70.61.17.31-.22.31c-.06-.12-.16-.23-.16-.33S320.62,77.86,320.7,77.77Zm-3.18-10.58c.09,0,.2.13.29.2a.44.44,0,0,1-.31.58c-.07,0-.21-.13-.26-.23C317.09,67.44,317.2,67.23,317.51,67.18ZM322.36,86A13.56,13.56,0,0,0,322,90a32.6,32.6,0,0,1,0,5.15.51.51,0,0,1-.49.52.61.61,0,0,1-.68-.24,2.28,2.28,0,0,1-.34-.7c-.13-.51-.21-1-.32-1.55a.78.78,0,0,0-.85-.63,4.25,4.25,0,0,1-1.55.17.87.87,0,0,1-.61-.44,1.13,1.13,0,0,1-.18-.75,1.09,1.09,0,0,1,.9-1.12c.53,0,1.06,0,1.58,0a1,1,0,0,0,.81-.7c0-.26,0-.53,0-.79-.08-1.32-.16-2.64-.27-4a8.94,8.94,0,0,1,.29-3.15,4.91,4.91,0,0,1,.53-1c.05-.09.23-.14.35-.15a.51.51,0,0,1,.3.13.67.67,0,0,1,.25.29,16.25,16.25,0,0,1,.75,4.11A5.42,5.42,0,0,1,322.36,86Zm3.41,55.29c0,.13,0,.26,0,.4l.21-.09a.91.91,0,0,0-.09.17h0c-.48-.21-1-.41-1.43-.64a1.14,1.14,0,0,1-.57-1.33c.55-1.19.35-2.62,1.17-3.75a.89.89,0,0,0,0-.74,5.26,5.26,0,0,1-.64-2.26,1.06,1.06,0,0,1,.51-1,.74.74,0,0,1,.75,0,.85.85,0,0,1,.5.56,4.4,4.4,0,0,1-.21,1.55,5,5,0,0,0-.14,1.57C326.17,137.64,325.79,139.48,325.77,141.31Zm5.76,9.87c-.25.46-.54.9-.76,1.38-.14.3-.31.44-.62.3-.09,0-.13-.19-.15-.29a1.42,1.42,0,0,1,0-.39c0-.4.07-.78.1-1.17s0-.53,0-.79.09-.54.32-.62a.67.67,0,0,1,.7.2C331.58,150.27,331.74,150.78,331.52,151.19Zm1-8.12a8.85,8.85,0,0,1-.23-1.94,2.61,2.61,0,0,1,.26-1.12c.11-.25.41-.29.65-.3a.5.5,0,0,1,.58.43,17.35,17.35,0,0,1,.07,3.88c0,1-.05,2.08-.09,3.12a.43.43,0,0,1-.19.27c-.3.2-.49.13-.61-.16a4.38,4.38,0,0,1-.37-2.66A3.1,3.1,0,0,0,332.57,143.07Zm3,38.89c-.09,2.13-.09,4.26-.05,6.39a8.41,8.41,0,0,1-.32,2,1.86,1.86,0,0,1-.44.64.41.41,0,0,1-.67,0,2.76,2.76,0,0,1-.95-2.12c0-1.2.08-2.4.14-3.59a15.8,15.8,0,0,0-.12-3.58,20,20,0,0,1-.27-4.38,42.07,42.07,0,0,0-.23-6.38,14.7,14.7,0,0,1,.17-4.37,8.55,8.55,0,0,0,.09-2.78,9.31,9.31,0,0,1,0-2.39,5.49,5.49,0,0,0-.12-1.58c-.16-1-.27-2.1-.39-3.16a.73.73,0,0,1,.07-.39,1.63,1.63,0,0,1,.42-.63,1,1,0,0,1,1.11-.1,1.1,1.1,0,0,1,.64.92c.15,2.52.29,5,.43,7.57a10.8,10.8,0,0,0,.27,2.77,2.05,2.05,0,0,1,.08.79,96.94,96.94,0,0,0,.17,10.32C335.55,179.55,335.58,180.76,335.54,182Zm.74-49.89a1.76,1.76,0,0,1-.33.71,9.07,9.07,0,0,1-2.35,2.09c-.28.16-.9,0-1-.37a15.1,15.1,0,0,0-.34-1.53,1.76,1.76,0,0,0-1.4-1.24,3.49,3.49,0,0,1-1.13-.31.85.85,0,0,1-.12-1.34c.21-.17.4-.34.62-.5.43-.31.86-.6,1.29-.92a1.11,1.11,0,0,0,.42-1,3.57,3.57,0,0,1,.62-2.24.8.8,0,0,1,1.32-.09c.13.22.36.43.39.67a4.91,4.91,0,0,0,1.47,2.74,3.15,3.15,0,0,1,.71,2.23C336.41,131.29,336.37,131.69,336.28,132.07Zm10.32,8.44c-.09.07-.25.15-.33.12a.41.41,0,0,1-.21-.3c-.08-.37-.11-.74-.15-1s0-.36.06-.48c0-.28.56-.57.91-.46a.66.66,0,0,1,.47.53A1.51,1.51,0,0,1,346.6,140.51Zm5.73,23.22c-.38.56-.48.57-.73.06s-.49-.92-.69-1.4a2.3,2.3,0,0,1,0-1.52c.1-.35.25-.42.59-.27a2.53,2.53,0,0,1,1.31,1.36,1.23,1.23,0,0,1,0,1.12C352.63,163.3,352.47,163.51,352.32,163.73Z"/><path class="cls-2" d="M190.71,160.25h0S190.71,160.3,190.71,160.25Z"/><path class="cls-2" d="M277.46,48.94v0Z"/><path class="cls-4" d="M263.48,132.52a.91.91,0,0,0-1.09,0,1.79,1.79,0,0,0-.47,2.15,1.43,1.43,0,0,0,1,.54,1.38,1.38,0,0,0,1.22-1.31A1.62,1.62,0,0,0,263.48,132.52Z"/><path class="cls-4" d="M250,123.06a19.77,19.77,0,1,0,19.77,19.77A19.77,19.77,0,0,0,250,123.06Zm12.95,12.14a1.43,1.43,0,0,1-1-.54,1.79,1.79,0,0,1,.47-2.15.91.91,0,0,1,1.09,0,1.62,1.62,0,0,1,.68,1.36A1.38,1.38,0,0,1,262.95,135.2Z"/></svg>