<svg id="Layer_1" data-name="Layer 1" xmlns="http://www.w3.org/2000/svg" viewBox="0 0 500 500"><defs><style>.cls-1{fill:#231f20;}</style></defs><title>shoppingTag</title><path class="cls-1" d="M167.41,382.22l0,.07,0-.07Z"/><path class="cls-1" d="M320,137.1l-.08.06C320.09,137.26,320.09,137.22,320,137.1Z"/><polygon class="cls-1" points="288.9 76 288.91 76 288.9 75.99 288.9 76"/><path class="cls-1" d="M102.74,294.06h0l.06-.07-.07-.05A1.16,1.16,0,0,0,102.74,294.06Z"/><path class="cls-1" d="M164.67,262.8a.37.37,0,0,1-.12-.06l.05.11h0Z"/><path class="cls-1" d="M374.8,271a.33.33,0,0,0-.27.05.26.26,0,0,0-.08.23c.14.33.49.44.78.62a1.38,1.38,0,0,1-.1-.32A.7.7,0,0,0,374.8,271Z"/><path class="cls-1" d="M320,137.1l.08-.07-.13,0A.46.46,0,0,1,320,137.1Z"/><polygon class="cls-1" points="317.64 115.77 317.64 115.76 317.64 115.76 317.64 115.77"/><path class="cls-1" d="M155.81,434.73l-.09,0s0,.07,0,.11l.09-.13Z"/><path class="cls-1" d="M164.65,262.85l0,.06.13-.06h-.11Z"/><polygon class="cls-1" points="307.8 91.27 307.78 91.27 307.8 91.27 307.8 91.27"/><path class="cls-1" d="M299.37,79.81l.19.1-.06-.05h0Z"/><path class="cls-1" d="M293.94,64.7v0Z"/><path class="cls-1" d="M302.88,92.07h0s0-.06,0-.09l-.07,0Z"/><path class="cls-1" d="M293.1,72.68l-.12.11C293.22,72.87,293.23,72.82,293.1,72.68Z"/><path class="cls-1" d="M298.12,76.52h0Z"/><path class="cls-1" d="M290.46,77.65h0l0,0S290.47,77.64,290.46,77.65Z"/><path class="cls-1" d="M155.71,434.66l0,0h0Z"/><path class="cls-1" d="M298.12,76.52h0v0Z"/><path class="cls-1" d="M155.72,434.69h0s0,0,0,.07h0S155.72,434.71,155.72,434.69Z"/><path class="cls-1" d="M256.85,84.78l0,.09,0-.1Z"/><path class="cls-1" d="M244.29,340.49h0l.14,0Z"/><path class="cls-1" d="M319.85,135.2l0,.11.13-.08A.35.35,0,0,1,319.85,135.2Z"/><path class="cls-1" d="M418.56,190.91v0l.06,0,0-.07Z"/><path class="cls-1" d="M319.85,135.2l0-.1,0,0C319.71,135.13,319.72,135.17,319.85,135.2Z"/><path class="cls-1" d="M270.65,295.44l0-.07C270.48,295.5,270.51,295.51,270.65,295.44Z"/><path class="cls-1" d="M213.05,249.49l-.09,0h0s0,0,.07.06Z"/><path class="cls-1" d="M418.52,190.92l0,.09,0,0h0s0-.07,0-.11Z"/><path class="cls-1" d="M347.21,96.32c-.22-.08-.44-.19-.67-.25a1.37,1.37,0,0,1-1.07-.75c-.2-.34-.4-.63-.57-.95a1.57,1.57,0,0,1-.15-.9l-54-54-7.94,7.94c.21,0,.43,0,.63,0a1,1,0,0,1,.64,1.11c-.05.1-.08.22-.14.32-.29.52-.57,1-.89,1.54a1.07,1.07,0,0,1-.52.44c-.44.15-.94.17-1.37.34a3.25,3.25,0,0,1-1.74.14,1.17,1.17,0,0,0-.61.08l-8.52,8.52a1.12,1.12,0,0,1,.74.38c.35.48.75.9,1.14,1.34a1.2,1.2,0,0,1,.23.64c.06.59,0,1.19.11,1.78a.83.83,0,0,1-.49.85l-.29.2c-.45.29-.68.3-1,.1a8.09,8.09,0,0,1-2.64-2.83c0-.06-.08-.11-.11-.16L252.54,77.72l.41,0a2.22,2.22,0,0,1,2,1.25,14.53,14.53,0,0,0,.73,1.59,5.24,5.24,0,0,1,1,3.3,3.2,3.2,0,0,0,.19.92h0l0,.1-.21,0,.18-.07v0c-.22,0-.44,0-.65-.06a2,2,0,0,1-1.26-.56,11.42,11.42,0,0,0-2.42-2,2.08,2.08,0,0,1-.61-.83c-.21-.41-.33-.88-.54-1.3a1.52,1.52,0,0,1-.14-.95l-64.34,64.34a8.46,8.46,0,0,1,.67,1.28,3.64,3.64,0,0,1,1.15,2.12,3,3,0,0,0,1.17,1.71c.19.14.47.22.57.4a5.16,5.16,0,0,0,1.75,1.67.41.41,0,0,1,0,.63,1.2,1.2,0,0,1-1.57.22,11.51,11.51,0,0,1-2-2,9.94,9.94,0,0,0-1.69-2l-2.06-2.06L153,177.27l.32.36a2.89,2.89,0,0,1,.47,1.29.76.76,0,0,1-.94.72.83.83,0,0,1-.65-.7,6.42,6.42,0,0,0-.16-.71L49.43,280.83l-3.62,34.41c.21.24.41.5.63.74a7.43,7.43,0,0,1,.93,1.51,1.7,1.7,0,0,1,.08.69.37.37,0,0,1-.42.43,2.52,2.52,0,0,1-1.5-.59l-4.72,44.86.59.31c.14.37.25.69.4,1a1.05,1.05,0,0,1-.77,1.3,1.8,1.8,0,0,1-.49,0l-1,9.92,85.08,85.08,94.6-9.94,159.5-159.5-.1,0a1,1,0,0,1-.63-1.4c.05-.11.05-.25.12-.33.55-.62.75-1.47,1.36-2.07.35-.36.35-.46-.09-.82a2.32,2.32,0,0,1-.63-.83,1.55,1.55,0,0,0-1-.87c-.57-.16-1.12-.36-1.62-.53a4.12,4.12,0,0,1-.37-2.82,1,1,0,0,1,.66-.72c.35,0,.71-.07,1.06-.13a2.23,2.23,0,0,1,1,.1,7.59,7.59,0,0,1,3.35,2.52,3.2,3.2,0,0,1,.48,1.32c.19.65.2.67.92.95a4.19,4.19,0,0,1,.77.38l3.36-3.36a2.56,2.56,0,0,0-.55-.76c-.27-.24-.24-.63-.26-1a6,6,0,0,0-1.08-2.93c-.12-.18-.37-.18-.63-.13h0v0c-.57-.55-1.14-1.1-1.7-1.66a.34.34,0,0,1,0-.31.27.27,0,0,1,.52-.06,5.16,5.16,0,0,1,1.22,2l0,0a3.5,3.5,0,0,0,.65-.79.76.76,0,0,1,.91-.3,1.78,1.78,0,0,0,1.35-.15,1.52,1.52,0,0,1,1.35.06,3.23,3.23,0,0,1,1.39,1c.19.29.45.53.65.82l.14.22,46.62-46.62a.82.82,0,0,1-.62-.75,2,2,0,0,1,.32-1.34c.38-.45.76-.9,1.1-1.39s.5-.81.74-1.21c.56-.17,1.11-.35,1.67-.51a.49.49,0,0,1,.35.06c.2.11.47.22.54.41s.09.32.14.48l18.42-18.42L347.66,96.37A1.16,1.16,0,0,1,347.21,96.32Zm-16.47,49.44.38.52a1.34,1.34,0,0,1-.53,1.79,2.75,2.75,0,0,1-1.72,0,.89.89,0,0,1-.27-.21,2.54,2.54,0,0,1-.66-2.88.85.85,0,0,1,.48-.46,1.29,1.29,0,0,1,1.31.21C330.08,145,330.38,145.39,330.74,145.76Zm-4.79-24.65a2.23,2.23,0,0,0-1.2.71,4.07,4.07,0,0,1-3.55,1.24,1.28,1.28,0,0,1-1.11-.8,14.46,14.46,0,0,1-.62-1.67.84.84,0,0,1,.28-.6,1.5,1.5,0,0,1,.61-.32c.91-.29,1.82-.54,2.72-.84a1.36,1.36,0,0,0,.54-.44,3.62,3.62,0,0,0,.85-2.64c0-.24.3-.35.52-.27a21.52,21.52,0,0,1,2.32,1.63,1.39,1.39,0,0,1,.53.9c.07.23.11.46.16.69a1.55,1.55,0,0,1-.77,1.83A2.78,2.78,0,0,1,325.95,121.11Zm.72,21.71c-.1.17-.36.26-.54.38s-.42.62-.79.55a2.2,2.2,0,0,1-2-2.09,4.18,4.18,0,0,1,.06-1,.84.84,0,0,1,1-.62,3,3,0,0,1,1.4,1,6.17,6.17,0,0,1,.51.91C326.5,142.2,326.91,142.43,326.66,142.82Zm-5.06-4.15c0,.08,0,.2,0,.31-.1,0-.22-.08-.27-.16s0-.2,0-.31C321.43,138.56,321.56,138.59,321.61,138.67ZM320,135.23l-.14.08h-.23c0-.08,0-.18,0-.22a.26.26,0,0,1,.22-.06s0,0,0,0l0,0v0Zm0,1.79.12,0c0,.08,0,.21,0,.23-.2.12-.32.05-.35-.17C319.79,137.08,319.92,137,320,137Zm-8-72.25c.21-.12.43-.21.63-.33a.58.58,0,0,1,.67,0l1.45.91c.7,1.65,2.21,2.57,3.09,4a2.85,2.85,0,0,0,.77.72,1.3,1.3,0,0,1,.5.89,1,1,0,0,0,.5.87c.07,0,2.11,1.66,2.16,1.68a4.68,4.68,0,0,1,1.4,1.08,37.15,37.15,0,0,0,2.66,3.32.75.75,0,0,1,.16.31,1.25,1.25,0,0,1,.08.34,7.47,7.47,0,0,1-.18,2.11c-.63.44-.53,1-.19,1.53.17.3,0,.72.34,1a8.22,8.22,0,0,1,1.44,1.58A20.35,20.35,0,0,0,329,86.17a2.65,2.65,0,0,1,.45.95.57.57,0,0,1-.45.79A6.24,6.24,0,0,1,328,88a20,20,0,0,1-2.1-.35,2.17,2.17,0,0,1-1.78-1.55,4.17,4.17,0,0,0-.83-1.55c-.89-1.11-1.76-2.25-2.72-3.29a2.07,2.07,0,0,1-.49-2.27c.15-.45-.2-.55-.6-.51a.35.35,0,0,1-.27-.19,5,5,0,0,1,0-1.72,2.31,2.31,0,0,0-1.29-2,5.31,5.31,0,0,0-1.32-.51,1.21,1.21,0,0,1-.86-1,1,1,0,0,0-.32-.61,2.83,2.83,0,0,1-1.13-1.73,1.94,1.94,0,0,0-.6-.86,4,4,0,0,1-1.28-1.66c-.25-.66-.66-1.26-1-1.9A1.26,1.26,0,0,1,312,64.77Zm1.3,47.59-.07,0v0s0,0-.05-.07a.4.4,0,0,1-.48.1.3.3,0,0,1-.12-.51s.21,0,.3,0a.57.57,0,0,1,.31.4s0,0,.07,0l.05.09a2.09,2.09,0,0,1,1.88,0,.71.71,0,0,1,.47.46c.07.22.14.44.2.66s.08.45.15.66a.59.59,0,0,0,.53.34v0a4.41,4.41,0,0,0,1,1.19l.06.06v0h0l.28,1c.1.36-.12.63-.52.66a1.48,1.48,0,0,1-1-.3c-.22-.15.2-.35.3-.58.28-.58,1.88-.83,1.88-.75h0s-.54-.06-.56-.08c-.33-.31-.91-.59-1.21-.9a.72.72,0,0,1-.21-.29s-.09,0-.1,0c-.73.44-1.62.12-2.38.38-.33.12-.66-.28-.59-.65A1.74,1.74,0,0,0,313.27,112.36Zm-5.67,29.53c.07.33,0,.48-.34.47a.71.71,0,0,1-.33-.07c-1-.55-1-1.2,0-1.8.09-.05.23,0,.4,0C307.43,141,307.5,141.43,307.6,141.89Zm-.81-51.56c-.07-.09-.17-.24-.14-.29.17-.31.37-.31.52,0s.15.45.25.66a2.53,2.53,0,0,0,.15.22C307.34,90.69,307,90.59,306.79,90.33Zm5,5.31a.85.85,0,0,1-1-.14c-.23-.27-.48-.52-.69-.8a12.71,12.71,0,0,0-1.79-2.17,2.63,2.63,0,0,1-.59-1.27c0-.06-.05.27-.08.22s.07.53.1.53h0c.13,0,.25-1,.4-1.35a.89.89,0,0,1,.91-.54c.35.09.65.13.74.55a1,1,0,0,0,.6.76,4.06,4.06,0,0,1,1.67,1.24c.42.56.87,1.1,1.3,1.66.17.21,0,.87-.3.88A2.38,2.38,0,0,0,311.82,95.65Zm2.54-21.73c0-.09,0-.22.06-.26s.17,0,.26,0,0,.22-.06.25S314.44,73.93,314.36,73.91Zm1.15,58.74a5.29,5.29,0,0,1,1.89.88A1.24,1.24,0,0,1,318,135a3.54,3.54,0,0,1-.24.63,3.7,3.7,0,0,1-.59-.37c-.25-.25-.47-.53-1.18-1.36l-.58-.84a.82.82,0,0,1-.14-.32A.31.31,0,0,1,315.51,132.66Zm.2,18.56c.12-.3.38-.35.88-.16.22.09.44.18.65.25a.61.61,0,0,1,.46.47,3.21,3.21,0,0,0,.22.66,1,1,0,0,0,.82.53.68.68,0,0,1,.59,1,4,4,0,0,0-.35,1,.39.39,0,0,1-.42.38.52.52,0,0,1-.3-.17c-.23-.26-.43-.55-.61-.78a3.3,3.3,0,0,0-.9-1.11,7,7,0,0,1-.9-1.06A1,1,0,0,1,315.7,151.22Zm-4.92-69.4a1.39,1.39,0,0,1-2.09.49c-.27-.22-.54-.46-.75-.64s-.33-.44-.46-.63a3.13,3.13,0,0,1,0-3.34c0-.09.19-.14.3-.19a1.54,1.54,0,0,1,1-.15q.52.12,1,.27a2.21,2.21,0,0,1,1.48,2.16A4.25,4.25,0,0,1,310.78,81.82Zm-2.65-20.19a5.08,5.08,0,0,1,.53.47,1.13,1.13,0,0,0,1,.33c.73-.14,1.06.37,1.45.79a.6.6,0,0,1-.08.65.62.62,0,0,1-.6.31,2.59,2.59,0,0,0-1.37-.06c-.45.13-.86-.24-.95-.8a1.57,1.57,0,0,0-.55-1.23c-.05,0,0-.25,0-.33A.41.41,0,0,1,308.13,61.63Zm-6.63-7c.15-.22.43-.34.59-.19a1.18,1.18,0,0,0,1.57.07.57.57,0,0,1,.66.06,1.62,1.62,0,0,1,.22.28c.15.18.3.36.42.49l.63.46a1.46,1.46,0,0,1,.58,1.22c0,.62.53,1,.59,1.65l.76.73a.6.6,0,0,1,.17.66.76.76,0,0,1-.86.41,2.17,2.17,0,0,1-1-.4,2.72,2.72,0,0,0-.9-.52,2.38,2.38,0,0,1-1.46-.9,1.71,1.71,0,0,0-.88-.56,1,1,0,0,1-.7-.74c-.15-.57-.28-1.15-.41-1.72a5.41,5.41,0,0,1-.16-.68A.53.53,0,0,1,301.5,54.63Zm2.44,16.16-.27,0,.17-.24Zm-2.39.78a.44.44,0,0,1,.53.27.42.42,0,0,1,0,.31c-.12.24-.3.26-.53.11a.44.44,0,0,1-.26-.53C301.32,71.66,301.46,71.59,301.55,71.57Zm-1.76-21.41c.07,0,.1.16.15.24s-.1.18-.14.18a.36.36,0,0,1-.24-.13.66.66,0,0,1,0-.27C299.62,50.17,299.73,50.13,299.79,50.16Zm.46,26.34-1,0s-.53.08-.52.12-.28-.07-.29-.11c0,.21-.12.41-.11.61,0,0,0,0,0,0s-.07-.16-.08-.24a.41.41,0,0,0,.17.19l-.14.05a7.88,7.88,0,0,0,.63,2.08,2,2,0,0,0,.62.69,1.07,1.07,0,0,1,1.21.46c.32.5.6,1,.88,1.55a2,2,0,0,0,.72.76c.52.29,1.06.54,1.57.84a4,4,0,0,1,.83.65c.57.61,1.14,1.22,1.65,1.87a1.63,1.63,0,0,1,.26,1.68c-.09.22-.15.45-.23.67a1,1,0,0,1-1.45.42c-.1-.07-.22-.12-.28-.22a7.47,7.47,0,0,0-1.55-1.9,7.16,7.16,0,0,1-1.57-1.93,4.79,4.79,0,0,0-2-2A4.05,4.05,0,0,1,297.84,81a.93.93,0,0,0-.59-.36.92.92,0,0,1-.59-.81,1.72,1.72,0,0,0-.9-1.43,2.9,2.9,0,0,1-1-1,5.51,5.51,0,0,0-1.22-1.29,1.51,1.51,0,0,1-.65-.82,5.57,5.57,0,0,0-.55-1.3c-.23-.42-.35-.88-.55-1.32s-.41-.85-.62-1.28a1,1,0,0,1,0-.7,6.36,6.36,0,0,1,.31-1.37.35.35,0,0,1,.58-.15,2.45,2.45,0,0,1,.55.43,5,5,0,0,1,1,2.24c.07.31-.07.49-.54.72,0,0,0,0,.05.06l.07-.06c.57.15,1.14.28,1.7.47a.94.94,0,0,1,.52.43c.42,1.14,2.4,1.9,3.17,2.77.13.15-.93.15,1.69.22ZM302.91,92c0-.16.1-.18.15,0l-.15,0a.47.47,0,0,0,0,.08s0,0,0,0l-.07-.14.08-.15a.35.35,0,0,0-.24-.29c-.45-.14-.9-.25-1.35-.41a.77.77,0,0,1-.14-1.21,3,3,0,0,0,.8-.69.65.65,0,0,1,.92,0c.18.3.32.63.51.92a.79.79,0,0,1-.23,1.19,1.29,1.29,0,0,0-.28.44.55.55,0,0,1,0,.18Zm-1.48,24.37a1.69,1.69,0,0,1,.22.25c0,.12.08.24,0,.31s-.3.19-.5,0-.47-.93-.32-.89A2,2,0,0,1,301.43,116.34Zm-.32,16.87c.22-.33.43-.37.68-.21a1.84,1.84,0,0,1,.57.41c.48.67,1,1.36,1.38,2.06a1.13,1.13,0,0,1-.18,1.32c-.17.24-.38.36-.59.19-.64-.53-1.25-1.08-1.88-1.62a1.11,1.11,0,0,1-.29-1.28C300.91,133.74,301,133.41,301.11,133.21Zm2.7-17.16a.39.39,0,0,1-.36-.42.36.36,0,0,1,.14-.25.33.33,0,0,1,.28,0,.38.38,0,0,1,.16.54C304,116,303.88,116.06,303.81,116Zm-8.52-34.47-.11.08-.07-.08c-.44.4-1,.16-1.53.3-.08,0-.23-.07-.29-.15a.3.3,0,0,1,0-.27c.44-.59.86-.69,1.43-.3a1.67,1.67,0,0,1,.36.42l.07,0ZM295.64,64l0,0,0,0h-.05a.62.62,0,0,0-.15.6,1.36,1.36,0,0,1-.52,1.23.6.6,0,0,1-.3.15c-.24,0-.4-.1-.46-.37S294,65,294,64.68l0,0h-.13c-.12.09-.23.19-.34.29s-.37.24-.45.09a.28.28,0,0,1,0-.25.42.42,0,0,1,.26-.15,3.69,3.69,0,0,1,.5,0l.14-.12,0,.1a1.64,1.64,0,0,1,1.6-.69l0,0Zm-4.9-9.84c0-.05.17-.08.24-.06a1.14,1.14,0,0,1,.77.59c0,.08,0,.21,0,.33-.19.15-.49.06-.82-.25A.49.49,0,0,1,290.74,54.15Zm-3.55,4a6.7,6.7,0,0,1,.48-1,1.18,1.18,0,0,1,.52-.46,1.66,1.66,0,0,1,1.68.18,3.86,3.86,0,0,1,1.48,1.94A5.44,5.44,0,0,0,292.58,61a1.12,1.12,0,0,0,1,.31,1.42,1.42,0,0,1,.95.37c.64.5.65.48.62,1.46a1.08,1.08,0,0,0,.08.46l-.1-.08c-.2-.11-.5-.08-.66-.22-.81-.69-1.88-1-2.6-1.82a.28.28,0,0,0-.27,0c-.17.13-.14.33,0,.59s.16.46,0,.6a.31.31,0,0,1-.28,0,3.63,3.63,0,0,0-1.2-.75,1.41,1.41,0,0,1-.62-.32c-.74-.77-1.47-1.54-2.15-2.36A1,1,0,0,1,287.19,58.18Zm3.16,19.39a2.13,2.13,0,0,1-.9-.75c-.11-.18-.23-.34-.35-.52a.56.56,0,0,0,.19.2,3,3,0,0,1,1.05,1.07l.11.07,0,.06h-.25l.21,0Zm-3.36-2-.09,0a.46.46,0,0,0,.06.09l-.07,0,.07,0c.52-.39.94-.19,1.37.16.13.11.37.08.56.12h0l.09.14-.1-.14h0l-.18.26c-.37.55-.49.57-.89.1a1.71,1.71,0,0,0-.87-.64h0l-.14-.06.08,0C286.84,75.54,286.85,75.51,287,75.58Zm-2.45-12.66a.39.39,0,0,1,.56.13,5.43,5.43,0,0,1,.27.58.42.42,0,0,1,0,.31c-.11.19-.3.21-.54.08a.74.74,0,0,1-.4-.5A.48.48,0,0,1,284.54,62.91Zm-4.56-4c.07-.09.14-.19.22-.27l.36-.38.13-.11a1.36,1.36,0,0,1,1.84.16c.29.49.51,1,.76,1.54a1.17,1.17,0,0,1,0,.33c0,.39-.57.92-.93.8-.65-.21-1.3-.42-1.95-.66A1,1,0,0,1,280,58.91Zm-3,9.88a.45.45,0,0,1,.35,0,8.24,8.24,0,0,1,1.79,1.67c.32.49.71.94,1.31,1.73.39.79,1.37,1.68,2,2.84a4.57,4.57,0,0,1,.68,2.31c0,.32.32.61.17,1a.66.66,0,0,1-.23.25c-.1.06-.28.14-.33.1a4.36,4.36,0,0,1-1.37-1.55,1.13,1.13,0,0,0-.74-.69A7,7,0,0,1,278,74.65a1.82,1.82,0,0,1-.42-.56,18.8,18.8,0,0,0-1.55-2.75,2.58,2.58,0,0,1-.21-1A1.58,1.58,0,0,1,277,68.8ZM268.43,76a.49.49,0,0,1,.21.15.67.67,0,0,1,0,.24l0,0,.06.06a.89.89,0,0,1,.2-.13.85.85,0,0,1,1.28.59.4.4,0,0,1-.07.31.37.37,0,0,1-.55.11c-.31-.27-.58-.59-.86-.89l-.08.05,0-.11,0,.1s0-.08,0-.12C268.42,76.27,268.32,76.14,268.43,76Zm-3.63,2.18a2.21,2.21,0,0,1,2.31-.32,1.67,1.67,0,0,1,.91,1,.57.57,0,0,1,0,.34A2.82,2.82,0,0,1,267,80.92a.68.68,0,0,1-.63,0,6.61,6.61,0,0,1-1.6-1.82C264.54,78.77,264.56,78.33,264.81,78.18Zm-37.26,33.73a1.61,1.61,0,0,1,1.9-1.12,1.66,1.66,0,0,1,.3.18,2,2,0,0,1,.24,2.54,1.63,1.63,0,0,1-2.2.07.88.88,0,0,1-.19-.29A2.94,2.94,0,0,1,227.54,111.91ZM209,127.51c0,.1,0,.2,0,.29s-.21,0-.27-.11,0-.19,0-.28Zm-8.19,35.44a.62.62,0,0,1,.63.24.7.7,0,0,1,.16.65c-.12,0-.28,0-.35,0a2.41,2.41,0,0,1-.44-.54A.44.44,0,0,1,200.79,162.94ZM156.3,183.22a.44.44,0,0,1,.57-.3c.12,0,.24,0,.36,0,1.17.11,1.56.68,1.28,1.93-.05.22-.27.32-.54.29a.82.82,0,0,1-.34-.1,3.5,3.5,0,0,1-.58-.39,6.92,6.92,0,0,1-.49-.5c-.06-.1-.13-.2-.18-.3A.79.79,0,0,1,156.3,183.22Zm-31.53,52.46c0-.06.2,0,.3,0a.36.36,0,0,1,.12.54s-.21,0-.3,0A.3.3,0,0,1,124.78,235.68Zm141.93-118.4a7.47,7.47,0,0,1-2.15-2.47,3.37,3.37,0,0,1-.24-.65.77.77,0,0,1,.4-.87,6.07,6.07,0,0,1,1-.29,1.21,1.21,0,0,1,.68.1,4.91,4.91,0,0,1,.88.57c1,.81,1.16.87,2.28.76l6.17-6.17c-.22-.38-.42-.78-.66-1.16H275L275,107a2.06,2.06,0,0,0-1.15-1.65,3.39,3.39,0,0,1-1.41-1,12.41,12.41,0,0,0-1.88-2.13,3.18,3.18,0,0,1-1.33-2.41.61.61,0,0,0-.14-.31A3.38,3.38,0,0,0,267.23,98a4.44,4.44,0,0,1-2.6-1.77,27.21,27.21,0,0,0-2.17-2.34,5.94,5.94,0,0,1-.48-.52,50.13,50.13,0,0,0-3.91-4.61,2.91,2.91,0,0,1-.21-.29,1.61,1.61,0,0,1,0-2,.37.37,0,0,1,.59-.14c.2.13.36.31.56.42a5.94,5.94,0,0,1,1.27.61,24.63,24.63,0,0,1,2.29,2.23c1,1.05,1.85,2.16,2.76,3.26.45.55.86,1.14,1.36,1.64A10.55,10.55,0,0,1,269,98a1.7,1.7,0,0,0,1,.92,4.43,4.43,0,0,1,1.67,1.29,21.48,21.48,0,0,1,2.25,3.19,1.62,1.62,0,0,0,.81.66,1.35,1.35,0,0,1,.67.78,2,2,0,0,1,.1.34A1.47,1.47,0,0,1,275,107v0l-.08,0,.1,0,0,0a4.4,4.4,0,0,1,1.55.27l17.81-17.81,3.25,3.25L280.2,110.3a2.25,2.25,0,0,1,.26,1.32c-.06.48-.77.8-1.05.53s-.41-.24-.58-.4l0,0-6.94,6.94c0,.07.07.14.11.21.52.78,1.13,1.5,1.64,2.29a1.69,1.69,0,0,1,.19,1.36.62.62,0,0,1-.41.53.78.78,0,0,1-.95,0,7.05,7.05,0,0,0-1.34-1.13,2.71,2.71,0,0,1-1.25-1.22L104.65,285.85l-3.25-3.25Zm-7.45-17.16a2.4,2.4,0,0,1,1-.18,2.84,2.84,0,0,1,.83.35,1.63,1.63,0,0,1,.18,1.42.83.83,0,0,1-.66.71c-.46,0-.92,0-1.37,0a.78.78,0,0,1-.32-.11.75.75,0,0,1-.24-.21A1.31,1.31,0,0,1,259.26,100.13Zm16.43,24.62a1.16,1.16,0,0,1-.31-.14c-.18-.15-.33-.31-.5-.47-.53-.51-.56-.63-.22-.79a.87.87,0,0,1,.67-.1,4.13,4.13,0,0,1,.64.24.9.9,0,0,1,.45.86c0,.11,0,.27-.07.32A.61.61,0,0,1,275.7,124.75Zm.6,66.39a2.73,2.73,0,0,1-.28.64c-.11.2-.32.18-.58,0a5,5,0,0,1-1.2-.73,31.39,31.39,0,0,0-3-2.46,3,3,0,0,1-.76-.71A4.66,4.66,0,0,0,269,186.4c-.49-.32-.9-.77-1.4-1.08a6.77,6.77,0,0,1-2-2.41,4.53,4.53,0,0,1-.55-2,1.27,1.27,0,0,1,.08-.34.77.77,0,0,1,.78-.53,3.61,3.61,0,0,1,1.85,1,16.06,16.06,0,0,1,2.1,2.39,12.93,12.93,0,0,0,1.14,1.34l.06-.05,2.64,2.86c.16.17.28.41.47.52a5.15,5.15,0,0,1,2.1,2.75A.56.56,0,0,1,276.29,191.14Zm-17-17.5-.17.12,0-.22Zm-10.7-13.24c-.1,0-.25,0-.29-.06s0-.19,0-.29.24,0,.29.06S248.56,160.3,248.55,160.4ZM221.3,238l-.13.33a.83.83,0,0,1-.41.54c-.19.12-.51-.14-.75-.63a1.19,1.19,0,0,1-.13-.32,1.1,1.1,0,0,1,0-.35.7.7,0,0,1,1-.6C221.56,237.3,221.57,237.33,221.3,238Zm-7.12-35.29s0-.16,0-.25.2.06.23.12C214.49,202.83,214.41,202.89,214.19,202.68Zm-1.28,46.85H213l.09,0,.26.18c.12,0,.24,0,.27.19l-.27-.19h-.24s0,0-.17,0l.08-.1S212.92,249.57,212.91,249.53Zm-4.57-9a5.8,5.8,0,0,1-.65,2,.36.36,0,0,1-.56.17c-.42-.21-.86-.4-1.26-.65a1.12,1.12,0,0,1-.44-.52,2.36,2.36,0,0,1,.2-2.05,3.42,3.42,0,0,1,1.28-1.21c.17-.09.43,0,.65,0A2.54,2.54,0,0,1,208.33,240.54Zm-22.44-14.14c-.22.06-.44.15-.68.2a1,1,0,0,1-1.05-1.08,1.36,1.36,0,0,1,2.08-1.13,1.58,1.58,0,0,1,.24.29A1.19,1.19,0,0,1,185.89,226.39Zm-17,40.71c-.05.46-.29.75-.6.71l-1.38-.16c-.27,0-.5-.69-.31-.91s.63-.68.95-1,.72-.16.69-.19A1.68,1.68,0,0,1,168.91,267.1Zm-4.15-4.26-.14.06,0-.05c-.53,0-.93.47-1.45.52a1.21,1.21,0,0,1-.94-.36c-.17-.3-.33-.61-.49-.93a.73.73,0,0,1,.27-.89,2,2,0,0,1,1-.27.82.82,0,0,1,.88.39c.24.47.44.94.66,1.41,0,0,.05-.06.18-.08l-.06.15a.43.43,0,0,0,.09,0h0Zm-16.12-17a.29.29,0,0,1-.29,0,.38.38,0,0,1-.07-.56s.19,0,.29,0S148.82,245.69,148.65,245.87Zm-17.42,88.75c-.32-.37-.86-.37-1.28-.57s-.65-.27-1-.4a2.6,2.6,0,0,1-1.27-1.19,6.8,6.8,0,0,1-.36-.61.41.41,0,0,1,.21-.6,2.86,2.86,0,0,1,3.55.61,1,1,0,0,0,1.22.38,17,17,0,0,1,1.72-.44,4,4,0,0,1,2.1-.05,4.78,4.78,0,0,0,1.06,0,2.29,2.29,0,0,1,1.79,1,.87.87,0,0,1-.23,1.23c-.2.13-.43.21-.62.35a2.41,2.41,0,0,1-2,.52,1.25,1.25,0,0,0-.35,0c-.63.08-1.18.33-1.3,1a1.85,1.85,0,0,1-.76,1.14c-.49.42-.69.41-1.23,0a.85.85,0,0,1-.42-.89C132.26,335.28,131.6,335,131.23,334.62Zm-4.69-18a.63.63,0,0,1-.27.58.94.94,0,0,1-1.45-.12c-.06-.06,0-.22,0-.33.17-.11.33-.3.52-.33a4.12,4.12,0,0,1,1,.06C126.39,316.52,126.53,316.6,126.54,316.66Zm-16,0c-.43-.17-.9-.26-1.34-.4a1,1,0,0,1-.66-1.12c.13-.46.29-.89.41-1.35a.84.84,0,0,1,.43-.52,1.92,1.92,0,0,1,2-.06,1.83,1.83,0,0,0,1.7-.14,5.32,5.32,0,0,0,1.89-1.58,1.6,1.6,0,0,0,.27-1.67,13.67,13.67,0,0,0-1-1.89,12.09,12.09,0,0,0-1.14-1.35l0,0c-.16-.18-.3-.37-.47-.54a4,4,0,0,1-1.19-2.14,3.21,3.21,0,0,0-.11-.34,2.19,2.19,0,0,0-.8-1.14,28.73,28.73,0,0,1-4.51-4,4.79,4.79,0,0,1-.56-.9,1.07,1.07,0,0,1,.7-1.38,2,2,0,0,1,1.69.26,7.43,7.43,0,0,1,1.72,1.78,3.2,3.2,0,0,1,.58,1.28c.13.7.3,1.39.49,2.08a3.27,3.27,0,0,0,1.75,2.14,5.84,5.84,0,0,1,2.27,1.66,5,5,0,0,0,.65.85c.9.77,1.51,1.83,2.59,2.4a2.29,2.29,0,0,1,.68.8,6.41,6.41,0,0,1,.93,2.29,9.8,9.8,0,0,0,.52,2c0,.09,0,.23-.07.34-.19,1.1-.19,1.09,0,1.68s.34.89.5,1.33a2,2,0,0,1-.22,1.7,9.31,9.31,0,0,1-1.79,2.19,2.24,2.24,0,0,1-.94.47,5.31,5.31,0,0,1-1.06.14,6.45,6.45,0,0,0-3,.87,3.77,3.77,0,0,1-1,.36,4.77,4.77,0,0,0-2.11,1.26,3.66,3.66,0,0,1-2.61.92,1.11,1.11,0,0,1-.66-.21,3.73,3.73,0,0,1-1.33-2.43,1.57,1.57,0,0,1,.3-1,.87.87,0,0,1,.9-.41l.35,0a.74.74,0,0,0,.64-.22l1.68-1.79c.2-.71.81-1.15,1.12-1.79A.39.39,0,0,0,110.54,316.7Zm-7.63-22.62-.17,0h0v-.13l.16,0-.09.1Zm-5.08,9a1.32,1.32,0,0,1,2.32,0c.48.8.87,1.65,1.3,2.48a1.06,1.06,0,0,1-.34.93,6.49,6.49,0,0,1-.94.46,1.2,1.2,0,0,1-1.29-.26c-.17-.16-.31-.35-.68-.78a5,5,0,0,1-.56-.91A1.83,1.83,0,0,1,97.84,303.09ZM93.22,335a.72.72,0,0,1,.6-.28.74.74,0,0,1,.7.66c.1.47-.09.74-.51.68a3.61,3.61,0,0,1-.68-.15C93,335.79,93,335.25,93.22,335Zm-.9-47.74h.09c.11-.15.23-.22.37-.15,0,.07-.08.18-.12.19a.9.9,0,0,1-.24,0,.68.68,0,0,0-.1.13l-.22,0,.22-.09v.14S92.32,287.26,92.32,287.26ZM76.86,263a.56.56,0,0,1,.23-.23,1,1,0,0,1,.93,0,.36.36,0,0,1,.18.54,1,1,0,0,1-.22.24.91.91,0,0,1-.93,0A.42.42,0,0,1,76.86,263Zm-1.39,3.29a.9.9,0,0,1,.73-.67,9.94,9.94,0,0,1,1-.19A2.42,2.42,0,0,1,80,268.22a.87.87,0,0,1-.75.62,7.33,7.33,0,0,1-4.06-1.2C75.3,267.2,75.37,266.74,75.47,266.3Zm-18.86,123c0,.25-.24.42-.49.28-.72-.39-1.51-.71-1.8-1.61a1.19,1.19,0,0,0-.46-.52c-.95-.7-1.92-1.38-2.87-2.07a.72.72,0,0,1-.18-.92c.05-.1.18-.23.27-.22a3.63,3.63,0,0,1,2.3.78c.87.79,2,1.34,2.46,2.22.24.24.33.31.41.4A1.76,1.76,0,0,1,56.62,389.25ZM58.49,340c-.28.16-.49.09-.53-.24a.62.62,0,0,1,.32-.59c.08-.06.23,0,.35,0s.22.17.22.27A.64.64,0,0,1,58.49,340Zm.75,45-.09-.3.28.15Zm3.52-9.21a2.1,2.1,0,0,1-.31.6c-.62.76-1.43.63-1.82-.3a.68.68,0,0,1,.19-.88l.28-.19c.21-.08.41-.18.62-.24.39-.11.63.16.87.4A.55.55,0,0,1,62.76,375.78Zm10.2,31a.61.61,0,0,1-.65-.59,1.27,1.27,0,0,1,.54-1.18.49.49,0,0,1,.8.2c0,.11.05.22.1.33C74.09,406.49,74,406.64,73,406.81Zm3.32-40.43-.52.45a1.3,1.3,0,0,1-1.58-.2,1.36,1.36,0,0,1-.08-1.31,1.66,1.66,0,0,1,2.36-.76.84.84,0,0,1,.32.9A2.58,2.58,0,0,1,76.29,366.38ZM76,344.73h0l0-.07c-.15-.14-.17-.26,0-.36,0,0,.14.13.13.17a.56.56,0,0,1-.13.19s0,0,.06.07l-.07,0a.74.74,0,0,1,.34.52c.07.28,0,.48-.23.59a.38.38,0,0,1-.33-.06.54.54,0,0,1-.21-.63.58.58,0,0,1,.42-.42Zm4.63-62.42a3.34,3.34,0,0,1-.71-.06,1.23,1.23,0,0,1-.61-.32,9.09,9.09,0,0,1-1.32-2.5,1.7,1.7,0,0,1,0-.7c0-.35.09-.7.14-1s-.1-.45-.42-.4a2.26,2.26,0,0,1-1.36,0c-.66-.26-1.37-.36-2-.61a1.61,1.61,0,0,1-.95-1,1.54,1.54,0,0,1-.1-.34c-.25-2.19-.67-2.28-2-3.08a1.26,1.26,0,0,1-.58-.86A3.5,3.5,0,0,0,69.16,269a4.31,4.31,0,0,1-.7-.8c-.07-.09-.11-.21-.18-.3a1.39,1.39,0,0,1,.19-1.65,2,2,0,0,1,1.18-.72c.72-.09.93-.62,1.23-1.13a.82.82,0,0,1,1.2-.32.39.39,0,0,1,.2.57,2,2,0,0,1-.74.74,1,1,0,0,0-.41.92c0,.59.09,1.19.19,1.77a1.28,1.28,0,0,0,.53.89c.49.34,1,.71,1.43,1.05a2.47,2.47,0,0,1,.67.81,5.9,5.9,0,0,0,1.92,2,4.76,4.76,0,0,1,1.74,2.2c.2.43.36.88.6,1.29a1.71,1.71,0,0,0,1.79.89.73.73,0,0,1,.79.5,12.2,12.2,0,0,1,.08,2.13c.05.59.45,1.09.4,1.71C81.23,282,80.94,282.33,80.63,282.31Zm1.47-10.5a.78.78,0,0,1-.33-.09,1.7,1.7,0,0,1-.91-1.71.83.83,0,0,1,.27-.59c.19-.11.45,0,.62.21a2.58,2.58,0,0,1,.81,1.82A.41.41,0,0,1,82.1,271.81Zm3.35,14.64a.5.5,0,0,1-.62.18,1.42,1.42,0,0,1-.93-1,.93.93,0,0,1,0-.31c.1-.06.21-.17.31-.17a1.2,1.2,0,0,1,1.28.94A.41.41,0,0,1,85.45,286.45Zm1.18-12.37a.42.42,0,0,1-.58.21.33.33,0,0,1-.11-.27c0-.44-.12-.91.29-1.25.11,0,.25,0,.32.12A.81.81,0,0,1,86.62,274.08Zm1.45.14.11-.18.09.16Zm1.6,5.62c-.39-.47-.35-.88.14-1.14.31-.16.63-.31.95-.47s.59,0,.86.38.38.59.57.89a1,1,0,0,1-.78,1.31,1.3,1.3,0,0,1-1.26-.45C90,280.18,89.83,280,89.68,279.84Zm1.19,74.8a.54.54,0,0,1,.35-.48.42.42,0,0,1,.32,0,2.06,2.06,0,0,1,.52.42c.2.23.34.52.63.67h.08c0,.11,0,.24,0,.35a.34.34,0,0,1-.16.35.57.57,0,0,0,.08.3,3.69,3.69,0,0,1,.42.57A5.52,5.52,0,0,0,95.34,359a1,1,0,0,1,.33,1.26.73.73,0,0,1-.86.39A1.8,1.8,0,0,1,94,360a1.62,1.62,0,0,1-.2-.29c-.25-.53-.22-1.16-.57-1.65s-.6-.72-.88-1.09a.63.63,0,0,1,.1-.91l.2-.14a1.05,1.05,0,0,1,.13-.66l0,0a.16.16,0,0,1,0,.05l0,0a2.21,2.21,0,0,1-1.54-.08A.48.48,0,0,1,90.86,354.64Zm26.37,84.9c-.13.27-.33.3-.58.13a.5.5,0,0,1-.2-.61.51.51,0,0,1,.63-.14A.45.45,0,0,1,117.24,439.54ZM95.89,396.61a16.24,16.24,0,1,1,23,0A16.24,16.24,0,0,1,95.89,396.61Zm28.59,24.24a.67.67,0,0,1-.32.15,7.87,7.87,0,0,1-1.39,0,.68.68,0,0,1-.49-.42,2.86,2.86,0,0,1,.85-3.18,1.78,1.78,0,0,1,2-.33,3,3,0,0,1,.55.41,2.56,2.56,0,0,1,.21.66A3,3,0,0,1,124.48,420.84Zm6.26-74.31c.15.23.19.47,0,.61s-.45,0-.64-.13a3.27,3.27,0,0,0-1.86-.94,1.72,1.72,0,0,1-1-.42l-.27-.23a1.48,1.48,0,0,0-1.32-.33,1.82,1.82,0,0,1-1.64-.49,24.22,24.22,0,0,0-2.73-2.28,6.39,6.39,0,0,1-1.73-2.23,8,8,0,0,1-.55-1.66c-.08-.26.16-.39.33-.57.48-.48.48-.84.1-1.2a6.76,6.76,0,0,1-.52-.48,2.43,2.43,0,0,0-1.83-.95,3.29,3.29,0,0,1-2.41-1.33,1.69,1.69,0,0,1-.32-.62,1.16,1.16,0,0,1,0-.69,1.12,1.12,0,0,1,.5-.47,2.26,2.26,0,0,1,.67-.21,3.23,3.23,0,0,0,2.16-1.7,2.83,2.83,0,0,0,.15-.32,3.49,3.49,0,0,1,1.09-1.37,9.46,9.46,0,0,0,1.8-1.7c.41-.55.63-1.33,1.36-1.58a4.88,4.88,0,0,1,1.76-.08c.83,0,1.66,0,2.49,0a7.51,7.51,0,0,1,1.38.33,1.13,1.13,0,0,1,.76,1.08,2.52,2.52,0,0,1-.65,1.95c-.59.71-.54.75-1,.81l-2.46.32a1,1,0,0,0-.7,1.07c0,.11.07.23.11.33s.19.44.26.66a1.9,1.9,0,0,1-.09,1.38c-.31.64-.66,1.25-1,1.89a1.06,1.06,0,0,0,.3,1.28c.19.13.39.27.6.39.4.24.9.35,1.18.75s.3.64.47.94a2.7,2.7,0,0,0,.44.56,2.34,2.34,0,0,1,.67,1.59.94.94,0,0,0,.84,1,8.73,8.73,0,0,0,1.05.14,1.74,1.74,0,0,1,1.26.56l.66.69c.7.82.71.8.34,1.64,0,.11-.1.22-.15.32A1.67,1.67,0,0,0,130.74,346.54Zm14,2a9.68,9.68,0,0,1-3.35,1.18,9.44,9.44,0,0,1-2.13,0,3.4,3.4,0,0,0-1.4.17,22.8,22.8,0,0,1-2.38.76,3.73,3.73,0,0,0-1.78,1.11,3.06,3.06,0,0,1-1,.42,3,3,0,0,1-1.48-.91.53.53,0,0,1-.12-.33,3.35,3.35,0,0,1,1.13-2.77,5.47,5.47,0,0,1,2.34-1.08,1.15,1.15,0,0,0,.83-.61,3.36,3.36,0,0,1,2.21-1.68,5,5,0,0,0,2.26-1c.06-.05.22,0,.34,0s.48.17.68.11a17.34,17.34,0,0,0,2-.67c.2-.08.32-.33.49-.5a2.2,2.2,0,0,1,2-.48.72.72,0,0,1,.32.15,3.38,3.38,0,0,1,1.07,2.51,3.48,3.48,0,0,1-.54,1.68,6,6,0,0,0-.52.93A2.58,2.58,0,0,1,144.7,348.53Zm3.88,78.89a.64.64,0,0,1-.89.14l-.85-.81a3.27,3.27,0,0,1-.9-1.69.55.55,0,0,1,.31-.54.47.47,0,0,1,.34,0c.43.17.86.36,1.26.58a2.5,2.5,0,0,1,.52.45A1.5,1.5,0,0,1,148.59,427.42Zm7.14,8s0-.36,0-.4-.08-.12-.12-.11.06-.15.09-.19-.13-.1-.19-.13c-.84-.41-1.86-.38-2.58-1a12.89,12.89,0,0,1-2.65-3.25,4.39,4.39,0,0,1-.27-1c-.08-.31,0-.45.38-.42a2.86,2.86,0,0,1,2.2.83c.78.56,1.18,1.43,2,2,.49.33.42,1.07.8,1.52s.34,1.55.37,2.06c0,0,.06.62.09.62h0Zm.25-71.86a3.61,3.61,0,0,1-.86,1.51,1.52,1.52,0,0,1-.55.4,1.28,1.28,0,0,1-1.77-1.13,2.16,2.16,0,0,1,.68-1.59,10.26,10.26,0,0,1,2.51-1.18.49.49,0,0,1,.34,0,.38.38,0,0,1,.07.32C156.27,362.47,156.13,363,156,363.59Zm3.84-3.63a1.45,1.45,0,0,1-1.23.6.4.4,0,0,1-.28-.19.37.37,0,0,1,.23-.58c.65-.23,1.29-.3,1.37-.17A1.17,1.17,0,0,1,159.82,360ZM162,442.12a.35.35,0,0,1-.59.11,1.33,1.33,0,0,1-.24-.24,1.16,1.16,0,0,1-.18-.3,1.8,1.8,0,0,1,0-.34c.11,0,.22-.12.32-.11a1,1,0,0,1,.81.55C162.08,441.87,162,442,162,442.12ZM171.43,381a1.46,1.46,0,0,1-1.31,1,7.05,7.05,0,0,1-1.37-.1,1.91,1.91,0,0,0-1.24.3l-.13.13v-.07a5.53,5.53,0,0,0-1.32.34,1.9,1.9,0,0,1-1.37-.1c-.21-.1-.48-.21-.56-.39-.52-1-1-2.1-1.46-3.16,0,0,.12-.16.2-.17a6.81,6.81,0,0,1,2.43,0,1.47,1.47,0,0,1,.63.28c.28.21.52.48.78.72a2.41,2.41,0,0,1,.76,1.89,3.73,3.73,0,0,1-.08.62h0v0l.09,0A3.74,3.74,0,0,1,169,381c.54-.21,1-.47,1.57-.71a1.18,1.18,0,0,1,.9.38A.42.42,0,0,1,171.43,381Zm4.79-5.06c-.1.34-.22.67-.34,1-.21.61-.24.63-.94.93-.22.07-.44.15-.66.2a.91.91,0,0,1-.8-.55,3.21,3.21,0,0,1-.16-.68,6.66,6.66,0,0,1,.09-1.39,3.17,3.17,0,0,0-.47-2.35c-.12-.19-.24-.4-.35-.61a2.06,2.06,0,0,1,.11-2,1.19,1.19,0,0,1,.5-.44,7.62,7.62,0,0,1,1-.31,1.58,1.58,0,0,1,1.48.71,7.83,7.83,0,0,1,.48,1.68c.12,1,0,2.1.17,3.15A1.66,1.66,0,0,1,176.22,375.95Zm21.13-74.73a3.89,3.89,0,0,1-.06-1c0-.27.17-.41.43-.46a1.34,1.34,0,0,1,1.28.58,5.7,5.7,0,0,1,.37.79,1.28,1.28,0,0,1-.09,1l-.67,0a2.05,2.05,0,0,1-.34-.06A1.15,1.15,0,0,1,197.35,301.22Zm3,112.53a2.42,2.42,0,0,1-.33.1,1.76,1.76,0,0,1-1.94-2.44,1,1,0,0,1,.45-.49,1.61,1.61,0,0,1,2.13.6A1.83,1.83,0,0,1,200.4,413.75Zm90.79-43.14a6.61,6.61,0,0,1-.15-.91h0a2.57,2.57,0,0,1-1,.33,10.1,10.1,0,0,1-3-1,.84.84,0,0,1-.27-.23c-.42-.41-.85-.81-1.24-1.24a1.39,1.39,0,0,1-.41-.94c0-.59,0-1.18,0-1.76a.76.76,0,0,1,1-.66,10,10,0,0,1,2.71,1.59,3.52,3.52,0,0,1,1.19,1.7,22.68,22.68,0,0,0,.75,2.25c0,.09.16.51.25.51h.16l1.19-.72v.72H291l.5.45c.06.05.13.06.11.09C291.47,371.06,291.26,370.9,291.18,370.61Zm2,2.56c-.22.17-.42.17-.56-.06,0-.06,0-.22.1-.28a.36.36,0,0,1,.57.05S293.2,373.07,293.16,373.17ZM374.32,282c-.07,0-.17,0-.25,0s.07-.19.14-.23.16,0,.24,0S374.38,281.93,374.32,282Zm2.35-10.43a1.24,1.24,0,0,1-1,.89s0,0-.06-.06,0,0,0,.09l-1.76-.21a1.16,1.16,0,0,1-.86-.54,2.26,2.26,0,0,1-.35-1.69.8.8,0,0,1,.4-.53c.54-.24,1.12-.46,1.66,0a1.79,1.79,0,0,0,1.32.32.8.8,0,0,1,.54.36A1.44,1.44,0,0,1,376.67,271.55Zm5,1.43a1.06,1.06,0,0,1-1,.21c-.31-.12-.63-.39-1-.08a1,1,0,0,0-.24,1c.06.37-.08.47-.36.31a.81.81,0,0,1-.26-.21,1.1,1.1,0,0,1,0-1.32,1.08,1.08,0,0,0,0-1.3c-.13-.19-.24-.4-.36-.61a2.84,2.84,0,0,1-.14-.32.61.61,0,0,1,.28-.85c.32-.15.63-.31.94-.48a1.9,1.9,0,0,1,1.36-.2,1.17,1.17,0,0,1,1,.82c.12.45.19.92.35,1.36C382.62,272,382.65,272.34,381.7,273Zm45.65-73.31a.61.61,0,0,1,.23-.26,2.77,2.77,0,0,1,3.8.45,2.32,2.32,0,0,1,.35.6,7.94,7.94,0,0,1,.33,1.72,2,2,0,0,1-1,1.76.49.49,0,0,1-.33.07,7.69,7.69,0,0,1-2.95-1,1.28,1.28,0,0,1-.43-.54A3.89,3.89,0,0,1,427.35,199.66Zm-9.76-11.5c.24-.41.48-.82.72-1.22a1.19,1.19,0,0,1,1.52-.49c.41.24.85.41,1.28.6a.91.91,0,0,1,.38.91,4.71,4.71,0,0,1-.77,2,1.66,1.66,0,0,1-.52.46,4.59,4.59,0,0,1-1.49.48s0,0,.06.15l-.15-.06a.47.47,0,0,0,0,.09h0l0,0,0-.09h0a1.61,1.61,0,0,0-.1-.53c-.27-.52-.59-1-.89-1.54A.63.63,0,0,1,417.59,188.17ZM404.29,199.4l-193,193L208,389.2l193-193Zm-180,115.79.14-.3.17.22Zm17.66,22.13c.08.05.19.08.25.15a.15.15,0,1,1-.16.13A.72.72,0,0,1,241.89,337.32Zm2.35,3.18h0a2.85,2.85,0,0,0,.92-.33,2.3,2.3,0,0,1,.65-.19l0-.07c-.26-.07-.39-.18-.37-.35a1.16,1.16,0,0,1,.24.15.9.9,0,0,1,.13.2h0l0,.06,0-.06a1.21,1.21,0,0,0,1-.86.54.54,0,0,1,.83-.33,3.27,3.27,0,0,0,2,.5.44.44,0,0,1,.55.31,5,5,0,0,0,1.09,1.75.91.91,0,0,1,.11.66c-.06.45-.41.86-.18,1.34.16.31.38.59.51.91a2.37,2.37,0,0,1,.07.67l0,0c.11.12.08.17-.13.09l.13-.09s0,0,0,0a1,1,0,0,0-1,.08,1.77,1.77,0,0,1-1.68.08,6.64,6.64,0,0,0-1.27-.57c-1.84-.42-2.07-1-2.59-2.45a10.19,10.19,0,0,0-.85-1.53l-.06.09c.11.06.11.11-.07.1l.07-.1-.08,0Zm26.43-45a1.13,1.13,0,0,1-1-.1,1.59,1.59,0,0,1-.65-.83,1,1,0,0,1,.65-1.1,1.36,1.36,0,0,1,1.55.57c.13.19.23.41.36.62a.55.55,0,0,1,0,.66c-.18.27-.39.27-.9.06h0Zm9,6.79.28.14-.17.16Zm109.54-154,.26.08c0,.09.12.2.08.25s-.27.14-.38-.09C389.17,148.51,389.22,148.41,389.24,148.34ZM227.81,269.28a.94.94,0,0,1,.69.91,1,1,0,0,1,0,.34c-.05.23-.12.45-.19.67a2.85,2.85,0,0,1-.64-.19c-.21-.1-.35-.31-.55-.43a.81.81,0,0,0-.46-.14l-68.7,68.7-3.25-3.25,38.64-38.64-.23-.13a1.4,1.4,0,0,1-.44-.53,2.42,2.42,0,0,0-.84-1.09c-.49-.32-.89-.77-1.38-1.08a3.48,3.48,0,0,1-1.13-1.33c-.17-.3-.46-.54-.65-.83a1.45,1.45,0,0,1-.1-1.35c.13-.32.31-.62.44-.87a4.21,4.21,0,0,1,2.48-.5,1.73,1.73,0,0,1,1.18.72,2.64,2.64,0,0,1,.51,2c-.1.58-.24,1.16-.34,1.74a.67.67,0,0,0,.25.63,19.08,19.08,0,0,0,1.6,1.31L347.74,142.86,351,146.1Z"/><path class="cls-1" d="M213,249.59h0s.06.06.1.07S213,249.62,213,249.59Z"/></svg>