<svg id="Layer_1" data-name="Layer 1" xmlns="http://www.w3.org/2000/svg" viewBox="0 0 500 500"><title>starInactive</title><polygon points="101.7 209.27 101.18 208.21 100.31 205.6 103.18 206.71 106.83 208.72 101.7 209.27"/><path d="M164.7,333.13a1.76,1.76,0,0,1-1.71-1.77,1.82,1.82,0,0,1,1.67-2h0a1.75,1.75,0,0,1,1.61,1.17,2.11,2.11,0,0,1,0,1.37,1.85,1.85,0,0,1-1.17,1.19Zm-.19-2.61a.94.94,0,0,0-.68.52.56.56,0,0,0,0,.39,1,1,0,0,0,.94.53.84.84,0,0,0,.85-.78.91.91,0,0,0-.91-.68v1.31Z"/><polygon points="340.3 409.55 339.14 407.89 339.15 407.88 338.84 407.42 333.67 395.8 341.09 406.09 342.07 406.74 341.38 408.03 340.3 409.55"/><polygon points="197.04 296.77 197.31 292.27 201.88 294.93 197.04 296.77"/><path d="M219,317.51a3.09,3.09,0,0,1-1.32-.32,14.63,14.63,0,0,1-1.39-.8l-1.21-.75,0-.17-.17-.1.23-.8a10.73,10.73,0,0,1,.28-1.5c.55-1.91,1.65-2.73,3.81-2.84h.07l1.09.06.15.28.59.55a7.29,7.29,0,0,1,.78,1.11,3.46,3.46,0,0,1,.23,2.95,3.91,3.91,0,0,1-2.48,2.23A2.26,2.26,0,0,1,219,317.51Zm-.83-3c.21.13.43.25.65.36l.14,0a1.29,1.29,0,0,0,.77-.66.87.87,0,0,0-.1-.75,3,3,0,0,0-.25-.38l-.37,0-.12-.22c-.7.09-.76.3-.93.89,0,.09-.05.19-.07.29l.35.19Z"/><polygon points="219.28 304.81 220.86 298.48 223.38 301.99 219.28 304.81"/><polygon points="205.37 236.99 205.75 236.23 205.1 236.82 204.99 236.7 206.92 234.92 206.48 235.43 207.01 235.03 206.09 235.89 207.03 235.03 206.99 235.08 207.03 235.03 205.78 236.2 205.37 236.99"/><polygon points="222.54 303.14 220.67 302.97 220.58 302.55 219.75 301.34 221.23 300.34 222.45 300.29 223.27 301.54 222.54 303.14"/><path d="M214.66,396.76l1.8-3.73a2,2,0,0,1,2-2h0c.65,0,1.35.42,1.51,1.6a2.43,2.43,0,0,1,0,.63l-.08.69-1.68.94Z"/><path d="M187.6,263h-.43l-.37-.26a2.14,2.14,0,0,1-.72-2.33,1.93,1.93,0,0,1,.86-1.1l.31-.18h.38a1.75,1.75,0,0,1,1.4.78,2.08,2.08,0,0,1-.06,2.38A1.86,1.86,0,0,1,187.6,263Zm0-2.62a.83.83,0,0,0-.74.35.56.56,0,0,0,0,.61.87.87,0,0,0,.8.42v-.13l-.06.06,0-1.31Z"/><path d="M365.19,437.43a10.21,10.21,0,0,1-4.73-1.17l-20.11-10.57h0l-43.46-22.85h0L250,378.19l-30.36,16,.21.1-2.46,1.08-77.85,40.93a10.32,10.32,0,0,1-10.71-.77,10.1,10.1,0,0,1-4-9.95L144,313.39l.49-.31a2.22,2.22,0,0,0,.52-1.2c0-.4,0-.8,0-1.2s0-1,.06-1.54c.06-.7,0-1.41,0-2.13v-.12l0-.26.7-4.08L90.12,248.19h0L56.53,215.44a10.17,10.17,0,0,1,5.64-17.35l27.55-4h0l.36-.05,93.05-13.52.3,1.14a19.55,19.55,0,0,1,.37,7.19,23,23,0,0,0,0,5.13,2.4,2.4,0,0,0,.69,1.61,5,5,0,0,1,.35.36,3.13,3.13,0,0,1,.73-1.52,3.72,3.72,0,0,1,.7-.64,2.25,2.25,0,0,0,.23-.18,3.56,3.56,0,0,0-.46-.46,7,7,0,0,1-1.21-1.29,3.64,3.64,0,0,1-.42-3.88,1.45,1.45,0,0,0,.18-1.14,8.42,8.42,0,0,1-.32-3.78c.08-.55.13-1.11.16-1.68l.07-1.06,1.14-.17,48-97.3.69-.09c-.1,0,.1-.3.25-.5.43-.57.84-1.13,1.26-1.7a5.9,5.9,0,0,1,3.43-2.2,4.8,4.8,0,0,1,1.4-.27h0a6.68,6.68,0,0,0,3.46-1l.26-.12a31.38,31.38,0,0,0,4.19-1.77,35.92,35.92,0,0,1,4.28-1.82,8.42,8.42,0,0,0,1.48-.73c.43-.24.86-.49,1.31-.69a3.39,3.39,0,0,1,3.34.29l1.3-1.38L262.86,76a5,5,0,0,0,.25,1.11,5.07,5.07,0,0,1-.08,3.53,1.52,1.52,0,0,0,.08.85l.18.63,0,.08a2.54,2.54,0,0,1,1.63-.13l1,.09,48.37,98,74.34,10.8-1.34,1.77a16.72,16.72,0,0,1-1.49,1.71l-.39.27a6.71,6.71,0,0,0-2,1.68c-.29.31-.58.62-.88.92a2.75,2.75,0,0,1-1.81.71l-.36,0c-.37,0-.64,0-.71,0-.38.42-.77.79-1.16,1.16a3.86,3.86,0,0,1-2.81,1.21h-.29a5,5,0,0,0-.9.1l0,.13c0,.16.07.33.11.49a68.57,68.57,0,0,1,8.39-1.2,2.65,2.65,0,0,0,1-.32,5.48,5.48,0,0,1,4.75-.09c.7.29,1.4.56,2.1.82l.53.2a13.48,13.48,0,0,0,2.92-1.08,10.05,10.05,0,0,1,3-.86c.24,0,.49-.26.88-.75a1.77,1.77,0,0,0,.46-1.1,4.07,4.07,0,0,0-.62-2.18l-1.78-2.5,9.87,1.44h0l31.66,4.6a10.17,10.17,0,0,1,5.64,17.35l-47.19,46-.64-.09a1.62,1.62,0,0,1-.58.29,4.94,4.94,0,0,1-5.26-1.85,3.94,3.94,0,0,1-1.39,1.5,11.51,11.51,0,0,1-3.94,1.67,2.42,2.42,0,0,1-.18.51,5,5,0,0,1-1,1.64,4.18,4.18,0,0,0-1,2.23,2.31,2.31,0,0,1-2.47,1.71c-.65,0-1.08.06-1.5.12a1.06,1.06,0,0,0-.1.32c0,.46,0,.58.06.6a11,11,0,0,1,1.32,1.87,7.86,7.86,0,0,0,1.14,1.58,2,2,0,0,1,0,2.75,2,2,0,0,0-.27.46l-.28.4-26.05,25.39,21.1,123a10.17,10.17,0,0,1-10,11.89Zm-22.64-13.55,19.13,10.06a7.66,7.66,0,0,0,7.95-.57,7.49,7.49,0,0,0,3-7.38L351.3,301.63l26.87-26.19a4.37,4.37,0,0,1,.26-.46,12.44,12.44,0,0,1-1.14-1.66,8.84,8.84,0,0,0-1-1.44,3.38,3.38,0,0,1-.76-2.45,2.92,2.92,0,0,1,2.35-2.86c.49-.07,1-.1,1.5-.13l.36,0a6.34,6.34,0,0,1,1.69-3.19,3.26,3.26,0,0,0,.44-.82c.11-.26.23-.51.36-.75a2.48,2.48,0,0,1,1.75-1.28,8.7,8.7,0,0,0,3-1.31,1.38,1.38,0,0,0,.65-1.23,15.09,15.09,0,0,0,0-1.57c0-.35,0-.69-.05-1a6.78,6.78,0,0,1,0-.84l0-.35a2.68,2.68,0,0,1,2.56-2.55,3,3,0,0,1,2.91,1.07,3.47,3.47,0,0,1,.65,2.88,3.24,3.24,0,0,1-.84,1.55,5.55,5.55,0,0,1-.81.69c-.13.1-.26.19-.36.28a2.3,2.3,0,0,0,2.62,1.16,4.67,4.67,0,0,1,.91-.35l9.61-9.37-.08,0-.53,0a2.26,2.26,0,0,1-2.17-2,2.08,2.08,0,0,1,1.22-2.18,1.88,1.88,0,0,1,.83-.19,2.2,2.2,0,0,1,2.12,2,2.24,2.24,0,0,1-.12,1.07l28-27.31a2,2,0,0,1-1-1.2l-.1-.31a7.75,7.75,0,0,1-.24-.82,2.45,2.45,0,0,1,1.58-2.71l.49-.09.39,0h.59l.53.48a3.77,3.77,0,0,1,.83,1.65l4.37-4.27a7.55,7.55,0,0,0-3.48-12.74c0,.35-.05.69-.06,1a1.8,1.8,0,0,1-1.88,1.71l-.54-.06a1.85,1.85,0,0,1-1.41-1.23,4.32,4.32,0,0,1-.17-1.41,3.29,3.29,0,0,1,.11-.65l-25.74-3.74a1.85,1.85,0,0,1,0,.21,1.6,1.6,0,0,1-1.53,1.29,1.67,1.67,0,0,1-1.56-1.24c-.08-.24-.15-.5-.22-.75l-3.92-.57a9.42,9.42,0,0,1,.13,1.15,4.27,4.27,0,0,1-1,2.89,4,4,0,0,1-2.54,1.73,7.44,7.44,0,0,0-2.21.62,15.25,15.25,0,0,1-4,1.37l-.36.07-1.22-.46c-.72-.27-1.46-.55-2.18-.85a2.83,2.83,0,0,0-2.57,0,5.33,5.33,0,0,1-2.1.6,51.33,51.33,0,0,0-7.81,1.21,2.76,2.76,0,0,1-3.22-1.91c-.07-.26-.11-.47-.16-.69l-.1-.44a2.18,2.18,0,0,1,.27-1.71,2.37,2.37,0,0,1,1.59-1,9,9,0,0,1,1.68-.21h.29a1.18,1.18,0,0,0,.89-.39c.45-.43.79-.74,1.11-1.1a2.84,2.84,0,0,1,2.24-1c.21,0,.42,0,.63,0a3.24,3.24,0,0,0,.93-.77,11.53,11.53,0,0,1,1.91-1.76l-70.85-10.29L264.39,84.86a1.87,1.87,0,0,1-.5.51,1.85,1.85,0,0,1-1.09.38,1.7,1.7,0,0,1-1.66-1.54c-.1-.48-.24-.92-.37-1.36l-.2-.67a4,4,0,0,1,0-2.37,2.54,2.54,0,0,0,.13-1.76,7,7,0,0,1-.38-1.5l-.83-1.68a2.78,2.78,0,0,1-1-.09,3.08,3.08,0,0,1-.9-.38.73.73,0,0,0-.77-.06c-.37.17-.73.37-1.08.58a10.48,10.48,0,0,1-2,.94,33.7,33.7,0,0,0-4,1.7,35.29,35.29,0,0,1-4.4,1.86,9,9,0,0,1-4.52,1.3c-.19-.12-.49.07-.7.13A3.52,3.52,0,0,0,238,82.06c-.46.63-.88,1.21-1.33,1.79a4.52,4.52,0,0,1-1.21,1.24l-30.42,61.64a4.62,4.62,0,0,0,0,.77,4.14,4.14,0,0,1-.44,2.64,1.78,1.78,0,0,1-1.5.8l-.15,0-15.61,31.62-.42.06c0,.27-.06.55-.1.82a5.81,5.81,0,0,0,.23,2.64,4.06,4.06,0,0,1-.36,3.09c-.12.23-.2.54.26,1.22a4.9,4.9,0,0,0,.78.8c.2.18.4.36.58.54a2.52,2.52,0,0,1,0,3.75,4.8,4.8,0,0,1-.49.41,2.44,2.44,0,0,0-.23.19,1.1,1.1,0,0,0-.18.27,6.62,6.62,0,0,0,0,1.74,9.56,9.56,0,0,0,.34,1.17,7.56,7.56,0,0,1,.54,2.82,29.62,29.62,0,0,0,0,3.13,7,7,0,0,0,.28,1.78,12.48,12.48,0,0,1,.5,6c-.15,1.07-.27,2.12-.38,3.2a3.48,3.48,0,0,0,0,.51,11.77,11.77,0,0,1,.52,5.54c0,.46-.06.92-.08,1.38l0,.33a39.59,39.59,0,0,1,.22,6.1c0,1.49,0,2.89.06,4.3.15,2,.25,4,.34,6,.12,2.5.23,5,.47,7.5l.06.53a9.87,9.87,0,0,1,.09,1.86,35.09,35.09,0,0,0,0,5.25,2.76,2.76,0,0,1,.4-.57,1.57,1.57,0,0,1,1.22-.5l.33,0,.32.12a2.31,2.31,0,0,1,1.47,1.5,2.38,2.38,0,0,1-.47,2.12,2.08,2.08,0,0,1-1.67.9l-.7-.13a1.71,1.71,0,0,1-.75-.6c.06,1.5.07,3,.07,4.49,0,.87,0,1.73,0,2.59,0,1.27.06,2.52.09,3.78v.35a9.44,9.44,0,0,1,.32,3.57c0,.49,0,1,0,1.46a13.5,13.5,0,0,1-.27,3.58,13,13,0,0,0-.05,3.52l0,.46c0,.69.24.94.94,1.15a1.68,1.68,0,0,1,1.21,1.34,1.86,1.86,0,0,1-.88,1.8,3.88,3.88,0,0,1-.7.35,3.68,3.68,0,0,0-.36.22c-.09,1-.17,2-.22,3a2,2,0,0,1,1.07-.61l.29,0a1.79,1.79,0,0,1,1.6,1.38c.12.48.2,1,.26,1.35l0,.26-.15.76-.1.43.07-.09a7.57,7.57,0,0,1,.94-.91,15.06,15.06,0,0,1-.26-4.29,3.13,3.13,0,0,1,3.14-2.78h.05c.28,0,.57,0,.85.06l.32,0a2.23,2.23,0,0,1,1,.17,3.28,3.28,0,0,1,1.79,1.7c0-.64,0-1.31.07-2a16.74,16.74,0,0,0-.05-1.91,12.6,12.6,0,0,1,.14-3.72,3.56,3.56,0,0,0-.12-1.16l-.09-.48a7.43,7.43,0,0,1,.26-3.89,6.5,6.5,0,0,0,.3-2.69,38.26,38.26,0,0,1-.06-5.62,11.21,11.21,0,0,0-.27-3.87,15.59,15.59,0,0,1-.38-4.7c0-.64.06-1.28.1-1.93s.11-1.58.11-2.36v-1.33a23.11,23.11,0,0,0-.37-5.42,15,15,0,0,1,.12-5.92,2.88,2.88,0,0,1,1.73-2.18A2.15,2.15,0,0,1,204,238l.27-1a3.07,3.07,0,0,1-1.14-1.19,7.92,7.92,0,0,1-1-3.68,12.14,12.14,0,0,1,.14-2.4l.07-.53a3.18,3.18,0,0,0-.07-.76,4.16,4.16,0,0,1,.08-2.17,2.12,2.12,0,0,1,.42-.69l.95-1.13,1.13.93a4.3,4.3,0,0,1,.48.54,2.18,2.18,0,0,1,.42,1.29,21.48,21.48,0,0,0,.08,3c.05.76.11,1.53.11,2.29a3.11,3.11,0,0,0,.6,1.84l3.21-.49-1.93,1.93,0,.05-2.35,2.75a2.3,2.3,0,0,1,.33.49,2.25,2.25,0,0,1,.35,1,12.78,12.78,0,0,0,1.35,5.19,3.32,3.32,0,0,1-.27,2.83,45.48,45.48,0,0,1-.15,6.37,11.62,11.62,0,0,0,0,2.08c0,.32,0,.64.06,1a13.37,13.37,0,0,1-.85,5.89,3,3,0,0,0,0,2.61,9.84,9.84,0,0,1,.7,4.92,8.23,8.23,0,0,0,.25,3.25,10.35,10.35,0,0,1,.5,3.68c-.09,2,0,4.06.14,6,.09,1.69.19,3.44.17,5.18a10.53,10.53,0,0,1,.07,2.79,8.93,8.93,0,0,0,0,2,18.38,18.38,0,0,1,.08,3.91v0a4.32,4.32,0,0,1,1.73-1l.54-.08a1.9,1.9,0,0,1,1.9,1.52,3.48,3.48,0,0,1-1.83,4,2.23,2.23,0,0,1-2.29,0l-.07,0c0,.66.11,1.35.21,2a36.08,36.08,0,0,1,.31,4.33l0,1.23a5.28,5.28,0,0,1-.29,2.14,6.08,6.08,0,0,0-.19,3.54,8.66,8.66,0,0,1,.12,1.15,4.86,4.86,0,0,0,.1.91,12.91,12.91,0,0,1-.15,7.72,2.92,2.92,0,0,0-.07.79v.45c0,.15,0,.33,0,.51a6.8,6.8,0,0,1,0,1.23,8.77,8.77,0,0,0,.31,4.64,4,4,0,0,1-.24,2.55,8.52,8.52,0,0,1-.86,1.52,3.8,3.8,0,0,0-.74,1.51,1.87,1.87,0,0,1-1.81,1.71l-.57-.1a1.9,1.9,0,0,1-1.11-1.56,10.77,10.77,0,0,1,.08-3.71,3.53,3.53,0,0,0,0-1.91l-.06-.33c0-.3,0-.59,0-.89a5.26,5.26,0,0,0-.35-2.34,4.92,4.92,0,0,1-.46-2.19,39.06,39.06,0,0,0-.44-5.24,9.31,9.31,0,0,1,.05-2.5,7.81,7.81,0,0,0,0-2.22l-.24.41a5.59,5.59,0,0,0-.77,1.69,4.26,4.26,0,0,1-.19.59,12.52,12.52,0,0,1-.28,4.26,16.47,16.47,0,0,0-.28,1.91,4,4,0,0,1-.42,1.55,2.23,2.23,0,0,1-2,1.2,2,2,0,0,1-1.5-.6,1.88,1.88,0,0,1-.49-1.39,18.69,18.69,0,0,0-.14-2.55,18.14,18.14,0,0,1-.12-3.45,10.48,10.48,0,0,0-.16-2.21l-.1-.76c-.06-.45-.13-.9-.21-1.36-.1-.63-.21-1.25-.27-1.88s-.07-1.33-.07-1.92v-.53a7.81,7.81,0,0,1,.06-3.55l.06-.29a13.7,13.7,0,0,1,.54-1.89l.12-.36a4.41,4.41,0,0,0,0-2.88,2.78,2.78,0,0,1,.62-2.9,26,26,0,0,1-2-2.5l-.5-.68a3,3,0,0,1-.46-2.32,1.61,1.61,0,0,1-.47.38l-.29.16-.44,0a1.62,1.62,0,0,1-1.31-.72c0,.27,0,.55,0,.83l0,1.51c0,.74,0,1.48-.1,2.21s-.11,1.44-.09,2.13a2.42,2.42,0,0,1,1.55-.68,1.93,1.93,0,0,1,1.61.9,5,5,0,0,1,.9,2,2.81,2.81,0,0,1-.6,2.31,2.68,2.68,0,0,1-2.06,1l-.28,0a4.77,4.77,0,0,1-.8-.16l-.08,0-.07.05,0,.16a1.65,1.65,0,0,0-.07.29,26.62,26.62,0,0,1-.41,6.18l-.16,1.13a55,55,0,0,0-.62,7.41,2.83,2.83,0,0,1-.19,1,2.11,2.11,0,0,1-1,1.2l1.08,1.8-.41,1.49-.81.37a1.91,1.91,0,0,1-.48.07h-.63l-.6-.59a1.77,1.77,0,0,1-.29-1.56l.13-.56,1.22-.84h-.29l-.49-.24a1.81,1.81,0,0,1-1-1.33,141.19,141.19,0,0,1-1-18.06c0-.73.05-1.45.1-2.17l.07-1.16c0-.18,0-.37,0-.56a3.55,3.55,0,0,0,0-.79,17.22,17.22,0,0,1-.15-5.07l0-1.37c.06-1.61.11-2.87.13-4.11a16.18,16.18,0,0,0-.1-2.5,23.89,23.89,0,0,1-.16-5.16,54.19,54.19,0,0,0,0-5.77c0-1.32-.09-2.63-.08-4s-.43-1.66-1.26-1.8a2,2,0,0,1-1.32-.85,2.56,2.56,0,0,1-.4-1.94,1.83,1.83,0,0,1,.82-1.38c.52-.38,1.15-.77,1.79-1.16,0,0,.07-.2.08-.34s0-.21,0-.31a1.43,1.43,0,0,1-.76.47l-.5.06a2,2,0,0,1-1.85-1.36,2,2,0,0,1,1.85-2.71h.38l.52.25,0,0a8.72,8.72,0,0,1,0-1.36,18,18,0,0,0-.1-3.24c0-.48-.08-1-.11-1.45-.06-1.13-.09-2.26-.1-3.38h0l-.47,0a1.55,1.55,0,0,1-1.22-.58,1.81,1.81,0,0,1-.29-1.59,1.71,1.71,0,0,1,.69-1l1.25-1.23,0,0c0-.48-.08-1-.15-1.45l0-.16-.22-.05a2.28,2.28,0,0,1-1.73-1.46,6.38,6.38,0,0,1-.14-3c.14-1.1.48-2.23,2.21-2.23h0a4.5,4.5,0,0,0,.06-1.35c-.08-.87-.19-1.75-.3-2.62a40.36,40.36,0,0,1-.43-5.07,37.7,37.7,0,0,1,.37-4.6c.13-1,.25-2,.31-3.05a21.08,21.08,0,0,0-.07-2.85c0-.44-.06-.87-.08-1.31,0,0-.1,0-.28-.14a3.26,3.26,0,0,1-1.82-2.75,2.75,2.75,0,0,1,1-2.67,1.68,1.68,0,0,1,.41-.22,2.33,2.33,0,0,1-1-1.93l0-.4a4.59,4.59,0,0,1,.07-1.61,5.21,5.21,0,0,0,0-3,6.64,6.64,0,0,1-.21-1.36l0-.45c-.17-1.6,1.23-2.08,1.9-2.31h0l-.1-2a2.12,2.12,0,0,0-.7-1.51,5,5,0,0,1-1.51-3.22,25.57,25.57,0,0,1,0-5.71,18.55,18.55,0,0,0-.05-5.1l-21,3a3.65,3.65,0,0,1-.76.87,1.75,1.75,0,0,1-1.1.39l-.63.12-.49-.43a2.11,2.11,0,0,1-.49-.44l-65.18,9.47c0,.08,0,.17,0,.25a3.33,3.33,0,0,0,.3,1.89,4.06,4.06,0,0,1,.34,3.07,22.74,22.74,0,0,0-.84,5,1.93,1.93,0,0,1-1.93,1.85,1.69,1.69,0,0,1-1.52-1.74c0-.79-.09-1.59-.15-2.39a47.47,47.47,0,0,1-.18-5.29,13.09,13.09,0,0,0-.12-2v-.11l-5.63.82a18.19,18.19,0,0,1-.15,2.21,4.49,4.49,0,0,0,.67,3.22,3.41,3.41,0,0,1,.14,3.35c-.14.32-.3.63-.46.94s-.33.65-.48,1a1.8,1.8,0,0,1-1.67,1.23,2,2,0,0,1-1-.29,2.38,2.38,0,0,1-1.26-1.72,8,8,0,0,1-.16-1.92,11.38,11.38,0,0,1,.23-1.36c.06-.28.12-.55.15-.83.06-.45,0-.61-.05-.7a7.81,7.81,0,0,1-1.06-4.34v0l-8.74,1.27a4.19,4.19,0,0,1,.37,1A2.58,2.58,0,0,1,65.92,204l-.42.05-2.37-.22A3.11,3.11,0,0,1,61,202.36a2.63,2.63,0,0,1-.44-1.1,7.5,7.5,0,0,0-4.07,4.48,1.89,1.89,0,0,1,.69-.13l.43,0a2.86,2.86,0,0,1,2.07,2,2,2,0,0,1,0,1.37,2,2,0,0,1-1.84,1.24l-.47-.05a2.93,2.93,0,0,1-1.1-.49,7.52,7.52,0,0,0,2.12,3.82L86.55,241c.05-.79.17-1.57.28-2.34l.11-.38a11.14,11.14,0,0,0,.73-4.29c0-1.06,0-2.14,0-3.21v-1.09c0-2.72,0-5,.14-7.15a17.06,17.06,0,0,0-.1-2.51l-.3,0-1-.22-.74-1.37a17.49,17.49,0,0,1-.81-1.81,7.41,7.41,0,0,1-.26-4.52,3.9,3.9,0,0,1,.77-1.45,2.76,2.76,0,0,1,2.77-1,.9.9,0,0,0,.41-.13,2.32,2.32,0,0,1,3.26,1.36l.12.4a6.33,6.33,0,0,1,.32,1.39,11.18,11.18,0,0,0,.71,3.31,2.87,2.87,0,0,1-.32,2.78.84.84,0,0,0-.13.31l0,1a20.07,20.07,0,0,0,.42,6.18,3.3,3.3,0,0,1,0,1.75,10.85,10.85,0,0,0-.28,3.4l.07,1.82c0,1.06.08,2.14.1,3.22l.17-.17.44-.4.59.06a2.17,2.17,0,0,1,1,.19,2,2,0,0,1,1,2.54A2,2,0,0,1,94,239.93l-.54-.07a1.64,1.64,0,0,1-.78-.47c0,.46,0,.92-.07,1.38a5.45,5.45,0,0,0,1,3.74,2.62,2.62,0,0,1,.09,2.87,3.12,3.12,0,0,1-.23.42l1.82,1.77a1.52,1.52,0,0,1-.12-.49,1.65,1.65,0,0,1,1-1.57l.29-.16.44,0a1.78,1.78,0,0,1,1.31.57,1.6,1.6,0,0,1,.36,1.2l.06.94-.87.37a1.72,1.72,0,0,1-.84.24l-.55-.11-.1,0,12.1,11.79a3.21,3.21,0,0,1,1.21-1.36,1.87,1.87,0,0,1,2.59.69,1.43,1.43,0,0,1,1.26-.76c.36,0,1.23.15,1.51,1.49l.12.56-1.91,2.55-.66-1.3a4.27,4.27,0,0,1-.05.43,1.86,1.86,0,0,1-.63,1l30.95,30.16c0-.8,0-1.55,0-2.26a5.76,5.76,0,0,1,.27-1.74c.24-.88.13-1.21,0-1.4a7.8,7.8,0,0,1-.79-3.79,67.1,67.1,0,0,0-.26-8,12.27,12.27,0,0,1,0-1.93c0-.31,0-.62,0-.93v-1.23a39.78,39.78,0,0,0-.34-6.7,15.33,15.33,0,0,1,.1-4.45l.09-.77a2.06,2.06,0,0,1,2-1.82,2.1,2.1,0,0,1,2,1.64,3.23,3.23,0,0,1,.19.61,23.34,23.34,0,0,1,.55,5.1A40.11,40.11,0,0,0,147,275a12.72,12.72,0,0,1-.12,4.82,6.33,6.33,0,0,0-.12,1.34,7.57,7.57,0,0,0,.86,4,3.4,3.4,0,0,1-.26,4,2.91,2.91,0,0,0-.22.31,3.28,3.28,0,0,0-.45,2.23,21.09,21.09,0,0,1,.35,5.74,19.65,19.65,0,0,0,.09,2.71l1.55,1.5-.93,5.45a17.67,17.67,0,0,1,0,2.3c0,.44,0,.87,0,1.3s0,.95,0,1.42a4.93,4.93,0,0,1-1.1,2.66l-.13.14L127.37,426a7.5,7.5,0,0,0,3,7.38,7.68,7.68,0,0,0,7.95.57l.72-.38c0-.07,0-.14,0-.21a1.74,1.74,0,0,1,1.68-1.49,1.81,1.81,0,0,1,1,.28l10.64-5.6a1.76,1.76,0,0,1-.17-.41c-.09-.34-.16-.67-.23-1a6.26,6.26,0,0,0-.74-2.18,3.52,3.52,0,0,1-.22-3.27c.2-.53.41-1.06.62-1.59s.39-1,.57-1.43a2.09,2.09,0,0,1,3.49-.37,3.8,3.8,0,0,1,.9,2.22,10.51,10.51,0,0,1,0,1.34l0,.66a19,19,0,0,1-.49,4.11l58.71-30.87a5,5,0,0,1,.05-5.36,2.19,2.19,0,0,1,2-1.07c.31,0,.65,0,.88-1.06a4.59,4.59,0,0,0,.17-1.67,8.66,8.66,0,0,0-.3-1.38,7,7,0,0,1-.19-3.3c.08-.49.18-1,.28-1.45s.17-.81.24-1.22a8.69,8.69,0,0,0,.08-2.81q-.16-1.1-.27-2.23a2.78,2.78,0,0,1-.29.58,2.6,2.6,0,0,1-1.06.85l-.35.22-.6.08a1.92,1.92,0,0,1-1.89-1.91,8.05,8.05,0,0,1,.2-1.89,2,2,0,0,1,2-1.55h.11a1.94,1.94,0,0,1,1.66,1.1q-.07-1.8,0-3.62a16.18,16.18,0,0,0-.16-2.49,14,14,0,0,1-.13-3.51l-1.73.51H215l-.42-.31a1.51,1.51,0,0,1,1-2.73l1.13.06.52,2q.07-.39.18-.78a7.23,7.23,0,0,0,.12-2v-.27c0-.95-.06-1.89-.1-2.83s-.09-2.09-.11-3.14v-.27s0-.06,0-.09a5.61,5.61,0,0,1-1.08,2.09l-.12.12.85,3-4.4-.73,1.32-1.9a2.73,2.73,0,0,1-.38-.26,3.71,3.71,0,0,1-1.32-2,8.26,8.26,0,0,1-.27-2.56,13,13,0,0,1,.68-3.55c.06-.17.13-.37-.52-.92l-.35-.28a7.36,7.36,0,0,1-1-.91,3,3,0,0,1-.79-2.59l.05-.29a6.06,6.06,0,0,0,.09-2.85,7.79,7.79,0,0,1-.21-2.45c.1-3.3,0-6.52-.2-9.82a9.11,9.11,0,0,1,0-1.24l0-.52a2.08,2.08,0,0,1,2-2.1,1.82,1.82,0,0,1,1.22.48c.24.21.5.26,1.17.29a3,3,0,0,1,3.07,2.61,3.43,3.43,0,0,1,.16.65c0,.37.07.74.09,1l0,.89c0,.1,0,.19,0,.28a2.29,2.29,0,0,1,.06-.23,2,2,0,0,1,1.86-1.41l.64.14a2,2,0,0,1,1.09,2.46,1.89,1.89,0,0,1-1.79,1.45l-.55-.09a2,2,0,0,1-1.17-1,1.81,1.81,0,0,1-.16-.47,3,3,0,0,1-2.64,2.41l-.29,0v0a9.09,9.09,0,0,0,0,1.32,1.12,1.12,0,0,0,.49,1,1.48,1.48,0,0,0,.24.14,3.74,3.74,0,0,1,.72.47,5.41,5.41,0,0,1,1.82,4.41,3.75,3.75,0,0,1-.4,1.63,4.58,4.58,0,0,0-.27,2.93c.13.9.31,1.77.49,2.65.11.53.22,1.05.31,1.58,0,.06,0,.13,0,.19a1.34,1.34,0,0,1,1.18-.7l.3,0a3.33,3.33,0,0,1,1.53.65,3.07,3.07,0,0,1,.81,1.2,1.83,1.83,0,0,1,1.73-1.27l.59.11a2,2,0,0,1,1.21,1.16l.11.31a3.59,3.59,0,0,1,.3,1.79,6.38,6.38,0,0,0,.71,3.88,3.79,3.79,0,0,1,.3,1.51,3.65,3.65,0,0,1-1.29,2.91,1.7,1.7,0,0,1-1,.42,1.73,1.73,0,0,1-1.49-.17,11.94,11.94,0,0,0-.65,3.27c0,.36,0,.72-.06,1.09a2.25,2.25,0,0,1,.14-.44l.52-1.27,1.23.42h0l.6.21.46.73a2.07,2.07,0,0,1,.1.84l0,.57-.69.68-1.45,1.13-.71-1.65a2.24,2.24,0,0,1-.2-.68c-.15,3.44-.17,7.14,0,11.28l.1,3q0,1.21.08,2.42a2.28,2.28,0,0,1,3.1-.6,4.76,4.76,0,0,1,1.86,3,17.67,17.67,0,0,1,.15,2.32l0,.77a11.09,11.09,0,0,0-.05,1.17c0,.28,0,.57,0,.87L250,375.23l4.19,2.2a5,5,0,0,1,.24-2.05c.14-.39.28-.79.42-1.18s.33-.9.48-1.36a3,3,0,0,0,.11-.58,4,4,0,0,1,.62-1.83,1.71,1.71,0,0,1,.59-.55,2.07,2.07,0,0,1-1.91-1.66,7,7,0,0,0-1-3,3,3,0,0,1-.49-1.77,4.29,4.29,0,0,1,.21-1.53,18.89,18.89,0,0,0,.8-7.49,18.06,18.06,0,0,1,.41-5.79,2.17,2.17,0,0,1,1.82-1.68l.31,0a2.34,2.34,0,0,1,2.3,2.19l.06.62,0,.18a6.63,6.63,0,0,0-.07,3.11l.08.25,0,.26a50.56,50.56,0,0,0,0,6.72c.08,1.67.17,3.4.13,5.12a7.11,7.11,0,0,1-.53,3.2,2.24,2.24,0,0,1-1,1.08,1.92,1.92,0,0,1,1.21.58,3.39,3.39,0,0,1,.91,1.37c.18.65.32,1.29.45,1.94l.17.78c0,.17.17.34.49.62a3.62,3.62,0,0,0,1.36.79c.23.07.47.11.71.16s.55.11.83.18a2.86,2.86,0,0,1,2.1,3.64,2.07,2.07,0,0,1-1.95,1.59l-.29,0c-.38-.07-.75-.17-1.11-.27a7.85,7.85,0,0,0-1-.23,1,1,0,0,0-.59.13L261,381l8.45,4.44c0-.14,0-.26,0-.37a4.33,4.33,0,0,0,0-.71,32.11,32.11,0,0,1-.79-9.13c0-.82,0-1.63,0-2.45a8.14,8.14,0,0,1,.1-1.17c0-.18.06-.37.07-.56a1.87,1.87,0,0,1,1.9-1.8l.32,0a2.21,2.21,0,0,1,1.87,1.43,9.11,9.11,0,0,1,.42,2.2,5.6,5.6,0,0,0,.39,1.85,4.52,4.52,0,0,1,.08,3.65,9.82,9.82,0,0,0-.38,2.21l-.07.66a3,3,0,0,0,.13,1.48,8.15,8.15,0,0,1,.18,4.94l24.14,12.69.08-.12.21-.28-.27-.11a2,2,0,0,1-1.06-1.18,1.88,1.88,0,0,1,.18-1.47,2.12,2.12,0,0,1,1-.94,1.78,1.78,0,0,1,2.57,1.34,2.86,2.86,0,0,1,.06.61v.34l-.15.46a2,2,0,0,1-.82.86,2.31,2.31,0,0,1,.59.34,2.8,2.8,0,0,1,1.1,2l35.38,18.6a4,4,0,0,0-.38-.43c-2-2-1.14-4.46-.82-5.4a5,5,0,0,1,1.06-1.9,3.5,3.5,0,0,0,.91-3c0-.11,0-.23,0-.36l-.22,0-.44-.07a1.76,1.76,0,0,1-1.27-1.49c-.07-.69-.11-1.43-.14-2.18a2,2,0,0,1,.53-1.52,2,2,0,0,1,2.42-.25,4.87,4.87,0,0,0,.59.28l2.87-1.26-.86,2.14.11.07,2.61-1.15-1.85,3.12.11.52-.27.12c.09.19.18.37.28.55a8.61,8.61,0,0,1,.9,2.3,29.05,29.05,0,0,1,.4,5.07,49.82,49.82,0,0,1-.27,5.56A12.76,12.76,0,0,1,342.55,423.88ZM340.14,411a6,6,0,0,1-1.63,3.86,2.61,2.61,0,0,0-.48.93c-.53,1.58-.32,2.21.18,2.71a6.15,6.15,0,0,1,1.84,4.25l0,.19a10.9,10.9,0,0,0,.28-1.65,46.9,46.9,0,0,0,.26-5.26,26.63,26.63,0,0,0-.36-4.61A2.79,2.79,0,0,0,340.14,411Zm-186.2,8.35c-.17.41-.33.82-.48,1.23a1.13,1.13,0,0,0-.07.89,6.13,6.13,0,0,1,.38.66,10.21,10.21,0,0,0,.1-1.66l0-.82ZM298.19,398.5a1.26,1.26,0,0,0,.79.23.69.69,0,0,0,.34-.24.81.81,0,0,0-.25-.95c-.58,0-.84.15-.91.29l.54.28-.7.07a.67.67,0,0,0,.15.28l.73-.26.44.23ZM216.92,390a2.51,2.51,0,0,0,.59,3.16l2,1,0-2a9.72,9.72,0,0,1,0-1.21c.08-.87.15-1.75.19-2.63A3.25,3.25,0,0,1,216.92,390Zm5.48-6c0,2,0,3.93-.18,5.89l1.42-.75a1.89,1.89,0,0,1-.18-.24,5.82,5.82,0,0,1-.64-2.72,5.62,5.62,0,0,0-.15-1.21Zm35.32-10c-.13.37-.27.75-.4,1.12l-.4,1.13a2.52,2.52,0,0,0,0,1.41c.12.5.22,1,.32,1.51l.59,2.89.09-.68a3.64,3.64,0,0,1,1.7-2.57,3.45,3.45,0,0,1,1.71-.6,6.39,6.39,0,0,1-2-1.25,3.83,3.83,0,0,1-1.31-2l-.17-.82Zm13.62,1.71c0,.69,0,1.38,0,2.06l.07-.22a1.92,1.92,0,0,0,0-1.61Zm-14.77-15.2a20.48,20.48,0,0,1-.59,2.27,1.73,1.73,0,0,0-.08.6,2.72,2.72,0,0,0,0,.43,5.42,5.42,0,0,1,.76,1.39C256.72,363.48,256.64,362,256.57,360.48Zm-41-1v.67a1.1,1.1,0,0,0,.87-.74,1.11,1.11,0,0,0-.22-1.16l-.54.61,0,.08h0l.06.21-.13,0Zm4.56-3.46c0,.12,0,.24,0,.35v.26c0,.41,0,.84,0,1.28.08-.29.17-.57.28-.87a2.06,2.06,0,0,0,.1-.33s-.22-.38-.33-.57Zm-5.08-10.84a10.26,10.26,0,0,0-.54,2.82,5.49,5.49,0,0,0,.17,1.64c.06-.17.12-.35.18-.54s.15-.47.24-.7a3.6,3.6,0,0,0,.21-2Q215.21,345.84,215.08,345.22Zm-2.56-11.86c0,.22,0,.43,0,.65a6.27,6.27,0,0,0,.09,1.75,8.36,8.36,0,0,1,0,4.07l-.05.28a.48.48,0,0,0,.15.37,5,5,0,0,0,.68.6l.42.34a5.35,5.35,0,0,1,.74.74v0a7.25,7.25,0,0,1,.53-4.5,1.14,1.14,0,0,0,.11-.46,2.85,2.85,0,0,0-.9-2.39,1.58,1.58,0,0,0-.24-.14,4,4,0,0,1-1.48-1.29Zm-7.89-59.05a7.64,7.64,0,0,1-.24.79,4.83,4.83,0,0,0-.14,2.54l.08.41a5.29,5.29,0,0,1,.1,2.25,10.42,10.42,0,0,0-.08,3,19.78,19.78,0,0,1,.06,2.22,42.21,42.21,0,0,0,0,5.8,62.66,62.66,0,0,1,.05,7.32l0,1c0,.39,0,.79-.07,1.18a9.66,9.66,0,0,0,0,2.34,9.94,9.94,0,0,1,0,2.41,7.47,7.47,0,0,0,0,1.89,7.09,7.09,0,0,1,0,2.67,19.18,19.18,0,0,0,.16,6.56,10.5,10.5,0,0,1,.05,3.08,6.87,6.87,0,0,0-.05,1.81,41.05,41.05,0,0,1,.47,5.6,2.31,2.31,0,0,0,.18,1,5.17,5.17,0,0,1,.3.72c0-.28.07-.6.12-1a4.08,4.08,0,0,0,0-.76c0-.24,0-.48,0-.72V326a4.83,4.83,0,0,1,.21-1.63,10.2,10.2,0,0,0,.1-6.17,6.9,6.9,0,0,1-.19-1.47,6,6,0,0,0-.07-.8,8.66,8.66,0,0,1,.33-5,3.19,3.19,0,0,0,.1-1.07l0-1.24a33.68,33.68,0,0,0-.28-4,31.57,31.57,0,0,1-.27-5.66c0-.43,0-.86.06-1.29a16.15,16.15,0,0,0,0-3.36,10.92,10.92,0,0,1,0-2.59,7.9,7.9,0,0,0,0-2.2l0-.15v-.16c0-1.7-.07-3.45-.16-5.14-.11-2.05-.23-4.18-.14-6.3a7.76,7.76,0,0,0-.37-2.75C204.75,274.78,204.69,274.54,204.63,274.31Zm7.68,49.2a4.36,4.36,0,0,0,0,.61c.07,1.33.13,2.65.17,4a2.07,2.07,0,0,1,.31-.32,2.67,2.67,0,0,1,1.53-.48.82.82,0,0,0,.57-.25,2.17,2.17,0,0,1,0-.72l0-.69c0-.24,0-.57-.08-.91l-.1-.32c-.13-.58-.21-.59-.62-.61A5.45,5.45,0,0,1,212.31,323.51Zm7.06,2.9c-.52,0-.74.26-.77.39a.65.65,0,0,0,.27.64Zm-21.06-5.87c0,.14,0,.29,0,.44a9.9,9.9,0,0,0,0,1.38A6.65,6.65,0,0,0,198.32,320.54Zm-1-10.24a3.66,3.66,0,0,0,.12,1.27l0,.32v.74c0,.51,0,1.08.05,1.66s.15,1.14.25,1.71.16,1,.23,1.47l.1.72c.06.44.12.88.16,1.34a3.62,3.62,0,0,1,.2-.63,8.68,8.68,0,0,1,1.15-2.67c.14-.24.29-.49.42-.74-.08.09-.16,0-.23-.15a4.42,4.42,0,0,1-.67-1.42,6.47,6.47,0,0,0-1.5-3.22A2.81,2.81,0,0,1,197.32,310.3Zm-12.77-42.62c1.26.42,2.75,1.49,2.72,4.24,0,1.27,0,2.55.08,3.83a57.27,57.27,0,0,1,0,6,21.16,21.16,0,0,0,.14,4.6,18.49,18.49,0,0,1,.13,2.93c0,1.27-.07,2.54-.13,4.17l-.06,1.53a15.06,15.06,0,0,0,.13,4.38,5.5,5.5,0,0,1,0,1.47l-.11,1.63c0,.67-.09,1.34-.09,2,0,3.43.05,6.18.25,9.18l.12-.84a24.37,24.37,0,0,0,.39-5.6,3.29,3.29,0,0,1,.15-1.17,2.93,2.93,0,0,1,1.39-1.83,2.14,2.14,0,0,1-1.51-1.7,16.41,16.41,0,0,1,0-3.64c0-.66.1-1.32.09-2l0-1.49c0-1.33-.06-2.66,0-4,0-1.51.13-3.14.31-5a2.41,2.41,0,0,1,1-1.58,3.66,3.66,0,0,1-1.18-2.63l0-.44a15.16,15.16,0,0,1,.1-4.25,10.9,10.9,0,0,0,.22-2.9c0-.57,0-1.14,0-1.72a6.69,6.69,0,0,0-.23-2.73l-.09-.44,0-.56c0-1.27-.07-2.54-.09-3.81,0-.87,0-1.75,0-2.62,0-1.65,0-3.3-.1-5l-.09-1.55a41.44,41.44,0,0,1-.07-6.24,7.38,7.38,0,0,0-.08-1.34l-.06-.58c-.23-2.54-.35-5.08-.47-7.62-.09-2-.19-4-.34-6-.11-1.52-.09-3.05-.07-4.53a35.71,35.71,0,0,0-.21-5.7,2.37,2.37,0,0,1,0-.68c0-.59.06-1.08.09-1.58a9.72,9.72,0,0,0-.35-4.43,3.17,3.17,0,0,1-.13-1.65c.06-.62.13-1.22.2-1.8a2.56,2.56,0,0,1-1.57.51,3.62,3.62,0,0,1-.52-.05l-.24,0s0,.09,0,.14a.67.67,0,0,0,.41.65,2.76,2.76,0,0,1,1.7,2.31c0,.43,0,.86.08,1.29a23.69,23.69,0,0,1,.07,3.2c-.07,1.06-.2,2.13-.33,3.2a35.09,35.09,0,0,0-.35,4.28,37.64,37.64,0,0,0,.41,4.74c.11.91.23,1.81.31,2.72a6.17,6.17,0,0,1-.53,3.36,1.7,1.7,0,0,1-1.59.87h-.17a4.76,4.76,0,0,0,0,1.56c1,.25,1.93.54,2.09,1.9l.06.5a16.93,16.93,0,0,1,.17,1.76c0,1,0,1.92,0,2.88,0,1.57,0,3.13.1,4.7,0,.45.07.91.11,1.37a20.18,20.18,0,0,1,.09,3.71,10.26,10.26,0,0,0,.13,2.23,12.86,12.86,0,0,1,.16,2.62,2.85,2.85,0,0,1-1.33,2.41Zm14.92,41.11.06.08a9.08,9.08,0,0,1,2.18,4.44v0a16.65,16.65,0,0,1,.25-3.78,4.43,4.43,0,0,0,0-1.63l0,0a2.08,2.08,0,0,1-1.76.92l-.52-.06Zm.19-4.89.47.38.44.31a10,10,0,0,1,.94.69,2.12,2.12,0,0,1,.32.33l0-.28a7.9,7.9,0,0,0,0-1.79,11.69,11.69,0,0,1,0-3c0-.35.05-.71.06-1.07l0-1c.05-1.59.1-3.12.07-4.64l-.24.43a2.1,2.1,0,0,0-.34,1.28c.08,1,.14,2,.19,3,0,.64.06,1.27.1,1.91C201.79,302.55,201.39,303.06,199.66,303.91Zm-1.93-17.2V288a.51.51,0,0,0-.53.39,9.53,9.53,0,0,0,.26,3.3,2.63,2.63,0,0,1-.93,2.78,4.75,4.75,0,0,0-.61.59.64.64,0,0,0,0,.42l.49.66a17.94,17.94,0,0,0,2.37,2.82,2,2,0,0,1,.21.23c0-.17,0-.33,0-.5,0-1-.1-1.93-.18-2.89a4.71,4.71,0,0,1,.66-2.8,3.37,3.37,0,0,0,.43-.92,9.57,9.57,0,0,0-.56-3.73s-.06-.12-.33-.26l-.61,0a6.11,6.11,0,0,0-.61,0Zm-52.85-1.18c0,.37,0,.74,0,1.11A7.21,7.21,0,0,0,145,288c.09-.15.19-.29.29-.42.39-.54.29-.79.14-1A7.16,7.16,0,0,1,144.88,285.53Zm-32.41-22.46a1.25,1.25,0,0,0,.94.42,1.14,1.14,0,0,0,1-.57,1,1,0,0,0,0-.42l-1.12.52-.34-.26-.56.12s0,.09,0,.13Zm70.68-.17,0,.29a.67.67,0,0,0,.31-.08.56.56,0,0,0-.13-1.08l-.1.64,0,0h0l0,.1.16,0,.23.14Zm20.68-20.42a9.65,9.65,0,0,0,.11,3.2,25.48,25.48,0,0,1,.43,6V253c0,.85-.05,1.7-.11,2.55,0,.61-.08,1.22-.1,1.83a14.32,14.32,0,0,0,.2,3.59,12.45,12.45,0,0,0,.22-3.33l-.06-.9a13.74,13.74,0,0,1,0-2.56,29.9,29.9,0,0,0,0-5.71,2.78,2.78,0,0,1,.43-1.64,1.63,1.63,0,0,0,.13-.57A13.9,13.9,0,0,1,203.83,242.49Zm186.9,11.6a1.51,1.51,0,0,0-.52.12v.45a4.1,4.1,0,0,0,0,.51c0,.22,0,.43,0,.65l.34-.25a2.93,2.93,0,0,0,.43-.35c.16-.18.19-.25.2-.31a.83.83,0,0,0-.12-.68A.38.38,0,0,0,390.73,254.09ZM97.17,249.21l.29.58a1,1,0,0,0,.35-.85,1,1,0,0,0-.47-.83l-.27.68.07.17h.1l-.08.05.08.18Zm-7.76-10a9.75,9.75,0,0,0,.09,4.87l1.19,3.14a1.71,1.71,0,0,1,.18-.31,4.32,4.32,0,0,0,.48-.66,1.13,1.13,0,0,0,.12-.32A7.72,7.72,0,0,1,90,240.59c.09-1.32.1-2.67.08-4A10.55,10.55,0,0,1,89.41,239.22Zm-1.35-21.75a2.38,2.38,0,0,1,1.48.54,2.09,2.09,0,0,1,.37.46,3.54,3.54,0,0,1,.51-1.15c.12-.17.08-.27.06-.3a14.2,14.2,0,0,1-.9-4.08,4.22,4.22,0,0,0-.2-.82l0-.05a2.9,2.9,0,0,1-2,.14c-.12.28-.21.45-.25.6a4.84,4.84,0,0,0,.19,2.94,15,15,0,0,0,.7,1.54Zm97.39-8.13a1.71,1.71,0,0,1,1.19.49,9.07,9.07,0,0,0-.44-2,9.31,9.31,0,0,1-.42-2.48c-.06-1.09-.08-2-.06-2.79a2.73,2.73,0,0,1-1.4.9l-.07,0v0a4.57,4.57,0,0,0,.11.84,7.8,7.8,0,0,1,0,4.47,3.15,3.15,0,0,0,0,.69v.11A2.08,2.08,0,0,1,185.45,209.33ZM64.15,200.51a3,3,0,0,0-1,.17c.18.47.27.51.28.52l1.92.2.45,0a1.37,1.37,0,0,0-.87-.73A2.86,2.86,0,0,0,64.15,200.51Zm66.76,232.6-.31-.17a1.9,1.9,0,0,1-.86-.65,3.31,3.31,0,0,1-.24-3.37,2.1,2.1,0,0,1,1.94-1.23l.32,0a2.17,2.17,0,0,1,1.78,1.65,3.68,3.68,0,0,1-.23,2.5,2.24,2.24,0,0,1-2.07,1.24Zm236.78-2.82-.33,0a2.41,2.41,0,0,1-1.48-.53,5,5,0,0,1-1.75-3.81c0-.89.11-1.79.2-2.68l-.14,0,.55-4.86a1.75,1.75,0,0,1,1.79-1.72l.45,0a2.22,2.22,0,0,1,1.77,1.34,6.68,6.68,0,0,1,.46,1.2,5.86,5.86,0,0,1,.11,3.36,6.94,6.94,0,0,0-.26,3.56,10.25,10.25,0,0,1,.11,1.88v.46a2.22,2.22,0,0,1-.52,1.41l-.39.39Zm-234-11.87a1.66,1.66,0,0,1-1.65-1,1.53,1.53,0,0,1,.5-1.68,1.66,1.66,0,0,1,1.13-.41l.55.08.49.16,1.34,1.84-1.72.95Zm-.64-.75a1.23,1.23,0,0,0,.41.21l.21,0a1,1,0,0,0,.63-.27,1.09,1.09,0,0,0,.23-1.12,1,1,0,0,0-.77-.73l0,.53.32.58ZM164.56,406a2.06,2.06,0,0,1-.87-.2,2.09,2.09,0,0,1-.93-.85,1.9,1.9,0,0,1,.72-2.62,2.91,2.91,0,0,1,.6-.23l.41-.11.53.09h0a1.91,1.91,0,0,1,.86.42,2,2,0,0,1,.34,2.44A1.85,1.85,0,0,1,164.56,406Zm141.22-4.67-.48-.06a2,2,0,0,1-1.31-1.19,2.35,2.35,0,0,1-.07-2,2.4,2.4,0,0,1,1.69-1.29,1.81,1.81,0,0,1,.54-.07,1.9,1.9,0,0,1,1.79,1.27,3.61,3.61,0,0,1,.3,1.5C308.14,400.77,306.71,401.33,305.78,401.33Zm-.13-2.13a1.31,1.31,0,0,0,.6.19,1,1,0,0,0,.11-.44h0a1.12,1.12,0,0,0-.41-.22C305.88,398.67,305.72,398.89,305.65,399.2Zm55.2-.85-.33,0a2,2,0,0,1-1.6-2.09,1.73,1.73,0,0,1,1.75-1.49h.1a1.83,1.83,0,0,1,1.34.65,2,2,0,0,1,.39,1.57l-.07.52-.42.33A1.68,1.68,0,0,1,360.85,398.35Zm-.18-1.6v.61c.61,0,.83-.69.87-.94a.61.61,0,0,0-.43-.67l-.14.72.24.31-.3,0-.06.3Zm-168.89,1.52a2.82,2.82,0,0,1-1.64-.66,3.7,3.7,0,0,1-1-1.33,17.92,17.92,0,0,1-.77-2.07,11.66,11.66,0,0,0-.94-2.33,5.37,5.37,0,0,1-.56-1.63l-1-4.48a1,1,0,0,1-.16-.15,2.67,2.67,0,0,1-.69-1.39,2.84,2.84,0,0,1-.23-.25,1.59,1.59,0,0,1-.39-1,5,5,0,0,1-1.18-1.9l-.17-.4a2.57,2.57,0,0,1-.19-1l-.12-.32.05-.56a11.1,11.1,0,0,1-.19-1.24,4.36,4.36,0,0,0-.33-1.49,9.56,9.56,0,0,0-.82-1.24,10.28,10.28,0,0,1-1.26-2,4.06,4.06,0,0,0-.47-.3,3.39,3.39,0,0,1-1.82-3.11l0-.4a3.38,3.38,0,0,0-.24-2l-.16-.41-.22-1c-.28-1.27-.56-2.54-.82-3.83a6.27,6.27,0,0,0-1.31-2.83,5.66,5.66,0,0,1-1.2-2.51l-.09-.47a6.6,6.6,0,0,0-.34-1.39l-.84-1.92c-.38-.86-.77-1.74-1.14-2.63a1.79,1.79,0,0,1,0,.81,1.77,1.77,0,0,1-1.16,1.32,1.86,1.86,0,0,1-2.53-1.32,1.67,1.67,0,0,1,.32-1.39,2,2,0,0,1,1.54-.71h.18a1.87,1.87,0,0,1,1.35.74l.09.14c-.43-1-.85-2.09-1.23-3.15a15.49,15.49,0,0,1-2.45-5.56c-.14-.49-.28-1-.44-1.47a20,20,0,0,0-.93-2.52,4.31,4.31,0,0,0-1.45,1.8.82.82,0,0,0-.08.32,2.54,2.54,0,0,1,1.18,2.75l-.12.55a8.61,8.61,0,0,0-.32,2.31,44.32,44.32,0,0,1-.1,5.59,33.06,33.06,0,0,0,0,5.22,71.32,71.32,0,0,1-.14,9.66l-.08,1.38a6.21,6.21,0,0,1-1.1,3.22,2,2,0,0,1-1.51.85h0a2,2,0,0,1-2-1.69,7,7,0,0,1,0-2,3.3,3.3,0,0,0-.19-1.92,4.28,4.28,0,0,1-.23-3,2.4,2.4,0,0,0,.06-1,10,10,0,0,1-.09-2.48l0-.52c0-.64.11-1.26.19-1.88a14.61,14.61,0,0,0,.18-1.87,11.39,11.39,0,0,0-.2-1.84,17,17,0,0,1-.22-1.84,49.87,49.87,0,0,1,.18-9.47,6,6,0,0,0-.16-2.66,6.93,6.93,0,0,1,0-3.32,6.34,6.34,0,0,0-.27-3.55,6.8,6.8,0,0,1-.09-4.61c.23-.76.42-1.37.57-2a1.82,1.82,0,0,0,0-.92,12.61,12.61,0,0,1-.56-4.78,2.71,2.71,0,0,1,.83-1.79,2.62,2.62,0,0,1,3-.41,3.61,3.61,0,0,1,2,3.37,8.24,8.24,0,0,1-.16,1.35l-.07.43a2,2,0,0,0,.12,1.24,8.46,8.46,0,0,1,1,3.2c0,.28.09.57.15.86a2.73,2.73,0,0,0,.48,1.3,9.27,9.27,0,0,1,1.66,2.46,7.82,7.82,0,0,0,1.05,1.68,4.72,4.72,0,0,1,.93,2,38.64,38.64,0,0,0,2.18,5.94,4,4,0,0,0,.68,1,3.74,3.74,0,0,0,.4.36,3.66,3.66,0,0,1,1.31,1.74c.12.39.27.77.42,1.14a9.46,9.46,0,0,1,.77,2.75,21.63,21.63,0,0,0,2.29,7.29,4.2,4.2,0,0,1,.63-.06,2.22,2.22,0,0,1,1.29.36,1.83,1.83,0,0,1,.88,1.53c0,.41-.05.82-.09,1.23a12.4,12.4,0,0,0-.08,1.88,13.6,13.6,0,0,0,.37,2.08l.21.93c0,.22.08.45.12.69a3.38,3.38,0,0,0,.24,1,7.52,7.52,0,0,1,.78,2.13,5.13,5.13,0,0,0,.49,1.42c.39.65.72,1.33,1,2,.23.48.47,1,.72,1.43a7.12,7.12,0,0,1,.85,2.48,4.32,4.32,0,0,0,.54,1.6,11.7,11.7,0,0,1,1.42,5.86,2.17,2.17,0,0,1,0,.43l.27.12-.47,1.12v0h0a8.9,8.9,0,0,0,1,1.46,11,11,0,0,1,1.29,1.89,5.75,5.75,0,0,0,.31.52,4.3,4.3,0,0,1,.82,2,12.69,12.69,0,0,0,1.24,4c.18.42.36.83.52,1.24a5.22,5.22,0,0,1,.3,1.27c.26,1.53-.51,2.28-1.24,2.47Zm-11.51-31.88a6.76,6.76,0,0,1,.26,2.78l0,.36a.66.66,0,0,0,.34.63,5.14,5.14,0,0,1,1.34,1c-.25-.51-.5-1-.79-1.5a7.47,7.47,0,0,1-.79-2.14A7.26,7.26,0,0,0,180.27,366.38ZM162.85,362a5.68,5.68,0,0,1-.14.68,1.69,1.69,0,0,0,0,1.13C162.79,363.19,162.82,362.59,162.85,362Zm0-5c0,.37-.09.74-.1,1.11l0,.55a8,8,0,0,0,0,1.84,4.14,4.14,0,0,1,.07.59C162.93,359.7,163,358.33,162.9,357Zm14,0a3.2,3.2,0,0,0,.25.35,8.62,8.62,0,0,1,1.65,3.13c0-.06,0-.12,0-.18a14.91,14.91,0,0,1,.08-2.29c0-.08,0-.17,0-.25l-.05,0A2.76,2.76,0,0,1,176.92,356.92ZM169.78,350l0,1.31a.68.68,0,0,0,.46-.28,1,1,0,0,0,.19-.79.82.82,0,0,0-.75-.64.9.9,0,0,0-.72.76.88.88,0,0,0,.18.62.76.76,0,0,0,.46.32ZM163,340.88c0,.18,0,.37-.06.56a47.6,47.6,0,0,0-.15,9c0,.11,0,.22,0,.33q0-.35.05-.71a41.55,41.55,0,0,0,.09-5.26,10.92,10.92,0,0,1,.38-3l.12-.53A3.41,3.41,0,0,1,163,340.88Zm8.11,1.94a7.85,7.85,0,0,0,1.09,1.91,2.79,2.79,0,0,1,.46.87c.43,1.19.91,2.39,1.42,3.57-.06-.37-.1-.75-.14-1.14a7.29,7.29,0,0,0-.59-2c-.18-.45-.35-.89-.49-1.35a2,2,0,0,0-.49-.49,6.07,6.07,0,0,1-1.27-1.38ZM163,324.25a4.81,4.81,0,0,1-.11,1.26c-.17.71-.37,1.38-.58,2a4.36,4.36,0,0,0,0,3,9,9,0,0,1,.4,5,4.84,4.84,0,0,0-.08,1.82,7.83,7.83,0,0,1,2.79-3,2.15,2.15,0,0,1,2.14-.13,12.26,12.26,0,0,1-1.07-1.78,7.06,7.06,0,0,0-1.17-1.8,4.81,4.81,0,0,1-1.21-2.65c-.06-.31-.12-.63-.17-1a6.19,6.19,0,0,0-.66-2.26A3.33,3.33,0,0,1,163,324.25Zm-.64-4.89a10.61,10.61,0,0,0,.37,3.58,6.37,6.37,0,0,1,.05-1.1l.09-.54a5.58,5.58,0,0,0,.12-.92A1,1,0,0,0,162.34,319.36ZM337,397.07a1.62,1.62,0,0,1-1.21-.57,2.82,2.82,0,0,1-.66-2.07l.25-2.13a1.79,1.79,0,0,1,1.71-1.82l.22,0a1.77,1.77,0,0,1,1.4,1.6c.06.49.09,1,.12,1.48l0,.56,0,.32a3.4,3.4,0,0,0,0,.34,2.17,2.17,0,0,1-1.17,2.1l-.28.14ZM153.13,390a1.91,1.91,0,0,1-1.78-1.25,5,5,0,0,1,.07-4,1.7,1.7,0,0,1,1.5-1.08h.1a2.07,2.07,0,0,1,2,1.45c.16.53.27,1.08.37,1.56l.15.69-.14.6a3.59,3.59,0,0,1-.1.42,2.35,2.35,0,0,1-1.54,1.52Zm9.78-1.66a2,2,0,0,1-.76-.15,2.14,2.14,0,0,1-1.2-2.31,2,2,0,0,1,.85-1.63l.28-.23.51-.18A2.07,2.07,0,0,1,164.8,385a2.37,2.37,0,0,1-.09,2.29A2.13,2.13,0,0,1,162.91,388.32Zm121.64-3.53a2.22,2.22,0,0,1-1.95-1.2,2,2,0,0,1-.38-1l-.05-.47a20.86,20.86,0,0,1-.19-4.58,2.54,2.54,0,0,1,2.29-2.19l.67.15a2.54,2.54,0,0,1,1.39.94,11.43,11.43,0,0,1,1.07,2.16c.92,2.38.54,3.81-1.48,5.64A2,2,0,0,1,284.56,384.79Zm0-6.14a21.86,21.86,0,0,0,.22,3.08c.66-.72.59-1.1.18-2.16Q284.76,379.08,284.55,378.65Zm8.76,5.37a2.12,2.12,0,0,1-1.47-.63,3.57,3.57,0,0,1-.37-5.1,2.75,2.75,0,0,1,1.79-.87h.11c.91,0,1.58.77,1.72,2l.12,1.68a6.43,6.43,0,0,1,0,1.2,2,2,0,0,1-.77,1.4A1.85,1.85,0,0,1,293.31,384Zm-147.4-2.7-.42-.23a2.12,2.12,0,0,1-1.11-2,2,2,0,0,1,1.6-2l.35,0a2,2,0,0,1,1,.3,1.93,1.93,0,0,1,.91,1.49,2.36,2.36,0,0,1-.8,1.95,1.8,1.8,0,0,1-1.12.42Zm6.56-1.37a2.1,2.1,0,0,1-.87-.2,2.67,2.67,0,0,1-1.8-2.18,3.49,3.49,0,0,1,.16-1.67,2.2,2.2,0,0,1,1.81-1.35l.5-.05a2,2,0,0,1,1.84,1.09,4.9,4.9,0,0,1,.37,1l.11.33v.56a5.44,5.44,0,0,1-.13.65C154,379.71,153,380,152.47,380Zm72-2.71a2.27,2.27,0,0,1-.94-.22,1.94,1.94,0,0,1-1.13-1.18,1.84,1.84,0,0,1,.23-1.54,2.13,2.13,0,0,1,1-.86,1.9,1.9,0,0,1,2.61,1.27,2.65,2.65,0,0,1,.05.75l-.16.74A1.86,1.86,0,0,1,224.48,377.24Zm0-1.91.41.22a.83.83,0,0,0,0-.35h0a.84.84,0,0,0,0-.11.79.79,0,0,0-.32-.46.69.69,0,0,0-.78.34l.48.26-.62,0a.76.76,0,0,0,.15.3Zm68.94-.53a1.76,1.76,0,0,1-1.72-1.55,2,2,0,0,1,.27-1.39,1.72,1.72,0,0,1,1.49-.94,1.67,1.67,0,0,1,1.57,1.26,2.56,2.56,0,0,1,.13.58l.08.57-.34.62a1.79,1.79,0,0,1-.73.68l-.27.13Zm-.62-1.45a1.14,1.14,0,0,0,.66.21,1,1,0,0,0,.75-.32.62.62,0,0,0,.06-.48.88.88,0,0,0-.85-.57v.55l.47.39-.47.1v.27l-.06-.26Zm45.32,1.37-.44,0a2.73,2.73,0,0,1-1.8-1.19,3.29,3.29,0,0,1-.55-2.47,2.47,2.47,0,0,1,2.39-1.94h.17a4.49,4.49,0,0,1,.67.06,3,3,0,0,1,2.43,2.79A2.85,2.85,0,0,1,338.15,374.72ZM224.58,372.6a2.12,2.12,0,0,1-1.78-1.07,4.05,4.05,0,0,1-.45-3.56,2.18,2.18,0,0,1,1.69-1.46l.57-.08a1.85,1.85,0,0,1,1.78,1.33,5.44,5.44,0,0,1,.5,2.56,2.23,2.23,0,0,1-1.94,2.25Zm-76.06-.88a2.21,2.21,0,0,1-1.84-1,2.85,2.85,0,0,1-.33-2.71,2.34,2.34,0,0,1,1.76-1.51l.31,0a2.15,2.15,0,0,1,1.86,1.19,7.57,7.57,0,0,1,.38.9l.15.46a2.24,2.24,0,0,1-.42,1.71,2.37,2.37,0,0,1-1.61,1Zm203.29-1.18-.52-.06a2.39,2.39,0,0,1-1.54-1.08,2.18,2.18,0,0,1-.21-1.69,2.22,2.22,0,0,1,2.13-1.84l.6.08a2.39,2.39,0,0,1,1.65,1.26,2.5,2.5,0,0,1-.28,2.19A2.07,2.07,0,0,1,351.8,370.54Zm-208.3-.13a2.05,2.05,0,0,1-2-1.48,2,2,0,0,1,1-2.42l.28-.14.43,0a2.24,2.24,0,0,1,.94.23,2.2,2.2,0,0,1,1.25,1.88v.16l0,.15A1.88,1.88,0,0,1,143.51,370.4Zm142.27-.28-4.41-2.67,4.88-1.8Zm7.63,0a1.62,1.62,0,0,1-1.46-1,1.89,1.89,0,0,1,.09-1.67l.32-.57,2-.34.44,1h0a1.78,1.78,0,0,1,.19,1.14A1.64,1.64,0,0,1,293.41,370.09Zm0-2.62a1.08,1.08,0,0,0-1,.63,1.16,1.16,0,0,0,0,.23l1-.32v0l0,0,.75-.26A1.11,1.11,0,0,0,293.41,367.47Zm35.9,1.34H329l-.33-.17a2,2,0,0,1-.84-2.46,1.9,1.9,0,0,1,.55-.73l.63-.54.83.23h0l.35.12.51.42a1.92,1.92,0,0,1,0,2.47A1.89,1.89,0,0,1,329.31,368.8Zm0-2.62a.88.88,0,0,0-.69.28.71.71,0,0,0,0,.82l.62-.47,0-.2-.12-.12.12.08ZM340,368.6a1.94,1.94,0,0,1-.8-3.73,2.09,2.09,0,0,1,1-.29,1.72,1.72,0,0,1,1.68,1.57,2,2,0,0,1-1.3,2.36Zm0-2.62c-.53.14-.71.52-.67.69a1,1,0,0,0,.9.54.69.69,0,0,0,.26,0,.85.85,0,0,0,.09-.73A.63.63,0,0,0,340,366Zm-69.52-2.42a1.79,1.79,0,0,1-1.57-1,4.77,4.77,0,0,1-.23-.58,2.09,2.09,0,0,0-.12-.33,5,5,0,0,1-.59-3.52,9.75,9.75,0,0,0,.11-2.77c0-.49,0-1,0-1.48l-.1-.18a3.42,3.42,0,0,0-.38-.63,8.07,8.07,0,0,0-.92-.86l-.59-.52a1.8,1.8,0,0,1-.49-.8l-.57.52-2.1-2.25,1-.91a1.64,1.64,0,0,1,1.24-.65h.09a1.54,1.54,0,0,1,1.09.6h0a10.3,10.3,0,0,1,1-.69l.18-2a44.25,44.25,0,0,0-.18-6.18,4,4,0,0,1,.1-1.61,3.46,3.46,0,0,1,.56-1l.83-1.32,1.46,1a2.47,2.47,0,0,1,.92,1.06,5.66,5.66,0,0,1,.44,2c0,.84,0,1.7,0,2.29l0,.44c0,.39,0,.74,0,1a3.88,3.88,0,0,0,0,.81,8.46,8.46,0,0,1,0,3.79,3.13,3.13,0,0,0,.14,1.53l.15.45a5.22,5.22,0,0,1,.39,2.11,27.09,27.09,0,0,0,.14,4.06c.08,1,.16,1.9.17,2.85a12.54,12.54,0,0,1-.36,3.6A1.72,1.72,0,0,1,270.53,363.55ZM268.22,350l.16.14a10.74,10.74,0,0,1,1.18,1.11c0-.21-.13-.45-.21-.69l-.18-.55c-.05-.18-.1-.36-.14-.54a2.87,2.87,0,0,1-.35.23Zm61.15,12.81a2.44,2.44,0,0,1-2-.94,2.8,2.8,0,0,1-.41-.49,8.44,8.44,0,0,1-1.6-5.34c0-.43,0-.85,0-1.27s0-.95.06-1.42a3.16,3.16,0,0,1,1.21-2.31l.65-.52c.36-.28.71-.57,1.08-.83a2,2,0,0,1,2.63.22,2.05,2.05,0,0,1,.56,1.36c0,.54,0,1.12,0,1.51l0,.58-.23.94a1.91,1.91,0,0,0,.25,1.57l.15.27a4.38,4.38,0,0,1,.36,3.81,9.08,9.08,0,0,1-.74,1.68A2.27,2.27,0,0,1,329.37,362.84ZM329,352.6h0l-.69.55s-.17.13-.2.45,0,.82,0,1.23,0,1-.06,1.45a5.79,5.79,0,0,0,1.19,3.7l.06.06a4.78,4.78,0,0,0,.35-.82c.23-.78.24-1.18,0-1.52l-.29-.52a4.52,4.52,0,0,1-.49-3.59l.17-.81C329,352.74,329,352.67,329,352.6Zm-36.18,2.74a2.18,2.18,0,0,1-.72-.13,2.09,2.09,0,0,1-1.07-1,5.42,5.42,0,0,1-.52-2.57c0-.72,0-1.34,0-2.09l.06-1.22v-.59a6.78,6.78,0,0,0-.35-2.69,3,3,0,0,1-.2-.93,3.25,3.25,0,0,1,.06-.95c.08-.38.18-.79.27-1.19a18.68,18.68,0,0,0,.46-2.35,10.65,10.65,0,0,0,0-1.82c0-.42-.06-.84-.06-1.25a1.73,1.73,0,0,1,1.12-1.56l.23-.09,1.44,0,.5,1a16.05,16.05,0,0,1,.66,2.16l.13.62a17.94,17.94,0,0,0,.92,3.31,7.25,7.25,0,0,1,.49,3.25l0,.56a6.27,6.27,0,0,1-.25,1.94,11.74,11.74,0,0,0-.46,2.55,11.22,11.22,0,0,1-.93,3.93A1.94,1.94,0,0,1,292.85,355.33Zm.22-13.15-.1.42c-.09.38-.18.76-.26,1.15v.35a9,9,0,0,1,.54,3.68v0a9,9,0,0,1,.27-.95,4.22,4.22,0,0,0,.11-1.13c0-.22,0-.44,0-.66a4.67,4.67,0,0,0-.29-2.08C293.25,342.71,293.15,342.45,293.06,342.18ZM146.8,353.53a2.2,2.2,0,0,1-1.68-.79,3.63,3.63,0,0,1-.73-3.09,2.31,2.31,0,0,1,1.42-1.88l.47-.07a2.77,2.77,0,0,1,1.66.72,3,3,0,0,1,1.1,2.51l-.09.46a5.75,5.75,0,0,1-.27.93,1.92,1.92,0,0,1-1.3,1.13A2.13,2.13,0,0,1,146.8,353.53Zm193.39-.46a1.87,1.87,0,0,1-1.65-2.16,2.11,2.11,0,0,1,.54-1.17,1.73,1.73,0,0,1,1.25-.57,1.76,1.76,0,0,1,1.65,1.32,1.92,1.92,0,0,1,0,1.53,1.8,1.8,0,0,1-.86.84l-.39.21Zm-.58-2.12a.84.84,0,0,0-.06.54,1.16,1.16,0,0,0,.78.31.94.94,0,0,0,.66-.25.5.5,0,0,0,.15-.33.77.77,0,0,0-.56-.73l-.14.88.18.27-.21-.14,0,.28-.36-.54ZM179.82,352.3a2.61,2.61,0,0,1-2.58-2.34,3.49,3.49,0,0,1,3-4,3.21,3.21,0,0,1,.55,0,3.14,3.14,0,0,1,2.49,1.3,2.12,2.12,0,0,1,.4.88l.07.31,0,.43a2.94,2.94,0,0,1-.52,1.46,5.35,5.35,0,0,1-2.78,1.88Zm1-3.72h-.09c-.56.1-.89.23-.85,1.26a6.89,6.89,0,0,0,1.23-1.07C180.95,348.58,180.84,348.58,180.81,348.58ZM192.9,350l-4.33-.93,2.59-3.4a1.8,1.8,0,0,1,.29-.91,1.86,1.86,0,0,1,1.38-.82H193a1.6,1.6,0,0,1,1.26.7l.35.56a1.77,1.77,0,0,1-1.64,2.42h0a1.75,1.75,0,0,1-.66-.13Zm.16-4,.05.56a.77.77,0,0,0,.53-.35.75.75,0,0,0,.12-.59.84.84,0,0,0-.89-.61.83.83,0,0,0-.63.37.8.8,0,0,0-.14.64l.56-.18.32-.32v-.26l0,.24.13-.13,0,.33.25-.08Zm117.82,2.35a2.43,2.43,0,0,1-1.83-1,2,2,0,0,1,1.46-3.16l.3,0a2,2,0,0,1,1.91,1.33,2.24,2.24,0,0,1-.3,2A1.87,1.87,0,0,1,310.88,348.39Zm-154.29-.32-1.55-5,4.51.6Zm166.74-.38a3.43,3.43,0,0,1-3.28-2.49,2,2,0,0,1-.14-.88c0-.51.12-1,.2-1.55a8.63,8.63,0,0,0,.16-2.4l0-.39.31-.65a4.21,4.21,0,0,1,2.08-2.39l.61-.12a2.4,2.4,0,0,1,1.15.36l.68.28.29.8a26,26,0,0,1,.27,2.86,16.45,16.45,0,0,0,.27,2.59l0,.2,0,.57a3.78,3.78,0,0,1-.62,2.16,2,2,0,0,1-.8.79A2.47,2.47,0,0,1,323.33,347.68Zm-.41-7.25a12,12,0,0,1-.21,2.75c-.07.45-.14.9-.18,1.36a1.22,1.22,0,0,0,.65.5,4.16,4.16,0,0,0,.09-.76l0-.19a19.93,19.93,0,0,1-.29-2.82c0-.29,0-.59-.05-.89l0,0Zm-177.1,6.46a2.79,2.79,0,0,1-2.37-2.3l0-.34a15.27,15.27,0,0,1,0-4.35,3.87,3.87,0,0,0,.12-1.09,13.63,13.63,0,0,1,0-4.71c.06-.53.12-1.06.16-1.59.07-1.08,1.25-1.41,1.67-1.41h.8l.37.71a6.72,6.72,0,0,0,.37.6,4,4,0,0,1,.88,3.17c-.1.51-.18,1-.27,1.6l-.1.61,0,.28a7,7,0,0,1-.08,1.81,5.46,5.46,0,0,0,.24,2.6,10.12,10.12,0,0,1,.25,1.29l.06.41a2.44,2.44,0,0,1-.6,1.93A2,2,0,0,1,145.81,346.89Zm111.09-.45a1.85,1.85,0,0,1-1.73-.85,3.34,3.34,0,0,1-.37-.82l-.1-.45a4.3,4.3,0,0,1-.16-1.62,10.94,10.94,0,0,0-.09-2.54,10.71,10.71,0,0,1,.07-4,2.2,2.2,0,0,1,.7-1.13,2.24,2.24,0,0,1,.83-.37l.86-.21.68.65h0a2,2,0,0,1,.5.82,6.75,6.75,0,0,1,.32,3.83c-.09.35,0,.71.44,1.45a4.2,4.2,0,0,1,.58,1.42,3.47,3.47,0,0,1-.71,3.1A2.43,2.43,0,0,1,256.9,346.44Zm-33.06-2.59a2.21,2.21,0,0,1-2-1.1q-.15-.22-.28-.45a1.64,1.64,0,0,1-.52.5l-.31.18-.55,0-1-.18a2,2,0,0,1-1-2.34A2.16,2.16,0,0,1,221,339a4.59,4.59,0,0,1,.28-.89,1.94,1.94,0,0,1,2.59-1,2.3,2.3,0,0,1,1.46,1.62,10.16,10.16,0,0,1,.17,1.31l0,.29,0,.62c-.05.52-.09,1-.16,1.4a1.7,1.7,0,0,1-1.4,1.56Zm40.3-3a1.42,1.42,0,0,1-.49-.09,1.7,1.7,0,0,1-1-1,1.85,1.85,0,0,1,.21-1.59,1.75,1.75,0,0,1,1.44-.81l.24,0a1.81,1.81,0,0,1,1.35,1.24,1.71,1.71,0,0,1-.09,1.08l-.15.58-.87.5Zm.13-1.56,0,.65a.89.89,0,0,0,.8-.45.81.81,0,0,0,0-.65.91.91,0,0,0-.52-.55l-.25.69.18.36Zm-38.24.19-2.34-5,4.27-.1Zm-44.32-1.75-.66-.45a1.47,1.47,0,0,1-.88-1.45,1.74,1.74,0,0,1,1-1.45,1.93,1.93,0,0,1,.83-.2h.63l.58.57a1.75,1.75,0,0,1,.31,1.53,1.54,1.54,0,0,1-1.07,1.1ZM279.19,335h-.32l-.33-.16a2,2,0,0,1-.94-2.57,1.85,1.85,0,0,1,.7-.8l.56-.49.71.22a1.83,1.83,0,0,1,1,.5,1.92,1.92,0,0,1,0,2.65A1.9,1.9,0,0,1,279.19,335Zm0-2.62a.86.86,0,0,0-.64.24.73.73,0,0,0,0,.85l.37-.32.12-.39-.12-.15.14.09Zm-9.66,2.45A1.89,1.89,0,0,1,268,334a8.72,8.72,0,0,1-1.37-5.36,5,5,0,0,1,.2-1.35c0-.16.08-.32.11-.48a4.68,4.68,0,0,0-.16-2.53c-.2-.53-.39-1.05-.57-1.58a6.09,6.09,0,0,1-.25-3.4,19.36,19.36,0,0,0,.41-6.56,15.9,15.9,0,0,1,.43-5.25,1.7,1.7,0,0,1,1.67-1.45,2.06,2.06,0,0,1,1.12.36,3.32,3.32,0,0,1,1.49,2,10.76,10.76,0,0,1,.28,3.05v.59a10.77,10.77,0,0,0,.2,4.49,4.31,4.31,0,0,1,.09.8,10.85,10.85,0,0,1,0,1.24,44.2,44.2,0,0,0-.11,5.09c0,1.35,0,2.7,0,4.05l0,.29a5.63,5.63,0,0,0,.32,3.47,2.58,2.58,0,0,1-.16,1.72,2.32,2.32,0,0,1-2,1.64ZM269,317.13a22.07,22.07,0,0,1-.47,2.79,3.55,3.55,0,0,0,.18,2l.17.48a37.51,37.51,0,0,1,.14-4,6.57,6.57,0,0,0,0-.74,2.41,2.41,0,0,0,0-.46Zm-92.35,14.15-4.56-.47,2.76-4.36Zm5.67-.19a2,2,0,0,1-1.91-1.37,3.21,3.21,0,0,1-.19-.84,2.13,2.13,0,0,1,1.12-2.16,2.21,2.21,0,0,1,3.12,1.62,2.42,2.42,0,0,1-.59,2A2.07,2.07,0,0,1,182.3,331.09Zm0-2.62a.57.57,0,0,0-.43.19c0,.45.28.45.37.45a.67.67,0,0,0,.32-.08.49.49,0,0,0,.25-.42S182.58,328.47,182.3,328.47Zm101.27,2.61a2.3,2.3,0,0,1-1.65-.74,2.72,2.72,0,0,1-.36-3.51,2.3,2.3,0,0,1,3.46-.35,2.61,2.61,0,0,1,.75,1.87l-.18.78c-.07.23-.13.46-.22.68A1.92,1.92,0,0,1,283.56,331.07Zm-31.29,0a2,2,0,0,1-2-1.36,2,2,0,0,1,0-1.62,1.94,1.94,0,0,1,1.22-1L252,327a1.9,1.9,0,0,1,1.82,1.47,2.07,2.07,0,0,1-1,2.4l-.5.16Zm40.14-2.59-.54-.09c-1-.39-1.43-1.55-1.11-3a2,2,0,0,1,.64-1.13,1.68,1.68,0,0,1-.66-.86,2.86,2.86,0,0,1,.35-2.42,1.63,1.63,0,0,1,1.28-.68h0a1.78,1.78,0,0,1,1.66,1.47,5.09,5.09,0,0,1,0,1.4,1.48,1.48,0,0,1-.5.91,2.07,2.07,0,0,1,1,2.1A2.51,2.51,0,0,1,292.42,328.44Zm-112.22-4.78a3,3,0,0,1-2.39-1.05,2.3,2.3,0,0,1-.5-.89,5.78,5.78,0,0,1,0-2.41c0-.26.07-.52.09-.79v-.33c0-.37,0-.78,0-1.19a2.41,2.41,0,0,1,1.06-1.87,1.87,1.87,0,0,1,1.06-.3,2.68,2.68,0,0,1,2.32,1.26,2,2,0,0,1,.36.8c.24,1.19.47,2.43.7,3.66a3.1,3.1,0,0,1-1.45,2.87A2.77,2.77,0,0,1,180.19,323.67Zm-.3-2.65.28,0,.06-.15q-.16-.86-.31-1.68c0,.16,0,.3-.06.45a3.58,3.58,0,0,0,0,1.38S179.86,321,179.89,321Zm65.63.15a2.07,2.07,0,0,1-1.84-2.9,1.83,1.83,0,0,1,1.19-.94l.45-.06A2,2,0,0,1,246,321l-.49.12Zm-24.34-.53a6.21,6.21,0,0,1-3.84-1.15,3.72,3.72,0,0,0-.7-.12,2.22,2.22,0,0,1-1.69-.8,1.73,1.73,0,0,1-.23-1.44l.44-1.76a3.45,3.45,0,0,1-1-2.75,2.9,2.9,0,0,1,1-1.87l.18-.19a3.5,3.5,0,0,1,3.7-1.11,2.64,2.64,0,0,1,1.44.9c.29,0,.59-.05.88-.06a1.87,1.87,0,0,1,1.48.82,5,5,0,0,1,1,3.41,8.28,8.28,0,0,1-.2,1.16,4.58,4.58,0,0,0-.14.87,2.26,2.26,0,0,0,.17.44,3.78,3.78,0,0,1,.41,1.52,1.91,1.91,0,0,1-1.76,2.08C221.9,320.62,221.54,320.64,221.18,320.64Zm-3.67-3.8a3.16,3.16,0,0,1,1.38.53,3.69,3.69,0,0,0,2.29.64h0a3.45,3.45,0,0,1-.38-1.53,7.19,7.19,0,0,1,.2-1.37,5.44,5.44,0,0,0,.14-.79,2.39,2.39,0,0,0-.28-1.37l-.43,0-1,.1-.2-.25H219l-.55-.76c-.63-.34-.79-.23-1.14.18l-.29.32a2.27,2.27,0,0,0-.24.28.79.79,0,0,0,.42.8l.74.47,0,.16.07,0-.34,2Zm-43.85,3.67-.37,0a2,2,0,0,1-1.55-2.15,2.69,2.69,0,0,1,1.13-2.52l.57-.36.58.23a1.73,1.73,0,0,1,1,.58,2.85,2.85,0,0,1,.52,2.62A2,2,0,0,1,173.66,320.5ZM337,318.24a2.17,2.17,0,0,1-1.21-.39,2.14,2.14,0,0,1-.91-2.39,2.08,2.08,0,0,1,1.82-1.61h.22a1.93,1.93,0,0,1,1.41.62,2.57,2.57,0,0,1,.65,1.91l-.15.54a2.14,2.14,0,0,1-.48.78A1.93,1.93,0,0,1,337,318.24Zm-44.4-2.18a2.13,2.13,0,0,1-1.77-.93,4,4,0,0,1-.63-1.5,9.63,9.63,0,0,1-.12-1.28l0-.52.05-.21a3.2,3.2,0,0,0-.14-1.66l-.12-.49a3.43,3.43,0,0,1-.33.66,3.62,3.62,0,0,1-2.92,1.7h-.18l-.18,0a2.74,2.74,0,0,1-1.56-.58,6.29,6.29,0,0,1-1.06-1.49,2,2,0,0,1-.13-1.69,7.8,7.8,0,0,1,1.48-2.69,2.49,2.49,0,0,1,3.83.09,7.43,7.43,0,0,1,1,1.61l0,0,.14-.23a5.59,5.59,0,0,0,.56-2,10.92,10.92,0,0,1,.43-1.92,1.68,1.68,0,0,1,1.56-1h.34l.34.17a6.11,6.11,0,0,1,2.47,2.78l.34.59a2.41,2.41,0,0,1-.09,2.42,7.54,7.54,0,0,0-1,4.49,13.94,13.94,0,0,1-.07,1.77,2.22,2.22,0,0,1-1.63,1.87Zm-.22-8.19V308a3.94,3.94,0,0,0,0,.83l.11.46a8,8,0,0,1,1.09-2.76l-.25-.44-.31-.54A7.8,7.8,0,0,1,292.36,307.87Zm-6,1.28.27,0a1,1,0,0,0,.68-.46.7.7,0,0,0,.08-.65,4.49,4.49,0,0,0-.54-.89,5.15,5.15,0,0,0-.8,1.47A4.55,4.55,0,0,0,286.33,309.15Zm-31.13,6.34-.68-.48a1.81,1.81,0,0,1-.77-.82,3.5,3.5,0,0,1,.13-2.75,1.92,1.92,0,0,1,1.47-1.37l.35,0a2,2,0,0,1,1.9,1.4,3.08,3.08,0,0,1-.92,3.25,2,2,0,0,1-.76.43ZM174.6,314l-.65-.13h-.11a2.21,2.21,0,0,1-1.89-1.09c-1.28-2.05-.72-3,.92-4.29a.69.69,0,0,0-.17-.48,1.64,1.64,0,0,1-.41-1.69,1.71,1.71,0,0,1,1.47-1.08l.27,0a2.06,2.06,0,0,1,1.32.51,2.24,2.24,0,0,1,.63,1,5.94,5.94,0,0,1,.17,1.71v.31a17.77,17.77,0,0,1,.12,2.37,2.19,2.19,0,0,1,.09,1.08,1.61,1.61,0,0,1-.48,1.07A1.47,1.47,0,0,1,174.6,314Zm4.55-1.85a2.12,2.12,0,0,1-1.38-.52,4.36,4.36,0,0,1-1-1.15,2.37,2.37,0,0,1,1-3.14A2.5,2.5,0,0,1,181.4,310a2.22,2.22,0,0,1-1.06,1.83A2.27,2.27,0,0,1,179.15,312.17Zm32.47-.21a1.8,1.8,0,0,1-1.54-1.13,1.82,1.82,0,0,1,1.28-2.55l.33,0a1.6,1.6,0,0,1,1.17.58l.33.28.13.44A1.9,1.9,0,0,1,212,311.9Zm.2-1.85.18.72a.83.83,0,0,0,.49-1,.93.93,0,0,0-.88-.47v.55l.06-.07v-.26l.05.21.09-.11,0,.26.24-.06Zm52.51,1.1a1.51,1.51,0,0,1-1.29-.58,6.54,6.54,0,0,1-.89-4.41,2,2,0,0,1,1-1.43l.28-.14.46,0a1.78,1.78,0,0,1,1.26.5,4.33,4.33,0,0,1,1.28,3.57l-.09.39a13.44,13.44,0,0,1-.62,1.38l-.37.69Zm-102.89-.85a1.71,1.71,0,0,1-1.68-1.68l-.95-7.49a10.16,10.16,0,0,1,.57-5.47,4,4,0,0,0,.19-1.06c0-.25.05-.5.09-.76a1.88,1.88,0,0,1,1.82-1.73l.35,0a2,2,0,0,1,1.28.86,5.22,5.22,0,0,1,.92,3.36s0,.05,0,.08l.17-.08.51-.1h.45l1.24.81-.1.81,0,.53-.37.51a1.54,1.54,0,0,1-1.25.62,1.56,1.56,0,0,1-.82-.23l-.09.33-.24,2.14a10.51,10.51,0,0,0,.2,3.85,5.19,5.19,0,0,1-.42,3.52,2.46,2.46,0,0,1-1.9,1.16Zm3-12.61.15,0,.09-.14,0,.08.79-.4a1.12,1.12,0,0,0-.81-.34,1,1,0,0,0-.75.3v.1Zm183.21,11.64a2.13,2.13,0,0,1-1.85-1.15,2.09,2.09,0,0,1,2.67-3,2.1,2.1,0,0,1,1.11,2.19,2,2,0,0,1-1.54,1.92Zm0-2.62a.83.83,0,0,0-.69.47.8.8,0,0,0,.35.36.67.67,0,0,0,.67-.1.6.6,0,0,0,.1-.56A.58.58,0,0,0,347.67,306.76Zm-135.35,1a2.57,2.57,0,0,1-1.83-.78,2.44,2.44,0,0,1-.71-1.78,6.67,6.67,0,0,1,.2-1.34,2.09,2.09,0,0,1,3-1.53,5,5,0,0,0,.47.19,5.44,5.44,0,0,1,1.09.52,2.54,2.54,0,0,1,.86,1.2l.21.54a2.31,2.31,0,0,1-1.75,2.7c-.38.1-.77.18-1.15.24Zm44.93-1.57-4.35-.68,1.61-2.3a1.85,1.85,0,0,1-.4-.33,2.4,2.4,0,0,1-.59-1.8,1.94,1.94,0,0,1,1.86-1.89h.13a2,2,0,0,1,1.72,2,2.4,2.4,0,0,1-.85,1.86Zm51.64-.21-.34-.07a2.05,2.05,0,0,1-1.79-2,2,2,0,0,1,1.63-2.08c.8-.13,1.55-.24,2.3-.3h.17a1.86,1.86,0,0,1,1.9,1.87,1.85,1.85,0,0,1-1.11,1.68c-.67.25-1.34.46-1.95.66Zm-87-1.52-1-1.56-.15-.09-.74-.48.28-1.29.48-.66.93-1,1,.85a1.44,1.44,0,0,1,.64,1.37,1.71,1.71,0,0,1-.58,1.11Zm46.6-.21a1.9,1.9,0,0,1-1.83-1.41,3,3,0,0,1,.06-2.44,2,2,0,0,1,1.27-1l.47-.05a2.08,2.08,0,0,1,1.94,1.22,2.72,2.72,0,0,1-.17,2.74,2.17,2.17,0,0,1-1.06.82Zm16.12-.27a2,2,0,0,1-.85-.2,1.73,1.73,0,0,1-1-1.83,2,2,0,0,1,1.94-1.47l.81.06.35.47a1.67,1.67,0,0,1,.52,1.29A1.76,1.76,0,0,1,284.59,304Zm0-1v.16a.7.7,0,0,0,.59-.47,1.09,1.09,0,0,0-.35-1.22.67.67,0,0,0-.29-.06.9.9,0,0,0-.89.68l.62.07.31-.31v.08l.11-.08,0,.35.3,0-.32.18Zm7.82-1.87a1.91,1.91,0,0,1-1.69-1.07,5.6,5.6,0,0,1-.83-3.58,2.39,2.39,0,0,1-1.51.89l-.34,0a2.45,2.45,0,0,1-2.24-1.77,1.54,1.54,0,0,0-1-1,2.47,2.47,0,0,1-1.55-1.51c-.24-.56-.5-1.12-.77-1.69l-.33-.7a3.22,3.22,0,0,1,0-2.6,6.76,6.76,0,0,1,.6-1.12,2.65,2.65,0,0,0,.41-1.41c0-1.43-.05-2.85-.11-4.27,0-.54-.06-1.08-.09-1.62-.07-1.12-.14-2.24-.1-3.36a2,2,0,0,0-1.07-2,2,2,0,0,1-.73-2.57c.09-.23.21-.47.33-.71a5.49,5.49,0,0,0,.3-.68c-.24-.51-.51-.88-.75-1.34a3.56,3.56,0,0,1,.53-4.11l2-1.84a2,2,0,0,1,1.38-.59,2.31,2.31,0,0,1,1.87,1.1,4.2,4.2,0,0,1,.86,2.16,6.22,6.22,0,0,1,0,.63c0,.24,0,.52,0,.84l0,.88a8.57,8.57,0,0,1-.16,1.26,3.35,3.35,0,0,0,0,1.91,3.72,3.72,0,0,1,.19,1.68,12.82,12.82,0,0,0,.92,6.27,3.67,3.67,0,0,1-.3,3.19,4,4,0,0,0-.44,2V285a12.94,12.94,0,0,0,.35,3.39,4.65,4.65,0,0,1,0,2.27L288,291l.05,0,.46.28c.33.2.66.39,1,.61a3.31,3.31,0,0,1,.31.25,9.14,9.14,0,0,1,.44-2.1c0-.1.12-.34-.24-.95a3.14,3.14,0,0,1-.37-1.46,2,2,0,0,1,.57-1.64,1.85,1.85,0,0,1,1.3-.56,1.93,1.93,0,0,1,1.56.88,4,4,0,0,1,1,2.06c.19,1.88.35,3.77.55,6l.09,1a9.21,9.21,0,0,1-.33,4.19,2.15,2.15,0,0,1-.89,1.14A1.87,1.87,0,0,1,292.46,301.11Zm-7.15-13.26c-.08.16-.16.32-.25.47a4.49,4.49,0,0,0-.43.75c-.16.39-.11.49-.1.53l.33.69c.17.35.33.7.49,1.05a4.1,4.1,0,0,1,0-.63l.1-.57a2.55,2.55,0,0,0,.09-1A9.57,9.57,0,0,1,285.3,287.85Zm.27-8.9,0,.57c0,.56.07,1.12.09,1.68,0,.1,0,.21,0,.31l.14-.28a1.24,1.24,0,0,0,.18-1C285.86,279.82,285.71,279.39,285.57,278.95Zm-1.91-6.5a4.8,4.8,0,0,1,1.2,1.32c0-.35,0-.71.08-1.06a1.15,1.15,0,0,0,0-.47,5.8,5.8,0,0,1-.08-3.38,5.87,5.87,0,0,0,.1-.89l0-.51,0-1.29a1.67,1.67,0,0,0-.19-.68l-1.47,1.38a1,1,0,0,0,0,1,3.21,3.21,0,0,0,.42.6,2.72,2.72,0,0,1,.51,2.83,8.15,8.15,0,0,1-.43,1ZM179.11,300.37c-1.11,0-1.62-1.13-1.86-1.68-.13-.29-.28-.58-.42-.87s-.34-.69-.5-1a2.16,2.16,0,0,1,0-1.45,2.11,2.11,0,0,1,.79-1.09,2.07,2.07,0,0,1,2.49.13,2.22,2.22,0,0,1,.74,1.09,11,11,0,0,1,.29,1.25,3.63,3.63,0,0,1-.13,2.81A1.54,1.54,0,0,1,179.11,300.37Zm168.61-1.2a2.15,2.15,0,0,1-1.19-.37,2.59,2.59,0,0,1-1.13-2.67,3,3,0,0,1,2.14-2.56l.47-.07a2,2,0,0,1,1.37.58,5.6,5.6,0,0,1,.56.75l.36.52,0,.35a3.33,3.33,0,0,1-1.26,3A2.13,2.13,0,0,1,347.72,299.17Zm-177.45-1.87-4.06-2.91,4.53-1.75Zm84.87-.83a2.1,2.1,0,0,1-.73-.13,1.78,1.78,0,0,1-1.25-1.51c-.05-1-.18-2-.3-3-.07-.6-.15-1.2-.21-1.8-.09-.9-.2-1.81-.3-2.71l-.24-2.13a31.13,31.13,0,0,1,0-4.53c0-.39,0-.8.05-1.22h-.59l-.36-.25a1.86,1.86,0,0,1,0-3.24l.71-.54.12.07v0a6.32,6.32,0,0,1,0-2,21.74,21.74,0,0,0,.22-4.85c0-1-.06-2.06,0-3.08a3.66,3.66,0,0,1,.26-1.09,2,2,0,0,1,1.94-1.65l.45,0a2.16,2.16,0,0,1,1.81,1.4,5,5,0,0,1,.19,2.46c0,.41-.08.87-.08,1.44l0,.26c0,.46.08,1.24.2,2s.29,1.56.45,2.33.27,1.27.38,1.91a7.86,7.86,0,0,1,.11,1.92c0,.54-.09,1.08-.15,1.61s-.12,1.09-.15,1.63a4.17,4.17,0,0,0,.08.76c0,.21.07.43.09.64l0,.41a4.81,4.81,0,0,1,0,1.57,21.53,21.53,0,0,0-.25,2.43c-.05.8-.11,1.6-.23,2.39a10.86,10.86,0,0,0-.12,2.9,11.11,11.11,0,0,1-.34,4.27A1.86,1.86,0,0,1,255.13,296.47Zm-.38-23.84c0,.44-.11.88-.2,1.32a4.34,4.34,0,0,0,.05,1.2,33.61,33.61,0,0,1,.07,5.66,29,29,0,0,0,0,4.14l.21,1.85c0-.46.08-.92.11-1.39a24.5,24.5,0,0,1,.29-2.73,2.89,2.89,0,0,0,0-.73l-.06-.52c0-.15,0-.31-.07-.47a6.25,6.25,0,0,1-.11-1.31c0-.6.09-1.19.16-1.78s.11-1,.14-1.48a5.24,5.24,0,0,0-.07-1.28c-.11-.62-.24-1.24-.37-1.85Zm-2.81,4.23a.93.93,0,0,0-.83.41.74.74,0,0,0,.22.88l.53-.88-.07-.1.1.07.06-.1Zm16.6,18.75-.69-.33a1.83,1.83,0,0,1-.9-.64,1.91,1.91,0,0,1,.28-2.56,1.82,1.82,0,0,1,1.2-.47h.33l.36.17a2,2,0,0,1,1,2.46,1.56,1.56,0,0,1-.91,1Zm-5.3-1.27-.28,0a2.44,2.44,0,0,1-1.81-1.13,3.72,3.72,0,0,1-.51-3.73,6.68,6.68,0,0,0,.33-4c-.15-.74-.24-1.5-.32-2.26a4.08,4.08,0,0,1,.48-2.21,2,2,0,0,1,1.89-1.27l.35,0a2,2,0,0,1,1.23.86,5.05,5.05,0,0,1,1,2.62,10.93,10.93,0,0,1,0,1.28v.65a7.53,7.53,0,0,0,.23,2.69,11.58,11.58,0,0,1,.08,4.2A2.7,2.7,0,0,1,263.24,294.34Zm.17-4.91a9.47,9.47,0,0,1-.35,1,1.16,1.16,0,0,0,.24,1.25A9.53,9.53,0,0,0,263.41,289.42Zm84.27,1.45a1.69,1.69,0,0,1-1.55-1.19,2.06,2.06,0,0,1-.26-1.25,32.6,32.6,0,0,0,.12-4.27c0-1.22,0-2.43.05-3.61a23.48,23.48,0,0,1,0-4.8c.07-.93.14-1.85.14-2.78a2.52,2.52,0,0,0-.55-1.67,3.35,3.35,0,0,1-.33-.5,3.26,3.26,0,0,1-.18-3.5,4.83,4.83,0,0,0,.74-3.71,7.94,7.94,0,0,1-.12-1.31l0-.47a2.32,2.32,0,0,1,.63-1.73,2.17,2.17,0,0,1,.76-.51l-.11-.12a2.17,2.17,0,0,1-.54-.65,1.91,1.91,0,0,1-.09-1.56,1.86,1.86,0,0,1,1.09-1l.48-.09a1.79,1.79,0,0,1,1.58,1.21,2,2,0,0,1-.72,2.22,2.51,2.51,0,0,1,1.69,1.87l.06.25a4.38,4.38,0,0,1,.16,1c.06,1.07.11,2.16.14,3.25a14.48,14.48,0,0,1-.88,5.85,1.38,1.38,0,0,0,.09,1.06,5.8,5.8,0,0,1,.46,3.35,5,5,0,0,0,.08,1.24c.06.41.14.82.23,1.23s.19,1,.26,1.43a8.56,8.56,0,0,1,0,3.17,18.92,18.92,0,0,0-.34,3.37,6.12,6.12,0,0,1-1.19,3.3A2.3,2.3,0,0,1,347.67,290.87Zm.67-2.38-1,.67,1.26-.39a.78.78,0,0,0-.11-.15v.11a.77.77,0,0,0,0-.12Zm.28-7.51c0,.52,0,1,0,1.49A5.38,5.38,0,0,0,348.63,281Zm-.35-14.18a8.34,8.34,0,0,1-.88,1.87c-.12.19,0,.48.13.64l-.88,1.09,1.07-.75.16.21A11.64,11.64,0,0,0,348.28,266.81ZM161.56,289.37l-.53-.09a2.09,2.09,0,0,1-1.09-1.06c-.25-.48-.49-1-.71-1.54a3.33,3.33,0,0,1-.08-2.58,11.81,11.81,0,0,0,.72-2.33,1.2,1.2,0,0,0-.16-.78,3,3,0,0,0-.23-.4c-.09-.14-.19-.29-.27-.44a6.06,6.06,0,0,1-.59-4,20.92,20.92,0,0,1,.55-2.21c.1-.34.2-.68.28-1a1.39,1.39,0,0,0-.14-1.11,5,5,0,0,1-.59-3.5,2.33,2.33,0,0,1,2.3-2h.07a2.11,2.11,0,0,1,2,1.36,5.39,5.39,0,0,1,.23,2.75c0,.39-.07.84-.09,1.37h0c0,.17,0,.61.09,1a7.79,7.79,0,0,1-.18,3.83,1.27,1.27,0,0,0-.05.51l0,.41a14.23,14.23,0,0,1,.07,3.92,11.5,11.5,0,0,1,.2,4.91c0,.39-.09.78-.12,1.18A1.8,1.8,0,0,1,161.56,289.37ZM174.2,288a2.29,2.29,0,0,1-2.19-1.72,2,2,0,0,1,1-2.27,2.07,2.07,0,0,1,3.25,2,2.16,2.16,0,0,1-1.37,1.83l-.23.09Zm0-2.62c-.4.11-.52.27-.53.39a.57.57,0,0,0,.28.39,1.45,1.45,0,0,0,.5.07.77.77,0,0,0,.11-.53A.34.34,0,0,0,174.2,285.33Zm62.45,2.27-4.49-.47,2.8-4.43Zm-57.15-.91a2.39,2.39,0,0,1-1.29-.38,1.92,1.92,0,0,1-.82-1.4,1.89,1.89,0,0,1,.51-1.46,2.27,2.27,0,0,1,2.39-.63,1.86,1.86,0,0,1,.82.62l.36.34.05.51a2,2,0,0,1-.06,1.12A2.09,2.09,0,0,1,179.5,286.69Zm17.57-1.35a2.43,2.43,0,0,1-2.17-1.44,5.49,5.49,0,0,1-.08-4.1,3.26,3.26,0,0,1,2.52-2.11,5,5,0,0,1,1-.1l.59,0a2.77,2.77,0,0,1,2.24.91,2.49,2.49,0,0,1,.49,2.07,3.46,3.46,0,0,1-1.66,2.77,3.58,3.58,0,0,0-.87.76,7.87,7.87,0,0,1-1,.9A1.8,1.8,0,0,1,197.07,285.34Zm1.84-6.45-.13,1.32-.39,0a2.23,2.23,0,0,0-.47,0c-.47.11-.56.25-.64.47a2.8,2.8,0,0,0-.13,1.62l.06-.07a5.78,5.78,0,0,1,1.57-1.29c.11-.06.18-.29.26-.78h-.13Zm125.25,3.87a2.06,2.06,0,0,1-2-1.45l-.25-.76a17.83,17.83,0,0,1-.68-2.4,3.23,3.23,0,0,1,1.49-3.67,2,2,0,0,1,2.67.77,4.56,4.56,0,0,1,.47,2.16,3.54,3.54,0,0,0,.06.7l.06.58a5.57,5.57,0,0,1-.3,2.9,1.67,1.67,0,0,1-1.47,1.16Zm7.39-2.3a2.06,2.06,0,0,1-1.6-.83,2.13,2.13,0,0,1-.45-1.8,2.59,2.59,0,0,1,.24-.62,2,2,0,0,1,1.85-1.36l.57.08a2.11,2.11,0,0,1,1.46,1.85l0,.15v.15a3.47,3.47,0,0,1-.09.72,2.13,2.13,0,0,1-1.62,1.61Zm-.36-2.34-.16,0a.66.66,0,0,0,.38.31l.18,0a.77.77,0,0,0,.3-.06l.15.06a1,1,0,0,0,0-.17.42.42,0,0,0,.12-.14l-.13,0A.34.34,0,0,0,332,278l-.47.07-.43-.06-.05.05Zm10.27,1a1.59,1.59,0,0,1-1.24-.58,1.86,1.86,0,0,1-.34-1.58,1.59,1.59,0,0,1,1.62-1.2l.41.06a1.48,1.48,0,0,1,1,.87l.46.69-.43.72a1.55,1.55,0,0,1-1,.95Zm-.71-1a1.21,1.21,0,0,0,.58.27l.18,0a1.09,1.09,0,0,0,1-1,.92.92,0,0,0-.22-.53l-.57.47.12.07-.25.16,0,.22-.06-.19.06.19-.17-.12ZM167,276a1.8,1.8,0,0,1-1.76-1.7l-.05-.31a6.35,6.35,0,0,1-.11-.86c0-.65,0-1.29,0-1.5l.17-1.87a4,4,0,0,0-.53-1.9,3,3,0,0,1-.05-2.47,3.38,3.38,0,0,1,2.09-1.8c1.12-.39,3,.33,3.06,1.73a8.38,8.38,0,0,0,.63,3.12,3.05,3.05,0,0,1,0,2.73,9.27,9.27,0,0,0-.59,1.75,14.62,14.62,0,0,1-.53,1.67A3.09,3.09,0,0,1,167,276Zm.82-7a4.66,4.66,0,0,1,0,1l-.08.86a7.58,7.58,0,0,1,.37-.85.68.68,0,0,0-.08-.41C167.93,269.37,167.85,269.18,167.78,269Zm-.58-2.75a.5.5,0,0,0-.18.2.42.42,0,0,0,0,.34c.11.23.21.47.31.72C167.29,267.07,167.24,266.64,167.2,266.24Zm5.22,9.14-.54-.09a2,2,0,0,1-1.17-2.4,4.37,4.37,0,0,1,.44-1.24,1.59,1.59,0,0,1,1.44-.78l.61.1a1.89,1.89,0,0,1,.86.67l.32.52a2.4,2.4,0,0,1-.2,1.91A2,2,0,0,1,172.42,275.38Zm6.81-.7-1.16-.72a1.7,1.7,0,0,1-.6-.48l-1.93-.41,2-1.72,2.84-4.69-.44,4.85.26.08L180,272l0,.11.21.57-.34.76Zm17.19-1.23a2,2,0,0,1-2-1.64,6.42,6.42,0,0,1-.2-1.32,7.39,7.39,0,0,1,0-1.32l.16-1.06c.08-.52.16-1,.21-1.56a10.49,10.49,0,0,0,0-1.08c0-.33,0-.66,0-1a1.72,1.72,0,0,1,2.68-1.53,2,2,0,0,1,.93,1.14,4.92,4.92,0,0,1,.21,1.48c0,.7-.08,1.41-.15,2.17l-.06.69c0,.16,0,.44.08.73a6.16,6.16,0,0,1-.08,2.63,2,2,0,0,1-1.91,1.65Zm44.35-.1-.92-2.34a1.58,1.58,0,0,1-.16-1.29,1.54,1.54,0,0,1,1.46-1.21c.29,0,1.27.11,1.46,1.53l.07.54-.51.68Zm-.06-3.07-.7.09a1.2,1.2,0,0,0,1.14.76v-.63l-.07,0Zm51.06,1.54a2.49,2.49,0,0,1-1.3-.31,4.14,4.14,0,0,1-1.94-3.22,5.31,5.31,0,0,1,.34-2.79,2.25,2.25,0,0,0,.19-1.49l0-.14v-.14a14.67,14.67,0,0,1,.08-1.51,2.77,2.77,0,0,1,2.67-2.29l.53.06a5.27,5.27,0,0,1,1.94.77,8.87,8.87,0,0,1,1.76,1.78,4.74,4.74,0,0,1,0,5.61c-.67.86-1.37,1.68-2.07,2.49l-.39.45a2.11,2.11,0,0,1-1.39.72Zm0-9.25a2.78,2.78,0,0,0-.15,1,4.9,4.9,0,0,1-.39,3,2.76,2.76,0,0,0-.14,1.45,1.56,1.56,0,0,0,.61,1.21l.25-.29c.67-.78,1.34-1.56,2-2.38a2.13,2.13,0,0,0-.06-2.43,6.27,6.27,0,0,0-1.22-1.25A3.09,3.09,0,0,0,291.82,262.57Zm31.25,8.15a1.79,1.79,0,0,1-1.82-1.77c0-.08,0-.18-.05-.28a4.48,4.48,0,0,1-.11-.89c0-.54,0-1.09,0-1.65s0-1.4,0-2.09a7.68,7.68,0,0,0-.2-1.82,6.49,6.49,0,0,1,.19-3.92,5.33,5.33,0,0,0,.16-.55c0-.06-.14-.38-.25-.63a6.57,6.57,0,0,1-.61-3.23l.15-1.68c.09-1.06.18-2.11.3-3.17a2.1,2.1,0,0,1,1.94-1.88h.08a2.07,2.07,0,0,1,1.9,1.87c.2,1.22.39,2.48.58,3.76l.11.73-.15,1a16.5,16.5,0,0,1-.37,2,3.51,3.51,0,0,0,.14,2.33,8.37,8.37,0,0,1,.32.88l1-.12h.08a2.49,2.49,0,0,1,1.76,1.12,2.44,2.44,0,0,1,.4,2.15,1.92,1.92,0,0,1-.57.82l-.41.47-.63,0a2.34,2.34,0,0,1-1.64-.69,8.45,8.45,0,0,0,.26,2.33l.15.76a4.82,4.82,0,0,1-.36,2.89,2.41,2.41,0,0,1-1.77,1.27Zm-22.73-1.91a1.86,1.86,0,0,1-1.39-.71,2,2,0,0,1,.08-2.73,6.13,6.13,0,0,1,1-.77l.43-.29a4,4,0,0,1,2.24-.76l.39,0-.42-1.13,1.63.63a1.76,1.76,0,0,1,.61-.26l.4,0a1.62,1.62,0,0,1,1.33.68,1.65,1.65,0,0,1,.18,1.53,2.09,2.09,0,0,1-.19.37l.35.74h-.25l.28.87-1.84-.73,0,0a7,7,0,0,1-4.53,2.54Zm-59.59-.7a2.2,2.2,0,0,1-1.72-.8,1.57,1.57,0,0,1-.17-1.68,2.46,2.46,0,0,1,2.08-1.35l.47.06a1.89,1.89,0,0,1,1.17,1.14,1.82,1.82,0,0,1-1.29,2.58Zm0-2.62a.77.77,0,0,0-.54.42.76.76,0,0,0,0,.6.92.92,0,0,0,.52.35l.25,0a.51.51,0,0,0,.24,0,1,1,0,0,0-.11-1.21A.43.43,0,0,0,240.75,265.48Zm-19.59.38a2.58,2.58,0,0,1-1.41-.43,8.86,8.86,0,0,1-.81-.61,2.26,2.26,0,0,1-.64-3.24c.54-.72,1.09-1.42,1.65-2.1a2,2,0,0,1,3.4.8,9.44,9.44,0,0,1,.36,1.16,3.54,3.54,0,0,1,.08.55l0,.25-.14.89c-.08.33-.17.7-.29,1.06A2.33,2.33,0,0,1,221.16,265.85Zm-102.92-1a3.32,3.32,0,0,1-2.48-1.19,3.05,3.05,0,0,1-.73-2.45,1.85,1.85,0,0,1,1.82-1.62l.61.1a4.35,4.35,0,0,1,2.63,2.43,3.15,3.15,0,0,1,.2.59l.22.89-.72.69a2,2,0,0,1-.75.46A2.9,2.9,0,0,1,118.23,264.82Zm159.52-2.55A1.81,1.81,0,0,1,276,261c-.1-.34-.19-.68-.28-1a1.45,1.45,0,0,1-.24.2,3.14,3.14,0,0,1-4.62-1.21l-.17-.51a4.21,4.21,0,0,0-.16-.46,2,2,0,0,1-.07-1.64,1.89,1.89,0,0,1,1.06-1,2.87,2.87,0,0,1,1.87-.13,4.47,4.47,0,0,1,2.2,1.49,2.6,2.6,0,0,1,.25-.38,2.11,2.11,0,0,1,1.55-.86h.09a2.6,2.6,0,0,1,2.33,2.19,4.91,4.91,0,0,1,.09.64c0,.32,0,.6,0,.81l-.09.88c0,.32-.08.59-.14.84a2.07,2.07,0,0,1-.94,1.21A1.94,1.94,0,0,1,277.75,262.27Zm-22.07-.19a1.85,1.85,0,0,1-1.64-.87,5,5,0,0,1,.16-4.71,1.82,1.82,0,0,1,1.58-.89h0a2,2,0,0,1,1.44.62,2,2,0,0,1,.47,1.53c0,.26-.09.53-.15.78l-.06.28h0s0,.18.05.31a2.79,2.79,0,0,1-.38,2.2A2,2,0,0,1,255.68,262.07Zm50.83-1.58a2.77,2.77,0,0,1-2.38-1.67,2.18,2.18,0,0,1,.2-2.3,10,10,0,0,1,.74-.9,1.9,1.9,0,0,1,1.43-.67,2,2,0,0,1,1.3.5,3.51,3.51,0,0,1,1.17,2.08,2.78,2.78,0,0,1-.78,2.15A2.33,2.33,0,0,1,306.51,260.49ZM110.41,260l-.66-.12a2.05,2.05,0,0,1-1.25-2.24,1.76,1.76,0,0,1,1.74-1.77l.6.1a1.94,1.94,0,0,1,1.12,1,2.3,2.3,0,0,1,.19.8l0,.39A1.8,1.8,0,0,1,110.41,260Zm0-1.82-.12.31a.92.92,0,0,0,.85-.63.78.78,0,0,0-.44-.44l-.24.64.43,0Zm184,1.71-.86-1a1.49,1.49,0,0,1,.14-2.47l1-1,.89,1.16.22.27.89,1Zm-150.3-.69a2.44,2.44,0,0,1-2-1,2.28,2.28,0,0,1-.52-1.12c-.13-.86-.24-1.78-.35-2.69l-.15-1.25,0-.19a16.85,16.85,0,0,0,.09-3.74,25.27,25.27,0,0,1,0-3.16,2,2,0,0,1,1.87-1.88h.12a2,2,0,0,1,2,1.6c.14.55.26,1.12.35,1.7a14.23,14.23,0,0,1,.13,1.8c0,.78,0,1.57,0,2.82v2.1a15.52,15.52,0,0,1-.13,3.44A1.64,1.64,0,0,1,144.13,259.19Zm17.14-1.28a1.6,1.6,0,0,1-1.64-1,1.59,1.59,0,0,1,.66-1.8l.61-.49.72.3.46.21,1.28.65L162.6,257A1.44,1.44,0,0,1,161.27,257.91Zm.12-1.46.53.68h0a1.13,1.13,0,0,0,.18-1.08,1.11,1.11,0,0,0-.82-.75l0,.86.21.13-.09.17-.12-.15.12.15Zm123.45,1.27a1.75,1.75,0,0,1-1.26-.55,2.5,2.5,0,0,1-.67-1.78,4.21,4.21,0,0,1,.3-1.4,1.79,1.79,0,0,1,1.6-1.17h.11a1.81,1.81,0,0,1,1.46,1.16,7.2,7.2,0,0,1,.25.86l.11.55a2.27,2.27,0,0,1-1,2l-.34.23Zm-170.35-.51.52-5.17a1.84,1.84,0,0,1-.71-2.15,1.64,1.64,0,0,1,.88-.95l1.16-.8.7,1.23a4.18,4.18,0,0,1,.31.58c.09.18.2.44.31.7l.26.62-.44,1Zm81.81-.47-1-1.18a1.56,1.56,0,0,1-.5-1.55l.1-.35-2,.47,2.2-2.6-.07-.59.54-.13c0-.13,0-.29.06-.46a4.56,4.56,0,0,1,.37-1.52,2.11,2.11,0,0,1,1.39-1.18l-.2-.19a1.78,1.78,0,0,1-.34-1.52,1.67,1.67,0,0,1,1.57-1.28h.32l.31.15a1.74,1.74,0,0,1,.69.7l.33.56-.35,1.4-.67.39a2.07,2.07,0,0,1,1,1.32c.1.34.21.72.28,1.11a2.81,2.81,0,0,1,0,1,2.61,2.61,0,0,1-2.48,2.27,2.81,2.81,0,0,1,0,1.15l-.09.38Zm2.16-10.09v.64a1,1,0,0,0,1-.87.87.87,0,0,0-.22-.63l-.59.49.08,0-.18.14,0,.24-.07-.21.07.21ZM112.58,256h-.29l-.5-.18a2,2,0,0,1-.92-2.55,1.73,1.73,0,0,1,1.07-1.19l.62-.1a1.87,1.87,0,0,1,1.8,1.38,2.16,2.16,0,0,1,.11.69l0,.35-.15.45A2,2,0,0,1,112.58,256Zm106.73-.38a2,2,0,0,1-.92-.24,2.06,2.06,0,0,1-.89-.63,4.41,4.41,0,0,1-.74-1.36,6.8,6.8,0,0,1,.22-4.6,2.73,2.73,0,0,0,.08-1.83c-.25-1-.47-1.93-.69-2.9l-.09-.39a2.05,2.05,0,0,1-1,1.18,2.15,2.15,0,0,1-3.06-1.34,2.34,2.34,0,0,1,1.39-2.76l.58-.1a2.15,2.15,0,0,1,1.6.76,8.53,8.53,0,0,1,.39-5.36c.08-.18.13-.39-.16-.86a7.35,7.35,0,0,1-1.15-5.62,16.34,16.34,0,0,0,0-5.52l-.12-.93a21.16,21.16,0,0,1-.16-6.49,5.74,5.74,0,0,0-.12-1.73,12,12,0,0,1,0-4.25,9.91,9.91,0,0,0,0-2.86,37.79,37.79,0,0,1,0-9.55,4.55,4.55,0,0,0,.08-1.22,28.83,28.83,0,0,1-.16-4.92l0-1.28a10.66,10.66,0,0,0-.59-4.76,2.67,2.67,0,0,1,0-1.85,5.29,5.29,0,0,1,.3-.87,2.94,2.94,0,0,0,.14-.37,21.35,21.35,0,0,1,0-4,23.4,23.4,0,0,0,.08-3.08c-.09-1.35-.1-2.71-.11-4.07,0-.84,0-1.67,0-2.5a10.19,10.19,0,0,0-.54-2.85c-.22-.74-.41-1.46-.59-2.18a4.63,4.63,0,0,1,.2-3,2.82,2.82,0,0,0,.16-2.2,5.26,5.26,0,0,1,.16-4.18,3.1,3.1,0,0,0,.29-1.49l0-1a20.15,20.15,0,0,0-.14-2.18,20.79,20.79,0,0,1-.12-4.64,17.36,17.36,0,0,0-.21-5,6.22,6.22,0,0,1,.21-3.41,16.16,16.16,0,0,0,.76-4.12l0-.35a2.06,2.06,0,0,1,.69-1.28l.37-.33,1.25-.1.48.44a2.06,2.06,0,0,1,.48,1.51,19.56,19.56,0,0,0,.29,4.16l0,.79a13.25,13.25,0,0,1,0,1.65,9.58,9.58,0,0,0,.22,3.83,4.69,4.69,0,0,1,.19,2.23,15,15,0,0,0-.13,3.35,18.55,18.55,0,0,1-.12,3.66c-.09.54,0,1.18,1,2a1.94,1.94,0,0,1,.81,1.41,2.54,2.54,0,0,1-.81,1.88c-.44.46-.53.73-.52,1v.44a21.1,21.1,0,0,1,0,3.08c0,.64-.07,1.27-.06,1.9v.85a20.9,20.9,0,0,1-.22,4.29,1.11,1.11,0,0,0,0,.41,9.31,9.31,0,0,1,.32,3.83c0,.48-.06,1-.05,1.43a41.79,41.79,0,0,1-.1,4.49c-.06.59.1.78.47,1a3.31,3.31,0,0,1,1.59,2.08,6.9,6.9,0,0,1,.16,2,3.35,3.35,0,0,1-1.95,2.71,8.75,8.75,0,0,0,.16,1.91l.06.41a8.68,8.68,0,0,1,1.2,4.25,1.86,1.86,0,0,0,.21.67,5.16,5.16,0,0,1,.35.87,3.86,3.86,0,0,1-.79,3.76l-.47.47a1.22,1.22,0,0,0-.48.94c0,1.89,0,3.78.08,5.67l0,1.42a2.14,2.14,0,0,1,2.3,1.43,5.5,5.5,0,0,1,.36,2.76,10.46,10.46,0,0,1-.41,1.8,3.21,3.21,0,0,0-.09,1.91,14.68,14.68,0,0,1,.67,4.71c0,1,0,1.93.11,2.89a21.36,21.36,0,0,1,0,4.89,4.76,4.76,0,0,0,.09,1.3l.07.5a43.41,43.41,0,0,1-.37,11.76,6,6,0,0,0,0,2.22c.17.79.32,1.59.48,2.39l.16.83a5.85,5.85,0,0,1-.13,2.76c-.36,1.35-.76,2.73-1.17,4.1A1.85,1.85,0,0,1,219.31,255.6Zm.5-7.75a5.15,5.15,0,0,1-.39,1.93,4.25,4.25,0,0,0-.32,1.72c.21-.74.42-1.47.61-2.2A3.29,3.29,0,0,0,219.81,247.85Zm-2.69-37.39c0,.23-.06.46-.1.68a9.26,9.26,0,0,0,0,3.32,7.79,7.79,0,0,1,.11,2.6,18.89,18.89,0,0,0,.17,5.71l.12.95a19.12,19.12,0,0,1-.07,6.4,4.81,4.81,0,0,0,.83,3.69,3.4,3.4,0,0,1,.34,3.24,6.07,6.07,0,0,0-.21,4c.21.82.39,1.64.58,2.46l.14.63a8.85,8.85,0,0,1,.05-2.72,40.81,40.81,0,0,0,.35-11l-.06-.42a6.77,6.77,0,0,1-.08-2.1,19.11,19.11,0,0,0,0-4.3c-.08-1-.15-2.09-.12-3.14a12.07,12.07,0,0,0-.55-3.88,5.77,5.77,0,0,1,.1-3.45,7.77,7.77,0,0,0,.31-1.35,2.85,2.85,0,0,0-.07-1.08A1.91,1.91,0,0,1,217.13,210.46ZM217,191.65v.5a26.47,26.47,0,0,0,.14,4.46,6.47,6.47,0,0,1-.07,2,4.47,4.47,0,0,1,.6-.68l.35-.34a1.24,1.24,0,0,0,.19-1.27,2.46,2.46,0,0,0-.18-.42,3.83,3.83,0,0,1-.43-1.31A8.74,8.74,0,0,0,217,191.65Zm-.74-6.54a8,8,0,0,1,.31.82,2.9,2.9,0,0,1,.93-.77c.54-.29.56-.53.57-.62a4.26,4.26,0,0,0-.1-1.21.7.7,0,0,0-.34-.4,3.76,3.76,0,0,1-.84-.64c0,.15,0,.31,0,.46a3.09,3.09,0,0,1-.33,1.6,2.46,2.46,0,0,0-.14.38C216.26,184.9,216.23,185,216.21,185.1ZM216,161.36a7.52,7.52,0,0,1-.34,1,2,2,0,0,0-.07,1.32c.09.39.19.78.3,1.16v-.45c0-.69,0-1.38.06-2.08C215.93,162,215.95,161.67,216,161.36Zm.19-5.95a5.56,5.56,0,0,1-.27.67,2.65,2.65,0,0,0-.06,2.16c0,.12.08.23.12.35a4,4,0,0,1,1-2.26A5.4,5.4,0,0,1,216.15,155.41Zm78.36,99.1a1.84,1.84,0,0,1-1.84-1.59,6,6,0,0,1-.17-1.31c0-.52,0-1.05.06-1.37,0-.77,0-1.29,0-1.78a8.43,8.43,0,0,1,.4-3.67,1.77,1.77,0,0,1,2.8-.76,3.3,3.3,0,0,1,1.13,1.21,5.61,5.61,0,0,1,.57,2,16.69,16.69,0,0,1-.75,5.68,2.1,2.1,0,0,1-1.83,1.54Zm47.85-.72a2,2,0,0,1-1.64-.8,1.81,1.81,0,0,1-.23-1.54,1.9,1.9,0,0,1,1.19-1.26,1.75,1.75,0,0,1,.65-.12,1.78,1.78,0,0,1,1.75,1.58,1.86,1.86,0,0,1-.38,1.55A1.74,1.74,0,0,1,342.37,253.78Zm0-2.62a.89.89,0,0,0-.67.32.83.83,0,0,0-.22.59.87.87,0,0,0,.84.62.69.69,0,0,0,.24,0,.69.69,0,0,0,.43-.47.82.82,0,0,0-.13-.68.77.77,0,0,0-.49-.34Zm-86.21-.49h-.77l-.6-.73a7,7,0,0,1-.87-6.25,1.62,1.62,0,0,0,0-1.21,7.61,7.61,0,0,1-.45-1.91c-.06-.55-.09-1.11-.12-1.67s-.08-1.38-.17-2.06a12,12,0,0,1,.12-3.65l.1-.49a2.84,2.84,0,0,0,.11-.7,25.73,25.73,0,0,1-.14-4.07,18.63,18.63,0,0,0-.27-4.49,3.52,3.52,0,0,1,.22-2.07,2,2,0,0,1,2.54-1.5,1.85,1.85,0,0,1,1.19,1.17,10.79,10.79,0,0,1,.44,1.79,9.52,9.52,0,0,1,0,1.09,3.4,3.4,0,0,0,.14,1.24,14.23,14.23,0,0,1,.58,6.14c0,.15,0,.41,0,.83l.28.25a2.8,2.8,0,0,1,.9,3.55l-.23.42c-.09.16-.18.31-.25.47l-.19.39a2.8,2.8,0,0,0-.27.67l0,.63a18.6,18.6,0,0,1-.63,4.24V243c0,.74.09,1.48.16,2.21,0,.3.07.59.12.88a6.9,6.9,0,0,1-.1,3.41,1.79,1.79,0,0,1-1.19,1.11A2.84,2.84,0,0,1,256.19,250.66Zm-.36-16.41a9,9,0,0,0,0,2.24c0,.37.09.75.12,1.12a4.59,4.59,0,0,1,.53-1.57l.15-.32c.11-.23.23-.46.36-.68l.18-.33s-.05-.15-.25-.32l-.15-.14Zm92.81,16.29a2.31,2.31,0,0,1-1.14-.31,2.19,2.19,0,0,1-1.11-2.15,3,3,0,0,1,1.13-2.33l.35-.26h.43l.36,0H349l.49.22a3,3,0,0,1,1.3,2.32,2.17,2.17,0,0,1-1,2.2A2.14,2.14,0,0,1,348.64,250.54Zm-111.08-2a2.69,2.69,0,0,1-1.33-.36,2.43,2.43,0,0,1-.85-.85,2,2,0,0,1-.14-1.66,2.45,2.45,0,0,1,1.34-1.49l.31-.13.67,0,.75.25a2.66,2.66,0,0,1,1.17,2.59A1.85,1.85,0,0,1,237.56,248.56Zm-82.72-.1c-1,0-1.48-1.15-1.5-1.2l-.24-.65.87-1.56,1.29.12.64.35a1.6,1.6,0,0,1,.61,1.49,1.72,1.72,0,0,1-1.17,1.34Zm-.61-2.48a1.18,1.18,0,0,0-.32.66,1,1,0,0,0,.31.9l.48-.65-.47-.91Zm-52.92,1.76-4.15-.6,2.58-5Zm238.85-1.09-.91-.81a1.62,1.62,0,0,1-.59-1.33,1.57,1.57,0,0,1,.75-1.17l1-.73.86.85h0a1.66,1.66,0,0,1,.6,1.27,1.63,1.63,0,0,1-.76,1.23Zm55,0-.67-.12a1.93,1.93,0,0,1-1.06-1.05,2.78,2.78,0,0,1,0-2.09,2,2,0,0,1,1.86-1.29l.45,0a2.22,2.22,0,0,1,1.42,1,2.32,2.32,0,0,1,.29,1.76A2.43,2.43,0,0,1,395.15,246.61Zm-292-1.08a2.23,2.23,0,0,1-1.72-.79,3.3,3.3,0,0,1-.34-3.79,2.08,2.08,0,0,1,1.89-1.19l.29,0-.11,1.32.37-1.26a2,2,0,0,1,.77.28,2.92,2.92,0,0,1,1.24,2.05,3.38,3.38,0,0,1-.73,2.62A2.14,2.14,0,0,1,103.17,245.53Zm137.91-.06h-.25l-.45-.14a2,2,0,0,1-1.13-1.21c-.46-1.51-.91-3-1.33-4.45l-.09-.29.07-.82a4.21,4.21,0,0,1,.21-1,9.38,9.38,0,0,0,.46-4.69,22,22,0,0,1-.06-4.59,24.61,24.61,0,0,0-.34-7.64,2.19,2.19,0,0,1,.09-1.35,4.39,4.39,0,0,1,.65-1.26l.39-.49.73,0a2.68,2.68,0,0,1,2.36,2.23c0,1.59.13,3.17.24,4.76a55.32,55.32,0,0,1,.14,8.33,9.17,9.17,0,0,0,.11,1.88c.12,1,.24,2,.37,3,.17,1.34.34,2.68.49,4a3.86,3.86,0,0,1-1,3A2.17,2.17,0,0,1,241.08,245.47Zm-.6-6.39.55,1.87c-.11-.93-.23-1.86-.35-2.79l-.12.32a2.91,2.91,0,0,0-.06.4ZM322.78,245h-.31l-.42-.17a2.26,2.26,0,0,1-1.21-2,2,2,0,0,1,1.64-2.21l.27,0a1.92,1.92,0,0,1,1.87,1.85,2.57,2.57,0,0,1-.57,2A1.69,1.69,0,0,1,322.78,245Zm-51.17-1.33a2,2,0,0,1-1.84-1.22,1.88,1.88,0,0,1-.12-1.66,1.8,1.8,0,0,1,1.23-1,2.35,2.35,0,0,1,.69-.11h.31l.46.17a2,2,0,0,1,.91,2.58,1.8,1.8,0,0,1-1.23,1.21Zm-.75-2.25a.67.67,0,0,0,.26.74l.45-.82V241A1.32,1.32,0,0,0,270.85,241.41Zm-127.18,2.16a2,2,0,0,1-1.93-1.47,12.42,12.42,0,0,1-.41-4.13,1.88,1.88,0,0,1,1-1.62l.25-.11.5,0a2.09,2.09,0,0,1,1.69.93,3.87,3.87,0,0,1,.66,1.47c.1.5.16,1,.21,1.49l.08.63-.11.94a2,2,0,0,1-1.58,1.9ZM284,243.45h-1.58l.23-1.23-.08-.11,0-.12a1.31,1.31,0,0,1,.07-1l.36-.75h1.23l1.3.77-.1.48.49.53-1.3,1.28ZM114.06,243a2.06,2.06,0,0,1-1.83-1.13,2.19,2.19,0,0,1-.09-1.88,2.08,2.08,0,0,1,1.34-1.18l.54-.08a2.25,2.25,0,0,1,2.13,2.17,2,2,0,0,1-1.6,2Zm0-2.62.16.95a.53.53,0,0,0,.31-.29.45.45,0,0,0,0-.38A.59.59,0,0,0,114.08,240.38Zm183.47,2-.84-1.1a2.26,2.26,0,0,1-.21-.23l-.17.23a2.17,2.17,0,0,1-1.64.85l-.51-.08a2.13,2.13,0,0,1-1.46-1.86c0-.22,0-.44-.05-.65s0-.26,0-.42l.14-1.87a1.74,1.74,0,0,1,1.68-1.77h.32l.46.19a2,2,0,0,1,1,1.23c.18.71.34,1.43.5,2.14a2.56,2.56,0,0,1,.25-.2l1-.68,1.07,1.09.81,1Zm78.28-.09.43-4.66,4.26,2.8Zm-27.43-.22-.51-.07a1.66,1.66,0,0,1-1.41-1.5,58.15,58.15,0,0,1-.21-7c0-1,0-2,0-2.92l0-1.3a2.14,2.14,0,0,1,.66-1.52,2.19,2.19,0,0,1,1.52-.69h.44l.55.33a4.48,4.48,0,0,1,1,1,2.16,2.16,0,0,1,.33,1.15c0,.36,0,.63,0,.85l0,1.18a13.87,13.87,0,0,1-.48,4.32,4.44,4.44,0,0,0,0,1.73c0,.34.06.68.07,1l0,.41a5.86,5.86,0,0,1,0,1.38A1.86,1.86,0,0,1,348.41,242.11Zm-71.54-1.35a2.13,2.13,0,0,1-2-2.41,6,6,0,0,1,.41-1.26,1.82,1.82,0,0,1,.88-.82l.31-.19h.43a1.89,1.89,0,0,1,1.87,1.67,2.5,2.5,0,0,1-.83,2.65A1.84,1.84,0,0,1,276.87,240.75Zm-110-.13a3.06,3.06,0,0,1-1.78-.55A3.2,3.2,0,0,1,164,237.7c-.08-1.24.49-2.62,1.7-2.76l.28,0a2.71,2.71,0,0,1,1.67.62,4.16,4.16,0,0,1,1.44,1.74,2.4,2.4,0,0,1,.16.67l0,.37A2.6,2.6,0,0,1,166.85,240.63Zm140.69-2.26-3.3-2.66.1.67h0l.16,1.19-2.33-.83-4.52-1.86,3.74-.51-.7-4.66,3.26,4.83a1.37,1.37,0,0,0-.95-.38l0,.45.12-.3.24.1-.32.78v0l1.07-.16v0l4.2-1.32Zm-111.09,0a1.73,1.73,0,0,1-1.69-1.84,1.85,1.85,0,0,1,1.76-2h0a1.74,1.74,0,0,1,1.54,1.19,2.07,2.07,0,0,1,.06,1l-.06.38-.27.44a1.63,1.63,0,0,1-1,.77Zm.21-1.68.06.49a.78.78,0,0,0,.67-.69.93.93,0,0,0-.94-.75,1.8,1.8,0,0,0-.52.16l.63.55v-.58l.07.63h0l.23.2Zm53.33-.15a2.39,2.39,0,0,1-2.14-1.38,4.71,4.71,0,0,1-.29-.67,2.75,2.75,0,0,1,.69-2.72,2.45,2.45,0,0,1,3.89.74,5.26,5.26,0,0,1,.25.89l.1.56a2.5,2.5,0,0,1-1.76,2.45A2.33,2.33,0,0,1,250,236.48Zm71.91-.12a1.76,1.76,0,0,1-1.71-1.6,3.81,3.81,0,0,1,.35-3,1.45,1.45,0,0,1,1.36-.64l.44-.06.38.23a2.75,2.75,0,0,1,.95,3.94,2.13,2.13,0,0,1-.95.89A1.87,1.87,0,0,1,321.92,236.36Zm-48-.69-.74-.51a1.66,1.66,0,0,1-.9-1,1.91,1.91,0,0,1,.22-1.72,1.74,1.74,0,0,1,1.45-.75h0a1.74,1.74,0,0,1,1.45.8,2,2,0,0,1,.13,1.83,1.73,1.73,0,0,1-.91.87Zm-.63-2.6a1.16,1.16,0,0,0-.13.23.68.68,0,0,0,.09.62.87.87,0,0,0,.69.4v-.22l-.23-.36-.17.06.12-.14ZM107.6,235.53a2.31,2.31,0,0,1-2.25-1.85,2.25,2.25,0,0,1,.16-1.32,2,2,0,0,1,1.78-1.18l.6.09a2.27,2.27,0,0,1,1.78,2.6,2.1,2.1,0,0,1-1.74,1.64Zm0-2.62a.59.59,0,0,0-.48.36.57.57,0,0,0,.13.56l0,0a.69.69,0,0,0,.59-.32.44.44,0,0,0,.06-.28A.33.33,0,0,0,107.6,232.91Zm183.59,2.38a1.81,1.81,0,0,1-1.77-1.44,2,2,0,0,1,1.42-2.27l.39-.06a1.56,1.56,0,0,1,1.28.78l.15.24a6.51,6.51,0,0,1-.16-2.63c0-.35.06-.7.05-1.08l.06-.61c0-.32.06-.68.12-1a1.9,1.9,0,0,1,1.27-1.44l.47-.07a2,2,0,0,1,1.81,1.49,11.45,11.45,0,0,1-.06,5.41,1.92,1.92,0,0,1-1.2,1.37l-.55.09a1.85,1.85,0,0,1-1.61-1,1.77,1.77,0,0,1-1.67,2.28Zm.19-1.92.21.73a.65.65,0,0,0,.42-.7.84.84,0,0,0-.91-.73.83.83,0,0,0-.63.37.81.81,0,0,0-.14.61l.41-.14.5-.45v-.21l0,.17.07-.07,0,.24,0,.1.2-.07Zm104.29.56a2.39,2.39,0,0,1-2.38-1.68l-.07-.26a3.86,3.86,0,0,1-.2-1c0-.58,0-1.17,0-1.63l0-.36a5.25,5.25,0,0,0,.08-1.31,4.31,4.31,0,0,1,.3-2.08,1.56,1.56,0,0,1,1.49-.86h.39l.42.23a7.56,7.56,0,0,1,1.74,2.18,8.3,8.3,0,0,0,.71,1.08,3.24,3.24,0,0,1,.28,3.45,6.56,6.56,0,0,1-1.19,1.63A2.23,2.23,0,0,1,395.68,233.92Zm0-4.74,0,.12v.16c0,.41-.05.92,0,1.42a1.77,1.77,0,0,0,.06.24,3,3,0,0,0,.42-.61.83.83,0,0,0,.07-.65A7.31,7.31,0,0,1,395.7,229.18Zm-254.9,4.48a2.18,2.18,0,0,1-1.85-1.19,5.38,5.38,0,0,1-.9-3.39,2,2,0,0,1,1.63-2l.22,0a2.35,2.35,0,0,1,1.56.77,2.29,2.29,0,0,1,.82,1.25c.16.62.29,1.25.39,1.71l.07.52c-.08,1.67-.88,2.2-1.54,2.35Zm214.58-1.84a2.1,2.1,0,0,1-1.6-.82,1.94,1.94,0,0,1-.16-2.53,2,2,0,0,1,2.59-.47,2,2,0,0,1,.93,2.42,1.83,1.83,0,0,1-1,1.24l-.24.1Zm0-2.62v1.12a.62.62,0,0,0,.28-.19.8.8,0,0,0,.12-.82A.78.78,0,0,0,355.39,229.2Zm-70.68.43a1.44,1.44,0,0,1-1.26-.62,7.3,7.3,0,0,1-.4-7.4,2,2,0,0,1,1.55-1h.08a1.75,1.75,0,0,1,1.57,1.3c.3,1.24.59,2.46.85,3.69a4,4,0,0,1,.05,1.07v.74l-.43.61c-.24.34-.49.69-.76,1l-.39.48Zm-181.1-.29a2.66,2.66,0,0,1-2.37-1.75,4.26,4.26,0,0,1-.09-1.56,2.48,2.48,0,0,1,2.57-2.06l.45.05c.52.14.93.25,1.33.39a2.05,2.05,0,0,1,1.42,2.13,2.21,2.21,0,0,1-1.1,2,9.14,9.14,0,0,1-1.63.71Zm61.85-.41a1.94,1.94,0,0,1-1.67-1,3,3,0,0,1-.58-1.65,9.85,9.85,0,0,1,.27-2.4,10.83,10.83,0,0,0,.28-3.32l0-.58c0-.73-.1-1.45-.1-2.18s.06-1.48.12-2.23l0-.54a4.88,4.88,0,0,1,.87-2.4l-.07-.06.1-.1a3.42,3.42,0,0,1-.59-3,1.94,1.94,0,0,1,1-1.21l.3-.17.54-.06a1.76,1.76,0,0,1,1.69,1.6,5.62,5.62,0,0,1,0,1.41c0,.13,0,.25,0,.36l1.43.68-.79.65a2.27,2.27,0,0,1,.09,1.5,8.22,8.22,0,0,0-.42,2.27q-.05,4.83-.15,9.67a4.48,4.48,0,0,1-.33,1.45,2.06,2.06,0,0,1-.91,1A2.19,2.19,0,0,1,165.45,228.93Zm-55.52-.17a2.11,2.11,0,0,1-.85-.18,2.33,2.33,0,0,1-1.41-1.3,2.46,2.46,0,0,1,.19-2,2,2,0,0,1,2.44-1,2.16,2.16,0,0,1,1.58,1.45,2.66,2.66,0,0,1-1.19,2.94l-.27.13Zm71.45-2.4a1.85,1.85,0,0,1-1-.26,1.88,1.88,0,0,1-.82-1.24,2.35,2.35,0,0,1,0-.7l0-.38.22-.47a1.51,1.51,0,0,1,1.14-.9l.26,0a2,2,0,0,1,1.86,1.32,1.91,1.91,0,0,1,.05,1.55,1.81,1.81,0,0,1-1.09,1Zm-.3-2.56a.82.82,0,0,0-.38.41.79.79,0,0,0-.05.54.72.72,0,0,0,.55.26l-.06-.75h0v-.07h-.11l-.19-.14h.27Zm54.4,1.77-.56-.11a1.71,1.71,0,0,1-1.19-1.51,1.65,1.65,0,0,1,1-1.55l.28-.15.4,0a1.93,1.93,0,0,1,1.27.49,1.78,1.78,0,0,1,.46,1.28l.09,1-1,.34A1.81,1.81,0,0,1,235.49,225.56Zm.18-1.42.24.6a1,1,0,0,0,.46-.88,1,1,0,0,0-.44-.84l-.24.6.16.5Zm58.83,1.06a1.79,1.79,0,0,1-1.5-1,3.56,3.56,0,0,1,0-3.79,2.22,2.22,0,0,1,.52-.56l1-.8,1,.83-1,.88,1-.82a2.41,2.41,0,0,1,.45.56,3.54,3.54,0,0,1-.05,3.78A1.77,1.77,0,0,1,294.5,225.21ZM143,223l-.61-.27a2.37,2.37,0,0,1-.83-3.67,1.63,1.63,0,0,1,1.27-.62,2.06,2.06,0,0,1,1.85,2.19,2.21,2.21,0,0,1-1.11,2Zm102.31-.25-1.29-.36a1.45,1.45,0,0,1-1.17-1.21,2,2,0,0,1,.1-.88l.42-1.38,1.34.39h0l.91.29.31,1.08a2.23,2.23,0,0,1-.16.82ZM108,222.73a1.8,1.8,0,0,1-1.73-1.67,2,2,0,0,1,.4-1.53,1.77,1.77,0,0,1,1-.6,3.13,3.13,0,0,1-1.33-.66,3.25,3.25,0,0,1-.93-1.83l-.07-.27a4.61,4.61,0,0,0-.75-1.51l-.21-.29-.15.09a2.54,2.54,0,0,1-1.6.75h0a2.73,2.73,0,0,1-1.8-.86,10,10,0,0,1-1.2-1.43,2.09,2.09,0,0,1,.85-3.24l.51-.25v-.12l0-.34c0-.11,0-.22,0-.32l-.49-.5.17-.34v0h0l.27-.54.6.31.05-1.08,1.69,0v.24l.75.1-.36.77.11.27,0,.24a5.66,5.66,0,0,1,.35.8s.15,0,.3,0a6.87,6.87,0,0,0,.89-.21,8.43,8.43,0,0,1,1.36-.3h0a2.63,2.63,0,0,1,2.06,1,6.31,6.31,0,0,1,1,2.31,5.36,5.36,0,0,0,.48,1.26,2.33,2.33,0,0,1,.12,2.09c-.16.5-.28,1-.4,1.47s-.18.73-.28,1.09a2,2,0,0,1-1.22,1.33,1.92,1.92,0,0,1,1.09,1,1.75,1.75,0,0,1,.12,1l0,.36-.23.43a1.7,1.7,0,0,1-1,.89Zm.11-1.74,0,.51a.84.84,0,0,0,.53-.3.72.72,0,0,0,.18-.51.89.89,0,0,0-.87-.59,1.91,1.91,0,0,0-.54.18l.58.43v-.52l0,.55.33.24Zm-3.6-9.34a2.84,2.84,0,0,1,2.24,1.5,7.63,7.63,0,0,1,1,1.79c.06-.22.12-.43.19-.65l0-.13a8.1,8.1,0,0,1-.65-1.72,4.35,4.35,0,0,0-.56-1.38c-.24,0-.47.11-.71.18a10.57,10.57,0,0,1-1.12.27l-.47,0a3.16,3.16,0,0,1-1.44-.35,3.35,3.35,0,0,1-.92.63,5.6,5.6,0,0,0,.52.58l.21-.15A3.16,3.16,0,0,1,104.53,211.65Zm-8.47,8.7h-.43l-.54-.34a2,2,0,0,1,0-3l.35-.26.63-.08a1.65,1.65,0,0,1,1.59,1.75C97.56,219.89,96.74,220.36,96.06,220.36Zm0-2.62a1.06,1.06,0,0,0-1,.71,1,1,0,0,0,1,.83v-.57l-.2.27Zm226.77.62L318,216.06l5-2.17Zm-28.23-.09a1.54,1.54,0,0,1-1.44-.82,7.46,7.46,0,0,1-.7-2.24,6.84,6.84,0,0,0-.36-1.35,4.66,4.66,0,0,1-.27-2.21c0-.28,0-.57,0-.87a8.74,8.74,0,0,1,.32-2.61,1.8,1.8,0,0,1,1.49-1.16h.16a1.65,1.65,0,0,1,1.68,1.08,13.09,13.09,0,0,1,.54,5.6c0,.55.09,1.64.12,2.71a2.18,2.18,0,0,1-.45,1.34l-.39.51Zm-175.77-1.1-5.25-2.1,5.29-2Zm-52.59-.58A2.33,2.33,0,0,1,64,214.85l-.06-.25a4.31,4.31,0,0,1-.17-1c0-.66,0-1.31,0-2h-.34l.3-2.5c.05-.71.1-1.41.18-2.12a1.83,1.83,0,0,1,1.88-1.74l.37,0a2.33,2.33,0,0,1,1.81,1.21,6.18,6.18,0,0,1,.8,3.27c-.06.93,0,1.84,0,2.75,0,.48,0,1,0,1.43a2.67,2.67,0,0,1-1.58,2.38A1.85,1.85,0,0,1,66.25,216.59Zm189.35-.36a1.86,1.86,0,0,1-1.72-.93,4.26,4.26,0,0,1-.14-3.59,1.94,1.94,0,0,1,.53-.72l.76-.83.94.59a2,2,0,0,1,.84.72,3.88,3.88,0,0,1,.29,3.66,1.85,1.85,0,0,1-1.49,1.11Zm-11.28,0a1.89,1.89,0,0,1-1.37-.62,2.64,2.64,0,0,1-.77-2A2.31,2.31,0,0,1,243,212a1.73,1.73,0,0,1,1.08-.38l.5-.08.42.27a2.56,2.56,0,0,1,1.11,2.42,2,2,0,0,1-1.47,1.94Zm191-1.87a1.69,1.69,0,0,1-1.49-1,2.24,2.24,0,0,1,0-1.34l.14-.44,1.68-1.39.79,1.26a2,2,0,0,1-.06,2.37l-.39.5Zm.28-1.83.69.35a.51.51,0,0,0,0-.34,1.06,1.06,0,0,0-1-.81v.49h0ZM336.73,214a2.34,2.34,0,0,1-1.78-.87,2.45,2.45,0,0,1,.25-3.24,3.76,3.76,0,0,1,2.49-1l.41,0a1.93,1.93,0,0,1,1.71,2.09,3.34,3.34,0,0,1-2.73,3Zm-56.06-.34a1.93,1.93,0,0,1-1.76-1.16,2.67,2.67,0,0,1,.51-3.4,2.11,2.11,0,0,1,3.38.69,6.39,6.39,0,0,1,.24.81l.06.26a2.33,2.33,0,0,1-1.68,2.67A2.26,2.26,0,0,1,280.67,213.65Zm-39.34-.2-3.82-3.89,4.41-1.07Zm-98.35-.2a1.88,1.88,0,0,1-1.27-.51A5.94,5.94,0,0,1,140,208.6a2,2,0,0,1,.48-1.52,3,3,0,0,1,1.31-.94l.62-.1a2.17,2.17,0,0,1,1.73.91,2.77,2.77,0,0,1,.47.69,7.35,7.35,0,0,1,.56,3.14,2.56,2.56,0,0,1-.65,1.7A1.89,1.89,0,0,1,143,213.25Zm-26.13-.3-.64-.11a2.13,2.13,0,0,1-1.29-1.35,2.27,2.27,0,0,1,.2-1.95,2.75,2.75,0,0,1,.4-.48l.33-.33.81-.16a2.45,2.45,0,0,1,1.78.8,1.91,1.91,0,0,1,.09,2.7A2.2,2.2,0,0,1,116.85,212.95Zm172.26-.71h-.36l-.33-.19a1.91,1.91,0,0,1-.88-2.55,2,2,0,0,1,1.58-1.16h.35l.32.17a2.06,2.06,0,0,1,1,2.41l-.1.39-.3.26A1.71,1.71,0,0,1,289.12,212.24Zm0-1.37v.1a.88.88,0,0,0,.84-.44.68.68,0,0,0-.3-.79l-.32.67.16.18-.22-.06Zm-45.69.69a1.39,1.39,0,0,1-1.08-.49,1.81,1.81,0,0,1-.4-1.77,1.72,1.72,0,0,1,1.34-1.1l.29,0a1.77,1.77,0,0,1,1.64,1.19,1.68,1.68,0,0,1-.2,1.3l-.29.72Zm-.79-1.84a1.2,1.2,0,0,0,0,.38.89.89,0,0,0,.88.69l-.05-.72-.17.14V210Zm1,.42.09.64a.93.93,0,0,0,.66-.61.88.88,0,0,0-.07-.79l-.64.54.08.27Zm151.28.58a1.91,1.91,0,0,1-1.38-.6,2.45,2.45,0,0,1,.07-3.68,1.8,1.8,0,0,1,.85-.44l.44-.12.56.14a2.15,2.15,0,0,1,1.36,2,2.94,2.94,0,0,1-.68,2.13,1.71,1.71,0,0,1-1.21.56Zm-46.82-.31a2.34,2.34,0,0,1-1.21-.34,1.93,1.93,0,0,1-.82-2.5c.28-.71.93-2.14,2.61-1.61a2.31,2.31,0,0,1,1.64,1.37,2.25,2.25,0,0,1-.37,2.06,2.1,2.1,0,0,1-1,.84A2.34,2.34,0,0,1,348.13,210.4Zm.14-2.59c-.37,0-.47.12-.5.17a1.12,1.12,0,0,0,.34.54l-.08-.06a.91.91,0,0,0,.52-.16A.77.77,0,0,0,348.27,207.81ZM84,210h-.36l-.33-.19a1.8,1.8,0,0,1-.89-1,1.89,1.89,0,0,1,.12-1.47,1.76,1.76,0,0,1,.65-.72l1-.72,1.42,1.6v.47a2,2,0,0,1-.11,1A1.86,1.86,0,0,1,84,210Zm76.54-.13-.29,0h-.42l-.32-.25a2.91,2.91,0,0,1-1.15-3.13,2,2,0,0,1,1.08-1.3A2,2,0,0,1,160,205l-.67-.65a1.6,1.6,0,0,1-.55-1.31,1.56,1.56,0,0,1,.76-1.16l1-.69,1.91,2L160.62,205a1.88,1.88,0,0,1,1.31,1,3.26,3.26,0,0,1,.27,2.46,2,2,0,0,1-.85,1.17l-.32.2Zm-9.93-.18a1.91,1.91,0,0,1-1.59-.77,4.92,4.92,0,0,1-.53-4.7,1.93,1.93,0,0,1,1.77-1.22l.67.11a2.13,2.13,0,0,1,1,.77,2.27,2.27,0,0,1,.41,1.08c.07.49.12,1,.18,1.64l0,.19,0,.19c-.12.59-.21,1.06-.33,1.51A1.65,1.65,0,0,1,150.58,209.65Zm103.69-.27-1.57-1.14a1.83,1.83,0,0,1-.25-.19l-3.31,1.33,2.68-3.4-.09-.46.8-.44.31-.41.18-.26,0,0,.19-.22a2.6,2.6,0,0,1,3.22-.42,2.82,2.82,0,0,1,1.18,2.5,3.09,3.09,0,0,1-.2.9,2.34,2.34,0,0,1-2.14,1.71,2.12,2.12,0,0,1-.87-.19ZM97.49,205.15,96.34,200l4.25,1.1Zm52.82-2.31a1.91,1.91,0,0,1-1.59-.85,2,2,0,0,1-.29-1.46c.25-1.09,1-2.2,2-2.2h1l.42,1a4.54,4.54,0,0,1,.19,1l0,.43a1.88,1.88,0,0,1-1.77,2Zm93.17-.56-.37,0a2,2,0,0,1-1.34-.9,5.62,5.62,0,0,1,0-4.7,1.69,1.69,0,0,1,1.51-1l.44.07a2.06,2.06,0,0,1,1.09.77,2.47,2.47,0,0,1,.39,1.09c.06.54.09,1,.15,2a2.79,2.79,0,0,1,0,1A1.89,1.89,0,0,1,243.48,202.28Zm-39.16-.66-1.5-.15a1.43,1.43,0,0,1-1.28-.9l-.07-.27a2.8,2.8,0,0,1,0-.62l.13-1.55,2.26.42.43.84a2.59,2.59,0,0,1,.07.73ZM149.69,196c-.43,0-2-.26-1.91-2.74,0-.21,0-.42,0-.62l1.35-.43h-1.31c0-1.24.72-2.14,1.7-2.14l.24,0A1.74,1.74,0,0,1,151,191a2.4,2.4,0,0,1,.32-2.27,2.09,2.09,0,0,1,.65-.56l.41-.25.61,0a1.86,1.86,0,0,1,1.25.84,2.66,2.66,0,0,1,.43,2,2.28,2.28,0,0,1-1.47,1.68l-.45.08a1.76,1.76,0,0,1-1.42-.87c-.06-.09-.12-.18-.16-.27a3,3,0,0,1,.15.89c0,.23,0,.47.07.72l0,.3a2.91,2.91,0,0,1-.54,2.22A1.64,1.64,0,0,1,149.69,196Zm144.58-.83a2,2,0,0,1-1.44-.72,1.56,1.56,0,0,1-.33-1.09l-.14-1.15,1.13-.28a2,2,0,0,1,.73-.16h.34l.38.18a1.62,1.62,0,0,1,1,1.4A1.73,1.73,0,0,1,295,195l-.31.19Zm-.69-2.41a1,1,0,0,0-.26.77,1,1,0,0,0,.46.77l.2-.45-.11-.43h-.05l0,0-.05-.2h.05Zm-18.88-12.07-4.42-.48,2.69-4.34Zm10.1-.79-.3,0a2.16,2.16,0,0,1-1.71-1.8,2.6,2.6,0,0,1-.08-1l.06-.41c.25-1.71.25-1.71,0-2.7a5.71,5.71,0,0,1-.22-2.74,26.42,26.42,0,0,0,.32-4.69c0-.52,0-1,0-1.55a.92.92,0,0,0-.09-.41,3.84,3.84,0,0,1-.11-3.75,3,3,0,0,0,.2-1.45l0-1.48c0-1.49-.08-3-.11-4.47a2.18,2.18,0,0,1,.35-1.17,1.9,1.9,0,0,1,1.23-1l.27,0a1.89,1.89,0,0,1,1.25.56,2.07,2.07,0,0,1,.77,1.18c.06.4.11.76.15,1.13s.08.69.14,1,.15.81.24,1.22a18.31,18.31,0,0,1,.41,2.61,20.81,20.81,0,0,1-.07,2.92c0,.43-.06.89-.09,1.38a27.18,27.18,0,0,0,.15,5.35,53.84,53.84,0,0,1,.23,7.18l0,1.39-.33.64a5.86,5.86,0,0,1-.77,1.26A2.49,2.49,0,0,1,284.81,179.9Zm.31-8.3,0,.12a2.54,2.54,0,0,0,0,1.05C285.14,172.39,285.13,172,285.12,171.6Zm-49.49,7.31a1.9,1.9,0,0,1-2-1.8,1.67,1.67,0,0,1,1.25-1.63l.55-.08a1.73,1.73,0,0,1,1.74,1.82v.41l-.23.34a1.59,1.59,0,0,1-1.26.95Zm-.18-1.38,0,.49a1,1,0,0,0,.71-1.09.78.78,0,0,0-.72-.64l0,.73.3.2h-.29l0,.37Zm15.63-.86a1.79,1.79,0,0,1-.53-3.46l.59-.09a1.89,1.89,0,0,1,1.78,1.27l.27.68-.44.59a1.79,1.79,0,0,1-.77.77A1.83,1.83,0,0,1,251.08,176.67Zm.15-1.58.08.63a.94.94,0,0,0,.7-1,1,1,0,0,0-.93-.67.69.69,0,0,0-.33.07l0,.08.34.26v0l.55.42-.41.17.12.21Zm-6.3,1.3a2.23,2.23,0,0,1-.91-.2,2,2,0,0,1-1-2.41,1.83,1.83,0,0,1,1.21-1.23l.35,0a1.85,1.85,0,0,1,1.43.75,1.93,1.93,0,0,1,.69,1.95A1.77,1.77,0,0,1,244.93,176.39Zm-.77-1.33a.89.89,0,0,0,.39.08v-1.22a.8.8,0,0,0-.37.46A1.11,1.11,0,0,0,244.16,175.06Zm.4-1.15.18,1.21a1,1,0,0,0,.73-.52.7.7,0,0,0-.34-.79A1.11,1.11,0,0,0,244.55,173.91ZM204,173.85h-.31l-.3-.14a2,2,0,0,1-1-2.51,1.79,1.79,0,0,1,.6-.81l.55-.46.77.12h0a1.7,1.7,0,0,1,1,.61,1.93,1.93,0,0,1,0,2.49A1.85,1.85,0,0,1,204,173.85Zm0-2.62a.86.86,0,0,0-.7.3.7.7,0,0,0,.06.77l.57-.49,0-.2-.14-.15.15.08Zm28.9-1.45a2,2,0,0,1-1.14-.48L230.2,168,232,167a1.94,1.94,0,0,1,1-.29h.17a1.77,1.77,0,0,1,1,.49l1.52,1.34-1.75.92A2,2,0,0,1,232.92,169.77Zm-29.05-.89a1.71,1.71,0,0,1-1.68-1.6,2.07,2.07,0,0,1,.47-1.62,1.66,1.66,0,0,1,1.27-.58h.13a1.63,1.63,0,0,1,1.18.64,2.1,2.1,0,0,1,.36,1.69,1.89,1.89,0,0,1-1,1.31l-.25.1Zm.05-2.49v1.31a1,1,0,0,0,.71-.32.59.59,0,0,0,.16-.46.93.93,0,0,0-.92-.67v1.31l-.34-1.24a.86.86,0,0,0-.49.52.59.59,0,0,0,.13.49,1,1,0,0,0,.72.37Zm40.1-1.2a2.19,2.19,0,0,1-2-1.3,3.68,3.68,0,0,1-.23-2.41,2,2,0,0,1,.49-.87l.47-.54.81,0a2.17,2.17,0,0,1,.94.25,2.92,2.92,0,0,1,1.46,3.1,1.94,1.94,0,0,1-1.91,1.8Zm6.77-1a1.85,1.85,0,0,1-1.58-1.33,4.44,4.44,0,0,1-.24-1.4,2,2,0,0,1,1.87-2.08H251a2,2,0,0,1,1.72,2,3.72,3.72,0,0,1,0,.55v.31a2.17,2.17,0,0,1-1.41,1.85Zm25.18,0-4.11-2.78,4.66-1.8Zm-37.45-1.32-1.71-5,4.45.51Zm33.19-2.24-.47-.08a2.06,2.06,0,0,1-1.19-1.17,3.72,3.72,0,0,1,.32-3.2,1.68,1.68,0,0,1,.94-.69l.65-.31.61.39a2.47,2.47,0,0,1,1,1.61,3.64,3.64,0,0,1-.45,2.68A1.75,1.75,0,0,1,271.71,160.59Zm-27.55-1.73A2.14,2.14,0,0,1,242,157.6a3.3,3.3,0,0,1-.15-1.69,2.13,2.13,0,0,1,4.22.57,5,5,0,0,1-.08.73,2.06,2.06,0,0,1-1.83,1.65Zm-6-.89-.7-.12a1.91,1.91,0,0,1-1.11-1,1.94,1.94,0,0,1,0-1.56c.54-1.23.62-1.91.31-2.6l-.11-.49c0-.52,0-1,0-1.54a14.8,14.8,0,0,0,0-2.12,4.83,4.83,0,0,1,.37-2.26l.13-.39a6.69,6.69,0,0,0,.2-.8c0-.24.1-.48.16-.71a1.7,1.7,0,0,1,1.56-1.25h0c.59,0,1.59.26,1.65,2,0,.55.12,1.13.2,1.68l.13,1.13a2.25,2.25,0,0,1-.07.85,12,12,0,0,0-.12,4.51l.08.89a4.15,4.15,0,0,1-1,2.91A2.15,2.15,0,0,1,238.13,158Zm54.79-1.36-.26,0a1.82,1.82,0,0,1-1.41-1,7.48,7.48,0,0,1-.69-3.58,2.52,2.52,0,0,1,.82-1.91l.37-.34.23,0,0,0a2.43,2.43,0,0,1-.47-3.75,2,2,0,0,1,2.67-.07,2.36,2.36,0,0,1,.81,2.07,2.3,2.3,0,0,1-1.21,1.78l-.39.16a2.48,2.48,0,0,1,1.41,1.25,3.42,3.42,0,0,1,.25.78c0,.27.08.55.1.83l0,.28,0,.5a4,4,0,0,1-.82,2.47A1.86,1.86,0,0,1,292.92,156.61Zm-18.52-1.09-.8-2.18a1.58,1.58,0,0,1-.14-1.27,1.56,1.56,0,0,1,1.46-1.2c.3,0,1.29.11,1.47,1.56l.07.6-.61.69Zm.13-2.87-.75.09a1.21,1.21,0,0,0,1.14.75v-.63l-.09,0Zm-20.92,2.08a1.94,1.94,0,0,1-1.77-1.15l-.21-.51.21-.55a1.89,1.89,0,0,1,2.56-1,1.82,1.82,0,0,1,.7.57l.74.74-.54.91A2,2,0,0,1,253.61,154.73Zm.07-2.59c-.39,0-.56.13-.62.22l.66.42.54-.2a.68.68,0,0,0-.43-.43Zm-20.2-.13c-.31,0-1.31-.12-1.48-1.61a1.61,1.61,0,0,1,.48-1.28l1.3-1.94,1,2.13a1.66,1.66,0,0,1,.22,1.47A1.54,1.54,0,0,1,233.48,152Zm0-2.62a1.16,1.16,0,0,0-1,.56.93.93,0,0,0,0,.45l1.73-.82A1.27,1.27,0,0,0,233.48,149.38Zm52.89-3.88-3.63-1.28,2.89-5.68Zm-14.06-3.37-1.29-.65a1.38,1.38,0,0,1-.89-1.23,1.74,1.74,0,0,1,.18-.87l.55-1.24L273,139l.15,1.11a1.7,1.7,0,0,1-.21.71Zm-38.23-.79-.69,0a1.85,1.85,0,0,1-1.53-2.09,1.75,1.75,0,0,1,1.71-1.71l.41.05a1.85,1.85,0,0,1,1.23,1.24,1.92,1.92,0,0,1,0,1.37,2,2,0,0,1-.65.8Zm-.49-1.38v.17a.9.9,0,0,0,.9-.65.79.79,0,0,0-.59-.75l-.25,1.29Zm9.67,1.36-.38,0a1.86,1.86,0,0,1-1.37-1.19,14.81,14.81,0,0,1-.65-2.19,5.48,5.48,0,0,1,.5-3.43,1.94,1.94,0,0,1,2.46-1.08,1.81,1.81,0,0,1,1.11,1.55c.05.5.09,1,.13,1.55l.15,2H245c0,.29,0,.58,0,.87A1.79,1.79,0,0,1,243.25,141.32Zm28.42-7.05a1.93,1.93,0,0,1-1.8-1.84l-.23-1.68.11-.57a7.17,7.17,0,0,1,.19-.85,1.91,1.91,0,0,1,1.31-1.23l.33,0a1.8,1.8,0,0,1,1.47.89,4.62,4.62,0,0,1,.49,3.34,2.41,2.41,0,0,1-1.37,1.9ZM264.09,131a1.75,1.75,0,0,1-1.33-.62,4.33,4.33,0,0,1-1-3.42,2.27,2.27,0,0,1,1.2-1.78,1.71,1.71,0,0,1-1.34-2.52,1.67,1.67,0,0,1,.9-.8l.94-.42.75.75a1.72,1.72,0,0,1,.55,1.36A1.86,1.86,0,0,1,264,125h.48l.44.29a3.51,3.51,0,0,1,1.51,2.36,3.46,3.46,0,0,1-.8,2.64A1.92,1.92,0,0,1,264.09,131Zm-.67-7.59.55.37c.25-.52-.28-1-.3-1l-.11-.07-.41.31.28.41Zm-.32-.85a1,1,0,0,0-1,.68l.6.07.24-.18,0,0,0,0,.57-.44A.94.94,0,0,0,263.09,122.61Zm-24.35,4.89a1.55,1.55,0,0,1-1.14-.49,1.81,1.81,0,0,1-.46-1.4,1.76,1.76,0,0,1,1.65-1.53,1.6,1.6,0,0,1,1.21.61l.72.59-.34.86a1.6,1.6,0,0,1-.71,1.09l-.32.19Zm-.38-.87a1.23,1.23,0,0,0,.43.08.91.91,0,0,0,1-.89.84.84,0,0,0-.25-.6l-.47.44.1,0-.24.28.08.14-.14-.06ZM271.72,124l-.34-.15a1.78,1.78,0,0,1-.81-.48,2.34,2.34,0,0,1-.42-2.24,1.93,1.93,0,0,1,1.88-1.39h.24a2,2,0,0,1,1.62,1.13,2,2,0,0,1-.08,1.92,2.4,2.4,0,0,1-1.72,1.15Zm-34.45-.72a2.55,2.55,0,0,1-1.33-.4,2,2,0,0,1-.81-2.54c0-.13.12-.31.2-.48a1.93,1.93,0,0,1,2.48-1.07,2.12,2.12,0,0,1,1.56,2.72,4.42,4.42,0,0,1-.3.68A2,2,0,0,1,237.27,123.29Zm36.45-5.55-4.46-.35,2.47-4.65Zm-.1-5.1-4.13-.48,2.43-5.24Zm-19.56-7.79a1.72,1.72,0,0,1-1.49-1.18,1.86,1.86,0,0,1,0-1.56,1.89,1.89,0,0,1,1.24-1l.86-.24.52.68a1.93,1.93,0,0,1,.54.8,2,2,0,0,1-.15,1.54,1.92,1.92,0,0,1-1.2.89Zm.27-2,.22.77a.77.77,0,0,0,.4-.39.78.78,0,0,0,.06-.58,1.09,1.09,0,0,0-.64-.42l-.18.13.12.43.19-.05Zm-21,1.31-.66-.37a2,2,0,0,1-1-2.39,1.68,1.68,0,0,1,3.23-.05,2,2,0,0,1-.92,2.42Zm-.69-2.64a.67.67,0,0,0-.22.7.86.86,0,0,0,.87.57.87.87,0,0,0,.89-.6.65.65,0,0,0-.23-.68l-.64,1.15Zm9,1.71a2,2,0,0,1-.8-.19l-1.24-.54.49-1.26a1.37,1.37,0,0,1,1.32-1h.26l1.71.67-.75,2.06Zm21.3,0a1.82,1.82,0,0,1-1.71-1.85c0-.42-.07-.84-.11-1.26a10.58,10.58,0,0,1,.08-3.87,2,2,0,0,1,1.15-1.32l.5-.08c.36,0,1.25.14,1.73,1.46a6.63,6.63,0,0,1,.15,3.25v.29c0,.58-.06,1.17-.12,1.76a1.88,1.88,0,0,1-1.09,1.52Zm-29.58-4.31h-.3l-.47-.18a1.94,1.94,0,0,1-1.06-1.12,1.88,1.88,0,0,1,.11-1.47,2.57,2.57,0,0,1,1.22-1.32l.58-.13h.63l.57.62a2.91,2.91,0,0,1,.54,2.24l-.24.51A2,2,0,0,1,233.44,98.92Zm29.18-5.86-.9-1.08a1.87,1.87,0,0,1-.49-1q-.12-1.1-.14-2.19a2.26,2.26,0,0,1,.62-1.61,1.68,1.68,0,0,1,1.21-.52h.1a2,2,0,0,1,1.68,2.09l.07.87-.1.54c-.05.32-.12.69-.21,1.05a1.87,1.87,0,0,1-.72,1Z"/><path d="M187.75,273.63h-.29l-.3-.25a2.06,2.06,0,0,1-1-1,2.47,2.47,0,0,1-.26-1.07c0-.37-.05-.79-.09-1.64l0-.78,1.25-.08-.48-.86a2.44,2.44,0,0,1,.61-.34l.54-.1a1.91,1.91,0,0,1,1.78,1.56,4.77,4.77,0,0,1-.3,3.54A1.91,1.91,0,0,1,187.75,273.63Zm-.54-5.83v1l1.22-.07A1.24,1.24,0,0,0,187.2,267.79Z"/><path d="M187.62,282.57h-.45l-.36-.28a2,2,0,0,1-.65-2.45,1.77,1.77,0,0,1,.63-.76l1.15-.88.88,1.14c.16.23.23.33.29.44l.2.34,0,.39a2.18,2.18,0,0,1-.13.9C189.13,281.48,188.59,282.57,187.62,282.57Z"/><polygon points="388.41 274.63 386.31 264.92 389.78 265.41 389.42 266.61 388.41 274.63"/><path d="M386.94,270.54l-.27-2.94,0-.45a3.66,3.66,0,0,0,.06-.51l.64-7.89,2.33,9.06Z"/><path d="M389.74,268l-1.87-.28a4.7,4.7,0,0,1-2.52-1.2,2.1,2.1,0,0,1-.66-1.63,2.38,2.38,0,0,1,.91-1.76,2.1,2.1,0,0,1,3.34,1c.09.39.18.82.26,1.24Z"/><path d="M233.72,82.75l7.16-14.51a10.17,10.17,0,0,1,18.24,0l.9,1.83-1.08.61a41,41,0,0,1-6.31,2.69c-1.2.44-2.41.87-3.59,1.37A28.15,28.15,0,0,1,244.95,76l-.27.07a7.19,7.19,0,0,0-2,1,10.32,10.32,0,0,1-2.31,1.17,6.88,6.88,0,0,0-2.2,1.12ZM250,65.2a7.6,7.6,0,0,0-6.77,4.21l-3,6c.34-.17.69-.39,1.05-.62a9.51,9.51,0,0,1,2.73-1.29l.26-.07A25.91,25.91,0,0,0,248,72.33c1.21-.52,2.47-1,3.72-1.43a47.75,47.75,0,0,0,4.8-1.93A7.61,7.61,0,0,0,250,65.2Z"/><path d="M389.6,194.31h0a2,2,0,0,1-1.13-.36,2.26,2.26,0,0,1-.87-1.34l-.45-1.88,5.73.83-1.4,1.78a2.43,2.43,0,0,1-.64.59A2.34,2.34,0,0,1,389.6,194.31Z"/></svg>