<svg id="Layer_1" data-name="Layer 1" xmlns="http://www.w3.org/2000/svg" viewBox="0 0 500 500"><defs><style>.cls-1{fill:#fff;}</style></defs><title>starActive</title><path class="cls-1" d="M102.42,207.79l0,.07h.09Z"/><path class="cls-1" d="M164.76,330.65c-.31,0-.48.27-.46.63s.22.58.48.53a.59.59,0,0,0,.29-.34.79.79,0,0,0,0-.47C165,330.86,164.86,330.65,164.76,330.65Z"/><path class="cls-1" d="M340,406.89l.27.38s0-.07,0-.11A.77.77,0,0,1,340,406.89Z"/><polygon class="cls-1" points="198.49 294.48 198.47 294.82 198.84 294.68 198.49 294.48"/><path class="cls-1" d="M219.32,316.16a2.26,2.26,0,0,0,1.51-3.32,7.93,7.93,0,0,0-.82-1.12l-.24,0c0-.08-.08-.12-.11-.19h-.3c-1.6.08-2.21.52-2.61,1.9a10,10,0,0,0-.24,1.33c.05,0,.08.07.14.1l0,.16c.55.34,1.1.71,1.68,1A1.53,1.53,0,0,0,219.32,316.16Z"/><path class="cls-1" d="M221.46,301.51l0,.12,0,.1a.72.72,0,0,1,.16-.07Z"/><path class="cls-1" d="M206,235.81l.11.12-.11-.12Z"/><path class="cls-1" d="M221.56,301.66l.1.15.06,0C221.84,301.58,221.77,301.55,221.56,301.66Z"/><path class="cls-1" d="M217.77,393a2.45,2.45,0,0,1-.11.53,1.3,1.3,0,0,1-.1.21l1.06-.56a1.48,1.48,0,0,0,0-.37c0-.16-.11-.46-.17-.46A.65.65,0,0,0,217.77,393Z"/><path class="cls-1" d="M187.93,260.63c-.06-.09-.27-.2-.32-.16a.66.66,0,0,0-.27.37.78.78,0,0,0,.24.87s.26-.07.33-.16A.77.77,0,0,0,187.93,260.63Z"/><path class="cls-1" d="M352.71,302.08l26.55-25.88a3.26,3.26,0,0,1,.45-.74c.27-.34.36-.7.07-1-1.05-1-1.53-2.44-2.51-3.49a2.09,2.09,0,0,1-.41-1.53,1.62,1.62,0,0,1,1.22-1.58c.54-.08,1.08-.1,1.63-.13.82,0,1.14-.17,1.26-.7a5.39,5.39,0,0,1,1.4-2.86,7.87,7.87,0,0,0,1-1.89,1.17,1.17,0,0,1,.83-.61,10.14,10.14,0,0,0,3.48-1.49,2.71,2.71,0,0,0,1.27-2.28c0-.9-.07-1.81-.1-2.7,0-.36.05-.72.07-1.09.06-.79.54-1.17,1.45-1.32a1.86,1.86,0,0,1,2.07,2.38,1.94,1.94,0,0,1-.53.93c-.49.53-1.24.79-1.55,1.49a.72.72,0,0,0,0,.49,3.63,3.63,0,0,0,4.34,2.29,4.32,4.32,0,0,1,1-.35l.11,0,46.73-45.55a8.86,8.86,0,0,0-4.91-15.11l-.55-.08a11,11,0,0,0-.31,2.5c0,.35-.38.52-.81.42-.16,0-.4-.16-.44-.29a3,3,0,0,1-.12-1c0-.36.2-.72.19-1.08s0-.5,0-.75L407.29,195c0,.28-.08.57-.11.85a3.68,3.68,0,0,1,0,.54c-.1.4-.42.41-.58,0a15.11,15.11,0,0,1-.38-1.5l-7-1a5.33,5.33,0,0,1,.86,2.85,3,3,0,0,1-.73,2,2.84,2.84,0,0,1-1.71,1.24,8.72,8.72,0,0,0-2.59.74,14.12,14.12,0,0,1-3.61,1.26c-1-.38-2-.74-3-1.16a4.17,4.17,0,0,0-3.67.05,4,4,0,0,1-1.55.46,52,52,0,0,0-8,1.24,1.49,1.49,0,0,1-1.69-1c-.09-.35-.15-.72-.24-1.06a.91.91,0,0,1,.83-1.12,7,7,0,0,1,1.6-.18,2.49,2.49,0,0,0,1.95-.77c.4-.37.79-.74,1.16-1.15.56-.64,1.25-.53,2-.48a1.42,1.42,0,0,0,1-.34c1-1,1.88-2.23,3.25-2.85a15.65,15.65,0,0,0,1.37-1.58l-72.82-10.58-48.35-98a3.84,3.84,0,0,1-.42,0c-.59-.11-1-.07-1.27.53a1,1,0,0,1-.28.42c-.4.3-.61.14-.73-.38-.15-.71-.38-1.39-.58-2.09a2.73,2.73,0,0,1-.06-1.61,3.8,3.8,0,0,0,.11-2.65,6.12,6.12,0,0,1-.33-1.41l-1.48-3a1.2,1.2,0,0,1-1.28.36,2,2,0,0,1-.5-.2,2,2,0,0,0-2.06-.18,31.77,31.77,0,0,1-2.91,1.47c-2.93,1-5.54,2.68-8.49,3.6a7.86,7.86,0,0,1-4.11,1.2,3.79,3.79,0,0,0-1.06.22A4.62,4.62,0,0,0,237,81.3c-.43.59-.85,1.17-1.29,1.75s-.74.95-1.12,1l-30.73,62.27c-.23,1,.32,2.14-.28,3.13a.5.5,0,0,1-.39.17c-.17,0-.44-.08-.48-.19s-.1-.33-.15-.5l-16,32.41-.77.11c0,.6-.09,1.2-.17,1.79a7.12,7.12,0,0,0,.28,3.21,2.78,2.78,0,0,1-.27,2.11,2.4,2.4,0,0,0,.34,2.55,11.53,11.53,0,0,0,1.52,1.54,1.21,1.21,0,0,1,0,1.89,10.15,10.15,0,0,0-.83.71,1.87,1.87,0,0,0-.46.94,7.93,7.93,0,0,0,.05,2.16c.25,1.23.92,2.36.86,3.68a30.8,30.8,0,0,0,0,3.26,8,8,0,0,0,.35,2.13,11.25,11.25,0,0,1,.44,5.37c-.15,1.09-.28,2.16-.39,3.25a2.24,2.24,0,0,0,0,1.07c.87,2.11.43,4.29.36,6.45a3.24,3.24,0,0,0,0,.55c.5,3.43,0,6.9.29,10.32.34,4.53.39,9.06.81,13.57a13.32,13.32,0,0,1,.15,2.17,54,54,0,0,0,.17,7.61c.13,2.54.08,5.09.12,7.62,0,1.46.07,2.91.11,4.36.62,1.58.21,3.23.3,4.85a12.17,12.17,0,0,1-.24,3.23,15.92,15.92,0,0,0,0,4.34,2.34,2.34,0,0,0,1.86,2.32c.41.13.4.51,0,.81s-.69.26-1,.48-.6.51-.63.81c-.15,1.62-.26,3.25-.3,4.88,0,1.82,0,3.63.07,5.44s-.36,3.62-.09,5.43a.86.86,0,0,0,.7.68.74.74,0,0,0,.53-.07,7.13,7.13,0,0,0,.81-.7c.56-.52.93-.52,1.28,0a3.63,3.63,0,0,1,.68,1.47,1.43,1.43,0,0,1-1.51,1.74c-.36,0-.69-.18-1-.23a1.7,1.7,0,0,0-1.27.88,4.12,4.12,0,0,0-.19,1.06,31.73,31.73,0,0,1-.56,7,56.39,56.39,0,0,0-.63,7.58,1.55,1.55,0,0,1-.11.53c-.17.45-.41.62-.65.47s-.38-.21-.4-.35a139.75,139.75,0,0,1-1-17.91c0-1.09.12-2.17.17-3.26a7.82,7.82,0,0,0,.05-1.62,15.86,15.86,0,0,1-.15-4.64c.09-2.4.16-4,.19-5.67a17.49,17.49,0,0,0-.11-2.71,22.56,22.56,0,0,1-.15-4.89c.23-3.27-.12-6.53-.08-9.8,0-1.6-.57-2.8-2.35-3.11a1,1,0,0,1-.65-1.25c0-.18.06-.42.19-.49.59-.42,1.19-.8,1.8-1.17a1.6,1.6,0,0,0,.71-1.39c.12-1.63-.44-3.22-.29-4.88a32.27,32.27,0,0,0-.21-4.89c-.14-2.54-.08-5.07-.14-7.61,0-.72-.14-1.44-.23-2.16-.05-.48-.14-.54-1.16-.79a1,1,0,0,1-.81-.64,5.85,5.85,0,0,1,0-2.69c.1-.8.25-.87,1.42-.8.15,0,.38,0,.43-.14a4.94,4.94,0,0,0,.4-2.66c-.23-2.53-.72-5.05-.72-7.58s.53-5,.68-7.57a39.65,39.65,0,0,0-.15-4.34,1.48,1.48,0,0,0-1-1.2,2,2,0,0,1-1.12-1.71,1.55,1.55,0,0,1,.46-1.49c.23-.17.67-.08,1-.08.18,0,.36.06.54.07a1.25,1.25,0,0,0,1-.36,1.56,1.56,0,0,0,.2-2c-.43-.79-.91-.11-1.34,0a1,1,0,0,1-1.47-.95,5.71,5.71,0,0,1,0-1.62,6.51,6.51,0,0,0,0-3.74,10.14,10.14,0,0,1-.21-1.61c0-.45.14-.62,1-.91.71-.23.94-.51.91-1.11s-.08-1.45-.12-2.17a3.45,3.45,0,0,0-1.12-2.4,3.7,3.7,0,0,1-1.1-2.41,24.33,24.33,0,0,1,0-5.42,18.43,18.43,0,0,0-.33-6.72l-22.92,3.33a1.76,1.76,0,0,1-.68,1.06c-.12.1-.33.07-.5.1s-.29-.19-.36-.32a1.87,1.87,0,0,1-.19-.58l-67.23,9.77c0,.41,0,.82-.09,1.24a4.64,4.64,0,0,0,.43,2.63,2.78,2.78,0,0,1,.26,2.1,24,24,0,0,0-.9,5.32.63.63,0,0,1-.64.64c-.07,0-.18-.31-.19-.48-.12-2.52-.43-5-.33-7.58a14.57,14.57,0,0,0-.13-2.16c-.06-.49-.09-1-.14-1.46l-8.13,1.18a19.56,19.56,0,0,1-.13,3.16,5.79,5.79,0,0,0,.87,4.13,2.14,2.14,0,0,1,0,2.08c-.3.65-.66,1.28-1,1.94-.2.45-.43.56-.82.33a1.11,1.11,0,0,1-.62-.8,7.07,7.07,0,0,1-.14-1.6c.06-.71.27-1.41.37-2.12a2.32,2.32,0,0,0-.23-1.56,6.48,6.48,0,0,1-.87-3.62c0-.53,0-1.05,0-1.58l-15.65,2.27a8.86,8.86,0,0,0-4.91,15.11l30.83,30.05a11.18,11.18,0,0,1-.14-5.7,12.25,12.25,0,0,0,.84-4.79c0-1.45,0-2.9,0-4.35,0-2.35,0-4.71.14-7.06a18.22,18.22,0,0,0-.1-2.72,1.58,1.58,0,0,0-.37-1c-.21-.2-.64-.16-1-.23l-.5-.1c-.38-.82-.83-1.61-1.14-2.46a6.13,6.13,0,0,1-.23-3.74,2.58,2.58,0,0,1,.5-.95,1.24,1.24,0,0,1,1.38-.56,1.74,1.74,0,0,0,1.49-.27,1,1,0,0,1,1.3.58,9,9,0,0,1,.4,1.57,12.75,12.75,0,0,0,.8,3.7,1.58,1.58,0,0,1-.18,1.54,2.07,2.07,0,0,0-.36,1c-.07,2.53-.27,5.07.43,7.56a1.94,1.94,0,0,1,0,1.06,11.93,11.93,0,0,0-.33,3.78,91.71,91.71,0,0,1,.09,9.23,6.75,6.75,0,0,0,1.23,4.6,1.39,1.39,0,0,1,0,1.52,4.56,4.56,0,0,1-.62.89c-.06.09-.09.19-.15.28L144,298.91a10.59,10.59,0,0,1-.06-1.61c.08-1.27.12-2.53.07-3.8a5.77,5.77,0,0,1,.29-1.59,2.82,2.82,0,0,0-.14-2.11,6.59,6.59,0,0,1-.64-3.17,68.72,68.72,0,0,0-.26-8.15,26.07,26.07,0,0,1,0-2.72,50,50,0,0,0-.36-8.14,17.76,17.76,0,0,1,.2-4.86.74.74,0,0,1,.7-.65.78.78,0,0,1,.77.66,4.29,4.29,0,0,1,.17.51,22.2,22.2,0,0,1,.53,4.85,41.5,41.5,0,0,0,.38,7.05,11.43,11.43,0,0,1-.1,4.33,7.58,7.58,0,0,0-.15,1.62,8.9,8.9,0,0,0,1.05,4.71,2.1,2.1,0,0,1-.2,2.51,4.11,4.11,0,0,0-.3.45,4.61,4.61,0,0,0-.58,3.15,20.1,20.1,0,0,1,.32,5.39,22.3,22.3,0,0,0,.14,3.37l1.39,1.36-.82,4.76c0,.8,0,1.61,0,2.41s0,1.82-.09,2.72a3.63,3.63,0,0,1-.82,2,1.35,1.35,0,0,1-.31.26L126.08,425.76a8.86,8.86,0,0,0,12.85,9.34l1.46-.77c0-.06-.06-.12-.09-.17s0-.35.06-.52c.11-.47.39-.6.78-.3a1,1,0,0,1,.32.43l75.31-39.6a.69.69,0,0,1-.23-.16,3.84,3.84,0,0,1-.63-5,1,1,0,0,1,.9-.41c1.3-.07,1.86-.93,2.11-2.08a5.75,5.75,0,0,0,.18-2.15,9.94,9.94,0,0,0-.35-1.59,5.78,5.78,0,0,1-.15-2.68c.15-.89.37-1.77.52-2.66a10,10,0,0,0,.09-3.23,44.78,44.78,0,0,1-.44-8.12,17,17,0,0,0-.17-2.7,10.43,10.43,0,0,1,.08-4.3,9.32,9.32,0,0,0,.16-2.69c0-2-.17-4-.21-6a9.89,9.89,0,0,1,.26-3.22c.05-.17.19-.47.23-.46a2.27,2.27,0,0,1,1,.36c.26.21.51.08.54.39.06.9,0,2.19,0,2.19h0c0,2.63,0,1.95,0,2.67a5.33,5.33,0,0,0,.77,2.79c.56,1,.62,1.32.32,2.15a13.74,13.74,0,0,0-.75,3.77c-.26,4.34-.26,8.7-.12,13,.17,5.6.53,11.23,0,16.83a8.43,8.43,0,0,0,0,1.05L250,376.7l6,3.15c-.13-.64-.25-1.29-.4-1.93a3.82,3.82,0,0,1,.08-2.13c.29-.85.63-1.7.91-2.55.23-.67.13-1.44.56-2.07a.5.5,0,0,1,.34-.21.73.73,0,0,1,.5.17,2.36,2.36,0,0,1,.62.86c.24.87.4,1.76.59,2.63a2.53,2.53,0,0,0,.89,1.32A5,5,0,0,0,262,377c.52.15,1.06.21,1.58.35a1.54,1.54,0,0,1,1.17,2,.74.74,0,0,1-.75.6c-.71-.13-1.39-.4-2.09-.5a2.15,2.15,0,0,0-1.54.36,2.41,2.41,0,0,0-1.15,1.67l11.68,6.14c-.1-.68-.16-1.34-.16-1.37a9.92,9.92,0,0,0,.08-2.29c-1-3.7-.69-7.49-.73-11.24,0-.53.13-1.06.17-1.6a.58.58,0,0,1,.74-.59.92.92,0,0,1,.8.57c.49,1.35.22,2.86.87,4.19a3.25,3.25,0,0,1,0,2.61,14.46,14.46,0,0,0-.53,3.18,4.27,4.27,0,0,0,.21,2.12,7.59,7.59,0,0,1,0,4.73.56.56,0,0,1-.23.33l26.72,14.05a1.48,1.48,0,0,1,.19-1.3.87.87,0,0,1,.41.18,1.36,1.36,0,0,1,.61,1.32c0,.11-.17.21-.3.28l39.08,20.55c0-.18-.05-.37-.06-.55a4.83,4.83,0,0,0-1.46-3.38c-1.19-1.18-1-2.63-.5-4.05a3.81,3.81,0,0,1,.77-1.41,4.83,4.83,0,0,0,1.26-4c0-.35,0-.72-.08-1.08a5.92,5.92,0,0,1,.63-3l0,0,.08-.08-.11.1h-.07a2.61,2.61,0,0,0-1.68,2.31c0,.11-.25.31-.32.28s-.38-.21-.39-.33c-.07-.72-.11-1.44-.14-2.16s.4-.87,1.05-.54a2.53,2.53,0,0,0,1.47.43l.17-.09,0,.12.68,1c-.05-.1.06-.27.09-.41.35.13.39.37.22.68l.08.05s-.11.06-.11.06l.13-.06a1.1,1.1,0,0,0-.16,1,16,16,0,0,1,1.27,3,27.38,27.38,0,0,1,.38,4.84,48.25,48.25,0,0,1-.27,5.41,8.65,8.65,0,0,1-.76,3l20.17,10.6a8.86,8.86,0,0,0,12.85-9.34ZM435,212.43c0-.11.18-.16.28-.24a.65.65,0,0,1,0,.83.41.41,0,0,1-.29-.14A.83.83,0,0,1,435,212.43Zm-.09,4.61c.18,0,.45-.08.53,0a2.22,2.22,0,0,1,.52,2,.88.88,0,0,1-.67.68.65.65,0,0,1-.86-.48c-.11-.34-.24-.66-.32-1A1.14,1.14,0,0,1,434.92,217Zm-31,29.48c.45-.23,1,.17,1.09.75a.77.77,0,0,1-.45.85.89.89,0,0,1-1.11-.76A.77.77,0,0,1,403.87,246.52Zm-7.73-2a1.07,1.07,0,0,1-1.21.71c-.38-.15-.55-.83-.31-1.43a.67.67,0,0,1,.82-.44A1,1,0,0,1,396.15,244.56Zm1.16-13.47a5.3,5.3,0,0,1-.95,1.28,1.18,1.18,0,0,1-1.78-.42,5.59,5.59,0,0,1-.24-1c0-.71,0-1.44.06-1.89.25-1.12-.13-2,.27-2.9,0-.08.33-.13.4-.08,1,.82,1.36,2,2.15,3A2,2,0,0,1,397.31,231.09Zm-2.78-23.7a1.24,1.24,0,0,1,.43-.17.85.85,0,0,1,.57.82c0,.72-.24,1.35-.61,1.35a.59.59,0,0,1-.39-.17C393.92,208.49,393.92,208,394.53,207.38ZM377.37,240l.33.21-.36.14ZM354.64,229.3a.67.67,0,0,1,.9-.16.73.73,0,0,1,.34.9.62.62,0,0,1-.26.41c-.29.14-.58,0-.83-.29S354.45,229.55,354.64,229.3ZM192.47,293.5a.77.77,0,0,1-.26.44c-.2.12-.43-.11-.48-.55a19.65,19.65,0,0,1-.12-2.09.71.71,0,0,1,.57-.7c.09,0,.3.22.34.37.12.49.2,1,.25,1.33C192.64,292.83,192.58,293.17,192.47,293.5Zm.2-36.17a.71.71,0,0,1-.85.33.69.69,0,0,1-.28-.42,1.45,1.45,0,0,1,.28-1.43c.07-.09.28-.06.43-.08A.94.94,0,0,1,192.67,257.33ZM58.44,208.53a.68.68,0,0,1-.82.42,1.21,1.21,0,0,1-1-1.54.59.59,0,0,1,.74-.46A1.5,1.5,0,0,1,58.41,208,.87.87,0,0,1,58.44,208.53Zm3.61-6.92a1.49,1.49,0,0,1,.67-2.17,4.21,4.21,0,0,1,2.59-.08A2.38,2.38,0,0,1,67,201.2a1.27,1.27,0,0,1-1.11,1.46c-.17,0-.35,0-.5.06l-2.1-.22A1.8,1.8,0,0,1,62.05,201.61Zm4.48,13.6a1,1,0,0,1-1.27-.59,6.67,6.67,0,0,1-.21-1c0-1.07,0-2.14,0-3.21h-.13c.09-1.06.15-2.13.26-3.18,0-.46.31-.61.75-.55a1.05,1.05,0,0,1,.84.53,4.94,4.94,0,0,1,.64,2.56c-.09,1.43,0,2.84,0,4.27A1.4,1.4,0,0,1,66.53,215.21Zm17.75-6.84c-.06.12-.28.31-.34.27a.53.53,0,0,1-.26-.78c.05-.13.21-.21.33-.31l.28.35A1.3,1.3,0,0,1,84.28,208.37Zm60.13,32.34c-.05.4-.06.58-.08.76-.06.4-.22.72-.51.77a.7.7,0,0,1-.83-.54,11.19,11.19,0,0,1-.35-3.68c0-.17.1-.42.23-.47a.7.7,0,0,1,.84.32,2.63,2.63,0,0,1,.45,1C144.3,239.51,144.35,240.23,144.42,240.71Zm-3-32.71a2,2,0,0,1,.76-.6.81.81,0,0,1,.9.35,2.46,2.46,0,0,1,.31.42,6.07,6.07,0,0,1,.46,2.55,1.38,1.38,0,0,1-.36.95.54.54,0,0,1-.86.1,4.68,4.68,0,0,1-1.32-3.28A.72.72,0,0,1,141.39,208Zm-25.15,2.27a2.81,2.81,0,0,1,.32-.36,1.11,1.11,0,0,1,1,.4.6.6,0,0,1,0,.93.83.83,0,0,1-.91.37A1,1,0,0,1,116.24,210.26Zm1.31,4.7v.28l-.36-.14Zm-6.69,43.14c0,.44-.27.69-.65.55s-.44-.5-.4-.89.26-.67.62-.55a.69.69,0,0,1,.34.37A2.27,2.27,0,0,1,110.85,258.09Zm-17-19.5c-.13,0-.26-.25-.3-.4a.86.86,0,0,1,.27-.94,1.58,1.58,0,0,1,.52.06.65.65,0,0,1,.39.86A.71.71,0,0,1,93.82,238.59ZM95.87,219a.65.65,0,0,1-.16-.46.65.65,0,0,1,.16-.47c.26-.2.45,0,.48.46S96.14,219.16,95.87,219Zm1.38,30.24c-.12.05-.29.17-.38.13-.45-.18-.49-.45-.09-.67a.46.46,0,0,1,.43.09C97.28,248.85,97.24,249,97.25,249.2Zm.91-47.08-.07-.31.26.07Zm1,44,.21-.4.13.45ZM103.8,244a.92.92,0,0,1-1.35-.05,2,2,0,0,1-.17-2.38.77.77,0,0,1,.84-.43,1.82,1.82,0,0,1,.46.13A1.94,1.94,0,0,1,103.8,244Zm1.38-16.58a8.06,8.06,0,0,1-1.44.63,1.3,1.3,0,0,1-1.25-.77,2.9,2.9,0,0,1-.05-1,1.21,1.21,0,0,1,1.36-.91c.27.08.77.2,1.26.37a.76.76,0,0,1,.53.83A1,1,0,0,1,105.18,227.37Zm2.55,6.84a1,1,0,0,1-1.1-.79.9.9,0,0,1,.06-.5.64.64,0,0,1,.82-.4c.64.19,1,.6.88,1.08A.76.76,0,0,1,107.73,234.21Zm.71-13.22c-.12.16-.2.38-.32.41s-.47-.15-.53-.55.12-.64.47-.66c.12,0,.3.18.36.32A1.08,1.08,0,0,1,108.44,221Zm-.25-3.3a2.24,2.24,0,0,1-.94-.4,2.73,2.73,0,0,1-.61-1.47,5.87,5.87,0,0,0-.95-1.92c-.75-1.07-1.15-1.19-2.15-.53-.29.19-.58.54-.88.54a1.55,1.55,0,0,1-.91-.51,8.55,8.55,0,0,1-1-1.23.79.79,0,0,1,.33-1.28c1.13-.52,1.21-.61,1.28-1.45a5.13,5.13,0,0,1,.18-1.43l-.06-.14-.33,0,.58-.11h.3l-.16.07s-.16.1-.18.15c.17.42.29.85.43,1.28a1.58,1.58,0,0,0,1.73.93c.71-.11,1.38-.41,2.08-.49a1.22,1.22,0,0,1,.89.49c.8,1,.77,2.38,1.43,3.46.21.33.09.66,0,1-.27.85-.45,1.73-.69,2.59C108.46,217.44,108.25,217.71,108.19,217.7Zm.84,8.13a.63.63,0,0,1,.86-.37.93.93,0,0,1,.73.61,1.41,1.41,0,0,1-.51,1.35.66.66,0,0,1-.49,0C108.83,227.08,108.65,226.61,109,225.82Zm2.09,38.55c0,.14-.2.28-.33.38a.64.64,0,0,1-.92-.08,1.68,1.68,0,0,1,.39-2.64.51.51,0,0,1,.77.33,5.56,5.56,0,0,1,.14,1A6.48,6.48,0,0,1,111.12,264.38Zm1.23-9.76a.65.65,0,0,1-.25-.89c.06-.15.12-.38.24-.42a.57.57,0,0,1,.78.43,1.85,1.85,0,0,1,.06.49C113,254.57,112.68,254.78,112.35,254.62Zm1,8.41c-.07-.15-.23-.33-.19-.44.17-.55.36-.52.48.05Zm.92-21.36a.75.75,0,0,1-.88-.41.82.82,0,0,1,.46-1.18c.46-.15.95.31,1,.93A.66.66,0,0,1,114.27,241.67Zm1.27,8.64c0-.12.25-.18.37-.26a3.46,3.46,0,0,1,.23.41c.14.29.26.58.38.87l-.15.25s0-.38,0-.38l.11.13-.11-.13c-.16-.05-.31-.08-.46-.13A.55.55,0,0,1,115.54,250.31Zm3.08,13.15a2,2,0,0,1-2.3-2.07.53.53,0,0,1,.72-.49,3.07,3.07,0,0,1,1.85,1.75,3.88,3.88,0,0,1,.15.51C118.9,263.25,118.77,263.41,118.62,263.46Zm22.28-31.12c-.34.07-.65-.27-.84-.57a4.1,4.1,0,0,1-.71-2.57c0-.37.17-.81.51-.86s.59.33.87.57a.85.85,0,0,1,.27.45c.17.69.32,1.4.42,1.86C141.4,231.83,141.25,232.26,140.9,232.34Zm1.7-12.41c.31-.37.77.11.78.78a.9.9,0,0,1-.46.87,1,1,0,0,1-.56-.73A1,1,0,0,1,142.6,219.93Zm1.74,37.47c0,.18-.14.48-.21.48a1.12,1.12,0,0,1-.91-.47,1.18,1.18,0,0,1-.26-.47c-.18-1.25-.32-2.51-.48-3.77.41-2.33-.09-4.69.09-7a.67.67,0,0,1,.63-.67.72.72,0,0,1,.79.59c.13.53.25,1.05.33,1.59a13.19,13.19,0,0,1,.11,1.62c0,1.09,0,2.18,0,4.51A17.8,17.8,0,0,1,144.34,257.4Zm-12.2,173.89a.94.94,0,0,1-.9.5c-.14-.08-.33-.13-.41-.25a2,2,0,0,1-.14-2.05.81.81,0,0,1,.9-.48.85.85,0,0,1,.7.68A2.34,2.34,0,0,1,132.14,431.29Zm1.57-14.19c-.42,0-.53-.21-.27-.44a.49.49,0,0,1,.41-.05c.1,0,.15.19.22.29C133.94,417,133.82,417.1,133.71,417.1Zm21-170.62c.11,0,.25,0,.32,0,.27.22.21.46-.2.62,0,0-.23-.2-.28-.34S154.67,246.6,154.73,246.48Zm-.95,139c.19.65.31,1.33.43,1.86-.08.31-.09.49-.14.65a1,1,0,0,1-.68.66.62.62,0,0,1-.83-.42,3.66,3.66,0,0,1,.08-3,.44.44,0,0,1,.32-.27A.77.77,0,0,1,153.78,385.46Zm-1.35-196a1.8,1.8,0,0,1,.41-.3c.34.05.7.79.59,1.25a1,1,0,0,1-.62.74c-.07,0-.27-.19-.36-.32A1.13,1.13,0,0,1,152.43,189.48Zm-1.83,10.29a5.56,5.56,0,0,1,.17,1c0,.44-.17.71-.54.74a.56.56,0,0,1-.42-.26.7.7,0,0,1-.09-.49C149.9,200,150.48,199.38,150.6,199.77Zm-1.48-7c0-.18,0-.36,0-.54,0-.42.17-.86.42-.82s.44.48.46.88.06.71.1,1.06c.07.91-.11,1.37-.48,1.34s-.59-.56-.56-1.39C149.1,193.11,149.11,192.93,149.13,192.76ZM143.5,369.09a.73.73,0,0,1-.71-.56.58.58,0,0,1,.84-.77.89.89,0,0,1,.51.79A.58.58,0,0,1,143.5,369.09Zm1.25-24.64c0-.18,0-.36-.06-.54a13.59,13.59,0,0,1,.05-3.79,4.2,4.2,0,0,0,.11-1.61c-.45-2,0-4,.16-5.93,0-.08.36-.19.36-.18.48.93,1.37,1.7,1.13,2.9-.14.72-.24,1.42-.38,2.26a9.73,9.73,0,0,1,0,2,6.74,6.74,0,0,0,.26,3.2,14.29,14.29,0,0,1,.29,1.59c.09.48-.46,1.22-.86,1.18A1.52,1.52,0,0,1,144.75,344.45Zm1.86,35.39c-.11.09-.32.07-.48.1a.82.82,0,0,1-.44-.81.68.68,0,0,1,.53-.72.67.67,0,0,1,.47.09A.85.85,0,0,1,146.61,379.85Zm.46-27.67a.88.88,0,0,1-.95-.28,2.35,2.35,0,0,1-.45-2c.05-.32.26-.78.5-.85s.66.19.92.4a1.71,1.71,0,0,1,.63,1.43,7,7,0,0,1-.26,1A.64.64,0,0,1,147.07,352.18Zm1.56,18.22a.9.9,0,0,1-.87-.42,1.54,1.54,0,0,1-.18-1.5,1,1,0,0,1,.76-.68.82.82,0,0,1,.8.5,9.13,9.13,0,0,1,.39,1A1.06,1.06,0,0,1,148.63,370.4Zm1.94-162.07a.65.65,0,0,1-.48-.18,3.58,3.58,0,0,1-.44-3.43.61.61,0,0,1,.83-.41.77.77,0,0,1,.35.26,1,1,0,0,1,.18.48c.07.51.12,1,.17,1.62-.09.43-.18.95-.31,1.43A.36.36,0,0,1,150.57,208.33Zm.55,169.12a2.33,2.33,0,0,1,.07-1.05,1,1,0,0,1,.84-.56.79.79,0,0,1,.94.37,5.68,5.68,0,0,1,.35,1c0,.18,0,.37-.1.53-.23.81-.56,1.07-1.07.84S151.17,378.07,151.11,377.45Zm4.07,43a24.9,24.9,0,0,1-.69,5.1.72.72,0,0,1-.67.61c-.13,0-.32-.22-.37-.37a11.11,11.11,0,0,0-1.15-3.54,2.27,2.27,0,0,1-.08-2.09c.38-1,.81-2,1.19-3,.15-.43.82-.53,1.24,0a2.51,2.51,0,0,1,.61,1.46A18.23,18.23,0,0,1,155.18,420.46ZM157,345.09l-.13-.4.37,0Zm34,2.92.07.3-.26-.06Zm-3.27-22.41.23.37c-.06.13-.07.35-.15.37-.32.09-.48-.12-.39-.52C187.51,325.74,187.68,325.68,187.79,325.6Zm-4.41-76.35.24.45c-.05.15-.07.39-.16.43-.35.14-.54-.07-.43-.52C183.06,249.47,183.26,249.37,183.38,249.25ZM182.82,262a.58.58,0,0,1,.49,0,.69.69,0,0,1,.24.44,2.54,2.54,0,0,1,0,.53c-.08.12-.15.36-.26.39a.65.65,0,0,1-.81-.47A.68.68,0,0,1,182.82,262Zm.33,66.6a1.12,1.12,0,0,1-.29,1,.71.71,0,0,1-1.23-.23,2,2,0,0,1-.13-.52.85.85,0,0,1,.45-.91A.92.92,0,0,1,183.14,328.55Zm-.87,19.52a1.37,1.37,0,0,1,.17.49,2.52,2.52,0,0,1-.27,1,4.08,4.08,0,0,1-2.12,1.44,1.3,1.3,0,0,1-1.5-1.05,2.19,2.19,0,0,1,1.93-2.61A1.8,1.8,0,0,1,182.28,348.08ZM181.48,336a.5.5,0,0,1,.23-.39c.38-.18.59,0,.49.44,0,.09-.26.14-.4.21C181.69,336.15,181.48,336.06,181.48,336Zm-.36-112.29a.7.7,0,0,1,.73.52c.16.38.1.66-.28.8a.6.6,0,0,1-.47,0,.7.7,0,0,1-.23-.42,2.18,2.18,0,0,1,0-.5C181,223.95,181,223.71,181.13,223.7Zm-.27,93.42c.25,1.23.48,2.48.71,3.73a1.94,1.94,0,0,1-.73,1.38,1.9,1.9,0,0,1-2-.38,1.37,1.37,0,0,1-.29-.45,8.33,8.33,0,0,1,.09-2.79c0-.45,0-1,0-1.54a1.07,1.07,0,0,1,.49-.86,1.39,1.39,0,0,1,1.44.44A2.12,2.12,0,0,1,180.86,317.12Zm-2.92-7.25a1.08,1.08,0,0,1,.47-1.38,1.11,1.11,0,0,1,1.43.3,1.2,1.2,0,0,1,.26,1,1,1,0,0,1-.47.92.82.82,0,0,1-1-.06A3,3,0,0,1,177.94,309.88Zm1.89-25.82c.16.05.26.24.38.35a1.32,1.32,0,0,1,0,.53.9.9,0,0,1-1.33.26.6.6,0,0,1-.22-.39A.86.86,0,0,1,179.83,284.06Zm-1.31-11.86c0,.07,0,.13,0,.2.27.09.38.23.26.45-.09-.06-.24-.11-.27-.19a.66.66,0,0,1,0-.26c-.05,0-.07,0-.14-.06Zm-1,23.53a.79.79,0,0,1,.28-.4.68.68,0,0,1,.91.06.93.93,0,0,1,.31.43c.18.68.33,1.38.22,1,.33,1.48.23,1.8.05,2.11s-.5.11-.88-.73c-.29-.64-.63-1.26-.91-1.9A.86.86,0,0,1,177.54,295.72Zm-3.6,16.86a.89.89,0,0,1-.88-.47c-.78-1.25-.72-1.53.6-2.56a1.39,1.39,0,0,0,.49-1.44,2.06,2.06,0,0,0-.48-.94c-.3-.34-.24-.54.28-.62a.73.73,0,0,1,.51.17,1.08,1.08,0,0,1,.25.47,7.38,7.38,0,0,1,.12,1c.05.54.08-.48.12,2.14h.09a8.87,8.87,0,0,1,0,1.1,2.28,2.28,0,0,1-.27.78C174.64,312.57,174.32,312.53,173.94,312.58Zm.73,17.18-.35,0,.21-.34Zm-.43-11.21c-.1.4-.35.7-.67.63s-.51-.45-.51-.86,0-1.08.51-1.42c.13.05.32.06.4.16A1.6,1.6,0,0,1,174.24,318.55Zm-.54-33.46a.86.86,0,0,1,.9-.12,1,1,0,0,1-.17,1.63.94.94,0,0,1-1.14-.65A.74.74,0,0,1,173.7,285.1Zm-1.38-12.83c.05-.09.33-.11.46-.06s.23.22.37.37a1.14,1.14,0,0,1-.13.9c-.17.33-.41.67-.7.57s-.4-.53-.32-.87A3.16,3.16,0,0,1,172.32,272.27Zm-3.86-6.9a9.55,9.55,0,0,0,.75,3.62,1.8,1.8,0,0,1,.06,1.56c-.58,1.13-.71,2.39-1.17,3.54-.1.26-.54.4-.86.54s-.67,0-.74-.5-.14-.71-.16-1.06c0-.71,0-1.42,0-1.48.09-1,.14-1.37.16-1.74a5.14,5.14,0,0,0-.64-2.55,1.76,1.76,0,0,1,1.26-2.48C167.6,264.67,168.44,265,168.46,265.37Zm.76,29.26,0,.28-.24-.17Zm-1.4-56.86a2.52,2.52,0,0,1,.09.51,1.33,1.33,0,0,1-1.07,1,1.74,1.74,0,0,1-1-.28,2,2,0,0,1-.62-1.43c0-.63.22-1.32.54-1.36a1.35,1.35,0,0,1,1,.33A3,3,0,0,1,167.81,237.77Zm-3.07-13.56a12.16,12.16,0,0,0,.32-3.72c-.06-.89-.14-1.78-.13-2.68s.09-1.78.16-2.67a4,4,0,0,1,1.37-2.6v0a1.55,1.55,0,0,1-.08-.3,2.06,2.06,0,0,1-1-2.45.66.66,0,0,1,.32-.37c.29-.16.51,0,.6.48.14.77-.13,1.57.08,2.34a2.84,2.84,0,0,0,.24.16l-.15.15a1.29,1.29,0,0,1,.61,1.34,9.49,9.49,0,0,0-.47,2.62q0,4.82-.15,9.65a3.36,3.36,0,0,1-.25,1,.78.78,0,0,1-.33.32.65.65,0,0,1-1-.24,1.93,1.93,0,0,1-.39-.94A8.8,8.8,0,0,1,164.74,224.21Zm-.06,73.42c.08,0,.2.11.3.17s0,.25,0,.32c-.21.27-.43.2-.6-.2C164.33,297.87,164.55,297.68,164.68,297.63Zm-3.19-41.36c-.07.11-.14.33-.21.33-.48,0-.53-.2-.15-.5Zm-1.06-53.45.29.35-.35.29c-.1-.12-.27-.24-.26-.35S160.31,202.92,160.42,202.82Zm-.81,3.87a.68.68,0,0,1,.33-.37.59.59,0,0,1,.83.25,2,2,0,0,1,.16,1.49.75.75,0,0,1-.28.42c-.11.06-.29,0-.41,0A1.61,1.61,0,0,1,159.61,206.7Zm.29,69.65c.18-1.06.54-2.09.81-3.14a2.7,2.7,0,0,0-.27-2.09,3.66,3.66,0,0,1-.44-2.6,1,1,0,0,1,1-1,.81.81,0,0,1,.82.56c.38.88.09,1.78,0,3.56a9.47,9.47,0,0,0,.1,1.26,6.64,6.64,0,0,1-.11,3.21,2.58,2.58,0,0,0-.13,1.07,13.65,13.65,0,0,1,.08,4.32c.75,1.95.28,3.92.13,5.88,0,.46-.24.71-.5.62a.83.83,0,0,1-.34-.39c-.25-.48-.48-1-.68-1.47a2.08,2.08,0,0,1-.08-1.58,13,13,0,0,0,.79-2.58,2.51,2.51,0,0,0-.25-1.57c-.15-.33-.37-.62-.55-.93A4.78,4.78,0,0,1,159.9,276.35Zm.68,19.88a9,9,0,0,0,.37-2.13c.08-.45.29-.68.63-.62a.7.7,0,0,1,.41.26,4,4,0,0,1,.73,2.55c-.09,1.07-.2,2.15-.31,3.22h.08c-.09.72-.16,1.43-.24,2.15a11.87,11.87,0,0,0,.23,4.3,3.87,3.87,0,0,1-.32,2.63,1,1,0,0,1-.38.31c-.41.25-.66.12-.72-.4l-.95-7.5A8.86,8.86,0,0,1,160.58,296.23Zm3,90.37a.76.76,0,0,1-.93.36.83.83,0,0,1-.4-.92,1.22,1.22,0,0,1,.11-.52,2.11,2.11,0,0,1,.42-.4.76.76,0,0,1,.84.45A1.06,1.06,0,0,1,163.58,386.6Zm1.48,17.73a.56.56,0,0,1-.82.28.82.82,0,0,1-.35-.33.56.56,0,0,1,.24-.82,3.38,3.38,0,0,1,.46-.15,1.28,1.28,0,0,1,.4.15A.66.66,0,0,1,165.06,404.33ZM170,350.92a.57.57,0,0,1-.81-.36c-.06-.3.24-.5.6-.51s.57.23.51.54A.5.5,0,0,1,170,350.92Zm21.9,46c-.27.07-.67-.17-.94-.37a2.37,2.37,0,0,1-.63-.85c-.68-1.46-.93-3.09-1.77-4.51a5.55,5.55,0,0,1-.47-1.54c-.33-1.4-.63-2.8-1-4.2a2.7,2.7,0,0,1-.13-1.55,2.44,2.44,0,0,0,0-1h.39a4.15,4.15,0,0,1-2.83-2.73c-.14-.33-.18-.67-.31-1-.06-.16,0-.34-.09-.53a14,14,0,0,0-.7-3.17c-.59-1.13-1.55-2-2.06-3.19-.21-.49-.74-.74-1.21-1a2,2,0,0,1-1-1.81,5.19,5.19,0,0,0-.42-3.15c-.35-1.59-.71-3.18-1-4.79a7.55,7.55,0,0,0-1.59-3.41,4.36,4.36,0,0,1-.92-1.94,10.23,10.23,0,0,0-.51-2.11c-1.15-2.66-2.38-5.29-3.36-8a1.55,1.55,0,0,0-.25-.49c-1.52-1.91-1.91-4.27-2.62-6.5a15.25,15.25,0,0,0-1.44-3.5.69.69,0,0,0-.94-.1,6.27,6.27,0,0,0-2.47,2.8,1.4,1.4,0,0,0,.45,1.89,1.27,1.27,0,0,1,.59,1.38,12.27,12.27,0,0,0-.47,3.2,43,43,0,0,1-.09,5.43,34.58,34.58,0,0,0,0,5.43,81.74,81.74,0,0,1-.22,10.87A4.88,4.88,0,0,1,163,369a.63.63,0,0,1-1.16-.28,5.8,5.8,0,0,1,0-1.62,4.61,4.61,0,0,0-.31-2.66,3,3,0,0,1-.15-2.09,3.68,3.68,0,0,0,.08-1.61,11.83,11.83,0,0,1,0-2.69c.05-1.28.36-2.52.37-3.79s-.36-2.5-.42-3.75a48.43,48.43,0,0,1,.16-9.22,7.35,7.35,0,0,0-.2-3.22,5.59,5.59,0,0,1,0-2.69,7.67,7.67,0,0,0-.33-4.27,5.5,5.5,0,0,1-.06-3.74c.21-.69.43-1.39.6-2.09a3.16,3.16,0,0,0,0-1.61,11.28,11.28,0,0,1-.5-4.29,1.41,1.41,0,0,1,.44-1,1.28,1.28,0,0,1,1.47-.19,2.3,2.3,0,0,1,1.33,2.19,11.64,11.64,0,0,1-.21,1.61,3.22,3.22,0,0,0,.3,2.11,10.7,10.7,0,0,1,1,3.64,3.66,3.66,0,0,0,.84,2c1.19,1.17,1.55,2.87,2.67,4.09a3.74,3.74,0,0,1,.65,1.48,39.72,39.72,0,0,0,2.24,6.09,5.36,5.36,0,0,0,.91,1.34c.48.53,1.2.87,1.42,1.59a17.77,17.77,0,0,1,1.13,3.62,22.71,22.71,0,0,0,2.41,7.73,1.36,1.36,0,0,0,1.35.72,1.62,1.62,0,0,1,1,.12c.13.09.31.26.3.38a31,31,0,0,0-.17,3.25,24.07,24.07,0,0,0,.6,3.19,7.12,7.12,0,0,0,.52,2.08c.67,1.12.61,2.45,1.28,3.56s1.13,2.27,1.74,3.39a5.84,5.84,0,0,1,.7,2,5.62,5.62,0,0,0,.69,2,10.36,10.36,0,0,1,1.26,5.22c0,.58,0,1,.48,1.26H187a2.77,2.77,0,0,0,.46,1c.55,1.13,1.41,2.21,2,3.34a6,6,0,0,1,.84,2,19.06,19.06,0,0,0,1.76,5.63,4.6,4.6,0,0,1,.19,1.06C192.28,396.4,192.22,396.85,191.88,396.94Zm1-50.59a.51.51,0,0,1-.37-.32.52.52,0,0,1,.47-.74c.1,0,.24.22.37.36C193.48,346.05,193.33,346.33,192.88,346.35Zm61.31-244c.1.13.26.24.31.37a.57.57,0,0,1-.43.77c-.06,0-.22-.22-.28-.37A.52.52,0,0,1,254.19,102.39Zm-1.91,175.48c-.07.13-.31.33-.35.29a.62.62,0,0,1-.3-.84c.06-.12.25-.2.38-.3A.59.59,0,0,1,252.28,277.87Zm-1.41-117.19c.3,0,.47.48.5.85a5.35,5.35,0,0,1,0,.61.86.86,0,0,1-.58.73s-.28-.23-.33-.38a3.3,3.3,0,0,1-.18-1C250.29,161.11,250.54,160.66,250.86,160.68ZM244.92,174c.21.23.56.57.5.75s-.52.36-.85.21a.63.63,0,0,1-.34-.81c0-.14.17-.33.29-.36A.53.53,0,0,1,244.92,174Zm-.9-10.16a.88.88,0,0,1-.83-.55,2.37,2.37,0,0,1-.14-1.56.47.47,0,0,1,.78-.34,1.62,1.62,0,0,1,.81,1.78A.66.66,0,0,1,244,163.88Zm.33-8.31a.89.89,0,0,1,.46.86,4.36,4.36,0,0,1-.05.5.75.75,0,0,1-.65.63.79.79,0,0,1-.84-.45,2,2,0,0,1-.07-1A.84.84,0,0,1,244.34,155.56ZM242.53,135a.64.64,0,0,1,.86-.4c.11,0,.21.27.22.42.08.71.12,1.43.17,2.14h-.11c0,.72,0,1.43,0,2.16,0,.47-.2.71-.52.65-.15,0-.35-.16-.39-.28a14.46,14.46,0,0,1-.62-2.07A4.2,4.2,0,0,1,242.53,135Zm-1-33.45a1.27,1.27,0,0,1,.35.11c0,.09-.08.27-.12.27a1.13,1.13,0,0,1-.36-.12C241.4,101.74,241.44,101.57,241.49,101.57ZM240.4,210.21l0,.37-.28-.29Zm-1.61-84.82c.12,0,.23.2.35.3-.05.15-.07.37-.16.43-.34.18-.56,0-.53-.43A.48.48,0,0,1,238.79,125.39Zm-.17,19.3c0-.12.18-.27.29-.27.34,0,.35.26.37.73,0,.89.22,1.79.33,2.62a2.28,2.28,0,0,1,0,.6c-.58,2-.26,3.93-.1,5.91a2.84,2.84,0,0,1-.7,2,.79.79,0,0,1-.92.34.58.58,0,0,1-.33-.83,4.31,4.31,0,0,0,.3-3.65c0-1.26.1-2.51-.05-3.77a5,5,0,0,1,.45-2.1C238.42,145.75,238.48,145.22,238.62,144.69Zm-12.56,191-.15.39-.18-.39Zm-1.33,35.55c-.41.07-.62-.13-.84-.46a2.77,2.77,0,0,1-.29-2.46,1,1,0,0,1,.76-.57c.42-.11.63,0,.79.46a4.27,4.27,0,0,1,.42,2A1,1,0,0,1,224.73,371.28Zm.24,4.31c-.2.38-.49.43-.9.25s-.56-.45-.32-.85a.86.86,0,0,1,.39-.33.51.51,0,0,1,.82.38A2.64,2.64,0,0,1,225,375.58Zm-1.51-12.87a1.56,1.56,0,0,1,.13-.41c.11.05.28.07.31.15a1.38,1.38,0,0,1,0,.45l-.32.25A1.4,1.4,0,0,1,223.47,362.71Zm-1.34-102a7.86,7.86,0,0,1,.31,1,6.18,6.18,0,0,1,.08.65c-.11.4-.21.91-.37,1.41a1.07,1.07,0,0,1-1.68.54,10.26,10.26,0,0,1-.83-.64.92.92,0,0,1-.28-1.32q.8-1,1.62-2.06C221.31,259.88,221.89,260.09,222.13,260.73Zm-.73,41,0-.1,0-.12.28-.29c.09.09.27.19.26.27,0,.24-.14.33-.29.34s0,0,0,.05l0-.07a.45.45,0,0,1-.26-.06h0Zm-6.81-143.05a4,4,0,0,1,.11-3.17,4.39,4.39,0,0,0,.41-2.11c-.05-1.08,0-2.19-.19-3.26a19.5,19.5,0,0,1-.11-4.35,18.75,18.75,0,0,0-.23-5.41,5,5,0,0,1,.15-2.69,18.69,18.69,0,0,0,.87-4.8.77.77,0,0,1,.25-.43c.26-.24.42-.05.4.5a20.74,20.74,0,0,0,.31,4.41,20.64,20.64,0,0,1,0,2.09,10.93,10.93,0,0,0,.27,4.31,3.5,3.5,0,0,1,.17,1.61c-.46,2.34.12,4.72-.26,7.07a3.23,3.23,0,0,0,1.54,3.24c.44.33.38.76-.16,1.34a2.64,2.64,0,0,0-.88,1.91c0,.18,0,.36,0,.54.15,1.64-.1,3.27-.08,4.89a25,25,0,0,1-.18,4.88,2.17,2.17,0,0,0,0,1.08c.57,1.61.15,3.24.19,4.86a40.08,40.08,0,0,1-.09,4.34,2.12,2.12,0,0,0,1.13,2.25,2,2,0,0,1,1,1.26,5.5,5.5,0,0,1,.12,1.6,2.11,2.11,0,0,1-1.26,1.66,1.32,1.32,0,0,0-.78,1.31c.07.89.24,1.79.37,2.68a7.5,7.5,0,0,1,1.17,4.11,10.45,10.45,0,0,0,.58,1.52,2.57,2.57,0,0,1-.51,2.54l-.39.39a2.55,2.55,0,0,0-.89,1.91c0,2.72.08,5.44.13,8.17,0,.6.4.73,1.13.33a.83.83,0,0,1,1.24.47,4.26,4.26,0,0,1,.28,2.13,9.09,9.09,0,0,1-.36,1.58,4.52,4.52,0,0,0-.1,2.67,13.4,13.4,0,0,1,.61,4.3c-.07,2.53.5,5.05.1,7.61a7.91,7.91,0,0,0,.15,2.17,42.28,42.28,0,0,1-.36,11.39,7.33,7.33,0,0,0,0,2.69c.23,1.06.43,2.13.63,3.2a4.52,4.52,0,0,1-.1,2.15c-.37,1.39-.78,2.78-1.19,4.17-.13.46-.41.59-.79.4-.15-.09-.35-.13-.45-.26A3.18,3.18,0,0,1,218,253a5.51,5.51,0,0,1,.18-3.74,4,4,0,0,0,.13-2.65c-.46-1.75-.8-3.53-1.25-5.29a7.36,7.36,0,0,1,.27-4.8,2.13,2.13,0,0,0-.25-2.05,6.11,6.11,0,0,1-1-4.65,17.82,17.82,0,0,0,0-6,23.65,23.65,0,0,1-.29-7,6.64,6.64,0,0,0-.12-2.17,10.6,10.6,0,0,1,0-3.78,11,11,0,0,0,0-3.25,36.28,36.28,0,0,1-.06-9.22,5.49,5.49,0,0,0,.08-1.62,38.18,38.18,0,0,1-.12-6,11.68,11.68,0,0,0-.72-5.33,1.8,1.8,0,0,1,.09-1.06c.12-.52.51-1,.45-1.54-.27-2.37.26-4.71.11-7.07-.14-2.17-.08-4.35-.15-6.53a11.62,11.62,0,0,0-.6-3.2c-.21-.69-.39-1.4-.56-2.1a3.34,3.34,0,0,1,.13-2.14A4.14,4.14,0,0,0,214.59,158.68ZM214,242c.4-.13.92.27,1.06.84a.7.7,0,0,1-.4.85.79.79,0,0,1-1.19-.45A1.05,1.05,0,0,1,214,242Zm-1.62,61.55a15.27,15.27,0,0,1,1.45.64c.25.18.34.59.5.89a1,1,0,0,1-.79,1.17c-.34.09-.7.16-1,.22a1.23,1.23,0,0,1-1.4-1.2,5.35,5.35,0,0,1,.16-1C211.42,303.55,211.85,303.25,212.38,303.52Zm-.34,6.33a.59.59,0,0,1-.4.79c-.08,0-.29-.18-.34-.31a.51.51,0,0,1,.37-.78C211.75,309.53,211.91,309.75,212,309.85Zm-7.67-137.54c-.08.11-.29.24-.35.21a.69.69,0,0,1-.33-.89c0-.15.21-.24.32-.35.12,0,.29,0,.36.14A.64.64,0,0,1,204.37,172.32Zm-.42-5.93c.3,0,.43.42.36.76a.58.58,0,0,1-.23.36c-.31.14-.53,0-.59-.42S203.63,166.36,203.95,166.38Zm-.4,60.36a2.08,2.08,0,0,1,.31-.44,3.74,3.74,0,0,1,.37.4.91.91,0,0,1,.18.46c-.12,1.81.18,3.6.18,5.4a4.75,4.75,0,0,0,1.48,3.36l-.23.26s.1-.38.11-.38c-.34.05-.71.22-1,.11a1.7,1.7,0,0,1-.74-.75,6.74,6.74,0,0,1-.84-3.1,14.89,14.89,0,0,1,.2-2.69C203.7,228.5,203.23,227.63,203.55,226.74Zm-.76-27c.09,0,.24,0,.25.06a2.21,2.21,0,0,1,0,.41c-.1,0-.26,0-.27-.06A2,2,0,0,1,202.78,199.71Zm-2.43,80.62a2.22,2.22,0,0,1-1,1.83c-.83.43-1.29,1.23-2,1.78-.34.26-1.08-.07-1.26-.51a4.16,4.16,0,0,1-.07-3.15,2,2,0,0,1,1.58-1.29,7.06,7.06,0,0,1,1.08-.08C199.89,278.83,200.52,279.35,200.35,280.33ZM198.47,246c.1.05.16.22.25.33s-.08.35-.16.38c-.31.09-.47-.11-.39-.51C198.18,246.11,198.41,246,198.47,246Zm-1.91-10.17c.1,0,.26.2.32.34a1.47,1.47,0,0,1,0,.48c-.1.12-.18.32-.31.34s-.46-.15-.47-.54S196.25,235.83,196.56,235.83Zm-.12,17.38a1.6,1.6,0,0,1,.09-1.17l0-.08.07,0-.08,0c.63-.74.34-1.74.73-2.54a.81.81,0,0,1,.79-.5.76.76,0,0,1,.79.63c.1.34.2.68.26,1a1.49,1.49,0,0,1,0,.53c-.13.69-.64,1.36-1.48,1.15-.33-.09-.68-.2-1-.31,0,0,0,.06,0,.09s.18.29.15.41-.15.51-.24.76a2.68,2.68,0,0,1,.12,1.22c0,.11-.16.19-.24.29-.09-.11-.27-.25-.24-.34C196.18,254,196.31,253.6,196.44,253.21Zm-.83,16.13c.12-.89.29-1.78.38-2.68.06-.71,0-1.42,0-2.14,0-.51.31-.67.73-.43a.67.67,0,0,1,.31.35,3.62,3.62,0,0,1,.16,1.06c0,.9-.12,1.8-.2,2.82a9.92,9.92,0,0,1,.06,3.09c-.12.41-.29.69-.71.71s-.53-.24-.64-.65a5.37,5.37,0,0,1-.16-1.06A6,6,0,0,1,195.62,269.34Zm5.59,46.74a11.1,11.1,0,0,0-1.38,2.91c-.09.35-.33.73-.27,1,.41,2-.37,3.93-.5,5.9a2.72,2.72,0,0,1-.28,1,.92.92,0,0,1-.84.49c-.46,0-.69-.23-.68-.64.07-2-.44-3.94-.27-5.94a16.25,16.25,0,0,0-.27-3.24c-.14-1.07-.37-2.14-.48-3.21-.09-.9,0-1.8-.06-2.49a7,7,0,0,1,.1-3.43,15.71,15.71,0,0,1,.62-2.08,5.71,5.71,0,0,0,0-3.72,1.54,1.54,0,0,1,.68-1.87c.38-.26.64-.57.31-.87a24.49,24.49,0,0,1-3.06-3.71,1.81,1.81,0,0,1,.1-2,6.14,6.14,0,0,1,.78-.75,1.35,1.35,0,0,0,.5-1.43,10.85,10.85,0,0,1-.3-3.76,1.82,1.82,0,0,1,1.86-1.58c.36,0,.72.06,1.08.09a1.81,1.81,0,0,1,.54.06,2,2,0,0,1,1.15,1.07,10.85,10.85,0,0,1,.64,4.26,3.65,3.65,0,0,1-.6,1.48,3.38,3.38,0,0,0-.5,2c.14,1.62.18,3.24.29,4.86s.1,1.51-1.59,2.31a1.09,1.09,0,0,0-.26,1.76c.27.23.55.48.84.69s.91.59,1.32.94a.69.69,0,0,1,.17.95.83.83,0,0,1-.92.32c-.35-.07-.68-.26-1-.34a.6.6,0,0,0-.78.54,2.38,2.38,0,0,0,.48,2,7.79,7.79,0,0,1,1.84,3.84,6,6,0,0,0,.76,1.43A1,1,0,0,1,201.21,316.08ZM207.06,328c-.31,2.48-.29,2.48.38,5.28a2.59,2.59,0,0,1-.21,1.59c-.47,1.17-1.53,2-1.69,3.37,0,.41-.37.63-.63.53a.66.66,0,0,1-.26-.46,9.59,9.59,0,0,1,0-3.25,4.83,4.83,0,0,0,0-2.62,8.71,8.71,0,0,0-.52-3.76,3.62,3.62,0,0,1-.32-1.59,39.84,39.84,0,0,0-.46-5.41,8.25,8.25,0,0,1,.05-2.16,9.16,9.16,0,0,0,0-2.7,20.27,20.27,0,0,1-.15-7,5.75,5.75,0,0,0,0-2.16c-.29-1.45.17-2.9-.08-4.33a18.48,18.48,0,0,1,0-3.78,70.91,70.91,0,0,0,0-8.15,44.12,44.12,0,0,1,0-6c.09-1.8-.36-3.6.05-5.41a5.8,5.8,0,0,0-.2-2.15,6.17,6.17,0,0,1,.2-3.21,7.85,7.85,0,0,0,.38-3.22,37.4,37.4,0,0,1-.06-5.43,12.51,12.51,0,0,0-.32-4.32,14.38,14.38,0,0,1-.33-4.32c0-1.45.22-2.9.21-4.34a31.35,31.35,0,0,0-.39-7,13.78,13.78,0,0,1,.13-5.41,1.57,1.57,0,0,1,1-1.2.64.64,0,0,1,.91.35,1.3,1.3,0,0,1,.21.49,14.09,14.09,0,0,0,1.47,5.61,2.07,2.07,0,0,1,0,1.06c-.09.51-.57.88-.52,1.49a31.22,31.22,0,0,1,0,6,21.05,21.05,0,0,0,.08,3.24,12.17,12.17,0,0,1-.75,5.34,4.3,4.3,0,0,0,.06,3.66,8.7,8.7,0,0,1,.58,4.27,9.42,9.42,0,0,0,.32,3.75,9.12,9.12,0,0,1,.44,3.22c-.17,3.8.36,7.6.3,11.41.36,1.62-.17,3.26.1,4.87a26.37,26.37,0,0,1,0,4.88,30.05,30.05,0,0,0,.26,5.42,50,50,0,0,1,.34,5.41,4.08,4.08,0,0,1-.19,1.59,7.44,7.44,0,0,0-.26,4.27c.14.72.06,1.47.24,2.16a11.54,11.54,0,0,1-.12,7,5.57,5.57,0,0,0-.14,1.6A14.7,14.7,0,0,1,207.06,328Zm2.91-26.9a.88.88,0,0,1-.94,0,.9.9,0,0,1-.45-.88,2.32,2.32,0,0,1,1.85-2.17.62.62,0,0,1,.75.5A2.16,2.16,0,0,1,210,301.12Zm6.29,71c-.17.26-.56.37-.85.56a.61.61,0,0,1-.63-.62,6.73,6.73,0,0,1,.16-1.55.76.76,0,0,1,.81-.55c.33,0,.54.25.66.64A1.8,1.8,0,0,1,216.26,372.09Zm-1.43-18.44.21-.3.1.35Zm.86,5.23s.07.2.11.32c-.15,0-.35.14-.42.08C215.09,359,215.21,358.85,215.69,358.87Zm.66-10a7.25,7.25,0,0,1-1.09,2.47.55.55,0,0,1-.9.06,2.46,2.46,0,0,1-.89-1.3,6.84,6.84,0,0,1-.23-2.15,11.57,11.57,0,0,1,.61-3.19,2.06,2.06,0,0,0-.91-2.35,11,11,0,0,1-1.22-1.05,1.75,1.75,0,0,1-.48-1.5,7.77,7.77,0,0,0,.11-3.75,7.19,7.19,0,0,1-.15-2.17c.1-3.27,0-6.52-.21-9.79,0-.54.06-1.08.09-1.63s.57-1.08,1-.7a2.89,2.89,0,0,0,2,.63,1.74,1.74,0,0,1,1.85,1.58,3.83,3.83,0,0,1,.14.52c.06.54.09,1.09.11,1.25,0,.74,0,1.1,0,1.47,0,.55-.76,1.18-1.49,1.27a2.15,2.15,0,0,0-1,.21,1.57,1.57,0,0,0-.4,1,11,11,0,0,0,0,1.62,2.4,2.4,0,0,0,1,1.84c.28.23.65.34.92.57a4.13,4.13,0,0,1,1.36,3.4,2.44,2.44,0,0,1-.26,1.05,6,6,0,0,0-.39,3.72c.2,1.44.55,2.85.81,4.27A4.92,4.92,0,0,1,216.35,348.9Zm2.41-22.13a.64.64,0,0,1,.68-.51.7.7,0,0,1,.41.9c-.11.38-.37.59-.68.49A.63.63,0,0,1,218.76,326.78Zm1.89,14.47c-.08.15-.15.36-.28.44s-.34,0-.54,0a.68.68,0,0,1-.38-.84c.13-.58.79-.94,1.08-.6A.91.91,0,0,1,220.66,341.24Zm-2.54-22.82a3.42,3.42,0,0,0-1.54-.39c-.48-.06-.67-.2-.58-.61.21-.8.4-1.6.61-2.41l-.13-.08,0-.18a2.11,2.11,0,0,1-1-2.06c0-.59.5-.9.83-1.29a2.21,2.21,0,0,1,2.38-.68,1.37,1.37,0,0,1,1,.83h.22l.13.16c.45,0,.9-.1,1.35-.11.15,0,.32.17.43.31a3.69,3.69,0,0,1,.69,2.5c-.05.71-.33,1.4-.34,2.1s.57,1.28.58,2c0,.39-.13.71-.56.75A5.66,5.66,0,0,1,218.11,318.43Zm4.33,20.16a.61.61,0,0,1,.89-.32,1,1,0,0,1,.68.7,12.67,12.67,0,0,1,.16,1.43c-.06.65-.11,1.18-.18,1.69,0,.16-.14.44-.22.45a.91.91,0,0,1-.81-.5A3.41,3.41,0,0,1,222.44,338.59ZM223,348a.51.51,0,0,1,.64-.51c.16.06.37.18.41.32a3.78,3.78,0,0,1,.37,1.52,7.7,7.7,0,0,0,.82,4.63,2.71,2.71,0,0,1,.17,1,2.36,2.36,0,0,1-.86,1.87c-.1.1-.32.07-.47.12-.46.13-.63-.06-.77-.51a6.06,6.06,0,0,1-.27-2.09c.05-.88.16-1.76.21-2.16C223.11,350.42,223,349.19,223,348Zm2.81,40a.82.82,0,0,1-.85.46.59.59,0,0,1-.36-.27c-.63-1.13-.3-2.44-.65-3.62-.29-1-.57-2-.8-3.07a2.81,2.81,0,0,1,.17-1c.08-.42,1-.7,1.3-.45a3.47,3.47,0,0,1,1.37,2.2,27.3,27.3,0,0,1,.16,3C226,386.23,226.23,387.13,225.79,388Zm7.11-219.51c-.13,0-.26-.17-.39-.26.15-.07.31-.19.44-.17s.26.16.39.26C233.2,168.35,233,168.47,232.9,168.46Zm.07-66.63a.51.51,0,0,1,.36-.32.51.51,0,0,1,.37.3.68.68,0,0,1-.34.87A.69.69,0,0,1,233,101.82Zm.33,48.43c0-.12.17-.26.25-.38.07.15.22.32.17.44C233.55,150.84,233.37,150.82,233.3,150.25Zm.33-10.23a.54.54,0,0,1-.47-.65c0-.38.23-.6.5-.54a.57.57,0,0,1,.29.36.7.7,0,0,1,0,.48C233.92,139.82,233.76,139.91,233.64,140Zm-.4-42.46a.57.57,0,0,1-.34-.83,1.43,1.43,0,0,1,.58-.71c.24-.11.62.78.51,1.23S233.49,97.68,233.24,97.56ZM234.4,286l.21-.34.13.37Zm.8-109.3c.4-.09.62.09.62.49-.09.13-.17.37-.27.37a.56.56,0,0,1-.65-.57C234.89,176.94,235.07,176.78,235.2,176.75Zm.24,47.5c-.47-.2-.51-.47-.09-.68a.55.55,0,0,1,.46.13c.07.09,0,.29,0,.45S235.54,224.29,235.43,224.24Zm.91-103.37c.06-.15.12-.3.18-.45a.62.62,0,0,1,.85-.38c.64.2.9.58.74,1.1a3.1,3.1,0,0,1-.19.43c-.26.46-.75.54-1.31.2A.65.65,0,0,1,236.34,120.87Zm.54,126.18a1.07,1.07,0,0,1-.37-.38,1,1,0,0,1,.57-1.27c.18,0,.4,0,.52.05a1.34,1.34,0,0,1,.58,1.34C238.14,247.26,237.48,247.4,236.88,247.05Zm2-87.27-.13-.37.33,0Zm2.22,110.75c-.05-.13-.17-.29-.14-.39.16-.45.31-.42.37.06Zm-.09-3.77a.92.92,0,0,1-.94-.3c-.24-.29.54-1,1-.88.12,0,.25.23.31.38A.52.52,0,0,1,241,266.76Zm.75-23a.78.78,0,0,1-.87.32.69.69,0,0,1-.36-.38c-.48-1.54-.93-3.1-1.36-4.56a7.27,7.27,0,0,1,.2-1.17,10.68,10.68,0,0,0,.53-5.32,20.71,20.71,0,0,1,0-4.33,25.73,25.73,0,0,0-.38-8,.88.88,0,0,1,0-.54,3.46,3.46,0,0,1,.46-.94c.18-.23,1.15.52,1.16.89.06,4.32.74,8.62.38,13a10.25,10.25,0,0,0,.11,2.15c.27,2.33.61,4.65.86,7A2.58,2.58,0,0,1,241.74,243.8ZM243,197.13a.37.37,0,0,1,.34-.14.8.8,0,0,1,.41.28,1.19,1.19,0,0,1,.16.5c.05.53.09,1.06.16,2.18,0-.24,0,.12,0,.46s-.34.62-.66.55a.72.72,0,0,1-.45-.24A4.3,4.3,0,0,1,243,197.13Zm.59,12.35a.48.48,0,0,1,.4.24c0,.13-.1.31-.16.46s-.38.1-.44,0C243.06,209.85,243.14,209.56,243.56,209.48Zm.94,11.72c-.12,0-.33-.09-.33-.15a1.46,1.46,0,0,1,.09-.48c.13.05.36.09.36.14A1.52,1.52,0,0,1,244.5,221.2Zm-.12-6.32a.54.54,0,0,1-.44-.16c-.59-.65-.61-1.26,0-1.74.11-.09.3-.06.45-.08a1.26,1.26,0,0,1,.5,1.26A.7.7,0,0,1,244.37,214.88Zm1.1,105c-.28,0-.46-.15-.59-.49s0-.67.34-.77.5.13.61.45A.59.59,0,0,1,245.48,319.85Zm4.86-84.74a1,1,0,0,1-1.29-.59,3.94,3.94,0,0,1-.21-.47,1.43,1.43,0,0,1,.39-1.43,1.08,1.08,0,0,1,1.72.34,7.65,7.65,0,0,1,.25,1A1.2,1.2,0,0,1,250.33,235.12Zm.38-60.22c0-.13.09-.38.2-.42a.59.59,0,0,1,.79.4c-.1.13-.16.31-.29.38C251,175.48,250.75,175.34,250.71,174.9Zm1.46,154.83c-.32,0-.54-.14-.69-.52a.59.59,0,0,1,.4-.88.57.57,0,0,1,.7.48A.76.76,0,0,1,252.17,329.73ZM253,153a.55.55,0,0,1,.81-.3c.13.05.21.21.33.33a.64.64,0,0,1-.83.3C253.21,153.31,253,153.09,253,153Zm.18,53.3.1,0-.12,0c.33-.42.64-.85,1-1.25a1.24,1.24,0,0,1,1.46-.24,1.5,1.5,0,0,1,.64,1.36,1.82,1.82,0,0,1-.12.53c-.28.79-.91,1.17-1.59.54-.39-.36-.84-.66-1.27-1,0,0,0,.08,0,.13a1.3,1.3,0,0,1,.24.35c0,.11-.07.25-.1.38a.5.5,0,0,1-.14-.73Zm2.66,8.3a.54.54,0,0,1-.37.29.57.57,0,0,1-.46-.2,3,3,0,0,1-.1-2.54c.05-.13.2-.22.31-.34.15.1.35.16.43.3A2.6,2.6,0,0,1,255.89,214.62ZM254,289.94c-.16-1.62-.37-3.24-.55-4.86a29.74,29.74,0,0,1,0-4.34,32.6,32.6,0,0,0-.06-5.43,5.15,5.15,0,0,1,0-1.62c.54-2.7.11-5.42.24-8.12a4.66,4.66,0,0,1,.29-1c.12-.43.4-.51.85-.44a.87.87,0,0,1,.79.58c.36.89,0,1.78,0,3.43,0,.32.07,1.41.24,2.47.24,1.43.58,2.84.84,4.26a6.63,6.63,0,0,1,.09,1.61c-.07,1.09-.24,2.17-.3,3.25a11.08,11.08,0,0,0,.17,1.6,6.16,6.16,0,0,1,.1,1.61c-.29,1.61-.24,3.25-.49,4.86A12.12,12.12,0,0,0,256,291a9.79,9.79,0,0,1-.3,3.77.62.62,0,0,1-.84.33c-.16-.05-.39-.22-.39-.34C254.38,293.15,254.11,291.55,254,289.94Zm2.17-29.38a.63.63,0,0,1-.44.2c-.17,0-.42-.07-.48-.18a3.62,3.62,0,0,1,.16-3.47c.06-.13.3-.2.46-.21a.69.69,0,0,1,.47.19.66.66,0,0,1,.14.47c0,.34-.14.67-.2,1C256.13,259.23,256.58,259.93,256.12,260.56Zm-1.3,40.64c0-.35.25-.71.59-.68s.49.4.51.76a1,1,0,0,1-.42.81C255.19,302.33,254.78,301.79,254.83,301.2Zm.62,3.39-.26,0,.18-.26Zm-.24,7.08a.5.5,0,0,1,.34-.29.67.67,0,0,1,.82.47,1.57,1.57,0,0,1-1,2.12c-.13-.1-.3-.17-.36-.29A2.62,2.62,0,0,1,255.2,311.67ZM257.61,368a.85.85,0,0,1-.83.56.76.76,0,0,1-.74-.6,8,8,0,0,0-1.23-3.52,1.93,1.93,0,0,1-.23-1,3,3,0,0,1,.14-1.06,20.14,20.14,0,0,0,.87-8A16.63,16.63,0,0,1,256,349a.85.85,0,0,1,.75-.69,1,1,0,0,1,1.09.9c0,.18,0,.36.05.54a7.76,7.76,0,0,0,0,3.73c-.33,4,.25,7.95.17,11.92A6,6,0,0,1,257.61,368Zm.11-23.13c-.24.29-1.24.35-1.41.05a2.76,2.76,0,0,1-.23-.48,5.15,5.15,0,0,1-.23-1.57c.27-2.13-.6-4.25-.05-6.39a.87.87,0,0,1,.24-.42,2,2,0,0,1,.51-.17c.1.14.25.25.29.39a5.55,5.55,0,0,1,.31,3.13,3,3,0,0,0,.61,2.5,2.91,2.91,0,0,1,.39,1A2.18,2.18,0,0,1,257.72,344.88Zm.62-109.57c-.16.32-.36.63-.51,1a4.94,4.94,0,0,0-.58,1.5,19.68,19.68,0,0,1-.7,4.82c.06.9.11,1.81.19,2.71.12,1.25.51,2.49.08,3.75a.54.54,0,0,1-.33.28c-.17,0-.47.06-.52,0a5.8,5.8,0,0,1-.78-5.18,2.92,2.92,0,0,0,0-2.11,6.27,6.27,0,0,1-.37-1.57c-.13-1.26-.13-2.54-.3-3.79a10.64,10.64,0,0,1,.11-3.24,5.26,5.26,0,0,0,.22-1.61c-.4-2.88.22-5.8-.43-8.66a2.74,2.74,0,0,1,.25-1.57c.14-.42.39-.61.82-.47a.57.57,0,0,1,.34.32,9.67,9.67,0,0,1,.39,1.56,9.08,9.08,0,0,0,.28,2.68,10.23,10.23,0,0,1,.48,4.84c0,.18,0-1.5,0,1.12h.87v-.06c0,.79,0,1.33.55,1.83S258.71,234.58,258.33,235.31Zm37.21,4.54c.09.46-.56,1.12-1,1a.82.82,0,0,1-.56-.76c0-.18,0-.36,0-.54s0-.35,0-.53c0-.54.08-1.06.13-1.59s.26-.69.55-.54a.66.66,0,0,1,.3.38C295.17,238.12,295.37,239,295.54,239.84Zm-.6-7.54a.63.63,0,0,1-.34.39c-.26.09-.54-.11-.67-.52-.35-1.05,0-2.12-.06-3.37,0-.36.07-.89.16-1.42a.6.6,0,0,1,.34-.39c.26-.08.54.14.66.53A10.2,10.2,0,0,1,294.95,232.3Zm-.08-8.74c-.09.14-.25.34-.37.33s-.27-.21-.36-.36a2.23,2.23,0,0,1,0-2.43,2,2,0,0,1,.37-.36,2.59,2.59,0,0,1,.35.39A2.22,2.22,0,0,1,294.86,223.56Zm0-7.13a.87.87,0,0,1-.18.49s-.32,0-.35-.06c-.61-1.09-.54-2.38-1-3.53a3.51,3.51,0,0,1-.16-1.59,13.13,13.13,0,0,1,.29-3.18.48.48,0,0,1,.35-.26c.16,0,.45,0,.48.14a11.74,11.74,0,0,1,.5,5.08C294.81,214.29,294.85,215.36,294.89,216.43Zm-.56-22.59c-.08.06-.36-.07-.46-.2s0-.29-.06-.44c.16,0,.38-.16.5-.1C294.73,193.29,294.74,193.59,294.33,193.84Zm-1.92-46.93a.61.61,0,0,1,.87,0,1,1,0,0,1-.15,1.7,1.39,1.39,0,0,1-.51,0A1.12,1.12,0,0,1,292.41,146.91Zm-.15,4.17c.22-.19,1.14.24,1.28.59a2.62,2.62,0,0,1,.17.48c.06.35.08.69.12,1a3.23,3.23,0,0,1-.53,2,.59.59,0,0,1-.45.12.56.56,0,0,1-.4-.23,6.35,6.35,0,0,1-.58-3A1.22,1.22,0,0,1,292.25,151.08Zm-1,81.75c.07,0,.22.24.33.38.15.44,0,.73-.46.76a.51.51,0,0,1-.38-.32A.67.67,0,0,1,291.23,232.84Zm-6.44-89.75.05.49-.25-.09Zm-1,18.36a4,4,0,0,0,.36-2.1c-.05-2-.11-4-.15-5.94a1,1,0,0,1,.16-.47c.09-.16.22-.36.35-.39s.32.15.45.26a.85.85,0,0,1,.31.4c.11.72.16,1.43.28,2.14a36.66,36.66,0,0,1,.63,3.71,37.08,37.08,0,0,1-.16,4.15,28.38,28.38,0,0,0,.16,5.56,62.26,62.26,0,0,1,.21,8.08,7.67,7.67,0,0,1-.8,1.38,1.18,1.18,0,0,1-.92.36.91.91,0,0,1-.64-.79,1.56,1.56,0,0,1-.07-.53c.34-2.31.38-2.33,0-3.67a4.46,4.46,0,0,1-.2-2.12,40,40,0,0,0,.37-6.46,2.21,2.21,0,0,0-.23-1A2.53,2.53,0,0,1,283.83,161.44Zm1.1,66.81a.42.42,0,0,1-.39,0,6,6,0,0,1-.32-6.08.64.64,0,0,1,.46-.25c.1,0,.27.19.3.32.29,1.21.58,2.41.83,3.63a5.71,5.71,0,0,1,0,1.13C285.54,227.42,285.25,227.85,284.92,228.25Zm.52,27.21a1,1,0,0,1-.44.89c-.34.22-.79-.3-.77-.94a2.94,2.94,0,0,1,.22-1c0-.14.25-.33.38-.31s.29.21.35.35C285.29,254.81,285.36,255.15,285.44,255.47ZM284,241.66s0,.13,0,.25a.89.89,0,0,0,.08.11l-.13.12c0-.07,0-.15.05-.23C283.77,241.61,283.75,241.48,284,241.66ZM273.93,233c.41,0,.57.42.41.8-.06.13-.28.2-.43.29-.14-.1-.36-.17-.4-.3C273.36,233.39,273.53,233,273.93,233Zm-2.28-122.39.15.49-.35,0Zm-.09,5.25.16.4-.36,0Zm-.16,5.69a.65.65,0,0,1,.73-.5.72.72,0,0,1,.56,1.06,1.07,1.07,0,0,1-.79.54,1.11,1.11,0,0,1-.36-.17A1,1,0,0,1,271.4,121.55Zm1.36,57.61-.26,0,.16-.26Zm-1.28-22.32c.07-.11.25-.14.38-.2a2,2,0,0,1,.19,2.46.45.45,0,0,1-.39.17.72.72,0,0,1-.38-.37A2.38,2.38,0,0,1,271.48,156.84Zm0-16.64a.94.94,0,0,1,.12-.38c.11.05.31.1.3.15a1.14,1.14,0,0,1-.14.4C271.61,140.31,271.44,140.26,271.44,140.2Zm-.24-10.48a.61.61,0,0,1,.36-.34c.1,0,.3.12.37.24a3.43,3.43,0,0,1,.32,2.48c0,.32-.25.76-.49.84s-.52-.31-.58-.69-.14-1-.2-1.46S271.09,130,271.19,129.72ZM268.14,293a.43.43,0,0,1,.37-.1.7.7,0,0,1,.33.88c0,.13-.26.19-.4.29-.14-.07-.33-.11-.41-.22A.61.61,0,0,1,268.14,293Zm.17,7.68a.8.8,0,0,1,.88.45,1.43,1.43,0,0,1-.08,1.47.86.86,0,0,1-.4.3.61.61,0,0,1-.83-.47C267.58,301.53,267.74,300.85,268.3,300.71Zm-1.08,18.92a20.75,20.75,0,0,0,.44-7,14.89,14.89,0,0,1,.4-4.83c.11-.46.37-.55.81-.27a2,2,0,0,1,.92,1.25,12.31,12.31,0,0,1,.23,3.3,11.49,11.49,0,0,0,.24,4.78,3,3,0,0,1,.06.54,9.43,9.43,0,0,1,0,1.08c-.31,3.06,0,6.14-.14,9.21a7,7,0,0,0,.34,4.25,2,2,0,0,1-.21,1,.93.93,0,0,1-.84.6c-.12,0-.29-.15-.37-.27a7.62,7.62,0,0,1-1.14-4.65,9.57,9.57,0,0,1,.29-1.6,6,6,0,0,0-.23-3.21c-.19-.51-.38-1-.55-1.54A4.86,4.86,0,0,1,267.23,319.63ZM264.1,126.29a2,2,0,0,1,.47,3.14c-.27.35-.61.39-.83.13a3,3,0,0,1-.7-2.43,1,1,0,0,1,.57-.78C263.78,126.33,264,126.22,264.1,126.29Zm-1.33-2.52c-.09-.08-.07-.35,0-.5s.24-.16.38-.23c.1.13.29.29.28.41C263.36,123.93,263.09,124.06,262.77,123.77ZM262.93,88c.3,0,.43.51.45.86,0,.18,0,.36.05.71s-.13.86-.25,1.36c0,.15-.24.25-.37.38-.1-.15-.26-.28-.28-.44-.07-.69-.12-1.38-.13-2.08C262.39,88.38,262.62,87.93,262.93,88Zm-.38,8.62a.67.67,0,0,1,.31-.41c.21-.07.42.19.57.59a5.4,5.4,0,0,1,.08,2.61c0,.7-.06,1.4-.13,2.11a.59.59,0,0,1-.27.43c-.22.08-.46-.17-.48-.59C262.54,99.73,262.14,98.16,262.55,96.58Zm-.32,195.88a2.46,2.46,0,0,1-.39-2.5,8,8,0,0,0,.4-4.73,21.46,21.46,0,0,1-.3-2.12,2.87,2.87,0,0,1,.37-1.53.73.73,0,0,1,.84-.49c.13,0,.27.2.37.34a3.78,3.78,0,0,1,.76,2c.05.53,0,1.06,0,1.81a8.14,8.14,0,0,0,.26,3,10.36,10.36,0,0,1,.06,3.72,1.39,1.39,0,0,1-1.52,1.12A1.13,1.13,0,0,1,262.23,292.46Zm2.26,46.92c-.12.06-.29.21-.38.18-.31-.11-.37-.39-.17-.72a.42.42,0,0,1,.35-.18.47.47,0,0,1,.3.28C264.63,339.07,264.53,339.23,264.49,339.38Zm.07-29.54c0,.08-.42.08-.47,0a5.2,5.2,0,0,1-.64-3.46.67.67,0,0,1,.3-.42.5.5,0,0,1,.46.07,3,3,0,0,1,.91,2.56A12,12,0,0,1,264.56,309.83Zm.56,39.68-.32-.34c.11-.1.24-.3.35-.29s.21.21.33.32ZM270.91,362c0,.09-.25.2-.38.2a.48.48,0,0,1-.37-.23c-.16-.32-.23-.69-.4-1a3.67,3.67,0,0,1-.47-2.6c.39-1.62,0-3.25.11-4.88a8.42,8.42,0,0,0-.83-1.36,19.55,19.55,0,0,0-1.6-1.46,1.34,1.34,0,0,1,.16-1.5,9.13,9.13,0,0,1,.89-.6,1.49,1.49,0,0,0,.8-1.32,63.56,63.56,0,0,0-.17-8.15,2.69,2.69,0,0,1,.05-1.08,4.3,4.3,0,0,1,.55-.9c.25.23.63.41.75.69a4.35,4.35,0,0,1,.34,1.58c0,1.08-.05,2.17-.07,2.66a11.4,11.4,0,0,0,0,2.22,7.24,7.24,0,0,1-.05,3.22,4.42,4.42,0,0,0,.17,2.14,6.24,6.24,0,0,1,.49,2.1c-.16,2.36.26,4.69.31,7A11.54,11.54,0,0,1,270.91,362Zm0-120.19c-.22-.42-.14-.7.3-.82a.79.79,0,0,1,.52,0,.64.64,0,0,1,.28.9c-.09.15-.16.41-.27.43A.73.73,0,0,1,270.93,241.85Zm4.09,16.8c-.08.13-.13.32-.25.4a1.71,1.71,0,0,1-2.67-.6c-.12-.33-.2-.68-.35-1s-.12-.76.28-.92a1.57,1.57,0,0,1,1-.09,3.17,3.17,0,0,1,2,1.7A1.55,1.55,0,0,1,275,258.64Zm-.34-97,.28-.11,0,.27Zm.15-8.8c0-.13-.17-.29-.13-.39.18-.47.33-.43.39.08C275,152.68,274.92,152.78,274.83,152.89ZM276.31,239a.74.74,0,0,1-.11-.47,4.65,4.65,0,0,1,.31-.93c.07-.12.27-.17.4-.26.32,0,.53.19.61.59a1.3,1.3,0,0,1-.33,1.37C276.86,239.57,276.5,239.4,276.31,239Zm2.3,20.2c-.08.53-.12.9-.2,1.25a.74.74,0,0,1-.33.38.52.52,0,0,1-.82-.28c-.26-.86-.44-1.75-.62-2.62a1.1,1.1,0,0,1,.81-1.21c.43,0,1,.54,1.07,1.06,0,.18.07.36.08.53C278.62,258.7,278.61,259.05,278.61,259.24Zm.93,74.28c-.09.11-.3.24-.39.19a.65.65,0,0,1-.33-.9c.06-.13.24-.21.37-.32.14,0,.31.06.4.15A.62.62,0,0,1,279.54,333.52ZM281,212.28a.64.64,0,0,1-.88-.35c-.39-.83-.34-1.38.2-1.86s1.09-.32,1.27.17a9.23,9.23,0,0,1,.26,1C281.86,211.73,281.6,212.06,281,212.28Zm1.71,115.21a.9.9,0,0,1,1.37-.12,1.33,1.33,0,0,1,.4,1c-.11.33-.19.67-.31,1-.2.54-.83.56-1.28.08A1.42,1.42,0,0,1,282.69,327.49ZM284,302.28a.66.66,0,0,1,.76-.45c.09.13.27.27.26.39-.05.43-.33.58-.71.4C284.16,302.55,284,302.36,284,302.28Zm.75,65.33,0,.32-.31-.19Zm.3,15.69a.82.82,0,0,1-1.26-.33,1.45,1.45,0,0,1-.24-.47,22.45,22.45,0,0,1-.25-4.8c.05-.48.64-1.08,1.07-1s.72.23.87.47a10.15,10.15,0,0,1,.95,1.92C286.9,381,286.66,381.83,285,383.3Zm1.5-72.78c-.33-.08-.76-.07-1-.27a5.68,5.68,0,0,1-.87-1.28.72.72,0,0,1,0-.51,6.54,6.54,0,0,1,1.25-2.28,1.11,1.11,0,0,1,1.78.06,6.23,6.23,0,0,1,.83,1.33A2.21,2.21,0,0,1,286.53,310.52Zm2.79-15.57c-.22.52-.55,1-1.09,1.11s-1-.39-1.15-.91a2.85,2.85,0,0,0-1.88-1.79,1.15,1.15,0,0,1-.73-.76c-.35-.82-.75-1.63-1.13-2.45a1.9,1.9,0,0,1,.06-1.56,5.62,5.62,0,0,1,.53-.95,4,4,0,0,0,.58-2.06c0-1.45-.05-2.89-.12-4.33-.06-1.63-.25-3.26-.2-4.88a3.28,3.28,0,0,0-1.68-3.12.73.73,0,0,1-.22-1c.2-.5.49-1,.66-1.47a1.42,1.42,0,0,0-.23-1.51,4.58,4.58,0,0,1-.62-.88,2.25,2.25,0,0,1,.28-2.52c.65-.62,1.32-1.22,2-1.85.39-.39.83-.27,1.28.34a2.86,2.86,0,0,1,.61,1.48c0,.18,0,.36,0,.54,0,.36,0,.73,0,1.17a13.48,13.48,0,0,1-.16,1.53,4.6,4.6,0,0,0,0,2.65,2.42,2.42,0,0,1,.11,1.07,14.2,14.2,0,0,0,1,6.9,2.41,2.41,0,0,1-.24,2.08,5.34,5.34,0,0,0-.6,2.61,16.58,16.58,0,0,0,.42,4.3,4.94,4.94,0,0,1-.15,2.14c-.1.73,0,.89.66,1.31.47.29.94.55,1.38.85A1.55,1.55,0,0,1,289.32,294.95Zm-.21-84a.65.65,0,0,1-.34-.92c.06-.15.33-.38.38-.35a.75.75,0,0,1,.36.93C289.37,210.71,289.17,211,289.1,210.92Zm2.1,83.87a8.79,8.79,0,0,1,.27-4.25,2.38,2.38,0,0,0-.36-2,2.45,2.45,0,0,1-.2-1,.61.61,0,0,1,.17-.45c.35-.33.62-.23.9.16a3,3,0,0,1,.75,1.4c.21,2.15.4,4.3.64,7a8.12,8.12,0,0,1-.28,3.7.83.83,0,0,1-.33.41.56.56,0,0,1-.83-.26,4.09,4.09,0,0,1-.64-3.08A4.11,4.11,0,0,0,291.2,294.79Zm-.11,14.34a8.14,8.14,0,0,1,0-1.61c.77-1.28.63-2.8,1.1-4.16a.41.41,0,0,1,.37-.15c1.21.61,1.68,1.83,2.32,2.89a1.15,1.15,0,0,1-.06,1,8.8,8.8,0,0,0-1.22,5.21,12.54,12.54,0,0,1-.06,1.61.91.91,0,0,1-.68.76.83.83,0,0,1-.92-.32,2.68,2.68,0,0,1-.43-1,12.81,12.81,0,0,1-.11-1.45A5.57,5.57,0,0,0,291.09,309.12Zm.95,16.53c.1-.44.34-.65.76-.49a.76.76,0,0,1,.48.86c-.08.6-.63,1.21-1,1.09S291.88,326.36,292,325.66Zm.35-4.06c.12,0,.34.2.36.33a3.83,3.83,0,0,1,0,1c0,.13-.25.24-.38.35-.13-.11-.34-.19-.38-.33C291.82,322.35,292,321.6,292.39,321.59Zm1.49,60.57a.72.72,0,0,1-.26.44.67.67,0,0,1-.87-.16,2.27,2.27,0,0,1-.31-3.28,1.48,1.48,0,0,1,.92-.44c.22,0,.38.39.43.79s0,.71.12,1.73A9.13,9.13,0,0,1,293.89,382.16Zm-.24-8.71c-.31.12-.55,0-.62-.43a.69.69,0,0,1,.09-.46c.27-.45.54-.42.71.07a3.23,3.23,0,0,1,.09.49C293.83,373.23,293.76,373.4,293.65,373.45Zm-.46-5.41c0-.07.23-.07.35-.1,0,.15.16.31.14.44-.11.49-.34.54-.55.12A.6.6,0,0,1,293.19,368Zm1.57-20.77c-.71,2.06-.35,4.33-1.33,6.32a.65.65,0,0,1-.88.37.75.75,0,0,1-.34-.34,4.49,4.49,0,0,1-.38-2.1c0-.9.06-1.8.11-3.12a9.89,9.89,0,0,0-.46-3.85,1.79,1.79,0,0,1-.1-.53,1.92,1.92,0,0,1,0-.54,37.35,37.35,0,0,0,.76-3.7,28.14,28.14,0,0,0-.09-3.22c0-.11.17-.27.29-.33s.41,0,.43,0a15.49,15.49,0,0,1,.64,2,23.06,23.06,0,0,0,1.13,4.17,6,6,0,0,1,.39,2.67A8.39,8.39,0,0,1,294.77,347.27Zm.25-79.92c-.77,1-1.59,1.93-2.41,2.88a.81.81,0,0,1-.46.26,2,2,0,0,1-1-.11,2.86,2.86,0,0,1-1.31-2.24,4,4,0,0,1,.24-2.12,3.56,3.56,0,0,0,.28-2.28,13.57,13.57,0,0,1,.07-1.38,1.44,1.44,0,0,1,1.58-1.11,4.2,4.2,0,0,1,1.48.55,7.6,7.6,0,0,1,1.49,1.52A3.44,3.44,0,0,1,295,267.35Zm-.73-9.66c0-.12.21-.2.32-.32.09.12.19.24.29.35l-.34.31C294.46,257.92,294.28,257.79,294.28,257.69Zm1.16-5.13a.8.8,0,0,1-.75.62.56.56,0,0,1-.73-.52,5.27,5.27,0,0,1-.15-1c0-.71.06-1.42.07-1.57,0-2-.28-3.4.28-4.78.15-.38.41-.49.81-.2a2.2,2.2,0,0,1,.73.72,4.27,4.27,0,0,1,.44,1.53A15.33,15.33,0,0,1,295.44,252.56Zm2.07-12.38c0-.11.2-.21.31-.3l.28.35-.34.29C297.68,240.41,297.5,240.28,297.51,240.19Zm1,158.51c-.38-.2-.5-.47-.3-.85a.82.82,0,0,1,.35-.36.52.52,0,0,1,.77.43,3.13,3.13,0,0,1,0,.5A.57.57,0,0,1,298.47,398.7Zm8.21-163,0,.26-.22-.18Zm-3.83-.42s.14.22.15.22l-.12,0,0,.13-.24-.1.22,0Zm1.86,29.55a6.49,6.49,0,0,0-.6.66,5.66,5.66,0,0,1-3.73,2,.52.52,0,0,1-.39-.21.7.7,0,0,1,0-1,12.63,12.63,0,0,1,1.31-.94,2.73,2.73,0,0,1,1.52-.5c.64,0,1.28,0,1.92-.05l.13-.14s.07,0,.11,0c-.1-.31,0-.56.26-.62s.51.14.41.43-.37.31-.66.2c0,0,0,.07,0,.11Zm.91,135.2a1.15,1.15,0,0,1-.52-1.29,1.08,1.08,0,0,1,.76-.58.62.62,0,0,1,.85.38,2.46,2.46,0,0,1,.22.95C306.91,399.77,306,400.1,305.62,400Zm.84-140.82a1.42,1.42,0,0,1-1.13-.9.9.9,0,0,1,.06-1,8.53,8.53,0,0,1,.64-.77.59.59,0,0,1,.92-.05,2.22,2.22,0,0,1,.72,1.32C307.72,258.36,307,259.25,306.45,259.18Zm1.62,44.71a.81.81,0,0,1,.14-.49.83.83,0,0,1,.45-.28c.71-.12,1.42-.22,2.13-.27a.57.57,0,0,1,.67.58.55.55,0,0,1-.26.44c-.83.31-1.68.57-2.38.8C308.28,304.54,308.08,304.29,308.07,303.88Zm2.78,43.19c-.49,0-1-.6-.9-1a.74.74,0,0,1,.71-.52.7.7,0,0,1,.81.45C311.65,346.46,311.25,347.11,310.85,347.08Zm37.29-98a.89.89,0,0,1-.45-.92,1.69,1.69,0,0,1,.6-1.37c.19,0,.41-.06.55,0a1.66,1.66,0,0,1,.66,1.34.87.87,0,0,1-.4.94A.88.88,0,0,1,348.14,249.08Zm.17,8.63a.71.71,0,0,1-.32.82,1.72,1.72,0,0,1-.32-.34.51.51,0,0,1,.3-.77C348,257.4,348.27,257.58,348.31,257.71Zm1.07-28c0,.53,0,1.06,0,.66-.06,2.35,0,3.77-.43,5.16a9.21,9.21,0,0,0,0,3.19,8.84,8.84,0,0,1,.06,1.58.58.58,0,0,1-.75.43c-.17,0-.43-.16-.44-.27a57.92,57.92,0,0,1-.21-6.92c0-1.43,0-2.86,0-4.28,0-.5.73-1.08,1.07-.82a3.4,3.4,0,0,1,.66.74A1.12,1.12,0,0,1,349.38,229.75Zm-2.06-21.7c.34-.85.5-1,1-.85.87.26,1.05.73.57,1.46a.86.86,0,0,1-.37.35,1,1,0,0,1-.93-.08A.62.62,0,0,1,347.32,208.05Zm-7,36.25c.1.12.29.25.28.36s-.21.21-.33.31c-.1-.11-.29-.24-.28-.36S340.17,244.4,340.29,244.3Zm-16.22,9.18a26.56,26.56,0,0,1-.45,2.65,4.81,4.81,0,0,0,.19,3.17,4.71,4.71,0,0,1,.34,3.16,9.39,9.39,0,0,0,.28,4.27,3.48,3.48,0,0,1-.26,2.1,1.11,1.11,0,0,1-.86.54c-.47.1-.71-.07-.75-.55a9.81,9.81,0,0,1-.16-1.06c0-1.26,0-2.52,0-3.78a9,9,0,0,0-.25-2.14,5.16,5.16,0,0,1,.18-3.17,2.09,2.09,0,0,0-.13-2.07,5.27,5.27,0,0,1-.52-2.61c.15-1.61.27-3.23.44-4.84,0-.36.35-.73.65-.71a.79.79,0,0,1,.67.75C323.65,250.61,323.86,252,324.08,253.48Zm-.76-10.91c.08.67-.3,1.27-.68,1.08a1,1,0,0,1-.48-.89c0-.42.12-.8.52-.86S323.27,242.16,323.31,242.57Zm-1.23-10.11a1.45,1.45,0,0,1,.46,2.18.84.84,0,0,1-.36.33c-.37.18-.59,0-.68-.45a2.59,2.59,0,0,1,.15-2C321.7,232.44,321.94,232.48,322.08,232.46Zm-.47-16.53,0,.39-.43-.2Zm2.59,129.93c-.1.14-.18.32-.32.39a2.07,2.07,0,0,1-2.55-1.3,2,2,0,0,1-.12-.51,20.51,20.51,0,0,0,.36-4.23c.38-.79.68-1.68,1.56-2.06.22-.09.61.21.91.33.33,1.93.19,3.91.56,5.52A3.51,3.51,0,0,1,324.21,345.85Zm.23-64.78c-.07.15-.17.38-.27.38a.74.74,0,0,1-.8-.53,26.11,26.11,0,0,1-.9-3,2,2,0,0,1,.85-2.28.61.61,0,0,1,.87.27c.44.81.22,1.72.4,2.52A5.34,5.34,0,0,1,324.43,281.07Zm1.68-18.79c-.28-.56-.17-1.44.16-1.41a1.19,1.19,0,0,1,.82.58,1.1,1.1,0,0,1,.22,1c-.05.15-.21.25-.31.36A1,1,0,0,1,326.11,262.28Zm3.52,105c-.08.09-.28.22-.34.18a.62.62,0,0,1-.26-.83c.05-.13.2-.22.3-.32.12.05.27.07.34.15A.61.61,0,0,1,329.63,367.3Zm1.26-7.69a8.09,8.09,0,0,1-.66,1.46,1.11,1.11,0,0,1-1.76,0c-.11-.14-.26-.25-.35-.4a7.16,7.16,0,0,1-1.39-4.53c.08-.89,0-1.79.1-2.68a1.89,1.89,0,0,1,.71-1.38c.57-.44,1.12-.9,1.7-1.32a.65.65,0,0,1,.9.05.76.76,0,0,1,.21.47c0,.71,0,1.43,0,1.77-.14.55-.17.73-.22.9a3.22,3.22,0,0,0,.37,2.58l.26.46A3,3,0,0,1,330.89,359.61Zm1.39-81.14a.83.83,0,0,1-.64.67c-.44.09-1-.53-.86-1a2.59,2.59,0,0,1,.2-.47.65.65,0,0,1,.82-.46.84.84,0,0,1,.53.77A3,3,0,0,1,332.28,278.48Zm3.77-67.6a2.4,2.4,0,0,1,1.9-.66.63.63,0,0,1,.55.72,2,2,0,0,1-1.63,1.74,1,1,0,0,1-.92-.4A1.14,1.14,0,0,1,336.05,210.88Zm.08,104.91a.78.78,0,0,1,.7-.65c.48-.06.86.47.83,1.14a1.82,1.82,0,0,1-.24.45.68.68,0,0,1-.93,0A.83.83,0,0,1,336.14,315.79Zm1.44,79.05a.89.89,0,0,1-.45.89c-.29.13-.69-.61-.63-1.17s.16-1.4.25-2.1c0-.43.2-.7.45-.67s.25.26.27.42c.08.7.12,1.4.16,1.93C337.58,394.5,337.57,394.67,337.57,394.84Zm.33-21.45a1.85,1.85,0,0,1-1.25-2.1,1.16,1.16,0,0,1,1.18-.88,3.92,3.92,0,0,1,.53,0,1.71,1.71,0,0,1,1.36,1.47A1.54,1.54,0,0,1,337.9,373.39Zm2.36-6.14a.72.72,0,0,1-.88-.41c-.12-.35.17-.64.51-.83s.68-.15.77.35A.68.68,0,0,1,340.26,367.25Zm.56-15.8c-.06.14-.28.22-.43.32a.57.57,0,0,1-.55-.69.86.86,0,0,1,.21-.46c.26-.27.53-.16.7.31A.78.78,0,0,1,340.82,351.46Zm.75-73.67c-.31.07-.48-.16-.4-.57,0-.07.27-.17.38-.14s.16.21.24.34C341.71,277.54,341.66,277.76,341.56,277.79Zm.71-25.33c-.43,0-.62-.3-.51-.67a.59.59,0,0,1,.32-.36c.39-.16.64,0,.72.45S342.69,252.5,342.28,252.47Zm5.54,55.59a.81.81,0,0,1-.86-.48.77.77,0,0,1,0-.92.74.74,0,0,1,.92-.25.82.82,0,0,1,.4.89C348.26,307.68,348.11,308,347.82,308.05Zm.41-10.4a.77.77,0,0,1-1,0,1.28,1.28,0,0,1-.55-1.36,1.73,1.73,0,0,1,1.24-1.52.6.6,0,0,1,.48.16,7.49,7.49,0,0,1,.6.84A2,2,0,0,1,348.23,297.66Zm1.62-14.76a21.17,21.17,0,0,0-.38,3.76,4.81,4.81,0,0,1-1,2.48,1,1,0,0,1-.91.42c-.11,0-.21-.27-.28-.44a.91.91,0,0,1-.15-.5c.32-2.69,0-5.4.18-8-.32-2.64.19-5.15.19-7.68a3.82,3.82,0,0,0-.84-2.48,3.55,3.55,0,0,1-.29-.47,1.89,1.89,0,0,1-.13-2,6.14,6.14,0,0,0,.9-4.66,12.56,12.56,0,0,1-.12-1.62.91.91,0,0,1,1-1,1.31,1.31,0,0,1,1.2.9,7.05,7.05,0,0,1,.21,1c.06,1.08.11,2.17.14,3.25a13,13,0,0,1-.78,5.31,2.63,2.63,0,0,0,.12,2.1,4.51,4.51,0,0,1,.35,2.63,6,6,0,0,0,.08,1.6c.13.88.36,1.76.49,2.66A7.27,7.27,0,0,1,349.85,282.89Zm2.64,85.88a.76.76,0,0,1-.92.42.9.9,0,0,1-.77-1.15c.18-.69.58-1,1.12-.84C352.83,367.46,353,367.88,352.49,368.77ZM360.83,397a.73.73,0,0,1-.59-.78c0-.08.3-.22.45-.21.41,0,.58.29.52.73C361.09,396.87,360.93,397.06,360.83,397Zm7.23,25.12a8.25,8.25,0,0,0-.31,4.21,12.62,12.62,0,0,1,.08,2.12.88.88,0,0,1-.16.49,1.83,1.83,0,0,1-.93-.22,3.65,3.65,0,0,1-1.32-2.82c0-1.23.2-2.48.32-3.72l-.14,0c.14-1.23.28-2.46.42-3.7,0-.48.27-.62.68-.54a1,1,0,0,1,.82.57,5.64,5.64,0,0,1,.38,1A4.71,4.71,0,0,1,368.06,422.16Z"/><path class="cls-1" d="M187.11,268.84c.07,1.39.09,1.9.13,2.4a1.14,1.14,0,0,0,.11.49.71.71,0,0,0,.35.34c.09,0,.28-.09.35-.2a3.15,3.15,0,0,0,.17-2.45c-.09-.38-.37-.64-.59-.55S187.15,269.34,187.11,268.84Z"/><path class="cls-1" d="M187.36,280.37a.72.72,0,0,0,.25.89.89.89,0,0,0,.33-.33,1.65,1.65,0,0,0,0-.48c-.08-.14-.18-.27-.27-.41C187.59,280.14,187.42,280.23,187.36,280.37Z"/><path class="cls-1" d="M388.07,266.43l0,.09v0l0-.12Z"/><path class="cls-1" d="M388.1,266.57a6.71,6.71,0,0,1-.1.83.75.75,0,0,0,0,.28l.3-.29C388.24,267.12,388.17,266.84,388.1,266.57Z"/><path class="cls-1" d="M386.42,264.17a.93.93,0,0,0-.18,1.39,3.39,3.39,0,0,0,1.83.87c-.14-.67-.26-1.33-.42-2S386.91,263.77,386.42,264.17Z"/><path class="cls-1" d="M244.36,74.79a29.15,29.15,0,0,0,4.16-1.25c3.24-1.39,6.69-2.26,9.77-4l-.35-.71a8.86,8.86,0,0,0-15.89,0l-4.66,9.45A8.2,8.2,0,0,1,240,77C241.55,76.45,242.74,75.19,244.36,74.79Z"/><path class="cls-1" d="M390.14,192.82a1.16,1.16,0,0,0,.31-.29l-1.57-.23a1,1,0,0,0,.35.58A.8.8,0,0,0,390.14,192.82Z"/></svg>